<svg id="Grupo_4865" data-name="Grupo 4865" xmlns="http://www.w3.org/2000/svg" xmlns:xlink="http://www.w3.org/1999/xlink" width="159.915" height="80" viewBox="0 0 159.915 80">
  <defs>
    <clipPath id="clip-path">
      <rect id="Rectángulo_3230" data-name="Rectángulo 3230" width="159.915" height="80" fill="#fff"/>
    </clipPath>
  </defs>
  <rect id="Rectángulo_3224" data-name="Rectángulo 3224" width="1.694" height="9.12" transform="translate(71.347 28.393)" fill="#fff"/>
  <g id="Grupo_4866" data-name="Grupo 4866">
    <g id="Grupo_4865-2" data-name="Grupo 4865" clip-path="url(#clip-path)">
      <path id="Trazado_7250" data-name="Trazado 7250" d="M103.58,40.282a3.273,3.273,0,0,1,1.492.326,2.437,2.437,0,0,1,1.029,1,3.489,3.489,0,0,1,.383,1.733v3.986h-1.629V43.552a1.95,1.95,0,0,0-.43-1.381,1.6,1.6,0,0,0-1.224-.456,2.132,2.132,0,0,0-1.016.234,1.6,1.6,0,0,0-.684.7,2.506,2.506,0,0,0-.241,1.166v3.517H99.646V40.373h1.549v1.89l-.272-.587a2.427,2.427,0,0,1,1.048-1.029,3.428,3.428,0,0,1,1.609-.365" transform="translate(-24.285 -9.817)" fill="#fff"/>
      <path id="Trazado_7251" data-name="Trazado 7251" d="M113.336,47.422a6.087,6.087,0,0,1-1.68-.228,4.54,4.54,0,0,1-1.277-.554L111,45.4a4.3,4.3,0,0,0,1.121.489,4.71,4.71,0,0,0,1.315.188,2.27,2.27,0,0,0,1.1-.2.618.618,0,0,0,.346-.554.487.487,0,0,0-.235-.436,1.82,1.82,0,0,0-.612-.228q-.378-.078-.84-.144t-.925-.176a3.184,3.184,0,0,1-.84-.325,1.739,1.739,0,0,1-.613-.58,1.785,1.785,0,0,1-.234-.977,1.8,1.8,0,0,1,.378-1.14,2.447,2.447,0,0,1,1.061-.762,4.363,4.363,0,0,1,1.623-.274,6.4,6.4,0,0,1,1.413.163,4.115,4.115,0,0,1,1.206.449l-.638,1.237a3.338,3.338,0,0,0-.99-.4,4.737,4.737,0,0,0-1-.11,2.2,2.2,0,0,0-1.094.215.632.632,0,0,0-.365.554.525.525,0,0,0,.234.469,1.822,1.822,0,0,0,.612.241q.378.085.84.157t.919.182a3.665,3.665,0,0,1,.84.312,1.619,1.619,0,0,1,.619.567,1.735,1.735,0,0,1,.234.951,1.758,1.758,0,0,1-.384,1.14,2.5,2.5,0,0,1-1.081.743,4.688,4.688,0,0,1-1.674.267" transform="translate(-26.901 -9.817)" fill="#fff"/>
      <path id="Trazado_7252" data-name="Trazado 7252" d="M119.078,39.96h4.638v1.3h-4.638Zm3.544,7a2.473,2.473,0,0,1-1.772-.593,2.283,2.283,0,0,1-.625-1.739V38.37h1.615v6.2a1.073,1.073,0,0,0,.26.769.961.961,0,0,0,.73.273,1.358,1.358,0,0,0,.886-.287l.469,1.16a2.053,2.053,0,0,1-.716.352,3.127,3.127,0,0,1-.847.117" transform="translate(-29.021 -9.351)" fill="#fff"/>
      <path id="Trazado_7253" data-name="Trazado 7253" d="M128.355,38.257a1.025,1.025,0,0,1-.749-.287.943.943,0,0,1-.293-.7.915.915,0,0,1,.293-.678,1.027,1.027,0,0,1,.749-.287,1.072,1.072,0,0,1,.749.267.886.886,0,0,1,.293.684.98.98,0,0,1-.287.71,1.01,1.01,0,0,1-.756.293m-.808,1.146h1.615v6.958h-1.615Z" transform="translate(-31.028 -8.847)" fill="#fff"/>
      <path id="Trazado_7254" data-name="Trazado 7254" d="M131.361,39.96H136v1.3h-4.638Zm3.544,7a2.473,2.473,0,0,1-1.772-.593,2.283,2.283,0,0,1-.625-1.739V38.37h1.615v6.2a1.073,1.073,0,0,0,.26.769.961.961,0,0,0,.73.273,1.358,1.358,0,0,0,.886-.287l.469,1.16a2.053,2.053,0,0,1-.716.352,3.128,3.128,0,0,1-.847.117" transform="translate(-32.014 -9.351)" fill="#fff"/>
      <path id="Trazado_7255" data-name="Trazado 7255" d="M142.811,47.452a3.5,3.5,0,0,1-1.563-.333,2.414,2.414,0,0,1-1.062-1.016,3.489,3.489,0,0,1-.384-1.727V40.4h1.641v3.766a1.972,1.972,0,0,0,.43,1.387,1.555,1.555,0,0,0,1.2.463,2.071,2.071,0,0,0,1-.234,1.587,1.587,0,0,0,.664-.7,2.572,2.572,0,0,0,.234-1.159V40.4H146.6V47.36h-1.551V45.471l.274.586a2.448,2.448,0,0,1-1.029,1.029,3.079,3.079,0,0,1-1.485.365" transform="translate(-34.072 -9.847)" fill="#fff"/>
      <path id="Trazado_7256" data-name="Trazado 7256" d="M150.4,39.96h4.638v1.3H150.4Zm3.544,7a2.473,2.473,0,0,1-1.772-.593,2.283,2.283,0,0,1-.625-1.739V38.37h1.615v6.2a1.073,1.073,0,0,0,.26.769.961.961,0,0,0,.73.273,1.358,1.358,0,0,0,.886-.287l.469,1.16a2.052,2.052,0,0,1-.716.352,3.127,3.127,0,0,1-.847.117" transform="translate(-36.654 -9.351)" fill="#fff"/>
      <path id="Trazado_7257" data-name="Trazado 7257" d="M161.558,47.421a3.865,3.865,0,0,1-1.9-.462,3.437,3.437,0,0,1-1.322-1.27,3.538,3.538,0,0,1,1.316-4.945,3.852,3.852,0,0,1,1.9-.463,3.916,3.916,0,0,1,1.922.463A3.433,3.433,0,0,1,164.8,42a3.823,3.823,0,0,1,0,3.694,3.4,3.4,0,0,1-1.322,1.264,3.931,3.931,0,0,1-1.916.462m0-1.381a2.126,2.126,0,0,0,1.069-.266,1.876,1.876,0,0,0,.736-.769,2.409,2.409,0,0,0,.267-1.153,2.365,2.365,0,0,0-.267-1.153,1.9,1.9,0,0,0-.736-.756,2.214,2.214,0,0,0-2.111,0,1.946,1.946,0,0,0-.743.756,2.333,2.333,0,0,0-.273,1.153,2.377,2.377,0,0,0,.273,1.153,1.923,1.923,0,0,0,.743.769,2.071,2.071,0,0,0,1.042.266" transform="translate(-38.472 -9.817)" fill="#fff"/>
      <path id="Trazado_7258" data-name="Trazado 7258" d="M177.24,46.578a3.668,3.668,0,0,1-1.8-.443,3.2,3.2,0,0,1-1.258-1.244,4.1,4.1,0,0,1,0-3.76,3.2,3.2,0,0,1,1.258-1.251,3.667,3.667,0,0,1,1.8-.442,3.16,3.16,0,0,1,1.564.384A2.714,2.714,0,0,1,179.9,41a4.4,4.4,0,0,1,.4,2.012,4.531,4.531,0,0,1-.391,2.006,2.638,2.638,0,0,1-1.075,1.18,3.21,3.21,0,0,1-1.6.384m.2-1.381a2.056,2.056,0,0,0,1.049-.268,1.98,1.98,0,0,0,.743-.768,2.324,2.324,0,0,0,.28-1.153,2.282,2.282,0,0,0-.28-1.153,2.013,2.013,0,0,0-.743-.756,2.194,2.194,0,0,0-2.1,0,2.008,2.008,0,0,0-.743.756,2.281,2.281,0,0,0-.28,1.153,2.323,2.323,0,0,0,.28,1.153,1.975,1.975,0,0,0,.743.768,2.054,2.054,0,0,0,1.049.268m2.124,1.289V44.845l.039-1.85-.13-1.85V36.819h1.642v9.668Z" transform="translate(-42.339 -8.973)" fill="#fff"/>
      <path id="Trazado_7259" data-name="Trazado 7259" d="M189.4,47.422a4.232,4.232,0,0,1-2.026-.463,3.346,3.346,0,0,1-1.342-1.264,3.535,3.535,0,0,1-.476-1.844,3.61,3.61,0,0,1,.463-1.843,3.362,3.362,0,0,1,1.276-1.264,3.693,3.693,0,0,1,1.857-.463,3.619,3.619,0,0,1,1.811.449,3.259,3.259,0,0,1,1.25,1.258,3.833,3.833,0,0,1,.456,1.915c0,.061,0,.137-.006.228s-.011.172-.02.241h-5.8V43.292h4.939l-.653.339a2.047,2.047,0,0,0-.24-1.049,1.823,1.823,0,0,0-.7-.717,2.06,2.06,0,0,0-1.042-.254,2.143,2.143,0,0,0-1.049.254,1.727,1.727,0,0,0-.71.723,2.3,2.3,0,0,0-.247,1.081v.261a2.156,2.156,0,0,0,.281,1.107,1.9,1.9,0,0,0,.8.749,2.629,2.629,0,0,0,1.212.267,2.724,2.724,0,0,0,1.055-.2,2.48,2.48,0,0,0,.834-.573l.886,1.016a3.123,3.123,0,0,1-1.192.834,4.3,4.3,0,0,1-1.621.287" transform="translate(-45.223 -9.817)" fill="#fff"/>
      <rect id="Rectángulo_3225" data-name="Rectángulo 3225" width="2.58" height="9.12" transform="translate(71.048 42.494)" fill="#fff"/>
      <path id="Trazado_7260" data-name="Trazado 7260" d="M99.783,65.309v-9.12h2.124l5.016,6.071h-1V56.188h2.528v9.12h-2.124l-5.029-6.071h1v6.071Z" transform="translate(-24.318 -13.694)" fill="#fff"/>
      <path id="Trazado_7261" data-name="Trazado 7261" d="M113.669,65.309v-9.12h2.124l5.016,6.071h-1V56.188h2.527v9.12h-2.124l-5.029-6.071h1v6.071Z" transform="translate(-27.703 -13.694)" fill="#fff"/>
      <path id="Trazado_7262" data-name="Trazado 7262" d="M131.985,65.432a5.652,5.652,0,0,1-2.013-.352,4.653,4.653,0,0,1-2.67-2.508,4.621,4.621,0,0,1-.385-1.9A4.548,4.548,0,0,1,127.3,58.8a4.691,4.691,0,0,1,2.664-2.5,5.975,5.975,0,0,1,4.039,0,4.792,4.792,0,0,1,1.6.99,4.644,4.644,0,0,1,1.062,1.5,4.576,4.576,0,0,1,.384,1.889,4.736,4.736,0,0,1-.377,1.909,4.491,4.491,0,0,1-1.062,1.505,4.856,4.856,0,0,1-1.609.99,5.641,5.641,0,0,1-2.019.352m0-2.137a2.559,2.559,0,0,0,.971-.182,2.239,2.239,0,0,0,.781-.528,2.489,2.489,0,0,0,.521-.821,3.162,3.162,0,0,0,0-2.15,2.489,2.489,0,0,0-.521-.821,2.249,2.249,0,0,0-.781-.528,2.678,2.678,0,0,0-1.942,0,2.312,2.312,0,0,0-.788.528,2.363,2.363,0,0,0-.521.821,3.262,3.262,0,0,0,0,2.15,2.363,2.363,0,0,0,.521.821,2.3,2.3,0,0,0,.788.528,2.556,2.556,0,0,0,.971.182" transform="translate(-30.931 -13.635)" fill="#fff"/>
      <path id="Trazado_7263" data-name="Trazado 7263" d="M144.146,65.309l-3.9-9.12h2.776l3.3,7.9H144.68l3.362-7.9H150.6l-3.908,9.12Z" transform="translate(-34.181 -13.694)" fill="#fff"/>
      <path id="Trazado_7264" data-name="Trazado 7264" d="M152.029,65.308l4.026-9.12h2.54l4.039,9.12h-2.683L156.8,57.452h1.016l-3.154,7.856Zm2.2-1.785.664-1.889h4.456l.665,1.889Z" transform="translate(-37.051 -13.694)" fill="#fff"/>
      <path id="Trazado_7265" data-name="Trazado 7265" d="M171.241,65.432a5.573,5.573,0,0,1-1.993-.346,4.785,4.785,0,0,1-1.59-.976,4.455,4.455,0,0,1-1.055-1.505,5.049,5.049,0,0,1,0-3.831,4.448,4.448,0,0,1,1.055-1.505,4.787,4.787,0,0,1,1.59-.977,5.995,5.995,0,0,1,4.253.092,4.244,4.244,0,0,1,1.662,1.283l-1.641,1.485a3.212,3.212,0,0,0-.978-.794,2.527,2.527,0,0,0-1.172-.274,2.819,2.819,0,0,0-1.03.182,2.211,2.211,0,0,0-.8.527,2.485,2.485,0,0,0-.521.828,3.113,3.113,0,0,0,0,2.137,2.474,2.474,0,0,0,.521.827,2.212,2.212,0,0,0,.8.528,2.819,2.819,0,0,0,1.03.182,2.537,2.537,0,0,0,1.172-.274,3.134,3.134,0,0,0,.978-.808l1.641,1.485a4.288,4.288,0,0,1-1.662,1.289,5.5,5.5,0,0,1-2.261.443" transform="translate(-40.511 -13.635)" fill="#fff"/>
      <rect id="Rectángulo_3226" data-name="Rectángulo 3226" width="2.58" height="9.12" transform="translate(135.811 42.494)" fill="#fff"/>
      <path id="Trazado_7266" data-name="Trazado 7266" d="M189.848,64.617a5.652,5.652,0,0,1-2.013-.352,4.657,4.657,0,0,1-2.671-2.508,4.62,4.62,0,0,1-.384-1.9,4.548,4.548,0,0,1,.384-1.876,4.7,4.7,0,0,1,2.664-2.5,5.973,5.973,0,0,1,4.039,0,4.784,4.784,0,0,1,1.6.99,4.646,4.646,0,0,1,1.063,1.5,4.576,4.576,0,0,1,.384,1.889,4.723,4.723,0,0,1-.378,1.909,4.491,4.491,0,0,1-1.062,1.505,4.848,4.848,0,0,1-1.609.99,5.634,5.634,0,0,1-2.019.352m0-2.137a2.558,2.558,0,0,0,.97-.182,2.239,2.239,0,0,0,.781-.528,2.49,2.49,0,0,0,.521-.821,3.151,3.151,0,0,0,0-2.15,2.49,2.49,0,0,0-.521-.821,2.249,2.249,0,0,0-.781-.528,2.676,2.676,0,0,0-1.941,0,2.312,2.312,0,0,0-.788.528,2.351,2.351,0,0,0-.521.821,3.249,3.249,0,0,0,0,2.15,2.352,2.352,0,0,0,.521.821,2.3,2.3,0,0,0,.788.528,2.553,2.553,0,0,0,.971.182m-1.264-7.908,1.733-1.968H192.8l-2.476,1.968Z" transform="translate(-45.033 -12.82)" fill="#fff"/>
      <path id="Trazado_7267" data-name="Trazado 7267" d="M199.99,65.309v-9.12h2.124l5.016,6.071h-1V56.188h2.527v9.12h-2.124L201.5,59.237h1v6.071Z" transform="translate(-48.74 -13.694)" fill="#fff"/>
      <path id="Trazado_7268" data-name="Trazado 7268" d="M98.322,84.077a5.573,5.573,0,0,1-1.993-.346,4.786,4.786,0,0,1-1.59-.977,4.447,4.447,0,0,1-1.055-1.505,5.049,5.049,0,0,1,0-3.831,4.462,4.462,0,0,1,1.055-1.505,4.8,4.8,0,0,1,1.59-.976,6,6,0,0,1,4.253.091,4.246,4.246,0,0,1,1.662,1.283L100.6,77.8A3.214,3.214,0,0,0,99.625,77a2.537,2.537,0,0,0-1.172-.274,2.834,2.834,0,0,0-1.03.182,2.223,2.223,0,0,0-.8.528,2.482,2.482,0,0,0-.521.827,3.114,3.114,0,0,0,0,2.137,2.482,2.482,0,0,0,.521.827,2.211,2.211,0,0,0,.8.527,2.819,2.819,0,0,0,1.03.182,2.527,2.527,0,0,0,1.172-.274,3.131,3.131,0,0,0,.978-.807l1.641,1.485a4.3,4.3,0,0,1-1.662,1.289,5.5,5.5,0,0,1-2.261.443" transform="translate(-22.74 -18.179)" fill="#fff"/>
      <rect id="Rectángulo_3227" data-name="Rectángulo 3227" width="2.58" height="9.12" transform="translate(80.663 56.595)" fill="#fff"/>
      <path id="Trazado_7269" data-name="Trazado 7269" d="M115.038,81.947h4.768v2.006H112.5V74.833h7.14v2.006h-4.6Zm-.183-3.583h4.234v1.915h-4.234Z" transform="translate(-27.417 -18.238)" fill="#fff"/>
      <path id="Trazado_7270" data-name="Trazado 7270" d="M124.074,83.954v-9.12H126.2l5.016,6.071h-1V74.834h2.527v9.12h-2.124l-5.029-6.071h1v6.071Z" transform="translate(-30.239 -18.238)" fill="#fff"/>
      <path id="Trazado_7271" data-name="Trazado 7271" d="M142.338,84.077a5.573,5.573,0,0,1-1.993-.346,4.786,4.786,0,0,1-1.59-.977A4.447,4.447,0,0,1,137.7,81.25a5.049,5.049,0,0,1,0-3.831,4.462,4.462,0,0,1,1.055-1.505,4.8,4.8,0,0,1,1.59-.976,6,6,0,0,1,4.253.091,4.246,4.246,0,0,1,1.662,1.283L144.619,77.8a3.215,3.215,0,0,0-.978-.795,2.537,2.537,0,0,0-1.172-.274,2.834,2.834,0,0,0-1.03.182,2.223,2.223,0,0,0-.8.528,2.481,2.481,0,0,0-.521.827,3.114,3.114,0,0,0,0,2.137,2.481,2.481,0,0,0,.521.827,2.211,2.211,0,0,0,.8.527,2.819,2.819,0,0,0,1.03.182,2.527,2.527,0,0,0,1.172-.274,3.131,3.131,0,0,0,.978-.807l1.641,1.485a4.3,4.3,0,0,1-1.662,1.289,5.5,5.5,0,0,1-2.261.443" transform="translate(-33.467 -18.179)" fill="#fff"/>
      <rect id="Rectángulo_3228" data-name="Rectángulo 3228" width="2.58" height="9.12" transform="translate(113.953 56.595)" fill="#fff"/>
      <path id="Trazado_7272" data-name="Trazado 7272" d="M155.048,83.953l4.026-9.12h2.54l4.039,9.12H162.97L159.817,76.1h1.016l-3.154,7.856Zm2.2-1.785.664-1.888h4.456l.665,1.888Z" transform="translate(-37.787 -18.238)" fill="#fff"/>
      <path id="Trazado_7273" data-name="Trazado 7273" d="M176.974,83.954V80.1l.6,1.55-4.091-6.814h2.736l2.931,4.938h-1.563l2.957-4.938h2.5l-4.052,6.814.56-1.55v3.856Z" transform="translate(-42.28 -18.238)" fill="#fff"/>
      <path id="Trazado_7274" data-name="Trazado 7274" d="M96.484,100.835h4.768v2.006h-7.31v-9.12h7.14v2.006h-4.6ZM96.3,97.251h4.234v1.916H96.3Z" transform="translate(-22.895 -22.841)" fill="#fff"/>
      <path id="Trazado_7275" data-name="Trazado 7275" d="M105.52,102.841v-9.12h2.124l3.766,6.2h-1.121l3.688-6.2H116.1l.013,9.12h-2.371l-.026-5.512h.4l-2.749,4.613h-1.147L107.4,97.329h.5v5.512Z" transform="translate(-25.717 -22.841)" fill="#fff"/>
      <path id="Trazado_7276" data-name="Trazado 7276" d="M121.955,102.841v-9.12h4.156a5.308,5.308,0,0,1,2.163.4,3.107,3.107,0,0,1,1.4,1.166,3.553,3.553,0,0,1,0,3.6,3.176,3.176,0,0,1-1.4,1.159,5.231,5.231,0,0,1-2.163.411h-2.735l1.159-1.134v3.517Zm2.58-3.218-1.159-1.212h2.58a1.822,1.822,0,0,0,1.212-.346,1.384,1.384,0,0,0,0-1.954,1.778,1.778,0,0,0-1.212-.358h-2.58l1.159-1.187Z" transform="translate(-29.722 -22.841)" fill="#fff"/>
      <path id="Trazado_7277" data-name="Trazado 7277" d="M134.48,102.841v-9.12h4.156a5.323,5.323,0,0,1,2.163.4,3.113,3.113,0,0,1,1.4,1.167,3.245,3.245,0,0,1,.489,1.792,3.2,3.2,0,0,1-.489,1.8,3.114,3.114,0,0,1-1.4,1.14,5.377,5.377,0,0,1-2.163.4H135.9l1.16-1.1v3.518Zm2.58-3.218-1.16-1.2h2.58a1.807,1.807,0,0,0,1.212-.352,1.392,1.392,0,0,0,0-1.961,1.779,1.779,0,0,0-1.212-.358H135.9l1.16-1.186Zm3.049,3.218-2.267-3.322h2.749l2.279,3.322Z" transform="translate(-32.775 -22.841)" fill="#fff"/>
      <path id="Trazado_7278" data-name="Trazado 7278" d="M149.768,100.835h4.768v2.006h-7.309v-9.12h7.139v2.006h-4.6Zm-.182-3.583h4.234v1.916h-4.234Z" transform="translate(-35.881 -22.841)" fill="#fff"/>
      <path id="Trazado_7279" data-name="Trazado 7279" d="M161.786,102.723a8.271,8.271,0,0,1-2.169-.281,5.616,5.616,0,0,1-1.674-.709l.846-1.916a6,6,0,0,0,1.414.645,5.251,5.251,0,0,0,1.6.254,3.257,3.257,0,0,0,.867-.092.965.965,0,0,0,.469-.26.591.591,0,0,0,.15-.4.535.535,0,0,0-.287-.476,2.855,2.855,0,0,0-.749-.3q-.462-.124-1-.234a10.252,10.252,0,0,1-1.1-.293,4.173,4.173,0,0,1-1.016-.482,2.3,2.3,0,0,1-.737-.782,2.378,2.378,0,0,1-.28-1.212,2.6,2.6,0,0,1,.442-1.472,3.072,3.072,0,0,1,1.342-1.069,5.472,5.472,0,0,1,2.241-.4,7.761,7.761,0,0,1,1.766.2,5.206,5.206,0,0,1,1.531.606l-.782,1.9a5.584,5.584,0,0,0-1.29-.534,4.828,4.828,0,0,0-1.237-.169,2.6,2.6,0,0,0-.86.117,1.015,1.015,0,0,0-.469.3.622.622,0,0,0-.144.391.545.545,0,0,0,.287.489,2.589,2.589,0,0,0,.743.287q.456.111,1.01.228a10.944,10.944,0,0,1,1.1.293,4.338,4.338,0,0,1,1.01.468,2.314,2.314,0,0,1,.749.769,2.278,2.278,0,0,1,.287,1.192,2.58,2.58,0,0,1-.45,1.466,3.088,3.088,0,0,1-1.348,1.075,5.517,5.517,0,0,1-2.254.4" transform="translate(-38.493 -22.723)" fill="#fff"/>
      <path id="Trazado_7280" data-name="Trazado 7280" d="M168.487,102.841l4.026-9.121h2.54l4.039,9.121h-2.683l-3.153-7.857h1.016l-3.154,7.857Zm2.2-1.786.664-1.889h4.456l.665,1.889Z" transform="translate(-41.063 -22.841)" fill="#fff"/>
      <path id="Trazado_7281" data-name="Trazado 7281" d="M16.574,65.621a7.441,7.441,0,0,0,.529-2.762,7.528,7.528,0,1,0-15.057,0,7.446,7.446,0,0,0,.529,2.762A9.564,9.564,0,0,0,8.1,81.6V93.484h2.95V81.6a9.564,9.564,0,0,0,5.525-15.98M8.1,73.016v5.648A6.677,6.677,0,0,1,5.266,67.042l.933-.787-.62-1.05a4.64,4.64,0,1,1,7.991,0l-.619,1.05.932.787a6.677,6.677,0,0,1-2.834,11.622V73.016Z" transform="translate(0 -13.484)" fill="#fff"/>
      <path id="Trazado_7282" data-name="Trazado 7282" d="M85.444,11.313,38.265.021A1.632,1.632,0,0,0,37.6.051L14.338,11.182v3.446L38.082,3.376,85.444,14.763Z" transform="translate(-3.494 0)" fill="#fff"/>
      <path id="Trazado_7283" data-name="Trazado 7283" d="M85.444,23.028,38.357,13.913a1.694,1.694,0,0,0-.556.021L14.338,22.915v3.413L38.2,17.265l47.242,9.179Z" transform="translate(-3.494 -3.387)" fill="#fff"/>
      <path id="Trazado_7284" data-name="Trazado 7284" d="M66.954,31.849,38.1,27.657a1.781,1.781,0,0,0-.439.013L14.338,34.434v3.388l23.645-6.816,28.971,4.22Z" transform="translate(-3.494 -6.739)" fill="#fff"/>
      <path id="Trazado_7285" data-name="Trazado 7285" d="M66.954,43.98,38,40.95a1.875,1.875,0,0,0-.357.009L14.338,45.815v3.372L37.905,44.3l29.049,3.046Z" transform="translate(-3.494 -9.979)" fill="#fff"/>
      <path id="Trazado_7286" data-name="Trazado 7286" d="M69.565,55.772,40.712,53.645a1.824,1.824,0,0,0-.257,0l-15.4,2.236a11.085,11.085,0,0,1,1.395,3.16l14.2-2.056,28.923,2.135Z" transform="translate(-6.105 -13.073)" fill="#fff"/>
      <path id="Trazado_7287" data-name="Trazado 7287" d="M70.171,67.474,41.216,66.168a1.471,1.471,0,0,0-.173,0l-13.507,1.2a13.087,13.087,0,0,1,1.426,3.225L41.17,69.512l29,1.308Z" transform="translate(-6.711 -16.126)" fill="#fff"/>
      <path id="Trazado_7288" data-name="Trazado 7288" d="M70.462,79.023l-28.979-.6-.109,0-11.716.492a13.031,13.031,0,0,1-.928,3.4l12.724-.552,29.009.6Z" transform="translate(-7.002 -19.112)" fill="#fff"/>
      <path id="Trazado_7289" data-name="Trazado 7289" d="M68.188,90.444H22.53A13.219,13.219,0,0,1,19.4,92.327v1.46H68.188Z" transform="translate(-4.728 -22.042)" fill="#fff"/>
      <rect id="Rectángulo_3229" data-name="Rectángulo 3229" width="49.057" height="3.344" transform="translate(14.403 76.656)" fill="#fff"/>
    </g>
  </g>
</svg>
