<svg xmlns="http://www.w3.org/2000/svg" width="384.382" height="359.964" viewBox="0 0 384.382 359.964">
  <g id="IICE_LandingCompliancePenal_Nivel3_1" transform="translate(-616.805 -222.01)">
    <g id="Grupo_4909" data-name="Grupo 4909" transform="translate(616.805 222.01)">
      <path id="Trazado_9042" data-name="Trazado 9042" d="M1121.708,675.35a154.407,154.407,0,0,1-76.238,58.828" transform="translate(-805.509 -421.576)" fill="none" stroke="#010d3d" stroke-linecap="round" stroke-width="8.56"/>
      <path id="Trazado_9043" data-name="Trazado 9043" d="M1195.6,389.39a152.754,152.754,0,0,1,15.629,42.779" transform="translate(-871.598 -295.693)" fill="none" stroke="#010d3d" stroke-linecap="round" stroke-width="8.56"/>
      <path id="Trazado_9044" data-name="Trazado 9044" d="M906.96,248.155a155.377,155.377,0,0,1,62,1.909" transform="translate(-744.535 -232.531)" fill="none" stroke="#010d3d" stroke-linecap="round" stroke-width="8.56"/>
      <path id="Trazado_9045" data-name="Trazado 9045" d="M679.55,458.834a153.054,153.054,0,0,1,14.437-55.6" transform="translate(-644.426 -301.785)" fill="none" stroke="#010d3d" stroke-linecap="round" stroke-width="8.56"/>
      <path id="Trazado_9046" data-name="Trazado 9046" d="M790.293,727.548A154.636,154.636,0,0,1,722.71,669.89" transform="translate(-663.426 -419.172)" fill="none" stroke="#010d3d" stroke-linecap="round" stroke-width="8.56"/>
      <g id="Grupo_4901" data-name="Grupo 4901" transform="translate(289.075 144.494)">
        <path id="Trazado_9047" data-name="Trazado 9047" d="M1224.252,494.838a124.72,124.72,0,0,1-18.9-1.041c1.024-2.81,2.038-5.615,3.062-8.425a1.426,1.426,0,0,0-1.741-1.741c-1.209.358-2.435.644-3.678.884a1.162,1.162,0,0,0-1.153-.571,122.805,122.805,0,0,1-20.841-.2,1.228,1.228,0,0,0-1.355,1.254,1.61,1.61,0,0,0-.185.627l-.571,6.258a10.546,10.546,0,0,1-.129,1.467.224.224,0,0,0-.017.073,16.84,16.84,0,0,0-14.342.341,1.094,1.094,0,0,0-.369.3h-.028a1.362,1.362,0,0,0-2.3.285,1.376,1.376,0,0,0-1.125,1.327,1.46,1.46,0,0,0,.526,1.086c-4.131,17.532-11.688,34-17.292,51.069-1.483,4.506-2.821,9.052-3.918,13.653-.526,2.25-1.013,4.517-1.411,6.8-.185,1.041-.358,2.082-.515,3.124-.185,1.282-.4,2.693.829,3.532a6.77,6.77,0,0,0,3.051.711c1.338.174,2.693.33,4.047.487,2.592.314,5.173.61,7.77.912q7.759.873,15.534,1.679,17.6,1.814,35.194,3.532a1.421,1.421,0,0,0,1.366-1.041c2.894-11.005,7.714-22.162,10.591-33.162,2.849-10.877,5.128-21.6,7.395-32.619,1.282-6.23,4.478-12.981,5.363-19.285.112-.884-3.868-1.338-4.881-1.321Z" transform="translate(-1135.244 -481.651)" fill="#fff"/>
        <path id="Trazado_9048" data-name="Trazado 9048" d="M1211.143,496.155c.011.341-.028.98.207,1.26.146.179.459.2.666.224a13.28,13.28,0,0,0,2.827-.09,64.245,64.245,0,0,1,7.77-.123c3.14.106,6.309.252,9.438.532,1.752.157,4.523,1.036,5.212-1.232a.618.618,0,0,1,.364-.392c.33-.773.666-1.539,1-2.312a.684.684,0,0,1,.039-.1c-.375-.045-.756-.09-1.131-.14,1.024-2.81,2.038-5.615,3.062-8.425a1.426,1.426,0,0,0-1.741-1.741c-1.209.358-2.435.644-3.678.884a1.162,1.162,0,0,0-1.153-.571,122.81,122.81,0,0,1-20.841-.2,1.227,1.227,0,0,0-1.355,1.254,1.612,1.612,0,0,0-.185.627l-.571,6.258a9.769,9.769,0,0,1-.129,1.467.033.033,0,0,1-.011.028,7.775,7.775,0,0,1,.207,1.327c.028.481-.022.968-.006,1.45Z" transform="translate(-1167.422 -481.647)" fill="#ccf0f9"/>
        <path id="Trazado_9049" data-name="Trazado 9049" d="M1224.257,501.034a125.617,125.617,0,0,1-16.609-.761c-.05.112-.1.218-.14.33-.291.655-.593,1.3-.89,1.954,1.528.134,3.034.487,4.551.705a27.568,27.568,0,0,0,3.958.235c1.982,0,5.178-.19,5.822,2.262.543,2.071-.47,4.383-1.153,6.3a88.738,88.738,0,0,0-2.4,8.9c-1.567,6.572-2.877,13.205-4.439,19.783-1.607,6.757-3.308,13.48-4.96,20.225-.828,3.376-1.651,6.751-2.491,10.121s-1.819,6.684-2.676,10.037a.689.689,0,0,1-.666.5c-4.338-.3-8.677-.577-13-1.052a92.046,92.046,0,0,1-11.112-1.864,75.143,75.143,0,0,0-11.005-1.6c-7.44-.633-14.952-.952-22.05-3.476a.713.713,0,0,1-.487-.856c1.338-5.29,3.124-10.446,4.893-15.6,1.578-4.6,3.056-9.225,4.3-13.933,1.271-4.8,2.407-9.645,3.65-14.454,1.159-4.489,2.429-8.94,3.476-13.457a80.2,80.2,0,0,1,3.174-11.213,1.29,1.29,0,0,1,.756-1.892,8.716,8.716,0,0,1,3.14-.19c1.03.084,2.06.168,3.085.291,2.026.235,4.053.521,6.09.621a1.14,1.14,0,0,1,.784.347,7.755,7.755,0,0,1-.073-1.114,11.137,11.137,0,0,0-.034-1.618c-.078-.487-.185-.968-.308-1.444-4.266-1.467-10.983-2.3-15.081-.246-.157.073-1.775,2.29-1.775,3,0,.425-11.162,35.076-16.76,52.155-1.483,4.506-2.821,9.052-3.919,13.653-.526,2.25-1.013,4.517-1.411,6.8q-.277,1.562-.515,3.124c-.185,1.282-.4,2.693.829,3.532a6.77,6.77,0,0,0,3.051.711c1.338.174,2.693.33,4.047.487,2.592.313,5.172.61,7.77.912q7.758.873,15.534,1.679,17.6,1.814,35.194,3.532a1.421,1.421,0,0,0,1.366-1.041c2.894-11.005,7.714-22.162,10.591-33.162,2.849-10.877,5.128-21.6,7.395-32.619,1.282-6.23,4.478-12.982,5.363-19.285.112-.884-3.868-1.338-4.881-1.321Z" transform="translate(-1135.249 -487.847)" fill="#99e0f4"/>
        <g id="Grupo_4900" data-name="Grupo 4900">
          <path id="Trazado_9050" data-name="Trazado 9050" d="M1159.412,497.588c-2.01,5.262-4.081,10.5-6.057,15.775s-3.79,10.591-5.531,15.943q-5.189,15.954-9.707,32.115-2.536,9.069-4.87,18.2a1.417,1.417,0,0,0,.644,1.584c8.167,3.476,17.034,4.232,25.784,5.038q14.056,1.3,28.118,2.6l15.8,1.461a1.417,1.417,0,0,0,1.355-1.03l7.1-23.741,3.549-11.867c1.159-3.879,2.357-7.753,3.37-11.672,1.1-4.243,1.819-8.576,2.715-12.864q1.512-7.213,3.18-14.4c.985-4.221,1.965-8.47,3.258-12.606.106-.33.213-.666.325-.991a1.414,1.414,0,0,0-1.355-1.775c-5.934-.33-11.851-.84-17.779-1.254-1.629-.112-3.258-.218-4.887-.308a1.42,1.42,0,0,0-1.4,1.405,1.436,1.436,0,0,0,1.4,1.405c5.934.33,11.851.84,17.779,1.254,1.629.112,3.258.218,4.887.308l-1.355-1.775c-1.31,3.84-2.211,7.831-3.152,11.772q-1.73,7.288-3.275,14.622c-.812,3.823-1.467,7.686-2.329,11.5s-2.06,7.837-3.219,11.722-2.368,7.915-3.549,11.867l-7.1,23.741-.873,2.922,1.355-1.03q-13.922-1.285-27.838-2.575l-13.877-1.282c-2.234-.207-4.467-.409-6.7-.627-2.077-.207-4.249-.442-6.2-.722a55.639,55.639,0,0,1-13.67-3.51l.644,1.584q4.173-16.34,9.007-32.5c3.208-10.714,6.745-21.317,10.143-31.975,1.9-5.979,3.807-11.951,5.923-17.857a.842.842,0,0,0-1.623-.448h0Z" transform="translate(-1133.207 -487.547)" fill="#010d3d"/>
          <path id="Trazado_9051" data-name="Trazado 9051" d="M1210.367,481.413c-.241,1.517-.4,3.045-.649,4.557s-.537,3.09-.722,4.641c-.1.778-.179,1.556-.263,2.334a10.991,10.991,0,0,0-.1,1.819,5.782,5.782,0,0,0,.073.616c.006.039.034.252.011.084-.028-.235.034.269.022.2a2.607,2.607,0,0,0,.336,1.12,3.261,3.261,0,0,0,1.97,1.36,11.681,11.681,0,0,0,4.243-.291c-.246.034-.022,0,.028,0l.263-.034c.174-.022.353-.039.526-.062.4-.045.789-.078,1.187-.112q1.092-.084,2.183-.118a41.862,41.862,0,0,1,4.434.1c.75.056,1.495.129,2.239.224l.263.034c-.062-.006-.263-.039.022,0,.174.028.347.05.526.078q.554.084,1.109.185c1.394.252,2.743.655,4.12.946s3.034.3,4.053-.89a9.252,9.252,0,0,0,1.17-2.144l1.019-2.15,1.976-4.17c.666-1.405,1.383-2.793,1.987-4.226s.722-3.269-.8-4.2a5.009,5.009,0,0,0-2.357-.5c-.8-.05-1.528-.09-2.3-.134-1.551-.084-3.107-.157-4.657-.224q-9.287-.386-18.579-.285c-.767.006-1.534.017-2.3.034a1.405,1.405,0,1,0,0,2.81q8.808-.151,17.611.134,4.383.143,8.761.392c.7.039,1.394.084,2.088.129.308.017-.056,0-.05-.011s.185.034.213.039a.558.558,0,0,1,.2.062c-.006-.011-.274-.174-.056-.006-.045-.034-.19-.2-.05-.028,0,0-.151-.235-.084-.1.09.162-.078-.274-.028-.1.078.291-.022-.045.017-.067v.375c-.017-.034.067-.336.006-.084-.011.05-.022.1-.034.146-.033.129-.073.263-.117.386-.017.05-.034.1-.05.146-.118.325.134-.269-.017.034-.308.638-.6,1.282-.907,1.92l-3.8,8.022a19.738,19.738,0,0,1-.9,1.864c-.022.039-.179.218-.062.1s-.022.011-.034.022c-.224.168.062-.039.062-.039s-.162.1-.162.1c-.028-.028.3-.09.073-.034l-.185.05c-.134.039-.134-.039.09,0a.773.773,0,0,0-.2.017c-.134.006-.269,0-.4-.006a.908.908,0,0,1-.207-.017c.022.011.33.056.062.006s-.543-.106-.817-.179c-.666-.174-1.327-.347-1.993-.5a43.713,43.713,0,0,0-17.051-.4c-.146.028-.3.05-.442.078a1.821,1.821,0,0,1-.213.034s.269-.028.1-.011a6.978,6.978,0,0,1-.907.045,1.532,1.532,0,0,0-.207-.017c.017-.011.258.056.112.011-.062-.022-.129-.028-.2-.05-.045-.011-.252-.09-.073-.017.224.1-.2-.09-.19-.123s.19.185.045.022c-.011-.011-.224-.246-.078-.084.207.241-.246-.28-.3-.325-.325-.252-.028,0,.05.039.123.073.011.006-.034-.062a1.413,1.413,0,0,0-.073-.123c.106.19.039.09.022.011-.011-.062-.028-.134-.039-.2s-.034-.23,0,.011c-.011-.084-.017-.168-.022-.258a18.055,18.055,0,0,1,0-1.825,80.451,80.451,0,0,1,.481-8.688c.09-.689.179-1.377.28-2.066a.708.708,0,0,0-.476-.84.688.688,0,0,0-.84.476h0Z" transform="translate(-1166.405 -480.133)" fill="#010d3d"/>
          <path id="Trazado_9052" data-name="Trazado 9052" d="M1184.082,498.322c2.054-.056,4.109-.073,6.163-.034,1.019.017,2.032.056,3.045.106.509.022,1.013.05,1.523.084a8,8,0,0,1,1.377.291l.705-2.564a15.767,15.767,0,0,0-2.3-.118c-.649-.011-1.3-.011-1.948-.017-1.321-.006-2.648-.011-3.969-.011s-2.648,0-3.969.011c-.649,0-1.3.006-1.948.011-.694,0-1.4-.028-2.088.028a1.394,1.394,0,1,0,0,2.788c.688.045,1.4-.006,2.088-.011l1.948-.017c1.321-.011,2.648-.017,3.969-.017h3.969c.649,0,1.3.011,1.948,0a15.755,15.755,0,0,0,2.3-.084,1.333,1.333,0,0,0-.353-2.614,10.176,10.176,0,0,1-1.59.146c-.526-.022-1.013-.039-1.523-.05-1.041-.028-2.077-.045-3.118-.056-2.077-.022-4.159,0-6.236.078a1.047,1.047,0,0,0-1.024,1.024,1.021,1.021,0,0,0,1.024,1.024h0Z" transform="translate(-1153.488 -487.144)" fill="#010d3d"/>
          <path id="Trazado_9053" data-name="Trazado 9053" d="M1179.8,504.758a57.6,57.6,0,0,0-11.644-.9.761.761,0,0,0-.711.543c-1.22,4.758-2.407,9.522-3.672,14.269s-2.536,9.382-3.851,14.062q-3.972,14.107-8.341,28.1-2.452,7.859-5.021,15.674a.771.771,0,0,0,.532.94c7.736,1.271,15.512,2.368,23.281,3.426s15.517,2.021,23.3,2.883q6.574.73,13.155,1.366a.663.663,0,0,0,.638-.487q3.728-15.081,7.445-30.172t7.333-30.2q2.032-8.447,4.053-16.894a.635.635,0,0,0-.6-.789c-5.01-.521-10.015-1.108-15.019-1.635a.686.686,0,0,0-.683.683.7.7,0,0,0,.683.683c5,.526,10.015.985,15.019,1.517l-.6-.789q-3.636,15.106-7.311,30.206t-7.4,30.184q-2.082,8.43-4.187,16.861l.638-.487q-11.63-1.159-23.226-2.592t-23.125-3.157c-4.333-.649-8.654-1.377-12.981-2.071l.532.94q4.551-13.93,8.716-27.984t7.96-28.213c1.416-5.3,2.849-10.6,4.165-15.926l-.711.543a57.991,57.991,0,0,1,11.319.6.637.637,0,0,0,.756-.425.62.62,0,0,0-.426-.756h0Z" transform="translate(-1139.071 -490.569)" fill="#010d3d"/>
          <path id="Trazado_9054" data-name="Trazado 9054" d="M1199.921,520.62q6.5.865,13.065,1.17c4.372.2,8.744.151,13.121.05l7.4-.168a.58.58,0,0,0,0-1.159c-4.4.1-8.8.258-13.205.274s-8.75-.157-13.1-.521c-2.429-.2-4.859-.47-7.277-.789a.573.573,0,0,0-.571.571.585.585,0,0,0,.571.571h0Z" transform="translate(-1162.324 -497.452)" fill="#010d3d"/>
          <path id="Trazado_9055" data-name="Trazado 9055" d="M1198.76,528.694c3.846.448,7.7.9,11.565,1.125,1.931.112,3.863.174,5.8.151s3.756-.162,5.637-.185a28.014,28.014,0,0,1,3.062.112c1.019.1,2.021.4,3.045.481a.364.364,0,0,0,.185-.672,6.881,6.881,0,0,0-2.648-.717,23.157,23.157,0,0,0-2.788-.179c-1.842-.017-3.683.123-5.525.174a94.334,94.334,0,0,1-11.727-.515c-2.206-.213-4.4-.465-6.6-.722a.482.482,0,0,0-.476.476.49.49,0,0,0,.476.476h0Z" transform="translate(-1161.857 -501.093)" fill="#010d3d"/>
          <path id="Trazado_9056" data-name="Trazado 9056" d="M1181.2,543.818c-.526,1.467-1.041,2.933-1.607,4.383-.28.722-.632,1.405-.918,2.122s-.56,1.478-.812,2.228a.929.929,0,0,0,.884,1.164l4.025.19c1.293.062,2.592.179,3.885.19a2.3,2.3,0,0,0,1.724-.633,4.326,4.326,0,0,0,.823-1.523q.68-1.789,1.271-3.605c.453-1.405.856-2.827,1.22-4.254a.9.9,0,0,0-.632-1.108,38.929,38.929,0,0,0-4.473-.582c-.722-.045-1.444-.067-2.166-.062a8.979,8.979,0,0,0-2.357.218,1,1,0,0,0-.717,1.1,1.015,1.015,0,0,0,.985.868,17.441,17.441,0,0,0,2.161-.1c.677-.039,1.355-.05,2.032-.045a25.311,25.311,0,0,1,4.064.341l-.633-1.108a69.517,69.517,0,0,1-2.088,6.93c-.162.448-.347,1.036-.521,1.388a1.247,1.247,0,0,1-.246.375.891.891,0,0,1-.437.062c-1.226-.022-2.452-.14-3.678-.213l-4.232-.263.885,1.164c.257-.722.5-1.444.722-2.178s.381-1.528.616-2.278c.459-1.483.968-2.95,1.461-4.422.263-.789-.957-1.108-1.237-.341h0Z" transform="translate(-1152.847 -507.512)" fill="#010d3d"/>
          <path id="Trazado_9057" data-name="Trazado 9057" d="M1172.937,576.378c-1.181,2.933-2.424,5.839-3.555,8.789a1.023,1.023,0,0,0,.711,1.254,44.233,44.233,0,0,0,9.472,1.114,1,1,0,0,0,.946-.716c.386-1.719.778-3.437,1.153-5.156l.549-2.513.28-1.293c.1-.459.078-.94.2-1.388a.916.916,0,0,0-.868-1.136c-1.17-.151-2.323-.353-3.487-.554-1.293-.224-2.967-.817-4.047.224a.907.907,0,0,0-.14,1.086,1.887,1.887,0,0,0,1,.772,4.788,4.788,0,0,0,1.153.23c.593.045,1.2-.022,1.8-.022,1.243,0,2.485,0,3.728.056l-.868-1.136c-.078.437-.286.828-.381,1.265l-.28,1.293-.565,2.581c-.375,1.719-.739,3.443-1.108,5.167l.946-.717a37.232,37.232,0,0,1-8.929-1.125l.711,1.254c1.164-2.928,2.217-5.9,3.336-8.85a.909.909,0,0,0-.632-1.114.928.928,0,0,0-1.114.633h0Z" transform="translate(-1149.111 -521.633)" fill="#010d3d"/>
          <path id="Trazado_9058" data-name="Trazado 9058" d="M1165.6,609.263c-.739,1.976-1.478,3.958-2.245,5.923-.179.453-.358.907-.526,1.366a2.411,2.411,0,0,0-.151,1.651c.353,1.019,1.472,1.2,2.39,1.405l2.956.661q.739.168,1.478.319a8.707,8.707,0,0,0,1.64.3,2,2,0,0,0,1.836-1.629c.3-.963.459-1.982.672-2.961l1.495-6.88a.881.881,0,0,0-.834-1.1c-1.142-.017-2.284-.05-3.42-.146-.56-.045-1.12-.106-1.674-.157a2.114,2.114,0,0,0-1.931.481.879.879,0,0,0,0,1.215,2.085,2.085,0,0,0,1.864.521c.582-.034,1.164-.084,1.747-.117,1.142-.067,2.278-.067,3.42-.056l-.834-1.1-1.164,5.542-.571,2.7c-.1.453-.185.9-.274,1.355-.028.134-.056.274-.09.409-.022.073-.045.146-.073.224.033-.09-.05.118-.017.034-.045.112-.09.045,0,.028-.073.017.151.045-.134.006-.174-.022-.353-.078-.526-.118l-1.405-.336c-.918-.213-1.836-.414-2.754-.616l-1.276-.285c-.235-.05-.845-.106-.957-.3.017.034.05.05.056.017a2.858,2.858,0,0,1,.19-.61c.157-.437.308-.873.459-1.31.694-2.015,1.422-4.019,2.144-6.023a.776.776,0,0,0-.537-.946.785.785,0,0,0-.946.537h0Z" transform="translate(-1146.14 -536.414)" fill="#010d3d"/>
          <path id="Trazado_9059" data-name="Trazado 9059" d="M1214.45,547.362c5.749.4,11.5.823,17.253,1.209,1.612.106,3.252.308,4.87.291a.639.639,0,0,0,.168-1.254c-1.433-.207-2.9-.241-4.344-.336s-2.922-.2-4.383-.291q-4.316-.269-8.626-.543l-4.937-.319c-.8-.05-.8,1.192,0,1.248h0Z" transform="translate(-1168.708 -509.18)" fill="#010d3d"/>
          <path id="Trazado_9060" data-name="Trazado 9060" d="M1212.443,555.828c4.613-.017,9.236-.039,13.838.336q1.965.159,3.924.425a.618.618,0,0,0,.733-.414.6.6,0,0,0-.414-.733,104.937,104.937,0,0,0-14.034-.761c-1.349,0-2.7.011-4.047.022a.563.563,0,0,0,0,1.125Z" transform="translate(-1167.848 -512.95)" fill="#010d3d"/>
          <path id="Trazado_9061" data-name="Trazado 9061" d="M1206.458,578.925a18.183,18.183,0,0,0,7,1.36c.957-.073,1.886-.33,2.844-.414a3.837,3.837,0,0,1,1.187.039,1.574,1.574,0,0,1,.521.213,1.071,1.071,0,0,0,.3.168c.123.034.235-.017.347.011a.378.378,0,0,0,.459-.459c-.062-.3-.056-.5-.325-.705a2.93,2.93,0,0,0-.627-.336,3.783,3.783,0,0,0-1.366-.224,19.828,19.828,0,0,0-2.866.4c-2.435.364-4.876-.47-7.16-1.232-.744-.246-1.058.924-.325,1.17h0Z" transform="translate(-1165.267 -523.087)" fill="#010d3d"/>
          <path id="Trazado_9062" data-name="Trazado 9062" d="M1201.883,591.942a90.6,90.6,0,0,0,11.722,1.455c3.924.3,7.814.633,11.711,1.136,1.086.14,2.167.3,3.247.459.543.084,1.086.168,1.629.258a4.544,4.544,0,0,0,1.752.123.434.434,0,0,0,.1-.784,3.564,3.564,0,0,0-1.422-.409l-1.489-.252c-.952-.157-1.9-.3-2.855-.437-1.959-.28-3.918-.515-5.889-.705-3.885-.381-7.787-.56-11.666-.94a63.214,63.214,0,0,1-6.561-.957c-.683-.14-.979.907-.291,1.052h0Z" transform="translate(-1163.262 -528.884)" fill="#010d3d"/>
          <path id="Trazado_9063" data-name="Trazado 9063" d="M1196.734,615.418a113.072,113.072,0,0,1,16.939,1.64c.784.134,1.573.28,2.357.437s1.607.375,2.418.465c.6.067.661-.84.134-1.008a17.5,17.5,0,0,0-2.138-.453c-.705-.134-1.388-.258-2.088-.381-1.416-.246-2.838-.459-4.26-.655q-4.241-.571-8.509-.828-2.427-.143-4.853-.185a.485.485,0,0,0,0,.968Z" transform="translate(-1160.967 -539.261)" fill="#010d3d"/>
          <path id="Trazado_9064" data-name="Trazado 9064" d="M1200.643,625.778a42.739,42.739,0,0,0,6.829,1.7c1.148.207,2.3.4,3.448.593l1.747.3c.621.106,1.254.263,1.881.308a.48.48,0,0,0,.426-.246l.022-.045-.218.168.123-.028a.316.316,0,0,0,.073-.571l-.106-.067.168.218-.011-.056a.5.5,0,0,0-.347-.347c-.565-.151-1.17-.2-1.752-.3l-1.752-.286c-1.176-.19-2.345-.381-3.521-.582a42.475,42.475,0,0,1-6.768-1.651c-.554-.2-.8.683-.241.879h0Z" transform="translate(-1162.755 -543.843)" fill="#010d3d"/>
          <path id="Trazado_9065" data-name="Trazado 9065" d="M1185.429,542.986l1.657,5.4a1.416,1.416,0,0,0,2.346.621,36.421,36.421,0,0,1,5.212-5.172c.123-.1.246-.2.369-.3.062-.05.123-.1.185-.146h0c.224-.168.442-.33.666-.493.51-.369,1.036-.728,1.562-1.075.5-.325,1-.633,1.517-.929a11.965,11.965,0,0,0,1.813-1.1,1.351,1.351,0,0,0,.353-1.327,1.456,1.456,0,0,0-.952-.952,1.562,1.562,0,0,0-2.06,1.455.984.984,0,0,0,.828.98c.146.022.566-.017.207,0a.414.414,0,0,1,.118,0c-.078-.011-.386-.118-.336-.09.129.067.09.112-.073-.067l.6-2.278a8.14,8.14,0,0,0-1.909.957c-.549.319-1.086.649-1.618,1-1.091.711-2.144,1.489-3.163,2.306a36.4,36.4,0,0,0-5.3,5.245l2.346.621-1.657-5.4a1.4,1.4,0,1,0-2.7.745h0Z" transform="translate(-1156.172 -505.348)" fill="#33c1e9"/>
          <path id="Trazado_9066" data-name="Trazado 9066" d="M1177.27,574.637l.414,4.327a3.584,3.584,0,0,0,.722,2.25,2.2,2.2,0,0,0,2.637.381,9.983,9.983,0,0,0,1.825-1.36l1.691-1.344,3.432-2.732,1.959-1.562.929-.739.493-.392c.274-.218.039-.017.011-.011l.084-.05q-.655.378-1.344-.42l-.19-.694v.05a1.372,1.372,0,0,0,1.187,1.338,1.41,1.41,0,0,0,1.495-.974,1.488,1.488,0,0,0-.426-1.551,1.766,1.766,0,0,0-1.713-.353,7.166,7.166,0,0,0-2.015,1.422l-3.431,2.732-3.432,2.732-.817.649-.437.347-.218.173c-.034.028-.336.246-.162.129s-.213.146-.229.134.257-.056.034-.022a.88.88,0,0,1,.342,0,.8.8,0,0,1,.313.162c.028.022.246.3.185.314a2.038,2.038,0,0,1-.09-.364c.011,0,.034.313.017.1-.011-.112-.022-.229-.034-.341l-.062-.616-.117-1.237-.235-2.474a1.405,1.405,0,1,0-2.81,0h0Z" transform="translate(-1152.604 -520.009)" fill="#33c1e9"/>
          <path id="Trazado_9067" data-name="Trazado 9067" d="M1170.377,612.954c-.117-.28.073.2.09.252.056.157.106.319.157.476a8.653,8.653,0,0,1,.207.857c.034.162.062.33.084.5-.034-.252,0,.028.006.129a9.994,9.994,0,0,1,.034,1,1.409,1.409,0,0,0,2.11,1.209l5.24-3.751,2.592-1.853,1.293-.929a4.654,4.654,0,0,0,1.551-1.355,1.334,1.334,0,0,0-.1-1.461,1.371,1.371,0,0,0-1.383-.47,4.214,4.214,0,0,0-1.54.9l-1.293.929-2.592,1.853-5.184,3.711,2.11,1.209a11.249,11.249,0,0,0-.963-4.624,1.408,1.408,0,0,0-1.92-.5,1.448,1.448,0,0,0-.5,1.92h0Z" transform="translate(-1149.495 -536.214)" fill="#33c1e9"/>
        </g>
      </g>
      <g id="Grupo_4903" data-name="Grupo 4903" transform="translate(232.642)">
        <path id="Trazado_9068" data-name="Trazado 9068" d="M1123.482,298.57a31.161,31.161,0,0,0-1.472-7.227c-1.461-5.01-3.14-9.964-4.87-14.879-3.51-9.936-7.132-19.833-10.7-29.747q-2.662-7.389-5.329-14.784c-.47-1.282-.907-2.575-1.388-3.857a5.766,5.766,0,0,0-1.539-2.586c-1.584-1.338-3.247-.442-5.038-.3-.123.011-.319-.056-.319-.028-.263-.235-.369-.935-.621-1.226a2.968,2.968,0,0,0-2.989-.689c-2.687.47-5.357,1.058-8.039,1.584q-7.7,1.511-15.405,3.028c-2.726.537-5.464,1.03-8.151,1.763a37.1,37.1,0,0,0-7.445,2.989,21.514,21.514,0,0,1-3.415,1.539,12.841,12.841,0,0,1-3.219.521c-2.021.14-3.952.4-5.368,1.819-.952-.274-2.161.4-1.735,1.584,1.511,4.35,1.926,8.906,2.351,13.463a135.123,135.123,0,0,0,2.094,13.877q2.872,14.165,5.934,28.286c1.159,5.329,2.34,10.642,3.594,15.954a1.378,1.378,0,0,0,1.679.952c.47-.112.952-.207,1.433-.274a1.254,1.254,0,0,0,.935,1.086,3.063,3.063,0,0,0,2.4-.358c.162-.1.369-.19.549-.291a12.335,12.335,0,0,0,.414,1.377c.168.6.319,1.2.481,1.8.33,1.2.649,2.407.979,3.605a1.358,1.358,0,0,0,1.679.952,57.711,57.711,0,0,1,13.5-3.566,1.594,1.594,0,0,0,.963.442,10.52,10.52,0,0,0,4.087-.661c.649-.112,1.293-.218,1.942-.319,1.775-.028,3.566,0,5.34.14a1.36,1.36,0,0,0,1.338-1.159c7.339-1.058,14.689-1.982,22.05-2.877q4.9-.6,9.785-1.2a1.382,1.382,0,0,0,1.181-2.049,16.3,16.3,0,0,1-1.528-4.792,9.4,9.4,0,0,0,3.247-1.8,2.221,2.221,0,0,0,.6-2.094Z" transform="translate(-1034.138 -222.506)" fill="#fff"/>
        <g id="Grupo_4902" data-name="Grupo 4902">
          <path id="Trazado_9069" data-name="Trazado 9069" d="M1044.555,239.627c2.922,9.309,5.671,18.674,8.688,27.95l9.068,27.849,5.088,15.635a1.392,1.392,0,0,0,1.3.985c7.613.6,14.375-3.683,21.714-4.831,3.9-.61,8.139-.3,12.164-.425a91.527,91.527,0,0,0,12.354-1.265,88.27,88.27,0,0,0,13.273-3.353,1.376,1.376,0,0,0,.991-1.3,72.988,72.988,0,0,0-3.129-15.445c-1.556-5.027-3.476-9.875-5.469-14.711s-4.081-9.718-5.911-14.655c-.912-2.458-1.763-4.937-2.513-7.451s-1.405-5.072-2.082-7.619a68.771,68.771,0,0,0-5.352-14.935c-.308-.571-.627-1.131-.963-1.685a1.377,1.377,0,0,0-1.523-.621l-22.352,4.635-22.352,4.635-12.556,2.6a1.359,1.359,0,0,0-.941,1.663c.705,2.357,1.405,4.713,2.127,7.065.358,1.17.761,2.312,1.181,3.459.218.588.448,1.164.689,1.747s.549,1.148.728,1.735c.313,1.036,1.943.593,1.629-.448a18.1,18.1,0,0,1-.347-1.842c-.112-.6-.241-1.22-.381-1.83-.28-1.187-.577-2.357-.918-3.532-.689-2.362-1.405-4.713-2.11-7.07l-.941,1.663,22.352-4.635,22.352-4.635,12.556-2.6-1.523-.621a37.046,37.046,0,0,1,1.836,3.415c.554,1.17.952,2.127,1.416,3.381.907,2.435,1.64,4.932,2.323,7.434,1.383,5.055,2.665,10.11,4.428,15.053s3.778,9.724,5.777,14.538,3.974,9.651,5.615,14.61c.806,2.441,1.534,4.909,2.127,7.412.3,1.248.566,2.5.8,3.767.117.633.224,1.265.319,1.9.106.694.145,1.008.229,1.7.073.644.14,1.287.19,1.931l.991-1.3a86.807,86.807,0,0,1-23.606,4.467c-4.081.2-8.19-.09-12.26.325a51.847,51.847,0,0,0-11.067,2.8,56.971,56.971,0,0,1-5.979,1.735,20.31,20.31,0,0,1-2.81.442,19.35,19.35,0,0,1-3.068.011l1.3.985-9.068-27.849c-3.023-9.287-6-18.59-9.2-27.81q-2.7-7.767-5.335-15.568a.952.952,0,1,0-1.836.5h0Z" transform="translate(-1037.505 -222.761)" fill="#010d3d"/>
          <path id="Trazado_9070" data-name="Trazado 9070" d="M1041,251.059a128.593,128.593,0,0,1,3.616,15.277c.935,5.156,1.7,10.367,2.575,15.551s1.948,10.418,3.3,15.545,2.911,10.272,4.562,15.355q1.234,3.8,2.541,7.563c.868,2.513,1.724,5.088,2.665,7.607.235.621.464,1.248.688,1.875a1.286,1.286,0,0,0,1.226.929c7.154-.638,14.308-1.321,21.389-2.541q2.62-.453,5.217-1.03c.963-.218,1.909-.509,2.877-.7.425-.084.873-.112,1.293-.218-.342.09.045-.006.2-.028.067-.011.134-.017.207-.028-.347.05.185-.022.291-.039.336-.045.672-.084,1.008-.129,3.8-.47,7.6-.856,11.4-1.243,4.03-.409,8.066-.812,12.091-1.276,1.455-.168,2.911-.341,4.361-.56,1.187-.179,2.536-.5,2.642-1.954a6.2,6.2,0,0,0-.644-2.424l-.941-2.586c-.313-.868-.677-1.707-1.052-2.547a.908.908,0,0,0-1.148-.375.918.918,0,0,0-.532,1.086c.509,1.707,1.153,3.364,1.775,5.032.145.4.3.789.442,1.187.045.123.084.274.123.381.011.022,0,.2.05.078-.017.039-.14.067-.229.09-.129.039-.263.062-.4.09s-.246.039-.37.062l-.772.118c-.145.022-.291.039-.437.062l-.229.034c-.162.022.062-.011.078-.011a1.4,1.4,0,0,0-.151.022c-.745.1-1.489.19-2.234.28-3.913.47-7.837.873-11.755,1.288s-7.585.778-11.375,1.2c-.683.073-1.366.151-2.043.235l-.42.05c-.14.017-.269.045-.4.056.2-.017.145-.022,0,0l-.9.118c-.369.05-.728.118-1.091.2-1.7.392-3.409.767-5.133,1.092a174.962,174.962,0,0,1-20.651,2.245l-2.541.168,1.226.929c-1.7-5.066-3.454-10.11-5.117-15.187s-3.264-10.171-4.674-15.321-2.625-10.278-3.711-15.473-2-10.289-3.056-15.422-2.222-10.233-3.767-15.232c-.19-.621-.392-1.243-.594-1.864-.308-.929-1.763-.537-1.472.409h0Z" transform="translate(-1036.167 -234.394)" fill="#010d3d"/>
          <path id="Trazado_9071" data-name="Trazado 9071" d="M1092.48,224.372c.017-1.517-1.668-2.239-2.95-2.34a14.42,14.42,0,0,0-1.9.028q-.487.025-.974.067c-.168.017-.336.028-.5.045-.078.006-.157.017-.229.022-.134.011-.661.078-.3.028q-1.31.168-2.62.369c-4.26.649-8.492,1.455-12.713,2.318q-7.431,1.52-14.8,3.28c-4.5,1.069-8.979,2.116-13.418,3.4-1.679.487-3.359.991-5.016,1.551a23.41,23.41,0,0,0-3.571,1.427c-.084.045-.168.09-.252.14-.039.022-.084.045-.123.073l-.246.19.2-.157s-.067.039-.073.039a1.232,1.232,0,0,0-.554,1.366c1.254,5.408,2.273,10.865,3.348,16.307L1039,268.875q1.612,8.17,3.213,16.346c.98,4.971,1.825,10,3.135,14.9a45.978,45.978,0,0,0,2.76,7.708,15.819,15.819,0,0,0,1.036,1.853c.162.257.336.509.5.761a6.17,6.17,0,0,0,.661.94,2.049,2.049,0,0,0,1.271.358,5.4,5.4,0,0,0,.952,0,5.514,5.514,0,0,0,2.177-.666c.688-.358.185-1.293-.487-1.159a6.887,6.887,0,0,1-3.023-.067l.549.42a39.65,39.65,0,0,1-2.816-6.079,56.778,56.778,0,0,1-1.926-6.432c-1.147-4.73-1.993-9.544-2.933-14.314q-3.023-15.307-6.046-30.62c-1.131-5.738-2.323-11.464-3.269-17.236l-.554,1.366c.274-.151-.476.2-.011,0,.09-.039.174-.078.258-.112.157-.067.448-.174.028-.017l.655-.252c.554-.213,1.108-.431,1.668-.633,1.506-.532,3.029-1,4.557-1.45,4.176-1.232,8.4-2.284,12.6-3.448,2.385-.661,4.808-1.192,7.216-1.758s4.876-1.131,7.316-1.668c4.316-.957,8.649-1.87,13-2.67,1.629-.3,3.263-.543,4.892-.823.157-.028.313-.05.47-.078.078-.011.162-.022.241-.039.3-.05-.168.017.084-.011.353-.045.711-.112,1.064-.162-.314.045.067-.006.173-.022.129-.017.252-.028.381-.045-.2.028-.134.017,0,0a9.131,9.131,0,0,1,1.612-.017c.526.05,1,.213,1.114.756a.487.487,0,0,0,.952-.129h0Z" transform="translate(-1032.396 -222.01)" fill="#010d3d"/>
          <path id="Trazado_9072" data-name="Trazado 9072" d="M1057.137,239.125a10.777,10.777,0,0,0,1.411,3.538,4.978,4.978,0,0,0,1.237,1.528,1.38,1.38,0,0,0,1.713-.162c.912-.868.778-2.373.705-3.515a35.231,35.231,0,0,0-.633-4.249,31,31,0,0,0-1.03-4.014,29.846,29.846,0,0,0-1.332-3.515,13.55,13.55,0,0,0-2.026-3.107,8.97,8.97,0,0,0-1.254-1.187,3.449,3.449,0,0,0-2.3-.946,2.508,2.508,0,0,0-2.066,1.383,5.308,5.308,0,0,0-.487,2.217,11.722,11.722,0,0,0,.157,2.541,3.354,3.354,0,0,0,1.3,2.368.833.833,0,0,0,1.125-.3,1.8,1.8,0,0,0,.235-.991c-.017-.3.039-.6,0-.907-.062-.616-.134-1.232-.146-1.847-.006-.285,0-.577.011-.862.006-.134.011-.263.022-.4,0-.022.017-.179.017-.179.017,0-.062.308-.005.084.022-.09.039-.179.062-.269.017-.062.039-.118.056-.174.034-.123.067-.045,0-.006-.05.028-.062.106.006,0a1.367,1.367,0,0,1,.09-.146s-.162.224-.078.112a.541.541,0,0,1,.056-.056c.05-.045.039-.039-.039.028-.039.084-.1.073,0,.017-.269.151-.179.067-.084.05-.062.011-.146,0-.2.011-.118.022-.034-.006.039.011s.185.106,0-.006l.151.084c.118.067.224.151.336.23-.241-.174.056.05.112.1l.285.252c.185.174.364.353.532.537s.308.353.453.532c.1.118-.039-.045-.045-.062.039.056.084.118.129.174.073.1.145.207.218.313.274.409.532.828.767,1.26s.453.924.7,1.377a6.9,6.9,0,0,1,.308.649l.067.151c-.006-.017-.073-.179-.017-.045s.112.274.168.409c.425,1.052.834,2.11,1.243,3.174a21.491,21.491,0,0,1,1.12,3.375,17.845,17.845,0,0,1,.386,3.476,1.316,1.316,0,0,1-.084.554,2.259,2.259,0,0,1-.1.207c.011-.028,0,.028-.017.022l-.028.017a.21.21,0,0,1,.078-.034c-.011,0,.134,0,.106.011.034-.017.017.017-.045-.05s-.117-.134-.179-.2a6.73,6.73,0,0,1-.476-.655,9.588,9.588,0,0,1-1.383-3.269c-.2-.89-1.539-.509-1.36.375h0Z" transform="translate(-1040.615 -222.662)" fill="#010d3d"/>
          <path id="Trazado_9073" data-name="Trazado 9073" d="M1080.716,256.7a54.306,54.306,0,0,1,13.166-3.359c1.125-.14,2.262-.23,3.387-.392a17.6,17.6,0,0,0,3.292-.823c1.075-.375,2.11-.789,3.185-1.148s2.172-.661,3.275-.929c1.26-.3,2.525-.56,3.8-.795.638-.118,1.276-.224,1.914-.336a7.773,7.773,0,0,0,1.937-.442c.481-.218.174-.851-.241-.89a6.5,6.5,0,0,0-1.735.19c-.571.1-1.142.2-1.719.3-1.12.2-2.239.42-3.348.666a50.939,50.939,0,0,0-6.578,2.01,22.387,22.387,0,0,1-3.163.963c-1.08.224-2.278.33-3.415.47a54.9,54.9,0,0,0-14.011,3.577.508.508,0,0,0-.341.6.5.5,0,0,0,.6.341h0Z" transform="translate(-1053.396 -233.264)" fill="#010d3d"/>
          <path id="Trazado_9074" data-name="Trazado 9074" d="M1077.609,264.008a51.752,51.752,0,0,1,12.646-3.767c4.635-.924,9.276-1.814,13.916-2.721l3.907-.761c1.338-.263,2.721-.453,4.031-.84.6-.179.521-1.215-.157-1.142-1.2.129-2.4.431-3.583.672l-3.555.733-7.1,1.461c-4.5.929-9.063,1.724-13.5,2.944a38.694,38.694,0,0,0-7.065,2.631c-.521.263-.062,1.036.453.778h0Z" transform="translate(-1051.996 -236.433)" fill="#010d3d"/>
          <path id="Trazado_9075" data-name="Trazado 9075" d="M1072.555,285.376a68.55,68.55,0,0,1,8.666-3.342,79.176,79.176,0,0,1,9.1-2.178c1.573-.285,3.146-.571,4.7-.974s3.012-.929,4.49-1.472a46.948,46.948,0,0,1,4.473-1.472,39.58,39.58,0,0,1,4.641-.856c1.814-.241,3.639-.448,5.458-.666l2.7-.325,1.388-.168c.235-.028.47-.045.7-.084a2.92,2.92,0,0,0,.694-.269.433.433,0,0,0-.1-.784,3.751,3.751,0,0,0-1.226-.034l-1.248.151-2.5.3c-1.646.2-3.3.4-4.943.6s-3.151.414-4.708.744a33.9,33.9,0,0,0-4.523,1.343c-1.483.537-2.984,1.12-4.512,1.584a47.129,47.129,0,0,1-4.725,1.108,91.132,91.132,0,0,0-9.208,2.15,71.074,71.074,0,0,0-9.824,3.8c-.571.269-.073,1.108.493.845h0Z" transform="translate(-1049.742 -244.332)" fill="#010d3d"/>
          <path id="Trazado_9076" data-name="Trazado 9076" d="M1075.356,291.593a141.145,141.145,0,0,1,18.954-5.945c1.623-.386,3.252-.739,4.887-1.069s3.208-.616,4.781-1.036a27.2,27.2,0,0,0,4.439-1.663,11.757,11.757,0,0,1,4.21-1.288c1.612-.1,3.213.174,4.825.224a10.7,10.7,0,0,0,2.351-.157,3.461,3.461,0,0,0,2.066-.991.43.43,0,0,0-.414-.711c-.666.168-1.276.47-1.954.6a9.289,9.289,0,0,1-1.931.123c-1.422-.034-2.833-.246-4.254-.241a10.9,10.9,0,0,0-4.327.957,46.856,46.856,0,0,1-4.366,1.8,48.109,48.109,0,0,1-4.691,1.125c-1.579.319-3.208.666-4.8,1.036q-4.8,1.125-9.528,2.592-5.323,1.654-10.5,3.723a.5.5,0,0,0-.336.588.482.482,0,0,0,.588.336h0Z" transform="translate(-1051.042 -247.073)" fill="#010d3d"/>
          <path id="Trazado_9077" data-name="Trazado 9077" d="M1078.135,299.787a166.83,166.83,0,0,1,16.525-4.954c5.592-1.411,11.235-2.6,16.889-3.723q2.359-.47,4.719-.929a33.564,33.564,0,0,1,4.82-.722c.33-.017.526-.509.179-.672-1.344-.633-2.86-.14-4.243.134s-2.838.554-4.26.834c-2.861.565-5.721,1.142-8.57,1.758-5.693,1.232-11.375,2.569-16.939,4.294-3.14.974-6.258,2.038-9.332,3.219-.464.179-.269.929.207.756h0Z" transform="translate(-1052.32 -251.27)" fill="#010d3d"/>
          <path id="Trazado_9078" data-name="Trazado 9078" d="M1082.5,306.735c7.216-1,14.246-2.984,21.255-4.921q1.545-.428,3.1-.868l1.478-.414a5.778,5.778,0,0,0,1.584-.549.528.528,0,0,0-.263-.974,4.685,4.685,0,0,0-1.371.285l-1.411.4q-1.344.378-2.687.761-2.662.764-5.318,1.517c-3.482.98-6.975,1.9-10.513,2.642q-3.048.647-6.13,1.086a.53.53,0,0,0-.37.655.545.545,0,0,0,.655.369h0Z" transform="translate(-1054.157 -255.906)" fill="#010d3d"/>
          <path id="Trazado_9079" data-name="Trazado 9079" d="M1088.649,320.144c6.035-1.506,12.069-3.034,18.1-4.523a31.751,31.751,0,0,1,4.456-.845,23.825,23.825,0,0,0,3.986-.515,6.457,6.457,0,0,0,1.808-.773c.6-.381,1.131-.856,1.724-1.243a8.6,8.6,0,0,1,3.751-1.164c1.64-.185,3.292-.263,4.937-.386l2.625-.19a18.47,18.47,0,0,0,2.614-.263c.56-.123.392-.918-.129-.952a17.4,17.4,0,0,0-2.351.112l-2.351.179c-1.506.112-3.006.218-4.512.347a13.311,13.311,0,0,0-3.941.8,8.177,8.177,0,0,0-1.791,1.041,9.848,9.848,0,0,1-1.747,1.159,11.251,11.251,0,0,1-3.8.728,31.357,31.357,0,0,0-4.389.677c-3.012.689-5.99,1.506-8.985,2.273l-10.272,2.637a.462.462,0,0,0,.246.89h0Z" transform="translate(-1056.901 -260.426)" fill="#010d3d"/>
          <path id="Trazado_9080" data-name="Trazado 9080" d="M1090.876,325.436c5.452-1.192,10.989-1.9,16.508-2.676s11.028-1.657,16.463-2.911q4.585-1.058,9.1-2.4a.576.576,0,0,0-.308-1.108c-5.352,1.545-10.776,2.855-16.245,3.9s-11.005,1.741-16.5,2.637c-3.1.5-6.18,1.075-9.231,1.791-.5.118-.291.89.213.778h0Z" transform="translate(-1057.919 -263.524)" fill="#010d3d"/>
          <path id="Trazado_9081" data-name="Trazado 9081" d="M1094.311,332.436c5.553-1.567,11.19-2.8,16.844-3.935s11.414-2.217,17.118-3.364l4.769-.963c1.629-.33,3.286-.6,4.887-1.064.509-.146.437-1.024-.129-.963-1.472.168-2.928.493-4.383.784l-4.3.851c-2.883.571-5.76,1.164-8.637,1.752-5.654,1.159-11.313,2.3-16.928,3.667-3.168.767-6.314,1.6-9.432,2.541a.36.36,0,0,0,.19.694Z" transform="translate(-1059.457 -266.09)" fill="#010d3d"/>
          <path id="Trazado_9082" data-name="Trazado 9082" d="M1094.657,342.767a54,54,0,0,1,8.649-2.06c2.928-.509,6-1.086,8.99-1.646,6.1-1.148,12.176-2.368,18.26-3.571l10.289-2.032c.728-.146.42-1.254-.308-1.108q-9.153,1.805-18.305,3.611c-6.1,1.209-12.1,2.379-18.165,3.521a58.076,58.076,0,0,0-9.623,2.519c-.481.179-.28.952.213.778h0Z" transform="translate(-1059.589 -270.577)" fill="#010d3d"/>
          <path id="Trazado_9083" data-name="Trazado 9083" d="M1099.166,356.041a28.539,28.539,0,0,1,4.445-.84,37.685,37.685,0,0,1,4.495-.14,11.656,11.656,0,0,0,4.288-.593,26.411,26.411,0,0,1,4.131-1.232c.817-.157,1.646-.274,2.469-.392a4.846,4.846,0,0,1,.9-.078c.112.006.4.017.453.151a.529.529,0,0,0,1.019-.28c-.308-1.444-2.334-.912-3.314-.761a24.259,24.259,0,0,0-4.54,1.041c-.717.257-1.405.571-2.133.795a8.693,8.693,0,0,1-2.34.341c-1.59.045-3.174-.017-4.758.14a29.934,29.934,0,0,0-5.346,1.019.43.43,0,0,0,.229.828h0Z" transform="translate(-1061.552 -279.081)" fill="#010d3d"/>
        </g>
      </g>
      <g id="Grupo_4906" data-name="Grupo 4906" transform="translate(0 165.744)">
        <g id="Grupo_4904" data-name="Grupo 4904">
          <path id="Trazado_9084" data-name="Trazado 9084" d="M665.414,692.44a11.7,11.7,0,0,0-.319-2.575,4.15,4.15,0,0,0-1.579-2.329,5.259,5.259,0,0,0-2.838-.744c-.448-.028-.9-.039-1.343-.062a4,4,0,0,0-.129-3.555,5.276,5.276,0,0,0-3.213-2.558,13.21,13.21,0,0,0-4.35-.364q-2.393.05-4.786.112c-3.23.078-6.449.162-9.673.246-1.623.045-3.247.1-4.876.14-.8.022-1.6.045-2.4.073a8.309,8.309,0,0,0-2.29.28,4.28,4.28,0,0,0-2.827,2.984,2.637,2.637,0,0,0-.062,1.024c.011.073.034.414.039.47V685.5c.006.134.022.269.034.4a4.548,4.548,0,0,0,.291,1.148l-.56.034c-.258.011-.515.039-.773.067a4.605,4.605,0,0,0-4.148.425,5.831,5.831,0,0,0-2.687,4.193,15.738,15.738,0,0,0,.353,5.671,4.3,4.3,0,0,0,1.265,2.362,4.533,4.533,0,0,0,2.827.985c1.976.112,3.986.028,5.973.028h5.984q6.071,0,12.142-.028t12.142-.078c1-.006,2-.011,2.995-.022a11.015,11.015,0,0,0,2.844-.185,2.843,2.843,0,0,0,2.071-2.228,13.471,13.471,0,0,0,.028-2.888c-.039-.985-.1-1.965-.146-2.945Z" transform="translate(-616.805 -589.469)" fill="#ccf0f9"/>
          <path id="Trazado_9085" data-name="Trazado 9085" d="M665.419,697.4a11.7,11.7,0,0,0-.319-2.575,4.149,4.149,0,0,0-1.579-2.329,5.259,5.259,0,0,0-2.838-.744c-.448-.028-.9-.039-1.344-.062.034-.056.062-.123.089-.179-1.075-.017-2.144-.022-3.219-.006-10.384.134-20.734,1.456-31.124.94a1.808,1.808,0,0,1-1-.358c-.106.011-.207.017-.313.028a4.6,4.6,0,0,0-4.148.425,5.831,5.831,0,0,0-2.687,4.193,15.738,15.738,0,0,0,.353,5.671,4.3,4.3,0,0,0,1.265,2.362,4.5,4.5,0,0,0,2.827.985c1.976.112,3.986.028,5.973.028h5.984q6.071,0,12.142-.028t12.142-.078c1-.006,2-.011,2.995-.022a11.01,11.01,0,0,0,2.844-.185,2.843,2.843,0,0,0,2.071-2.228,13.462,13.462,0,0,0,.028-2.888c-.039-.985-.1-1.965-.146-2.945Z" transform="translate(-616.809 -594.426)" fill="#99e0f4"/>
          <path id="Trazado_9086" data-name="Trazado 9086" d="M713.908,583.065a13.475,13.475,0,0,0-7.154-6.986c-3.409-1.523-7.07-2.066-10.692-2.861a32.257,32.257,0,0,1-5.346-1.6.54.54,0,0,0-.106-.045c-.078-.034-.162-.073-.241-.106-.185-.078-.375-.168-.56-.252-.459-.213-.912-.442-1.366-.672q-1.192-.613-2.351-1.288c-1.657-.946-3.292-1.931-4.926-2.911-.851-.5-1.735-.946-2.614-1.405-.851-.448-1.651-.985-2.485-1.467-.431-.246-.856-.493-1.287-.733a11.179,11.179,0,0,0-1.237-.56,7.844,7.844,0,0,0-.453-4.378,3.988,3.988,0,0,0-2.57-2.4,3.334,3.334,0,0,0-1.959.062,3.5,3.5,0,0,0-.386-.8c-.034-.062-.073-.118-.106-.179a.235.235,0,0,1,.011-.062c.022-.056.067-.162.073-.179.1-.19.19-.386.291-.577.347-.694.694-1.383,1.036-2.077.689-1.371,1.411-2.732,2.088-4.109a4.5,4.5,0,0,0,.1-4.473,5.852,5.852,0,0,0-1.019-1.232c.045-.09.1-.174.146-.269.207-.42.42-.84.633-1.26.134-.258.28-.526.414-.795a11.935,11.935,0,0,0,1.411.655,7.469,7.469,0,0,0,4.333.1,12.876,12.876,0,0,0,3.672-1.551,6.377,6.377,0,0,0,2.558-2.788,3.826,3.826,0,0,0-.84-4.075,23.768,23.768,0,0,0-2.844-2.558,73.266,73.266,0,0,0-6.566-4.876,59.438,59.438,0,0,0-6.953-4,32.667,32.667,0,0,0-4.053-1.646,9.409,9.409,0,0,0-4.322-.537c-2.547.4-4.008,2.86-4.047,5.284a7.71,7.71,0,0,0,1.719,4.719.184.184,0,0,0,.034.056,16.3,16.3,0,0,0,1.164,1.383c-.252.392-.515.784-.773,1.176-.078.106-.168.213-.252.319-.118.162-.269.319-.375.481a.519.519,0,0,1-.028.056c-.174-.078-.353-.146-.532-.213a3.588,3.588,0,0,0-2.637.207,7.793,7.793,0,0,0-1.735,1.226c-.588.481-1.164.963-1.747,1.45s-1.159.963-1.735,1.444a1.261,1.261,0,0,0-.409.767,47.265,47.265,0,0,0-4.68,6.018c-1.2,1.7-2.351,3.443-3.471,5.2a47.626,47.626,0,0,0-3.023,5.256,14.37,14.37,0,0,0-1.579,6.762,1.515,1.515,0,0,0,.733,1.243c.011.006.028.022.039.028l.806.571c-.078.134-.151.269-.235.4-.1.168-.19.325-.291.493a.129.129,0,0,1-.252.045,7.17,7.17,0,0,0-5.85-1.1,5.443,5.443,0,0,0-4.047,5.15c.106,2.5,1.982,4.266,3.8,5.738,1.965,1.59,4,3.1,6.091,4.512q3.115,2.091,6.426,3.879,1.578.857,3.2,1.646a6.45,6.45,0,0,0,3.437.857,3.191,3.191,0,0,0,1.942-.851,4.44,4.44,0,0,0,1.052-1.808,8.927,8.927,0,0,0,.56-3.84,6.756,6.756,0,0,0-1.511-3.611,6.923,6.923,0,0,0-.481-.515c.011-.022.022-.034.028-.045.039-.078.073-.162.106-.241l.006-.011a9.222,9.222,0,0,1,.493-.784,5.526,5.526,0,0,0,4.249.28,6.615,6.615,0,0,0,2.984-2.637c.325-.493.61-1.008.9-1.511.134-.235.258-.465.409-.688a3.152,3.152,0,0,1,.241-.364c.034-.056.073-.106.106-.162.006,0,.1-.129.134-.174.062-.067.162-.185.185-.213.078-.09.168-.179.252-.269s.2-.179.3-.274c.067-.039.129-.084.2-.134l.257-.14.011-.006s.006.006.006,0a.892.892,0,0,1,.207-.073c.045-.011.207-.034.246-.045h.062c.1,0,.19.006.285.006.179.011.353.022.526.022a3.677,3.677,0,0,0,.218,1.724,3.843,3.843,0,0,0,2.267,2.211,5.857,5.857,0,0,0,5.144-.745,1.232,1.232,0,0,0,.414.341,83.165,83.165,0,0,1,8.934,5.021q2.158,1.394,4.221,2.917c.325.241.644.481.974.728.073.062.146.112.224.174.022.022.1.078.14.106.174.14.347.274.515.409q.982.773,1.937,1.573a83.11,83.11,0,0,1,7.384,7c1.175,1.265,2.273,2.609,3.549,3.773a15.9,15.9,0,0,0,4.9,2.956,11.142,11.142,0,0,0,5.839.991,6.846,6.846,0,0,0,4.03-2.256,8.62,8.62,0,0,0,1.444-9Z" transform="translate(-620.427 -518.098)" fill="#ccf0f9"/>
          <path id="Trazado_9087" data-name="Trazado 9087" d="M651.178,608.914c-.711-.375-1.416-.756-2.122-1.142-1.942-1.058-3.868-2.155-5.755-3.314a57.856,57.856,0,0,1-10.58-8.044,1.524,1.524,0,0,1-.487-1.136,6.076,6.076,0,0,0-3.1.067,5.443,5.443,0,0,0-4.047,5.15c.106,2.5,1.982,4.266,3.8,5.738,1.965,1.59,4,3.1,6.09,4.512q3.115,2.091,6.426,3.879,1.579.856,3.2,1.646a6.45,6.45,0,0,0,3.437.857,3.19,3.19,0,0,0,1.942-.851,4.44,4.44,0,0,0,1.052-1.808,8.926,8.926,0,0,0,.56-3.84,7.206,7.206,0,0,0-.414-1.719Z" transform="translate(-620.449 -551.997)" fill="#99e0f4"/>
          <path id="Trazado_9088" data-name="Trazado 9088" d="M677.837,552.136c.045-.084.1-.174.146-.269.022-.05.05-.1.073-.146-3.622-1.982-7.21-4.031-10.614-6.359-1.534-1.047-3.1-2.144-4.573-3.353-.168-.078-.347-.146-.521-.207a3.588,3.588,0,0,0-2.637.207,7.794,7.794,0,0,0-1.735,1.226c-.588.481-1.164.963-1.747,1.45s-1.159.963-1.735,1.444a1.277,1.277,0,0,0-.409.767,47.285,47.285,0,0,0-4.68,6.018c-1.2,1.7-2.351,3.443-3.471,5.2a47.2,47.2,0,0,0-3.023,5.262,14.415,14.415,0,0,0-1.579,6.667,1.593,1.593,0,0,1,.9.47,54.3,54.3,0,0,0,10.11,7.647c1.853,1.136,3.745,2.206,5.654,3.247.666.364,1.338.716,2,1.075a4.256,4.256,0,0,0,1.629-.313,6.615,6.615,0,0,0,2.984-2.637c.325-.493.61-1.008.9-1.511.134-.235.257-.465.409-.688a3.159,3.159,0,0,1,.241-.364c.034-.056.073-.106.106-.162.006,0,.1-.129.134-.173.062-.067.162-.185.185-.213l.252-.269c.1-.1.2-.179.3-.274.067-.039.129-.084.2-.134l.258-.14.011-.006s.006.006.006,0a.9.9,0,0,1,.207-.073c.045-.011.207-.034.246-.045h.062c.1,0,.2.006.286.006.179.011.353.022.526.022a3.7,3.7,0,0,0,.146,1.478q.974-1.469,2.054-2.855a52.386,52.386,0,0,1,4.327-8.8.24.24,0,0,1,.034-.039q-.067-.134-.151-.269c-.034-.062-.073-.118-.106-.179a.237.237,0,0,1,.011-.062c.022-.056.067-.162.073-.179.1-.19.19-.386.291-.577.347-.694.694-1.383,1.036-2.077.688-1.372,1.411-2.732,2.088-4.109a4.5,4.5,0,0,0,.1-4.473,5.857,5.857,0,0,0-1.019-1.232Z" transform="translate(-627.599 -528.459)" fill="#99e0f4"/>
          <path id="Trazado_9089" data-name="Trazado 9089" d="M705.933,531.784a24.2,24.2,0,0,0-2.844-2.558,73.274,73.274,0,0,0-6.566-4.876,59.447,59.447,0,0,0-6.953-4,32.671,32.671,0,0,0-4.053-1.646,9.409,9.409,0,0,0-4.322-.537c-2.553.4-4.008,2.861-4.047,5.284a6.763,6.763,0,0,0,.7,3.051c.481.425.963.851,1.45,1.271l.084.034c7.188,3.454,13.681,8.139,20.309,12.55.28-.045.565-.1.84-.168a12.879,12.879,0,0,0,3.672-1.551,6.379,6.379,0,0,0,2.558-2.788,3.826,3.826,0,0,0-.84-4.075Z" transform="translate(-643.369 -518.093)" fill="#99e0f4"/>
          <path id="Trazado_9090" data-name="Trazado 9090" d="M747.016,615.181a13.476,13.476,0,0,0-7.154-6.986c-3.409-1.523-7.07-2.066-10.692-2.86a32.27,32.27,0,0,1-5.346-1.6.535.535,0,0,0-.106-.045c-.078-.034-.162-.073-.241-.106-.185-.078-.375-.168-.56-.252-.459-.213-.912-.442-1.366-.672q-1.192-.613-2.351-1.288c-1.657-.946-3.292-1.931-4.926-2.911-.851-.5-1.735-.946-2.614-1.405-.851-.448-1.651-.985-2.485-1.467-.431-.246-.857-.493-1.287-.733a11.156,11.156,0,0,0-1.237-.56,8.2,8.2,0,0,0-.084-3.241c-2.116,3.437-4.137,6.93-6.326,10.317a7.5,7.5,0,0,0,2.273-.924,1.231,1.231,0,0,0,.414.341,83.159,83.159,0,0,1,8.934,5.021q2.158,1.394,4.221,2.917c.325.241.644.481.974.728.073.062.146.112.224.174.022.022.1.078.14.106.174.14.347.274.515.409.655.515,1.3,1.036,1.937,1.573a83.922,83.922,0,0,1,7.384,7c1.176,1.265,2.273,2.609,3.549,3.773a15.893,15.893,0,0,0,4.9,2.956,11.143,11.143,0,0,0,5.839.991,6.847,6.847,0,0,0,4.03-2.256,8.62,8.62,0,0,0,1.444-9Z" transform="translate(-653.534 -550.214)" fill="#99e0f4"/>
        </g>
        <g id="Grupo_4905" data-name="Grupo 4905" transform="translate(0.382 0.352)">
          <path id="Trazado_9091" data-name="Trazado 9091" d="M624.5,692.923a4.033,4.033,0,0,0-4.366.078,5.517,5.517,0,0,0-2.541,4.036,11.153,11.153,0,0,0-.028,2.8,22.243,22.243,0,0,0,.409,2.721,3.812,3.812,0,0,0,1.237,2.166,4.47,4.47,0,0,0,2.788.823c3.969.084,7.949.017,11.923.017s8.005-.011,12-.028,8.005-.045,12-.073c1.024-.006,2.049-.017,3.073-.028a10.205,10.205,0,0,0,2.648-.168,2.491,2.491,0,0,0,1.842-2.077,15.451,15.451,0,0,0-.011-2.833c-.045-1-.09-2.01-.151-3.012a10.143,10.143,0,0,0-.313-2.323,3.721,3.721,0,0,0-1.478-2.11,5.361,5.361,0,0,0-2.7-.633q-6.012-.327-12.03-.4-12-.151-23.987.7c-1.024.073-2.032.168-3.051.308a1.015,1.015,0,0,0-.739,1.131,1.031,1.031,0,0,0,1.013.9c1.9-.045,3.8-.224,5.693-.341s3.706-.207,5.559-.28q5.634-.235,11.269-.241t11.268.2c1.864.067,3.751.1,5.609.269.078.006.157.011.235.022-.168-.022.073.017.112.028.1.022.185.05.28.073.314.073-.056-.045.112.034a2.215,2.215,0,0,1,.252.14c-.157-.1-.034-.034,0,0,.067.067.134.129.2.2-.123-.14,0,.006.045.078a1.52,1.52,0,0,1,.09.162c.017.034.123.313.045.084.05.151.106.308.146.465s.067.291.09.437c.011.056.034.274.011.056.011.1.022.2.034.3.168,1.8.2,3.616.263,5.419.006.173.011.347.011.521a2.241,2.241,0,0,1-.011.274c.017-.2,0,.028-.017.078-.017.073,0,.246-.011.084,0,.05-.078.146,0,.039l-.067.073c-.1.084-.1.089,0,.006l-.084.05h0a1.864,1.864,0,0,1-.19.05c-.034.006-.353.045-.106.022-.168.017-.336.022-.509.028-.453.011-.907.011-1.355.011q-5.651.05-11.308.078-11.311.059-22.615.045H624.29c-.935,0-1.836.039-2.743-.028a1.52,1.52,0,0,1-.224-.022c.185.022-.05-.011-.1-.022-.09-.017-.179-.045-.269-.067-.19-.05-.1-.028-.045,0a1.419,1.419,0,0,1-.286-.157c.034.022.129.129-.034-.028-.011-.011-.241-.258-.1-.084a2.01,2.01,0,0,1-.162-.258c-.034-.062-.062-.123-.09-.185.1.207-.034-.106-.039-.129a4.605,4.605,0,0,1-.123-.459c-.084-.381-.14-.767-.2-1.148-.067-.437-.09-.593-.134-1.058-.039-.409-.067-.817-.067-1.232,0-.2,0-.409.017-.61.006-.123.017-.241.034-.364-.006.05-.028.168.011-.067a6.506,6.506,0,0,1,.3-1.142,4.072,4.072,0,0,1,.414-.717c-.151.207.034-.034.062-.062.039-.045.084-.09.123-.134.056-.056.106-.106.168-.162.039-.034.3-.246.1-.1.235-.179.5-.291.745-.448.14-.089-.235.073.028-.011.056-.017.112-.039.168-.056a1.925,1.925,0,0,1,.258-.067c.05-.011.336-.05.05-.022a3.7,3.7,0,0,1,.431-.017c.056,0,.112.006.168.011-.285-.017-.022,0,.039.017a1.347,1.347,0,0,1,.162.045c.056.017.285.14.056.011a3.152,3.152,0,0,1,.375.224,1.1,1.1,0,0,0,1.506-.4,1.126,1.126,0,0,0-.4-1.506h0Z" transform="translate(-617.487 -594.939)" fill="#010d3d"/>
          <path id="Trazado_9092" data-name="Trazado 9092" d="M633.557,687.149a2.162,2.162,0,0,1-.409-1.013c0,.006-.011-.2-.011-.269v-.123c-.011.123.011-.011.017-.028.011-.034.106-.336.045-.179.062-.151.134-.3.19-.453.017-.05.039-.106.056-.157-.062.168-.017.034,0,0,.045-.084.1-.174.14-.258.056-.1.106-.2.168-.291.022-.034.045-.067.073-.106.14-.213-.123.118.05-.062.067-.067.129-.14.2-.207.05-.05.235-.19.084-.084.09-.062.185-.123.28-.179.05-.028.1-.05.151-.078-.078.039-.1.034,0,0a6.447,6.447,0,0,1,1.864-.229c.722-.017,1.439-.034,2.161-.056q2.158-.059,4.316-.106c2.877-.073,5.755-.134,8.638-.2,1.461-.034,2.928-.062,4.389-.1,1.349-.028,2.7-.1,4.053-.045a5.948,5.948,0,0,1,1.8.291c.073.022.146.05.218.073.336.118-.056-.034.129.05a4.166,4.166,0,0,1,.442.235,1.532,1.532,0,0,1,.157.106c-.118-.084-.006,0,.045.05a2.469,2.469,0,0,1,.258.285l.118.151c.073.1-.067-.117.034.05.073.123.151.241.218.369.022.045.039.084.062.129-.1-.207.017.056.028.09.039.118.067.235.1.358.05.2,0,.028,0-.017,0,.073.011.151.011.224v.134c0,.269.062-.2,0,.062-.028.118-.073.23-.1.341a1.7,1.7,0,0,0-.062.375c0,.05-.017.291.011.073a.951.951,0,0,0,.336.98.933.933,0,0,0,1.036.073,1.8,1.8,0,0,0,.817-.963,3.424,3.424,0,0,0,.162-.946,4.108,4.108,0,0,0-.465-1.926,4.96,4.96,0,0,0-3.1-2.4,13.806,13.806,0,0,0-4.21-.313q-2.4.05-4.8.112-4.77.118-9.539.241c-1.579.045-3.157.084-4.736.129-.812.022-1.623.045-2.435.073a8.7,8.7,0,0,0-2.284.258,3.975,3.975,0,0,0-2.642,2.726,4.552,4.552,0,0,0-.034,1.741,3.546,3.546,0,0,0,.666,1.769.793.793,0,0,0,1.052.274.775.775,0,0,0,.274-1.052h0Z" transform="translate(-623.665 -590.089)" fill="#010d3d"/>
          <path id="Trazado_9093" data-name="Trazado 9093" d="M636.279,597.977c-1.791-1.579-4.277-2.648-6.678-2a5.086,5.086,0,0,0-3.863,4.8c.089,2.413,1.982,4.1,3.723,5.514,1.937,1.567,3.941,3.056,6.006,4.445s4.154,2.648,6.314,3.823c1.075.582,2.155,1.142,3.258,1.674a5.919,5.919,0,0,0,3.375.817,3.192,3.192,0,0,0,2.564-2.463,8.439,8.439,0,0,0,.509-3.784,6.209,6.209,0,0,0-1.4-3.247,8.873,8.873,0,0,0-2.4-1.926c-.879-.515-1.8-.94-2.7-1.416a33.746,33.746,0,0,1-3.129-1.9,65.544,65.544,0,0,1-5.659-4.422c-.246-.207-.481-.425-.739-.621a3.2,3.2,0,0,0-1.019-.448.858.858,0,0,0-.957,1.248,3.006,3.006,0,0,0,.487.8,8.3,8.3,0,0,0,.672.577c.42.353.84.711,1.26,1.058.918.761,1.847,1.506,2.8,2.228a37.344,37.344,0,0,0,5.592,3.583c.812.414,1.64.812,2.424,1.276.19.112.381.229.565.353.1.067.2.129.291.2l.123.09c.14.1-.118-.1.017.011a6.454,6.454,0,0,1,.952.924c-.106-.129.039.05.067.1.056.084.106.162.157.252s.112.2.162.308a1.433,1.433,0,0,1,.062.134c-.045-.106.011.034.022.067a3.778,3.778,0,0,1,.207,1.461,5.793,5.793,0,0,1-.2,1.495c-.056.241-.123.487-.2.722-.039.129-.084.257-.129.392-.017.05-.14.336-.067.19a3.7,3.7,0,0,1-.179.325c-.067.106,0,.011.017-.011-.034.039-.073.078-.112.118-.084.089,0,.011.028-.006-.039.028-.084.056-.123.078s-.213.1-.084.05-.078.017-.1.022l-.14.034c.028-.006.174,0,.05-.011s-.235,0-.347,0c-.207-.006.084.028-.118-.017-.14-.028-.274-.062-.414-.1-.207-.062-.409-.134-.61-.213.157.062-.134-.062-.179-.078-.123-.056-.246-.117-.369-.179-.509-.246-1.019-.5-1.523-.761q-2.972-1.528-5.816-3.3c-1.892-1.181-3.767-2.469-5.57-3.818-.851-.638-1.646-1.265-2.508-1.97-.386-.319-.773-.644-1.136-.991-.162-.151-.313-.308-.465-.476q-.134-.143-.252-.285c-.034-.039-.067-.084-.106-.129.073.09.006.011-.028-.034a5.739,5.739,0,0,1-.375-.582c-.062-.106-.112-.218-.168-.325.078.162-.045-.118-.062-.174a2.668,2.668,0,0,1-.084-.3c-.017-.062-.056-.364-.039-.174a3.036,3.036,0,0,1-.017-.319c0-.073.028-.425,0-.19a3.886,3.886,0,0,1,.14-.56c.062-.2.011-.05-.006,0a.918.918,0,0,1,.062-.129,3.066,3.066,0,0,1,.162-.3c.028-.045.19-.286.134-.207s.1-.118.129-.151c.067-.073.134-.146.2-.213.045-.045.1-.09.146-.134.017-.011.168-.146.078-.073-.067.056.129-.1.168-.118.1-.067.2-.123.3-.185.084-.05.174-.1.263-.14.011,0,.162-.073.05-.028s.151-.056.146-.05a5.4,5.4,0,0,1,.571-.157c.034-.006.207-.034.017-.011l.168-.017c.134-.011.263-.017.4-.017a3.15,3.15,0,0,1,.4.017c.056,0,.112.011.168.017-.022,0-.146-.022-.011,0a5.153,5.153,0,0,1,.773.179,4.714,4.714,0,0,1,1.209.532c.218.123.425.263.633.4.045.034.1.067.14.1.151.112-.1-.078.05.039.106.084.207.174.308.263a1.1,1.1,0,0,0,1.556-1.556h0Z" transform="translate(-621.118 -552.646)" fill="#010d3d"/>
          <path id="Trazado_9094" data-name="Trazado 9094" d="M642.626,571.4l7.624,5.368,3.756,2.642a24.073,24.073,0,0,0,3.644,2.351,5.278,5.278,0,0,0,4.422.263,6.244,6.244,0,0,0,2.6-2.457c.319-.487.6-1,.884-1.5.134-.241.274-.481.425-.711l.235-.353.123-.174c.112-.151-.017.017.056-.073a6.569,6.569,0,0,1,.565-.616c.1-.1.2-.185.308-.269.134-.112-.123.084.017-.011.067-.045.134-.1.207-.134.112-.067.229-.129.347-.185-.19.09.123-.039.19-.062s.42-.073.19-.05a3.513,3.513,0,0,1,.543,0,3,3,0,0,0,2.194-.47,7.283,7.283,0,0,0,1.36-1.6c.9-1.243,1.819-2.474,2.681-3.739a4.878,4.878,0,0,0,.856-1.931,3.019,3.019,0,0,0-.532-2.222c-.039-.062-.073-.123-.112-.179-.089-.146.034.14-.017-.028a.186.186,0,0,1-.006-.112,3.472,3.472,0,0,1,.375-.851l1.069-2.122c.689-1.366,1.4-2.715,2.082-4.081a5.543,5.543,0,0,0,.694-2.273,3.568,3.568,0,0,0-.5-1.875,8.536,8.536,0,0,0-2.8-2.6l-3.807-2.553-7.725-5.184c-1.232-.828-2.569-1.668-4.1-1.069a7.108,7.108,0,0,0-1.909,1.26c-.593.493-1.164.968-1.747,1.455l-1.747,1.455a1.108,1.108,0,0,0,0,1.556,1.124,1.124,0,0,0,1.556,0l3.387-2.827c.112-.1.229-.19.341-.285l.179-.146c.151-.118-.1.073.05-.039.112-.078.218-.151.336-.224l.2-.112c.291-.157-.078.017.1-.045.073-.022.14-.045.213-.062.174-.05-.146,0,.039-.011h.229c.134.011.017,0-.006,0a2.684,2.684,0,0,0,.285.073,2.885,2.885,0,0,1,.47.246c1.22.716,2.373,1.573,3.549,2.362l3.689,2.474,3.633,2.435,1.786,1.2c.241.162.476.319.705.493.056.039.112.084.168.123,0,0,.14.106.056.039s.073.062.1.078c.067.056.134.112.2.168a5.455,5.455,0,0,1,.537.543c.017.022.146.185.073.084s.045.067.056.089c.078.123.146.252.213.381-.1-.179.05.14.062.2s.022.1.034.14c.039.162-.006-.157,0,.011a1.732,1.732,0,0,1-.129.834,14.55,14.55,0,0,1-.845,1.7c-.341.661-.683,1.321-1.024,1.987-.661,1.276-1.416,2.525-2,3.84a2.505,2.505,0,0,0,.022,2.4c.073.123.157.241.229.358.028.045.056.09.084.14.084.146-.034-.129.022.045.006.028.05.252.039.129s0,.073,0,.073c0,.213,0,.1.006.045a2.453,2.453,0,0,1-.084.336c0-.011-.062.174-.028.09s-.062.129-.067.14a4.581,4.581,0,0,1-.241.425c-.179.286-.375.56-.571.834l-1.3,1.8-1.26,1.747c-.011.017-.286.381-.157.224a2.849,2.849,0,0,1-.274.308,1.732,1.732,0,0,1-.151.134c.017-.011.118-.1.017-.028-.129.1.146-.034-.011.017-.056.017-.246.039-.112.028-.3.022-.61-.045-.912-.05a3.841,3.841,0,0,0-1.041.118,4.566,4.566,0,0,0-1.707.884,8.851,8.851,0,0,0-2.144,2.687c-.263.459-.515.924-.8,1.371a5.026,5.026,0,0,1-.873,1.136c-.09.1-.19.179-.285.263-.028.028-.162.123,0,.011l-.118.084c-.106.073-.218.14-.33.2l-.129.067c-.263.134.185-.05-.1.039-.129.039-.252.078-.386.106-.022,0-.258.034-.14.028s-.118,0-.14,0c-.134,0-.269,0-.4-.011-.23-.017-.106-.011-.05,0-.1-.017-.19-.034-.286-.056a10.232,10.232,0,0,1-3.32-1.791l-3.588-2.519-7.177-5.038-1.825-1.276a1.089,1.089,0,0,0-1.489.392,1.116,1.116,0,0,0,.392,1.489h0Z" transform="translate(-628.317 -529.118)" fill="#010d3d"/>
          <path id="Trazado_9095" data-name="Trazado 9095" d="M657.891,546.74c-3.415,1.982-5.7,5.441-7.921,8.609q-1.8,2.561-3.471,5.212a46.711,46.711,0,0,0-2.978,5.184A13.869,13.869,0,0,0,642,572.322a1.152,1.152,0,0,0,.812,1.064c.123.045.123.045.011,0,.062.034.118.067.174.1.1.073.112.073.022,0,.1.078.2.157.3.229.028.022.3.235.185.129a2.237,2.237,0,0,1,.252.263.775.775,0,0,0,.845.162.8.8,0,0,0,.476-.705,2.236,2.236,0,0,0-1.674-2.306l.812,1.064a11.32,11.32,0,0,1,1.064-5.122,41.159,41.159,0,0,1,2.81-5.016q1.6-2.569,3.331-5.066.873-1.26,1.769-2.5c.521-.722,1.047-1.433,1.528-2.038a22.8,22.8,0,0,1,2-2.217,11.228,11.228,0,0,1,2.278-1.724,1.1,1.1,0,0,0,.392-1.5,1.119,1.119,0,0,0-1.5-.392h0Z" transform="translate(-628.271 -530.994)" fill="#010d3d"/>
          <path id="Trazado_9096" data-name="Trazado 9096" d="M679.52,528.45c.526.448,1.064.885,1.6,1.321s.907.968,1.427,1.388c1.1.885,2.278,1.674,3.448,2.463,2.245,1.517,4.551,2.939,6.863,4.35a23.271,23.271,0,0,0,3.622,1.993,7.112,7.112,0,0,0,4.176.162,12.559,12.559,0,0,0,3.611-1.506,5.918,5.918,0,0,0,2.39-2.474,3.465,3.465,0,0,0-.638-3.773,12.482,12.482,0,0,0-1.3-1.248c-.5-.448-1.013-.885-1.528-1.315a72.717,72.717,0,0,0-6.438-4.8,60.849,60.849,0,0,0-6.852-3.963,32.292,32.292,0,0,0-3.863-1.607,9.646,9.646,0,0,0-3.986-.694,4.395,4.395,0,0,0-3.236,1.819,5.6,5.6,0,0,0-.98,3.023c-.112,2.491,1.422,4.618,3.079,6.32a5.33,5.33,0,0,0,.761.705,2.916,2.916,0,0,0,.94.336.748.748,0,0,0,.912-.912,4.666,4.666,0,0,0-.286-.828,3.911,3.911,0,0,0-.694-.767c-.4-.4-.773-.817-1.131-1.254-.011-.011-.129-.162-.045-.05-.034-.045-.067-.09-.1-.14-.078-.106-.157-.218-.229-.33a7.5,7.5,0,0,1-.442-.733,4.329,4.329,0,0,1-.487-1.276c-.022-.106-.039-.213-.062-.314-.039-.162.006.185,0,.017,0-.045-.011-.09-.011-.134a4.7,4.7,0,0,1-.006-.688c.006-.106.017-.213.028-.319-.022.224.006-.028.022-.112a5.13,5.13,0,0,1,.179-.655c.022-.056.039-.112.062-.168-.006.017-.084.162-.022.062.05-.084.09-.185.14-.274s.106-.174.162-.258c.017-.028.129-.179.039-.067s.034-.039.05-.056c.067-.073.134-.151.207-.218.045-.039.084-.078.129-.118.017-.017.134-.1.022-.022s.14-.084.179-.112c.056-.034.325-.162.168-.1a2.427,2.427,0,0,1,.4-.129c.045-.011.369-.073.235-.056a4.469,4.469,0,0,1,.907-.006c.017,0,.269.028.157.011-.09-.011.106.017.1.017.14.022.286.05.425.078.3.067.6.146.9.229a24.937,24.937,0,0,1,3.331,1.237,54.776,54.776,0,0,1,6.454,3.549c1.047.661,2.082,1.344,3.1,2.06s1.931,1.4,2.8,2.094c.957.756,1.892,1.539,2.8,2.34.431.381.873.75,1.265,1.164.039.039.073.078.112.123.017.017.157.19.09.1s.045.062.045.067l.118.185a1.177,1.177,0,0,1,.073.146c.078.162-.039-.134.011.039a1.093,1.093,0,0,0,.045.146c.062.2.017-.078.011.039v.325c0-.017.045-.185.011-.067-.017.056-.022.118-.039.179s-.129.336-.028.129c-.056.112-.112.224-.179.33-.028.039-.05.084-.078.123-.017.022-.14.185-.056.084s-.028.034-.039.045l-.134.151a5.624,5.624,0,0,1-.571.526c-.1.078,0,0,.017-.011-.056.039-.112.084-.173.123a3.632,3.632,0,0,1-.308.2,6.179,6.179,0,0,1-.677.381,11.026,11.026,0,0,1-1.489.638c-.28.1-.56.185-.845.258l-.425.1-.185.034c-.039.006-.274.039-.134.022a5.554,5.554,0,0,1-.862.039,3.717,3.717,0,0,1-.431-.028c-.129-.017-.039-.006-.017,0-.1-.017-.2-.039-.308-.062a5.244,5.244,0,0,1-1.511-.6c-.532-.291-1.052-.616-1.573-.935-2.15-1.31-4.288-2.625-6.4-3.991-1.052-.683-2.1-1.383-3.124-2.1-.515-.358-1.019-.728-1.539-1.08a6.84,6.84,0,0,0-.812-.4,5.334,5.334,0,0,1-.812-.532c-.481-.364-.952-.739-1.416-1.12a.818.818,0,0,0-1.131,0,.808.808,0,0,0,0,1.131h0Z" transform="translate(-644.051 -518.722)" fill="#010d3d"/>
          <path id="Trazado_9097" data-name="Trazado 9097" d="M681.648,538.261l-.812,1.271c-.134.207-.285.4-.431.6a5.8,5.8,0,0,0-.42.644.958.958,0,0,0,.341,1.293.98.98,0,0,0,1.293-.341,5.611,5.611,0,0,0,.375-.666c.112-.229.213-.448.336-.661l.756-1.3a.833.833,0,0,0-.3-1.131.855.855,0,0,0-1.131.3h0Z" transform="translate(-644.947 -527.15)" fill="#010d3d"/>
          <path id="Trazado_9098" data-name="Trazado 9098" d="M705.076,552.67c.028-.246,0-.022-.022.045s-.045.14-.067.213c-.017.039-.028.078-.045.112.084-.168.017-.045,0,0-.039.084-.078.168-.123.252a9.353,9.353,0,0,1-.683,1.108c-.067.09-.14.179-.2.274-.034.045-.022.028.034-.039l-.05.067c-.034.045-.067.084-.1.129-.134.168-.269.33-.4.493a3.651,3.651,0,0,0-.465.6,2.055,2.055,0,0,0-.252.806c-.062.6.683.907,1.148.655a2.465,2.465,0,0,0,.929-1.114c.235-.431.448-.828.672-1.243a6.432,6.432,0,0,0,.968-2.357.662.662,0,0,0-.661-.661.681.681,0,0,0-.661.661h0Z" transform="translate(-654.996 -533.375)" fill="#010d3d"/>
          <path id="Trazado_9099" data-name="Trazado 9099" d="M644.246,594.665l-.661,1.136c-.112.19-.224.381-.336.565a4.2,4.2,0,0,0-.213.453.82.82,0,0,0,.347.985.843.843,0,0,0,.627.078.906.906,0,0,0,.487-.375,2.061,2.061,0,0,0,.19-.3c.1-.2.207-.386.313-.582l.633-1.159a.806.806,0,1,0-1.394-.812h0Z" transform="translate(-628.71 -551.977)" fill="#010d3d"/>
          <path id="Trazado_9100" data-name="Trazado 9100" d="M666.908,610.165c-.386.493-.75,1.008-1.176,1.467l.386-.224a1.039,1.039,0,0,0-.425.241l-.084.084a.865.865,0,0,0-.2.246,1.2,1.2,0,0,0-.129.5.868.868,0,0,0,.358.711.858.858,0,0,0,.789.162,1.165,1.165,0,0,0,.442-.252.981.981,0,0,0,.185-.263,1.227,1.227,0,0,0,.179-.593l-.118.442c.313-.543.7-1.041,1.058-1.556a.793.793,0,0,0,.078-.616.84.84,0,0,0-.286-.414.772.772,0,0,0-.487-.174.787.787,0,0,0-.565.235h0Z" transform="translate(-638.525 -558.873)" fill="#010d3d"/>
          <path id="Trazado_9101" data-name="Trazado 9101" d="M691.477,593.677a3.448,3.448,0,0,0,1.579,4.389,5.58,5.58,0,0,0,5.452-.6,8.664,8.664,0,0,0,3.823-8.38c-.235-1.668-1.159-3.51-2.978-3.846a2.207,2.207,0,0,0-2.513.9.908.908,0,0,0,1.013,1.321c-.28.034.151-.017.168-.022a2.108,2.108,0,0,0,.258-.05c.084-.022.174-.05.257-.078.2-.062-.151-.022.078,0,.089.006.185,0,.274.011-.224-.022-.056-.006-.011.011.09.028.179.05.269.084-.229-.089.045.039.073.056s.168.112.017,0a2.06,2.06,0,0,1,.229.213c.011.011.224.269.1.1.062.084.117.174.174.263s.1.185.151.28c.1.2.034.078.017.034a4.785,4.785,0,0,1,.19.61c.039.168.073.336.1.509.056.319-.011-.218.011.106.006.1.017.2.022.3a7.987,7.987,0,0,1-.028,1.1c0,.039-.028.218,0,0a2.745,2.745,0,0,1-.05.3,5.182,5.182,0,0,1-.134.582c-.045.162-.09.319-.146.476-.034.1-.067.19-.1.28-.011.022-.14.325-.045.106a7.625,7.625,0,0,1-.515.968c-.106.168-.218.336-.336.5-.19.263.14-.151-.073.09-.067.073-.129.151-.2.229-.146.162-.3.313-.453.465l-.185.168c-.028.028-.341.28-.162.14a5.231,5.231,0,0,1-2.239,1.041,2.874,2.874,0,0,1-1.17-.045c-.078-.022-.151-.045-.224-.073.168.056-.157-.078-.2-.1-.056-.034-.106-.067-.162-.1.185.123-.112-.1-.151-.14-.056-.056-.112-.118-.162-.174-.028-.028-.241-.28-.112-.112a2.008,2.008,0,0,1-.291-.481c.073.185-.011-.106-.017-.118-.056-.2-.022.078-.011-.112a2.253,2.253,0,0,1,.011-.274c-.022.174.062-.168.073-.207a.909.909,0,0,0-.532-1.08.884.884,0,0,0-1.142.375h0Z" transform="translate(-649.94 -547.977)" fill="#010d3d"/>
          <path id="Trazado_9102" data-name="Trazado 9102" d="M704.964,603.158a83.164,83.164,0,0,1,8.856,4.971,79.961,79.961,0,0,1,8.055,5.917,84.1,84.1,0,0,1,7.384,6.981c1.164,1.248,2.25,2.575,3.5,3.739a15.346,15.346,0,0,0,4.758,2.95,11.024,11.024,0,0,0,5.531,1.08,6.532,6.532,0,0,0,4.025-2.1,8.255,8.255,0,0,0,1.461-8.654,13.056,13.056,0,0,0-7-6.824c-3.364-1.5-6.986-2.032-10.557-2.816a31.789,31.789,0,0,1-5.3-1.573c-.313-.129-.666-.286-1.03-.453-.425-.2-.851-.4-1.271-.616-.8-.409-1.6-.845-2.373-1.288-1.668-.952-3.308-1.948-4.96-2.928-.84-.5-1.7-.952-2.558-1.416s-1.679-.991-2.519-1.483a28.511,28.511,0,0,0-2.586-1.377.858.858,0,0,0-.868,1.478c1.545,1.164,3.275,2.026,4.893,3.079s3.264,2.049,4.921,3.034a47.556,47.556,0,0,0,9.595,4.753c3.42,1.1,7.07,1.483,10.546,2.463,3.056.862,5.833,2.15,7.815,4.641-.112-.14.034.045.056.078.056.073.106.146.157.218.1.146.2.3.3.448a8.78,8.78,0,0,1,.56,1.036c.028.062.062.129.09.2-.09-.2.045.123.05.129.056.151.112.3.157.453a8,8,0,0,1,.263,1.08c0,.017.045.364.022.129.006.073.017.14.022.213.017.174.022.341.028.515s0,.325-.011.487c-.006.1-.017.2-.022.291-.022.241.034-.168-.011.1a7.737,7.737,0,0,1-.224.946c-.05.157-.106.308-.162.459-.011.039-.084.2,0,.006-.045.106-.1.207-.146.308a7.008,7.008,0,0,1-.493.84c-.034.05-.286.375-.146.2-.123.146-.246.291-.381.431-.112.112-.224.224-.347.33-.062.05-.118.1-.179.157-.14.118.207-.14-.039.034a7.222,7.222,0,0,1-.9.526c-.039.022-.2.078,0,0l-.269.1a4.274,4.274,0,0,1-.459.129,4.073,4.073,0,0,1-1.052.1,8.126,8.126,0,0,1-2.519-.487,19.331,19.331,0,0,1-2.312-.918c-.381-.185-.761-.381-1.125-.593-.162-.1-.325-.2-.481-.308-.1-.067-.2-.14-.3-.207.006,0-.258-.19-.168-.123a28.392,28.392,0,0,1-3.532-3.571,83.765,83.765,0,0,0-7.087-6.941,84.682,84.682,0,0,0-16.4-11.173c-.705-.369-1.422-.722-2.138-1.069a1.1,1.1,0,1,0-1.108,1.9h0Z" transform="translate(-655.763 -553.254)" fill="#010d3d"/>
        </g>
      </g>
      <g id="Grupo_4908" data-name="Grupo 4908" transform="translate(34.392 1.999)">
        <path id="Trazado_9103" data-name="Trazado 9103" d="M808.224,292.923c-.688-3.773-1.366-7.552-2.088-11.319s-1.282-7.574-2.116-11.33c-.823-3.739-1.9-7.434-2.894-11.134s-2.071-7.384-3.1-11.078c-.571-2.049-1.176-4.07-1.825-6.09-.677-2.088-1.2-4.221-2-6.27a.858.858,0,0,0-1.024-.582c-1.394.336-2.821.56-4.226.823a.529.529,0,0,0-.235.106c-.14-.235-.269-.476-.425-.694a18.215,18.215,0,0,0-1.763-2.25,19.049,19.049,0,0,0-4.495-3.527,32.511,32.511,0,0,0-11.521-3.689,37.174,37.174,0,0,0-6.65-.274,46.747,46.747,0,0,0-6.729.666,42.359,42.359,0,0,0-6.275,1.523,41.326,41.326,0,0,0-6,2.558,28.373,28.373,0,0,0-5.094,3.387,14.813,14.813,0,0,0-1.926,1.914c-.19.235-.37.465-.549.7-.011.011-.05.067-.067.09a.322.322,0,0,1,.039-.062.266.266,0,0,0,.017-.039c-.05.073-.151.229-.19.28-.062.09-.123.19-.185.28-.229.369-.42.739-.666,1.1-.213.313-.42.638-.61.968a3.278,3.278,0,0,0-.4-.375c-.392-.308-.817-.588-1.237-.868a28.076,28.076,0,0,0-2.43-1.45,25.019,25.019,0,0,0-5.391-2.183,28.872,28.872,0,0,0-11.5-.521,47.232,47.232,0,0,0-11.907,3.974,46.717,46.717,0,0,0-9.354,5.329,26.857,26.857,0,0,0-6.421,6.958,1.182,1.182,0,0,0-.823-.235,33.653,33.653,0,0,0-3.672.588c-.56.123-1.12.263-1.679.425a5.6,5.6,0,0,0-1.836.7,1.512,1.512,0,0,0-.526,2.01c.056.1.112.179.168.269.213.946.465,1.886.705,2.833.358,1.439.688,2.888,1.03,4.333.823,3.487,1.674,6.975,2.474,10.468.733,3.168,1.411,6.365,2.2,9.522.767,3.09,1.663,6.146,2.53,9.208.823,2.9,1.663,5.8,2.413,8.733.375,1.472.739,2.95,1.08,4.428.168.733.33,1.461.487,2.194.073.336.151.677.252,1.013.112.386.3.745.414,1.125a17.361,17.361,0,0,0,.75,2.166.8.8,0,0,0,1.08.291c2.351-.291,4.713-.655,7.053-1.064.425-.073.845-.168,1.271-.246a326.268,326.268,0,0,0,33.089-5.833q5.366-1.234,10.675-2.665a6.023,6.023,0,0,0,5.7,3.471,6.088,6.088,0,0,0,5.374-4.428c1.483-.252,2.961-.61,4.422-.907.386-.078.778-.146,1.176-.2,1.232-.179,2.469-.263,3.695-.425q4.9-.63,9.824-1.142,9.9-1.041,19.833-1.651c1.814-.112,3.633-.218,5.441-.319.929-.05,1.847-.09,2.777-.134.963-.05,1.931-.174,2.894-.213a1,1,0,0,0,.952-1.254Z" transform="translate(-678.242 -225.581)" fill="#fff"/>
        <path id="Trazado_9104" data-name="Trazado 9104" d="M808.232,300.4c-.689-3.773-1.366-7.551-2.088-11.319s-1.282-7.574-2.116-11.33c-.823-3.739-1.9-7.434-2.894-11.134s-2.071-7.384-3.1-11.078q-.856-3.065-1.825-6.09c-.677-2.088-1.2-4.221-2-6.27a.858.858,0,0,0-1.024-.582c-1.394.336-2.821.56-4.226.823a.529.529,0,0,0-.235.106c-.106-.174-.207-.353-.313-.526a21.473,21.473,0,0,0,1.523,4.781c.924,2.082,1.758,4.2,2.586,6.326.868,2.222,1.7,4.467,2.385,6.751s1.148,4.629,1.758,6.936c2.508,9.432,6.2,18.775,6.006,28.695a.641.641,0,0,1-.638.638,115.529,115.529,0,0,0-11.811.364c-1.982.118-3.963.224-5.945.257-2,.034-4-.084-6-.1A133,133,0,0,0,757,299.687c-6.8,1.041-13.642,2.049-20.343,3.6-3.319.767-6.572,1.752-9.919,2.413-3.3.644-6.617,1.187-9.863,2.071-1.562.425-3.056,1.03-4.6,1.483a36.2,36.2,0,0,1-4.366.912c-2.872.476-5.822.89-8.425,2.273a.5.5,0,0,1-.745-.425,69.009,69.009,0,0,0-2.457-12.942c-.935-3.717-1.937-7.417-2.771-11.162-.828-3.711-1.97-7.339-3.09-10.972a97.094,97.094,0,0,1-2.838-11.095c-.341-1.87-.6-3.745-.873-5.626-.151-1.041-.347-2.071-.565-3.1a33.289,33.289,0,0,0-3.639.588c-.56.123-1.12.263-1.679.425a5.6,5.6,0,0,0-1.836.7,1.511,1.511,0,0,0-.526,2.01c.056.1.112.179.168.269.213.946.465,1.886.705,2.833.358,1.439.688,2.889,1.03,4.333.823,3.487,1.674,6.975,2.474,10.468.733,3.168,1.411,6.365,2.2,9.522.767,3.09,1.663,6.146,2.53,9.209.823,2.9,1.662,5.8,2.413,8.733.375,1.472.739,2.95,1.08,4.428.168.733.33,1.461.487,2.194.073.336.151.677.252,1.013.112.386.3.745.414,1.125a17.773,17.773,0,0,0,.75,2.172.8.8,0,0,0,1.08.291c2.351-.291,4.713-.655,7.053-1.064.425-.073.845-.168,1.271-.246a326.265,326.265,0,0,0,33.089-5.833q5.366-1.234,10.675-2.665a6.024,6.024,0,0,0,5.7,3.471,6.087,6.087,0,0,0,5.374-4.428c1.483-.252,2.961-.61,4.422-.907.386-.078.778-.146,1.176-.2,1.232-.179,2.469-.263,3.695-.425q4.9-.63,9.824-1.142,9.9-1.041,19.833-1.651c1.814-.112,3.633-.224,5.441-.319.929-.05,1.847-.09,2.777-.134.963-.05,1.931-.174,2.894-.213a1,1,0,0,0,.952-1.254Z" transform="translate(-678.251 -233.062)" fill="#99e0f4"/>
        <g id="Grupo_4907" data-name="Grupo 4907" transform="translate(0.034 0.002)">
          <path id="Trazado_9105" data-name="Trazado 9105" d="M691.5,272.923c.879,3.443,1.663,6.908,2.5,10.362s1.735,6.885,2.592,10.334c1.713,6.891,3.437,13.782,5.083,20.69q.688,2.9,1.355,5.794c.442,1.931.856,3.969,1.371,5.928a.929.929,0,1,0,1.791-.493c-.336-1.763-.778-3.515-1.181-5.268s-.789-3.415-1.187-5.122q-1.2-5.189-2.457-10.367c-.834-3.454-1.668-6.9-2.558-10.339s-1.747-6.885-2.709-10.3c-1.092-3.863-2.267-7.7-3.387-11.554a.636.636,0,0,0-1.226.336h0Z" transform="translate(-684.099 -246.078)" fill="#010d3d"/>
          <path id="Trazado_9106" data-name="Trazado 9106" d="M692.6,258.821a24.008,24.008,0,0,1,6.661-7.535,50.189,50.189,0,0,1,8.951-5.374,52.6,52.6,0,0,1,11.151-4.1,26.559,26.559,0,0,1,10.753-.09,34.96,34.96,0,0,1,5.923,1.707c.952.375,1.859.84,2.771,1.3.459.235.9.5,1.332.778.224.14.453.28.689.4a2.3,2.3,0,0,0,.761.179.257.257,0,0,0,.286-.369,2.284,2.284,0,0,0-.3-.593,3.376,3.376,0,0,0-.543-.47c-.4-.3-.806-.582-1.22-.856a27.792,27.792,0,0,0-2.452-1.467,24.738,24.738,0,0,0-5.4-2.155,28.879,28.879,0,0,0-11.526-.509,47.509,47.509,0,0,0-11.907,4,46.636,46.636,0,0,0-9.36,5.346,25.744,25.744,0,0,0-7.641,9.181c-.336.711.689,1.332,1.064.621h0Z" transform="translate(-684.095 -231.63)" fill="#010d3d"/>
          <path id="Trazado_9107" data-name="Trazado 9107" d="M782.254,240.087c.112-.168.224-.336.341-.5.062-.084.118-.168.179-.246l.09-.123c.151-.2-.112.14.011-.017a3.492,3.492,0,0,1,.4-.459c.067-.062.146-.118.213-.179l.022-.022c-.207.168-.174.14.1-.073.045-.039.09-.084.134-.129.33-.3.655-.6.991-.89.162-.14.33-.28.493-.42a.5.5,0,0,0,.1-.084l-.174.134a2.471,2.471,0,0,0,.3-.241c.09-.078.179-.162.269-.241.347-.308.7-.6,1.064-.89.034-.028.073-.056.106-.084.207-.162-.286.213-.073.056l.269-.2c.179-.134.364-.269.549-.4.778-.549,1.567-1.08,2.385-1.567s1.718-.974,2.6-1.405c.465-.224.935-.442,1.411-.649.112-.05.229-.1.341-.146-.011,0-.336.14-.129.056.056-.022.118-.05.174-.073.241-.1.487-.2.733-.291a48.937,48.937,0,0,1,6-1.942c1.036-.258,2.082-.459,3.135-.666.526-.1,1.047-.2,1.579-.28.129-.017.258-.034.386-.056.173-.022-.3.039-.034,0,.067-.006.129-.017.2-.022.274-.034.543-.067.817-.1a40.138,40.138,0,0,1,6.354-.185c1.03.05,2.066.1,3.09.207.246.028.493.056.739.09-.23-.028.146.022.2.028.134.022.269.039.4.062.5.078,1,.168,1.489.269a26.5,26.5,0,0,1,2.849.784c.459.151.912.313,1.36.493l.291.118c.067.028.129.05.2.078-.134-.056-.022-.006.006,0,.235.1.465.207.7.313a21.24,21.24,0,0,1,2.452,1.343q.563.361,1.108.756l.269.2c.174.134-.106-.084.062.05.034.028.067.056.106.084.19.151.381.308.565.465a16.249,16.249,0,0,1,3.465,4.053,3.3,3.3,0,0,0,.4.649,2.061,2.061,0,0,0,.593.308.213.213,0,0,0,.308-.123,2.276,2.276,0,0,0,.123-.6,2.091,2.091,0,0,0-.364-.845c-.224-.414-.47-.812-.733-1.2a17.906,17.906,0,0,0-6.27-5.771,32.74,32.74,0,0,0-11.548-3.672,36.883,36.883,0,0,0-6.578-.274,47.445,47.445,0,0,0-6.779.666,41.779,41.779,0,0,0-6.314,1.539,40.82,40.82,0,0,0-5.934,2.53,27.433,27.433,0,0,0-5.094,3.392,14.392,14.392,0,0,0-1.937,1.937q-.285.344-.554.705c-.045.062-.14.179.078-.1-.1.129-.174.23-.258.353l-.185.285c-.028.045-.062.084-.084.129l-.118.274q.109-.252.05-.134a2.541,2.541,0,0,0-.14.274c-.106.2-.252.375-.375.56-.235.341-.453.694-.661,1.052a.985.985,0,0,0,.347,1.327,1.006,1.006,0,0,0,1.327-.347h0Z" transform="translate(-723.265 -225.586)" fill="#010d3d"/>
          <path id="Trazado_9108" data-name="Trazado 9108" d="M717.342,352.631A24.008,24.008,0,0,1,724,345.1a50.189,50.189,0,0,1,8.951-5.374,52.594,52.594,0,0,1,11.151-4.1,26.56,26.56,0,0,1,10.753-.09,34.963,34.963,0,0,1,5.923,1.707c.952.375,1.859.84,2.771,1.3.459.235.9.5,1.332.778.224.14.453.28.689.4a2.3,2.3,0,0,0,.761.179.257.257,0,0,0,.286-.369,2.283,2.283,0,0,0-.3-.593,3.374,3.374,0,0,0-.543-.47c-.4-.3-.806-.582-1.22-.856a27.8,27.8,0,0,0-2.452-1.467,24.738,24.738,0,0,0-5.4-2.155,28.878,28.878,0,0,0-11.526-.509,47.508,47.508,0,0,0-11.907,4,46.637,46.637,0,0,0-9.36,5.346A25.744,25.744,0,0,0,716.268,352c-.336.711.689,1.332,1.064.621h0Z" transform="translate(-694.986 -272.926)" fill="#010d3d"/>
          <path id="Trazado_9109" data-name="Trazado 9109" d="M806.995,333.9c.112-.168.224-.336.341-.5.062-.084.118-.168.179-.246l.09-.123c.151-.2-.112.14.011-.017a3.491,3.491,0,0,1,.4-.459c.067-.062.146-.118.213-.179l.022-.022c-.207.168-.174.14.1-.073.045-.039.089-.084.134-.129.33-.3.655-.6.991-.89.162-.14.33-.28.493-.42a.5.5,0,0,0,.1-.084l-.173.134a2.466,2.466,0,0,0,.3-.241c.09-.078.179-.162.269-.241.347-.308.7-.6,1.064-.89.034-.028.073-.056.106-.084.207-.162-.286.213-.073.056l.269-.2c.179-.134.364-.269.549-.4.778-.549,1.567-1.08,2.385-1.567s1.719-.974,2.6-1.405c.465-.224.935-.442,1.411-.649.112-.05.229-.1.341-.146-.011,0-.336.14-.129.056.056-.022.117-.05.173-.073.241-.1.487-.2.733-.291a48.942,48.942,0,0,1,6-1.942c1.036-.257,2.082-.459,3.135-.666.526-.1,1.047-.2,1.579-.28.129-.017.258-.034.386-.056.174-.022-.3.039-.034,0,.067-.006.129-.017.2-.022.274-.034.543-.067.817-.1a40.136,40.136,0,0,1,6.354-.185c1.03.05,2.066.1,3.09.207.246.028.493.056.739.09-.229-.028.146.022.2.028.134.022.269.039.4.062.5.078,1,.168,1.489.269a26.473,26.473,0,0,1,2.849.784c.459.151.912.313,1.36.493l.291.118c.067.028.129.05.2.078-.134-.056-.022-.006.006,0,.235.1.465.207.7.313a21.236,21.236,0,0,1,2.452,1.344q.563.361,1.108.756l.269.2c.173.134-.106-.084.062.05.034.028.067.056.106.084.19.151.381.308.565.465a16.25,16.25,0,0,1,3.465,4.053,3.3,3.3,0,0,0,.4.649,2.061,2.061,0,0,0,.593.308.213.213,0,0,0,.308-.123,2.28,2.28,0,0,0,.123-.6,2.09,2.09,0,0,0-.364-.845c-.224-.414-.47-.812-.733-1.2a17.907,17.907,0,0,0-6.27-5.771A32.74,32.74,0,0,0,840.19,319.7a36.883,36.883,0,0,0-6.578-.274,47.668,47.668,0,0,0-6.779.666,39.54,39.54,0,0,0-12.248,4.07,27.437,27.437,0,0,0-5.094,3.392,14.4,14.4,0,0,0-1.937,1.937q-.285.344-.554.705c-.045.062-.14.179.078-.1-.1.129-.174.23-.258.353l-.185.285c-.028.045-.062.084-.084.129l-.118.274q.109-.252.05-.134a2.517,2.517,0,0,0-.14.274c-.106.2-.252.375-.375.56-.235.341-.453.694-.661,1.052a.985.985,0,0,0,.347,1.327,1.006,1.006,0,0,0,1.327-.347h0Z" transform="translate(-734.156 -266.882)" fill="#010d3d"/>
          <path id="Trazado_9110" data-name="Trazado 9110" d="M717,355.584a14.619,14.619,0,0,1,4.288-1.6c1.607-.409,3.208-.857,4.82-1.265q4.878-1.243,9.791-2.362c6.555-1.489,13.155-2.8,19.772-3.991s13.362-2.323,20.068-3.292c6.762-.98,13.547-1.719,20.371-2.133q5.105-.311,10.222-.42,2.536-.05,5.072-.067c.851,0,1.691-.062,2.536-.084s1.758.028,2.637,0,1.691-.039,2.536-.045a.728.728,0,0,0,0-1.455c-3.448-.28-6.885-.5-10.345-.515-3.443-.011-6.891.084-10.328.252-6.88.336-13.732,1.036-20.555,1.97-6.8.935-13.564,2.066-20.32,3.258-6.684,1.181-13.356,2.48-19.984,3.958q-4.963,1.108-9.891,2.368c-1.64.42-3.275.862-4.909,1.316s-3.135.851-4.652,1.427a11.02,11.02,0,0,0-2.082,1.013c-1.036.655-.078,2.3.963,1.646h0Z" transform="translate(-694.718 -275.23)" fill="#010d3d"/>
          <path id="Trazado_9111" data-name="Trazado 9111" d="M782.182,251.949a41.969,41.969,0,0,1,2.866,9.718c.61,3.331,1.153,6.712,1.819,10.048,1.4,7.025,3.029,14.006,4.842,20.93q.764,2.914,1.573,5.811c.263.946.532,1.886.806,2.832a13.847,13.847,0,0,0,1,2.883.4.4,0,0,0,.75-.2,12.738,12.738,0,0,0-.61-2.642q-.378-1.318-.739-2.637-.714-2.569-1.388-5.156-1.369-5.231-2.581-10.5c-.806-3.515-1.551-6.992-2.256-10.507s-1.248-6.779-2.082-10.121a55.818,55.818,0,0,0-3.605-10.7c-.129-.263-.509-.034-.392.23h0Z" transform="translate(-724.022 -237.034)" fill="#010d3d"/>
          <path id="Trazado_9112" data-name="Trazado 9112" d="M875.356,248.276q1.847,4.828,3.409,9.751c1.041,3.286,2.071,6.527,3.006,9.824s1.8,6.611,2.586,9.947,1.472,6.689,2.194,10.043c.4,1.875.834,3.745,1.2,5.631s.733,3.807,1.148,5.7c.146.655,1.243.526,1.187-.162-.269-3.471-.912-6.88-1.388-10.323-.241-1.707-.638-3.392-1.008-5.077s-.756-3.364-1.17-5.038c-1.662-6.661-3.577-13.289-5.872-19.76-1.293-3.65-2.715-7.26-4.165-10.849a.608.608,0,0,0-.722-.409.587.587,0,0,0-.409.722h0Z" transform="translate(-765.035 -235.247)" fill="#010d3d"/>
          <path id="Trazado_9113" data-name="Trazado 9113" d="M706.371,317.059a330.5,330.5,0,0,0,41.116-6.712q5.76-1.318,11.459-2.861l-1.567-.89a6.291,6.291,0,0,0,12.271-.705l-.98.98c1.612-.241,3.219-.7,4.82-1.041s3.258-.425,4.881-.627q4.912-.613,9.83-1.108,9.849-1,19.732-1.59c1.831-.112,3.661-.23,5.492-.325.963-.05,1.926-.1,2.888-.14s1.926-.207,2.888-.246a1.408,1.408,0,0,0,1.338-1.758c-.694-3.79-1.349-7.585-2.06-11.369s-1.164-7.63-1.987-11.408-1.954-7.35-2.961-11.011-2.116-7.305-3.14-10.972c-.588-2.1-1.232-4.165-1.909-6.236s-1.192-4.187-2.015-6.2a1.22,1.22,0,0,0-1.455-.828c-1.388.358-2.81.588-4.215.868-1.086.213-.857,2.1.263,1.959,1.416-.179,2.838-.4,4.266-.5l-1.142-.868c.4,1.9,1.008,3.762,1.534,5.631s.935,3.683,1.444,5.52c1.036,3.706,1.926,7.456,2.8,11.2.437,1.853.873,3.706,1.265,5.57s.655,3.762,1.108,5.609.84,3.711,1.377,5.531,1.1,3.633,1.517,5.486c.952,4.238,1.858,8.486,2.62,12.763l1.338-1.758c-.823.034-1.651-.05-2.474-.017-.873.039-1.741.084-2.609.129q-2.477.134-4.943.291c-3.342.218-6.684.515-10.015.834q-10.034.966-20.012,2.452c-1.8.263-3.594.672-5.4.89-1.931.235-3.9.235-5.811.571a1.429,1.429,0,0,0-1.03,1.355,3.768,3.768,0,0,1-3.135,3.09,3.81,3.81,0,0,1-3.924-2.687,1.3,1.3,0,0,0-1.567-.89,330.124,330.124,0,0,1-40.333,8.5q-5.769.831-11.565,1.444a1.073,1.073,0,0,0-1.041,1.041,1.05,1.05,0,0,0,1.041,1.041h0Z" transform="translate(-690.2 -232.797)" fill="#010d3d"/>
          <path id="Trazado_9114" data-name="Trazado 9114" d="M686.2,268.56a33.783,33.783,0,0,0-3.667.588c-.56.123-1.12.269-1.668.425a5.521,5.521,0,0,0-1.842.705,1.481,1.481,0,0,0-.521,1.982,2.08,2.08,0,0,0,.705.845l-.588-.767c.229,1.03.509,2.049.761,3.073.364,1.444.694,2.9,1.036,4.35.823,3.482,1.668,6.964,2.474,10.451.733,3.163,1.405,6.342,2.189,9.494s1.674,6.163,2.547,9.242c.817,2.883,1.646,5.766,2.39,8.671.375,1.472.739,2.95,1.08,4.434.168.728.33,1.461.493,2.194.078.358.157.705.263,1.058.112.392.347.789.431,1.153A12.764,12.764,0,0,0,693,328.58a.788.788,0,0,0,.89.364,10.069,10.069,0,0,1,1.881-.308c.61-.09,1.17-.185,1.758-.269q1.8-.252,3.588-.565c1.192-.207,2.385-.431,3.566-.677.582-.118,1.164-.246,1.741-.375a8.7,8.7,0,0,0,.935-.213,3.837,3.837,0,0,0,.823-.487.388.388,0,0,0-.2-.716,3.575,3.575,0,0,0-.974-.056c-.291.05-.582.129-.868.2-.6.134-1.2.263-1.808.386-1.164.235-2.334.459-3.5.655s-2.346.386-3.521.549c-.571.078-1.148.134-1.724.2a8.741,8.741,0,0,1-1.909.129l.789.789a9.747,9.747,0,0,0,0-1.069c-.022-.386-.123-.89-.129-1.2a12.043,12.043,0,0,0-.291-2.407c-.314-1.467-.649-2.922-1-4.383-.711-2.933-1.455-5.867-2.273-8.772-.98-3.476-2.049-6.919-2.939-10.418-.767-3.012-1.573-6.012-2.323-9.029-.873-3.521-1.7-7.048-2.519-10.58-.616-2.67-1.248-5.335-1.774-8.027-.039-.207-.078-.414-.123-.621l-.129.991a2.389,2.389,0,0,0,.241-1.114l-1.45,1.45a6.922,6.922,0,0,0,1.859-.442c.526-.157,1.064-.3,1.6-.431s1.036-.235,1.556-.33c.263-.05.521-.1.784-.134l.459-.067c.112-.017.09-.011-.067.011l.263-.034a1.526,1.526,0,0,0,1.489-1.489,1.507,1.507,0,0,0-1.489-1.489h0Z" transform="translate(-678.302 -244.504)" fill="#010d3d"/>
          <path id="Trazado_9115" data-name="Trazado 9115" d="M703.543,266.41c3.3-4.557,8.369-7.473,13.586-9.326a79.818,79.818,0,0,1,9.029-2.491c1.556-.353,3.112-.745,4.685-.991a13.265,13.265,0,0,1,4.585.039,19.4,19.4,0,0,1,4.7,1.584c1.5.705,2.939,1.64,4.417,2.446a.272.272,0,0,0,.274-.47,32.565,32.565,0,0,0-4.036-2.234,22.072,22.072,0,0,0-4.215-1.59,13.855,13.855,0,0,0-4.473-.409,33.969,33.969,0,0,0-4.719.873c-6.006,1.36-12.13,2.855-17.4,6.163a23.412,23.412,0,0,0-6.74,6.236c-.129.185.168.353.3.174h0Z" transform="translate(-689.264 -237.624)" fill="#010d3d"/>
          <path id="Trazado_9116" data-name="Trazado 9116" d="M706.159,273.643a26.011,26.011,0,0,1,9.007-6.779,37.835,37.835,0,0,1,5.5-2.211c2.11-.638,4.266-1.142,6.432-1.567,1.215-.241,2.435-.453,3.655-.661l1.831-.3c.336-.056,1.265-.325,1.405.179a.109.109,0,0,0,.213-.028c.011-.823-1.159-.633-1.657-.56-1.159.168-2.323.341-3.482.532-2.312.375-4.618.795-6.891,1.383a34.111,34.111,0,0,0-11.554,4.915,24.157,24.157,0,0,0-4.893,4.663c-.246.313.19.761.442.442h0Z" transform="translate(-690.341 -241.458)" fill="#010d3d"/>
          <path id="Trazado_9117" data-name="Trazado 9117" d="M708.173,281.572c2.446-1.013,4.254-2.989,6.432-4.428a21,21,0,0,1,4.07-1.97c1.411-.543,2.793-1.064,4.2-1.573,5.671-2.071,11.638-3.891,17.745-3.538a14.748,14.748,0,0,1,4.148.761,8.04,8.04,0,0,1,1.775.873,18.887,18.887,0,0,1,1.567,1.344.14.14,0,0,0,.218-.168,5.222,5.222,0,0,0-2.687-2.262,12.183,12.183,0,0,0-3.487-.957,28.935,28.935,0,0,0-8.9.358,58.928,58.928,0,0,0-9.035,2.513c-1.478.521-2.95,1.069-4.417,1.623a34.518,34.518,0,0,0-4.182,1.786c-2.737,1.461-4.753,4.014-7.63,5.228-.229.1-.062.5.174.409h0Z" transform="translate(-691.325 -244.898)" fill="#010d3d"/>
          <path id="Trazado_9118" data-name="Trazado 9118" d="M711.063,289.617a53.6,53.6,0,0,1,33.369-10.362c2.569.09,5.906.235,7.176,2.889.112.229.487.067.414-.174-.739-2.351-3.706-2.961-5.839-3.135a48.913,48.913,0,0,0-9.1.185,53.5,53.5,0,0,0-26.237,10.239c-.213.157-.006.521.213.358h0Z" transform="translate(-692.591 -248.969)" fill="#010d3d"/>
          <path id="Trazado_9119" data-name="Trazado 9119" d="M715,298.518a50.351,50.351,0,0,1,21.065-9.007,23.767,23.767,0,0,1,3.14-.42,7.836,7.836,0,0,1,2.9.448c.118.039.174-.106.112-.19-1.164-1.455-3.571-.991-5.167-.767a47.228,47.228,0,0,0-16.727,5.721,50.7,50.7,0,0,0-5.615,3.711c-.291.224-.006.728.291.5Z" transform="translate(-694.273 -253.207)" fill="#010d3d"/>
          <path id="Trazado_9120" data-name="Trazado 9120" d="M719.867,315.632c4.036-3.432,9.091-5.385,14.084-6.953,5.391-1.7,11.045-3.415,16.754-3.09a20.7,20.7,0,0,1,4.378.705,18.12,18.12,0,0,1,2.133.739c.694.291,1.355.694,2.054,1,.235.1.543-.2.3-.392A11.174,11.174,0,0,0,756,305.925a20.4,20.4,0,0,0-3.963-.845,29.02,29.02,0,0,0-8.548.42,77.865,77.865,0,0,0-8.665,2.262,71.077,71.077,0,0,0-7.624,2.737,30.446,30.446,0,0,0-7.7,4.758c-.258.224.118.593.375.375h0Z" transform="translate(-696.396 -260.513)" fill="#010d3d"/>
          <path id="Trazado_9121" data-name="Trazado 9121" d="M721.487,325.223c1.315-1.931,3.611-2.833,5.659-3.745,2.469-1.1,4.915-2.239,7.4-3.3,4.775-2.038,9.8-3.8,15.047-3.829a21.315,21.315,0,0,1,4.131.364,23.6,23.6,0,0,1,4.031,1.254c.347.134.582-.431.252-.6a17.64,17.64,0,0,0-7.428-1.7,28.139,28.139,0,0,0-7.63.856,50.458,50.458,0,0,0-7.753,2.7c-2.513,1.075-5.066,2.267-7.585,3.443-2.34,1.092-5.032,2.088-6.533,4.316-.168.252.235.481.4.235h0Z" transform="translate(-697.115 -264.355)" fill="#010d3d"/>
          <path id="Trazado_9122" data-name="Trazado 9122" d="M723.8,339.088a52.339,52.339,0,0,1,17.017-8.38,22.762,22.762,0,0,1,2.866-.633,12.315,12.315,0,0,1,1.5-.123,5.432,5.432,0,0,0,1.383-.056.22.22,0,0,0,.05-.4,2.432,2.432,0,0,0-1.17-.179,12.954,12.954,0,0,0-1.321.073,19.043,19.043,0,0,0-2.569.476,45.606,45.606,0,0,0-4.691,1.478,50.191,50.191,0,0,0-8.7,4.226,52.93,52.93,0,0,0-4.59,3.118c-.229.174-.006.571.229.392h0Z" transform="translate(-698.189 -271.251)" fill="#010d3d"/>
          <path id="Trazado_9123" data-name="Trazado 9123" d="M792.236,248.326c1.6-2.267,4.26-3.42,6.745-4.445A66.651,66.651,0,0,1,807.7,240.9a38.624,38.624,0,0,1,17.807-.666,30.711,30.711,0,0,1,4.607,1.383c.761.3,1.489.638,2.228.985s1.439.705,2.172,1c.129.05.235-.146.134-.235a12.615,12.615,0,0,0-1.819-1.248,14.115,14.115,0,0,0-1.948-.935,28.935,28.935,0,0,0-4.182-1.416,34.04,34.04,0,0,0-8.833-1.024,49.306,49.306,0,0,0-18.462,4.221c-2.8,1.181-5.827,2.519-7.607,5.1-.19.274.257.532.448.263h0Z" transform="translate(-728.242 -231.379)" fill="#010d3d"/>
          <path id="Trazado_9124" data-name="Trazado 9124" d="M795.218,256.911a15.124,15.124,0,0,1,3.017-2.273,23.145,23.145,0,0,1,3.448-1.539,54.329,54.329,0,0,1,7.384-2.015c5.811-1.282,11.711-2.564,17.695-2.026a24.021,24.021,0,0,1,4.585.828,20.4,20.4,0,0,1,2.194.773c.716.3,1.405.683,2.127.985.291.123.414-.313.2-.476a13.3,13.3,0,0,0-3.823-1.747,25.452,25.452,0,0,0-4.148-.974,33.843,33.843,0,0,0-8.805-.017c-3.112.364-6.18,1.008-9.242,1.674a64.511,64.511,0,0,0-7.68,2.01,19.366,19.366,0,0,0-7.311,4.434.257.257,0,0,0,.364.364h0Z" transform="translate(-729.579 -235.519)" fill="#010d3d"/>
          <path id="Trazado_9125" data-name="Trazado 9125" d="M797.424,269.679a25.834,25.834,0,0,1,6.93-3.678,27.935,27.935,0,0,1,3.745-1.047,38.072,38.072,0,0,1,4.361-.554c.828-.073,1.651-.14,2.48-.213a23.693,23.693,0,0,0,2.558-.285c.319-.067.235-.549-.073-.554a21.782,21.782,0,0,0-2.34.146c-.772.062-1.517.129-2.273.2-1.478.129-2.956.252-4.417.521a25.089,25.089,0,0,0-7.389,2.592,29.4,29.4,0,0,0-3.818,2.463c-.246.19-.006.61.246.425h0Z" transform="translate(-730.592 -242.208)" fill="#010d3d"/>
          <path id="Trazado_9126" data-name="Trazado 9126" d="M799.887,283.816c4.383-3.426,10.031-4.842,15.417-5.738,2.844-.476,5.71-.845,8.576-1.159a60.623,60.623,0,0,1,9.124-.453,27.94,27.94,0,0,1,4.96.661,24.538,24.538,0,0,1,2.379.666q.621.21,1.226.453c.286.112.991.386.9.8-.028.112.118.213.2.118.963-1.075-2.026-1.847-2.592-2.026a26.289,26.289,0,0,0-4.6-1,44.7,44.7,0,0,0-9.516-.157c-3.1.258-6.18.655-9.253,1.1a54.509,54.509,0,0,0-8.654,1.853,26.119,26.119,0,0,0-8.559,4.484c-.28.224.117.6.392.392h0Z" transform="translate(-731.611 -247.691)" fill="#010d3d"/>
          <path id="Trazado_9127" data-name="Trazado 9127" d="M801.57,294.844c4.422-3.7,10.1-5.531,15.663-6.7,2.849-.6,5.732-1.013,8.615-1.383a43.489,43.489,0,0,1,8.985-.381,27.562,27.562,0,0,1,4.915.823,21.162,21.162,0,0,1,2.273.75c.784.308,1.528.694,2.312,1,.14.056.2-.146.1-.224a13.569,13.569,0,0,0-4.058-1.808,26.133,26.133,0,0,0-4.361-.935,46.052,46.052,0,0,0-9.085-.146,75.944,75.944,0,0,0-8.912,1.22,47.26,47.26,0,0,0-8.514,2.385,29.223,29.223,0,0,0-8.341,4.988c-.28.241.123.644.409.409h0Z" transform="translate(-732.342 -252.046)" fill="#010d3d"/>
          <path id="Trazado_9128" data-name="Trazado 9128" d="M806.121,304.749a51.687,51.687,0,0,1,15.7-6.1,58.5,58.5,0,0,1,16.67-1.12,43.818,43.818,0,0,1,4.68.6c.789.146,1.573.313,2.351.5a17.821,17.821,0,0,0,2.284.509.2.2,0,0,0,.1-.369,9.952,9.952,0,0,0-2.01-.621c-.683-.168-1.405-.33-2.116-.47-1.366-.274-2.743-.515-4.126-.689s-2.838-.358-4.266-.425-2.855-.056-4.277.011a51.9,51.9,0,0,0-16.676,3.5,55.909,55.909,0,0,0-8.559,4.254c-.263.162-.022.582.246.42h0Z" transform="translate(-734.414 -256.812)" fill="#010d3d"/>
          <path id="Trazado_9129" data-name="Trazado 9129" d="M807.99,317.636a29.233,29.233,0,0,1,4.467-2.569,41.509,41.509,0,0,1,4.747-1.775c1.635-.521,3.3-.935,4.971-1.332,1.685-.4,3.359-.795,5.066-1.086.94-.157,1.881-.308,2.827-.448a17.317,17.317,0,0,0,2.905-.532.138.138,0,0,0-.034-.269,13.833,13.833,0,0,0-2.536.235c-.845.118-1.735.246-2.6.375s-1.735.258-2.6.409-1.735.263-2.6.431a42.38,42.38,0,0,0-9.819,3.18,33.278,33.278,0,0,0-5.077,2.911c-.28.2-.017.661.269.465h0Z" transform="translate(-735.219 -262.578)" fill="#010d3d"/>
          <path id="Trazado_9130" data-name="Trazado 9130" d="M866.445,311.2c1.131.285,2.267.554,3.387.884.549.162,1.1.325,1.651.476.274.078.549.162.828.218a3.791,3.791,0,0,0,.873.028.205.205,0,0,0,.1-.381,3.542,3.542,0,0,0-.773-.381,7.358,7.358,0,0,0-.773-.179c-.582-.123-1.164-.241-1.752-.358-1.142-.23-2.278-.521-3.409-.795-.319-.078-.459.414-.134.493h0Z" transform="translate(-761.044 -263.056)" fill="#010d3d"/>
        </g>
      </g>
    </g>
    <g id="Grupo_4910" data-name="Grupo 4910" transform="translate(754.389 390.761)">
      <path id="Trazado_9131" data-name="Trazado 9131" d="M867.552,714.475c-.465-15.26-1.159-34.869-1.623-50.129-.146-4.8-.291-9.612-.353-14.415-.1-8.268.067-16.536.235-24.8l.168-8.475,1.763-87.892c17.661-.263,40.909-1.058,58.52-2.39l1.036,35.586c6.281-.123,6.964-.241,13.25-.364q.478,27.13,2.737,54.2a30.506,30.506,0,0,0,9.214.588,629.426,629.426,0,0,1,1.131,97.459c-7.691.347-74.239.784-86.106.252" transform="translate(-863.888 -524.744)" fill="#fff"/>
      <path id="Trazado_9132" data-name="Trazado 9132" d="M973.591,836.607c-.011-.056-.039-.257-.039-.257-.017-.118-.039-.235-.062-.347-.039-.224-.09-.448-.14-.672a9.942,9.942,0,0,0-.347-1.142.519.519,0,0,1-.017-.05.248.248,0,0,0-.028-.05c-.05-.1-.1-.2-.151-.3-.067-.118-.14-.235-.218-.347-.028-.022-.145-.168-.2-.224a.976.976,0,0,0-.112-.1.229.229,0,0,0-.05-.028c-.325-.129-.022-.073-.386-.157a4.626,4.626,0,0,0-.554-.1,16.154,16.154,0,0,0-1.8-.039c-1.092.022-2.172.073-3.263.017-1.775-.084-3.588,0-5.363.028q-2.729.05-5.452.235a58.253,58.253,0,0,1-6.342.207.112.112,0,0,1-.022.045,1.381,1.381,0,0,1-.817.633,22.863,22.863,0,0,1-2.4.246c-.235.011-.465.017-.688.006a9.981,9.981,0,0,0-.157,1.579c-.062,2.457.381,4.887.4,7.344.017,2-.151,4.03-.146,6.051,10.166-.045,20.309-.118,28.3-.2,0-1.931.157-3.863.224-5.794a40.332,40.332,0,0,0-.168-6.577Z" transform="translate(-898.856 -659.628)" fill="#ccf0f9"/>
      <path id="Trazado_9133" data-name="Trazado 9133" d="M885.254,711.8c-.308-6.936-.353-13.877-.476-20.818-.252-13.939-.946-27.866-1.372-41.8q-.63-20.959.1-41.894c.481-13.776.761-27.564.5-41.352-.123-6.751-.459-13.491-.638-20.242-.134-5.217-.224-10.429-.823-15.6-5.184.14-10.183.246-14.8.313q-.882,43.949-1.763,87.892-.084,4.24-.168,8.475c-.168,8.268-.33,16.536-.235,24.8.056,4.809.2,9.612.347,14.415.459,15.131,1.148,34.539,1.612,49.743,3.04.134,9.628.207,17.885.235-.056-1.388-.112-2.782-.174-4.17Z" transform="translate(-863.89 -526.382)" fill="#ccf0f9"/>
      <path id="Trazado_9134" data-name="Trazado 9134" d="M867.8,713.2c-.134-10.9-.61-21.8-.968-32.7s-.868-22.856-.935-34.287c-.078-12.657.313-25.319.565-37.97l.756-37.937c.129-6.331-.28-12.64-.274-18.966s.319-12.78.694-19.156c.089-1.567.174-3.129.235-4.7l-1.427,1.427c15.394.05,30.8-.515,46.171-1.383,4.114-.235,8.24-.465,12.349-.823l-1.612-1.612c.481,11.862.778,23.718,1.1,35.586A1.567,1.567,0,0,0,926,562.228c4.417-.078,8.833-.258,13.25-.336l-1.573-1.573q.168,10.572.6,21.138c.291,7.042.778,14.073,1.2,21.115q.361,5.979.857,11.946a1.7,1.7,0,0,0,1.215,1.6,33.066,33.066,0,0,0,9.651.644l-1.651-1.651q1.688,18.918,2.239,37.909c.364,12.657.358,25.448-.062,38.161q-.353,10.7-1.036,21.384l1.635-1.635c-3.454.157-6.913.146-10.367.213-6.247.123-12.489.308-18.736.375q-11.084.109-22.173.14a52.624,52.624,0,0,0-5.469.319,39.97,39.97,0,0,1-5.178.168c-3.224-.084-6.46-.056-9.679-.263-4.439-.286-8.979-.386-13.541-.577-.325-.011-.644-.028-.968-.045-2-.09-2,3.023,0,3.107,4.086.179,8.408.146,12.332-.062,3.107-.162,6.2-.252,9.309-.269,1.719-.006,3.437-.1,5.156-.129a49.77,49.77,0,0,1,5.279.5c1.819.162,3.706.022,5.531.017s3.734-.017,5.6-.022c3.7-.017,7.395-.011,11.095-.028q9.715-.034,19.43,0,5.844.025,11.694-.162c.224-.006.448-.017.672-.022a1.674,1.674,0,0,0,1.635-1.635q1.268-18.952,1.36-37.954c.073-12.662-.241-25.448-.94-38.149q-.588-10.689-1.539-21.356a1.673,1.673,0,0,0-1.651-1.651,30.155,30.155,0,0,1-8.772-.532l1.215,1.6q-1.747-21.084-2.5-42.225-.2-5.987-.325-11.974a1.6,1.6,0,0,0-1.573-1.573c-4.417.1-8.833.291-13.25.386l1.545,1.545c-.369-11.862-.761-23.718-.968-35.586a1.631,1.631,0,0,0-1.612-1.612q-23.058,1.469-46.149,2.2c-4.126.134-8.251.241-12.371.381a1.452,1.452,0,0,0-1.427,1.427c-.011,6.314.341,12.651.129,18.966q-.16,4.795-.364,9.578c-.14,3.191-.532,6.382-.689,9.578-.3,6.314-.3,12.651-.431,18.966l-.381,18.966c-.258,12.651-.621,25.314-.672,37.97-.045,11.632.414,23.265.795,34.9.358,11.017.565,22.056,1.114,33.067.062,1.243.123,2.48.185,3.723.1,1.976,3.124,2,3.1,0h0Z" transform="translate(-862.585 -523.465)" fill="#010d3d"/>
      <path id="Trazado_9135" data-name="Trazado 9135" d="M944.951,848.713q-.3-4-.425-8.01-.067-2.074-.1-4.148a11.2,11.2,0,0,1-.011-1.937c.05-.308.078-.319.42-.37.364-.056.728-.089,1.092-.134a147.019,147.019,0,0,1,16.094-.577,62.98,62.98,0,0,1,9.13.431l-.621-.812c.106,3.258.14,6.516.252,9.774.045,1.338.062,2.715.2,4.047a11.328,11.328,0,0,0,.246,1.209,2.244,2.244,0,0,0,.1.425c.011.028.011.073.022.1.118.2-.162.134.09-.185l.336-.045.118.146a.276.276,0,0,0-.532.145.322.322,0,0,0,.134.185.28.28,0,0,0,.336-.045c.151-.19.006.078.106-.179.034-.09.062-.179.089-.269.106-.358.174-.739.252-1.1a10.114,10.114,0,0,0,.106-1.842c.022-.75.056-1.5.062-2.256.022-3.376-.1-6.757-.224-10.127a.871.871,0,0,0-.845-.845c-5.8-.767-11.66-.157-17.493-.179a71.964,71.964,0,0,0-8.638.644c-1.12.129-2.178.308-2.256,1.651-.09,1.433.011,2.905.039,4.338.073,3.32.263,6.633.532,9.942.073.884,1.456.9,1.388,0h0Z" transform="translate(-897.965 -659.245)" fill="#010d3d"/>
      <path id="Trazado_9136" data-name="Trazado 9136" d="M968.459,834.656a49.664,49.664,0,0,1,.157,8.262c-.034,1.31-.045,2.625.045,3.935a10.3,10.3,0,0,0,.689,3.874.53.53,0,0,0,.98-.263,13.6,13.6,0,0,0-.3-1.954c-.106-.722-.168-1.45-.207-2.178-.067-1.315-.05-2.625-.022-3.941a46.934,46.934,0,0,0-.252-8.033c-.106-.717-1.192-.409-1.086.3h0Z" transform="translate(-909.191 -660.145)" fill="#010d3d"/>
      <path id="Trazado_9137" data-name="Trazado 9137" d="M909.439,761.99l.375,8.4a1.651,1.651,0,0,0,3.3,0l-.375-8.4a1.651,1.651,0,1,0-3.3,0Z" transform="translate(-883.21 -627.739)" fill="#010d3d"/>
      <path id="Trazado_9138" data-name="Trazado 9138" d="M931.939,761.99l.375,8.4a1.651,1.651,0,0,0,3.3,0l-.375-8.4a1.651,1.651,0,1,0-3.3,0Z" transform="translate(-893.115 -627.739)" fill="#010d3d"/>
      <path id="Trazado_9139" data-name="Trazado 9139" d="M954.439,761.99l.375,8.4a1.651,1.651,0,0,0,3.3,0l-.375-8.4a1.651,1.651,0,1,0-3.3,0Z" transform="translate(-903.019 -627.739)" fill="#010d3d"/>
      <path id="Trazado_9140" data-name="Trazado 9140" d="M976.939,761.99l.375,8.4a1.651,1.651,0,0,0,3.3,0l-.375-8.4a1.651,1.651,0,1,0-3.3,0Z" transform="translate(-912.924 -627.739)" fill="#010d3d"/>
      <path id="Trazado_9141" data-name="Trazado 9141" d="M999.439,761.99l.375,8.4a1.651,1.651,0,0,0,3.3,0l-.375-8.4a1.651,1.651,0,1,0-3.3,0Z" transform="translate(-922.829 -627.739)" fill="#010d3d"/>
      <path id="Trazado_9142" data-name="Trazado 9142" d="M909.439,711.99l.375,8.4a1.651,1.651,0,0,0,3.3,0l-.375-8.4a1.651,1.651,0,0,0-3.3,0Z" transform="translate(-883.21 -605.729)" fill="#010d3d"/>
      <path id="Trazado_9143" data-name="Trazado 9143" d="M931.939,711.99l.375,8.4a1.651,1.651,0,0,0,3.3,0l-.375-8.4a1.651,1.651,0,0,0-3.3,0Z" transform="translate(-893.115 -605.729)" fill="#010d3d"/>
      <path id="Trazado_9144" data-name="Trazado 9144" d="M954.439,711.99l.375,8.4a1.651,1.651,0,0,0,3.3,0l-.375-8.4a1.651,1.651,0,0,0-3.3,0Z" transform="translate(-903.019 -605.729)" fill="#010d3d"/>
      <path id="Trazado_9145" data-name="Trazado 9145" d="M976.939,711.99l.375,8.4a1.651,1.651,0,0,0,3.3,0l-.375-8.4a1.651,1.651,0,0,0-3.3,0Z" transform="translate(-912.924 -605.729)" fill="#010d3d"/>
      <path id="Trazado_9146" data-name="Trazado 9146" d="M999.439,711.99l.375,8.4a1.651,1.651,0,0,0,3.3,0l-.375-8.4a1.651,1.651,0,0,0-3.3,0Z" transform="translate(-922.829 -605.729)" fill="#010d3d"/>
      <path id="Trazado_9147" data-name="Trazado 9147" d="M909.439,661.99l.375,8.4a1.651,1.651,0,0,0,3.3,0l-.375-8.4a1.651,1.651,0,1,0-3.3,0Z" transform="translate(-883.21 -583.718)" fill="#010d3d"/>
      <path id="Trazado_9148" data-name="Trazado 9148" d="M931.939,661.99l.375,8.4a1.651,1.651,0,0,0,3.3,0l-.375-8.4a1.651,1.651,0,1,0-3.3,0Z" transform="translate(-893.115 -583.718)" fill="#010d3d"/>
      <path id="Trazado_9149" data-name="Trazado 9149" d="M954.439,661.99l.375,8.4a1.651,1.651,0,0,0,3.3,0l-.375-8.4a1.651,1.651,0,1,0-3.3,0Z" transform="translate(-903.019 -583.718)" fill="#010d3d"/>
      <path id="Trazado_9150" data-name="Trazado 9150" d="M976.939,661.99l.375,8.4a1.651,1.651,0,0,0,3.3,0l-.375-8.4a1.651,1.651,0,1,0-3.3,0Z" transform="translate(-912.924 -583.718)" fill="#010d3d"/>
      <path id="Trazado_9151" data-name="Trazado 9151" d="M909.439,611.99l.375,8.4a1.651,1.651,0,0,0,3.3,0l-.375-8.4a1.651,1.651,0,0,0-3.3,0Z" transform="translate(-883.21 -561.707)" fill="#010d3d"/>
      <path id="Trazado_9152" data-name="Trazado 9152" d="M931.939,611.99l.375,8.4a1.651,1.651,0,0,0,3.3,0l-.375-8.4a1.651,1.651,0,0,0-3.3,0Z" transform="translate(-893.115 -561.707)" fill="#010d3d"/>
      <path id="Trazado_9153" data-name="Trazado 9153" d="M954.439,611.99l.375,8.4a1.651,1.651,0,0,0,3.3,0l-.375-8.4a1.651,1.651,0,0,0-3.3,0Z" transform="translate(-903.019 -561.707)" fill="#010d3d"/>
      <path id="Trazado_9154" data-name="Trazado 9154" d="M976.939,611.99l.375,8.4a1.651,1.651,0,0,0,3.3,0l-.375-8.4a1.651,1.651,0,0,0-3.3,0Z" transform="translate(-912.924 -561.707)" fill="#010d3d"/>
      <path id="Trazado_9155" data-name="Trazado 9155" d="M909.439,561.99l.375,8.4a1.651,1.651,0,0,0,3.3,0l-.375-8.4a1.651,1.651,0,0,0-3.3,0Z" transform="translate(-883.21 -539.697)" fill="#010d3d"/>
      <path id="Trazado_9156" data-name="Trazado 9156" d="M931.939,561.99l.375,8.4a1.651,1.651,0,0,0,3.3,0l-.375-8.4a1.651,1.651,0,0,0-3.3,0Z" transform="translate(-893.115 -539.697)" fill="#010d3d"/>
      <path id="Trazado_9157" data-name="Trazado 9157" d="M954.439,561.99l.375,8.4a1.651,1.651,0,0,0,3.3,0l-.375-8.4a1.651,1.651,0,0,0-3.3,0Z" transform="translate(-903.019 -539.697)" fill="#010d3d"/>
      <path id="Trazado_9158" data-name="Trazado 9158" d="M877.6,568.6l.062,1.069a12.8,12.8,0,0,0,.123,1.461,1.234,1.234,0,0,0,.3.56,1.261,1.261,0,0,0,.465.425l.392.168a1.242,1.242,0,0,0,.655.028.82.82,0,0,0,.414-.112,1.26,1.26,0,0,0,.532-.341l.258-.336a1.608,1.608,0,0,0,.224-.834c.011-.174-.017-.353-.022-.526l-.028-.526-.062-1.047a1.758,1.758,0,0,0-.481-1.17,1.228,1.228,0,0,0-.532-.341,1.243,1.243,0,0,0-.638-.14,1.686,1.686,0,0,0-1.17.481,1.611,1.611,0,0,0-.481,1.17h0Z" transform="translate(-869.195 -542.602)" fill="#010d3d"/>
      <path id="Trazado_9159" data-name="Trazado 9159" d="M877.33,619.492c-.011.308-.017.616-.028.918l.05-.358a5.013,5.013,0,0,1-.146.868,1.039,1.039,0,0,0-.039.19,4.437,4.437,0,0,0-.067.6,2.1,2.1,0,0,0,.252,1.192,1.644,1.644,0,0,0,1.388.795,1.6,1.6,0,0,0,1.388-.795,1.753,1.753,0,0,0,.229-.991c-.011-.1-.017-.19-.028-.28a3.949,3.949,0,0,0-.1-.627,4.837,4.837,0,0,0-.246-.588l.151.358c-.062-.257-.14-.521-.179-.778l.05.358-.112-.868a.94.94,0,0,0-.112-.493.99.99,0,0,0-.263-.414,1.282,1.282,0,0,0-2.189.907h0Z" transform="translate(-868.975 -565.173)" fill="#010d3d"/>
      <path id="Trazado_9160" data-name="Trazado 9160" d="M877.274,672.3c.017.089.028.179.039.263l-.062-.442a7.353,7.353,0,0,1,0,1.92l.062-.442a.483.483,0,0,1-.011.09,1.262,1.262,0,0,0-.028.661,1.23,1.23,0,0,0,.2.616,1.307,1.307,0,0,0,.425.465,1.262,1.262,0,0,0,.56.3,1.694,1.694,0,0,0,1.276-.168l.336-.258a1.629,1.629,0,0,0,.425-.728,8.478,8.478,0,0,0-.028-3.157,1.234,1.234,0,0,0-.3-.56,1.484,1.484,0,0,0-1.08-.621,1.262,1.262,0,0,0-.661.028,1.658,1.658,0,0,0-.985.761l-.168.4a1.67,1.67,0,0,0,0,.879Z" transform="translate(-869.025 -588.062)" fill="#010d3d"/>
      <path id="Trazado_9161" data-name="Trazado 9161" d="M876.3,717.517l-.011.784c0,.263-.039.526-.062.784s-.056.526-.09.784a2.344,2.344,0,0,0,.045,1.08,1.685,1.685,0,0,0,.42.722l.33.258a1.592,1.592,0,0,0,1.455.084,1.552,1.552,0,0,0,.862-.862,1.647,1.647,0,0,0-.084-1.456l-.017-.034.162.392a.279.279,0,0,1-.017-.067l.056.431c-.062-.773-.235-1.539-.358-2.3l.05.369c-.039-.319-.05-.644-.073-.968a1.425,1.425,0,0,0-.392-.946,1.338,1.338,0,0,0-2.284.946h0Z" transform="translate(-868.533 -608.3)" fill="#010d3d"/>
      <path id="Trazado_9162" data-name="Trazado 9162" d="M877.221,767.666c.022,1,.112,2,.213,2.989a1.6,1.6,0,0,0,.224.823l.252.33a1.567,1.567,0,0,0,1.366.448,1.531,1.531,0,0,0,1.058-.61,1.591,1.591,0,0,0,.291-1.416,21.623,21.623,0,0,1-.481-2.542l.05.392c-.017-.14-.034-.274-.05-.414a1.093,1.093,0,0,0-.129-.565,1.171,1.171,0,0,0-.3-.47,1.52,1.52,0,0,0-1.036-.431,1.467,1.467,0,0,0-1.036.431,1.517,1.517,0,0,0-.431,1.036h0Z" transform="translate(-869.023 -630.32)" fill="#010d3d"/>
    </g>
  </g>
</svg>
