<svg xmlns="http://www.w3.org/2000/svg" width="344.047" height="363.784" viewBox="0 0 344.047 363.784">
  <g id="IICE_LandingCompliancePenal_Nivel2_4" transform="translate(-715.607 -281.886)">
    <g id="Grupo_4786" data-name="Grupo 4786" transform="translate(869.356 281.886)">
      <path id="Trazado_8213" data-name="Trazado 8213" d="M1191.813,368.55a25.175,25.175,0,0,0-5.259-11.669c-2.686-3.142-6.262-5.126-9.971-6.795a20.685,20.685,0,0,0-3.085-1.332,1.972,1.972,0,0,0-1.052,3.8,10.455,10.455,0,0,1,4.074,2.658c.582.8,1.255,1.445,1.641,2,.568.834,1.143,1.669,1.7,2.51a22.979,22.979,0,0,1,2.489,4.909,35.846,35.846,0,0,1,1.676,6.788c.266,1.739.435,4.172.547,6.269.063,1.2.063,2.405.147,3.6.084,1.22.239,2.419.224,3.646a30.342,30.342,0,0,1-3.212,11.991,28.68,28.68,0,0,1-3.12,5.322c-.652.848-1.178,1.753-1.886,2.567a10.589,10.589,0,0,1-2.581,2.083c-1.388.834-.175,2.735,1.241,2.118a21.118,21.118,0,0,0,3.1-1.711,1.792,1.792,0,0,0,1.767.428,7.739,7.739,0,0,0,3.3-1.837,19.28,19.28,0,0,0,2.51-2.833,28.889,28.889,0,0,0,3.352-5.582,39.643,39.643,0,0,0,3.38-14.754,60.014,60.014,0,0,0-1-14.172Z" transform="translate(-1005.41 -301.839)" fill="#a2e8e0"/>
      <path id="Trazado_8214" data-name="Trazado 8214" d="M1170.419,440.764s-.007-.063-.014-.1a1.81,1.81,0,0,0-.231-.533,1.92,1.92,0,0,0-.266-.323,1.742,1.742,0,0,0-.344-.252,2.042,2.042,0,0,0-1.62-.126,2.826,2.826,0,0,0-.47.21,2.535,2.535,0,0,0-.414.309,1.566,1.566,0,0,0-.189.182,3.2,3.2,0,0,0-.315.428,1.1,1.1,0,0,0,0,1.115,3.368,3.368,0,0,0,1.262,1.248,2.108,2.108,0,0,0,1.031.224,2.3,2.3,0,0,0,.526-.091,1.885,1.885,0,0,0,.687-.4.564.564,0,0,0,.091-.091,1.656,1.656,0,0,0,.231-.316,1.738,1.738,0,0,0,.21-.771,1.57,1.57,0,0,0-.161-.715Z" transform="translate(-1004.037 -328.921)" fill="#e0f7f5"/>
      <path id="Trazado_8215" data-name="Trazado 8215" d="M1164.621,349.382a17.386,17.386,0,0,0-8.015-.792,24.01,24.01,0,0,0-7.714,2.693c-5.147,2.714-8.744,7.5-11.087,12.748a45,45,0,0,0-4.116,18.3,24.331,24.331,0,0,0,.554,4.923c.112,1.634.281,3.268.547,4.881a20.247,20.247,0,0,0,1.353,4.74c.694,1.606,1.774,2.98,2.546,4.544a1.024,1.024,0,0,0,.855.561,21.029,21.029,0,0,0,6.977,6.963,23.334,23.334,0,0,0,5.5,2.363,16.63,16.63,0,0,0,2.756.947,28.985,28.985,0,0,0,4.93.547v-.049a2.039,2.039,0,0,0,2.005-1.48,2.127,2.127,0,0,0-1.452-2.56c-1.136-.407-2.111-.792-3.029-1.206-.68-.309-1.374-.554-2.076-.82-.133-.049-.259-.1-.393-.154.112.042.386.175-.119-.049-.295-.133-.589-.267-.876-.414-.533-.267-1.052-.568-1.557-.877-.231-.147-.47-.287-.694-.442l-.337-.231a.884.884,0,0,1-.091-.063,12.68,12.68,0,0,1-1.318-1.213c-.2-.21-.393-.435-.582-.659-.014-.014-.105-.14-.154-.2-.1-.133-.189-.266-.281-.407-.323-.484-.617-.989-.891-1.5-.161-.3-.308-.61-.456-.919-.049-.105-.1-.217-.147-.323-.021-.049-.077-.189-.1-.231a37.279,37.279,0,0,1-1.234-3.787,74.8,74.8,0,0,1-1.585-7.426,52.589,52.589,0,0,1-.7-7.328,57.424,57.424,0,0,1,.337-7.686,35.032,35.032,0,0,1,1.6-7.188,43.47,43.47,0,0,1,2.777-6.956,10.53,10.53,0,0,1,2.468-3.24,13.394,13.394,0,0,1,3.948-1.984,29.72,29.72,0,0,1,9.572-1.963,1.048,1.048,0,0,0,.281-2.048Z" transform="translate(-994.263 -301.765)" fill="#a2e8e0"/>
      <g id="Grupo_4781" data-name="Grupo 4781" transform="translate(50.923 285.405)">
        <path id="Trazado_8216" data-name="Trazado 8216" d="M1044.027,756.929c-3.871-1.9-8.7-1.353-11.935-4.635-8.772-9.39-3.682-25.069-3.948-36.759.189-6.43,1.858-13.415-1.227-19.4-1.409-2.546-4.242-5.259-7.405-4.116-3.555,1.318-2.637,5.883-2.959,8.878-2.048,6.4-.316,12.643.834,18.968a89.915,89.915,0,0,1,.168,20.041c-.126,5.336-6.486,11.711-.351,15.834a62.665,62.665,0,0,0,17.559,5.561C1037.337,761.48,1048.08,761.48,1044.027,756.929Z" transform="translate(-1009.588 -689.743)" fill="#fff"/>
        <path id="Trazado_8217" data-name="Trazado 8217" d="M1026.161,698.16c-.687,6.739-1.711,13.436-2.342,20.182s-1.087,13.113-.266,19.593a44.666,44.666,0,0,0,1.872,9.053,11.223,11.223,0,0,0,4.867,6.29,20.788,20.788,0,0,0,8.59,2.742c1.374.14,2.742.077,4.116.133a4.1,4.1,0,0,1,3.127,1.1,2.6,2.6,0,0,1-.161,3,4.887,4.887,0,0,1-3.064,1.949,24.926,24.926,0,0,1-8.506.288,33.826,33.826,0,0,1-8.275-1.949,30.3,30.3,0,0,1-4.032-1.844,6.422,6.422,0,0,0-1.886-.94c-.757-.112-1.409.463-2.1.687a7.761,7.761,0,0,1-7.04-1.48c-2.356-2.027.105-4.923,1.346-6.865,3.114-4.874,4.341-10.652,4.523-16.367.21-6.4-.856-12.72-1.473-19.067a84.714,84.714,0,0,1,.47-19.55c.224-1.641.463-3.282.68-4.93.2-1.48-2.328-1.823-2.616-.351a96.379,96.379,0,0,0-2.111,17.629c-.035,5.911.94,11.886,1.466,17.818a56.807,56.807,0,0,1-.386,15.652,26.412,26.412,0,0,1-2.342,7.1c-1.143,2.23-2.973,4.25-3.128,6.823-.168,2.938,2.475,4.909,4.93,5.869a11.687,11.687,0,0,0,7.98.021l-1.185-.154a32.487,32.487,0,0,0,20.161,4.81c3.106-.3,6.928-.961,8.562-3.99a4.667,4.667,0,0,0-2.279-6.76,12.329,12.329,0,0,0-4.3-.442,19.843,19.843,0,0,1-5.561-.715,14.22,14.22,0,0,1-4.9-2.209,9.361,9.361,0,0,1-2.854-3.85c-1.4-3.408-1.634-7.223-1.851-10.855a102.9,102.9,0,0,1,.077-11.486c.238-4.446.624-8.885.841-13.331s.351-9.088.652-13.618c.07-1.038-1.494-1-1.592,0h0Z" transform="translate(-1007.479 -688.89)" fill="#010d3d"/>
        <path id="Trazado_8218" data-name="Trazado 8218" d="M1013.149,775.517c.82,2.167,2.917,3.092,4.895,3.99a65.747,65.747,0,0,0,7.784,3.078c5.217,1.613,10.911,2.2,16.171.449,1.066-.358.6-2.062-.47-1.7-4.775,1.627-9.852,1.185-14.621-.21a61.171,61.171,0,0,1-7.125-2.651c-1.683-.729-4.362-1.494-5.105-3.373-.365-.933-1.886-.54-1.522.421h0Z" transform="translate(-1009.159 -714.488)" fill="#010d3d"/>
        <path id="Trazado_8219" data-name="Trazado 8219" d="M1047.8,784.219c.315-2.609-4.6-3.064-6.486-2.069a10.961,10.961,0,0,0-2.686,1.844c-3.78-.133-7.721-.884-11.5-.372-3.3-1.122-6.571-1.963-9.509-3.906-1.459-.771-3.822-3.085-5.61-2.714-5.855-.063-2.595,11.03,7.426,8.092,2.328.337,12.524,4.881,14.894,5.126a19.877,19.877,0,0,0,6.872-.231C1043.94,789.24,1048.758,787.143,1047.8,784.219Z" transform="translate(-1007.966 -715.203)" fill="#010d3d"/>
      </g>
      <g id="Grupo_4782" data-name="Grupo 4782" transform="translate(0 282.855)">
        <path id="Trazado_8220" data-name="Trazado 8220" d="M970.128,758.719c-3.1-3.008-7.861-3.969-9.923-8.092-5.442-11.641,4.235-24.985,7.587-36.184,2.167-6.052,5.911-12.187,4.825-18.835-.554-2.854-2.412-6.311-5.771-6.2-3.787.154-4.32,4.782-5.554,7.531-3.927,5.456-4.2,11.928-5.063,18.3a90.114,90.114,0,0,1-6.024,19.116c-1.767,5.042-9.782,9.144-5.217,14.95a62.9,62.9,0,0,0,14.985,10.708c2.391.968,12.608,4.285,10.161-1.3Z" transform="translate(-937.472 -686.494)" fill="#fff"/>
        <path id="Trazado_8221" data-name="Trazado 8221" d="M970.469,697.375c-2.791,6.332-5.89,12.524-8.632,18.877-2.552,5.925-5.014,12.047-6.227,18.407a42.56,42.56,0,0,0-.975,9.509,12.609,12.609,0,0,0,.863,4.284,11.413,11.413,0,0,0,2.56,3.59,21.584,21.584,0,0,0,7.454,4.8c1.739.687,5.659,1.2,5.757,3.661a3.323,3.323,0,0,1-2.013,2.714,7.079,7.079,0,0,1-4.214.2,31.607,31.607,0,0,1-7.721-2.644,33.3,33.3,0,0,1-6.907-4.481,32.668,32.668,0,0,1-3.008-2.9c-.568-.624-1-1.22-1.942-1.15a10.211,10.211,0,0,1-1.963.091,7.564,7.564,0,0,1-5.939-4.144c-.9-2.258,2.258-4.306,3.759-5.54,4.453-3.66,7.363-8.765,9.312-14.116,2.167-5.96,3.107-12.244,4.453-18.422a79.7,79.7,0,0,1,2.644-9.6,85.988,85.988,0,0,1,3.773-8.821c.715-1.48,1.438-2.952,2.146-4.432s-1.459-2.861-2.3-1.346a95.963,95.963,0,0,0-7.426,16.107c-1.858,5.617-2.8,11.788-4.172,17.685a55.52,55.52,0,0,1-5.266,14.7,26.306,26.306,0,0,1-4.46,5.968c-1.641,1.613-3.822,2.9-4.768,5.077-1.185,2.728.5,5.5,2.6,7.237a11.943,11.943,0,0,0,7.812,2.616l-1.087-.449a32.421,32.421,0,0,0,16.7,10.511c3.078.792,7.033,1.564,9.789-.512,2.349-1.767,3.057-5.344.645-7.391a10.919,10.919,0,0,0-3.871-1.823,21.2,21.2,0,0,1-4.691-2.062c-3.128-1.893-5.8-4.516-6.157-8.331-.344-3.689.6-7.412,1.522-10.953a102.71,102.71,0,0,1,3.618-10.988c1.571-4.1,3.3-8.141,4.852-12.251,1.641-4.355,3.219-8.737,4.937-13.057.33-.834-1.094-1.437-1.459-.617h0Z" transform="translate(-934.861 -685.253)" fill="#010d3d"/>
        <path id="Trazado_8222" data-name="Trazado 8222" d="M942.839,766.23c.133,2.51,2.188,4.151,3.906,5.722a61.207,61.207,0,0,0,6.346,5.14c4.39,3.029,9.509,5.2,14.915,5.161a.881.881,0,0,0,0-1.76c-4.909.077-9.5-1.83-13.527-4.516a58.261,58.261,0,0,1-5.834-4.565c-1.5-1.311-4.081-2.987-4.229-5.175-.07-1-1.634-1.017-1.578,0h0Z" transform="translate(-937.244 -709.222)" fill="#010d3d"/>
        <path id="Trazado_8223" data-name="Trazado 8223" d="M972.772,785.389c1.108-2.384-3.429-4.334-5.526-3.969a11.032,11.032,0,0,0-3.128.926c-3.555-1.29-7.068-3.226-10.82-3.906-2.791-2.083-5.645-3.892-7.833-6.655-1.15-1.178-2.686-4.116-4.5-4.313-5.547-1.872-5.869,9.691,4.565,9.993,2.111,1.038,10.406,8.506,12.58,9.474a19.9,19.9,0,0,0,6.606,1.9c2.826.133,8.064-.379,8.057-3.45Z" transform="translate(-935.543 -709.756)" fill="#010d3d"/>
      </g>
      <path id="Trazado_8224" data-name="Trazado 8224" d="M1043.795,300.871a9.848,9.848,0,0,0-5.9-.954,11.534,11.534,0,0,0,.5-10.231,11.959,11.959,0,0,0-3.822-5.042c-6.045-4.544-14.53-3.057-20.118,1.431a25.631,25.631,0,0,0-6.3,7.7,12.17,12.17,0,0,0-4.4-6.669,15.765,15.765,0,0,0-11.725-2.707c-7.377.989-14.523,6.346-15.729,14a14.9,14.9,0,0,0,.9,8.029,12.356,12.356,0,0,0-5.75-.393c-3.906.631-7.279,3.036-10.266,5.484-5.175,4.242-10.582,10.624-8.3,17.8a10.208,10.208,0,0,0,3.226,4.881,16.566,16.566,0,0,0-8.492,5.771,11.017,11.017,0,0,0-.6,11.872,9.309,9.309,0,0,0,1.907,2.314,16.65,16.65,0,0,0-8.9,11.171,15.982,15.982,0,0,0,14.039,18.807c-2.342,4.761-4.264,10.533-.989,15.259,2.574,3.7,7.019,4.3,11.115,3.429a13.739,13.739,0,0,0,1.872,14.27c4.2,5.224,11.746,7.377,18.239,6.6a16.407,16.407,0,0,0,8.38-3.275,10.616,10.616,0,0,0,10.273,7.054,10.4,10.4,0,0,0,9.4-9.2c7.51,2.272,15.49-4.572,20.329-9.614a26.979,26.979,0,0,0,6.865-11.346c1.164-4.263.961-9.1-1.431-12.924a13.618,13.618,0,0,0-6.907-5.61c4.4-2.819,8.639-6.374,10.694-11.115,2.342-5.421.989-11.605-2.658-16.107a15.217,15.217,0,0,0-5.61-4.306c5.442-4.677,6.977-13.751,3.022-19.782,5.294-2.447,10.189-6.157,12.293-11.788,2.02-5.421.267-12.131-5.147-14.8Z" transform="translate(-936.295 -281.886)" fill="#00b2e3"/>
      <path id="Trazado_8225" data-name="Trazado 8225" d="M1015.685,656.748c-2.44-15.925-5.231-31.794-7.146-47.789-2.167-11.171.631-25.294-9.123-33.351-10.785-7.756-26.38-11.241-39.269-7.587-5.294.6-5.336,6.15-6.185,10.252a246.94,246.94,0,0,0-6.844,53.133c-.512,20.427-3.913,24.775,18.877,30.861,16.051,3.415,32.516,4.109,48.862,4.789,2.966-.743.834-7.938.827-10.308Z" transform="translate(-938.381 -366.938)" fill="#010d3d"/>
      <path id="Trazado_8226" data-name="Trazado 8226" d="M1113.266,425.1c.056-.042.105-.091.161-.133a2.205,2.205,0,0,0,0-3.766,11.029,11.029,0,0,1-4.1-3.892,8.342,8.342,0,0,1-.884-2.665,7.405,7.405,0,0,1-.112-1.157c-.007-.252,0-.5.007-.743.014-.168.021-.337.035-.5.007-.084.014-.154.021-.2v.035a2.194,2.194,0,0,0-4-1.69,10.065,10.065,0,0,0-1.529,5.042c-.056.792-.119,1.6-.182,2.412-2.91-.526-5.946.694-8.31,2.56a39.664,39.664,0,0,0-4.067,3.983c-1.431,1.522-2.847,3.05-4.229,4.614a190.29,190.29,0,0,0-14.572,18.835q-1.862,2.735-3.625,5.547c-.61.982-1.185,1.992-1.851,2.938-.1.147-.21.294-.316.442a155.99,155.99,0,0,1-16.837-18.127c-1.178-1.487-2.489-3.191-3.815-5.014q-2.062-2.819-3.983-5.743-1.851-2.787-3.562-5.652c-1.2-1.992-2.216-4.649-4.362-5.8a9.7,9.7,0,0,0-4.446-.736c-.652-.021-1.311-.056-1.971-.105-.323-.028-.652-.056-.982-.091-.056-.007-.526-.063-.61-.07a34.489,34.489,0,0,1-4.909-1.031c.6-1.031,1.206-2.062,1.788-3.1a13.173,13.173,0,0,0,1.164-2.223c.2-.652.4-1.332.568-1.991a7.89,7.89,0,0,0,.189-1.15c.133,0,.273,0,.414-.007.351-.014.708-.021,1.059-.056,1.332-.119.828-.112.526-.07.414-.056.834-.105,1.248-.168a33.616,33.616,0,0,0,4.263-.9,35.836,35.836,0,0,0,8.5-3.541,39.164,39.164,0,0,0,13.127-12.237,24.853,24.853,0,0,0,3.948-8.815,15.774,15.774,0,0,0-1.276-9.326,85.708,85.708,0,0,0-4.537-8.05,39.877,39.877,0,0,1-3.8-9.67,76.649,76.649,0,0,1-2.258-12.4,91.827,91.827,0,0,1-.217-12.727.909.909,0,0,0-.5-.891c-.21.309-.428.617-.659.912-.666.856-1.388,1.662-2.132,2.447a13.469,13.469,0,0,1-.778,1.2c-.316.421-.954,1.4-1.564,1.445a.778.778,0,0,1-.708-.449,1.079,1.079,0,0,1-.14-.112c-1.739-1.634-2.307-4.123-2.44-6.423a27.388,27.388,0,0,1,0-3.128,29.263,29.263,0,0,1-2.531,6.507,17.2,17.2,0,0,1-3.913,5.322c-1.3,1.059-2.959,1.416-4.046.33a2.327,2.327,0,0,1-.785-.568,5.406,5.406,0,0,1-1.094-2.826,26.475,26.475,0,0,1-.281-3.331c-.084-.491-.168-1.01-.231-1.543a36.9,36.9,0,0,1-1.466,3.681,20.419,20.419,0,0,1-3.73,6.8,20.838,20.838,0,0,1-1.921,2.013c-.575.533-1.29,1.283-1.914.435a5.551,5.551,0,0,1-.834-2.139,20.582,20.582,0,0,1-1.157-3.492c-.126-.547-.231-1.108-.309-1.669h-.049a30.479,30.479,0,0,1-1.311,4.011c-.049.119-.105.231-.154.351a20.982,20.982,0,0,1-5.911,10.455c-.112-.189-.217-.386-.316-.582a14.284,14.284,0,0,1-1.4-4.39.829.829,0,0,0-1.1-.7c-.035.372-.07.736-.105,1.108a33.527,33.527,0,0,1-.841,5.421,31.079,31.079,0,0,1-1.83,4.74c-.056.2-.1.4-.154.6-.722,2.5-1.6,5.273-3.527,7.118a10.6,10.6,0,0,1-1-3.373c-.168-1.353.007-2.854-1.248-3.752-2.272-1.62-5.056.652-6.374,2.426a12.9,12.9,0,0,0-2.419,7.552c.014,2.588.519,6.311,3.5,7.075,1.753.456,3.387-.519,4.572-1.732a17.106,17.106,0,0,1,1.732-1.76.534.534,0,0,0,.077-.056c-.891,6.255-.54,12.8,2.2,18.548,2.861,6.024,7.924,10.568,13.534,13.983a45.651,45.651,0,0,0,5.056,2.658c.94.421,1.984.6,2.959.947.288.105.568.224.849.358a2.532,2.532,0,0,0-.484.547c-.4.659-.617,1.388-1.08,2.013-.961,1.311-1.978,2.595-3,3.864-.652.8-1.473,2.363-2.63,2.314-5.133-.224-10.2-3.766-15.4-2.006-2.833.961-4.628,3.008-6.3,5.4a40.856,40.856,0,0,0-4.018,7.531c-2.09,4.993-3.275,10.385-4.516,15.631s-2.517,10.5-4.053,15.659a96.891,96.891,0,0,1-5.477,14.7,50.01,50.01,0,0,1-4.053,6.8c-1.585,2.258-3.408,4.327-5.091,6.507a29,29,0,0,0-4.2,7.153,40.941,40.941,0,0,0-2.111,8.275c-.379,2.244-1.192,5-.2,7.188a3.069,3.069,0,0,0,.28.491c.323.077.652.161.975.231q2.735.631,5.435,1.388a122.365,122.365,0,0,0,19.354,3.941c2.574.288,5.077,1.045,7.672,1.143a5.173,5.173,0,0,0,3.464-.813c1.059-.792,1.872-1.872,2.924-2.679.512-.393,1.22.147,1.22.7,0,1.01-.3,3.247.652,3.885a4.366,4.366,0,0,0,1.276.47c.631.182,1.255.407,1.886.582,2.307.638,4.691.947,7.005,1.543a5.61,5.61,0,0,0,1.851-.245c1.732-.673,2.258-2.672,2.749-4.278a41.871,41.871,0,0,0,1.55-11.3c.084-3.941-.14-7.882.288-11.809a34.691,34.691,0,0,1,2.587-9.733c2.721-6.437,7.026-12.1,11.6-17.328a77.272,77.272,0,0,1,7.23-7.686,7.7,7.7,0,0,1,4.018-2.111c1.515-.14,2.56.912,3.359,2.076a103.614,103.614,0,0,0,6.479,8.85,65.732,65.732,0,0,0,7.8,7.7c1.346,1.122,2.945,2.833,4.782,2.973,2.005.161,3.4-1.515,4.719-2.777q4.218-4.05,8.26-8.261,8.078-8.425,15.371-17.566,3.682-4.618,7.153-9.4c.519-.708,1-1.48,1.564-2.153.133-.161.295-.295.428-.449a.158.158,0,0,1,.077-.035c.091.049.309.175.372.217.028.021.056.035.077.049.112.091.217.182.33.28.449.4.876.841,1.339,1.234a8.582,8.582,0,0,0,1.409.982,6.853,6.853,0,0,0,.295,2.791,2.728,2.728,0,0,0,1.066,1.949,2.089,2.089,0,0,0,2.517.252,1.887,1.887,0,0,0,1.22-2.693,2.242,2.242,0,0,1-.182-.5c.3-.21.687-.4,1.052-.617,1.458-.891,2.686-2.181,2.644-4a1.81,1.81,0,0,0-.042-.386,1.756,1.756,0,0,0-.049-.855c-.028-.084-.063-.533-.1-.61a1.881,1.881,0,0,0,.119-.442c.049-.091.105-.182.161-.273.028-.028.063-.07.1-.105a.5.5,0,0,0,.063-.056c.007.007.021,0,.07-.028a4,4,0,0,0,.484-.309,2.637,2.637,0,0,0,1.241-2.588,2.9,2.9,0,0,0-.848-1.62Z" transform="translate(-941.015 -294.158)" fill="#fff"/>
      <path id="Trazado_8227" data-name="Trazado 8227" d="M1184.351,366.466c-1.676-4.853-4.172-9.607-8.885-12.089a15.853,15.853,0,0,0-13.625-.687,16.413,16.413,0,0,0-9.284,10.21,46.61,46.61,0,0,0-1.487,8.688c-.308,2.8-.519,5.624-.6,8.443a52.991,52.991,0,0,0,1.823,16.7c1.571,5.259,4.284,10.939,9.958,12.447a9.129,9.129,0,0,0,3.429.21,16.279,16.279,0,0,0,6.7-1.76c4.705-2.328,8.057-6.767,10.266-11.416A40.9,40.9,0,0,0,1184.351,366.466Z" transform="translate(-999.268 -302.973)" fill="#fff" opacity="0.5"/>
      <path id="Trazado_8228" data-name="Trazado 8228" d="M1043.96,453.042a1.154,1.154,0,0,0-1.29.526,7.884,7.884,0,0,1-2.7,2.567,2.7,2.7,0,0,0-.855.344,2.287,2.287,0,0,0-.645.126,9.344,9.344,0,0,0-2.167,1.129,3.672,3.672,0,0,0-.393.126l-.056-.056a2.975,2.975,0,0,1-.456-.891,24.557,24.557,0,0,1-.863-2.3,23.141,23.141,0,0,1-1-4.93,1.131,1.131,0,0,0-1.087-1.087c-.9-.112-1.788-.21-2.686-.309s-1.311,1-.954,1.662a26.509,26.509,0,0,1,1.613,3.857,50.2,50.2,0,0,0,2.468,9.039,72.125,72.125,0,0,0,6.15,12.454.975.975,0,0,0,1.669,0,41.28,41.28,0,0,0,3.92-11.844c.365-2.048.638-4.116.912-6.178.217-1.662.266-3.555-1.585-4.242Z" transform="translate(-962.89 -331.599)" fill="#f9d0dd"/>
      <path id="Trazado_8229" data-name="Trazado 8229" d="M1172.482,452.588l-.821-2.482a4.6,4.6,0,0,0-1.683-2.791,1,1,0,0,0-.54-.6.911.911,0,0,0-1.15.379,20.951,20.951,0,0,0-1.017,2.707c-.126.435-.252.87-.358,1.3-.056.231-.105.456-.14.694a2.425,2.425,0,0,0-.07,1.024,1.762,1.762,0,0,0,1.374,1.024,4.452,4.452,0,0,0,1.494,0,.253.253,0,0,0,.077-.014,1.191,1.191,0,0,0,.7-.077h.2c.014,0,.042.014.091.021.049.154.105.3.161.449a1.056,1.056,0,0,0,2.034,0,1.952,1.952,0,0,0-.358-1.62Z" transform="translate(-1004.116 -331.11)" fill="#64d8cc"/>
      <path id="Trazado_8230" data-name="Trazado 8230" d="M1171.913,485.783a2,2,0,0,0-.2-.512,1.973,1.973,0,0,0-.329-.435,1.632,1.632,0,0,0-.435-.323,1.758,1.758,0,0,0-.792-.21,1.555,1.555,0,0,0-.484.084c-.049-.014-.091-.035-.14-.049a2.054,2.054,0,0,0-2.335.715,1.618,1.618,0,0,0-.168,1.157,1.724,1.724,0,0,0,.217.554,2.736,2.736,0,0,0,.575.694,2.946,2.946,0,0,0,1.031.617,2.5,2.5,0,0,0,.814.154,2.326,2.326,0,0,0,1.732-.645,2.083,2.083,0,0,0,.344-.442,1.9,1.9,0,0,0,.224-.806,1.837,1.837,0,0,0-.056-.554Z" transform="translate(-1004.213 -342.343)" fill="#64d8cc"/>
      <path id="Trazado_8231" data-name="Trazado 8231" d="M1172.066,353.648c7.615,3.015,11.164,12.068,12.377,19.572a54.236,54.236,0,0,1,.365,13.9,40.42,40.42,0,0,1-3.184,12.573,23.969,23.969,0,0,1-3.38,5.561,16.287,16.287,0,0,1-2.076,2.1,11.887,11.887,0,0,0-2.083,1.984.29.29,0,0,0,.245.435c1.8-.175,3.24-1.676,4.4-2.966a23.29,23.29,0,0,0,3.331-4.937,39.67,39.67,0,0,0,3.752-12.875,49.684,49.684,0,0,0-.21-14.347,38.669,38.669,0,0,0-4.123-12.755,18.491,18.491,0,0,0-9.319-8.583c-.217-.084-.309.266-.1.351h0Z" transform="translate(-1005.691 -303.22)" fill="#999eb1"/>
      <path id="Trazado_8232" data-name="Trazado 8232" d="M1005.615,356.265a4.179,4.179,0,0,0-1.136-3.8,5.592,5.592,0,0,0-3.906-1.543c-3.345,0-5.6,2.742-6.718,5.61a16.581,16.581,0,0,0-.631,9.93c.582,2.258,1.774,4.881,4.053,5.841,3.156,1.325,5.792-1.129,7.608-3.436l-1.585-.919a32.086,32.086,0,0,0,5.35,26.465,30.845,30.845,0,0,0,10.855,9.277,34.668,34.668,0,0,0,14.922,3.6c10.315.147,20.9-3.583,28.253-10.967a25.029,25.029,0,0,0,7.307-13.8,13.536,13.536,0,0,0,.217-2.062c-.007-.687-.168-1.381-.21-2.069a27.734,27.734,0,0,0-.449-4.025,22.312,22.312,0,0,0-3.107-7.307c-1.41-2.237-3.156-4.53-4.53-6.935a23.465,23.465,0,0,1-2.588-7.77c-.238-1.374-.386-2.77-.5-4.158s-.07-2.791-.154-4.186c-.2-3.135-.295-6.29-.645-9.418-.175-1.613-.442-3.212-.715-4.81s-2.623-1.115-2.651.358a85.186,85.186,0,0,0,.365,9.074l.4,4.453c.119,1.367.372,2.714.512,4.074.54,5.2,1.431,10.792,4.691,15.056a67.707,67.707,0,0,1,4.747,6.283,15.215,15.215,0,0,1,1.921,7.335,12.921,12.921,0,0,1-.014,1.879,14.621,14.621,0,0,1-.428,1.718c-.294,1.234-.512,2.454-.919,3.653a25.582,25.582,0,0,1-3.254,6.4,32.921,32.921,0,0,1-23.716,13.485,31.8,31.8,0,0,1-25.23-8.464c-6.15-6-10.119-14.768-9.179-23.442a25.879,25.879,0,0,1,.575-3.2.953.953,0,0,0-1.732-.729c-1.346,1.746-3.9,4.516-6.094,2.293-1.851-1.879-1.564-4.775-1.255-7.16s1-5.631,3.036-7.216a2.842,2.842,0,0,1,1.192-.575c-.337.07.4,0,.5,0-.351-.021.238.049.288.063a7.518,7.518,0,0,1,.8.238c-.4-.161.491.323.175.105a2.528,2.528,0,0,1,.6.5c-.084-.119.133.266.14.294.4,1.248,2.6,1.543,2.84,0h0Z" transform="translate(-952.153 -295.9)" fill="#010d3d"/>
      <path id="Trazado_8233" data-name="Trazado 8233" d="M1041.05,437.524c-2.125,2.945-4.271,5.862-6.493,8.737a2.465,2.465,0,0,0-.673,2.1,21.336,21.336,0,0,0,.722,2.489,35.894,35.894,0,0,0,1.893,4.768.948.948,0,0,0,1.269.337,29.948,29.948,0,0,0,4.348-2.882,11.75,11.75,0,0,0,3.1-4.467,37.4,37.4,0,0,1,2.819-5.084,27.309,27.309,0,0,1,1.83-2.391,23,23,0,0,0,2.019-2.461c.835-1.36-1.178-3.008-2.258-1.746a38.992,38.992,0,0,0-2.994,4.867,49.145,49.145,0,0,0-2.861,5.063,14.565,14.565,0,0,1-2.714,4.586,19.753,19.753,0,0,1-4.235,2.91l1.367.554c-.512-1.417-.961-2.875-1.388-4.327a10.491,10.491,0,0,1-.568-2.2,1.372,1.372,0,0,1,.309-1l.624-1.024c1.669-2.728,3.429-5.392,5.2-8.057.547-.827-.757-1.557-1.318-.771h0Z" transform="translate(-964.433 -328.072)" fill="#010d3d"/>
      <path id="Trazado_8234" data-name="Trazado 8234" d="M1011.242,446.348c-2.728.582-5.392-.386-8.022-1.01a14.473,14.473,0,0,0-7.44-.14c-4.846,1.416-8.141,5.5-10.238,9.894a58.4,58.4,0,0,0-2.854,7.833q-.684,2.188-1.332,4.4c-.435,1.473-.989,2.854-1.417,4.313-1.753,6.024-3.513,12.047-5.2,18.092-1.48,5.294-2.882,10.778-5.715,15.539s-6.865,8.036-9.481,12.65a37,37,0,0,0-3.1,7.791c-.87,2.938-1.676,5.9-2.51,8.843a21.194,21.194,0,0,0-1,4.4,3.383,3.383,0,0,0,1.536,3.008c1.992,1.48,4.705,1.9,7.054,2.546a124.928,124.928,0,0,0,17.538,3.759,55.065,55.065,0,0,0,8.99.442,27.1,27.1,0,0,0,4.334-.365,3.476,3.476,0,0,0,1.4-.884c.554-.449,1.087-.926,1.592-1.424a24.569,24.569,0,0,0,2.595-3.064c.617-.855-.813-1.69-1.417-.827a20.935,20.935,0,0,1-2.524,2.98c-.435.428-.891.835-1.36,1.227a4.055,4.055,0,0,1-2.454.68,50.832,50.832,0,0,1-8.331-.021,83.675,83.675,0,0,1-16.942-3.436c-2.574-.764-5.224-1.431-7.742-2.37-.9-.337-1.69-.729-1.655-1.8a6.987,6.987,0,0,1,.512-1.907c.238-.715.449-1.445.659-2.174.8-2.742,1.592-5.484,2.412-8.211a37.3,37.3,0,0,1,2.861-7.4c2.412-4.369,6.185-7.8,9.074-11.844,3.113-4.355,4.789-9.495,6.206-14.6,1.55-5.582,3.015-11.185,4.481-16.795l1.1-4.214c.386-1.466.617-2.959,1-4.425.68-2.63,1.269-5.287,2.055-7.889,1.4-4.649,3.646-9.242,8.008-11.76a10.423,10.423,0,0,1,6.662-1.325c2.539.323,4.979,1.15,7.531,1.36a11.56,11.56,0,0,0,3.576-.238c1.066-.252.61-1.858-.449-1.634h0Z" transform="translate(-940.257 -330.55)" fill="#010d3d"/>
      <path id="Trazado_8235" data-name="Trazado 8235" d="M1014.436,569.682c-.316,1.816-.7,3.829-.063,5.61a5.794,5.794,0,0,0,4.242,3.59,55.59,55.59,0,0,0,6.9,1.073c.912.112,2.146.477,3.015.042,1-.5,1.15-1.669,1.388-2.644a114.046,114.046,0,0,0,2.959-14.452c.547-4.8.61-9.663,1.346-14.453a33.255,33.255,0,0,1,1.739-6.823,18.91,18.91,0,0,1,1.438-2.931,14.536,14.536,0,0,0,1.858-3.226c.358-1.227-.94-1.893-1.922-1.473-1.725.729-2.819,2.917-3.625,4.523a26.627,26.627,0,0,0-2.034,5.5,41.842,41.842,0,0,0-.954,6.038c-.21,2.258-.1,4.495-.154,6.753s-.091,4.509-.266,6.76-.54,4.453-.919,6.669-.807,4.411-1.311,6.6c-.07.3-.14,1.311-.379,1.48-.119.084-.883-.168-1.073-.2-1.171-.224-2.342-.421-3.52-.61-1.858-.309-4.607-.344-5.989-1.823-1.29-1.381-1.08-3.773-.834-5.484.168-1.185-1.627-1.732-1.837-.5h0Z" transform="translate(-958.513 -357.17)" fill="#010d3d"/>
      <path id="Trazado_8236" data-name="Trazado 8236" d="M1026.116,448.23c2.307,2.3,2.784,5.554,2.952,8.667.091,1.711.084,3.422.224,5.133s.407,3.3.7,4.93a93.787,93.787,0,0,1,1.508,20.679.828.828,0,0,0,1.031.785c2.034-.323,3.4-1.977,4.362-3.681,1.276-2.265,2.3-4.712,3.373-7.075a67.93,67.93,0,0,0,5.28-15.273,37.731,37.731,0,0,0,.631-9.186c-.063-1.094-1.767-1.1-1.711,0,.337,6.507-1.339,12.9-3.653,18.919-1.171,3.036-2.517,6-3.892,8.948-1.01,2.153-2.118,5.357-4.818,5.771l1.031.785a93.887,93.887,0,0,0-1.676-21.43,44.611,44.611,0,0,1-.694-5.54c-.1-1.865-.077-3.653-.3-5.47a12.557,12.557,0,0,0-3.478-7.826c-.568-.533-1.417.309-.863.863h0Z" transform="translate(-962.073 -331.275)" fill="#010d3d"/>
      <path id="Trazado_8237" data-name="Trazado 8237" d="M1028.142,469.094c3.6-.084,5.968-3.029,7.84-5.75h-1.3c.841,1.949,1.76,3.948,3.513,5.245a5.616,5.616,0,0,0,2.574,1.073c1,.133,2.013,0,3.008.119.435.049.54-.5.323-.771a2.577,2.577,0,0,0-2.153-.8,4.612,4.612,0,0,1-2.672-.736c-1.669-1.136-2.5-3.1-3.282-4.881-.246-.561-1.017-.414-1.3,0-1.578,2.335-3.415,5.126-6.535,5.245a.631.631,0,0,0,0,1.262h0Z" transform="translate(-962.549 -335.765)" fill="#010d3d"/>
      <path id="Trazado_8238" data-name="Trazado 8238" d="M1049.269,455.052l5.238,1.22a20,20,0,0,0,4.8.757,1.777,1.777,0,0,1,1.753.919c.519.7,1.031,1.459,1.55,2.181s1.038,1.452,1.543,2.188a11.626,11.626,0,0,0,1.557,2.118,1.114,1.114,0,0,0,1.739-1.346,13.548,13.548,0,0,0-1.655-2.314c-.547-.743-1.122-1.536-1.683-2.3-.947-1.3-1.823-3.057-3.541-3.387a15.83,15.83,0,0,0-2.307-.049,18.576,18.576,0,0,1-2.763-.5l-5.764-1.213c-1.129-.238-1.62,1.48-.484,1.746h0Z" transform="translate(-968.845 -333.098)" fill="#010d3d"/>
      <path id="Trazado_8239" data-name="Trazado 8239" d="M1071.332,466.578c5.792,10.3,13.253,19.494,20.694,28.624a26.788,26.788,0,0,0,6.6,6.353,1.022,1.022,0,0,0,1.066,0,27.916,27.916,0,0,0,5.645-6.024c1.935-2.665,3.661-5.512,5.484-8.254s3.59-5.449,5.379-8.176c1.823-2.77,3.667-5.547,5.28-8.443l-1.381.561a31.547,31.547,0,0,1,11.353,4.236l-.4-1.529c-6.472,10.708-14.733,20.034-23.155,29.235-2.139,2.335-4.263,4.712-6.507,6.956q-1.62,1.63-3.254,3.247c-.308.309-.757.9-1.22.975a2.115,2.115,0,0,1-1.318-.491,36.807,36.807,0,0,1-6.1-5.035c-1.879-1.816-3.8-3.752-5.68-5.645a72.826,72.826,0,0,0-6.62-5.947,32.44,32.44,0,0,0-7.735-4.8c-1.388-.561-2.23,1.648-1,2.37a40.414,40.414,0,0,1,6.62,4.726c2.027,1.837,3.878,3.857,5.757,5.855,3.815,4.046,7.672,8.113,12.335,11.213a5.792,5.792,0,0,0,4.656,1.185c1.5-.414,2.476-1.711,3.457-2.819,2.174-2.461,4.4-4.874,6.62-7.286,4.376-4.761,8.611-9.614,12.594-14.712a177.887,177.887,0,0,0,12.475-17.9,1.133,1.133,0,0,0-.4-1.529,51.169,51.169,0,0,0-11.83-4.663,1.275,1.275,0,0,0-1.381.561c-3.864,5.021-7.223,10.491-10.68,15.8l-5.154,7.91c-1.529,2.349-2.608,4.853-4.909,6.606h1.066a23.35,23.35,0,0,1-5.757-5.385q-2.777-3.313-5.512-6.662c-3.619-4.432-7.153-8.941-10.427-13.639q-2.808-4.029-5.287-8.275a.8.8,0,0,0-1.375.806h0Z" transform="translate(-974.597 -336.714)" fill="#010d3d"/>
      <g id="Grupo_4783" data-name="Grupo 4783" transform="translate(54.312 88.224)">
        <path id="Trazado_8240" data-name="Trazado 8240" d="M1078.248,424.123a2.653,2.653,0,0,0-1.136-.961,4.845,4.845,0,0,1,.512-1.872c.519-1,1.3-1.851.891-3.064a2.541,2.541,0,0,0-2.791-1.508c.049-1.171.063-2.335.077-3.513a1.388,1.388,0,0,0-1.739-1.325,21.406,21.406,0,0,0-13.906,12.559,19.027,19.027,0,0,0-.694,2.139,1.806,1.806,0,0,0-.582-.133c-2.1-.126-2.861,2.384-1.893,3.808a1.807,1.807,0,0,0,.028.274,1.581,1.581,0,0,0,.337.687c.323,2.973.6,5.939.877,8.913a9.581,9.581,0,0,1,.063,2.37,14.814,14.814,0,0,1-.813,2.5c-.547,1.557-1.01,3.142-1.43,4.733-1.753,6.543-3.464,13.071-5.484,19.536q-1.42,4.555-2.91,9.088a39.5,39.5,0,0,1-11.963-10.82,15.2,15.2,0,0,1-2.132-3.773c-.533-1.487-1.367-2.875-2.005-4.327-1.206-2.763-2.2-5.6-3.457-8.345a31.113,31.113,0,0,0-2.251-4.109,8.239,8.239,0,0,0-3.029-4.895,5.141,5.141,0,0,0-6.676.715c-1.9,1.865-2.791,4.607-3.331,7.146a30.26,30.26,0,0,0-.253,9.411,17.406,17.406,0,0,0,.947,4.39,41.346,41.346,0,0,0,1.8,4.172,51.884,51.884,0,0,0,4.677,7.573,128.8,128.8,0,0,0,11.942,13.688c2.111,2.146,4.284,4.235,6.472,6.3,2.16,2.062,4.256,4.264,6.585,6.129a12.089,12.089,0,0,0,3.492,2.076c1.024.358,2.973.813,3.737-.2a11.538,11.538,0,0,0,1.038-2.005c.358-.722.694-1.459,1.038-2.188.666-1.4,1.276-2.826,1.858-4.264a189.606,189.606,0,0,0,6-18.19c1.837-6.339,3.71-12.678,5.091-19.137a139.547,139.547,0,0,0,2.875-19.5c.091-1.3-.133-2.644.792-3.653,1.087-1.2,2.237-2.349,3.352-3.527,1.073-1.143,2.356-2.111,3.38-3.3a2.986,2.986,0,0,0,.617-3.6Z" transform="translate(-1012.312 -408.933)" fill="#fff"/>
        <path id="Trazado_8241" data-name="Trazado 8241" d="M1028.148,457.051c.533,1.409,1.185,2.826,1.585,4.284.2.736.245,1.5.477,2.23s.526,1.43.813,2.132c1.143,2.84,2.363,5.652,3.717,8.394a54.33,54.33,0,0,0,9.439,13.765,36.237,36.237,0,0,0,3.457,3.1c.575.456,1.192.827,1.8,1.248a2.531,2.531,0,0,0,1.992.652.651.651,0,0,0,.449-.785,2.207,2.207,0,0,0-.919-1.36c-.519-.435-.961-.947-1.444-1.409-.947-.9-1.858-1.823-2.721-2.812a71.942,71.942,0,0,1-4.818-6.087,88.925,88.925,0,0,1-7.994-14.7,29.34,29.34,0,0,0-2.146-4.369,26.43,26.43,0,0,1-2.076-4.712c-.386-.975-1.984-.568-1.6.442h0Z" transform="translate(-1017.028 -422.149)" fill="#010d3d"/>
        <path id="Trazado_8242" data-name="Trazado 8242" d="M1047.547,496.178c.645-1.725,1.3-3.457,1.984-5.168s1.234-3.457,1.781-5.224c1.087-3.506,2.335-6.984,3.3-10.526,1.914-7.089,3.4-14.319,5.035-21.472l-1.262.715c4.116,1.2,8.183,2.574,12.272,3.864l-.828-1.08c-.8,7.994-4.088,15.518-6.059,23.246-1.017,3.976-1.564,8.078-2.791,12s-3.085,7.924-4.642,11.872c-.785,1.992-1.529,3.969-2.209,6-.33.982-.736,1.935-1.08,2.917a7.245,7.245,0,0,1-.813,2.237c-1.031,1.255-3.086-.294-4.039-.94-1.508-1.017-2.987-2.076-4.425-3.191a103.584,103.584,0,0,1-15.806-15.154,96.707,96.707,0,0,1-7.307-9.951,34.932,34.932,0,0,1-5.028-11.83c-.105-.5-.771-.323-.82.112-.484,4.06,1.332,7.8,3.331,11.22a92.5,92.5,0,0,0,6.62,9.733,99.591,99.591,0,0,0,16.1,16.682c1.5,1.22,3.036,2.391,4.593,3.548s3.127,2.426,5.035,2.826c4.789,1,6-4.39,7.622-7.657,1.024-2.062,1.809-4.271,2.644-6.416s1.606-4.151,2.391-6.234a54.585,54.585,0,0,0,2.041-6.36c.526-2.167.863-4.263,1.227-6.409,1.606-9.481,4.88-18.639,5.666-28.26a1.13,1.13,0,0,0-.828-1.08c-4.109-1.22-8.246-2.37-12.321-3.681a1.035,1.035,0,0,0-1.262.715q-1.378,5.333-2.875,10.638c-1,3.534-2.146,7.026-3.135,10.568s-1.739,7.139-2.707,10.687c-.484,1.781-.975,3.541-1.339,5.35s-.778,3.6-1.213,5.379a.6.6,0,0,0,1.157.316h0Z" transform="translate(-1013.034 -421.074)" fill="#010d3d"/>
        <path id="Trazado_8243" data-name="Trazado 8243" d="M1078.206,447.9a54.476,54.476,0,0,1-1.108-6.115c-.112-.989-.2-1.977-.274-2.973-.035-.533-.063-1.073-.091-1.606a1.88,1.88,0,0,0-.435-1.487.813.813,0,0,0-1.136,0c-.68.785-.295,2.132-.189,3.092.112,1.073.259,2.139.421,3.2.33,2.118.743,4.221,1.269,6.3a.8.8,0,0,0,1.536-.421h0Z" transform="translate(-1030.972 -416.001)" fill="#010d3d"/>
        <path id="Trazado_8244" data-name="Trazado 8244" d="M1079.215,427.1a9.535,9.535,0,0,1,.126-2.048c.154-.547.484-1.213.694-1.746.267-.68.6-1.318.828-2.027a7.383,7.383,0,0,1,.575-1.374c1.22-2.153,3.52-3.506,5.5-4.86,2.181-1.48,4.607-3.247,7.195-3.92.414-.105.729-.049,1.094-.161.189-.056.252.007.105-.014-.3-.049.182-.568-.168.063s-.631,1.36-.954,2.02c-.147.3-.3.6-.435.912-.189.428-.224.891-.428,1.3a1.183,1.183,0,0,0,1.606,1.606c.484-.28,1.458-.926,2.055-.673.561.238.238,1.052.035,1.445a15.732,15.732,0,0,1-1.381,1.893,4.94,4.94,0,0,0-.947,2.51c-.112,1.255,1.669,1.564,2.251.61.014-.021-.175-.084.126-.042a1.016,1.016,0,0,1,.316.091.813.813,0,0,1,.379.813,5.981,5.981,0,0,1-1.515,3.17,12.441,12.441,0,0,1-2.475,2.454c-.449.337-.933.61-1.41.9-.5.3-.9.708-1.381,1.052a5.2,5.2,0,0,0-2.111,2.574,18.45,18.45,0,0,0-.582,3.773c-.091.933-.14,1.865-.231,2.8a14.491,14.491,0,0,0-.161,3.436.915.915,0,0,0,1.655.217,11.311,11.311,0,0,0,.736-4.081c.084-1.143.175-2.279.33-3.415a6.858,6.858,0,0,1,.533-2.433,2.62,2.62,0,0,1,1.585-1.045,9.549,9.549,0,0,0,3.6-2.3c1.964-1.8,4.383-4.874,3.913-7.721a3.158,3.158,0,0,0-2.265-2.6,2.653,2.653,0,0,0-3.12,1.136l2.251.61c.084-1.164,1.262-2.055,1.809-3.015a4.2,4.2,0,0,0,.575-3.135c-.757-2.784-3.878-2.132-5.75-1.052l1.606,1.606c.323-.652.807-1.206,1.136-1.865.351-.694.708-1.381,1.052-2.083a3.115,3.115,0,0,0-.049-3.457c-1.634-2.041-4.467-1.325-6.521-.5a42.827,42.827,0,0,0-7.384,4.13,16.736,16.736,0,0,0-5.7,5.35,10.979,10.979,0,0,0-.947,2.188,6,6,0,0,0-.154,2.468,11.233,11.233,0,0,0,.386,2.1,10.672,10.672,0,0,1,.161,2.328.93.93,0,0,0,1.858,0h0Z" transform="translate(-1031.567 -407.698)" fill="#010d3d"/>
      </g>
      <path id="Trazado_8245" data-name="Trazado 8245" d="M1145.9,467.51c1.059-1.494,2.153-2.966,3.2-4.467a8.324,8.324,0,0,1,3.45-3.177,23.473,23.473,0,0,1,4.586-1.3,45.432,45.432,0,0,1,5.406-.87c.82-.077,1.515-.112,1.984.659a6.961,6.961,0,0,1,.708,2.146,9.238,9.238,0,0,1,.077,4.586c-.337,1.073-1.739,2.5-2.868,1.438a4.918,4.918,0,0,1-.884-1.55,6.371,6.371,0,0,0-.982-1.55.965.965,0,0,0-1.606.428c-.421,2.132-2.083,3.064-4.074,3.387-1.1.175-.687,1.69.245,1.8,2.672.3,5.2-2.181,5.687-4.663l-1.606.428c.813.9,1.031,2.181,1.928,3.029a3.206,3.206,0,0,0,3.387.568c2.959-1.164,3.036-4.747,2.644-7.419a8.428,8.428,0,0,0-1.458-4.137c-1.08-1.276-2.686-1.087-4.186-.919a34.757,34.757,0,0,0-10,2.216,8.828,8.828,0,0,0-3.7,3.331c-1.157,1.711-2.209,3.5-3.317,5.245-.561.877.793,1.627,1.374.806h0Z" transform="translate(-997.46 -333.845)" fill="#010d3d"/>
      <path id="Trazado_8246" data-name="Trazado 8246" d="M1172.789,461.587c.729.028,2.062.021,2.419.834a1.21,1.21,0,0,1-.414,1.332c-.456.407-1.024.316-1.6.4-1.269.182-1.227,2.3,0,2.517.463.084,2.167.252,2.013,1.059a3.672,3.672,0,0,1-1.914,1.452c-1.164.028-2.1,1.676-1.045,2.524a3.5,3.5,0,0,0,.919.547c.161.063.266.042.365.189.182.281,0,.792-.161,1.031-.708,1-2.559,1.185-3.66,1.4a6.176,6.176,0,0,1-4.039-.252,1.618,1.618,0,0,1-.912-1.164.812.812,0,0,1,.61-.9c1.192-.273.764-1.83-.266-1.963-.533-.07-.133-.6.14-.659,1.241-.3.715-2.223-.526-1.914a2.323,2.323,0,0,0,.126,4.544V470.64c-1.921.358-2.644,2.714-1.8,4.313,1.066,2.027,3.675,2.679,5.785,2.468s4.614-.7,6.1-2.237a3.2,3.2,0,0,0-.47-5.028l.428.428a1.055,1.055,0,0,1-.161-.323l-.379,1.438c.575-.729,1.487-1.185,2.111-1.9a3.211,3.211,0,0,0,.926-2.181c-.049-1.928-1.921-2.9-3.485-3.471v2.517c1.7-.659,3.6-2.51,3.079-4.516-.484-1.872-2.525-2.23-4.18-2.258a.845.845,0,0,0,0,1.69h0Z" transform="translate(-1002.929 -335.067)" fill="#010d3d"/>
      <path id="Trazado_8247" data-name="Trazado 8247" d="M1160.737,479.65a.035.035,0,0,0,0-.07.035.035,0,0,0,0,.07Z" transform="translate(-1002.335 -340.95)" fill="#010d3d"/>
      <path id="Trazado_8248" data-name="Trazado 8248" d="M1162.582,479.173l-.568-.189a5.417,5.417,0,0,0-.582-.14.616.616,0,0,0-.372.028.556.556,0,0,0-.273.231.677.677,0,0,0-.077.288.562.562,0,0,0,.168.4,5.344,5.344,0,0,0,.582.47l.512.351a.8.8,0,0,0,.961-.126.54.54,0,0,0,.161-.252.683.683,0,0,0,0-.6.6.6,0,0,0-.161-.252.772.772,0,0,0-.351-.2Z" transform="translate(-1002.336 -340.725)" fill="#010d3d"/>
      <path id="Trazado_8249" data-name="Trazado 8249" d="M1164.97,482.908c-.323,2.006.154,4.418,1.977,5.61a4.056,4.056,0,0,0,3.008.547,3.548,3.548,0,0,0,1.346-.631,4.436,4.436,0,0,0,.61-.533c.063-.07.119-.14.182-.21.084-.105.168-.21.246-.323.021-.028.126-.2.042-.063s0,0,.014-.021c.091-.126.189-.238.281-.365a2.227,2.227,0,0,0,.2-.323,6.145,6.145,0,0,0,.379-1c.084-.288.14-.582.2-.87.028-.126.049-.252.07-.386a1.769,1.769,0,0,0-.182-1.255,1.384,1.384,0,0,0-1.2-.687,1.439,1.439,0,0,0-1.2.687,2.413,2.413,0,0,0-.259,1.374,1.364,1.364,0,0,1-.028.337c.077-.358-.028.126-.042.189-.056.252-.133.491-.2.736-.035.119-.07.238-.112.351-.077.217.126-.154-.042.042-.035.049-.07.105-.105.154.1-.119.1-.126.014-.021-.063.07-.126.14-.189.2s-.358.28-.112.112c-.105.07-.21.126-.315.2-.2.126.182-.042-.056.028-.084.021-.266.119-.351.091.161-.014.168-.021.035,0h-.091a3.047,3.047,0,0,1-.358,0c.288.014-.028-.007-.105-.028-.105-.021-.2-.063-.309-.091s-.112-.042.007.014c-.056-.028-.112-.049-.168-.077-.084-.042-.161-.091-.245-.133a1.659,1.659,0,0,1-.8-.715,2.41,2.41,0,0,1-.147-.259c-.028-.056-.063-.119-.091-.182.028.07.021.049-.021-.056a3.822,3.822,0,0,1-.182-.687c.014.1-.021-.224-.021-.266,0-.105-.007-.2-.007-.309a3.937,3.937,0,0,1,.014-.407,1.979,1.979,0,0,1,.021-.2c.014-.112.014-.133.007-.063a.936.936,0,0,0-.631-1.115.915.915,0,0,0-1.115.631h0Z" transform="translate(-1003.581 -341.754)" fill="#010d3d"/>
      <path id="Trazado_8250" data-name="Trazado 8250" d="M1165.628,452.9a8.3,8.3,0,0,1,.147-2.5,19.473,19.473,0,0,1,.617-2.6,2.866,2.866,0,0,1,1.017-1.6,6.876,6.876,0,0,1,1.865-.8l-1.045-.273a13.048,13.048,0,0,1,2.517,4.839,13.594,13.594,0,0,1,.491,2.651,19.308,19.308,0,0,0,.147,2.924.864.864,0,0,0,1.564.2,6.133,6.133,0,0,0,.294-3.128,16.637,16.637,0,0,0-3.338-8.78,1.109,1.109,0,0,0-1.206-.491,8.644,8.644,0,0,0-2.573,1,4.678,4.678,0,0,0-1.865,2.489,14.971,14.971,0,0,0-.771,3.268,10.278,10.278,0,0,0,.238,3.331.986.986,0,1,0,1.9-.526h0Z" transform="translate(-1003.152 -330.116)" fill="#010d3d"/>
      <path id="Trazado_8251" data-name="Trazado 8251" d="M1166.883,440.935c-.2-.014.056,0,.07.014-.021-.014-.112-.021-.14-.035a.675.675,0,0,1-.14-.049s.2.105.056.021c-.042-.028-.084-.049-.126-.077-.189-.105.049.035.042.035s-.112-.105-.133-.126c-.147-.161.021-.028.007.021,0,0-.063-.105-.077-.126-.105-.161.028.028.014.056.028-.056-.1-.224-.077-.294-.035.105.014.182.021.056v-.154c-.007,0-.049.224,0,.056,0-.007.063-.224.063-.224s-.126.224-.014.042c.028-.042.049-.091.077-.133.084-.14-.028.021-.028.035a.647.647,0,0,1,.1-.1,1.174,1.174,0,0,0,.1-.091c.021.063-.189.119-.056.049.035-.021.077-.042.112-.063.182-.112-.217.063-.014,0,.084-.021.168-.049.252-.07.133-.035,0,.056-.084.007a.775.775,0,0,0,.133-.014h.273a.929.929,0,0,1,.14.007c.2.014-.168-.035-.035,0,.2.042.4.084.6.147.091.028.182.063.274.1s.14.007-.049-.021a.732.732,0,0,1,.168.077,4.425,4.425,0,0,1,.505.28l.252.168c.119.077-.133-.119-.028-.021.056.049.112.1.168.154a.745.745,0,0,0,.105.105c.105.091-.1-.154-.028-.035a1.106,1.106,0,0,1,.077.119c.021.042.063.175.028.035s-.007.014,0,.049c.056.126,0-.2,0-.056,0,.049.035.189.014.049-.028-.161.021.063-.028.084.028-.014.091-.168.014-.035-.028.042-.049.084-.077.133-.105.189.014-.042.028-.028s-.1.1-.105.112c-.133.147.028,0,.042-.021a.644.644,0,0,1-.161.105,1.48,1.48,0,0,1-.147.077c-.119.063-.126.07,0,0-.154.084-.337.14-.5.217-.182.091,0,0,.035-.014-.112.056-.231.084-.344.14a1.1,1.1,0,0,0-.456,1.522c.519.841,1.676.519,2.349.063a2.726,2.726,0,0,0,1.276-3.043,3.821,3.821,0,0,0-2.132-2.048,4.688,4.688,0,0,0-2.945-.449,2.708,2.708,0,0,0,.512,5.35,1.1,1.1,0,0,0,1.094-1.094,1.123,1.123,0,0,0-1.094-1.094h0Z" transform="translate(-1003.39 -328.426)" fill="#010d3d"/>
      <path id="Trazado_8252" data-name="Trazado 8252" d="M1160.316,346.914c-1.837.316-3.625-.245-5.456-.351a15.446,15.446,0,0,0-4.642.463,20.653,20.653,0,0,0-7.826,4.137c-5.056,4.144-7.847,10.238-9.558,16.409a75.74,75.74,0,0,0-2.09,10.3,34.693,34.693,0,0,0,.063,10.736,28.5,28.5,0,0,0,3.738,9.326,45.885,45.885,0,0,0,6.073,8.141c4.32,4.5,10.568,6.192,16.682,5.673a30.4,30.4,0,0,0,9.018-2.069c3.3-1.36,5.771-4.067,8.155-6.634a32.883,32.883,0,0,0,5.715-8.1,33.268,33.268,0,0,0,2.938-9.509,48.6,48.6,0,0,0-1.928-21.149,28.2,28.2,0,0,0-4.446-9.383,23.428,23.428,0,0,0-6.634-5.82c-5.6-3.156-12.236-4.425-18.456-2.419a18.346,18.346,0,0,0-4.3,1.97c-.82.519-.3,2.048.694,1.655,5.5-2.188,11.676-2.749,17.2-.323a19.521,19.521,0,0,1,6.339,4.614,24.13,24.13,0,0,1,4.264,7.132c4.8,11.451,5.568,24.789-1.269,35.6a40.684,40.684,0,0,1-6.031,6.956c-2.146,2.125-5.021,2.952-7.91,3.59-5.063,1.122-10.792,1.059-15.28-1.809-2.51-1.606-4.383-4.109-6.108-6.493a35.136,35.136,0,0,1-4.495-7.938c-2.363-6.276-1.858-12.917-.491-19.354,1.248-5.855,3.177-11.879,7.209-16.451a20.222,20.222,0,0,1,6.444-4.958,18.393,18.393,0,0,1,8.085-1.515,22.5,22.5,0,0,0,4.846-.491c1.283-.28.722-2.167-.54-1.949h0Z" transform="translate(-993.268 -300.952)" fill="#010d3d"/>
      <path id="Trazado_8253" data-name="Trazado 8253" d="M1173.27,350.73a1.045,1.045,0,0,0,0-2.09,1.045,1.045,0,0,0,0,2.09Z" transform="translate(-1005.787 -301.83)" fill="#010d3d"/>
      <path id="Trazado_8254" data-name="Trazado 8254" d="M1172.165,351.665a16.329,16.329,0,0,0-16.577,3.38,18.865,18.865,0,0,0-4.825,6.837,37.762,37.762,0,0,0-2.23,9.705,74.784,74.784,0,0,0,.252,20.75,23.625,23.625,0,0,0,3.2,9.39c1.585,2.524,3.317,5.364,5.82,7.075a12.2,12.2,0,0,0,9.025,1.5,20.784,20.784,0,0,0,9.614-4.481.5.5,0,0,0-.477-.827c-2.77.87-5.2,2.5-8.008,3.289a11.737,11.737,0,0,1-7.952-.28c-2.482-1.129-4.144-3.724-5.673-6a25.45,25.45,0,0,1-2.216-3.836,20.684,20.684,0,0,1-1.283-4.523,73.112,73.112,0,0,1-1-18.877c.442-5.806,1.227-12.138,5.14-16.731a15.8,15.8,0,0,1,16.795-4.944c.912.3,1.276-1.1.393-1.423h0Z" transform="translate(-998.518 -302.443)" fill="#010d3d"/>
      <g id="Grupo_4784" data-name="Grupo 4784" transform="translate(162.818 54.591)">
        <path id="Trazado_8255" data-name="Trazado 8255" d="M1174.224,375.989c-.47-.5-1.332-.968-1.978-.54a.648.648,0,0,0-.4.849c-1.22-.617-1.318,1.473-.764,2.132C1172.555,380.806,1176.117,378.008,1174.224,375.989Z" transform="translate(-1168.157 -364.38)" fill="#fff"/>
        <path id="Trazado_8256" data-name="Trazado 8256" d="M1176.109,365.012a5.51,5.51,0,0,0-6.753-5.147C1161.608,363.154,1175.829,373.749,1176.109,365.012Z" transform="translate(-1167.048 -359.736)" fill="#fff"/>
      </g>
      <path id="Trazado_8257" data-name="Trazado 8257" d="M1016.772,565.913l-.4,1.718-.2.855a4.991,4.991,0,0,0-.119.722c0,.063-.007.133-.007.2a1.934,1.934,0,0,0,.21.834,1.274,1.274,0,0,0,1.01.659,1.374,1.374,0,0,0,1.164-.379,2.4,2.4,0,0,0,.6-1.318l.161-.834.33-1.7a1.508,1.508,0,0,0-.147-1.1,1.466,1.466,0,0,0-.856-.659,1.438,1.438,0,0,0-1.76,1h0Z" transform="translate(-959.117 -366.43)" fill="#010d3d"/>
      <path id="Trazado_8258" data-name="Trazado 8258" d="M1023.7,545.637l-.61,1.353a9.921,9.921,0,0,0-.757,1.669,1.624,1.624,0,0,0,.154,1.2,1.643,1.643,0,0,0,.743.638,1.476,1.476,0,0,0,1.01.077,1.6,1.6,0,0,0,.926-.715,10.569,10.569,0,0,0,.631-1.725l.5-1.4a1.4,1.4,0,0,0-.834-1.683,1.409,1.409,0,0,0-1.788.589h0Z" transform="translate(-960.978 -360.473)" fill="#010d3d"/>
      <path id="Trazado_8259" data-name="Trazado 8259" d="M1029.216,530.231l-.82,2.132.147-.344a1.869,1.869,0,0,0-.273.9,1.662,1.662,0,0,0,.063.456,1.82,1.82,0,0,0,.379.645,1.371,1.371,0,0,0,1.332.351,1.145,1.145,0,0,0,.547-.287,1.414,1.414,0,0,0,.554-.792,2.6,2.6,0,0,1,.077-.316l.2-.673.414-1.346a1.427,1.427,0,0,0-.133-1.045,1.345,1.345,0,0,0-.813-.624,1.393,1.393,0,0,0-1.045.133l-.274.21a1.362,1.362,0,0,0-.351.6h0Z" transform="translate(-962.768 -355.789)" fill="#010d3d"/>
      <path id="Trazado_8260" data-name="Trazado 8260" d="M1086.333,404.834a5.681,5.681,0,0,1,1.48-.863,6.309,6.309,0,0,1,.855-.259,7.7,7.7,0,0,0,.821-.119c.2.028.168-.028-.084-.175h-.007l-.091.2c-.154.3-.351.582-.519.884-.351.624-.7,1.248-1.052,1.879a.843.843,0,0,0,1.143,1.143,2.377,2.377,0,0,1,1.269-.407c.112.021.273.07.323.182-.014-.042-.021-.014-.014.014a.813.813,0,0,1-.077.365,9.618,9.618,0,0,1-.659,1.48,5.116,5.116,0,0,0-.659,1.613.468.468,0,0,0,.6.449,3.557,3.557,0,0,0,1.718-1.732,4.067,4.067,0,0,0,.7-2.531,1.942,1.942,0,0,0-1.529-1.459,3.615,3.615,0,0,0-2.5.582l1.143,1.143c.449-.891.912-1.781,1.332-2.693.329-.722.526-1.711-.337-2.16a2.052,2.052,0,0,0-1.3-.056,6.92,6.92,0,0,0-1.178.3,7.371,7.371,0,0,0-2.265,1.325.646.646,0,0,0,0,.9.653.653,0,0,0,.9,0h0Z" transform="translate(-979.795 -317.844)" fill="#010d3d"/>
      <path id="Trazado_8261" data-name="Trazado 8261" d="M1051.308,365.3l-.5.715a1.5,1.5,0,0,0-.2.757,1.532,1.532,0,0,0,.2.757,1.475,1.475,0,0,0,.54.54,1.055,1.055,0,0,0,.554.175,1.149,1.149,0,0,0,.6-.028,1.431,1.431,0,0,0,.659-.386,1.487,1.487,0,0,0,.386-1.452l-.182-.806-.112-.266-.175-.224-.224-.175a.8.8,0,0,0-.414-.133.526.526,0,0,0-.295,0,.563.563,0,0,0-.281.077.659.659,0,0,0-.245.14.833.833,0,0,0-.287.316h0Z" transform="translate(-969.439 -306.643)" fill="#010d3d"/>
      <path id="Trazado_8262" data-name="Trazado 8262" d="M1080.894,364.652a4.34,4.34,0,0,0,.007.8,2.7,2.7,0,0,0,.056.407,2.03,2.03,0,0,0,.147.358.476.476,0,0,0,.084.154,1.143,1.143,0,0,0,.161.2.879.879,0,0,0,.358.21l-.435-.337s.035.056.049.084a.708.708,0,0,0,.793.323.748.748,0,0,0,.512-.673.459.459,0,0,1,.007-.1l-.217.519a1.316,1.316,0,0,0,.295-.849l-.028.231a2.219,2.219,0,0,0,.042-.428v-.231a3.539,3.539,0,0,1,.035-.47l-.035.245a1.937,1.937,0,0,1,.035-.2,1.025,1.025,0,0,0,0-.5l-.1-.224a.946.946,0,0,0-1.388-.259.746.746,0,0,0-.245.266.951.951,0,0,0-.126.477h0Z" transform="translate(-978.486 -306.334)" fill="#010d3d"/>
      <path id="Trazado_8263" data-name="Trazado 8263" d="M1037.114,364.737c3.064-.245,6.122-.386,9.2-.386,1.473,0,2.959.105,4.432.056a1.728,1.728,0,0,0,1.676-1.143,2.832,2.832,0,0,0,.119-2.616,1.685,1.685,0,0,0-2.9,0,2.173,2.173,0,0,0-.218,1.669c.063.2.337.554.33.771l.175-.645-.084.119.442-.442-.147.07.6-.161c-2.251.14-4.516.147-6.767.288s-4.579.3-6.858.512c-1.206.112-1.227,2.005,0,1.907h0Z" transform="translate(-965.14 -305.172)" fill="#010d3d"/>
      <path id="Trazado_8264" data-name="Trazado 8264" d="M1075.127,363.94a30.785,30.785,0,0,0,6.529-.035.983.983,0,0,0,.954-.954c0-.463-.442-1.024-.954-.954a31.26,31.26,0,0,1-6.529.182.881.881,0,0,0-.877.877.9.9,0,0,0,.877.877h0Z" transform="translate(-976.505 -305.819)" fill="#010d3d"/>
      <g id="Grupo_4785" data-name="Grupo 4785" transform="translate(51.86 47.535)">
        <path id="Trazado_8265" data-name="Trazado 8265" d="M1029.845,356.97a15.91,15.91,0,0,0-.484,7.763,22.727,22.727,0,0,0,2.405,7.181,10.453,10.453,0,0,0,4.839,4.874,10.246,10.246,0,0,0,6.823.449c4.6-1.241,7.307-5.252,8.492-9.649a20.486,20.486,0,0,0,.442-7.672,31.489,31.489,0,0,0-.638-3.962c-.26-1.08-.743-2.062-1.971-2.146a58.708,58.708,0,0,0-9.277.5c-3.247.3-6.5.652-9.74,1.038a1.452,1.452,0,0,0-1.41,1.409,1.419,1.419,0,0,0,1.41,1.41c4.908-.5,9.915-.877,14.782-1.7,1.2-.2,2.384-.435,3.576-.666a3.245,3.245,0,0,0,.68-.133c-.189.112-.266-.645-.161.238.084.652.2,1.3.294,1.949a24.124,24.124,0,0,1,.042,7.1,11.586,11.586,0,0,1-6.01,8.779,7.51,7.51,0,0,1-4.909.575,6.608,6.608,0,0,1-4.074-3.121,19.3,19.3,0,0,1-2.51-6.683,52.757,52.757,0,0,1-.561-7.279,1.047,1.047,0,0,0-2.048-.273h0Z" transform="translate(-1014.877 -350.893)" fill="#343d64"/>
        <path id="Trazado_8266" data-name="Trazado 8266" d="M1023.93,359.157a6.026,6.026,0,0,0-2.623.07c-.708.1-1.4.245-2.1.407-.484.112-.968.2-1.459.288-.119.021-.238.035-.351.056-.33.056.309-.035-.042,0-.2.028-.407.049-.617.077-1.066.126-2.125.266-3.177.491a17.679,17.679,0,0,0-1.991.519c-.484.168-.919.428-1.388.624a2,2,0,0,0-1.234.926,1.052,1.052,0,0,0,.372,1.417,2.282,2.282,0,0,0,1.641.126c.435-.07.877-.077,1.311-.154.708-.126,1.409-.309,2.125-.449q.8-.158,1.6-.273c.217-.035.435-.063.652-.091-.442.063.238-.028.372-.049a28.448,28.448,0,0,0,3.162-.568,7.467,7.467,0,0,0,4.208-2.328.754.754,0,0,0-.442-1.094h0Z" transform="translate(-1008.815 -352.47)" fill="#343d64"/>
        <path id="Trazado_8267" data-name="Trazado 8267" d="M1060.6,358.2c.07-.049.54-.4.358-.273.126-.091.253-.161.386-.245s.28-.189.428-.273c.07-.035.133-.077.2-.112l.112-.056c-.154.077.084-.035.119-.042.07-.028.147-.049.217-.077.147-.042.3-.077.456-.105a2.523,2.523,0,0,1,.512-.091c-.077,0-.245.021-.07.014.091,0,.189-.014.281-.021h.47c.07,0,.428-.021.47.028-.035-.049-.309-.056-.035,0l.231.042c.154.035.3.07.456.119.091.028.175.063.266.091.2.07-.035-.042-.07-.028.091-.021.379.189.456.238a1.894,1.894,0,0,1,.2.126c.042.028.273.154.084.056s.035.028.077.07a2.791,2.791,0,0,0,.435.323,1.37,1.37,0,0,0,1.872-1.872,4.535,4.535,0,0,0-2.461-1.585,6.059,6.059,0,0,0-2.454-.252c-1.648.189-3.583,1.031-4.284,2.651a.964.964,0,0,0,.147,1.129.936.936,0,0,0,1.129.147h0Z" transform="translate(-1023.867 -351.039)" fill="#343d64"/>
        <path id="Trazado_8268" data-name="Trazado 8268" d="M1070.876,353.591a42.406,42.406,0,0,0,.954,5.463c.4,1.788.771,3.611,1.269,5.379.863,3.071,2.188,6.129,5.287,7.5a8.447,8.447,0,0,0,8.857-1.311c2.637-2.174,3.38-5.5,3.478-8.765a23.717,23.717,0,0,0-2.433-11.507,1.443,1.443,0,0,0-1.928-.5c-1.318.624-2.966.245-4.362.168a29.736,29.736,0,0,0-4.74.084,21.659,21.659,0,0,0-4.67.757c-1.662.561-2.321,2.7-.645,3.724s3.317-1.669,1.585-2.714l-.147-.084.561.561-.07-.161.217.792v-.182l-.217.792c-.287.224-.3.288-.049.2l.5-.105c.329-.07.666-.133,1-.189.533-.091,1.066-.175,1.6-.238,1.29-.154,2.594-.245,3.892-.273,2.356-.056,4.761.365,6.963-.694l-2.069-.841a29.706,29.706,0,0,1,1.865,8.527c.112,2.5.1,5.54-1.627,7.552a5.407,5.407,0,0,1-6.108,1.655c-2.391-.947-3.2-3.555-3.843-5.813a61.813,61.813,0,0,0-3.618-10.154.815.815,0,0,0-1.508.407h0Z" transform="translate(-1027.354 -349.674)" fill="#343d64"/>
      </g>
      <path id="Trazado_8269" data-name="Trazado 8269" d="M1068.107,358.557c1.01,2.055,2.013,4.109,2.966,6.185s1.837,4.327,2.8,6.472c.47,1.045.968,2.076,1.4,3.128s.757,2.125,1.185,3.17.912,2.167,1.374,3.247a15.016,15.016,0,0,0,.694,1.571,12.938,12.938,0,0,0,1.192,1.508l-.231-1.774a6.482,6.482,0,0,1-3.2,2.265,12.513,12.513,0,0,1-1.858.61c-.631.154-1.178.217-1.5.82a.7.7,0,0,0,.105.828c1,.9,2.959-.042,4.032-.47,1.4-.554,2.672-1.346,4.067-1.907a1.515,1.515,0,0,0,1.024-1.8,12.189,12.189,0,0,0-.358-1.655A14.415,14.415,0,0,0,1081,379.1c-.519-1.01-1.045-2.027-1.585-3.029s-1.185-1.942-1.732-2.938c-.575-1.052-1.087-2.132-1.641-3.191-1.052-2.02-2.223-3.983-3.289-5.989s-2.16-4.151-3.233-6.227c-.484-.947-1.886-.112-1.417.827h0Z" transform="translate(-974.639 -304.419)" fill="#010d3d"/>
    </g>
    <g id="Grupo_4790" data-name="Grupo 4790" transform="translate(715.607 290.063)">
      <path id="Trazado_8270" data-name="Trazado 8270" d="M773.786,644.7c-.414-6.781-.975-13.548-1.417-20.322q-.747-11.476-1.339-22.951a2.5,2.5,0,0,0-.231-.912c-.1-1.353-.259-2.707-.435-4.053-.042-.568-.091-1.143-.126-1.711-.189-3-.407-6-.561-9.011-.014-.316-.028-.631-.042-.954v-.021c.2-3.114.631-6.206.82-9.319a86.788,86.788,0,0,0,.063-9.551c-.077-1.613-.252-3.212-.47-4.818-.161-1.185-.21-2.56-1.017-3.492a.618.618,0,0,0-.456-.414,5.477,5.477,0,0,0-1.613-.68c-.813-.259-1.62-.54-2.44-.764-1.522-.421-3.078-.757-4.621-1.115-6.115-1.424-12.342-2.356-18.506-3.52-3.45-.645-6.893-1.374-10.392-1.69-3.3-.294-7.195-.266-9.986,1.732a1.933,1.933,0,0,0-.175.147,1.247,1.247,0,0,0-1.655,1.171c.849,10.2,2.005,20.357,3.17,30.525q.863,7.626,1.662,15.259c.519,5.049,1.087,10.119,1.346,15.189.519,10.1.393,20.2,1.129,30.293.736,10.007,1.97,19.978,3.527,29.887,1.753,11.136,3.815,22.285,6.458,33.246a1.3,1.3,0,0,0,1.248.947q4.355-.368,8.709-.708a1.2,1.2,0,0,0,1.136-1.487c-1.438-9.544-2.475-19.172-3.618-28.758-.582-4.839-1.052-9.7-1.655-14.537-.6-4.733-1.2-9.46-1.655-14.2-.463-4.8-1.164-9.593-1.767-14.382s-1.192-9.586-1.781-14.382c-1.157-9.509-2.342-19.032-2.9-28.6-.316-5.3-.259-10.582-.274-15.883a7.849,7.849,0,0,1,.267-2.531,2.829,2.829,0,0,0,.28.056,169.582,169.582,0,0,0,23.421.554c.484,8.134,1.1,16.269,1.627,24.4q.831,13.106,1.676,26.2,1.683,26.275,3.12,52.565c.54,9.845,1.087,19.677,1.774,29.515a1.864,1.864,0,0,0,1.346,1.767,30.614,30.614,0,0,0,10.329-.309,1.6,1.6,0,0,0,1.178-1.543c-1.606-13.471-2.84-27.012-3.808-40.538q-.726-10.15-1.346-20.3Z" transform="translate(-716.676 -369.947)" fill="#fff"/>
      <path id="Trazado_8271" data-name="Trazado 8271" d="M717.763,552.893a90.822,90.822,0,0,0,.94,17.173c.729,5.7,1.353,11.262,1.9,16.914,1.08,11.213,1.7,22.461,2.251,33.715s1.045,22.5,1.858,33.729a330.139,330.139,0,0,0,3.857,33.54c.975,5.484,2.118,10.946,3.513,16.339.638,2.454.968,5.666,3.85,6.409,2.595.666,5.6.344,8.219,0a24.107,24.107,0,0,0,4.1-.862,1.376,1.376,0,0,0,.933-1.641c-1.627-8.723-2.574-17.608-3.689-26.409s-2.2-17.629-3.24-26.451c-1.038-8.765-1.984-17.538-2.987-26.31s-1.984-17.538-2.826-26.324c-.477-4.965-.827-9.937-1.08-14.915-.119-2.426-.189-4.86-.266-7.293-.084-2.56-.231-5.077-.126-7.636.042-1.08-1.571-1.052-1.662,0-.189,2.195-.477,4.4-.617,6.592s-.154,4.509-.133,6.767c.042,4.46.33,8.92.68,13.359.7,8.793,1.725,17.559,2.679,26.324,1.935,17.678,4.221,35.321,6.627,52.936.673,4.944,1.374,9.887,2.062,14.838s1.466,9.894,1.956,14.866l.975-1.283a28.586,28.586,0,0,1-8.2.708c-.729-.049-2.349.028-2.9-.561a3.142,3.142,0,0,1-.414-1.29c-.189-.75-.372-1.508-.554-2.258q-1.883-7.9-3.24-15.9c-1.816-10.743-3.128-21.535-4.046-32.4-1.851-21.794-2.433-43.687-4.6-65.46-.6-6.08-1.36-12.131-2.335-18.162s-2.258-12.65-2.132-19.074a.673.673,0,0,0-1.346,0h0Z" transform="translate(-716.219 -370.829)" fill="#010d3d"/>
      <path id="Trazado_8272" data-name="Trazado 8272" d="M739.306,582.682c4.5-.035,8.99.084,13.485.245,2.181.077,4.362.147,6.543.077,1.129-.035,2.251-.105,3.373-.224.862-.091,2.09.028,2.531-.862a.786.786,0,0,0-.119-.919c-.652-.736-1.725-.316-2.573-.21-1.066.126-2.139.21-3.219.259-2.237.105-4.474.07-6.711.028q-6.658-.126-13.309.028a.789.789,0,0,0,0,1.578h0Z" transform="translate(-722.461 -379.3)" fill="#010d3d"/>
      <path id="Trazado_8273" data-name="Trazado 8273" d="M773.24,582.83c.4,8.667.666,17.335,1.094,26s.849,17.335,1.318,26c.933,17.222,1.95,34.438,2.917,51.66q.82,14.6,1.662,29.2a1.241,1.241,0,0,0,.9,1.178,40.7,40.7,0,0,0,15.518-.491c1.452-.337.834-2.595-.617-2.237a32.475,32.475,0,0,1-14.249.365l.9,1.178c-.9-17.3-1.872-34.592-2.777-51.884q-1.346-25.834-2.931-51.66c-.6-9.775-1.36-19.543-1.984-29.319-.07-1.108-1.8-1.129-1.739,0h0Z" transform="translate(-732.826 -379.721)" fill="#010d3d"/>
      <path id="Trazado_8274" data-name="Trazado 8274" d="M790.5,562.963c.3,19.123.7,38.238,1.087,57.354.189,9.53.33,19.053,1.017,28.561.687,9.46,1.725,18.891,2.8,28.309q1.82,15.915,3.689,31.822a1.567,1.567,0,0,0,1.522,1.522,1.534,1.534,0,0,0,1.522-1.522l-3.226-28.365c-1.073-9.439-2.293-18.856-3.156-28.316-1.739-19-1.9-38.14-2.588-57.2q-.579-16.083-1.171-32.173a.74.74,0,0,0-1.48,0h0Z" transform="translate(-737.982 -373.824)" fill="#010d3d"/>
      <g id="Grupo_4787" data-name="Grupo 4787" transform="translate(48.344 335.094)">
        <path id="Trazado_8275" data-name="Trazado 8275" d="M787.287,775.261a14.754,14.754,0,0,0-.919,3.66,7.2,7.2,0,0,1,.982-5.841,17.651,17.651,0,0,0-1.311,6.206c-.049,1.8.5,4,2.244,4.446,1.676.428,3.163-1.087,4.229-2.44.968,1.4,2.735,2,4.4,2.356a28.19,28.19,0,0,0,18.008-2.209,4.626,4.626,0,0,0,2.538-2.265c.554-1.515-.554-3.24-2.026-3.892a8.414,8.414,0,0,0-4.755-.245,35.136,35.136,0,0,1-6.43.855,7.368,7.368,0,0,1-5.771-2.482,24.41,24.41,0,0,1-10.266,1.164" transform="translate(-784.992 -771.908)" fill="#010d3d"/>
        <path id="Trazado_8276" data-name="Trazado 8276" d="M786.036,774.537a16.828,16.828,0,0,0-.954,3.885l1.662-.224a5.99,5.99,0,0,1,.8-4.986l-1.4-1.08a15.6,15.6,0,0,0-1.543,5.7,8.176,8.176,0,0,0,.666,4.516,3.571,3.571,0,0,0,3.436,2.005c1.746-.147,3.085-1.508,4.144-2.791l-1.711-.217c2.048,2.777,6.122,3.141,9.305,3.345a29.168,29.168,0,0,0,11.037-1.437c2.742-.912,7.552-2.356,6.984-6.094a4.922,4.922,0,0,0-2.749-3.611,9.587,9.587,0,0,0-5.715-.442c-3.534.568-8.254,2.09-10.911-1.248a1.438,1.438,0,0,0-1.452-.386,24.838,24.838,0,0,1-4.859,1.29,30.627,30.627,0,0,1-5.007.126c-1.3-.014-1.669,2.1-.316,2.342a24.8,24.8,0,0,0,10.981-.87l-1.452-.386c1.9,2.3,5.105,3.029,7.966,2.847a46.577,46.577,0,0,0,5.2-.792c1.367-.238,3.036-.554,4.341.091a2.042,2.042,0,0,1,1.129,2.665,3.308,3.308,0,0,1-1.346,1.045,20.318,20.318,0,0,1-2.16,1.031,26.048,26.048,0,0,1-9.523,1.865,25.406,25.406,0,0,1-5.547-.5c-1.452-.308-3.1-.729-4.032-1.984-.365-.491-1.234-.834-1.711-.217-.645.828-1.571,2.1-2.721,2.216-.989.1-1.494-.8-1.725-1.62-.708-2.546.217-5.357.9-7.8.266-.954-1.157-1.6-1.627-.687a8.907,8.907,0,0,0-1.031,6.515c.252,1,1.55.659,1.662-.224a14.626,14.626,0,0,1,.884-3.443c.386-1.01-1.234-1.445-1.62-.449h0Z" transform="translate(-784.548 -771.409)" fill="#010d3d"/>
      </g>
      <g id="Grupo_4788" data-name="Grupo 4788" transform="translate(18.311 337.743)">
        <path id="Trazado_8277" data-name="Trazado 8277" d="M744.622,778.072a15.843,15.843,0,0,0-1.564,5.484,5.415,5.415,0,0,0,2.342,4.93c1.655.961,4.193.287,4.74-1.543,6.171,5.084,15.21,5.14,22.825,2.714,1.928-.617,4.186-1.984,3.857-3.976-.287-1.725-2.342-2.468-4.081-2.686-3.45-.421-6.97-.077-10.4-.645s-6.963-2.335-8.3-5.54a20.108,20.108,0,0,1-6.893,1.248,3.369,3.369,0,0,0-1.452.2c-1.346.645-1.073,2.623-.582,4.032" transform="translate(-742.118 -775.671)" fill="#010d3d"/>
        <path id="Trazado_8278" data-name="Trazado 8278" d="M743.452,777.131c-1.458,3.373-2.945,7.545-.182,10.7,2.076,2.37,6.325,2.027,7.426-1.115l-1.662.442c6.178,5.056,14.789,5.4,22.236,3.429a11.8,11.8,0,0,0,4.789-2.167,3.578,3.578,0,0,0,.989-4.579,5.879,5.879,0,0,0-4.292-2.412c-2.37-.372-4.761-.295-7.139-.5a19.678,19.678,0,0,1-6.676-1.367A9.485,9.485,0,0,1,756.453,778a19.955,19.955,0,0,1-2.005-2.475,1.109,1.109,0,0,0-1.1-.294,19.893,19.893,0,0,1-4.355,1.08c-1.276.154-2.784-.105-3.983.386-2.1.849-1.7,3.654-1.059,5.322.365.947,1.837.589,1.55-.428a4.509,4.509,0,0,1-.217-2.258c.217-.869,1.431-.631,2.118-.659a21.486,21.486,0,0,0,6.55-1.262l-1.4-.792c.259,1.725,1.69,3.135,3.036,4.137a12.94,12.94,0,0,0,4.488,2.09c4.088,1.059,8.289.224,12.419.827,1.08.161,3.212.708,2.868,2.216s-2.356,2.1-3.583,2.475a29.932,29.932,0,0,1-10.5,1.332,19.051,19.051,0,0,1-10.841-3.948,1.01,1.01,0,0,0-1.662.442,2.129,2.129,0,0,1-2.153,1.262,2.91,2.91,0,0,1-2.433-1.725c-1.318-2.56-.105-5.463.891-7.9.379-.933-1.234-1.62-1.634-.687h0Z" transform="translate(-741.719 -775.186)" fill="#010d3d"/>
      </g>
      <path id="Trazado_8279" data-name="Trazado 8279" d="M825.766,500.383c-1.381-11.711-5.729-22.748-8.324-34.206-1.921-5.049-4.207-25.336-9.348-25.658-4.614.014-9.172,1.942-13.667,2.938-8.331-2.833-17.594-4.123-26.352-5.477-4.193,1.073-6.36,5.911-9.53,8.611-9.8,11.016-20.28,21.682-29.115,33.463-.968,2.153-.33,4.327.2,6.5.659,3.057,1.613,6.1,2.167,9.144a181.284,181.284,0,0,0-13.541,18.5c-1.038,2.146-3.934,5.519-2.006,7.664a36.176,36.176,0,0,0,10.974,3.6c15.245,2.265,33.835,7.118,48.491,1.192,5.091-8.8,10.9-17.356,15.427-26.521,3.338-9.305,9.376-17.159,13.7-25.988,2.37,11.556,4.39,23.849,10.119,34.234,6.024,6.465,12.622-1.024,10.8-8ZM768.44,442.117c.2-.175.14-.035,0,0Z" transform="translate(-715.607 -336.698)" fill="#64d8cc"/>
      <path id="Trazado_8280" data-name="Trazado 8280" d="M739.935,505.3c8.071-11.087,16.5-21.907,25.5-32.257.582-.666-.393-1.648-.975-.975a378.635,378.635,0,0,0-25.56,32.628c-.442.638.589,1.22,1.038.6h0Z" transform="translate(-722.535 -346.814)" fill="#010d3d"/>
      <path id="Trazado_8281" data-name="Trazado 8281" d="M864.762,370.3a131.2,131.2,0,0,0-2.588-21.114c-.715-3.5-1.641-6.935-2.581-10.385a21.138,21.138,0,0,1-.9-5.154,15.893,15.893,0,0,1,.9-4.986,41.6,41.6,0,0,0,1.522-4.782c.33-1.676-.785-2.6-2.237-3.085a41.1,41.1,0,0,0-9.425-1.9,45.318,45.318,0,0,0-18.975,2.426,50.633,50.633,0,0,0-26.535,22.468c-.554.968-1.073,1.956-1.571,2.952a8.577,8.577,0,0,0-10.575,5.287c-1.529,4.712,1.445,10.14,6.416,10.946a9.086,9.086,0,0,0,5.659-.891c1.108,11.234,4.558,22.952,12.215,31.4a12.076,12.076,0,0,0,5.049,3.562c-.189.316-.372.631-.561.947l-9.74,11.8c-.834,1.01.3,2.412,1.276,1.949a4.951,4.951,0,0,0,1.213,3.352,1.366,1.366,0,0,0,1.627.21c.126-.063.245-.133.372-.2a2.75,2.75,0,0,0,2.342-1.332c.077-.133.154-.259.231-.393a15.67,15.67,0,0,0,3.015-3.24c1.508-2.209,2.609-4.663,4.081-6.893a31.6,31.6,0,0,1,2.209-3.078,3.543,3.543,0,0,1,1.36-1.2,8.692,8.692,0,0,1,2.062-.252q5.47-.621,10.946-1.227c3.345-.379,6.62-.743,9.656-2.293a14.085,14.085,0,0,0,3.724-2.994,35.634,35.634,0,0,0,3.085-3.569,45.847,45.847,0,0,0,5.147-8.2,21.575,21.575,0,0,0,1.578-10.14Z" transform="translate(-738.25 -301.067)" fill="#fff"/>
      <path id="Trazado_8282" data-name="Trazado 8282" d="M803.9,359a6.742,6.742,0,0,0-5.757-3.352,7.823,7.823,0,0,0-6.353,3.52c-3.1,4.3-2.9,11.514,1.29,15.049a7.688,7.688,0,0,0,7.314,1.7,5.228,5.228,0,0,0,3.1-2.258c.6-1.276-.309-2.538-1.669-1.816a12.08,12.08,0,0,0-1.29,1.017,4.649,4.649,0,0,1-5.063.175c-2.461-1.466-3.4-4.341-3.275-7.082.119-2.637,1.325-5.484,3.709-6.837,1.851-1.045,4.986-1.024,6.283.884a1,1,0,0,0,1.718-1h0Z" transform="translate(-737.734 -312.1)" fill="#010d3d"/>
      <path id="Trazado_8283" data-name="Trazado 8283" d="M807.573,366.762a55.049,55.049,0,0,0-.028,6.97,44.216,44.216,0,0,0,1.22,6.935,46.714,46.714,0,0,0,5.589,12.854c2.37,3.808,5.294,7.188,9.446,9.088a32.11,32.11,0,0,0,13.176,2.531,55.886,55.886,0,0,0,15.161-1.956c4.495-1.22,8.955-3.015,12.454-6.164A23.14,23.14,0,0,0,871.1,385.9a28.424,28.424,0,0,0,.841-6.711,66.083,66.083,0,0,0-.217-7.636,129.177,129.177,0,0,0-3.029-16.97,100.767,100.767,0,0,0-4.979-16.823c-.449-1.08-2.132-.7-1.809.5,1.29,4.719,2.8,9.376,4.011,14.116a128.28,128.28,0,0,1,2.854,14.242c.659,4.775,1.339,9.908.231,14.663a28.514,28.514,0,0,1-4.53,10.8,20.666,20.666,0,0,1-9.824,6.8,50.63,50.63,0,0,1-13.674,2.833,38.067,38.067,0,0,1-12.755-.954,17.132,17.132,0,0,1-9.635-6.606,45.47,45.47,0,0,1-6.521-12.826,63.806,63.806,0,0,1-1.837-7.047,42.092,42.092,0,0,1-1.017-7.517.831.831,0,0,0-1.662,0h0Z" transform="translate(-743.043 -306.565)" fill="#010d3d"/>
      <path id="Trazado_8284" data-name="Trazado 8284" d="M863.2,331.9a32.461,32.461,0,0,1-7.938,14.046l1.459-.386c-.238-.056-.231-2.139-.238-2.412-.063-1.557-.077-3.12-.07-4.677.021-3.064.189-6.1.463-9.158.119-1.339-1.809-1.424-2.216-.3a28.772,28.772,0,0,1-9.873,13.078c-.561.414-1.136.806-1.718,1.178-.617.393-.673.645-1.066-.042a7.63,7.63,0,0,1-.729-4.116c.147-3.022,1.213-5.925,1.508-8.941a1.229,1.229,0,0,0-2.272-.617,72.1,72.1,0,0,1-10.322,15.862q-1.483,1.746-3.078,3.4c-.281.295-.554.6-.855.87a1.523,1.523,0,0,1-.386.316c-.294.1-.287.189.021.266-.2-.792-.393-1.585-.561-2.384a49.007,49.007,0,0,1-.841-5.154,29.466,29.466,0,0,1,.084-5.449,1.273,1.273,0,0,0-2.356-.638,111.96,111.96,0,0,0-9.312,22.425l2.321-.3a23.306,23.306,0,0,1-2.013-3.639,11.381,11.381,0,0,1-.877-3.99c-.133-2.321-3.71-1.564-2.973.4.547,1.452,1.143,2.882,1.7,4.327a30.341,30.341,0,0,0,1.97,4.179,1.287,1.287,0,0,0,2.321-.3,130.04,130.04,0,0,1,9.053-21.822l-2.356-.638a25.27,25.27,0,0,0,.3,4.768c.182,1.571.456,3.121.778,4.663.154.729.323,1.452.477,2.181a10.928,10.928,0,0,0,.533,2.16,1.949,1.949,0,0,0,2.749.968,12.15,12.15,0,0,0,2.98-2.833q1.452-1.578,2.812-3.226a81.1,81.1,0,0,0,5.084-6.865,92.762,92.762,0,0,0,4.86-8.31l-2.272-.617c-.372,2.756-1.2,5.435-1.466,8.2a11.9,11.9,0,0,0,.21,3.892,5.78,5.78,0,0,0,1.767,3.282c1.15.848,2.265.288,3.289-.421a36.948,36.948,0,0,0,3.064-2.391,34.91,34.91,0,0,0,5.133-5.442,40.007,40.007,0,0,0,4.369-7.419l-2.062-.87a92.087,92.087,0,0,0-.975,11.016,47.385,47.385,0,0,0,0,5.28c.112,1.353.715,2.924,2.244,3.148a1.5,1.5,0,0,0,1.459-.386,39.518,39.518,0,0,0,7.461-15.715.855.855,0,0,0-1.648-.456h0Z" transform="translate(-743.587 -303.909)" fill="#010d3d"/>
      <path id="Trazado_8285" data-name="Trazado 8285" d="M800.481,337.86c-1.318-3.036-2.644-6.066-3.9-9.13-.6-1.48-1.227-2.952-1.76-4.46a26.53,26.53,0,0,0-2.3-4.621,1.917,1.917,0,0,0-2.09-.849l-4.221.757,1.206,2.854a10.018,10.018,0,0,1,3.962-1.5,1.545,1.545,0,0,0,.673-2.56,31.348,31.348,0,0,1-3.387-4.186l-2.356,1.816a22.5,22.5,0,0,0,4.663,4.039c1.508.989,2.861-1.4,1.4-2.4l-.14-.1.5.5-.07-.14.189.7c-.014-.2.9-.982,1.115-1.192.61-.617,1.248-1.206,1.9-1.774a41.306,41.306,0,0,1,3.85-2.938,73.941,73.941,0,0,1,8.485-4.839c2.917-1.452,6.143-2.917,9.249-4.278a62.831,62.831,0,0,1,10.392-3.66,25.752,25.752,0,0,1,11.718-.344l-.4-3.043a15.169,15.169,0,0,0-4.979,4.235,1.636,1.636,0,0,0,.252,1.956c1.557,1.774,4.221.512,6.045-.056l7.58-2.363,7.58-2.363c1.178-.365,2.356-.785,3.555-1.094.491-.126,1.844-.449,2.09.273l.407-1.55q-3.4,2.9-6.753,5.841a1.621,1.621,0,0,0,1.136,2.742c6.879-.617,13.667-3.015,20.63-2.349a17.81,17.81,0,0,1,4.439,1.01,11.667,11.667,0,0,1,1.774.827c.491.273.933.687,1.4.954-.245-.14.449-.5-.049-.154-.147.105-.3.252-.477.372-.757.477-1.571.87-2.349,1.3-1.634.884-3.261,1.767-4.895,2.651q-5.669,3.05-11.353,6.066a2.006,2.006,0,0,0-.912,2.237,2.062,2.062,0,0,0,1.907,1.452,47.933,47.933,0,0,1,4.881.736c.3.063.61.126.9.21a.609.609,0,0,0,.294.07c.245.168.281.161.119-.007a.6.6,0,0,1,0-.224c.014,0-.519.561-.568.6a33.117,33.117,0,0,1-3.759,2.167q-2.24,1.336-4.488,2.672a1.822,1.822,0,0,0,0,3.121,4.72,4.72,0,0,1,1.8,1.43.9.9,0,0,1,.119.295c-.084.309-.589.617-.827.813a14.908,14.908,0,0,1-5.147,2.644,1.67,1.67,0,0,0,.884,3.219,19.091,19.091,0,0,0,4.172-1.7,12.546,12.546,0,0,0,3.506-2.623c2.321-2.777-.21-5.743-2.686-7.2v3.121c1.956-1.136,3.934-2.237,5.869-3.408,1.69-1.017,3.576-2.118,4.285-4.074.764-2.1-.764-3.71-2.637-4.362a31.64,31.64,0,0,0-6.732-1.48l1,3.689q5.575-3.029,11.136-6.1,2.819-1.557,5.624-3.121c1.522-.848,3.352-1.732,3.9-3.541,1.185-3.9-4.586-5.911-7.4-6.578a29.464,29.464,0,0,0-10.946-.21c-4.488.638-8.9,1.886-13.422,2.244l1.136,2.742q3.387-2.9,6.739-5.862a1.553,1.553,0,0,0,.407-1.55c-.926-2.559-3.6-3.085-6-2.433-2.574.694-5.105,1.655-7.643,2.482l-7.714,2.524-3.941,1.29a14.778,14.778,0,0,1-1.634.526c-.14.028-.3.021-.428.049-.372.084-.182-.21-.035.056l-.252,1.956a18.042,18.042,0,0,1,4.116-3.317,1.682,1.682,0,0,0-.4-3.043c-8.176-1.7-16.185.968-23.59,4.278-3.527,1.578-7.012,3.268-10.463,5.014a67.627,67.627,0,0,0-9.383,5.575,41.85,41.85,0,0,0-4.691,3.934c-1.269,1.248-3.471,3.31-1.353,4.888l1.4-2.4a20.03,20.03,0,0,1-3.941-3.759c-1.073-1.332-3.261.393-2.356,1.816a28.859,28.859,0,0,0,3.808,4.839l.673-2.56a19.686,19.686,0,0,0-4.726,1.76,1.573,1.573,0,0,0,.785,2.91c1.43-.063,2.868-.133,4.3-.2l-1.781-1.36a27.812,27.812,0,0,0,2.377,4.775c.9,1.339,1.718,2.735,2.56,4.123,1.732,2.868,3.4,5.764,5.07,8.667.512.884,1.718.105,1.332-.778h0Z" transform="translate(-736.351 -293.547)" fill="#010d3d"/>
      <path id="Trazado_8286" data-name="Trazado 8286" d="M846.51,365.378l.14,1.248c.021.2.028.4.035.6a2.491,2.491,0,0,0,.014.323c0,.049.014.091.014.14a2.057,2.057,0,0,0,.281,1.038,1.212,1.212,0,0,0,.351.442,1.969,1.969,0,0,0,.9.519,1.5,1.5,0,0,0,.806.035,1.553,1.553,0,0,0,.757-.238,2.075,2.075,0,0,0,.729-.729,1.623,1.623,0,0,0,.231-.526,2.069,2.069,0,0,0,0-1.094,1,1,0,0,0-.028-.14c-.021-.105-.056-.21-.084-.316-.056-.2-.112-.386-.154-.582l-.259-1.234a1.465,1.465,0,0,0-.337-.645,1.438,1.438,0,0,0-.533-.491l-.456-.189a1.464,1.464,0,0,0-.757-.035.952.952,0,0,0-.477.126,1.412,1.412,0,0,0-.61.393l-.294.386a1.916,1.916,0,0,0-.259.961h0Z" transform="translate(-754.716 -314.438)" fill="#010d3d"/>
      <path id="Trazado_8287" data-name="Trazado 8287" d="M880.77,362.773l.112,2.665a2.186,2.186,0,0,0,.6,1.459,2.283,2.283,0,0,0,1.459.6,2.065,2.065,0,0,0,1.459-.6l.323-.421a2.006,2.006,0,0,0,.281-1.038l-.309-2.665a1.54,1.54,0,0,0-.168-.757,1.776,1.776,0,0,0-1.038-1.038,1.4,1.4,0,0,0-.757-.168,1.963,1.963,0,0,0-1.964,1.964h0Z" transform="translate(-764.951 -313.642)" fill="#010d3d"/>
      <path id="Trazado_8288" data-name="Trazado 8288" d="M867.828,360.8a107.813,107.813,0,0,1,7.1,16.935c.435,1.438.827,2.9,1.332,4.313a7.13,7.13,0,0,0,.337.877c-.33.014.631-1.22-.287-.231-.435.47-.877.94-1.325,1.4a18.4,18.4,0,0,1-2.966,2.454c-.568.386-1.157.736-1.718,1.129a6.786,6.786,0,0,0-1.473,1.431c-.4.491-.372,1.5.428,1.62a4.394,4.394,0,0,0,2.293-.1,9.871,9.871,0,0,0,2.188-1.15c1.269-.855,2.412-1.872,3.618-2.812,1.08-.841,2.777-1.823,3.142-3.247.435-1.7-.954-3.731-1.718-5.161-.813-1.522-1.732-2.994-2.482-4.544s-1.48-3.008-2.3-4.474c-1.69-3.036-3.113-6.22-4.719-9.3-.5-.961-1.928-.112-1.445.848h0Z" transform="translate(-761.056 -313.256)" fill="#010d3d"/>
      <path id="Trazado_8289" data-name="Trazado 8289" d="M833.21,429.99a1.045,1.045,0,0,0,0-2.09,1.045,1.045,0,0,0,0,2.09Z" transform="translate(-750.441 -333.687)" fill="#010d3d"/>
      <path id="Trazado_8290" data-name="Trazado 8290" d="M827.885,429.4c-1.739,2.314-3.66,4.432-5.61,6.564-.947,1.038-1.907,2.055-2.861,3.085-.477.512-.975,1.017-1.445,1.536-.512.568-.933,1.2-1.431,1.781a1.233,1.233,0,0,0-.189,1.459c1.241,1.886,2.272,3.892,3.359,5.862l-.112-.863a1.544,1.544,0,0,0,.245,1.564,1.367,1.367,0,0,0,2.111.273,19.866,19.866,0,0,1,2.447-1.641c.827-.54,1.627-1.122,2.426-1.7a1.137,1.137,0,1,0-1.381-1.8,14.358,14.358,0,0,1-4.8,2.9l1.522.617a1.513,1.513,0,0,0-1.192-.989l.666.512c-1.1-1.97-2.258-3.906-3.2-5.953l-.189,1.459c.575-.5,1.206-.926,1.746-1.466s1.045-1.094,1.55-1.655c.975-1.087,1.921-2.216,2.812-3.373,1.816-2.335,3.478-4.8,5.14-7.237.687-1.017-.912-1.886-1.62-.947h0Z" transform="translate(-745.656 -334.011)" fill="#010d3d"/>
      <path id="Trazado_8291" data-name="Trazado 8291" d="M831.788,445.828c.954-2.377,2.924-4.179,4.516-6.129.855-1.045,1.76-2.062,2.545-3.163s1.543-2.328,2.244-3.527l-1.977-1.157a41.242,41.242,0,0,1-4.523,7.559c-.841,1.143-1.725,2.258-2.63,3.352-.947,1.15-2.188,2.272-2.707,3.7-.309.841.75,1.529,1.459,1.122a12.511,12.511,0,0,0,3.022-3.226c.968-1.2,1.914-2.412,2.819-3.653a41.875,41.875,0,0,0,4.537-7.7c.575-1.311-1.227-2.461-1.977-1.157a53.081,53.081,0,0,1-4.677,7.082c-1.648,2.027-3.436,3.934-4.376,6.416-.414,1.087,1.3,1.529,1.725.477h0Z" transform="translate(-749.545 -334.694)" fill="#010d3d"/>
      <path id="Trazado_8292" data-name="Trazado 8292" d="M817.688,456.605a33.4,33.4,0,0,1-2.812,3.625c-.351.393-.813,1-1.388,1.059a1.124,1.124,0,0,1-.961-.533,5.8,5.8,0,0,1-.771-1.438c-.316-.785-.638-1.571-.954-2.356a4.243,4.243,0,0,1-.5-2.1c.112-.75.449-1.409-.063-2.1a.49.49,0,0,0-.884.119,7.774,7.774,0,0,0-.659,1.823,4.64,4.64,0,0,0,.315,2.16,39.063,39.063,0,0,0,1.578,3.9,3.537,3.537,0,0,0,2.391,2.16c1.346.217,2.335-.743,3.121-1.7a35.834,35.834,0,0,0,2.826-3.9c.5-.792-.736-1.5-1.248-.729h0Z" transform="translate(-743.411 -341.046)" fill="#010d3d"/>
      <path id="Trazado_8293" data-name="Trazado 8293" d="M823.55,460.863a8.21,8.21,0,0,0,2.679,5.47.8.8,0,0,0,1.1,0,29.071,29.071,0,0,0,4.754-5.764c.554-.9-.835-1.7-1.4-.82a31.57,31.57,0,0,1-4.446,5.484h1.1a6.619,6.619,0,0,1-2.3-4.369.755.755,0,0,0-.736-.736.736.736,0,0,0-.736.736h0Z" transform="translate(-747.857 -343.088)" fill="#010d3d"/>
      <g id="Grupo_4789" data-name="Grupo 4789" transform="translate(94.433 81.715)">
        <path id="Trazado_8294" data-name="Trazado 8294" d="M878.716,416.9a.847.847,0,0,0-.652.309l-2.5,2.889c-3.906-2.069-7.819-4.109-11.9-5.806q-1.588-.663-3.219-1.241a5.244,5.244,0,0,0-2.63-.449,2.3,2.3,0,0,0-1.823,1.55,2.725,2.725,0,0,0-.105.912,4.031,4.031,0,0,0-2.321-.189,2.7,2.7,0,0,0-2.153,2.609,4.576,4.576,0,0,0,1.949,3.163c.224.2.463.4.673.624a3.068,3.068,0,0,1,.372.428.689.689,0,0,0,.063.154c-.273.147-.708.252-.926.351-.407.175-.82.358-1.234.533-.75.33-.442,1.409.21,1.627.933.3,2.244.659,2.826,1.529a1.511,1.511,0,0,1-.217,2.006,1.035,1.035,0,0,0-.2,1.606c1.066,1.178,2.153,2.335,3.331,3.4a17.956,17.956,0,0,0,3.773,2.847,10.855,10.855,0,0,0,4.383,1.29c.884.042,2.412-.428,3.45-.182-.323,1.045-.589,2.111-.926,3.149a1.372,1.372,0,0,0,1.3,1.711c1.108.126,2.216.245,3.324.372A1.492,1.492,0,0,0,874.985,441c2.7-7.587,3.745-15.553,5.133-23.449a.794.794,0,0,0-1.4-.652Z" transform="translate(-850.613 -410.819)" fill="#fff"/>
        <path id="Trazado_8295" data-name="Trazado 8295" d="M878.161,422.526a33.3,33.3,0,0,0-5.771-6.227,32.806,32.806,0,0,0-3.436-2.447,43.719,43.719,0,0,0-3.787-2.412c-2.328-1.185-5.771-2.272-7.952-.182a3.086,3.086,0,0,0-.484,3.864,7.334,7.334,0,0,0,3.057,2.588c1.515.834,2.938,1.872,4.432,2.756q1.094.642,2.209,1.241a9.672,9.672,0,0,0,2.5,1.143c.708.147,1.417-.764.764-1.318a10.8,10.8,0,0,0-2.083-1.213c-.708-.379-1.48-.806-2.209-1.234a39.116,39.116,0,0,1-3.976-2.6,13.211,13.211,0,0,1-1.718-1.655c-.266-.295-.687-.722-.6-1.164.2-.989,2.258-.694,2.9-.575a16.524,16.524,0,0,1,4.362,1.7,30.377,30.377,0,0,1,3.745,2.3,29.488,29.488,0,0,1,6.732,6.2c.582.771,1.893.042,1.318-.771h0Z" transform="translate(-852.064 -410.077)" fill="#010d3d"/>
        <path id="Trazado_8296" data-name="Trazado 8296" d="M885.821,449.436c.287-.5.575-1,.891-1.487a6.339,6.339,0,0,0,.4-.856,2.433,2.433,0,0,1,.337-.5,5.691,5.691,0,0,0,.933-1.809,2.444,2.444,0,0,0,.133-.68,1.087,1.087,0,0,0-.021-.337c-.014-.217-.028-.252-.028-.105a3.586,3.586,0,0,0-.042-.61c-.056-.21-.1-.224-.126-.372v.5c.077-.421.147-.849.238-1.269a1.924,1.924,0,0,0-.014-1.452.811.811,0,0,0-1.241-.161c-.393.309-.386.778-.484,1.213-.091.393-.21.778-.329,1.164l.245-.421c-.1.1-.119.126-.07.084.1-.077.021-.021-.224.175a2.826,2.826,0,0,0-.337.5c.14-.2-.175.175-.238.288a2.38,2.38,0,0,0-.231.554,4.341,4.341,0,0,0-.238,1.115v.147c.007-.091.007-.091-.007.007a4.8,4.8,0,0,0-.077.638,2.031,2.031,0,0,1-.084.652c-.084.266-.2.512-.259.785a10.626,10.626,0,0,1-.5,1.648c-.316.82.975,1.325,1.4.589h0Z" transform="translate(-860.466 -419.042)" fill="#010d3d"/>
        <path id="Trazado_8297" data-name="Trazado 8297" d="M857.319,415.84c-1.466-.666-2.987-1.7-4.67-1.164a3.1,3.1,0,0,0-1.956,3.548,6.519,6.519,0,0,0,2.644,3.745,27.157,27.157,0,0,0,4.109,2.847,28.747,28.747,0,0,0,5.2,2.272c1.108.358,1.592-1.4.484-1.746a24.234,24.234,0,0,1-8.822-4.874c-.94-.82-2.321-2.09-1.753-3.5.645-1.592,2.994-.105,3.941.295a.847.847,0,0,0,1.122-.295.827.827,0,0,0-.294-1.122h0Z" transform="translate(-850.386 -411.406)" fill="#010d3d"/>
        <path id="Trazado_8298" data-name="Trazado 8298" d="M853.083,425.317c-1,.168-2.707.07-2.8,1.431-.084,1.143,1.073,1.788,1.886,2.335,1.108.743,2.223,1.473,3.352,2.174.568.351,1.136.7,1.7,1.045a7.835,7.835,0,0,1,2.027,1.283l1.283-1.669a12.425,12.425,0,0,0-4.509-1.332c-1.171-.189-2.861-.435-3.282,1.073-.316,1.143.666,2.545,1.255,3.45a11.581,11.581,0,0,0,2.574,2.847,14.773,14.773,0,0,0,3.681,1.935,33.133,33.133,0,0,0,4.292,1.508,11.524,11.524,0,0,0,4.151.344c1.122-.126,2.889-.456,3.254-1.718a.553.553,0,0,0-.379-.666c-.891-.217-1.816.323-2.693.477a8.947,8.947,0,0,1-3.2-.084,26.022,26.022,0,0,1-6.423-2.335,9.607,9.607,0,0,1-4.1-4.116,5.158,5.158,0,0,0-.323-.617c0-.217-.091-.309-.26-.266h.119a13.918,13.918,0,0,1,1.592.323c1.164.3,2.265.835,3.436,1.115,1.36.323,1.879-1.865.561-2.048a7.828,7.828,0,0,1-2.405-1.283c-.694-.414-1.332-.8-1.991-1.206s-1.318-.827-1.964-1.248c-.372-.245-.743-.484-1.115-.729-.182-.126-.372-.245-.554-.372-.147-.231-.21-.224-.175.014l-.533.414,2.02-.358c1.129-.2.645-1.9-.47-1.711h0Z" transform="translate(-850.274 -414.627)" fill="#010d3d"/>
        <path id="Trazado_8299" data-name="Trazado 8299" d="M874.834,447.706a48.073,48.073,0,0,0-1.325,4.642c-.182.785-.344,1.571-.491,2.356a3.953,3.953,0,0,0,.042,2.545.785.785,0,0,0,1.227.161,4.257,4.257,0,0,0,.708-2.335c.105-.771.232-1.536.379-2.3a47.315,47.315,0,0,1,1.136-4.6c.323-1.08-1.318-1.515-1.683-.463h0Z" transform="translate(-857.011 -421.141)" fill="#010d3d"/>
        <path id="Trazado_8300" data-name="Trazado 8300" d="M886.009,438.41a63,63,0,0,0,2.419-6.178c.631-2.139,1.073-4.383,1.5-6.606s.729-4.306,1-6.472a61.435,61.435,0,0,0,.231-6.76.847.847,0,0,0-1.564-.428,24.356,24.356,0,0,1-2.9,4.607,11.123,11.123,0,0,1-1.788,1.753,15.88,15.88,0,0,1-2.377,1.29c-.94.5-.231,1.7.666,1.578,1.851-.259,3.562-1.865,4.684-3.261a32.572,32.572,0,0,0,3.156-5.126l-1.564-.428c-.063,2.2-.386,4.4-.582,6.592a59.5,59.5,0,0,1-.912,6.437c-.428,2.132-.989,4.179-1.543,6.255s-1,4.278-1.711,6.374c-.281.827.968,1.122,1.283.351h0Z" transform="translate(-859.778 -410.52)" fill="#010d3d"/>
        <path id="Trazado_8301" data-name="Trazado 8301" d="M876.38,449.689c-3.261,1.031-8-.105-9.915,3.317-3.226,8.625-4.782,17.931-9.032,26.149a47.694,47.694,0,0,0-3.492,10.238c-1.424,7.216-.75,27.9,11.094,21.451,1.431-1.255,1.992-3.163,2.545-4.909,4.509-12.9,8.261-26.1,9.312-39.781.519-4.916,1.15-9.81,1.788-14.712C878.848,450.151,877.39,449.52,876.38,449.689Z" transform="translate(-851.208 -421.903)" fill="#64d8cc"/>
      </g>
      <path id="Trazado_8302" data-name="Trazado 8302" d="M859.386,485.138c-1.1,4.551-2.223,9.1-3.289,13.653a22.5,22.5,0,0,0-.813,6.185c.084,1.662.442,3.822,1.746,4.986.379.337,1.143.021.933-.54-.309-.82-.75-1.564-1-2.412a9.532,9.532,0,0,1-.358-2.595,26.8,26.8,0,0,1,.989-6.262q1.462-6.353,2.882-12.713c.161-.708-.919-1.01-1.094-.3h0Z" transform="translate(-757.333 -350.667)" fill="#010d3d"/>
      <path id="Trazado_8303" data-name="Trazado 8303" d="M887.522,304.36c-1.634-1.718-3.934-2.237-6.213-2.454a76.061,76.061,0,0,0-7.994-.266,84.073,84.073,0,0,0-12.65,1.08c.8-1.122,1.627-2.23,2.489-3.3a1.7,1.7,0,0,0,.253-1.97,1.622,1.622,0,0,0-1.837-.75c-7.538,3.135-15.294,6.339-23.463,7.195.414-.659.835-1.318,1.255-1.984a1.7,1.7,0,0,0-1.452-2.524c-6.6-.379-12.959,1.809-18.989,4.228-3.135,1.248-6.3,2.482-9.305,4.025a56.2,56.2,0,0,0-7.391,4.726,47.93,47.93,0,0,0-7.5,6.753,2.111,2.111,0,0,0-.323,2.482c2.524,4.088,4.039,8.583,6.185,12.854a40.114,40.114,0,0,0,3.724,5.792c1.248,1.7,2.84,3.212,3.359,5.329a1.288,1.288,0,0,0,2.517-.344v-.316a.824.824,0,0,0,.217-.337c1.55-4.032,3.254-8,4.881-12a19.944,19.944,0,0,1,2.756-5.329c.1,1.571.28,3.142.491,4.684a44.906,44.906,0,0,0,1.781,7.594,1.354,1.354,0,0,0,1.956.792c3.962-1.844,6.122-6.038,8.464-9.488q2.987-4.418,5.827-8.913c-.077.785-.238,1.543-.4,2.349-.456,2.3-.743,4.726.119,6.9a3.592,3.592,0,0,0-.3,2.728,2.1,2.1,0,0,0,3.064,1.241c4.8-3.45,8.478-7.973,11.781-12.784,0,1.409.007,2.819,0,4.228-.007,1.283.189,2.56.182,3.85s-.042,2.559-.105,3.843a1.414,1.414,0,0,0,2.616.708,56.669,56.669,0,0,0,4.572-8.836c.189-.463.386-1,.61-1.55a41.783,41.783,0,0,0,1.739,6.486c.6,1.683,1.3,3.857,3.485,3.808a4.169,4.169,0,0,0,2.63-1.346c.694-.61,1.388-1.22,2.083-1.823a2.12,2.12,0,0,0,.33-2.538c-.379-.68-.785-1.332-1.22-1.97a34.427,34.427,0,0,0,6.8-5.9,1.962,1.962,0,0,0-1.367-3.3c-1.08-.14-2.16-.316-3.233-.5,2.146-1.276,4.278-2.581,6.409-3.878,1.774-1.08,3.569-2.132,5.329-3.24,1.851-1.178,3.632-2.468,5.519-3.59a1.575,1.575,0,0,0,.316-2.44Z" transform="translate(-739.068 -294.463)" fill="#010d3d"/>
    </g>
  </g>
</svg>
