<svg xmlns="http://www.w3.org/2000/svg" width="430" height="379.824" viewBox="0 0 430 379.824"><g id="IICE_LandingCompliancePenal_Nivel2_9" transform="translate(-604.357 -227.419)"><g id="Grupo_4890" data-name="Grupo 4890" transform="translate(604.357 227.42)"><path id="Trazado_8951" data-name="Trazado 8951" d="M754.277,377.5c2.315-4.032,2.2-9.086,1.675-13.56-.78-6.6-3.065-13.179-7.962-17.6a21.224,21.224,0,0,0-6.178-29.139c3.688-7.744,6.62-16.994,3.881-25.258,1.3-1.276,2.563-2.581,3.863-3.869,8.675,1.566,15.416-8.832,17.755-16.014,1.536-4.721,2.1-10.168,0-14.835a15.894,15.894,0,0,0-8.47-8.143,14.029,14.029,0,0,0-6.469-1c0-.3.018-.574.012-.871-.145-2.479-1.118-4.546-1.856-6.856-1.53-4.788-5.175-8.228-9.612-10.4a24.572,24.572,0,0,0-27.6,4.038,22.509,22.509,0,0,0-5.471,8.415,23.823,23.823,0,0,0-18.91-7.732c-9.806.544-17.223,8.016-19.557,17.272a23.857,23.857,0,0,0-.574,8.276,28.259,28.259,0,0,0-26.642,5.894,35.087,35.087,0,0,0-11.619,30.149,35.859,35.859,0,0,0,3.845,13.028c-5.38,1.711-9.576,6.5-12.169,11.559-3.827,7.436-4.486,16.734,1.662,23.106a14.085,14.085,0,0,0,4.824,3.252,33.29,33.29,0,0,0-6.106,18.154c-.206,7.684,3.011,15.96,10.4,19.237a14.85,14.85,0,0,0,6.342,1.324c-1.257,3.18-2.859,6.227-3.978,9.467a21.71,21.71,0,0,0-.81,12.641,12.37,12.37,0,0,0,8.814,9.044c4.48,1.221,9.648.2,13.753-1.832a25.093,25.093,0,0,0,7.031-5.217,23.64,23.64,0,0,0,12.828,11.523,20.983,20.983,0,0,0,22.64-5.634,19.274,19.274,0,0,0,2.158-2.805c.284.332.58.653.9.973a13.641,13.641,0,0,0,10.555,3.917c5.61-.49,10.4-4.848,12.061-10.126,5.749,2.086,13.052.466,17.526-3.325,6.263-5.308,7.859-14.17,5.652-21.818A12.054,12.054,0,0,0,754.3,377.5Z" transform="translate(-610.267 -227.42)" fill="#00b2e3"/><g id="Grupo_4887" data-name="Grupo 4887" transform="translate(63.9 148.161)"><path id="Trazado_8952" data-name="Trazado 8952" d="M734.422,486.513A76.169,76.169,0,0,0,734,478.9a5.191,5.191,0,0,0-4.081-4.413,51.511,51.511,0,0,0-8.095-1.336c-2.884-.339-5.767-.586-8.675-.653a1.083,1.083,0,0,0-.568.139,2.51,2.51,0,0,0-2.116,1.747c-1.294,4.341.858,8.464,1.493,12.7.109.744.193,1.9.242,2.841.06,1.167.085,2.34.115,3.506a59.3,59.3,0,0,0,.435,6.209c1.1,8.445,4.256,16.359,7.907,23.994.991,2.074,2.031,4.123,3.089,6.166,1.07,2.074,2.086,4.407,4.208,5.6a2.315,2.315,0,0,0,3.44-1.971c.206-2.606.278-5.229.52-7.823.242-2.569.611-5.133.865-7.7q.789-7.862,1.233-15.754c.3-5.187.6-10.453.411-15.646Z" transform="translate(-710.058 -472.5)" fill="#f9d0dd"/><path id="Trazado_8953" data-name="Trazado 8953" d="M712.122,479.423a.2.2,0,0,0,.018.03c-.012-.036-.018-.067-.03-.1a.213.213,0,0,0,.012.073Z" transform="translate(-710.869 -475.209)" fill="#f9d0dd"/></g><path id="Trazado_8954" data-name="Trazado 8954" d="M713.785,481.54a5.523,5.523,0,0,0-2.684-1.916c-4.927-2.146-9.763-4.48-14.727-6.553-1.1-.459-2.08.671-2.152,1.638-.266,3.6-.405,7.206-.683,10.809s-.635,7.188-1.058,10.773c-.429,3.567-.689,7.158-1.2,10.719-.514,3.543-1.13,7.1-1.783,10.622-.544,2.95-1.161,5.894-1.977,8.778-1.511-2.7-3.047-5.368-4.383-8.155a109.332,109.332,0,0,1-4.655-11.414,146.1,146.1,0,0,1-6.082-24.351c-.732-4.347-.913-10.307-1.312-14.7,1.149-.109,5.386,1.058,5.519,1.064.55.036.725.351.949.822.623,1.336,1.088,2.769,1.626,4.141l1.735,4.437c.218.55.937,1.064,1.523.623q10.637-7.989,20.681-16.71a.967.967,0,0,0-.677-1.638c-3.277.3-6.336-1.251-9.558-1.523a9.067,9.067,0,0,0-4.607.792,19.551,19.551,0,0,0-3.881,2.66c-1.209,1-2.37,2.074-3.664,2.968a9.522,9.522,0,0,1-3.621,1.475,7.927,7.927,0,0,0-1.965.012c-1.191.115-2.382.224-3.573.339h-1.058c-1.892,0-3.79-.03-5.683-.091-4.286-.133-8.56-.308-12.834-.683a.778.778,0,0,0-.84.478,1.955,1.955,0,0,0-2.328-.157c-2.545,1.493-4.413,3.984-6,6.414-1.5,2.291-2.739,4.734-4.075,7.121a81.986,81.986,0,0,1-5.1,7.672,78.115,78.115,0,0,0-5.163,8.1c-1.282,2.34-2.442,4.734-3.537,7.164-1.693,2.811-3.331,5.665-4.788,8.591-2.684,5.356-4.22,11.136-5.822,16.879-1.511,5.435-2.654,10.96-3.778,16.486-.339,1.058-.641,2.128-.895,3.2-.224.943-.181,1.916-.411,2.859-.1.417-.187.834-.284,1.251A2.367,2.367,0,0,0,607.422,554a3.346,3.346,0,0,0,1.9,3.99c1.542.81,3.331.719,5.018.8l11,.544c2.055.1,4.123.067,6.178.145,1.85.073,3.706.175,5.556.175a28.867,28.867,0,0,0,4.214-.29c-.06.1-.115.206-.169.308q-1.578,2.784-3.011,5.646-2.893,5.767-5.266,11.764a127.525,127.525,0,0,0-6.892,24.351,134.293,134.293,0,0,0-1.814,14.672c-.1,1.427,1.2,2.261,2.424,2.424a108.81,108.81,0,0,0,15.313.484c5.205-.054,10.4-.212,15.6-.441,10.4-.459,20.784-1.167,31.17-1.832q8.841-.571,17.683-1.137a2.461,2.461,0,0,0,2.327-1.771,29.22,29.22,0,0,0,.574-7.944,26.442,26.442,0,0,0-.592-3.893c-.03-.145-.054-.29-.085-.435a2.594,2.594,0,0,0,.6-1.493,76.06,76.06,0,0,0,.381-13.626,32.968,32.968,0,0,0-1.415-7.1,67.921,67.921,0,0,0-2.666-6.305,25.959,25.959,0,0,1-1.85-5.961,29.783,29.783,0,0,1-.272-3.065c-.054-1.245-.067-2.485-.073-3.73-.018-4.6-.036-9.207.393-13.784a54.382,54.382,0,0,1,3.029-13.2c1.56-4.347,3.44-8.572,4.655-13.04a74.877,74.877,0,0,0,2.3-13.923q.535-6.8.7-13.62c.06-2.66.085-5.314.115-7.974a5.685,5.685,0,0,0-.665-3.2ZM630.5,542.333c.762-.955,1.487-1.935,2.255-2.9,1.215-1.517,2.346-3.035,3.416-4.661a86.949,86.949,0,0,0,5.87-10.428q1.387-2.947,2.618-5.973c.26,2.176.375,4.365.52,6.547.151,2.255.163,4.522.266,6.777.085,1.922.224,3.845.351,5.761a99.556,99.556,0,0,1-15.295,4.873Z" transform="translate(-605.504 -318.991)" fill="#fff"/><path id="Trazado_8955" data-name="Trazado 8955" d="M780.8,347.565a63.749,63.749,0,0,1-3.639-10.12,41.45,41.45,0,0,1-.55-11.535c.248-4.595.5-9.189.937-13.765.441-4.637,1.257-9.237,1.723-13.862.1-.943-1.058-1.983-1.928-1.209-2.219,1.983-6.88,4.679-9.522,1.9-2.128-2.231-.895-6.142.048-8.627a.768.768,0,0,0-1.391-.653,29.763,29.763,0,0,1-10.827,10.537,28.164,28.164,0,0,1-7.091,2.805,11.762,11.762,0,0,1-4.262.55,4.3,4.3,0,0,1-2.968-1.971c-1.916-2.817-.991-6.444-.236-9.491.254-1.016-1.294-1.239-1.578-.272a28.328,28.328,0,0,1-8.724,13.566c-1.88,1.59-4.292,3.174-6.868,2.962-2.031-.175-4.129-1.6-4.3-3.76a.777.777,0,0,0-1.53-.054,84.156,84.156,0,0,1-5.943,15.567q-1.841,3.682-4,7.188c-.218.351-1.409,2.406-1.844,1.832a1.578,1.578,0,0,1-.091-.58c-.042-.423-.073-.852-.115-1.27-.06-.744-.121-1.487-.187-2.225a.929.929,0,0,0-.091-.332,6.44,6.44,0,0,0-1-4.056c.169.23.363.393-.218-.429a3.414,3.414,0,0,0-.713-.7,8.7,8.7,0,0,0-1.155-.768,9.087,9.087,0,0,0-2.388-.919c-3.651-.907-7.291.991-9.334,4a23.694,23.694,0,0,0-2.575,4.824,20.615,20.615,0,0,0-1.511,6.136,10.435,10.435,0,0,0,1.257,5.985,9.715,9.715,0,0,0,3.676,3.694,6.928,6.928,0,0,0,5.725.266,70.7,70.7,0,0,0,.393,7.605c.284,4.1.435,8.2.768,12.29a36.856,36.856,0,0,0,2.158,10.6,28.334,28.334,0,0,0,4.667,7.913,38.327,38.327,0,0,0,15.24,10.8,47.485,47.485,0,0,0,20.615,2.9A67.444,67.444,0,0,0,751.5,393.4a1.559,1.559,0,0,0,.091.707,1.758,1.758,0,0,0,2.237,1.01,49.1,49.1,0,0,0,17.254-9.407A51.577,51.577,0,0,0,778,378.693a34.22,34.22,0,0,0,5.665-9.213c2.739-7.406.018-15.041-2.878-21.927Zm-80.162-24.236h-.012s-.018-.018-.03-.018-.024-.018-.036-.03a.187.187,0,0,1,.073.054Zm-.931-.472-.06-.012c-.042-.012-.085-.024-.121-.036a.94.94,0,0,0,.187.042Z" transform="translate(-637.002 -251.884)" fill="#fff"/><path id="Trazado_8956" data-name="Trazado 8956" d="M703.353,340.936a6.172,6.172,0,0,0-.278-2.672,10.653,10.653,0,0,0-.3-1.3,4.98,4.98,0,0,0-.84-1.354,8.553,8.553,0,0,0-4.921-2.575c-4.3-.653-8.053,1.995-10.368,5.435s-2.841,8.01-2.279,12.224a13.593,13.593,0,0,0,.8,2.962c.363.979.647,1.9,1.064,2.817a13.826,13.826,0,0,0,3.525,4.9,4.909,4.909,0,0,0,6.215.109A9.817,9.817,0,0,0,699.69,355a.715.715,0,0,0-1.209-.5c-1.638,2.049-3.706,7.859-7.327,5.447a9.945,9.945,0,0,1-3.047-3.911,12.2,12.2,0,0,1-1.239-4.691,17.367,17.367,0,0,1,1.85-9.522,12.139,12.139,0,0,1,2.884-3.772,8.046,8.046,0,0,1,1.62-1.058,5.219,5.219,0,0,1,.961-.381c.133-.042.272-.079.411-.115a5.107,5.107,0,0,0,.514-.1,5.267,5.267,0,0,1,3.881,1.13c.459.351,1.137,1.052,1.723,1.493a3.8,3.8,0,0,1,1,1.922c.242.689,1.517.913,1.644,0h0Z" transform="translate(-635.915 -269.147)" fill="#010d3d"/><path id="Trazado_8957" data-name="Trazado 8957" d="M704.723,344.591c-.4,1.771-1,3.482-1.282,5.266-.3,1.874-.538,3.736-.671,5.628a69.068,69.068,0,0,0-.018,10.61c.574,6.922,2.448,13.771,6.444,19.527a37.886,37.886,0,0,0,14.261,12.23,53.532,53.532,0,0,0,21.407,5.127c13.439.623,28.1-1.989,37.923-11.922a34.98,34.98,0,0,0,9.231-16.528,26.886,26.886,0,0,0,.49-9.679c-.508-3.7-1.953-7.146-3.265-10.616a65.007,65.007,0,0,1-4.528-21.443c-.181-3.688-.157-7.563,0-11.347s.58-7.508.762-11.269a46.83,46.83,0,0,0,.03-5.6.906.906,0,0,0-1.771-.242,58.073,58.073,0,0,0-1.5,11.051c-.266,3.712-.453,7.412-.478,11.124a84.889,84.889,0,0,0,2.291,21.5c1.693,6.626,5.139,12.883,5.241,19.847a28.577,28.577,0,0,1-5.417,16.849c-7.442,10.646-20.452,14.745-32.923,15.15a57.645,57.645,0,0,1-20.881-2.811,37.364,37.364,0,0,1-15.21-9.872,33.093,33.093,0,0,1-8.034-16.649c-1.258-6.813-.732-13.784-.248-20.645a18.505,18.505,0,0,0-.018-2.388,22.609,22.609,0,0,1,.1-2.636.983.983,0,0,0-1.922-.26h0Z" transform="translate(-643.191 -257.579)" fill="#010d3d"/><path id="Trazado_8958" data-name="Trazado 8958" d="M806.138,375.14h-.012l-.181.242.26.018-.671-.508a4.8,4.8,0,0,1,.145,1.384c.012.731.1,1.469.151,2.2.1,1.372.26,2.745.411,4.111.314,2.805.8,5.6,1.179,8.4s.738,5.622,1.058,8.439c.163,1.433.363,2.866.58,4.292.1.683.212,1.366.32,2.049.115.762.345,1.511.417,2.279l1.294-1.294a17.781,17.781,0,0,1-11.849-4.595c-1.2-1.088-2.992.7-1.783,1.783a20.925,20.925,0,0,0,13.626,5.4,1.3,1.3,0,0,0,1.294-1.294c-.066-.8.012-1.584-.018-2.382s-.066-1.584-.109-2.376c-.079-1.487-.206-2.968-.375-4.455-.351-3.119-.732-6.233-1.179-9.34s-.858-6.094-1.529-9.092c-.236-1.046-1.318-7.768-3.313-6.293a.7.7,0,0,0-.248.949c.175.23.3.5.6.332a.137.137,0,0,0-.066-.254h0Z" transform="translate(-680.561 -285.347)" fill="#010d3d"/><path id="Trazado_8959" data-name="Trazado 8959" d="M819.254,348.253a.853.853,0,0,0,.012-1.257.625.625,0,0,0-.357-.175c-.048-.006-.067.066-.018.073a.769.769,0,0,1,.339,1.312c-.03.024,0,.073.03.054h0Z" transform="translate(-689.185 -274.637)" fill="#64d8cc"/><g id="Grupo_4888" data-name="Grupo 4888" transform="translate(66.459 71.123)"><path id="Trazado_8960" data-name="Trazado 8960" d="M758.29,357.788a18.66,18.66,0,0,0-1.578,9.147,27.58,27.58,0,0,0,2.062,8.977,12.186,12.186,0,0,0,5.459,6.432,12.523,12.523,0,0,0,7.853,1.052,12.964,12.964,0,0,0,6.952-3.754,19.841,19.841,0,0,0,4-6.8,24.865,24.865,0,0,0,1.348-9.026,33.051,33.051,0,0,0-.332-4.7c-.23-1.457-.84-2.406-2.382-2.557a192.645,192.645,0,0,0-22.422-.387,1.633,1.633,0,0,0,0,3.265c2.993,0,5.979-.06,8.971-.085s5.894,0,8.82-.218c1.445-.109,2.89-.254,4.335-.381-.121.012.5-.036.5-.036.012-.03-.1-.435-.206-.187a2.188,2.188,0,0,0,.012.768c.024.75.091,1.505.115,2.255a28.692,28.692,0,0,1-.786,8.155c-1.058,4.129-3.881,8.2-7.962,9.661a9.235,9.235,0,0,1-5.9.236,7.694,7.694,0,0,1-4.5-3.948,21.719,21.719,0,0,1-2.309-8.186c-.133-1.505-.115-3-.127-4.51s.212-3.047.3-4.576a1.206,1.206,0,0,0-2.231-.6Z" transform="translate(-731.05 -349.408)" fill="#343d64"/><path id="Trazado_8961" data-name="Trazado 8961" d="M743.508,353.847c-.641-1-2.061-1.372-3.107-1.789-1.155-.459-2.315-.907-3.5-1.282-2.412-.762-4.854-1.409-7.279-2.116s-4.758-1.39-7.134-2.086a37.687,37.687,0,0,0-3.893-.955c-1.227-.224-2.527-.9-3.724-.326a1.209,1.209,0,0,0-.429,1.632c.623,1.082,2.237,1.312,3.313,1.8a30.547,30.547,0,0,0,3.633,1.3q3.627,1.115,7.273,2.146c2.43.689,4.764,1.39,7.17,1.959,1.264.3,2.533.514,3.815.707,1.118.169,2.563.544,3.615,0a.715.715,0,0,0,.254-.973h0Z" transform="translate(-714.291 -345.067)" fill="#343d64"/><path id="Trazado_8962" data-name="Trazado 8962" d="M800.545,362.7c.314-.193.629-.369.955-.538.1-.048.193-.109.29-.157.03-.018.308-.145.139-.073s.145-.054.145-.054c.085-.03.175-.06.26-.085.169-.054.369-.073.538-.139s-.266.012,0,0l.272-.018a8.445,8.445,0,0,1,1.173-.03c.091,0,.187.024.278.024s.073.006-.042-.006c-.236-.03-.127-.018.32.042-.181-.024-.242-.042-.03,0l.272.054a5.459,5.459,0,0,1,.538.151c.091.03.175.06.26.091.248.085.109-.018-.018-.012.127-.012.381.187.5.254.175.1.339.224.508.332s-.284-.254-.018-.012c.067.06.139.121.206.187a4.3,4.3,0,0,0,.689.586,1.6,1.6,0,0,0,1.922-.248,1.656,1.656,0,0,0,.248-1.922,4.145,4.145,0,0,0-1.384-1.324,6.582,6.582,0,0,0-1.257-.665,7.3,7.3,0,0,0-3-.6c-1.965.042-4.25.913-5.241,2.708a1.077,1.077,0,0,0,1.463,1.463h0Z" transform="translate(-747.763 -350.394)" fill="#343d64"/><path id="Trazado_8963" data-name="Trazado 8963" d="M815.339,358.424a99.311,99.311,0,0,0,1.4,12.967c.641,3.7,1.826,7.424,5.278,9.419a9.951,9.951,0,0,0,10.368-.3c3.422-2.249,4.794-5.888,5.332-9.794a27.812,27.812,0,0,0-1.366-13.923,1.66,1.66,0,0,0-2.007-1.143c-1.584.58-3.174.157-4.782-.109a37.476,37.476,0,0,0-11.257-.3A2.816,2.816,0,0,0,815.654,357a2.281,2.281,0,0,0,1.016,2.666c2.025,1.209,3.875-1.965,1.844-3.156l-.115-.066.653.653.018,1.185-.653.653a4.237,4.237,0,0,1,1.608-.224c.768-.06,1.536-.1,2.309-.121,1.439-.036,2.89-.006,4.328.079,2.769.169,5.846,1.137,8.542.133l-2.007-1.143a34.99,34.99,0,0,1,1.137,10.622c-.193,3.041-.725,6.414-3.077,8.53a6.322,6.322,0,0,1-7,1.058c-2.739-1.384-3.476-4.365-4.008-7.194a107.121,107.121,0,0,0-3.023-12.514.965.965,0,0,0-1.886.254h0Z" transform="translate(-754.251 -348.979)" fill="#343d64"/></g><path id="Trazado_8964" data-name="Trazado 8964" d="M771.293,337.568a8.691,8.691,0,0,1,2.037-2.14,7.512,7.512,0,0,1,1.282-.719,5.709,5.709,0,0,1,.756-.23c.145-.036.284-.073.429-.1a.915.915,0,0,1,.206-.024,6.062,6.062,0,0,1,.81-.018c.121,0,.242.012.363.024-.2-.018.157.024.193.03a5.208,5.208,0,0,1,.786.212c.145.048.284.1.429.157.066.024.381.145.181.06a6.862,6.862,0,0,1,.725.375c.133.079.254.163.381.242.042.024.23.163.091.054.713.544,1.13,1.173,2.122,1.227l-.786-.212a2.191,2.191,0,0,0,.786.3c.611.091,1.451-.145,1.56-.889a3.1,3.1,0,0,0,.054-.623c-.048-.423-.066-.532-.048-.339.018.212,0,.085-.054-.387a2.822,2.822,0,0,0-.931-1.27,8.685,8.685,0,0,0-1.922-1.318,8.262,8.262,0,0,0-4.643-.8,8.174,8.174,0,0,0-4.262,1.868,6.491,6.491,0,0,0-2.3,3.772.969.969,0,0,0,1.759.744h0Z" transform="translate(-669.674 -268.432)" fill="#00b2e3"/><path id="Trazado_8965" data-name="Trazado 8965" d="M780.055,383.557a8.969,8.969,0,0,0-1.439,4.129,1.822,1.822,0,0,0,.532,1.282,1.81,1.81,0,0,0,2.563,0L782,388.6a1.8,1.8,0,0,0,.248-.913v-.06l-.054.484a7.384,7.384,0,0,1,.514-1.868l-.181.435a7.267,7.267,0,0,1,.7-1.276,1.825,1.825,0,0,0-.659-2.5,1.823,1.823,0,0,0-1.409-.181,2.012,2.012,0,0,0-1.088.84h0Z" transform="translate(-673.267 -288.807)" fill="#010d3d"/><path id="Trazado_8966" data-name="Trazado 8966" d="M828.367,383.377l-.375,1.034c-.06.163-.139.326-.181.49-.018.091-.03.181-.042.272-.006.048-.012.091-.018.139l-.06.441c.018.163.042.326.067.484l-.06-.435c.012.121-.006.242-.006.363v.363a1.368,1.368,0,0,0,.3.84,1.312,1.312,0,0,0,.719.5,1.687,1.687,0,0,0,.738,0,1.555,1.555,0,0,0,.828-.635c.145-.187.284-.375.411-.568l-.254.326a3.049,3.049,0,0,0,.508-.732,5.436,5.436,0,0,0,.333-.907l.332-1.07a1.739,1.739,0,0,0-.169-1.3,1.679,1.679,0,0,0-1.01-.774,1.711,1.711,0,0,0-1.3.169l-.345.266a1.662,1.662,0,0,0-.435.744h0Z" transform="translate(-692.676 -288.609)" fill="#010d3d"/><path id="Trazado_8967" data-name="Trazado 8967" d="M747.505,414.619a14.289,14.289,0,0,0,1.179,5.078,13.144,13.144,0,0,0,3.089,4.026,16.606,16.606,0,0,0,4.534,2.914,23.331,23.331,0,0,0,2.587.961c1.076.314,2.219.7,3.258.073l-.78.212a6.483,6.483,0,0,0,2.231-.7.636.636,0,0,0,.127-.991c-.242-.212-.508-.363-.762-.55a5.623,5.623,0,0,0-.816-.629l.55.55a3.876,3.876,0,0,0-2.5-1.36,17.993,17.993,0,0,1-2.061-.7,13.749,13.749,0,0,1-3.633-2.207,11.525,11.525,0,0,1-2.533-3.011,9.065,9.065,0,0,1-1.469-3.657A1.554,1.554,0,0,0,749,413.12a1.525,1.525,0,0,0-1.505,1.505h0Z" transform="translate(-660.963 -300.856)" fill="#010d3d"/><path id="Trazado_8968" data-name="Trazado 8968" d="M825.309,344.89c.036,0,.042-.06,0-.06a.03.03,0,1,0,0,.06Z" transform="translate(-691.722 -273.85)" fill="#00b2e3"/><path id="Trazado_8969" data-name="Trazado 8969" d="M822.884,340.638s.212-.3.085-.133c.06-.073.121-.145.187-.218a2.111,2.111,0,0,1,.206-.2c.018-.018.242-.206.145-.127s.139-.1.157-.109c.1-.06.193-.121.3-.181.085-.048.169-.091.254-.133.115-.054-.115.03.085-.036a4.447,4.447,0,0,1,.55-.169c.115-.024.224-.048.339-.066-.175.03-.012,0,.079,0a4.554,4.554,0,0,1,.574-.006,2.16,2.16,0,0,1,.284.024c-.26-.03.1.03.127.03l.278.073c.127.036-.121-.079.073.03a2.111,2.111,0,0,1,.526.32c-.048-.054-.193-.206-.073,0,.054.091.109.181.169.266a4.07,4.07,0,0,0,.375.478c.278.32-.1-.163.036.036.266.393.544.786.792,1.191a4.8,4.8,0,0,0,.55.828,2.088,2.088,0,0,0,1.5.617,1.371,1.371,0,0,0,1.185-.683,2.03,2.03,0,0,0,.145-1.844,5.191,5.191,0,0,0-.532-.9A7.266,7.266,0,0,0,830,338.28a4,4,0,0,0-1.143-.689,2.4,2.4,0,0,0-.351-.121c-.145-.054-.163-.054-.048,0a1.759,1.759,0,0,0-.187-.085,6.318,6.318,0,0,0-1.584-.484,5.77,5.77,0,0,0-5.822,2.557,1.188,1.188,0,0,0,.423,1.608,1.2,1.2,0,0,0,1.608-.423h0Z" transform="translate(-689.914 -270.686)" fill="#00b2e3"/><path id="Trazado_8970" data-name="Trazado 8970" d="M732.919,458.241c-4.014,3.162-8.137,6.257-11.97,9.642a2.687,2.687,0,0,0-.586,3.434,28.8,28.8,0,0,0,1.644,3.035c.6.979,1.215,1.965,1.88,2.9a12.229,12.229,0,0,0,2.291,2.727,1.256,1.256,0,0,0,1.693-.441,6.171,6.171,0,0,1,1.149-1.058c.369-.314.744-.617,1.112-.925.78-.647,1.554-1.306,2.327-1.959,1.548-1.318,3.162-2.551,4.715-3.863s3.023-2.569,4.51-3.875,3.337-2.533,4.782-4.02c1.33-1.372-.641-3.24-2.062-2.061-1.56,1.288-2.829,2.908-4.328,4.268s-2.932,2.654-4.413,3.972-2.914,2.678-4.437,3.936q-1.115.925-2.243,1.838c-.411.332-.822.671-1.239,1a6.084,6.084,0,0,1-1.264.931l1.4.568a24.255,24.255,0,0,0-1.838-2.436,23.087,23.087,0,0,1-1.632-2.587q-.671-1.251-1.227-2.551c-.018-.042-.266-.738-.29-.744l-.212.387c.181-.139.363-.278.538-.423.429-.339.852-.689,1.276-1.034,3.506-2.853,6.952-5.767,10.392-8.7a1.394,1.394,0,0,0,0-1.953,1.411,1.411,0,0,0-1.953,0h0Z" transform="translate(-650.09 -318.549)" fill="#010d3d"/><path id="Trazado_8971" data-name="Trazado 8971" d="M677.206,468.434c-7.442-.5-14.884-.919-22.332-1.33a36.011,36.011,0,0,0-5.35-.218c-1.886.187-2.974,1.33-4.117,2.714-2.037,2.473-4.1,4.927-6.057,7.466a164.094,164.094,0,0,0-19.176,32.506,234.772,234.772,0,0,0-12.72,35.976q-1.233,4.588-2.321,9.207c-.363,1.548-1.125,3.458-.592,5.024.58,1.723,2.654,2.346,4.177,2.962,6.015,2.442,12.707,2.878,19.122,2.388a127.515,127.515,0,0,0,19.46-3.391c6.444-1.536,12.883-3.452,18.7-6.68a34.554,34.554,0,0,0,3.984-2.587,1.526,1.526,0,0,0,.532-2.025,1.5,1.5,0,0,0-2.025-.532,70.782,70.782,0,0,1-17.211,7.212,153.4,153.4,0,0,1-18.511,3.966c-5.961.889-12.194,1.221-18.112-.145a30.95,30.95,0,0,1-4.28-1.306c-.665-.254-1.312-.538-1.953-.858-.145-.073-.29-.157-.441-.23-.478-.224-.079-.1-.06.036.073.562.079-.157.127-.387.653-3,1.415-5.991,2.182-8.965A252.041,252.041,0,0,1,621.7,514.584a165.168,165.168,0,0,1,17.514-31.738q2.566-3.609,5.374-7.049c.967-1.185,1.953-2.352,3-3.47a14.846,14.846,0,0,1,1.53-1.554,1.973,1.973,0,0,1,1.433-.29c7.134.29,14.261.852,21.395,1.161l5.247.23a1.723,1.723,0,0,0,0-3.446h0Z" transform="translate(-604.357 -322.098)" fill="#010d3d"/><path id="Trazado_8972" data-name="Trazado 8972" d="M680.521,582.55c-1.765-.085-3.524-.1-5.284-.236a34.173,34.173,0,0,0-5.278.079,89.555,89.555,0,0,0-10.682,1.5,87.755,87.755,0,0,0-10.217,2.708q-2.512.825-4.969,1.8a36,36,0,0,0-4.987,2.267c-1.669.985-3.337,1.959-4.939,3.047-.8.544-1.548,1.112-2.291,1.735a12.392,12.392,0,0,0-2.134,1.953c-.151.206.1.429.3.387a14.983,14.983,0,0,0,2.394-.883c.8-.3,1.626-.611,2.43-.955,1.505-.647,3.023-1.282,4.558-1.862,3.2-1.209,6.366-2.551,9.606-3.657a89.559,89.559,0,0,1,19.889-4.341c1.935-.193,3.869-.314,5.8-.526a43.332,43.332,0,0,1,5.816-.236c1.8.036,1.777-2.69,0-2.775h0Z" transform="translate(-614.377 -367.738)" fill="#010d3d"/><path id="Trazado_8973" data-name="Trazado 8973" d="M648.979,577.177a46.325,46.325,0,0,0,7.484-12.683c.985-2.279,1.862-4.594,2.95-6.825.544-1.112,1.082-2.225,1.656-3.319a38.247,38.247,0,0,0,1.777-3.512l-2.66-.363c-.085,1.959-.363,3.893-.544,5.84s-.314,4.008-.381,6.021-.079,3.923-.024,5.882c.024.979.073,1.959.133,2.938a9.472,9.472,0,0,0,.139,1.493,3.392,3.392,0,0,0,.719,1.318.639.639,0,0,0,1.088,0,4.631,4.631,0,0,0,.52-1.173,5.615,5.615,0,0,0-.006-1.493q-.082-1.469-.127-2.938c-.06-1.959-.079-3.923-.024-5.882a52.261,52.261,0,0,1,1.167-11.65,1.364,1.364,0,0,0-2.261-1.318,20.967,20.967,0,0,0-3.579,6.741c-.877,2.321-1.7,4.576-2.521,6.88-1.638,4.576-3.391,9.207-6.6,12.943-.641.75.429,1.844,1.094,1.094h0Z" transform="translate(-621.495 -354.633)" fill="#010d3d"/><path id="Trazado_8974" data-name="Trazado 8974" d="M651.829,624a114.577,114.577,0,0,0-12.006,21.842,95.987,95.987,0,0,0-6.42,24.218c-.157,1.209-.29,2.43-.4,3.645a20.613,20.613,0,0,0-.169,3.4c.085,1.13.048,2.34.23,3.512a18.725,18.725,0,0,0,.937,3.4.389.389,0,0,0,.744,0c.326-.955.677-1.916.913-2.9.26-1.07.29-2.152.484-3.228.357-1.983.459-4,.683-6a106.113,106.113,0,0,1,2.049-11.909,120.707,120.707,0,0,1,7.629-23.009A85.175,85.175,0,0,1,653.37,624.9c.647-.961-.895-1.838-1.542-.9Z" transform="translate(-615.609 -384.091)" fill="#010d3d"/><path id="Trazado_8975" data-name="Trazado 8975" d="M747.97,479.029a25.879,25.879,0,0,0,2.575,2.17c.429.314.865.617,1.312.9a11.791,11.791,0,0,1,1.62,1.022.821.821,0,0,0,1.161-1.161,14.537,14.537,0,0,0-2.424-2.074c-.828-.647-1.687-1.276-2.551-1.88-.943-.659-1.832.732-1.161,1.505,2.334,2.708,5.943,4.341,9.062,5.943,1.892.973,3.827,1.9,5.755,2.793a26.783,26.783,0,0,0,2.587,1.07c.883.3,1.783.393,2.624.713.792.3.768.9.744,1.669-.036,1.028-.127,2.049-.242,3.071q-.317,2.866-.852,5.695c-.744,3.948-1.8,7.829-2.666,11.752-.49,2.188-.949,4.377-1.282,6.6-.181,1.221-.339,2.442-.459,3.67a11.665,11.665,0,0,0,.018,3.639c.345,1.638,2.727,1.475,3.162,0a16.5,16.5,0,0,0,.417-3.222c.085-.949.193-1.9.333-2.847.3-2.031.641-4.062,1.028-6.082.768-4.05,1.614-8.083,2.249-12.157.32-2.055.6-4.129.725-6.209.06-1.022.091-2.043.085-3.065a8,8,0,0,0-.29-2.787c-.719-1.947-2.69-2.092-4.413-2.6a39.774,39.774,0,0,1-5.665-2.454c-2.152-1.022-4.347-1.928-6.517-2.908a11.647,11.647,0,0,1-4.891-3.44l-1.505,1.161c.816.671,1.638,1.336,2.491,1.959a15.171,15.171,0,0,0,2.648,1.783l.635-1.5a10.174,10.174,0,0,1-2.757-1.693c-.883-.635-1.747-1.306-2.569-2.013-.671-.574-1.638.357-.979.979h0Z" transform="translate(-661.066 -326.448)" fill="#010d3d"/><path id="Trazado_8976" data-name="Trazado 8976" d="M711.745,471.58a.91.91,0,0,0,0-1.82.91.91,0,0,0,0,1.82Z" transform="translate(-646.477 -323.255)" fill="#010d3d"/><path id="Trazado_8977" data-name="Trazado 8977" d="M711.567,470.841a37.176,37.176,0,0,0,.707,6.366c.314,2.1.629,4.141.949,6.215.641,4.2,1.263,8.409,1.983,12.6a76.431,76.431,0,0,0,3.41,11.867c1.348,3.917,2.763,8.022,4.189,12.018a72.211,72.211,0,0,0,5.507,12.429.817.817,0,0,0,1.475-.193,17.175,17.175,0,0,0,.538-5,31.835,31.835,0,0,1,.532-5.3c.653-3.585,1.505-7.128,2.11-10.725,1.209-7.218,1.983-14.509,2.515-21.806.3-4.1.544-8.21.774-12.315.066-1.215-1.814-1.209-1.886,0-.441,7.236-.871,14.467-1.536,21.685-.333,3.621-.756,7.236-1.312,10.833s-1.3,7.085-1.989,10.622a38.465,38.465,0,0,0-.774,5.931,20.536,20.536,0,0,1-.52,5.652l1.475-.193c-4.117-7.007-6.372-15-9.038-22.628a88.516,88.516,0,0,1-3.712-11.873c-.81-4.075-1.384-8.137-2.086-12.2l-1.221-7.061a41.465,41.465,0,0,0-1.475-6.995.309.309,0,0,0-.6.085h0Z" transform="translate(-646.753 -323.569)" fill="#010d3d"/><path id="Trazado_8978" data-name="Trazado 8978" d="M728,493.671a16.75,16.75,0,0,1-1.542,6.088c-1.01,1.862-2.727,2.66-4.008,4.147-.375.429-1.173,1.578-.375,2.007.617.333,1.245-.865,1.6-1.263.617-.7,1.372-1.257,2.013-1.928a8.325,8.325,0,0,0,1.62-2.436,19.2,19.2,0,0,0,1.143-6.614c.018-.29-.411-.278-.441,0h0Z" transform="translate(-650.775 -332.626)" fill="#010d3d"/><path id="Trazado_8979" data-name="Trazado 8979" d="M731.71,495.631a12.63,12.63,0,0,0,5.707,10.64,10.357,10.357,0,0,0,1.723.943,2.1,2.1,0,0,0,1.832.181.29.29,0,0,0,.1-.381c-.242-.484-.822-.677-1.282-.889a17.388,17.388,0,0,1-1.614-.8,11.5,11.5,0,0,1-5.707-9.7.378.378,0,0,0-.756,0h0Z" transform="translate(-654.72 -333.342)" fill="#010d3d"/><path id="Trazado_8980" data-name="Trazado 8980" d="M767.363,642.5a65.813,65.813,0,0,1,1.566,8.591c.32,2.9.738,5.743.84,8.645.212,5.779.6,11.523.326,17.308-.079,1.62-.187,3.24-.339,4.861-.073.81-.157,1.614-.248,2.424a16.967,16.967,0,0,0-.242,2.557,1.754,1.754,0,0,0,3.428.466,22.851,22.851,0,0,0,.629-4.589q.218-2.213.351-4.425.263-4.434.163-8.881a62.359,62.359,0,0,0-.683-9.032c-.508-2.974-1-5.8-1.656-8.675-.738-3.246-1.735-6.463-2.684-9.648a.753.753,0,0,0-1.451.4h0Z" transform="translate(-668.809 -391.2)" fill="#010d3d"/><path id="Trazado_8981" data-name="Trazado 8981" d="M726.812,659.673l-.339,2.684-.163,1.318-.085.659c-.012.1-.03.206-.036.3a1.983,1.983,0,0,0,.574,1.336,1.722,1.722,0,0,0,1.239.514,2.065,2.065,0,0,0,1.239-.514c.665-.526.617-1.481.707-2.249l.163-1.366.32-2.684a1.8,1.8,0,0,0-.532-1.282,1.81,1.81,0,0,0-2.563,0l-.284.369a1.8,1.8,0,0,0-.248.913h0Z" transform="translate(-652.536 -397.64)" fill="#010d3d"/><path id="Trazado_8982" data-name="Trazado 8982" d="M721.209,685.559l-.2,2.068-.1,1-.048.538a2,2,0,0,0,.568,1.536,1.734,1.734,0,0,0,1.227.508l.459-.06a1.734,1.734,0,0,0,.768-.447c.623-.49.6-1.354.677-2.074l.1-1,.2-2.068a1.816,1.816,0,0,0-1.82-1.82,1.885,1.885,0,0,0-1.288.532l-.284.369a1.822,1.822,0,0,0-.248.919h0Z" transform="translate(-650.428 -407.874)" fill="#010d3d"/><g id="Grupo_4889" data-name="Grupo 4889" transform="translate(49.308 185.264)"><path id="Trazado_8983" data-name="Trazado 8983" d="M686.029,548s.49-.484.659-.647c.066-2.636-.466-5.157.423-7.587.326-.889,1.052-2.581,1.439-3.567.066-.193.133-.381.206-.556a.694.694,0,0,0,.036-.127h.018a3.184,3.184,0,0,1,.719-1.07c.985-.877,2.158-.75,3.6.411.272.218,1.191.187,1.439.75a3.243,3.243,0,0,0-.895-.151,7.289,7.289,0,0,0-1.62.846c3.107,3.808.919,8.143.4,11.661.085.224,1.626.435,1.481,1.324-.018.1-.073.169-.169.169-1.481.048-2.394-.756-3.851-.846-1.264-.079-1.935.465-3.585.109-.351-.073-.544-.49-.308-.725" transform="translate(-685.92 -533.873)" fill="#010d3d" fill-rule="evenodd"/><path id="Trazado_8984" data-name="Trazado 8984" d="M691.017,538.694a1.382,1.382,0,0,0,.121.574c1.36,7.424-.284,10.053-1.505,7.859-.381-.689-.992-.8-.526,2.364.048.339.84.266,1.167.314.967.139,1.046.212,1.457-.133.236-.193,2.1-6.208.7-9.545a10.557,10.557,0,0,0-.707-1.572.4.4,0,0,0-.707.139" transform="translate(-686.119 -535.661)" fill="#fff" fill-rule="evenodd"/><path id="Trazado_8985" data-name="Trazado 8985" d="M690.74,535.511a.349.349,0,0,0,.3.326.243.243,0,0,0,.272-.272.343.343,0,0,0-.3-.326.243.243,0,0,0-.272.272" transform="translate(-685.576 -534.412)" fill="#fff"/></g></g><g id="Grupo_4891" data-name="Grupo 4891" transform="translate(658.409 394.231)"><path id="Trazado_8986" data-name="Trazado 8986" d="M709.46,535.833c-.266-.254-.568-.55-.889-.84-.719-.768-1.354-1.638-2.08-2.382-1.01-1.028-2.08-2.007-3.156-2.962-1.028-.913-2.068-1.808-3.18-2.618a10.24,10.24,0,0,0-1.578-1,3.563,3.563,0,0,0-2.1-.29,1.114,1.114,0,0,0-1.052,1.384,5.245,5.245,0,0,0,.84,1.874,1.234,1.234,0,0,0,.1.78c.895,1.874,1.832,3.736,2.841,5.55.06.218.121.441.169.665a1.043,1.043,0,0,0,.677.81c.308.52.617,1.04.949,1.554,1.814,2.817,3.742,5.562,5.55,8.385a.946.946,0,0,0,1.632-.955c-.792-1.409-1.548-2.835-2.321-4.256-.375-.689-.756-1.372-1.124-2.068-.187-.345-.351-.7-.514-1.058-.036-.085-.181-.332-.3-.55.133-.03.26-.054.345-.079a.511.511,0,0,0,.091-.024,8.042,8.042,0,0,0,1.463-.266l-.012-.036a1.881,1.881,0,0,0,1.215-1.088,8.549,8.549,0,0,1,1.034.871c.889.907,2.309-.52,1.39-1.39Z" transform="translate(-694.411 -512.189)" fill="#00b2e3"/><path id="Trazado_8987" data-name="Trazado 8987" d="M729.854,570.28l-.048-.03c-.036-.03-.067-.06-.1-.091-.012-.03-.024-.073-.042-.127l-.012-.054a1.417,1.417,0,0,0,.985-.967,1.438,1.438,0,0,0-.985-1.729,3.031,3.031,0,0,1-.339-.157,4.225,4.225,0,0,0-.369-.852,11.417,11.417,0,0,0-1.312-1.536c-.26-.3-.623-1.01-.931-1.463a14.6,14.6,0,0,0-1.354-1.632,27.55,27.55,0,0,1-2.648-2.92c-.786-1.112-1.282-2.448-1.983-3.615-.671-1.112-1.257-2.273-1.928-3.385s-1.384-2.182-2.019-3.325A20.714,20.714,0,0,0,714.33,545a2.268,2.268,0,0,0-3.18,0,2.291,2.291,0,0,0,0,3.18,36.082,36.082,0,0,1,2.309,3.041,35.273,35.273,0,0,1,1.832,3.434c.623,1.143,1.233,2.3,1.941,3.4.762,1.179,1.838,2.128,2.654,3.259.532.737,1.07,1.481,1.638,2.2a12.6,12.6,0,0,0-1.6-.5,3.906,3.906,0,0,0-2.847.441,10.127,10.127,0,0,0-2.8,2.291,12.992,12.992,0,0,0-3.017,7.581,13.61,13.61,0,0,0,1.777,8.059,8.948,8.948,0,0,0,7.6,4.063,2.6,2.6,0,0,0,2.352-1.789,3.16,3.16,0,0,0,.768-.538,15.4,15.4,0,0,0,1.989-3.265,29.552,29.552,0,0,1,4.582-5.822,2.42,2.42,0,0,0-.484-3.766Z" transform="translate(-700.387 -519.565)" fill="#fff"/><path id="Trazado_8988" data-name="Trazado 8988" d="M711.165,587.757a23.716,23.716,0,0,1,1.136-6.3,17.233,17.233,0,0,1,1.143-2.841,5.947,5.947,0,0,1,1.584-2.092l-.756.1c1.155.236,2.164-1.016,3.192-1.439a4.606,4.606,0,0,1,1.8-.345,1.63,1.63,0,0,0,1.62-.707,1.329,1.329,0,0,0-.7-1.8,3.469,3.469,0,0,0-2.243-.091,8.157,8.157,0,0,0-3.265,1.711,6.011,6.011,0,0,0-.647.592,2.306,2.306,0,0,0-.49.979c.187-.472-.272.139-.339.218-.169.206-.326.411-.484.623a11.464,11.464,0,0,0-1.638,3.41,28.953,28.953,0,0,0-1.161,7.98.623.623,0,0,0,1.245,0h0Z" transform="translate(-700.155 -530.537)" fill="#010d3d"/><path id="Trazado_8989" data-name="Trazado 8989" d="M721.133,562.686c-1.856-2.7-3.706-5.417-5.592-8.1a59.07,59.07,0,0,1-4.951-7.75c-.163-.326-.32-.659-.465-1a2.99,2.99,0,0,1-.224-.55c-.042-.32-.073-.133.091-.339a2.6,2.6,0,0,1,1.868-.877c1.173.115,1.995,1.578,2.569,2.448q2.748,4.153,5.532,8.288l6.311,9.4c.7,1.046,2.412.054,1.7-.991l-6.444-9.5c-2.08-3.065-4.05-6.269-6.318-9.2a4.862,4.862,0,0,0-3.246-2.176,4.408,4.408,0,0,0-3.694,1.935,2.253,2.253,0,0,0,.181,2.1,25.826,25.826,0,0,0,1.13,2.328,48.23,48.23,0,0,0,2.817,4.413c2.43,3.476,4.927,6.91,7.406,10.356.574.792,1.9.048,1.336-.78h0Z" transform="translate(-699.422 -518.766)" fill="#010d3d"/><path id="Trazado_8990" data-name="Trazado 8990" d="M726.657,578.456c1.384.4,2.781.774,4.183,1.112.7.169,1.4.339,2.11.49a3.883,3.883,0,0,0,2.448.121.976.976,0,0,0,.193-1.523,1.922,1.922,0,0,0-1.161-.5c-.357-.073-.707-.145-1.064-.212-.683-.133-1.366-.266-2.049-.411-1.384-.3-2.769-.629-4.141-.991a.991.991,0,0,0-.526,1.91h0Z" transform="translate(-706.493 -532.281)" fill="#010d3d"/><path id="Trazado_8991" data-name="Trazado 8991" d="M728.8,591.085a17.407,17.407,0,0,0,3.21,2.11.78.78,0,1,0,.6-1.427c-.073-.03-.145-.054-.218-.085-.036-.012-.272-.109-.091-.036-.127-.054-.254-.109-.375-.163-.272-.127-.538-.278-.8-.429s-.5-.3-.738-.466c-.121-.079-.242-.163-.357-.248-.06-.048-.127-.091-.187-.139-.018-.018-.212-.163-.1-.073a.727.727,0,0,0-.478-.2.683.683,0,0,0-.478.2.675.675,0,0,0,0,.949h0Z" transform="translate(-707.544 -537.589)" fill="#010d3d"/><path id="Trazado_8992" data-name="Trazado 8992" d="M710.235,595.683a25.573,25.573,0,0,0,.991,3.518,12.731,12.731,0,0,0,7.781,8.167c1.227.459,2.92,1.04,4.226.641a1.649,1.649,0,0,0,1.239-1.886,2.329,2.329,0,0,0-1.941-1.5,16.792,16.792,0,0,1-6.626-2.9,11.274,11.274,0,0,1-1.36-1.27A13.42,13.42,0,0,1,713.251,599a7.534,7.534,0,0,1-.973-1.662,13.551,13.551,0,0,1-.574-2.061c-.193-.961-1.632-.55-1.463.405h0Z" transform="translate(-700.276 -539.485)" fill="#010d3d"/><path id="Trazado_8993" data-name="Trazado 8993" d="M727.727,599.465a18.325,18.325,0,0,0,4.891,2.436c.7.23,1.016-.895.3-1.106a17.034,17.034,0,0,1-4.685-2.2.5.5,0,1,0-.508.87Z" transform="translate(-707.098 -540.987)" fill="#010d3d"/><path id="Trazado_8994" data-name="Trazado 8994" d="M726.562,605.714A10.23,10.23,0,0,0,729.24,607a7.113,7.113,0,0,0,1.469.3,3.17,3.17,0,0,0,1.469-.115c.224-.085.351-.459.079-.58a8.173,8.173,0,0,0-1.348-.393c-.435-.1-.871-.224-1.294-.363a9.229,9.229,0,0,1-2.418-1.2.615.615,0,0,0-.617,1.064h0Z" transform="translate(-706.622 -543.373)" fill="#010d3d"/><path id="Trazado_8995" data-name="Trazado 8995" d="M793.038,515.73a88.55,88.55,0,0,1-13.3,1.245c.967-2.678,1.711-5.417,2.581-8.137a1.453,1.453,0,0,0-1.771-1.771c-.629.139-1.263.272-1.892.405a3.83,3.83,0,0,0-.375-.115,2.447,2.447,0,0,0-1.662.254c-.127-.4-.26-.792-.393-1.191a1.4,1.4,0,0,0-1.669-.949c-2.618.453-5.253.756-7.889,1.064-1.257.151-2.533.193-3.8.242a3.917,3.917,0,0,1-2.72-.586,1.415,1.415,0,0,0-2.116,1.215c.03.574.06,1.143.1,1.711a30.792,30.792,0,0,0,.768,7.75c-2.261.012-4.522.054-6.777.175-2.219.121-4.921-.024-6.982.907-1.9.852-2.467,2.63-3.228,4.425q-1.641,3.818-3.271,7.647c-8.627,20.2-16.879,40.456-22.628,61.693-.81,2.986,2.279,4.413,4.377,3.271a.09.09,0,0,1,.054.012c3.089.242,5.937-.7,8.99-.9,3-.2,6.039.4,9.044.472,5.767.127,11.523-.49,17.29-.508a47.775,47.775,0,0,1,9.419.762c1.771.357,3.579.865,5.4.459a4.9,4.9,0,0,0,3.857-3.434,5.329,5.329,0,0,0-.121-2.872,6.54,6.54,0,0,0,3.875-5.8,6.667,6.667,0,0,0,1.983-1.626,2.451,2.451,0,0,0,1.384-2.835,5.478,5.478,0,0,0-2.908-5.949.91.91,0,0,0-.133-.067c1.106-4.4,1.977-9.026,3.639-13.227.828-2.08,2.176-3.893,3.053-5.955a28,28,0,0,0,1.6-6.19c1.717-9.576,5.58-18.372,9.636-27.156a3.067,3.067,0,0,0-3.416-4.437Z" transform="translate(-702.512 -504.178)" fill="#fff"/><path id="Trazado_8996" data-name="Trazado 8996" d="M795.782,521.3c-1.638.333-3.277.665-4.921.931-1.687.272-3.44.3-5.139.405-3.4.206-6.789.453-10.193.562-3.361.1-6.71.109-10.072.006-3.277-.091-6.553-.405-9.824-.435a35.522,35.522,0,0,0-11.033,1.294,2.061,2.061,0,0,0-1.415,2.485,1.942,1.942,0,0,0,.236.508c-1.783,4.371-3.549,8.748-5.108,13.2q-2.63,7.508-5.254,15.011a117.552,117.552,0,0,1-5.792,13.953,90,90,0,0,0-5.755,13.747c-.792,2.575-1.53,5.157-2.267,7.744-.75,2.612-1.808,5.126-2.461,7.756-.23.943.677,2.11,1.711,1.711.345-.133.689-.26,1.028-.4,5.749-.665,11.637.042,17.387.387q9.014.544,18.027,1.082,5.105.308,10.211.611c.895.054,1.536-1.288.78-1.874-2.5-1.959-5.507-4.347-5.574-7.829a3.772,3.772,0,0,1,5.465-3.688,1.083,1.083,0,0,0,1.094-1.868,3.01,3.01,0,0,1-.9-4.02,3.131,3.131,0,0,1,4.238-.768c.931.6,1.856-.55,1.421-1.421-.828-1.669-2.231-4.637-.393-6.154,1.922-1.59,4.377-.054,5.683,1.53a1.038,1.038,0,0,0,1.62-.212c2.992-6.614,5.677-13.4,8.137-20.228.617-1.711,1.288-3.416,1.832-5.151s.967-3.506,1.457-5.247c.979-3.506,2.14-6.94,3.385-10.362.7-1.922,1.415-3.839,2.11-5.761.326-.913.532-1.868.822-2.8.314-1.01.786-1.989,1.191-2.968.447-1.082-.81-1.922-1.735-1.741Z" transform="translate(-702.856 -510.44)" fill="#00b2e3"/><path id="Trazado_8997" data-name="Trazado 8997" d="M740.151,526.473c-1.681,5-3.815,9.836-5.652,14.781s-3.8,9.824-5.8,14.7c-3.99,9.745-8.107,19.442-11.625,29.369-.973,2.739-1.783,5.513-2.648,8.282-.441,1.409-.871,2.817-1.264,4.232-.2.707-.381,1.421-.562,2.14-.193.774-.212,1.56-.363,2.34a1.446,1.446,0,0,0,1.753,1.753c6.463-1.4,13.191-1.185,19.763-.9,6.523.284,13.04.7,19.575.738,3.7.018,7.388.06,11.081-.224,1.076-.085,1.082-1.771,0-1.687a92.906,92.906,0,0,1-9.794.248c-3.265-.079-6.6-.466-9.9-.732-6.62-.532-13.258-1.076-19.908-.973-3.736.06-7.484.345-11.2.732l1.372,1.8c.193-.623.508-1.191.713-1.814.218-.653.381-1.33.574-1.989.363-1.233.713-2.479,1.088-3.712.762-2.521,1.687-4.969,2.545-7.454,1.717-4.969,3.6-9.878,5.55-14.763,3.905-9.788,8.095-19.466,11.831-29.32,1.028-2.714,2.049-5.441,2.835-8.24s1.53-5.792,2.285-8.693a1.17,1.17,0,0,0-2.255-.623h0Z" transform="translate(-701.059 -512.169)" fill="#010d3d"/><path id="Trazado_8998" data-name="Trazado 8998" d="M808.554,622.185c4.335-3.053.508-9.189-2.1-12.03a8.785,8.785,0,0,0-5.779-3.138,3.291,3.291,0,0,0-3.573,4.014,9.94,9.94,0,0,0,2.086,3.706c.919,1.2,1.9,2.364,2.926,3.476l.955-1.239a15.177,15.177,0,0,0-5.38-2.243c-1.475-.3-3.645-.611-4.552.949-.967,1.656.623,3.748,1.62,5.006a13.7,13.7,0,0,0,4.28,3.573l1.028-1.759a12.31,12.31,0,0,0-9.292-1.59c-3.24.7-4.02,4.135-3.071,6.946a13.9,13.9,0,0,0,5.429,6.559c2.315,1.668,5.616,2.8,8.4,1.245a3.894,3.894,0,0,0,2.164-3.73,4.28,4.28,0,0,0-1.838-3.4l-.212,1.6a9.475,9.475,0,0,0,4.74-2.436,3.854,3.854,0,0,0,.562-4.589l-.623,1.523a5.122,5.122,0,0,0,3.67-3.029,4.911,4.911,0,0,0-.635-4.474.666.666,0,0,0-1.149.671,2.915,2.915,0,0,1,.212,1.554c.048-.3-.048.109-.085.193-.042.109-.1.212-.139.314-.109.248-.193.508-.3.756a3.154,3.154,0,0,1-2.128,2.007,1.045,1.045,0,0,0-.623,1.523,2.261,2.261,0,0,1-.405,2.787c-.877.931-2.376,1.209-3.567,1.505a.888.888,0,0,0-.212,1.6c1.4.991-.018,2.968-1.155,3.428-1.953.786-4-.393-5.532-1.523a11.665,11.665,0,0,1-3.887-4.419,4.9,4.9,0,0,1-.429-2.606c.157-1.016.78-1.378,1.741-1.56a14.826,14.826,0,0,1,7.569,1,1.023,1.023,0,0,0,.786-1.862,12.155,12.155,0,0,1-3.265-2.346A11.307,11.307,0,0,1,795.5,618.6c-.308-.447-1.112-1.445-.865-2.019.4-.925,2.835-.26,3.5-.1a12.55,12.55,0,0,1,4.129,1.862c.768.52,1.542-.6.955-1.239-.931-1.016-1.826-2.068-2.66-3.168a9.612,9.612,0,0,1-1.844-3.1,1.6,1.6,0,0,1,1.536-2.17,5.26,5.26,0,0,1,2.992.931,13.912,13.912,0,0,1,4.455,5.139c1.118,1.959,2.17,4.752.042,6.4-.592.459.187,1.481.8,1.046h0Z" transform="translate(-730.766 -544.345)" fill="#010d3d"/><path id="Trazado_8999" data-name="Trazado 8999" d="M762.014,525.079c13.826-2.92,28.117-1.662,42.13-2.466,2.007-.115,4.014-.272,6.015-.49.973-.109,1.947-.23,2.914-.363,1.046-.145,2.049-.429,3.071-.671L814.76,519.7q-3.4,10.963-7.164,21.806-1.886,5.423-3.851,10.809c-1.312,3.591-2.527,7.212-3.875,10.791-1.517,4.038-3.1,8.052-4.679,12.067-.4,1.016,1.215,1.427,1.626.447,1.475-3.531,2.89-7.091,4.292-10.652s2.9-7.1,4.22-10.694q3.972-10.764,7.605-21.661,2.058-6.139,4-12.315a1.133,1.133,0,0,0-1.088-1.427c-.87.1-1.753.1-2.618.224-.925.127-1.856.254-2.781.363-1.711.193-3.434.345-5.151.459-3.549.236-7.1.332-10.652.393-7.1.115-14.219.066-21.3.677a82.866,82.866,0,0,0-11.922,1.922c-1.415.332-.816,2.473.6,2.17h0Z" transform="translate(-720.202 -509.488)" fill="#010d3d"/><path id="Trazado_9000" data-name="Trazado 9000" d="M790.428,516.375c.169-1.306.381-2.6.647-3.893s.707-2.454,1-3.706l-1,.762a73.061,73.061,0,0,0,10.785.5,31.226,31.226,0,0,0,5.235-.653c1.723-.375,3.4-1.016,5.1-.514l-.617-1.511a51.751,51.751,0,0,0-3.9,9.086c-.435,1.421,1.747,2,2.213.611a70.418,70.418,0,0,1,3.464-8.657,1.044,1.044,0,0,0-.617-1.511,10,10,0,0,0-5.1.3,30.154,30.154,0,0,1-5.489.858,72.1,72.1,0,0,1-11.069-.574,1.041,1.041,0,0,0-1,.762c-.29,1.324-.369,2.7-.544,4.044s-.339,2.733-.466,4.1c-.079.883,1.251.846,1.36,0h0Z" transform="translate(-731.453 -504.659)" fill="#010d3d"/><path id="Trazado_9001" data-name="Trazado 9001" d="M786.469,514a67.433,67.433,0,0,1-.846-9.165l-1,1c3.682-.387,7.394-.659,11.093-.689,1.826-.012,3.657.012,5.483.073a5.753,5.753,0,0,1,1.209.06c.375.1.544.508.744.816.441.671.865,1.723,1.729,1.886a.683.683,0,0,0,.822-.466c.218-.937-.568-1.723-1.052-2.461a2.868,2.868,0,0,0-1.874-1.554,17.041,17.041,0,0,0-2.763-.127c-1.04-.024-2.074-.03-3.113-.03-4.1.012-8.2.139-12.284.472a1.021,1.021,0,0,0-1,1,55.889,55.889,0,0,0,1.215,9.612c.224,1.082,1.82.611,1.638-.453h0Z" transform="translate(-729.296 -503.35)" fill="#010d3d"/><path id="Trazado_9002" data-name="Trazado 9002" d="M709.3,538.418a1.71,1.71,0,0,0,.961-1.4c.06-.834-.665-1.463-1.173-2.031-1.227-1.36-2.527-2.666-3.857-3.923a41.56,41.56,0,0,0-4.226-3.537c-.7-.508-1.427-.985-2.17-1.421a8.682,8.682,0,0,0-2.454-1.149c-1.39-.29-2.872.611-2.575,2.164a12.906,12.906,0,0,0,.877,2.424,21.591,21.591,0,0,0,1.245,2.515c.895,1.529,2.116,2.811,3.041,4.31a4.832,4.832,0,0,1,.732,2.273,2.162,2.162,0,0,0,.985,1.886,2.253,2.253,0,0,1,.991.907c.26.472.514.955.792,1.421q.825,1.4,1.789,2.714c1,1.36,2.285,3.518,4.232,3.391.925-.06.931-1.511,0-1.445a2.055,2.055,0,0,1-1.62-.931,24.062,24.062,0,0,1-1.536-1.959,40.077,40.077,0,0,1-2.442-3.9,2.823,2.823,0,0,0-1.124-1.209c-.308-.169-.544-.248-.653-.611a8.958,8.958,0,0,1-.115-1.13,7.763,7.763,0,0,0-1.814-3.385,26.411,26.411,0,0,1-2.545-3.664,20.208,20.208,0,0,1-.967-1.995c-.2-.49-.883-1.771-.538-2.267.689-.991,3.156.858,3.8,1.27a30.747,30.747,0,0,1,3.6,2.708c1.257,1.082,2.448,2.243,3.6,3.422.58.592,1.149,1.2,1.729,1.789.5.508,1.783,1.39.907,2.092-.405.32.109.883.526.677h0Z" transform="translate(-693.767 -511.872)" fill="#010d3d"/></g><g id="Grupo_4896" data-name="Grupo 4896" transform="translate(729.973 311.679)"><g id="Grupo_4893" data-name="Grupo 4893" transform="translate(94.704 171.096)"><path id="Trazado_9003" data-name="Trazado 9003" d="M1055.517,662.345c-1.463-2.817-4.655-3.639-7.436-4.564a12.977,12.977,0,0,1-2.182-.907,3.414,3.414,0,0,0-.532-.314c-.06-.042-.121-.085-.187-.127a1.665,1.665,0,0,1,.478-.635c1.36-1.239,3.422-.689,5.006-.3a.889.889,0,0,0,.852-1.475c-2.757-3.246-7.46-2.9-10.912-1.082-1,.526-1.862,1.215-2.805,1.826a6.558,6.558,0,0,1-3.271.8c-2.285.2-4.57.441-6.831.822a43.3,43.3,0,0,0-6.541,1.572,29.8,29.8,0,0,0-3.234,1.294,3.806,3.806,0,0,0-2.225,1.977c-.7,1.965.834,4.2,2.352,5.308a5.275,5.275,0,0,0,2.932,1.01,5.4,5.4,0,0,0,2.37-.635,22.843,22.843,0,0,0,8.9,6.517c1.62.713,4.038,1.753,5.35-.079a2.02,2.02,0,0,0,.067-2.315c-.52-.756-1.384-.889-2.134-1.3a5.609,5.609,0,0,1-2.69-3.452c-.073-.272-.272-.913-.139-1.179.091-.193.29-.218.52-.272a13.964,13.964,0,0,1,3.295-.054c1,.012,1.959-.206,2.95-.254a6.04,6.04,0,0,1,2.757.55,27.562,27.562,0,0,1,5.108,3.186,7.661,7.661,0,0,0,2.714,1.608,1.7,1.7,0,0,0,2.116-1.481,5.728,5.728,0,0,0-.985-2.944c-.278-.5-.592-.985-.919-1.457,1.475-.079,2.956-.151,4.437-.23a.956.956,0,0,0,.816-1.421Z" transform="translate(-987.275 -650.511)" fill="#fff"/><g id="Grupo_4892" data-name="Grupo 4892" transform="translate(18.437)"><path id="Trazado_9004" data-name="Trazado 9004" d="M1015.711,678.443a42.172,42.172,0,0,1,7.968-6.837l-1.378-.363c2.739,4.286,6.8,7.8,12.024,8.343a5,5,0,0,0,3.537-.623,2.415,2.415,0,0,0,.756-3.18c-.653-1.118-1.844-1.427-2.926-1.9a6.466,6.466,0,0,1-2.7-1.965c-.3-.381-.768-.907-.429-1.378a2.072,2.072,0,0,1,1.439-.659,18.622,18.622,0,0,1,3.428.248,7.5,7.5,0,0,0,1.765-.06c.587-.1,1.288-.526,1.886-.308a7.58,7.58,0,0,1,1.572,1.1c.635.465,1.27.925,1.9,1.39,1.149.84,2.285,1.7,3.428,2.545a3.684,3.684,0,0,0,3.144,1c2.587-.7,1.445-3.881.363-5.362a15.421,15.421,0,0,0-5.906-4.437c-2.751-1.354-5.695-2.521-8.814-2.086-1.245.175-.731,2.11.526,1.91,2.509-.411,4.921.58,7.14,1.644a16.737,16.737,0,0,1,4.86,3.156,5.843,5.843,0,0,1,1.505,2.424c.079.272.206.744-.073.943-.381.272-1.04-.193-1.342-.393-2.128-1.409-4.165-2.986-6.227-4.492-.907-.665-1.777-1.348-2.968-1.106a14.125,14.125,0,0,1-1.584.4,7.727,7.727,0,0,1-1.542-.054c-1.928-.206-4.286-.7-5.81.895-1.632,1.7-.018,3.911,1.4,5.145a7.852,7.852,0,0,0,2.775,1.626,2.868,2.868,0,0,1,1.227.55c.351.387.067.707-.351.865a6.565,6.565,0,0,1-3.742-.284,12.941,12.941,0,0,1-3.385-1.56,17.742,17.742,0,0,1-5.151-5.368,1.021,1.021,0,0,0-1.378-.363,37.242,37.242,0,0,0-8,7.527c-.586.732.4,1.777,1.052,1.052h0Z" transform="translate(-1005.298 -655.352)" fill="#010d3d"/><path id="Trazado_9005" data-name="Trazado 9005" d="M1052.274,660.346a34.057,34.057,0,0,1,6.517.3,25.957,25.957,0,0,1,6.16,1.826,22.122,22.122,0,0,1,2.781,1.258,8.186,8.186,0,0,1,1.838,1.9,1.816,1.816,0,0,1,.224.26c.079.169.169.127.26-.115a5.265,5.265,0,0,0-.635.024c-.5,0-.991-.024-1.487-.054-1.082-.067-2.406-.351-3.41.127a.861.861,0,0,0,0,1.481c1.155.586,2.89.193,4.153.181,1.028-.012,2.412.218,2.878-.979.429-1.094-.635-1.916-1.257-2.648a6.911,6.911,0,0,0-2.648-2.019,34.125,34.125,0,0,0-7.478-2.509,19.524,19.524,0,0,0-8.016.109.445.445,0,0,0,.115.871h0Z" transform="translate(-1020.073 -653.451)" fill="#010d3d"/><path id="Trazado_9006" data-name="Trazado 9006" d="M1039.041,656.353a2.927,2.927,0,0,1,2.642-.991,14.671,14.671,0,0,0,3.125.653c.961-.048,2.116-.641,2.013-1.753-.079-.883-1.04-1.669-1.681-2.188a9.79,9.79,0,0,0-10.809-1.112c-1.85,1.046-3.391,3.053-5.652,3.18-1.215.067-2.43-.187-3.645-.212a26.07,26.07,0,0,0-3.524.169,27.586,27.586,0,0,0-12.992,5.054,28.35,28.35,0,0,0-5.247,4.927,22.269,22.269,0,0,0-3.911,6.39c-.429,1.221,1.439,1.965,2.068.871a47.448,47.448,0,0,1,3.071-5.108,25.779,25.779,0,0,1,15.108-9.673,29.192,29.192,0,0,1,6.481-.7,31.3,31.3,0,0,0,3.283.018,6.484,6.484,0,0,0,2.962-1.07c1.523-1,2.805-2.255,4.613-2.72a8.757,8.757,0,0,1,4.987.187,7.43,7.43,0,0,1,2.418,1.457c.151.139.3.284.441.435.091.1.175.187.26.29.26-.375.242-.466-.036-.278-.187-.024-.417.054-.623.03a5.459,5.459,0,0,1-.925-.236,5.929,5.929,0,0,0-3.2-.326,4.038,4.038,0,0,0-2.285,1.856c-.405.647.574,1.445,1.082.834h0Z" transform="translate(-999.295 -649.815)" fill="#010d3d"/></g><path id="Trazado_9007" data-name="Trazado 9007" d="M1005.743,670.431a26.5,26.5,0,0,1-4.788-3.863c-.756-.75-1.457-1.554-2.207-2.3-.121-.121-.248-.242-.369-.363,0-.012-.012-.018-.018-.03-.532-1.052-.973-2.116-2.14-2.612-2.182-.919-4.758,1.13-6.4,2.418a26.652,26.652,0,0,0-4.044,4,94.666,94.666,0,0,0-6.989,9.691,75.445,75.445,0,0,0-5.592,10.338,53.909,53.909,0,0,0-3.67,11.4c-.2,1.058-.357,2.128-.5,3.192a13.223,13.223,0,0,0-.206,2.884,4.537,4.537,0,0,0,1.276,2.98,6.552,6.552,0,0,0,3.827,1.378,13.178,13.178,0,0,0,6.36-.762A4.585,4.585,0,0,0,983.03,706c.357-.852.7-1.711,1.052-2.563.387-.937.635-1.529.955-2.279q.608-1.424,1.245-2.829,1.17-2.575,2.479-5.084a49.813,49.813,0,0,1,7.091-10.44c1.517-1.669,3.125-3.259,4.794-4.776,1.759-1.6,3.645-3.029,5.5-4.516A1.978,1.978,0,0,0,1005.743,670.431Z" transform="translate(-968.798 -654.25)" fill="#64d8cc"/></g><path id="Trazado_9008" data-name="Trazado 9008" d="M886.972,664.818c-12.726-17.066-9.655-41.266-7.605-61.174,1.118-7.182,3.905-15.5-.508-22.132-16.51-20.161-41.187,3.905-51.277,19.224-8.79,14.974-12.617,32.567-14.618,49.675a51.073,51.073,0,0,0-.387,15.706c.351,3.99,4.679,3.766,7.72,3.76,21.655.738,43.352.423,64.976-.961a2.433,2.433,0,0,0,1.7-4.1Z" transform="translate(-812.144 -448.662)" fill="#64d8cc"/><path id="Trazado_9009" data-name="Trazado 9009" d="M970.091,425.8a43.709,43.709,0,0,0-1.445-10.507c-.2-.713-.423-1.415-.677-2.11-.181-.478-.375-.949-.574-1.421v-.012c-.036-.066-.187-.393-.248-.538.018.03.036.066.06.115.326.665-.29-.7-.393-.919a17.429,17.429,0,0,0-2.019-3.506,17.074,17.074,0,0,0-7.9-6.021c-3.047-1.143-6.414-1.415-9.612-1.856-3.657-.5-7.333-.955-11.027-1.1a57.6,57.6,0,0,0-18.215,2.213,58.647,58.647,0,0,0-16,7.406,60.436,60.436,0,0,0-7.134,5.568c-1.07.979-2.086,2.037-3.065,3.113-.218.248-.435.5-.665.738-.091.085-.181.175-.272.266H890.9a.019.019,0,0,0-.012.006.367.367,0,0,0-.109.03l-.024.012c-.345.024-.7.054-1.046.073-3.083.163-6.191.218-9.038,1.572a10.417,10.417,0,0,0-5.356,7.545c-.054.3-.109.6-.151.907-.06.387-.073.792-.157,1.173a3.345,3.345,0,0,0,.036-.345c-.03.1-.127.75-.042.387-.006.042-.006.085-.018.139-.115.846-.2,1.693-.266,2.545a9.484,9.484,0,0,0,.973,5.453c1.536,2.684,4.582,3.8,7.539,3.8-.193.955-.411,1.9-.617,2.853a66.492,66.492,0,0,0-1.239,7.865,58.1,58.1,0,0,0,.665,15.15,57.135,57.135,0,0,0,4.546,14.582,90.393,90.393,0,0,0,6.511,12.018,43.578,43.578,0,0,0,4.649,5.973c.357.375.719.744,1.1,1.094.085.085.181.163.272.242a40.6,40.6,0,0,0-6.565,6.033c-.895,1-1.747,2.061-2.733,2.98a4.8,4.8,0,0,1-.611.453c-.26.163-.532.314-.81.459a1.428,1.428,0,0,1-.163.073q-.236.091-.49.163c-.145.042-.3.073-.447.109-.042.012-.29.054-.32.073a.488.488,0,0,0,.1-.012,2.224,2.224,0,0,0-1.88,3.283c.417.979.8,1.965,1.185,2.962a5.259,5.259,0,0,0-.127,3.543,4.1,4.1,0,0,0,2.2,2.515c.012.048.03.091.042.139.5,1.644,3.246,1.9,3.6,0l.054-.308c.067-.036.133-.066.193-.1a.021.021,0,0,1,.012-.006,15.565,15.565,0,0,0,1.245-.961l.538-.411a8.681,8.681,0,0,0,.931-1.209c.06-.085.115-.169.175-.254l8.367-5.689c1.82-1.239,3.67-2.424,5.526-3.609.9-.574,1.789-1.161,2.7-1.723.363-.23.744-.435,1.118-.647a7.609,7.609,0,0,0,.949.145,77.639,77.639,0,0,0,12.931.26c2.485-.163,4.957-.459,7.418-.816a24.8,24.8,0,0,0,5.683-1.4,22.106,22.106,0,0,0,6.517-4.141c1.4-1.239,2.745-2.563,4.063-3.893,2.69-2.72,5.374-5.755,6.94-9.292a22.35,22.35,0,0,0,1.384-3.784,27.442,27.442,0,0,0,.629-4.383c.163-2.14.109-4.286.32-6.426a72.791,72.791,0,0,1,2.442-8.929,68.779,68.779,0,0,0,1.947-9.83A48.881,48.881,0,0,1,966.348,446a85.166,85.166,0,0,0,3.228-9.31,16.569,16.569,0,0,0,.453-3.44c.018-.84-.036-1.681.006-2.515.091-1.65.121-3.289.06-4.939Zm-86.7-1.215s-.024.048-.036.066-.042.024-.066.036A.326.326,0,0,0,883.393,424.582Zm5.532,37.729s-.006.012,0,.012-.006-.012-.006-.024Zm19.762,36.436c-.06-.036-.073-.048.085.024,0,.006,0,.012.012.012l-.1-.036Z" transform="translate(-836.87 -379.088)" fill="#fff"/><path id="Trazado_9010" data-name="Trazado 9010" d="M969.146,458.956a41.528,41.528,0,0,1-1.566,4.492,27.276,27.276,0,0,0-1.56,4.812q-1.17,4.761-2.1,9.57c-1.264,6.4-2.188,12.84-3.125,19.291-.459,3.15-.967,6.3-1.7,9.395-.357,1.5-.768,2.986-1.245,4.455-.206.629-.429,1.251-.659,1.874-.29.762-.4,1.034-.659,1.62a34.624,34.624,0,0,1-1.929,3.736c-.339.562-.689,1.118-1.058,1.662-.423.617-.7.991-1.028,1.4a25.749,25.749,0,0,1-2.884,3.029c-.242.218-.5.429-.744.635l-.381.308c.085-.067.278-.2-.109.079-.562.405-1.13.8-1.717,1.161a24.41,24.41,0,0,1-7.182,3.059,33.014,33.014,0,0,1-3.8.768,38.356,38.356,0,0,1-3.863.254,45.42,45.42,0,0,1-17.532-3.784c-5.133-2.092-10.543-4.873-14.678-8.772a36.86,36.86,0,0,1-2.793-2.956c-.877-1.034-1.384-1.759-2.188-2.9a46.108,46.108,0,0,1-4.057-6.946,38.044,38.044,0,0,1-2.4-7.339,52.857,52.857,0,0,1-1.3-8.639,74.786,74.786,0,0,1,1.276-19.073c.3-1.566.635-3.119,1-4.673a2.069,2.069,0,0,0-1.415-2.491,2.04,2.04,0,0,0-2.491,1.415c-2.448,12.677-3.627,26.056.478,38.527a45.456,45.456,0,0,0,7.986,15.228c3.748,4.486,8.941,8.04,14.291,10.821,10.918,5.671,24.424,8.681,36.23,3.942a29.085,29.085,0,0,0,13.777-11.287c3.337-5.145,5.169-11.136,6.318-17.109,1.27-6.614,1.953-13.336,3.119-19.974q.862-4.9,1.9-9.763a84.023,84.023,0,0,0,2.031-10.313,33.148,33.148,0,0,1,.846-4.667,1.594,1.594,0,0,0-3.071-.846h0Z" transform="translate(-840.176 -402.798)" fill="#010d3d"/><path id="Trazado_9011" data-name="Trazado 9011" d="M892.754,435.406a8.138,8.138,0,0,0-5.8-7.5c-3.73-1.13-7.786.357-10.555,2.92a17.463,17.463,0,0,0-3.379,4.5c-.435.8-.84,1.644-1.215,2.479a26.891,26.891,0,0,0-1.318,3.168,12.669,12.669,0,0,0-.683,3.222,10.221,10.221,0,0,0,.5,3.271,10.845,10.845,0,0,0,3.2,4.957,8.751,8.751,0,0,0,6.245,2.134,5.4,5.4,0,0,0,3.567-1.312,5.123,5.123,0,0,0,.447-.592c.091-.212.181-.423.266-.641-.048.212-.03.212.06-.012a2.1,2.1,0,0,0,.254-.973c-.054-.5-.066-.55-.048-.133.024-.145.042-.29.054-.441.079-.659-.665-1.022-1.2-.919a3.38,3.38,0,0,1-.357.06h.635c.5.079-.3-.066-.423-.091a2.01,2.01,0,0,0-.538-.024l-.236.03q-.608.073.272.018c-.018.024-.556-.091-.75-.085a6.026,6.026,0,0,0-1.4.236c-.133.036-.266.073-.405.1s-.689.042-.193.042c-.314,0-.623.03-.943.012-.133-.006-.58-.091-.1,0-.139-.024-.272-.054-.411-.085s-.272-.073-.405-.115c.012,0-.611-.248-.308-.1s-.333-.187-.3-.169c-.2-.109-.387-.236-.574-.363.308.212-.29-.254-.387-.351-.133-.133-.266-.266-.387-.411-.06-.073-.357-.453-.127-.145a7.815,7.815,0,0,1-.5-.762c-.1-.163-.181-.332-.266-.5q-.082-.154-.145-.308c.073.169.079.181.018.03a12.1,12.1,0,0,1-.526-2.007,17.5,17.5,0,0,1-.32-2.267,12.334,12.334,0,0,1,3.065-8.669,9.62,9.62,0,0,1,7.726-3.645c2.872.163,5.773,2.442,5.882,5.447a1.007,1.007,0,0,0,2.013,0h0Z" transform="translate(-834.944 -390.812)" fill="#010d3d"/><path id="Trazado_9012" data-name="Trazado 9012" d="M894.156,404.026a73.586,73.586,0,0,1-.756-7.454,63.688,63.688,0,0,0-.75-7.3c-.115-.883-.23-1.765-.26-2.654q-.018-.589,0-1.179c.006-.193.024-.393.042-.586.042-.629-.1.453.018-.157.133-.719.369-1.4.568-2.092.06-.206.169-.441.012-.115.073-.151.163-.29.236-.441.145-.3-.157.139.157-.193a3.594,3.594,0,0,0,.538-.671l-.617.617a4.412,4.412,0,0,0,.465-.266,1.684,1.684,0,0,0-.846-3.113,21.924,21.924,0,0,0-2.273-.012,6.551,6.551,0,0,1-1.7-.266c-1.439-.3-2.884-.52-4.341-.707l.665,2.454a7.705,7.705,0,0,1,6.65.212c1.13.556,2.805-.381,2.315-1.777a64.82,64.82,0,0,1-1.959-6.783L889.3,373.3a19.352,19.352,0,0,1,3.313,5.507,1.889,1.889,0,0,0,2.733,1.112,60.639,60.639,0,0,1,12.689-5.223,92.8,92.8,0,0,1,13.312-2.708,175.727,175.727,0,0,1,28.256-.919c2.666.091,5.326.018,7.992.06a19.474,19.474,0,0,1,7.545,1.245l-.453-1.735a21.249,21.249,0,0,1-5.659,5.8,1.283,1.283,0,0,0,.641,2.37,92.626,92.626,0,0,1,10.622,1.517,101.647,101.647,0,0,1,10.537,2.563c3.458,1.052,6.964,2.309,9.927,3.555,3.458,1.457,6.559,2.63,9.975,4.31a109.478,109.478,0,0,1,10.61,5.985l-.822-3.138a1.946,1.946,0,0,1-.193.248c-.169.2-.333.405-.5.6-.314.363-.635.725-.967,1.07a25.526,25.526,0,0,1-2.176,2.025c-.091.073-.453.363-.381.308.163-.127-.127.1-.127.1-.121.085-.236.175-.357.26-.387.278-.786.55-1.185.81q-1.26.816-2.594,1.505A32.864,32.864,0,0,1,996.8,402.7a53.021,53.021,0,0,1-5.876,1.56c-2.207.459-4.347.786-6.5,1.028a1.823,1.823,0,0,0-1.765,1.56,1.791,1.791,0,0,0,1.288,1.977,39.761,39.761,0,0,1,21.848,12.024v-2.358c-2.291,2.334-5.719,2.587-8.814,2.612a61.781,61.781,0,0,1-12.768-1.445,1.486,1.486,0,0,0-1.143,2.7,31.5,31.5,0,0,1,5.284,4.093,22.35,22.35,0,0,1,2.261,2.467c.042.06.1.139.145.2.212.236,0,.139.115.085.429-.193-.387.03-.157-.036a6.654,6.654,0,0,0-1.251.822c-3.639,2.134-7.92,2.714-12.073,2.793-2.5.048-5-.085-7.5-.242a1.469,1.469,0,0,0,0,2.938c5.036.32,10.162.586,15.12-.556a20.713,20.713,0,0,0,6.8-2.829c1.149-.762,2.219-1.753,2.013-3.265-.187-1.378-1.451-2.533-2.364-3.5a30.242,30.242,0,0,0-6.922-5.519l-1.143,2.7a116.917,116.917,0,0,0,14.007,1.318c3.742.163,7.907-.218,10.719-2.98a1.7,1.7,0,0,0,0-2.358,44.017,44.017,0,0,0-23.251-13.137l-.478,3.537c8.476-.671,17.5-2.37,24.5-7.514a26.755,26.755,0,0,0,5.544-5.447,2.323,2.323,0,0,0-.822-3.138,112.9,112.9,0,0,0-20.1-10.235,79.851,79.851,0,0,0-10.4-3.083c-3.615-.871-7.261-1.6-10.942-2.128-2.062-.3-4.135-.55-6.209-.738s-4.226-.23-6.336-.326l.641,2.37a38.065,38.065,0,0,0,6.366-6.457,1.292,1.292,0,0,0-.254-1.995c-4.256-2.515-9.509-2.757-14.322-3.138-2.4-.193-4.836-.181-7.242-.224s-4.933-.054-7.4-.012c-9.667.157-19.509,1.058-28.819,3.784a78.4,78.4,0,0,0-15.18,6.112l2.733,1.112a17.091,17.091,0,0,0-4.347-7.073,1.867,1.867,0,0,0-2.188-.284,1.8,1.8,0,0,0-.828,2.043,65.329,65.329,0,0,1,2.406,6.662l2.315-1.777a9.763,9.763,0,0,0-9.57.236,1.329,1.329,0,0,0,.665,2.454c1.282.054,2.6.145,3.9.284a6.089,6.089,0,0,1,1.808.369c.592.254,1.185.532,1.771.816l.4-3.053a3.192,3.192,0,0,0-.919.345l.871-.236c-2.11-.042-3.893,2.309-4.292,4.153a16.3,16.3,0,0,0,.012,6,59.721,59.721,0,0,0,1.481,7.744,80.916,80.916,0,0,1,1.675,7.926c.29,1.566,3,1.227,2.811-.381h0Z" transform="translate(-840.287 -366.796)" fill="#010d3d"/><path id="Trazado_9013" data-name="Trazado 9013" d="M925.311,474.287l-.175.955-.042.236c-.006.042-.018.085-.024.127a2.2,2.2,0,0,0,0,1.137,4.434,4.434,0,0,0,.272.641,2.012,2.012,0,0,0,1.173.925,1.333,1.333,0,0,0,.738.03.932.932,0,0,0,.26-.036,2.53,2.53,0,0,0,.49-.212,2.142,2.142,0,0,0,.52-.435,1.6,1.6,0,0,0,.429-.665,1.638,1.638,0,0,0,.115-.284l.018-.109.042-.26.163-.955a2.343,2.343,0,0,0-.206-1.59,2.3,2.3,0,0,0-1.233-.949l-.55-.073a2.021,2.021,0,0,0-1.04.284l-.417.32a2.085,2.085,0,0,0-.532.913h0Z" transform="translate(-856.771 -408.704)" fill="#010d3d"/><path id="Trazado_9014" data-name="Trazado 9014" d="M962.5,478.3c.774,6.257,1.427,12.526,2.116,18.789q.508,4.625,1.058,9.249c.193,1.59.405,3.18.6,4.77a32.285,32.285,0,0,1,.538,4.619l.284-1.046c.163-.3.067-.181-.3.345-.2.363-.109.308.266-.157a2.676,2.676,0,0,0-.556.284c-.6.242-1.2.478-1.8.7a33.782,33.782,0,0,1-3.845,1.13,27.252,27.252,0,0,1-3.591.6c-.641.06-1.288.085-1.929.127A3.308,3.308,0,0,0,952.835,519a1.65,1.65,0,0,0,0,2.267,3.215,3.215,0,0,0,2.793,1.233c.78-.036,1.566-.1,2.34-.2a37.645,37.645,0,0,0,5.247-.973,32.337,32.337,0,0,0,4.879-1.723,6.751,6.751,0,0,0,2.074-1.263,3.581,3.581,0,0,0,.895-1.517,3.116,3.116,0,0,0-.381-2.14l.284,1.046c-.1-1.62-.453-3.252-.7-4.854s-.484-3.174-.732-4.758c-.5-3.113-1.034-6.221-1.566-9.328-1.076-6.263-2.188-12.52-3.18-18.8-.2-1.276-2.436-.991-2.273.308h0Z" transform="translate(-867.603 -410.443)" fill="#010d3d"/><path id="Trazado_9015" data-name="Trazado 9015" d="M958.326,568.215l.332,1.2.079.29a3.115,3.115,0,0,0,.212.508c.042.085.085.175.127.26a1.1,1.1,0,0,0,1.209.5,1.074,1.074,0,0,0,.78-1.04,2.361,2.361,0,0,0-.03-.29,2.868,2.868,0,0,0-.085-.556l-.085-.29-.357-1.2a1.187,1.187,0,0,0-.52-.677,1.132,1.132,0,0,0-.87-.115,1.145,1.145,0,0,0-.677.52,1.207,1.207,0,0,0-.115.871h0Z" transform="translate(-869.939 -445.878)" fill="#010d3d"/><path id="Trazado_9016" data-name="Trazado 9016" d="M903.048,425.467a86.466,86.466,0,0,1-3.531,9.878,1.071,1.071,0,0,0,1.451,1.451c2.34-1.052,4.153-2.9,6.009-4.625s3.809-3.452,5.7-5.187,3.778-3.464,5.6-5.26a26.2,26.2,0,0,0,4.836-6.039l-2.841-.768a23,23,0,0,1-2.394,9.189c-1.372,2.847-3.373,5.3-3.791,8.5-.115.895.943,1.481,1.693,1.288a88.742,88.742,0,0,0,27.114-12.26l-2.255-1.735c-.931,2.6-2.69,4.679-4.22,6.94-1.251,1.856-4.069,6.287-1.342,8.065,1.336.871,3.313.218,4.728-.163a30.538,30.538,0,0,0,3.972-1.421,64.155,64.155,0,0,0,7.956-4.22,83.552,83.552,0,0,1,8.911-4.776l-2.714-2.714a42.718,42.718,0,0,0-4.443,7.381c-1.227,2.606-3.041,6.2-.26,8.385,1.391,1.094,2.974.707,4.474.109,1.348-.538,2.69-1.106,4.014-1.7a72,72,0,0,0,15.633-9.576l-2.853-2.2q-2.195,3.419-4.3,6.886c-.7,1.161-1.4,2.321-2.1,3.476a16.616,16.616,0,0,0-2.061,3.694c-.9,3.2,3.482,3.917,5.7,3.718a18.567,18.567,0,0,0,7.387-2.648l-2.817-2.164c-.218,1.227-.423,2.448-.6,3.682s-.109,2.581-.236,3.869l-.357,3.518a28.7,28.7,0,0,0-.1,3.815.607.607,0,0,0,1.185.163,26.417,26.417,0,0,0,1.155-3.373l.919-3.591c.3-1.155.762-2.255,1.046-3.4s.484-2.436.7-3.657a1.944,1.944,0,0,0-2.817-2.164,21.085,21.085,0,0,1-5.3,2.424,4.814,4.814,0,0,1-2.569.012,3.875,3.875,0,0,1-.459-.175c.23-.139.018,1.5.55.586.29-.5.592-1,.895-1.493,2.321-3.851,4.788-7.617,7.321-11.335a1.8,1.8,0,0,0-.465-2.34,1.858,1.858,0,0,0-2.382.139,72.1,72.1,0,0,1-12.266,7.708,54.8,54.8,0,0,1-6.553,2.787c-.23.079-.81.1-.375.248.151.048.03.218.012-.073.018.278,0-.133,0-.157-.012.079.042-.26.036-.236a13.855,13.855,0,0,1,1.33-3.2,42.815,42.815,0,0,1,4.389-7.1,1.988,1.988,0,0,0-.308-2.406,2.083,2.083,0,0,0-2.406-.308c-4.939,2.14-9.123,5.707-13.766,8.367a23.882,23.882,0,0,1-7.146,2.841,7.907,7.907,0,0,0-.84.151c-.079.024-.218-.042-.254.03-.091.169.49.411.387.466.036-.018.3-1.2.381-1.409a16.113,16.113,0,0,1,1.789-3.138c1.626-2.358,3.645-4.655,4.4-7.484a1.566,1.566,0,0,0-.707-1.735,1.6,1.6,0,0,0-1.862.242,65.308,65.308,0,0,1-25.959,12.1l1.644,1.644c.417-3.035,2.624-5.489,3.875-8.2a34.776,34.776,0,0,0,2.678-9.431,1.532,1.532,0,0,0-2.787-1.173c-1.4,1.983-2.708,4.02-4.238,5.906a52.907,52.907,0,0,1-5.133,5.368c-1.832,1.7-3.676,3.337-5.489,5.036s-3.482,3.458-5.713,4.522l1.56,1.2a79.7,79.7,0,0,0,3.3-10.229.885.885,0,0,0-1.7-.472h0Z" transform="translate(-846.653 -385.245)" fill="#010d3d"/><path id="Trazado_9017" data-name="Trazado 9017" d="M922.66,453.494a11.574,11.574,0,0,1,3.942-3.518,6.121,6.121,0,0,1,4.449-.369,7.806,7.806,0,0,1,2.152,1.022,20.825,20.825,0,0,1,1.868,1.566,3.888,3.888,0,0,0,2.853,1.052,2.746,2.746,0,0,0,2.684-2.612,1.95,1.95,0,0,0-3.295-1.366,1.63,1.63,0,0,0-.266.314c-.266.332-.2.278.2-.169.163-.091.345-.03.5-.085.133-.048-.091-.066-.091-.066.054.042-.254-.23-.308-.278a15.039,15.039,0,0,0-2.3-1.747,10.112,10.112,0,0,0-5.586-1.554c-3.917.193-6.487,3.482-8.591,6.432-.744,1.046.979,2.394,1.789,1.378Z" transform="translate(-855.069 -397.989)" fill="#010d3d"/><path id="Trazado_9018" data-name="Trazado 9018" d="M981.519,471.255a12.876,12.876,0,0,0,.423,3.47,5.544,5.544,0,0,0,2.575,2.878,16.993,16.993,0,0,0,3.615,1.4,24.353,24.353,0,0,0,3.881.877c.212.03.429.054.641.079.393.042-.248-.036.139.018.23.03.453.066.683.1.472.054.193.024.1,0a4.954,4.954,0,0,0,1.106.169c.006,0,.786-.024.363-.048-.2-.012.314.042.417.042a1.25,1.25,0,0,0,1.282-.919,2.686,2.686,0,0,0-.466-1.862c-.84-1.463-2.733-1.656-4.22-1.856.242.03-.157-.024-.169-.024-.163-.024-.326-.054-.49-.085-.326-.06-.647-.127-.967-.206-.641-.145-1.282-.32-1.916-.5s-1.3-.326-1.947-.508c-.26-.073-.52-.151-.774-.236-.369-.121-.187-.079-.109-.042a4.382,4.382,0,0,1-.52-.29,3.291,3.291,0,0,1-.792-.991,6.936,6.936,0,0,1-.411-1.789c-.23-1.384-2.5-1.058-2.442.332h0Z" transform="translate(-879.125 -407.625)" fill="#010d3d"/><path id="Trazado_9019" data-name="Trazado 9019" d="M984.29,488.6l-.109.991-.054.484-.024.23a2.362,2.362,0,0,0,.079.865l.242.568.375.484.484.375a1.8,1.8,0,0,0,.889.284,1.254,1.254,0,0,0,.635,0,2.324,2.324,0,0,0,1.13-.472,1.829,1.829,0,0,0,.617-.671,1.958,1.958,0,0,0,.139-.326,1.794,1.794,0,0,0,.206-.925.734.734,0,0,1,.012-.115l.024-.254.054-.508.109-1.016a2.463,2.463,0,0,0-2.4-2.4l-.641.085a2.4,2.4,0,0,0-1.058.617l-.375.484a2.379,2.379,0,0,0-.326,1.215h0Z" transform="translate(-880.142 -414.011)" fill="#010d3d"/><path id="Trazado_9020" data-name="Trazado 9020" d="M1049.551,492.136c.544-.351,1.076-.719,1.632-1.04l.822-.478a3.28,3.28,0,0,0,1.282-1.155,1.7,1.7,0,0,0-.133-1.88,1.588,1.588,0,0,0-.677-.52.816.816,0,0,0-.429-.115,1.291,1.291,0,0,0-.677.03,2.317,2.317,0,0,0-.611.248c-.073.036-.151.067-.224.109a5.143,5.143,0,0,0-.738.586l-.822.683.339-.26c-.459.351-.919.7-1.378,1.046a1.219,1.219,0,0,0-.447.411,1.179,1.179,0,0,0-.284.544,1.591,1.591,0,0,0,2.34,1.8h0Z" transform="translate(-905.08 -414.3)" fill="#010d3d"/><path id="Trazado_9021" data-name="Trazado 9021" d="M1051.315,505.085a15.523,15.523,0,0,1,2.34-.508l-.568.079c.327-.042.647-.079.973-.1a3.741,3.741,0,0,0,1.862-.417,2.138,2.138,0,0,0,1.034-1.8,2.084,2.084,0,0,0-1.034-1.8,3.116,3.116,0,0,0-1.989-.3c-.532.066-1.058.133-1.584.236a15.575,15.575,0,0,0-2.14.586,2.234,2.234,0,0,0-1.245.955,2.151,2.151,0,0,0-.212,1.6,2.081,2.081,0,0,0,2.557,1.457h0Z" transform="translate(-905.684 -419.552)" fill="#010d3d"/><path id="Trazado_9022" data-name="Trazado 9022" d="M1049.215,517.339l2.448.568,1.2.278a5.9,5.9,0,0,0,1.662.314,2.063,2.063,0,0,0,1.143-.405,1.833,1.833,0,0,0,.677-.979,1.93,1.93,0,0,0-.865-2.128,5.005,5.005,0,0,0-1.566-.417c-.423-.079-.84-.157-1.263-.23l-2.485-.453a1.917,1.917,0,0,0-1.378.181,1.79,1.79,0,0,0,.429,3.271h0Z" transform="translate(-905.385 -424.945)" fill="#010d3d"/><path id="Trazado_9023" data-name="Trazado 9023" d="M904.552,565.615c-2.714,2.255-5.544,4.328-8.325,6.5q-2.022,1.578-4.014,3.186c-.707.562-1.427,1.112-2.11,1.7s-1.282,1.258-1.935,1.874a1.609,1.609,0,0,0-.248,1.9q1.4,2.766,3.053,5.386c1.106,1.747,2.473,3.325,3.676,5.018a1.134,1.134,0,0,0,1.928,0,19.778,19.778,0,0,1,2.225-2.69,18.934,18.934,0,0,0,2.4-2.37,26.874,26.874,0,0,1,4.939-4.534c1.771-1.421,3.615-2.751,5.489-4.038.907-.629,1.856-1.2,2.8-1.771a4.846,4.846,0,0,1,1.257-.683,5.228,5.228,0,0,0,2.092-.635,2.076,2.076,0,0,0,.732-2.781,2.048,2.048,0,0,0-2.781-.732,4.533,4.533,0,0,0-1.511,1.59,3.256,3.256,0,0,1-1.106.979c-.973.689-1.941,1.39-2.926,2.062-1.983,1.348-3.929,2.751-5.81,4.238-.925.732-1.838,1.487-2.727,2.267a32.229,32.229,0,0,1-2.587,2.225,11.86,11.86,0,0,0-2.315,2.914c-.7.967-1.427,1.862-2.092,2.835h1.928a44.3,44.3,0,0,1-3.2-5.3c-1-1.777-1.922-3.664-2.751-5.562l-.248,1.9c1.4-1.094,2.726-2.176,4.026-3.385s2.551-2.388,3.815-3.6c2.533-2.418,4.975-4.9,7.581-7.242.859-.774-.387-1.971-1.251-1.251h0Z" transform="translate(-842.032 -445.333)" fill="#010d3d"/><path id="Trazado_9024" data-name="Trazado 9024" d="M889.492,602.168c-.339,1.282-.713,2.551-1.149,3.809-.218.629-.441,1.251-.683,1.868-.139.351-.278.707-.423,1.052l-.121.284c-.236.357-.1.405.393.145.006-.151-1.263-.707-1.445-.81-.49-.26-.973-.532-1.445-.828a9.27,9.27,0,0,1-2.418-2.08,24.161,24.161,0,0,1-1.669-3.089c-.568-1.016-1.372-2.025-1.947-3.107a8.455,8.455,0,0,1-.913-3.537,15.091,15.091,0,0,1,.03-1.735,8.016,8.016,0,0,0-.175-1.856.485.485,0,0,0-.877-.115,10.471,10.471,0,0,0-.55,6.589c.5,2.1,2.122,4.038,3.065,6.064a10.834,10.834,0,0,0,4.093,4.74,17.779,17.779,0,0,0,2.884,1.53c1,.411,1.995.55,2.569-.544a28.475,28.475,0,0,0,1.511-3.754c.478-1.336.9-2.7,1.269-4.069a1.038,1.038,0,0,0-2-.55h0Z" transform="translate(-837.322 -455.83)" fill="#010d3d"/><path id="Trazado_9025" data-name="Trazado 9025" d="M902.176,608.282c.943,1.886,2.019,3.712,3.138,5.5a.883.883,0,0,0,1.378.175,6.588,6.588,0,0,0,1.348-4.945c-.054-.9-.2-1.8-.326-2.69s-.169-2.291-1.1-2.817a.4.4,0,0,0-.478.06c-.677.713-.423,1.832-.29,2.7.121.816.26,1.626.333,2.442a5.911,5.911,0,0,1-.858,4.177l1.378-.175a34.517,34.517,0,0,1-3.3-5.151c-.429-.8-1.626-.1-1.221.713h0Z" transform="translate(-847.715 -460.385)" fill="#010d3d"/><path id="Trazado_9026" data-name="Trazado 9026" d="M907.482,647.982a80.207,80.207,0,0,0,.26,22.38c1.282,7.4,3.869,14.533,6.148,21.655,1,3.119,1.91,7.744,5.544,8.826a.93.93,0,0,0,1.04-1.354,31.058,31.058,0,0,1-3.579-7.835q-1.813-5.187-3.639-10.368a98.6,98.6,0,0,1-3.162-10.374,61.091,61.091,0,0,1-1.439-10.676,103.5,103.5,0,0,1,.206-12.248c.06-.895-1.282-.865-1.372,0h0Z" transform="translate(-849.587 -477.735)" fill="#010d3d"/><path id="Trazado_9027" data-name="Trazado 9027" d="M846.629,635.458c-2.805,7.786-3.561,16.214-3.482,24.442a96.812,96.812,0,0,0,3.3,24.2q.907,3.346,2.049,6.632c.369,1.052.774,2.086,1.2,3.113a7.232,7.232,0,0,0,1.91,3,.765.765,0,0,0,1.288-.532c.139-1.971-.889-3.978-1.548-5.8s-1.27-3.676-1.82-5.538a106.129,106.129,0,0,1-2.775-11.6,98.269,98.269,0,0,1-1.324-23.819,59.137,59.137,0,0,1,2.424-13.765c.248-.786-.943-1.088-1.215-.339h0Z" transform="translate(-824.402 -472.87)" fill="#010d3d"/><path id="Trazado_9028" data-name="Trazado 9028" d="M867.175,640.957c-2.086,9.709-1.306,19.714.32,29.429,1.475,8.8,3.343,17.653,6.747,25.941,1.868,4.552,4.147,9.243,7.75,12.671a.681.681,0,0,0,1.064-.822c-1.9-3.839-4.1-7.508-5.846-11.432a85.926,85.926,0,0,1-4.238-12.121c-1.137-4.123-2.074-8.439-2.884-12.707a129.4,129.4,0,0,1-2.061-14.376,60.855,60.855,0,0,1,.689-16.165c.193-1-1.324-1.439-1.542-.423h0Z" transform="translate(-833.408 -474.984)" fill="#010d3d"/><path id="Trazado_9029" data-name="Trazado 9029" d="M1012.961,396.267a56.058,56.058,0,0,0-17.526-10.592,127.205,127.205,0,0,0-20.47-5.749c-2.926-.592-5.864-1.124-8.8-1.681a24.108,24.108,0,0,0,2.049-2.98c.635-1.076.127-3-1.3-3.2a164.668,164.668,0,0,0-20.633-1.39q-5.169-.036-10.338.163a56.791,56.791,0,0,0-10.054,1.149c-3.343.731-6.614,1.783-9.9,2.757-3.222.961-6.45,1.91-9.691,2.823-2.865.81-6.088,1.753-8.137,4.056a14.148,14.148,0,0,0-3.331,8.4c-.308,3.73.592,7.545,1.566,11.118a17.95,17.95,0,0,0,1.717,4.389,9.921,9.921,0,0,0,1.566,2.037c.109.109.224.212.339.308.079.06.387.3.532.417a.343.343,0,0,0,.054.048h.006l.012.012a3.55,3.55,0,0,0,.822.478c.091.048.181.1.266.151.042.024.206.121.163.085.109.073.121.073.163.278a4.706,4.706,0,0,1-.187,1.922,11.623,11.623,0,0,1-1.717,3.766c-.6.895.774,1.953,1.5,1.155a15.341,15.341,0,0,0,1.675-2.255,1.314,1.314,0,0,0,.459-.3c.381-.393.774-.774,1.155-1.161,1.2.441,2.479-.206,3.494-.871a31.192,31.192,0,0,0,3.011-2.146,15.438,15.438,0,0,0,2.062-2.243,47.808,47.808,0,0,0,3.373-5.223c.272-.447.562-.889.871-1.312.066-.091.133-.181.2-.278.472-.411.937-.834,1.4-1.263v1.088c-.006,1.13-.073,2.418-.187,3.537a34.108,34.108,0,0,1-2.273,3.905c-1.112,1.523-2.219,3.089-3.2,4.7a2.4,2.4,0,0,0,.623,3.1,2.433,2.433,0,0,0,3.15-.187c.2-.169.405-.332.611-.5.042-.03.1-.073.121-.091.151-.1.3-.218.453-.32.514-.357,1.04-.7,1.578-1.022a37.577,37.577,0,0,1,3.355-1.753q.862-.4,1.741-.78c.133-.06.272-.115.411-.175h.012a.169.169,0,0,0,.036-.018c.314-.127.629-.254.937-.387,1.306-.532,2.612-1.064,3.911-1.614a42.644,42.644,0,0,0,6.71-3.4c.163-.109.32-.218.478-.326q-2.049,3.89-4.425,7.605c-1.318,2.061,1.264,4.449,3.283,3.283q3.083-1.786,6.2-3.4a2.547,2.547,0,0,0,1.711,1.076,2.416,2.416,0,0,0,2.63-1.717c.212-.6.417-1.215.623-1.82q4.353-2.058,8.814-3.845l-4.74,7.508a2.413,2.413,0,0,0,2.074,3.6c4.673-.127,8.669-2.473,12.393-5.1,1.771-1.251,3.518-2.545,5.374-3.676.453-.272.919-.544,1.391-.792.139-.073.284-.151.429-.212a.434.434,0,0,1,.073-.03c.121-.042.248-.079.369-.115.085-.018.139-.03.181-.042.03.066.067.133.036.03.042.085.091.163.133.248a8.84,8.84,0,0,1,.266.889c.067.248.115.5.157.744a100.986,100.986,0,0,1-7.5,9.757,2.393,2.393,0,0,0,1.669,4.032,14.4,14.4,0,0,0,6.729-1.445c-.774,3.748-1.312,7.545-1.753,11.347-.157,1.342,1.227,2.321,2.4,2.4a53.127,53.127,0,0,0,17.665-1.91,2.41,2.41,0,0,0,1.675-1.675,2.491,2.491,0,0,0-.617-2.334q-2.285-2.938-4.582-5.87l18,1.052a2.387,2.387,0,0,0,2.188-1.469,2.439,2.439,0,0,0-.5-2.612c-4.963-5.81-12.617-7.684-18.928-11.51-.242-.145-.472-.3-.714-.453a75.776,75.776,0,0,0,21.957-8.421,2.4,2.4,0,0,0,.484-3.748ZM974.21,407.215h0s.006,0,0,.012Z" transform="translate(-844.822 -368.328)" fill="#010d3d"/><g id="Grupo_4895" data-name="Grupo 4895" transform="translate(79.547 170.555)"><path id="Trazado_9030" data-name="Trazado 9030" d="M1002.867,655.611a6.238,6.238,0,0,0-1.656-2.866,7.956,7.956,0,0,0-2.8-1.693,9.844,9.844,0,0,0-7.273.647c-1.179.532-2.213,1.312-3.349,1.91a8.1,8.1,0,0,1-3.718.75,26.444,26.444,0,0,0-7.6,1.04c-4.9,1.517-9.207,4.51-13.264,7.563a22.225,22.225,0,0,0-5.84,5.658A12.879,12.879,0,0,0,955.307,676a6.018,6.018,0,0,0,1.566,3.954,4.68,4.68,0,0,0,3.494,1.457c2.932-.187,4.9-2.793,5.507-5.465a2.031,2.031,0,0,0-.3-1.59c.822-1.064,3-1.13,4.1-1.3a10.563,10.563,0,0,0,4.619-2.068c1.36-.985,2.618-2.128,4.075-2.98a2.043,2.043,0,0,1,.393-.218c.357-.085.351-.03.6.23a9.139,9.139,0,0,1,.768.9,4.749,4.749,0,0,0,1.941,1.584,2.507,2.507,0,0,0,3.343-1.282c.079-.242.024-.913.218-1.07.266-.218.768.073,1,.193.846.423,1.662.877,2.551,1.221a16.707,16.707,0,0,0,2.745.834,5.267,5.267,0,0,0,2.394.145c2.056-.556,1.094-2.775.266-3.978a9.422,9.422,0,0,1-1.457-2.309c-.157-.5-.163-.478.29-.381a5.492,5.492,0,0,1,1.209.447c1.681.822,3.18,1.929,5.12,2.019a.973.973,0,0,0,.828-1.451,16.86,16.86,0,0,0-4.619-5.078,16.019,16.019,0,0,0-2.872-1.626c-.5-.218-1-.417-1.487-.671a4.848,4.848,0,0,1-.774-.478c-.079-.06-.145-.127-.218-.193.109-.079.212-.163.266-.193.073-.042.157-.073.23-.115a1.6,1.6,0,0,0,.985-.429,10.055,10.055,0,0,1,1.179-.333,8.251,8.251,0,0,1,3.2-.024,14.415,14.415,0,0,1,2.992,1.125,2.72,2.72,0,0,0,3.138-.266,1.014,1.014,0,0,0,.26-1Z" transform="translate(-948.299 -649.59)" fill="#fff"/><g id="Grupo_4894" data-name="Grupo 4894" transform="translate(2.777)"><path id="Trazado_9031" data-name="Trazado 9031" d="M1028,665.1a.06.06,0,0,0,0-.121.06.06,0,0,0,0,.121Z" transform="translate(-979.807 -655.271)" fill="#010d3d"/><path id="Trazado_9032" data-name="Trazado 9032" d="M949.765,682.768c1.245-2.8,2.479-5.592,3.778-8.367a37.77,37.77,0,0,1,3.93-7.134,26.957,26.957,0,0,1,6.2-5.338,72.728,72.728,0,0,1,7.188-4.594,25.291,25.291,0,0,1,3.887-1.711,17.6,17.6,0,0,1,4.129-1.088,30.353,30.353,0,0,1,4.208.139,5.54,5.54,0,0,0,3.494-1.415c2.1-1.445,4.8-2.805,7.436-2.285,1.566.308,4.026,1.626,4.244,3.422a1.853,1.853,0,0,1-.054.55c-.03.169-.187.218,0,.151-.3.1-.883-.187-1.179-.308a11.623,11.623,0,0,0-3.385-.973,8.394,8.394,0,0,0-7.122,2.176c-.931.889.49,2.309,1.415,1.415a6.255,6.255,0,0,1,6.577-1.306c1.8.6,4.57,2.406,5.658-.254.907-2.213-.816-4.328-2.557-5.5a8.773,8.773,0,0,0-7.472-1.034,15.488,15.488,0,0,0-3.99,1.892c-.562.363-1.088.792-1.662,1.137a2.918,2.918,0,0,1-2.055.314,17.424,17.424,0,0,0-4.625.06,22.052,22.052,0,0,0-4.576,1.016,39.747,39.747,0,0,0-8.228,4.474,58.735,58.735,0,0,0-7.291,5.435,22.764,22.764,0,0,0-5.284,8.276c-1.415,3.391-2.684,6.843-4.062,10.247-.32.792,1.046,1.378,1.4.586h0Z" transform="translate(-948.32 -648.919)" fill="#010d3d"/><path id="Trazado_9033" data-name="Trazado 9033" d="M1005.467,661.338a30.747,30.747,0,0,1,8.258,2.66c2.237,1.1,5.6,2.98,5.471,5.876l.756-1c-1.167.157-2.309-.671-3.258-1.227a25.872,25.872,0,0,0-3.252-1.62,21.545,21.545,0,0,0-7.206-1.415c-1.2-.066-1.2,1.536-.26,1.929a28.054,28.054,0,0,1,6.233,3.428,5.144,5.144,0,0,1,1.91,2.418c.121.429.012.5-.441.586-.054.012-.472,0-.484,0a17.069,17.069,0,0,1-4.2-1.421c-.707-.308-1.4-.653-2.11-.961a2.271,2.271,0,0,0-2.321-.085,1,1,0,0,0-.447,1.094,1.97,1.97,0,0,0,1.324,1.463c.738.32,1.487.6,2.249.871a25.317,25.317,0,0,0,4.48,1.306c1.536.242,3.428,0,4.05-1.65.744-1.959-1.3-4.075-2.7-5.151a31.694,31.694,0,0,0-6.789-3.694l-.5,1.832c.623.054,1.245.127,1.856.236a16.853,16.853,0,0,1,1.8.538,32.532,32.532,0,0,1,3.67,1.2c2.267.967,4.335,2.757,6.946,2.309a1.037,1.037,0,0,0,.756-1c.042-3.5-3.077-5.858-5.888-7.321a32.369,32.369,0,0,0-9.389-3.107c-1.233-.206-1.765,1.675-.52,1.892h0Z" transform="translate(-970.374 -653.073)" fill="#010d3d"/><path id="Trazado_9034" data-name="Trazado 9034" d="M981.256,672.884a16.087,16.087,0,0,1,5.743-.943c1.741.139,2.182,2.593,2.684,3.917.109.284.417.8.339,1.106-.073.284-.435.411-.689.5a1.257,1.257,0,0,1-1.167-.073,5.406,5.406,0,0,1-1-1.245,10.281,10.281,0,0,0-1.566-1.753,1.24,1.24,0,0,0-1.711,0,16.618,16.618,0,0,1-2.14,1.626,26.265,26.265,0,0,1-2.745,1.7c-.846.459-1.681,1.01-2.563,1.4a6.165,6.165,0,0,1-3.549.175,1.622,1.622,0,0,0-2.019,1.542,4.831,4.831,0,0,1-.314,1.245c-.133.453-.26.913-.375,1.372-.254.961-.478,1.935-.677,2.914a14.754,14.754,0,0,0-.381,5.858,1.019,1.019,0,0,0,1.844.242A27.722,27.722,0,0,0,972.333,687c.181-.883.393-1.759.617-2.63a8.189,8.189,0,0,1,.895-2.72l-1.8.731c2.817.8,5.513-1.04,7.8-2.448,1.928-1.191,4.208-2.11,5.749-3.821l-1.463.187c1.342,1.022,2.013,2.932,3.772,3.361,2.086.5,4.667-1.191,4.026-3.488a25.469,25.469,0,0,0-1.348-3.385,4.519,4.519,0,0,0-2.1-2.406,6.645,6.645,0,0,0-3.609-.139,22.455,22.455,0,0,0-4.081.943c-1.076.351-.623,2.043.472,1.7h0Z" transform="translate(-956.482 -657.28)" fill="#010d3d"/></g><path id="Trazado_9035" data-name="Trazado 9035" d="M963.715,688.3c-2.291-.58-4.619-1.046-6.922-1.584l-3.337-.78c-1.161-.272-2.261-.647-3.4-.991A2.316,2.316,0,0,0,947.459,686a19.141,19.141,0,0,0-1.33,3.222c-.278,1.022-.617,2.025-.937,3.035a26.355,26.355,0,0,0-1.239,6.342c-.127,2.11-.169,4.238-.212,6.354a17.759,17.759,0,0,0,.617,6.033,3.865,3.865,0,0,0,2.424,2.539,15.681,15.681,0,0,0,3.059.32c.272.03.744.1,1.191.169.611.091,1.227.181,1.838.26a12.249,12.249,0,0,0,3.325,0,5.955,5.955,0,0,0,4.933-3.887,30.306,30.306,0,0,0,1.263-6.1c.369-2.255.895-4.492,1.457-6.71a59.117,59.117,0,0,0,1.191-5.931c0-.012.012-.018.018-.03a2.281,2.281,0,0,0-1.348-3.319Z" transform="translate(-943.726 -663.135)" fill="#64d8cc"/><path id="Trazado_9036" data-name="Trazado 9036" d="M976.6,693.055a73.552,73.552,0,0,1-1.626,8.8c-.345,1.4-.725,2.787-1.118,4.177-.193.7-.393,1.39-.568,2.086a3.439,3.439,0,0,0-.193,1.935.364.364,0,0,0,.532.218,2.827,2.827,0,0,0,.907-1.505c.266-.719.484-1.463.689-2.2.405-1.481.725-3,1-4.5.556-2.974.949-5.979,1.215-8.99.048-.544-.774-.526-.84,0h0Z" transform="translate(-955.307 -666.219)" fill="#010d3d"/></g></g><path id="Trazado_9037" data-name="Trazado 9037" d="M1039.335,707.666q-.073-22.843-.151-45.685c-.012-3.482-.018-6.964.042-10.44a1.02,1.02,0,0,0-1-1c-12.816-.973-25.663-1.548-38.521-1.9,7.793-22.4,16.631-44.422,25.953-66.228,1.324-3.1,2.69-6.191,4.111-9.255s2.9-6.112,4.425-9.11a1.07,1.07,0,0,0-.369-1.4c-4.129-3.125-9.389-3.452-14.382-3.633q-9.2-.335-18.408-.629-18.608-.617-37.2-1.251l-9.491-.326c-3-.1-6.015-.3-9.02-.3a3.445,3.445,0,0,0-3,1.282,12.81,12.81,0,0,0-1.4,3.827q-1.27,4.171-2.594,8.325-5.432,16.966-11.885,33.582c-4.782,12.321-10.023,24.46-15.3,36.569-2.69.187-5.38.339-8.077.472a.482.482,0,0,0-.018-.091l-.435-1.324a.7.7,0,0,0-.659-.508c-2.031.1-4.081.145-6.106.332a.65.65,0,0,0-.55.961,1.364,1.364,0,0,1,.115.532,1.892,1.892,0,0,1-.024.26c-.955.012-1.916,0-2.866.012-.079-.459-.157-.913-.224-1.372a.706.706,0,0,0-.683-.52q-3.827.181-7.641.079a.683.683,0,0,0-.677.671c.012.423.036.846.054,1.263-.883.054-1.759.109-2.636.181a2.649,2.649,0,0,0-1.227-1.614,5.139,5.139,0,0,0-3.361-.375c-1.342.175-3.089.81-3.3,2.231-1.39.109-2.775.224-4.165.3-.1-.429-.2-.858-.3-1.288a.572.572,0,0,0-.538-.405,28.386,28.386,0,0,0-8.065.145.546.546,0,0,0-.4.4c-.073.55-.145,1.094-.236,1.638-.967.073-2.388.018-2.394-1.094a.591.591,0,0,0-.574-.58c-.8-.036-1.6-.187-2.4-.206a23.856,23.856,0,0,0-2.545.133c-.677.054-1.505-.2-1.971.411a2.633,2.633,0,0,0-.369,1.977q-2.276.082-4.552.1a1.158,1.158,0,0,0-1.082.822c-.635,1.608-1.215,3.234-1.8,4.867a1.922,1.922,0,0,0-.054.218q-65.318.481-130.648.955l-92.344.671a1.214,1.214,0,0,0-1.2,1.2v84.636a1.218,1.218,0,0,0,1.2,1.2l164.544-1.2c54.487-.393,108.987-1.082,163.474-1.076,30.62.006,61.246.472,91.818,2.273a1.019,1.019,0,0,0,1.04-.586,1.229,1.229,0,0,0,.163-.617c0-9.5-.06-19.007-.1-28.51Z" transform="translate(-5.075 -130.137)" fill="#fff"/><g id="Grupo_4897" data-name="Grupo 4897" transform="translate(612.149 426.35)"><path id="Trazado_9038" data-name="Trazado 9038" d="M618.409,712.641l164.544-1.2c54.487-.4,108.981-1.082,163.474-1.076,15.313,0,30.626.115,45.933.459s30.59,1.276,45.885,1.542c1.221.018,1.167-1.741,0-1.862-13.566-1.366-27.259-1.62-40.879-1.965-13.638-.351-27.277-.508-40.915-.556-27.331-.1-54.663.193-81.988.393l-163.7,1.191-92.35.671a1.2,1.2,0,0,0,0,2.406h0Z" transform="translate(-617.246 -616.386)" fill="#010d3d"/><path id="Trazado_9039" data-name="Trazado 9039" d="M990.4,649.126c.562-1.632,1.124-3.259,1.632-4.915l-1.082.822c4.365-.369,8.76-.478,13.137-.683l13.137-.617c8.76-.411,17.52-.943,26.273-1.427,4.939-.272,9.908-.429,14.854-.52a.853.853,0,0,0,.756-.435c10.4-20.687,18.759-42.445,26.056-64.4q2.72-8.2,5.205-16.462c.127-.429.236-1.179.623-1.469s1.167-.151,1.626-.139c1.517.048,3.041.1,4.558.151q4.561.154,9.116.3,18.136.6,36.266,1.215,10.1.345,20.2.677c5.568.181,11.843-.079,16.667,3.162l-.369-1.4c-4.867,11.051-10.247,21.884-14.993,32.99s-9.1,22.1-13.276,33.28q-3.591,9.6-6.946,19.3c-.5,1.451,1.8,2.074,2.3.635,7.841-22.6,16.752-44.809,26.159-66.8,2.648-6.19,5.471-12.369,8.53-18.366a1.058,1.058,0,0,0-.369-1.4c-4.129-3.125-9.389-3.452-14.376-3.633q-9.2-.335-18.414-.629-18.6-.617-37.2-1.251l-9.491-.326c-3-.1-6.015-.3-9.014-.3a3.464,3.464,0,0,0-3.011,1.282,12.813,12.813,0,0,0-1.4,3.827q-1.27,4.171-2.6,8.331-5.432,16.966-11.879,33.582c-4.836,12.454-10.138,24.72-15.476,36.968l.756-.435c-8.748.617-17.514.907-26.273,1.179s-17.52.647-26.273,1.016c-4.945.206-9.9.538-14.854.562a1.166,1.166,0,0,0-1.082.822c-.635,1.608-1.215,3.24-1.8,4.867-.52,1.463,1.82,2.1,2.321.641h0Z" transform="translate(-763.862 -556.48)" fill="#010d3d"/><path id="Trazado_9040" data-name="Trazado 9040" d="M1002.122,700.23a.03.03,0,0,0,0-.06.03.03,0,0,0,0,.06Z" transform="translate(-769.438 -613.303)" fill="#010d3d"/><path id="Trazado_9041" data-name="Trazado 9041" d="M1002.09,696.037a1.873,1.873,0,0,1,.193-.955l-.381.5a6.219,6.219,0,0,1,2.811-.55,9.511,9.511,0,0,1,2.811.212l-.4-.707a2.146,2.146,0,0,0,1,2.334,4.3,4.3,0,0,0,3.186.03.6.6,0,0,0,.435-.568c.042-.629.157-1.251.242-1.88l-.4.4a29.276,29.276,0,0,1,7.762-.139l-.538-.411c.139.568.284,1.13.429,1.7a.544.544,0,0,0,.52.393c1.717-.139,3.44-.193,5.157-.278a.594.594,0,0,0,.562-.738c-.151-.985,1.572-1.33,2.261-1.427.943-.127,3.494-.278,3.252,1.33a.662.662,0,0,0,.635.828c1.306-.06,2.606-.2,3.911-.3a.653.653,0,0,0,.641-.641c.012-.623,0-1.239-.012-1.862l-.671.671c2.545.1,5.1.091,7.641,0l-.683-.52c.079.586.133,1.179.2,1.765a.772.772,0,0,0,.756.756c1.324-.054,2.654-.224,3.984-.29a.648.648,0,0,0,.6-.459,3.289,3.289,0,0,0-.018-2.074l-.611.8c2.037,0,4.075-.145,6.106-.23l-.659-.5.423,1.33c.272.84,1.608.478,1.33-.369l-.435-1.33a.691.691,0,0,0-.659-.5c-2.037.1-4.081.145-6.106.333a.646.646,0,0,0-.55.955,1.553,1.553,0,0,1-.024,1.251l.6-.459c-1.33.036-2.666-.024-3.984.03l.731.556c-.1-.647-.224-1.294-.314-1.941a.706.706,0,0,0-.683-.52q-3.818.181-7.641.079a.673.673,0,0,0-.671.671c.018.623.036,1.239.079,1.862l.641-.641c-1.3.091-2.612.139-3.911.266l.653.653a2.509,2.509,0,0,0-1.276-2.322,5.135,5.135,0,0,0-3.361-.375c-1.548.2-3.627,1.016-3.289,2.926l.562-.737c-1.717.133-3.44.29-5.157.369l.52.393c-.127-.568-.26-1.137-.393-1.711a.577.577,0,0,0-.538-.411,28.386,28.386,0,0,0-8.065.145.546.546,0,0,0-.4.4c-.1.677-.163,1.36-.3,2.025l.568-.435c-.846.1-2.9.284-2.9-1.052a.586.586,0,0,0-.574-.574c-.8-.042-1.59-.187-2.4-.212a23.839,23.839,0,0,0-2.545.133c-.677.054-1.505-.2-1.971.411a2.657,2.657,0,0,0-.363,2.055c.151,1.1,1.862.647,1.687-.466h0Z" transform="translate(-768.753 -610.21)" fill="#010d3d"/></g></g></svg>