<svg xmlns="http://www.w3.org/2000/svg" width="240" height="184.244" viewBox="0 0 240 184.244"><g id="IICE_LandingCompliance_automatizar_tareas2" transform="translate(-55.255 -189.039)" style="mix-blend-mode: normal;isolation: isolate"><g id="a" transform="translate(55.255 189.04)"><g id="Grupo_3452" data-name="Grupo 3452"><g id="Grupo_3448" data-name="Grupo 3448" transform="translate(0 21.803)"><g id="Grupo_3442" data-name="Grupo 3442" transform="translate(64.047)"><path id="Trazado_5715" data-name="Trazado 5715" d="M257.362,406.547c-7.67-10.515-9.328-23.655-12.269-35.992-1.563-5.876-2.137-13.135-7.327-17.032-5.42-4.183-13.759-2.98-18.927,1.164-7.821,5.915-4.526,17.639-11.465,24.144-7.793-15.052-1.361-20.535-13.349-16.8-.765-1.5-2.159-.321-2.238.939a2.016,2.016,0,0,0-.652,2.052c1.125,4.476,1.192,9.21,2.885,13.59,2.716,9.289,7.366,21.923,18.482,12.28a73.457,73.457,0,0,0,6.674,20.8c1.406,4.262,4.83,4.054,8.5,3.143C231.862,413.682,260.51,412.637,257.362,406.547Z" transform="translate(-178.749 -281.7)" fill="#64d8cc"/><path id="Trazado_5716" data-name="Trazado 5716" d="M183.343,275.073c.495-2.4,2.378-4,3.942-5.735a19.607,19.607,0,0,0,3.07-4.858c.832-1.777,1.484-3.627,2.17-5.454a30.217,30.217,0,0,1,2.845-6.331,13.435,13.435,0,0,1,8.637-5.685,13.252,13.252,0,0,1,10.622,2.362c3.458,2.643,5.235,6.815,7.726,10.324,4.914,6.939,10.037,14.631,9.2,23.453a24.278,24.278,0,0,1-5.46,13.129c-.731.9-1.569,1.67-2.35,2.519a1.906,1.906,0,0,0-.489,2.255c.427,1.147,1.153,2.159,1.647,3.267a10.194,10.194,0,0,1,.827,2.682,1.021,1.021,0,0,1,.692,1.046c-.09,1.254,1.046.888.838,2.131-.253,1.529-3.958,2.17-4.661.984a9.641,9.641,0,0,1-.883-1.529c-.365-.849-.737-1.687-1.1-2.536l-2.21-5.083a.115.115,0,0,1-.006-.028,18.241,18.241,0,0,1-11.87.787,19.77,19.77,0,0,1-12.859-10.942,34.217,34.217,0,0,1-2.244-9.806c-.557-.039-1.125-.045-1.715-.09a9.552,9.552,0,0,1-3.554-.961,5.3,5.3,0,0,1-2.811-5.9Z" transform="translate(-175.319 -236.104)" fill="#fff"/><path id="Trazado_5717" data-name="Trazado 5717" d="M197.96,286.887c-1.5,5.994,1.541,12.5,5.932,16.531a21.4,21.4,0,0,0,17.313,5.235,20.422,20.422,0,0,0,14.541-9.778c3.407-5.668,3.621-12.337,1.664-18.55a48.634,48.634,0,0,0-5.055-10.734c-1.068-1.737-2.232-3.407-3.289-5.151-1.136-1.884-2.069-3.874-3.205-5.758-.551-.917-2-.068-1.434.838.978,1.558,2.114,3,3.115,4.538.945,1.462,1.8,2.958,2.66,4.47a81.533,81.533,0,0,1,4.588,8.963c2.39,5.763,3.385,12.19.872,18.089a19.381,19.381,0,0,1-11.949,10.936,18.832,18.832,0,0,1-16.762-2.89,19.514,19.514,0,0,1-5.758-7.439,29.307,29.307,0,0,1-2.232-9.171c-.056-.534-.849-.731-1-.135h0Z" transform="translate(-181.597 -241.154)" fill="#010d3d"/><path id="Trazado_5718" data-name="Trazado 5718" d="M233.968,280.38l.034-.056a.272.272,0,0,0,0-.27.509.509,0,0,0-.922.191c-.225.838,1.08,1.591,1.642,1.962a36.126,36.126,0,0,0,5.578,2.84c1.917.832,3.857,1.647,5.718,2.62.135.067.562.394.714.388.264-.011-.214-.422-.141-.427-.039,0-.214.253-.242.287-.377.444-.765.883-1.158,1.31-.731.8-1.5,1.563-2.26,2.333-.849.866-1.721,1.687-2.637,2.474s-2.052,1.423-2.587,2.5a.5.5,0,0,0,.557.725,6.086,6.086,0,0,0,2.654-1.541c.815-.63,1.614-1.321,2.418-1.99a41.538,41.538,0,0,0,4.521-4.487c.658-.753,1.243-1.681.394-2.558a8.853,8.853,0,0,0-2.592-1.49c-1.861-.883-3.784-1.631-5.673-2.446-1.035-.45-2.064-.905-3.076-1.406-.54-.264-1.074-.545-1.608-.827-.247-.129-.495-.276-.748-.394s-.557-.135-.81-.242l.174.422.017-.073-.231.231h0l-.2-.264.011.067a.247.247,0,0,0,.455.124h0Z" transform="translate(-197.128 -250.582)" fill="#010d3d"/><path id="Trazado_5719" data-name="Trazado 5719" d="M217.682,285.821l-.377.219.371-.214h-.017l-.231.1a.715.715,0,0,0-.27.247.942.942,0,0,0-.2.579,3.267,3.267,0,0,0,.112,1.046,4.789,4.789,0,0,0,.242.613c.028.062.062.118.1.18a1.3,1.3,0,0,0,.517.5,1.192,1.192,0,0,0,.551.152l.292-.039a.848.848,0,0,0,.371-.2,1.082,1.082,0,0,0,.337-.439.533.533,0,0,0,.073-.276.831.831,0,0,0-.017-.439,1.555,1.555,0,0,0-.084-.242.577.577,0,0,0-.146-.253c-.034-.045-.062-.084-.1-.124-.017-.017-.028-.039-.045-.056l.174.231a4.2,4.2,0,0,1-.5-.855l.1.242c-.039-.1-.073-.2-.107-.3a.956.956,0,0,0-1.153-.675h0Z" transform="translate(-190.08 -253.194)" fill="#010d3d"/><path id="Trazado_5720" data-name="Trazado 5720" d="M244.879,276.5l-.017.107.028-.219v.022l.079-.2s-.022.028-.034.045c-.034.079-.067.163-.1.242l-.034.247a1.586,1.586,0,0,0,.011.163c.017.2.028.394.062.59l.056.337c.011.056.017.112.028.169a1.177,1.177,0,0,0,.135.326,1.259,1.259,0,0,0,.427.433,1.1,1.1,0,0,0,.562.152,1.243,1.243,0,0,0,.787-.326,1.087,1.087,0,0,0,.287-.489,1.175,1.175,0,0,0,.006-.624,1.36,1.36,0,0,0-.129-.326c-.022-.051-.051-.1-.073-.152l-.157-.309a2.393,2.393,0,0,0-.18-.281,2.021,2.021,0,0,0-.157-.225.731.731,0,0,0-.264-.242.377.377,0,0,0-.129-.056c-.056-.022-.1-.045-.157-.062l.2.084-.017-.011.169.129-.073-.073a.818.818,0,0,0-.343-.2.8.8,0,0,0-.512.039.779.779,0,0,0-.315.242.367.367,0,0,0-.1.174.562.562,0,0,0-.067.3h0Z" transform="translate(-202.269 -248.786)" fill="#010d3d"/><path id="Trazado_5721" data-name="Trazado 5721" d="M181.763,263.393c-.467-3.5-1.383-6.961-2.125-10.408-.2-.917-.377-1.844-.579-2.761a3.376,3.376,0,0,0-.978-1.906,5.151,5.151,0,0,0-.888-.624c-.309-.174-.619-.264-.2-.568.343-.247.911-.124,1.3-.112a2.8,2.8,0,0,0,1.237-.174.43.43,0,0,0,.186-.7,3.7,3.7,0,0,1,.141-4.7h-.832a19.537,19.537,0,0,1,2.778,3.593.621.621,0,0,0,1.057,0A42.086,42.086,0,0,1,192,236.111a46.738,46.738,0,0,1,5.359-3.295c.956-.506,1.934-1,2.935-1.406a4.227,4.227,0,0,1,3.256-.309l-.545-.962c-.287.793-.568,1.591-.866,2.378a.8.8,0,0,0,1.164.894,21.816,21.816,0,0,1,15.058-3.869l-.675-1.181a15.3,15.3,0,0,1-4.954,4.779.8.8,0,0,0,.613,1.456c3.593-.99,7.945-2.069,11.206.36l-.169-1.3a31.229,31.229,0,0,1-7.287,6.1.861.861,0,0,0,.433,1.591c2.03-.017,5.3-.022,5.848,2.536.242,1.119-.59,1.822-1.49,2.3a14.977,14.977,0,0,1-3.655,1.265c-1.1.253-.635,1.951.467,1.7,2.665-.619,7.045-1.985,6.388-5.539a4.669,4.669,0,0,0-2.553-3.211,11.014,11.014,0,0,0-5.01-.753l.433,1.591a32.3,32.3,0,0,0,7.6-6.4.848.848,0,0,0-.169-1.3c-3.632-2.654-8.485-1.58-12.466-.461l.613,1.456a17.469,17.469,0,0,0,5.5-5.364.8.8,0,0,0-.675-1.181,22.369,22.369,0,0,0-15.856,4.065l1.164.894c.276-.8.562-1.591.849-2.384a.8.8,0,0,0-.545-.962c-2.2-.877-4.639.495-6.573,1.468a40.232,40.232,0,0,0-5.943,3.655,45.612,45.612,0,0,0-9.654,9.694h1.057a20.678,20.678,0,0,0-3-3.807.592.592,0,0,0-.832,0,4.418,4.418,0,0,0,.1,6.129l.186-.7c-.883.3-1.8-.169-2.688.214a1.5,1.5,0,0,0-.945,1.366c-.028.787.641,1.282,1.215,1.676.776.534.838,1.6,1.029,2.457.872,3.925,1.6,7.945,2.755,11.8.169.574,1.181.5,1.1-.146h0Z" transform="translate(-172.013 -227.815)" fill="#010d3d"/><path id="Trazado_5722" data-name="Trazado 5722" d="M225.513,256.15a15.963,15.963,0,0,0-.742-1.923l-1.26.529a15.922,15.922,0,0,0,1.192,1.614c.551.72,1.794.051,1.254-.731a24.373,24.373,0,0,0-2.795-3.379.72.72,0,0,0-1.125.146,66.025,66.025,0,0,1-5.044,8.271h1.226a18.649,18.649,0,0,1-2.148-8.44.691.691,0,0,0-1.276-.349,79.576,79.576,0,0,1-6.944,11.285c-.2.27-.512.922-.843,1.023s-.663-.388-.821-.641a4.734,4.734,0,0,1-.529-2.08c-.141-1.625-.112-3.312-.984-4.751a.794.794,0,0,0-1.468.4,19.418,19.418,0,0,1-3.042,9.548l1.237-.157a8.529,8.529,0,0,1-1.906-4.391c-.118-.967-1.614-1.018-1.552,0q.194,3.256.377,6.517l.18,3.188c.034.551.084,1.108.1,1.664,0,.174-.051.742-.056.742a.734.734,0,0,0,0,1.468c.945,0,1.439-.827,1.546-1.7a21.47,21.47,0,0,0-.152-3.7q-.228-4.091-.444-8.176h-1.552a10.28,10.28,0,0,0,2.345,5.5.8.8,0,0,0,1.237-.157,21.272,21.272,0,0,0,3.256-10.346l-1.468.4c.967,1.614.557,3.66.973,5.432.371,1.574,2.075,3.846,3.8,2.345a14.463,14.463,0,0,0,2.12-2.845q1.029-1.5,1.985-3.053c1.366-2.215,2.6-4.5,3.779-6.821l-1.276-.349a19.894,19.894,0,0,0,2.294,9.154.718.718,0,0,0,1.226,0,67.13,67.13,0,0,0,5.055-8.266l-1.125.146a22.123,22.123,0,0,1,2.553,3.1l1.254-.731a18.213,18.213,0,0,0-1.361-1.715c-.54-.551-1.513.169-1.08.838a16.635,16.635,0,0,0,1.26,1.827c.3.354.86-.028.748-.433h0Z" transform="translate(-181.711 -238.204)" fill="#010d3d"/><path id="Trazado_5723" data-name="Trazado 5723" d="M177.843,249.2c2.109.9,2.092,3.621,2.322,5.55.157,1.3.349,2.592.59,3.88.118.641.247,1.282.388,1.917a15.544,15.544,0,0,1,.4,1.811,1.012,1.012,0,0,0,1,1c.551-.045,1.108-.056,1.659-.073a6.238,6.238,0,0,1,1.361.1,6.921,6.921,0,0,1,2.778,1.226,1.126,1.126,0,0,0,1.681-.877,1.287,1.287,0,0,0,.292-.9q-.143-3.213-.4-6.427a1.35,1.35,0,0,0,.2-1.243c-.129-.309-.253-.619-.377-.928-.028-.343-.067-.686-.1-1.029.067.124.141.253.208.382.253.472.484.962.7,1.451.107.236.208.467.3.7.045.1.163.377.18.422s.039.09.056.135l.045.107a1.264,1.264,0,0,0,1.164.888,1.216,1.216,0,0,0,1.164-.888c.36-1.732.753-3.458,1.192-5.173.264-1.04.523-2.092.8-3.132.079.276.141.562.191.843.017.1.034.191.045.281,0,.028.017.135.022.174.017.152.039.3.056.45.208,1.7.422,3.424,1.619,4.751a1.18,1.18,0,0,0,1.833-.236c.894-1.383,1.732-2.811,2.587-4.223.759-1.248,1.524-2.5,2.283-3.739.382-.624.759-1.248,1.141-1.872.2-.321.4-.641.585-.973.067-.124.135-.253.208-.377h0c.079.3.157.607.231.911a13.8,13.8,0,0,0,1.007,5.4,1.151,1.151,0,0,0,1.355.787.916.916,0,0,0,1.355-.236c.748-1.349,1.49-2.7,2.238-4.054.377-.686.782-1.366,1.125-2.069l.472-1h.163c-.124,0-.039-.011.039,0a1.644,1.644,0,0,1,.225.056,1.016,1.016,0,0,1,.32.174c.034.022.073.056.107.084a.965.965,0,0,0,.163.782,35.547,35.547,0,0,0,2.789,3.458.831.831,0,0,0,.534,1.445,7.5,7.5,0,0,0,1.125.017,3.214,3.214,0,0,0,.737-.079,4.947,4.947,0,0,0,.692-.281,5.014,5.014,0,0,0,1.827-1.355,2.982,2.982,0,0,0,.191-.253,2.693,2.693,0,0,0-.455-5.083.881.881,0,0,0-.169-.028,10.1,10.1,0,0,0-3.824-.416,3.216,3.216,0,0,1-1-.129c.039-.067.079-.129.118-.2s.084-.129.129-.191a5.632,5.632,0,0,1,.574-.585c.073-.067.152-.129.225-.191h0l.028-.022c.112-.073.219-.152.326-.225.253-.169.517-.326.782-.478.545-.309,1.1-.59,1.647-.894a9.917,9.917,0,0,0,3.244-2.615,1.221,1.221,0,0,0,0-1.26,1.312,1.312,0,0,0-1.08-.619,31.353,31.353,0,0,0-5.533-.084c-1.243.084-2.474.2-3.705.382.062-.1.124-.186.191-.276.022-.022.135-.163.135-.163.09-.1.186-.2.281-.3.18-.186.371-.36.568-.529.028-.022.264-.214.259-.214.084-.067.174-.129.264-.191.455-.326.933-.624,1.417-.911a1.225,1.225,0,0,0-.613-2.266,29.973,29.973,0,0,0-12.106,2.907c-.011-.141-.022-.276-.034-.416-.056-.753-.787-1.558-1.625-1.237a37.1,37.1,0,0,0-7.512,3.908,61.79,61.79,0,0,0-5.966,4.723,49.23,49.23,0,0,0-5.128,5.37c-.231.27-.467.545-.7.827l-.039-.017c-.084-.028-.157-.051-.242-.073a1.49,1.49,0,0,0-.27-.039c-.641-1.04-1.349-2.052-2.019-3.076-.32-.495-1.254-.5-1.372.18a18.313,18.313,0,0,0-.365,2.924,15.132,15.132,0,0,0,.112,2.019,6.069,6.069,0,0,1-1.018.067c-.81-.006-1.276,1.282-.444,1.636Z" transform="translate(-172.749 -228.544)" fill="#010d3d"/><path id="Trazado_5724" data-name="Trazado 5724" d="M192.245,292.284c-.152-1.186-1.513-1.782-2.491-2.21a14.693,14.693,0,0,0-3.374-1.018c-2.154-.365-4.644.028-5.651,2.227-1.766,3.874,1,9.345,5.314,9.868a12.458,12.458,0,0,0,3.267-.006,5.067,5.067,0,0,0,3.16-1.394.78.78,0,0,0-.939-1.22,19.158,19.158,0,0,1-2.182,1.007,4.4,4.4,0,0,1-2.26.073,6.006,6.006,0,0,1-3.4-2.6,6.093,6.093,0,0,1-.782-2.047,4.9,4.9,0,0,1-.067-.911,3.24,3.24,0,0,1,.118-1,2.461,2.461,0,0,1,.321-.86c.039-.051.388-.343.247-.247.073-.051.157-.1.236-.141l.124-.062c-.09.039-.09.039,0,.011a4.479,4.479,0,0,1,.472-.124c.27-.056.129-.017.067-.011a2.456,2.456,0,0,1,.287-.017,7.443,7.443,0,0,1,1.175.056c-.174-.023.062.011.079.011l.377.067c.276.056.551.112.827.18.545.129,1.085.3,1.625.45.945.264,2.244.9,3.188.394a.525.525,0,0,0,.27-.478h0Z" transform="translate(-173.988 -254.569)" fill="#010d3d"/><path id="Trazado_5725" data-name="Trazado 5725" d="M251.973,340.848a2.14,2.14,0,0,1,.41.832c.152.366.3.731.461,1.091.343.77.692,1.541,1.023,2.311s.652,1.5.973,2.243c.337.787.551,2.075,1.513,2.277a1.045,1.045,0,0,0,1.147-.467c.534-.956-.36-2.047-.8-2.9s-.849-1.631-1.293-2.435-.855-1.569-1.327-2.322c-.231-.365-.45-.742-.692-1.1a1.231,1.231,0,0,0-.967-.624.644.644,0,0,0-.45,1.091h0Z" transform="translate(-205.326 -276.812)" fill="#010d3d"/><path id="Trazado_5726" data-name="Trazado 5726" d="M244.072,345.123a17.144,17.144,0,0,0,1.985,3.683,28.3,28.3,0,0,1,1.507,3.076c.292.7.517,1.417.787,2.12.354.911,1.31.68,2.1.68,1.265,0,2.525,0,3.79-.056a.689.689,0,0,0,0-1.378,44.112,44.112,0,0,1-5.027-.073l.731.961a3.314,3.314,0,0,0-.3-1.664q-.211-.666-.455-1.316a16.72,16.72,0,0,0-1.057-2.249c-.377-.669-.8-1.3-1.243-1.94a10.533,10.533,0,0,0-1.945-2.367.526.526,0,0,0-.872.506h0Z" transform="translate(-201.94 -278.878)" fill="#010d3d"/><g id="Grupo_3440" data-name="Grupo 3440" transform="translate(58.819 109.265)"><path id="Trazado_5727" data-name="Trazado 5727" d="M324.826,426.371a33.618,33.618,0,0,0-11.651-3.627,19.351,19.351,0,0,0-5.915.332,10.326,10.326,0,0,0-5.567,2.7,2.357,2.357,0,0,0-.613,2.007,1.3,1.3,0,0,0-.2.782v.028a1.573,1.573,0,0,0,.776,1.349,5.807,5.807,0,0,0,3.84.529,13.1,13.1,0,0,0,1.6-.4c.259-.079.523-.169.787-.225.073-.017.124-.028.163-.039,0,.011.022.023.067.039a23.474,23.474,0,0,1,2.806,1.439c1.13.59,2.232,1.22,3.346,1.839a2.163,2.163,0,0,0,2.935-2.935c-.028-.051-.062-.1-.09-.146a12.574,12.574,0,0,1,4.942,3.166,1.906,1.906,0,0,0,2.963-.382,3.33,3.33,0,0,0-.152-3.424,1.771,1.771,0,0,0-.039-3.025Z" transform="translate(-285.633 -422.361)" fill="#fff"/><path id="Trazado_5728" data-name="Trazado 5728" d="M321.36,425.748c.562.3,1.08.647,1.647.933a10.172,10.172,0,0,1,1.76,1.063,11.519,11.519,0,0,1,2.688,2.935l.3-1.136c-2.17,1.141-5-.7-7.029-1.445a15.446,15.446,0,0,0-7.709-.978c-.725.112-.782,1.2-.2,1.524a19.281,19.281,0,0,1,2.519,1.659,7.9,7.9,0,0,1,2.007,1.979c.118.2.4.675.225.911-.231.3-.967.135-1.288.09a7.064,7.064,0,0,1-2.721-1.012c-1.535-.967-2.693-2.452-4.706-2.1-1.563.276-3.211,2-4.779.894-.619-.433-1.406.41-1.023,1.023a2.548,2.548,0,0,0,2.75.978,27.51,27.51,0,0,0,3.053-1.181c1.254-.365,2.12.523,3.042,1.237a8.77,8.77,0,0,0,3.149,1.569c1.046.27,2.435.529,3.385-.129a2.1,2.1,0,0,0,.534-2.643,7.238,7.238,0,0,0-2.193-2.547,20.191,20.191,0,0,0-3.121-2.165l-.2,1.524a15.257,15.257,0,0,1,8.029,1.423c2.266.928,4.723,2.148,7.1.832a.84.84,0,0,0,.3-1.136,10.811,10.811,0,0,0-3.216-3.25,12.3,12.3,0,0,0-1.962-1.029,5.291,5.291,0,0,0-2.21-.349.292.292,0,0,0-.146.54h0Z" transform="translate(-286.541 -423.487)" fill="#010d3d"/><path id="Trazado_5729" data-name="Trazado 5729" d="M334.85,434.983c.641.529,2.041,1.1,1.85,2.148-.2,1.147-1.456-.141-1.816-.484a11.061,11.061,0,0,0-2.62-1.974,4.6,4.6,0,0,0-3.554-.309.807.807,0,0,0-.371.917.852.852,0,0,0,.782.6c.455.056.978-.073,1.417-.022a4.077,4.077,0,0,1,1.153.315,8.834,8.834,0,0,1,2.333,1.771c.815.748,1.878,1.518,3.008.939a2.1,2.1,0,0,0,.855-2.474,3.4,3.4,0,0,0-2.66-2.075c-.343-.062-.714.382-.382.652h0Z" transform="translate(-297.642 -427.386)" fill="#010d3d"/><path id="Trazado_5730" data-name="Trazado 5730" d="M297.8,427.526c.495.18,1.006-.2,1.445-.416.63-.3,1.254-.618,1.884-.922a27.357,27.357,0,0,1,3.419-1.389,23.646,23.646,0,0,1,6.247-1.181,22.369,22.369,0,0,1,9.5,1.681c.933.382,1.361-1.153.422-1.524a23.622,23.622,0,0,0-17.616.135,22.628,22.628,0,0,0-3.149,1.535,13.952,13.952,0,0,0-1.484,1c-.349.276-.737.506-.765.967a.127.127,0,0,0,.09.118h0Z" transform="translate(-284.243 -422.139)" fill="#010d3d"/><path id="Trazado_5731" data-name="Trazado 5731" d="M292.358,434.479h.006s-.011-.028-.017-.045c-2.446-6.652-4.673-6.669-9.7-2.131-1.659,1.794-11.684,10.026-8.119,11.949,1.484.439,2.345,2.57,4.054,1.653,2.952-2,15.154-7.726,13.782-11.426Z" transform="translate(-273.767 -425.2)" fill="#64d8cc"/></g><path id="Trazado_5732" data-name="Trazado 5732" d="M211.867,285.032c-.1.017.191-.022.231-.028a2,2,0,0,0,.343-.141,3.981,3.981,0,0,0,.427-.242,9.3,9.3,0,0,0,.888-.658c.506-.4.99-.843,1.462-1.288a15.044,15.044,0,0,0,1.327-1.355c.214-.259.422-.517.624-.782a5.942,5.942,0,0,0,.692-.939,1.015,1.015,0,0,0-1.591-1.231,5.811,5.811,0,0,0-.647.692c-.208.231-.433.455-.652.686-.439.455-.849.933-1.293,1.389s-.877.866-1.316,1.293c-.225.219-.461.433-.675.664-.112.124-.225.247-.326.377a2.044,2.044,0,0,0-.2.253,1.05,1.05,0,0,0-.084.18c-.056.1-.067.124-.022.079a.73.73,0,0,0,.815,1.057h0Z" transform="translate(-187.464 -249.819)" fill="#010d3d"/><path id="Trazado_5733" data-name="Trazado 5733" d="M239.425,271.9a3.312,3.312,0,0,0,1.642,1.029,8.752,8.752,0,0,0,1.546.382,12.334,12.334,0,0,0,1.76.157,4.712,4.712,0,0,0,1.94-.292,1,1,0,0,0-.236-1.816,10.807,10.807,0,0,0-1.7.039,11.171,11.171,0,0,1-1.439-.067c-.124-.017-.135-.017-.039,0-.051-.006-.1-.017-.152-.022-.118-.017-.236-.039-.354-.062q-.354-.067-.708-.152a5.506,5.506,0,0,0-1.614-.309.77.77,0,0,0-.647.371.738.738,0,0,0,0,.753h0Z" transform="translate(-199.868 -246.621)" fill="#010d3d"/><path id="Trazado_5734" data-name="Trazado 5734" d="M233.265,321.362a3.432,3.432,0,0,0,0-.866.36.36,0,0,0-.523-.214,4.387,4.387,0,0,0-.208,7.473c2.7,1.721,6.539.349,8.423-1.844a4.2,4.2,0,0,0,.8-4.352,5.763,5.763,0,0,0-3.261-3.233,5.684,5.684,0,0,0-7.613,3.289,4.631,4.631,0,0,0,4.133,6.18,4.884,4.884,0,0,0,4-2.137,4.448,4.448,0,0,0,.877-4.673,3.907,3.907,0,0,0-4.234-1.844,4.248,4.248,0,0,0-3.4,2.941,3.782,3.782,0,0,0,1.6,4.1,3.131,3.131,0,0,0,4.167-.8,3.312,3.312,0,0,0,0-4.29,2.409,2.409,0,0,0-2.53-.731,2.477,2.477,0,0,0-1.6,1.929,2.585,2.585,0,0,0,3.728,2.716,2.322,2.322,0,0,0-.461-4.257,1.717,1.717,0,0,0-2.154,1.265.95.95,0,0,0,1.153,1.153c-.107.022-.253-.084-.326-.067.073-.017.32.129.41.152l.349.045c-.146-.028-.169-.028-.073,0,.124.118-.135-.084-.146-.1-.073-.079-.067-.152-.112-.236-.062-.118.118-.231-.028-.028-.006.011.039-.152.067-.141.107-.062.09-.051-.039.028a.22.22,0,0,1,.107-.056c.034,0,.174.028.174.028-.056.028-.174-.124-.073-.028-.287-.253.022-.034-.028,0-.079.056.039-.236,0-.006l-.022.107c.045-.146.039-.152-.017-.028l.028-.051c.045-.079.034-.073-.034.022-.022-.174.163-.011-.051.011a2.909,2.909,0,0,1-.321-.017c.022,0,.2.135.062.034.219.169-.011-.051.112.152-.107-.18.045,0,0,.006l.028.112c-.011-.141-.011-.163-.006-.062s0,.191,0,.287c.011-.242.017-.067-.006,0-.011.028-.129.388-.022.129a3.3,3.3,0,0,1-.169.309c-.169.3.09-.084-.045.062-.067.067-.135.141-.208.2.186-.157,0-.022-.017,0l-.1.056c.135-.051.135-.051-.006,0-.073.017-.146.039-.219.051.276-.039-.011-.006-.067-.023-.208-.067.242.135-.09-.028-.3-.152.124.146-.152-.073-.309-.242.135.18-.146-.1-.062-.062-.118-.118-.174-.18.118.135-.045-.068-.067-.107a2.235,2.235,0,0,1-.152-.281c.067.163-.079-.461-.062-.247a1.9,1.9,0,0,1-.006-.253c.011-.146.011-.169,0-.062a1.268,1.268,0,0,1,.051-.2,1.986,1.986,0,0,1,1.608-1.231,1.679,1.679,0,0,1,1.771.759,2.58,2.58,0,0,1-.658,2.21,4.456,4.456,0,0,1-.905.905,2.266,2.266,0,0,1-.95.41,2.7,2.7,0,0,1-1.985-.613,2.81,2.81,0,0,1,.084-4.122,4.048,4.048,0,0,1,5.016-.259,3.468,3.468,0,0,1,1.468,2.041,2.345,2.345,0,0,1-.765,2.2c-1.349,1.333-3.824,2.384-5.657,1.456a3.291,3.291,0,0,1-1.8-2.553,3.406,3.406,0,0,1,1.361-2.935l-.6-.157a3.423,3.423,0,0,0,.427.748.14.14,0,0,0,.259-.067h0Z" transform="translate(-196.03 -267.239)" fill="#010d3d"/><g id="Grupo_3441" data-name="Grupo 3441" transform="translate(0 38.345)"><path id="Trazado_5735" data-name="Trazado 5735" d="M213.674,321.97c-2.5-1.749-5.392-3.233-8.519-2.632-2.508.484-4.268,2.412-5.741,4.346-.1.135-.2.27-.3.4-.658.152-1.316.321-1.979.45l-.484.084c-.056.011-.1.017-.129.023s-.073.006-.129.011c-.326.034-.647.062-.973.079h-.231a58.118,58.118,0,0,0-15.429-12.123c.022-.023.051-.045.073-.067a1.406,1.406,0,0,1,.135-.1c.18-.112.354-.225.54-.32.084-.045.169-.084.253-.124.051-.022.112-.045.146-.056.292-.1.579-.208.866-.315a18.039,18.039,0,0,0,2.125-.888,5.865,5.865,0,0,0,2.885-7.36c-1.13-2.974-3.762-4.622-6.764-5.336-.641-.152-1.293-.27-1.946-.377a7.682,7.682,0,0,0-2.885-.152c-1.951.427-2.71,2.154-3.239,3.885a18.906,18.906,0,0,0-.242,10.577,1.946,1.946,0,0,0,1.04,1.26,15.8,15.8,0,0,0,2.2,4.133,22.4,22.4,0,0,0,3.042,3.278c.281.247.574.484.86.725.09.107.18.208.27.309a20.555,20.555,0,0,0,4.74,3.919c1.5,1.26,3.031,2.485,4.611,3.638a18.353,18.353,0,0,0,7.866,3.458,24.071,24.071,0,0,0,8.833-.332,33.078,33.078,0,0,0,4.082-1.153,24.141,24.141,0,0,0,4-1.642,5.08,5.08,0,0,0,2.648-3.222c.377-1.917-.748-3.346-2.232-4.386Z" transform="translate(-169.996 -296.628)" fill="#fff"/><path id="Trazado_5736" data-name="Trazado 5736" d="M178.084,297c.855.2,1.715.3,2.564.557a10.826,10.826,0,0,1,2.362,1.035,11.759,11.759,0,0,1,3.75,3.542c.95,1.417,1.957,3.4,1.186,5.077a5.156,5.156,0,0,1-2,2.12,12.7,12.7,0,0,1-1.3.708,4.47,4.47,0,0,0-1.473.827.819.819,0,0,0,.574,1.383,4.264,4.264,0,0,0,1.822-.635,11.928,11.928,0,0,0,1.715-.984,6.7,6.7,0,0,0,2.227-2.513c1.029-2.154.214-4.515-.984-6.427a11.737,11.737,0,0,0-4.538-4.155,9.529,9.529,0,0,0-5.893-1.265.379.379,0,0,0,0,.725h0Z" transform="translate(-172.951 -296.077)" fill="#010d3d"/><path id="Trazado_5737" data-name="Trazado 5737" d="M173.518,296.116a10.505,10.505,0,0,0-2.716,3.807,16.8,16.8,0,0,0-1.389,4.3,15.68,15.68,0,0,0,1.091,9.193c1.456,3.244,4.065,6.016,6.646,8.417a44.514,44.514,0,0,0,8.294,6.106,48.25,48.25,0,0,0,5.134,2.525,32.619,32.619,0,0,0,5.645,1.945,1,1,0,0,0,.529-1.917,52.92,52.92,0,0,1-8.94-3.424,42.409,42.409,0,0,1-7.939-5.364,34.626,34.626,0,0,1-6.708-7.36,14.843,14.843,0,0,1-2.277-8.564,15.226,15.226,0,0,1,.95-4.746,25.3,25.3,0,0,1,2.485-4.3c.326-.529-.371-.945-.8-.613h0Z" transform="translate(-169.16 -296.009)" fill="#010d3d"/><path id="Trazado_5738" data-name="Trazado 5738" d="M187.005,323.1a2.351,2.351,0,0,0-1.321.495.53.53,0,0,0-.107.832,34.09,34.09,0,0,0,5.032,3.087,32.008,32.008,0,0,1,4.678,3.194,37.363,37.363,0,0,1,4.06,3.885c.6.675,1.186,1.361,1.743,2.069.523.669,1.125,1.94,2.019,2.086.444.073,1.068-.112,1.141-.647a1.638,1.638,0,0,0-.444-1.456c-.292-.388-.6-.759-.917-1.125-.635-.737-1.3-1.462-2-2.137a40.348,40.348,0,0,0-4.363-3.711,45.5,45.5,0,0,0-4.824-3.109c-1.827-1-3.705-1.889-5.494-2.963l.107.832c.377-.3.776-.545.917-1.012a.245.245,0,0,0-.236-.309h0Z" transform="translate(-176.277 -307.863)" fill="#010d3d"/><path id="Trazado_5739" data-name="Trazado 5739" d="M214.364,354.567c1.383,1.378,3.649,1.867,5.5,2.176a18.583,18.583,0,0,0,12.162-2.339,17.942,17.942,0,0,0,2.575-1.827c.8-.68,1.7-1.743,1.344-2.89a.9.9,0,0,0-1.484-.394c-.332.32-.562.731-.883,1.063a11.127,11.127,0,0,1-.939.849,15.438,15.438,0,0,1-2.221,1.484,18,18,0,0,1-5.089,1.856,20.12,20.12,0,0,1-5.42.32,21.816,21.816,0,0,1-2.693-.427c-.894-.169-1.709-.444-2.587-.523a.379.379,0,0,0-.264.641h0Z" transform="translate(-188.904 -319.221)" fill="#010d3d"/><path id="Trazado_5740" data-name="Trazado 5740" d="M218.657,343a8.012,8.012,0,0,1,1.378-2.761,15.147,15.147,0,0,1,2.272-2.221,6.163,6.163,0,0,1,5.87-1.333,12.432,12.432,0,0,1,5.437,3,7.607,7.607,0,0,1,1.7,2.581,6.854,6.854,0,0,1,.41,1.5c.073.512.028.956.433,1.321a.644.644,0,0,0,.883,0c.692-.579.36-1.889.18-2.654a8.413,8.413,0,0,0-1.175-2.648,11.6,11.6,0,0,0-4.47-3.846,10.673,10.673,0,0,0-6.118-1.417,10.057,10.057,0,0,0-5.117,2.986c-1.383,1.338-3.256,3.475-2.457,5.493a.407.407,0,0,0,.776,0h0Z" transform="translate(-190.402 -312.835)" fill="#010d3d"/><path id="Trazado_5741" data-name="Trazado 5741" d="M175.726,302.859a14.4,14.4,0,0,1,1.574.6,11.909,11.909,0,0,1,1.524.742,12.107,12.107,0,0,1,2.631,2.092,11.348,11.348,0,0,1,1.9,2.682,10.461,10.461,0,0,1,.663,1.6,3.678,3.678,0,0,0,.5,1.417.16.16,0,0,0,.264-.067c.186-.472-.135-1.158-.3-1.608a11.825,11.825,0,0,0-.708-1.591,12.187,12.187,0,0,0-4.723-4.808,10.841,10.841,0,0,0-1.558-.72,9.411,9.411,0,0,0-1.766-.382c-.022,0-.034.034-.011.039h0Z" transform="translate(-172.026 -298.99)" fill="#010d3d"/><path id="Trazado_5742" data-name="Trazado 5742" d="M225.9,339.141a5.827,5.827,0,0,1,.984.18c.287.051.579.084.872.141a10.125,10.125,0,0,1,1.631.444,10.769,10.769,0,0,1,3.132,1.811,10.459,10.459,0,0,1,2.305,2.586,9.838,9.838,0,0,1,.832,1.647,8.7,8.7,0,0,1,.276.843c.067.242.073.461.276.63a.185.185,0,0,0,.281-.034c.219-.444-.146-1.141-.309-1.58a10.684,10.684,0,0,0-.8-1.653,10.891,10.891,0,0,0-5.718-4.661,10.077,10.077,0,0,0-1.856-.467,4.96,4.96,0,0,0-.866-.079c-.354.011-.686.118-1.035.141-.034,0-.039.056,0,.056h0Z" transform="translate(-193.983 -314.805)" fill="#010d3d"/><path id="Trazado_5743" data-name="Trazado 5743" d="M196.524,342.942c-.045-.439,1-2.4.984-2.834-.006-.157-.011-.315-.006-.472s.011-.309.017-.467c.006-.034.011-.067.022-.118a2.178,2.178,0,0,0-3.025-2.536c.624-1.552,1.293-3.093,1.929-4.639a1.844,1.844,0,0,0-.843-2.075,1.87,1.87,0,0,0-2.227.287c-.163.163-.315.337-.472.506.011-.045.028-.09.039-.129a2.664,2.664,0,0,0-2.615-3.4,3.67,3.67,0,0,0-1.2.219.568.568,0,0,0-.017-.1,2.453,2.453,0,0,0,.663-1.906,2.21,2.21,0,0,0-2.738-1.827,9.725,9.725,0,0,0-6.809,5.465,15.906,15.906,0,0,0-.894,10.172,45.912,45.912,0,0,0,1.366,5.128,7.189,7.189,0,0,0,3.115,4.341,10.2,10.2,0,0,0,4.746,1.119,11.364,11.364,0,0,0,5.443-1,6.617,6.617,0,0,0,3.526-4.217c.242-1.018-.888-.517-1-1.546Z" transform="translate(-173.426 -308.007)" fill="#fff"/><path id="Trazado_5744" data-name="Trazado 5744" d="M178.356,336.99a52.454,52.454,0,0,0,1.372-5.184c.231-.827.4-1.664.624-2.491a3.636,3.636,0,0,1,1.237-1.822,15.69,15.69,0,0,1,3.992-2.761,2.21,2.21,0,0,1,2.052-.051c.394.259.793.8.562,1.288-.422.877.832,1.642,1.321.77a2.712,2.712,0,0,0-1.889-3.756c-2.052-.54-4.093,1-5.628,2.154a12.488,12.488,0,0,0-2.288,1.99,5.894,5.894,0,0,0-1.04,2.789c-.225,1.175-.365,2.373-.557,3.554a27.436,27.436,0,0,0-.495,3.413c-.017.45.59.472.737.1h0Z" transform="translate(-172.863 -307.768)" fill="#010d3d"/><path id="Trazado_5745" data-name="Trazado 5745" d="M193.457,329.1a5.293,5.293,0,0,0-3.992,1.158,9.62,9.62,0,0,0-2.676,2.952,11.43,11.43,0,0,0-1.513,7.894c.152.911,1.58.534,1.4-.388a10.049,10.049,0,0,1,1.13-6.714,8.173,8.173,0,0,1,5.651-4.42c.247-.039.231-.427,0-.484h0Z" transform="translate(-176.144 -310.455)" fill="#010d3d"/><path id="Trazado_5746" data-name="Trazado 5746" d="M197.52,329.27c.557-.051,1.569-.163,2,.276a1.486,1.486,0,0,1,.118,1.625,6.974,6.974,0,0,1-1.293,1.664,11.15,11.15,0,0,0-1.175,1.541,10.612,10.612,0,0,0-1.411,7.433c.124.7,1.153.489,1.192-.163a13.856,13.856,0,0,1,1.535-5.623c.669-1.276,2.114-3.964,3.93-3.475,2.1.568-.782,3.964-1.338,4.813-1.1,1.692-1.917,3.6-1.411,5.645a.738.738,0,0,0,1.411,0,9.137,9.137,0,0,1,2.856-4.341l-.821.107c1.029.489.855,1.737.686,2.671-.208,1.141-.433,2.283-.647,3.424-.169.9,1.209,1.276,1.372.377a42.85,42.85,0,0,0,.776-4.622,2.986,2.986,0,0,0-1.5-3.025.716.716,0,0,0-.821.107,11.5,11.5,0,0,0-3.312,4.909h1.411c-.6-2.637,1.625-4.8,2.761-6.933a3.5,3.5,0,0,0,.394-2.935,2.315,2.315,0,0,0-2.03-1.366c-2.137-.146-3.627,2.125-4.543,3.745a15.231,15.231,0,0,0-1.917,6.511l1.192-.163a9.4,9.4,0,0,1,.4-4.746,13.38,13.38,0,0,1,2.592-3.925,3.217,3.217,0,0,0,.7-3.481,1.9,1.9,0,0,0-1.288-.99,2.681,2.681,0,0,0-1.923.534c-.163.1-.107.4.1.382h0Z" transform="translate(-180.73 -310.141)" fill="#010d3d"/><path id="Trazado_5747" data-name="Trazado 5747" d="M180.543,331.463c-1.17.686-1.827,2.446-2.255,3.672a18.573,18.573,0,0,0-.956,4.661,17.859,17.859,0,0,0,1.2,8.282,10.545,10.545,0,0,0,5.595,5.752,13.357,13.357,0,0,0,9.148.1,6.814,6.814,0,0,0,3.587-2.508,4.764,4.764,0,0,0-.264-5.128.748.748,0,0,0-1.361.574c.242,1.344,1.063,2.558.1,3.829a5.374,5.374,0,0,1-2.693,1.659,11.875,11.875,0,0,1-7.844-.1c-4.515-1.844-6.022-7.27-6.073-11.718a21.6,21.6,0,0,1,.377-4.7,16.449,16.449,0,0,1,.641-2.243,14.431,14.431,0,0,0,.838-2.109c0-.023-.017-.039-.039-.028h0Z" transform="translate(-172.71 -311.524)" fill="#010d3d"/></g><path id="Trazado_5748" data-name="Trazado 5748" d="M259.21,354.233a13.451,13.451,0,0,0,.219,1.777c.09.59.2,1.141.3,1.715a.8.8,0,0,0,1.569-.214,4.581,4.581,0,0,0-.163-1.1c-.079-.332-.18-.652-.276-.978a5.734,5.734,0,0,0-.928-1.985c-.4-.5-1.3.039-1.085.63a7.908,7.908,0,0,1,.225,1.085l.214,1.091c.073.365.118.731.169,1.1a1.75,1.75,0,0,0,.1.557.714.714,0,0,0,.737.461.682.682,0,0,0,.557-.545,1.55,1.55,0,0,0-.1-.748c-.09-.36-.18-.714-.247-1.08l-.2-1.091-.1-.545a3.536,3.536,0,0,1-.079-.455l-1.209.326c.118.281.287.534.41.815-.039-.09.034.084.039.1.028.079.056.152.084.231.051.146.1.287.135.433.017.067.034.135.056.2.045.146,0-.039.022.1a4.544,4.544,0,0,1,.039.484c.011.3-.022.607,0,.911l1.574-.214a17.092,17.092,0,0,0-.506-1.659,8.3,8.3,0,0,0-.737-1.631.44.44,0,0,0-.815.219h0Z" transform="translate(-208.402 -282.719)" fill="#010d3d"/><path id="Trazado_5749" data-name="Trazado 5749" d="M261.017,355.209a4.69,4.69,0,0,0,1.951.343c.647.039,1.265.073,1.895.056a.722.722,0,0,0,.692-.905,7.719,7.719,0,0,0-.782-1.923c-.157-.276-.337-.534-.517-.793-.236-.337-.534-.843-.956-.945a.7.7,0,0,0-.855.855,1.238,1.238,0,0,0,.41.579c.112.112.214.231.315.349a1.025,1.025,0,0,1,.073.09c-.045-.062-.045-.056,0,0s.067.1.1.146c.084.135.169.27.247.4s.146.281.214.422c.022.056.051.107.073.163-.062-.146.028.084.039.112a6.434,6.434,0,0,1,.253.911l.692-.905c-.63.017-1.265.067-1.895.1a5.5,5.5,0,0,0-1.951.253.4.4,0,0,0,0,.686h0Z" transform="translate(-209.281 -281.744)" fill="#010d3d"/><path id="Trazado_5750" data-name="Trazado 5750" d="M246.753,359.479a5.214,5.214,0,0,0-1.31,1.248c-.388.455-.765.933-1.13,1.411-.753.973-1.468,1.979-2.137,3.008l1.378-.18A10.55,10.55,0,0,1,241.709,363a9.065,9.065,0,0,1-1.153-2.44.841.841,0,0,0-1.619.45,9.53,9.53,0,0,0,3.554,5.342.88.88,0,0,0,1.2-.315c.545-1.063,1.136-2.109,1.766-3.126.3-.489.618-.967.939-1.445a6.633,6.633,0,0,0,.894-1.569.367.367,0,0,0-.534-.41h0Z" transform="translate(-199.689 -285.429)" fill="#010d3d"/><path id="Trazado_5751" data-name="Trazado 5751" d="M238.377,385.479c-.394,1.839-.967,3.632-1.5,5.432a53.593,53.593,0,0,1-1.884,5.308,24.966,24.966,0,0,1-2.564,4.853,28.147,28.147,0,0,1-1.962,2.435,6.7,6.7,0,0,0-1.619,2.317.434.434,0,0,0,.529.529,6.137,6.137,0,0,0,2.317-1.8c.692-.737,1.417-1.569,2.058-2.407a20.168,20.168,0,0,0,2.851-5.111c1.4-3.728,1.513-7.613,2.013-11.516.017-.129-.2-.157-.231-.028h0Z" transform="translate(-195.278 -296.792)" fill="#010d3d"/><path id="Trazado_5752" data-name="Trazado 5752" d="M297.417,430.182a5,5,0,0,0,.388,1.035l.427,1.023c.287.686.568,1.366.86,2.052.574,1.355,1.085,2.755,1.726,4.077.264.545,1.231.152,1-.416-.579-1.383-1.293-2.721-1.945-4.071-.32-.669-.647-1.333-.973-2a10.259,10.259,0,0,0-1.018-1.962c-.191-.236-.5.028-.461.27h0Z" transform="translate(-225.299 -316.238)" fill="#010d3d"/><path id="Trazado_5753" data-name="Trazado 5753" d="M233.262,356.721c2.5,2.5,5.662,5.64,5.494,9.474a2.453,2.453,0,0,1-.984,2.1c-.506.276-1.563.141-1.591-.59-.039-.95,1.355-1.3,2.064-1.248a3.312,3.312,0,0,1,2.345,1.333,9.343,9.343,0,0,1,1.558,5.853c-.034,1.5-.259,4.138-1.906,4.836a1.614,1.614,0,0,1-1.715-.36c-.506-.551-.062-1.175.534-1.378,1.636-.562,2.986,1.085,3.4,2.468a7.351,7.351,0,0,1-1.1,5.685c-.337.59-.827,1.614-1.58,1.743-.169.028-.619-.028-.68-.236-.1-.32.484-.523.708-.568,1.692-.343,3.07,1.5,3.171,2.991a6.3,6.3,0,0,1-2.244,4.9,4.884,4.884,0,0,1-2.148,1.091c-.523.107-2.148.023-2.069-.843.039-.416.692-.534,1.012-.534a2.083,2.083,0,0,1,1.08.332,2.925,2.925,0,0,1,1.355,2.283c.152,2.109-1.226,4.127-2.407,5.752a14.094,14.094,0,0,1-4.032,4c-1.451.838-3.655,1.091-4.712-.534a1.393,1.393,0,0,1-.236-1.186c.174-.349.619-.287.939-.174.748.264,1.552,1.13,1.209,1.962a4.105,4.105,0,0,1-1.929,1.636c-1.068.568-2.193,1.046-3.284,1.558a31.335,31.335,0,0,1-3.34,1.518c-.663.219-1.8.422-2.3-.264a.965.965,0,0,0-1.664.973c1.608,3.267,5.651.894,7.849-.191a42.742,42.742,0,0,0,4.262-2.17,4.526,4.526,0,0,0,2.232-2.845,3.4,3.4,0,0,0-1.721-3.351,2.748,2.748,0,0,0-3.323.034,2.865,2.865,0,0,0-.118,3.43,4.449,4.449,0,0,0,2.873,1.934c2.868.6,5.3-1.417,7.029-3.452,1.872-2.2,4.037-5.128,4.071-8.147.022-2.373-2.137-5.19-4.768-4.341a1.962,1.962,0,0,0-1.271,2.873,3.481,3.481,0,0,0,3.295,1.468c5.263-.455,8.67-9.407,3.081-11.9a3.361,3.361,0,0,0-3.5.281,1.822,1.822,0,0,0,.084,2.941c2.648,1.889,4.644-2.283,5.3-4.183.855-2.5.652-5.628-1.529-7.4-1.439-1.17-4.532-1.316-5.021.962a2.247,2.247,0,0,0,1.378,2.44,2.913,2.913,0,0,0,3.031-.332c2.249-1.7,2.249-5.46,1.85-7.956s-1.664-5.606-4.5-6.05a3.394,3.394,0,0,0-3.171,1.057,1.834,1.834,0,0,0,.135,2.688,2.416,2.416,0,0,0,2.75.146,3.516,3.516,0,0,0,1.282-2.946c.017-2.62-1.462-5.049-3.081-6.995a41.126,41.126,0,0,0-2.941-3.081c-.326-.321-.827.18-.5.5h0Z" transform="translate(-190.579 -283.97)" fill="#010d3d"/></g><g id="Grupo_3443" data-name="Grupo 3443" transform="translate(0 117.706)"><rect id="Rectángulo_802" data-name="Rectángulo 802" width="238.971" height="44.173" transform="translate(239.486 44.735) rotate(180)" fill="#fff"/><path id="Trazado_5754" data-name="Trazado 5754" d="M294.74,437.172H65.469c-3.1,0-6.2-.051-9.295,0h-.4a.535.535,0,0,0,0,1.068H285.041c3.1,0,6.2.051,9.295,0h.4a.535.535,0,0,0,0-1.068Z" transform="translate(-55.255 -437.15)" fill="#010d3d"/></g><g id="Grupo_3445" data-name="Grupo 3445" transform="translate(120.578 70.786)"><path id="Trazado_5755" data-name="Trazado 5755" d="M269.7,405.545a17.856,17.856,0,0,0,.467-2.244.638.638,0,0,1,.6-.461c9.126.157,18.263.315,27.389.056,2.294-.062,4.588-.084,6.882-.191a1.366,1.366,0,0,1,.169-.191s.022-.023.056-.062.1-.1.141-.152a.078.078,0,0,1,.017-.022c0-.006.006-.011.017-.028.056-.079.112-.157.169-.242.27-.4.517-.832.748-1.26.669-1.22,1.276-2.474,1.872-3.734,1.338-2.828,2.581-5.707,3.829-8.58,1.271-2.929,2.643-5.814,3.975-8.71,1.647-3.593,3.278-7.2,4.785-10.858q1.088-2.64,2.114-5.308c.827-2.137,1.591-4.3,2.44-6.438.242-.6.529-1.186.753-1.8a.566.566,0,0,1,.523-.4c6.714-.579,13.45-.86,20.186-1,6.753-.141,13.506-.141,20.259-.152q2.851,0,5.707-.017c.467,0,.933.011,1.4-.017a6.958,6.958,0,0,1,.905-.023,2.678,2.678,0,0,1,1.248.377,2.558,2.558,0,0,1,.8.365,6.084,6.084,0,0,1,1.186.849.934.934,0,0,1,.146,1.108,2.462,2.462,0,0,0-.129.276c-.028.073-.062.146-.09.219-.169.41-.326.827-.489,1.243q-.734,1.923-1.445,3.857-2.117,5.735-4.172,11.5-2.437,6.764-4.869,13.534c-.753,2.086-1.5,4.183-2.272,6.258-.692,1.85-1.327,3.734-2.114,5.55-.084.191-.163.382-.247.573-.034.079-.067.157-.1.231-.017.034-.028.067-.045.1h0s-.011.034-.028.079-.039.1-.056.141a.123.123,0,0,1,.017-.045.257.257,0,0,0-.017.045l-.051.135c-.039.09-.073.174-.107.264-.073.169-.141.343-.214.512-.152.365-.309.714-.467,1.074-.056.129-.118.259-.18.388-.028.068-.062.135-.09.208a.55.55,0,0,0-.045.1.017.017,0,0,1-.006.011,1.428,1.428,0,0,1-.09.214c-.022.022-.039.051-.062.073.028-.034.034-.028.011.011l-.073.152-.169.371c-.1.2-.174.4-.281.59a.122.122,0,0,1-.017.028c-.028.067-.062.135-.09.2l-.112.242c-.051.112-.107.225-.163.337a1.626,1.626,0,0,1-.112.186.576.576,0,0,1-.337.231.781.781,0,0,1-.461.157c-1.518.034-3.031.045-4.555.107q-3.34.152-6.669.32c-5.156.264-10.312.534-15.468.77-3.537.157-7.107.422-10.65.315-3.571-.107-7.147-.079-10.717-.09-4.448-.011-8.9-.006-13.337-.028-2.21-.011-4.42-.028-6.629-.062-2.187-.034-4.38-.028-6.562-.129-3.75-.18-7.5-.231-11.251-.287-1.051-.011-2.109-.034-3.16-.045a.622.622,0,0,1-.6-.782Z" transform="translate(-269.698 -353.705)" fill="#fff"/><g id="Grupo_3444" data-name="Grupo 3444" transform="translate(0.018 0.021)"><path id="Trazado_5756" data-name="Trazado 5756" d="M305.722,440.81c-9.1.5-18.257.439-27.372.287-2.519-.045-5.044-.045-7.563-.09a.6.6,0,0,0-.568.433,20.373,20.373,0,0,1-.467,2.243.59.59,0,0,0,.562.742c8.147.079,16.289.45,24.443.506,4.459.034,8.918.034,13.377.039,4.4.006,8.811-.062,13.2.067,3.188.1,6.382-.073,9.57-.208,5.111-.219,10.217-.489,15.328-.748,4.358-.225,8.715-.427,13.079-.529a.76.76,0,0,0,0-1.518c-3.75.084-7.512.388-11.263.574-5.145.259-10.284.529-15.429.759-3.531.157-7.1.416-10.633.309-8-.247-16.02-.056-24.026-.062-9.216-.006-18.432-.231-27.648-.36l.562.742a19.093,19.093,0,0,0,.478-2.238l-.568.433c9.132.2,18.263.512,27.395.135,2.525-.1,5.032-.32,7.546-.579.585-.062.607-.967,0-.933h0Z" transform="translate(-269.73 -391.853)" fill="#010d3d"/><path id="Trazado_5757" data-name="Trazado 5757" d="M386.614,405.033c.36.124-.011-.011-.028-.073a.531.531,0,0,0,.961.124,9.4,9.4,0,0,0,.77-1.614c.529-1.136,1.046-2.322,1.546-3.514,1.541-3.694,2.9-7.49,4.262-11.263,3.064-8.49,6.078-16.992,9.188-25.466.573-1.557,1.147-3.109,1.737-4.661.191-.495.377-.99.574-1.479.039-.1.079-.186.112-.281.073-.18-.1.2.023-.056.051-.107.1-.219.152-.326a.891.891,0,0,0-.135-1.063,6.966,6.966,0,0,0-1.49-1.029c-.146-.073-.433-.169-.489-.2a4.71,4.71,0,0,0-.512-.259,3.643,3.643,0,0,0-1.327-.124c-.928.045-1.856.039-2.783.045-3.66.011-7.315.011-10.976.022-7.265.022-14.529.079-21.789.377-4.1.169-8.209.416-12.3.77a.567.567,0,0,0-.517.394c-2.834,7.709-5.915,15.333-9.328,22.806-1.439,3.154-2.952,6.275-4.335,9.452-1.2,2.744-2.384,5.493-3.632,8.215-.692,1.507-1.406,3.008-2.182,4.476-.281.523-.562,1.046-.883,1.546-.062.1-.129.2-.2.3-.034.051-.2.276-.1.141-.073.09-.377.371-.169.214-.8.6-.017,1.962.793,1.355a6.07,6.07,0,0,0,1.473-2.041c.658-1.215,1.243-2.474,1.811-3.734,1.327-2.913,2.575-5.859,3.8-8.817,2.772-6.657,6.028-13.174,8.783-19.877,1.867-4.538,3.5-9.148,5.184-13.753l-.517.394c13.231-1.136,26.523-1.153,39.793-1.2,1.85-.006,3.705-.017,5.555-.028.872-.006,1.732-.023,2.6-.051a2.111,2.111,0,0,1,1.366.309l-.231-.3a5.589,5.589,0,0,0,1.344,1.839l-.135-1.063a47.088,47.088,0,0,0-2.3,5.848c-1.406,3.812-2.783,7.641-4.161,11.465q-2.429,6.747-4.853,13.5c-.759,2.114-1.535,4.223-2.283,6.337-.641,1.811-1.366,3.61-1.934,5.443-.467,1.507-.967,3-1.462,4.493-.079.247-.163.489-.247.731s-.2.545-.2.534a4.067,4.067,0,0,1-.32.669l.961.124c-.107-.455-.315-.523-.708-.652-.641-.208-.905.787-.276,1.006h0Z" transform="translate(-297.178 -353.742)" fill="#010d3d"/></g></g><g id="Grupo_3446" data-name="Grupo 3446" transform="translate(2.73 96.584)"><path id="Trazado_5758" data-name="Trazado 5758" d="M61.325,399.857c22.418.607,79.614-.63,85.715-.146a.7.7,0,0,1,.652.6c.247,8.744.467,17.515.99,26.219.09.394-.214.77-.8.8-8.024.647-46.293,1.023-57.426,1.018-8.873.084-20.417.231-29.149-.748-.843-.118-.72-1.018-.843-1.507-.169-6.624-1.051-26.484.872-26.231Z" transform="translate(-60.11 -399.589)" fill="#e0c7eb"/><path id="Trazado_5759" data-name="Trazado 5759" d="M191.8,417.159c-.174-3.284-.4-6.568-.765-9.834q-.27-2.4-.63-4.8c-.124-.827-.264-1.653-.422-2.474-.028-.146-.056-.292-.079-.444,7.158-.045,12.337-.039,13.95.09a.7.7,0,0,1,.652.6c.247,8.744.467,17.515.99,26.219.09.394-.214.77-.8.8-2.215.18-6.742.337-12.359.472-.191-3.542-.337-7.085-.529-10.627Z" transform="translate(-116.925 -399.585)" fill="#e0c7eb" opacity="0.3" style="mix-blend-mode: multiply;isolation: isolate"/><path id="Trazado_5760" data-name="Trazado 5760" d="M110.715,426.975c-.135-3.436-.377-6.871-.843-10.273.073-.585-.905-3.554-.107-3.447,9.306.034,18.617-.191,27.912-1.063a55.767,55.767,0,0,1,7.63-.079.323.323,0,0,1,.276.3c.186,4.538.36,9.092.664,13.6a.342.342,0,0,1-.326.422,70.3,70.3,0,0,1-9.975.18c-4.6.129-9.21.922-13.827,1.057a72.36,72.36,0,0,1-11.038.056c-.349-.051-.309-.517-.365-.77Z" transform="translate(-81.706 -405.026)" fill="#fff"/><path id="Trazado_5761" data-name="Trazado 5761" d="M85.819,422.785c-.112-4.251,7.771-4.914,9.334-1.282C96.851,427.5,86.027,429.229,85.819,422.785Z" transform="translate(-71.363 -408.146)" fill="#cca1dd"/></g><g id="Grupo_3447" data-name="Grupo 3447" transform="translate(11.655 69.543)"><path id="Trazado_5762" data-name="Trazado 5762" d="M163.364,351.757c-22.418.607-79.614-.63-85.715-.146a.7.7,0,0,0-.652.6c-.247,8.743-.467,17.515-.99,26.219-.09.394.214.77.8.8,8.024.647,46.293,1.023,57.426,1.018,8.873.084,20.417.231,29.149-.748.843-.118.72-1.018.843-1.507.169-6.624,1.051-26.484-.872-26.231Z" transform="translate(-75.987 -351.495)" fill="#66d1ee"/><path id="Trazado_5763" data-name="Trazado 5763" d="M89.7,369.069c.174-3.284.4-6.567.765-9.834q.27-2.4.63-4.8c.124-.827.264-1.653.422-2.474.028-.146.056-.292.079-.444-7.158-.045-12.337-.039-13.95.09a.7.7,0,0,0-.652.6c-.247,8.743-.467,17.515-.99,26.219-.09.394.214.77.8.8,2.215.18,6.742.337,12.359.472.191-3.542.337-7.085.529-10.627Z" transform="translate(-75.982 -351.495)" fill="#66d1ee" opacity="0.3" style="mix-blend-mode: multiply;isolation: isolate"/><path id="Trazado_5764" data-name="Trazado 5764" d="M154.285,378.875c.135-3.436.377-6.871.843-10.273-.073-.585.905-3.554.107-3.447-9.306.034-18.617-.191-27.912-1.063a55.758,55.758,0,0,0-7.63-.079.323.323,0,0,0-.276.3c-.186,4.538-.36,9.092-.663,13.6a.342.342,0,0,0,.326.422,70.3,70.3,0,0,0,9.975.18c4.6.129,9.21.922,13.827,1.057a72.36,72.36,0,0,0,11.038.056c.349-.051.309-.517.365-.77Z" transform="translate(-94.701 -356.932)" fill="#fff"/><path id="Trazado_5765" data-name="Trazado 5765" d="M200.423,374.685c.112-4.251-7.771-4.914-9.334-1.282C189.391,379.4,200.215,381.129,200.423,374.685Z" transform="translate(-126.287 -360.051)" fill="#00b2e3"/></g></g><g id="Grupo_3451" data-name="Grupo 3451" transform="translate(123.598)"><path id="Trazado_5766" data-name="Trazado 5766" d="M426.944,202.3c-1.293-.585-2.536-1.254-3.818-1.872a3.663,3.663,0,0,0-1.94-.455,5.072,5.072,0,0,0-2.221.911c-2.311,1.445-4.521,3.042-6.719,4.644a96.959,96.959,0,0,1-13.394,8.541,98.761,98.761,0,0,1-14.6,5.82q-1.6.506-3.211.978a2.863,2.863,0,0,0-2.142-.714,12.614,12.614,0,0,0-2.44.574c-.793.219-1.591.444-2.384.663a2.041,2.041,0,0,0-1.215,2.744,2.647,2.647,0,0,0,.523,3.346,5.372,5.372,0,0,0-1.884,4.942.594.594,0,0,0,.028.107c-.034.006-.073.017-.107.022-1.434.236-1.074,2.525.337,2.5a9.328,9.328,0,0,0,2.525-.4,2.377,2.377,0,0,0,2.609-.157,6.676,6.676,0,0,0,2.024-2.277,18.561,18.561,0,0,0,1.395-2.873c.09-.231.186-.478.276-.725.99-.214,1.974-.433,2.946-.708,1.018-.292,2.024-.619,3.025-.962a1.931,1.931,0,0,0,1.046.045,53.123,53.123,0,0,0,8.98-3.4q4.04-1.8,8.046-3.705a104.129,104.129,0,0,0,15.075-8.434,46.167,46.167,0,0,0,7.585-6.489,1.7,1.7,0,0,0-.343-2.654Z" transform="translate(-316.842 -193.821)" fill="#fff"/><path id="Trazado_5767" data-name="Trazado 5767" d="M374.756,238.037c3.312,1.215,7.034-.978,8.2-4.161.129-.354.157-.827.523-1.018a7.465,7.465,0,0,1,1.574-.416q1.7-.447,3.385-.99c2.283-.731,4.532-1.563,6.747-2.468,4.268-1.737,8.44-3.711,12.59-5.718a109.981,109.981,0,0,0,11.3-6.112,57.751,57.751,0,0,0,5.775-4.178,26.177,26.177,0,0,0,5.083-5.106c.574-.838-.658-1.687-1.355-1.046-1.518,1.394-2.862,2.952-4.436,4.3a50.657,50.657,0,0,1-4.943,3.694,98.82,98.82,0,0,1-10.779,6.056c-4,1.979-8.029,3.914-12.117,5.7-2.125.933-4.279,1.8-6.466,2.587s-4.346,1.321-6.534,1.957a2.522,2.522,0,0,0-1.861,2.047,5.178,5.178,0,0,1-1.389,2.367,6.518,6.518,0,0,1-5.2,1.782c-.439-.045-.461.59-.1.725h0Z" transform="translate(-318.594 -196.726)" fill="#010d3d"/><g id="Grupo_3450" data-name="Grupo 3450"><path id="Trazado_5768" data-name="Trazado 5768" d="M339.023,255.195c-7.591-17.869-10.048-39.765-19.163-56.195-4.161.124-47.024,2.21-44.7,6.146,2.474,8.26,4.481,15.407,7.343,24.819,3.784,12.432,5.449,25.252,9.2,37.549-.124,3.194,10.363-1.5,12.471-2.08,13.287-3.7,22.5-6.129,33.855-8.6.883-.174,1.434-1.029,1-1.631Z" transform="translate(-275.068 -193.399)" fill="#f2a1bc"/><g id="Grupo_3449" data-name="Grupo 3449" transform="translate(2.929 2.818)"><path id="Trazado_5769" data-name="Trazado 5769" d="M336.246,253.614c-.613.017-1.226.023-1.839.023a2.206,2.206,0,0,0-2.21-1.979q-6.764.869-13.512,1.833c-3.711.529-7.411,1.147-11.111,1.737-.517-1.26-1.22-2.446-1.844-3.655a24.389,24.389,0,0,1-1.844-5.274c-1.023-4.127-1.732-8.35-2.575-12.516-1.687-8.356-3.261-16.745-5.077-25.072-.467-2.148-1-4.285-1.664-6.382a59.885,59.885,0,0,0-2.637-6.579,2.136,2.136,0,0,0-2.378-.967,2.608,2.608,0,0,0-.675.247,7.952,7.952,0,0,0-2.125-.264,1.032,1.032,0,0,0-.984.748,5.455,5.455,0,0,0-.045.737l-.478.169a4.116,4.116,0,0,0-2.384.658,1.021,1.021,0,0,0-.461,1.136c.759,2.064-1.462,1.17-1.085,2.378.647,2.086,1.968,8.727,2.643,10.8a44.824,44.824,0,0,1,1.872,7.653c.225,2.221,1.411,4.779,1.709,6.989.59,4.369,2.407,6.281,3.239,10.61s1.608,8.682,2.536,12.994c1,4.656,2.024,9.311,3.25,13.917a1.145,1.145,0,0,0,.124.984,2.638,2.638,0,0,0,2.913,1.051c1.26-.2,2.508-.562,3.75-.849,2.676-.613,5.347-1.237,8.029-1.844,5.392-1.231,10.745-2.71,16.166-3.8l9.182-1.856c2.047-.416,1.569-3.672-.489-3.621Z" transform="translate(-280.713 -194.35)" fill="#fff"/><path id="Trazado_5770" data-name="Trazado 5770" d="M339.385,255.491c-.174-.652-.349-1.3-.523-1.951a.771.771,0,0,0-1.484.41c.124.472.253.945.382,1.411-1.726,1.074-3.84,1.31-5.814,1.648-2.542.439-5.089.877-7.636,1.288-5.134.815-10.29,1.445-15.446,2.086q-4.158.514-8.322.95c-1.552-8.62-3.132-17.24-4.875-25.826-1.754-8.659-3.7-17.279-5.713-25.882q-1.7-7.253-3.627-14.456a4.77,4.77,0,0,1,2.885-.461c.36.056.523-.489.152-.557a5.468,5.468,0,0,0-3.621.54.345.345,0,0,0-.157.394c.051.214.1.422.152.635a5.613,5.613,0,0,0-3.447,1.023.458.458,0,0,0-.2.495q2.421,7.658,4.9,15.305c.624,6.7,1.647,13.377,2.789,20q1.813,10.509,3.857,20.984c.776,3.992,1.552,7.984,2.362,11.965a.645.645,0,0,0,.624.472c10.97-.6,21.249-4.954,32.005-6.787a.59.59,0,0,0,.309-.146c.866-.141,1.732-.276,2.592-.416,2.536-.422,5.381-.647,7.5-2.244a.8.8,0,0,0,.354-.866ZM283.038,197.3a6.37,6.37,0,0,1,1.372-.607c.495-.146,1-.2,1.479-.349,1.945,8.271,3.947,16.526,5.707,24.842q.624,2.96,1.243,5.921c-2.35-7.253-4.7-14.507-7.113-21.738Q284.385,201.338,283.038,197.3Zm14.1,67.322q-2.168-10.18-4.048-20.411c-1.265-6.955-2.35-13.939-3.615-20.889-.433-2.367-.843-4.74-1.282-7.107q1.7,5.238,3.413,10.481,1.375,4.192,2.75,8.389a.519.519,0,0,0,.174.242q1.2,5.921,2.322,11.847c.933,4.976,1.822,9.964,2.632,14.962a.6.6,0,0,0,.574.439q7.422-.641,14.822-1.558c-5.842,1.586-11.69,3.154-17.751,3.61Z" transform="translate(-281.063 -194.051)" fill="#010d3d"/><path id="Trazado_5771" data-name="Trazado 5771" d="M282.269,202.815a11.886,11.886,0,0,0-1.67.208.451.451,0,0,0-.309.545q3.762,15.814,7.6,31.612c.354,1.456.72,2.9,1.141,4.335.439,1.513.725,3.109,1.288,4.583.129.337.737.332.686-.1a38.338,38.338,0,0,0-.793-3.8c-.292-1.327-.534-2.66-.86-3.975q-.987-4.015-1.979-8.024-1.965-7.954-3.964-15.907l-2.255-8.968-.309.545a11.29,11.29,0,0,0,1.535-.68.207.207,0,0,0-.1-.382h0Z" transform="translate(-280.277 -197.884)" fill="#010d3d"/></g><path id="Trazado_5772" data-name="Trazado 5772" d="M346.647,250.812c-6.433-19.05-8.519-41.322-16.244-59.164-3.526-.523-39.86-5.077-37.892-.782,2.1,8.648,5.4,17.048,6.224,25.955,2.052,13.146,6.933,25.657,10.115,38.533-.107,3.177,6.466.551,8.254.292,11.268-1.642,19.078-2.643,28.7-3.357a.992.992,0,0,0,.843-1.479Z" transform="translate(-282.669 -189.04)" fill="#f2a1bc"/></g><path id="Trazado_5773" data-name="Trazado 5773" d="M370.018,236.546a10.1,10.1,0,0,0-2.558-2.48,2.438,2.438,0,0,0-1.687-.214,1.766,1.766,0,0,0-.365-.489,6.078,6.078,0,0,0-4.127-1.468,40.4,40.4,0,0,0-4.594-.028,2.427,2.427,0,0,0-1.4.562,1.755,1.755,0,0,0-1.591.27,1.5,1.5,0,0,0,0,2.558,11.684,11.684,0,0,0,5.2,1.316c.675.056,1.355.079,2.035.09.079.017.163.039.242.056a4.623,4.623,0,0,0,.3,1.558,9.2,9.2,0,0,0,4.279,4.571,4.684,4.684,0,0,0,3.565.315,3.7,3.7,0,0,0,2.632-3.244c.011-1.439-1.046-2.39-1.945-3.374Z" transform="translate(-309.172 -207.762)" fill="#fff"/><path id="Trazado_5774" data-name="Trazado 5774" d="M417.708,206.014a31.779,31.779,0,0,1-3.261,2.631,39.162,39.162,0,0,1-3.565,2.075c-2.592,1.361-5.218,2.671-7.844,3.958a79.258,79.258,0,0,1-16.458,6.253,59.379,59.379,0,0,1-9.795,1.434.886.886,0,0,0,0,1.771c6.09-.011,12.039-1.794,17.667-3.981a129.7,129.7,0,0,0,16.441-8.013c2.62-1.473,5.645-3.149,7.2-5.825a.248.248,0,0,0-.388-.3h0Z" transform="translate(-319.217 -196.444)" fill="#010d3d"/><path id="Trazado_5775" data-name="Trazado 5775" d="M366.26,233.481c-.163-.843-1.389-1.276-2.064-1.636a13.68,13.68,0,0,0-2.676-1.04,16.788,16.788,0,0,0-5.859-.63c-1.569.118-3.97.343-4.605,2.075-.72,1.957,1.141,3.329,2.721,3.953a19.755,19.755,0,0,0,7.045.939l-.765-.765a7.014,7.014,0,0,0,2.508,5.319c1.451,1.2,3.874,2.092,5.7,1.26.765-.349.264-1.327-.382-1.406a16.929,16.929,0,0,1-2.26-.18,5.641,5.641,0,0,1-2.069-.967,5.267,5.267,0,0,1-1.951-4.032.777.777,0,0,0-.765-.765,18.814,18.814,0,0,1-6.438-.68c-.787-.281-2.2-.922-1.99-2,.163-.86,1.546-.939,2.221-1.018a17.458,17.458,0,0,1,5.921.264,21.442,21.442,0,0,1,2.879.922c.742.287,1.743,1.091,2.558.877a.413.413,0,0,0,.281-.495h0Z" transform="translate(-308.259 -207.026)" fill="#010d3d"/><path id="Trazado_5776" data-name="Trazado 5776" d="M376.417,251.84a1.436,1.436,0,0,0-.09.551,3.2,3.2,0,0,0,.1.557,2.912,2.912,0,0,0,.512.967,2.792,2.792,0,0,0,.759.669,1.241,1.241,0,0,0,.613.186.685.685,0,0,0,.354-.056c.056-.034-.056.011.022-.011.039-.011.079-.028.118-.039a.234.234,0,0,0,.056-.422.615.615,0,0,0-.079-.051c-.09-.051.051.084.011.017a.815.815,0,0,0-.259-.219.171.171,0,0,0-.039-.028c.045.034.051.039.028.017-.045,0-.1-.084-.152-.107s-.124-.062-.18-.1a1.344,1.344,0,0,1-.191-.118c-.022-.017-.112-.067-.017-.006a.456.456,0,0,1-.079-.067,2.4,2.4,0,0,1-.287-.3c-.073-.09.056.079-.011-.017-.023-.028-.039-.056-.062-.084a1.9,1.9,0,0,1-.107-.18,1.38,1.38,0,0,1-.09-.186c.022.056.028.062.006.017l-.011-.034c-.011-.034-.022-.067-.034-.1a1.271,1.271,0,0,1-.051-.2l-.017-.1c-.023-.1.006.084,0-.011a1.416,1.416,0,0,0-.045-.3v-.022a.832.832,0,0,0-.006-.118.4.4,0,0,0-.77-.107h0Z" transform="translate(-319.389 -216.41)" fill="#010d3d"/></g></g></g></g></svg>