<svg id="IICE_LandingCompliancePenal_home" xmlns="http://www.w3.org/2000/svg" width="301.489" height="282.414" viewBox="0 0 301.489 282.414">
  <g id="Grupo_4569" data-name="Grupo 4569" transform="translate(182.962 108.375)">
    <path id="Trazado_6474" data-name="Trazado 6474" d="M1065.055,508.14l26.776.129a5.7,5.7,0,0,1,2.99.56c1.65,1.023,1.618,3.28,1.328,5.126-1.258,8.021-3.891,15.788-6.513,23.508a11.1,11.1,0,0,1-1.681,3.515,8.158,8.158,0,0,1-4.718,2.6,25.271,25.271,0,0,1-5.553.325c-9.424-.141-18.951-.294-28.085-2.5a5.62,5.62,0,0,1-2.618-1.156c-1.415-1.34-.987-3.558-.462-5.384l4.875-16.933a29.928,29.928,0,0,1,2.053-5.666,7.074,7.074,0,0,1,2.963-3.225,9.972,9.972,0,0,1,4.561-.654l26.275.372" transform="translate(-1044.532 -506.883)" fill="#fff"/>
    <path id="Trazado_6475" data-name="Trazado 6475" d="M1062.74,506.884c2.935.051,5.862.188,8.794.274,1.5.043,3,.051,4.495.063s2.884-.071,4.3.078c2.912.31,5.87.176,8.794.29.537.02,1.23.024,1.681.09a2.163,2.163,0,0,1,1.27.541,1.549,1.549,0,0,1,.4.7,2.986,2.986,0,0,1,.094.372c0,.023.059.443.031.161a7.86,7.86,0,0,1,.035.8c0,.251-.019.5-.039.745-.012.114-.023.223-.035.337.035-.29-.024.141-.028.165-.113.721-.251,1.438-.392,2.155-.266,1.348-.572,2.684-.9,4.021-.666,2.739-1.466,5.439-2.3,8.131s-1.728,5.376-2.633,8.053c-.212.623-.415,1.246-.635,1.865a10.793,10.793,0,0,1-.592,1.458,5.348,5.348,0,0,1-2.1,2.265c-2.022,1.215-4.84,1.2-7.242,1.054-2.821-.165-5.662-.137-8.492-.231a105.263,105.263,0,0,1-16.541-1.618,36.2,36.2,0,0,1-3.923-.9,2.9,2.9,0,0,1-1.062-.529c.016.016-.294-.321-.161-.157s-.118-.192-.114-.18c-.027-.047-.18-.427-.074-.121-.043-.125-.082-.251-.114-.38-.012-.047-.067-.474-.035-.133q-.018-.206-.024-.411c0-.235.016-.466.027-.7.027-.455-.063.282.02-.172.027-.141.051-.286.078-.427.059-.282.125-.56.2-.839.357-1.332.76-2.657,1.141-3.981l2.437-8.464c.78-2.7,1.462-5.463,2.41-8.112a13.507,13.507,0,0,1,1.611-3.272,5.346,5.346,0,0,1,.933-1.015,4.03,4.03,0,0,1,1.191-.65,11.691,11.691,0,0,1,3.6-.314c1.426,0,2.853,0,4.283.02,2.919.031,5.839.1,8.758,0,1.458-.051,2.923-.074,4.381-.176.686-.047,1.36-.223,2.046-.27.776-.051,1.556-.067,2.335-.082,1.438-.023,2.849-.067,4.283-.212a.38.38,0,0,0,0-.76c-1.56-.2-3.1-.282-4.671-.349-.7-.031-1.422-.055-2.12-.149-.858-.114-1.685-.3-2.551-.357-1.493-.1-2.982-.2-4.475-.294s-3.111-.122-4.671-.149l-4.671-.082c-1.43-.023-2.861-.121-4.291-.1a9.329,9.329,0,0,0-4.279.933,8.015,8.015,0,0,0-2.861,2.829c-1.54,2.41-2.241,5.294-3.025,8.014l-2.547,8.841-1.3,4.514c-.364,1.27-.8,2.535-1.046,3.832a6.855,6.855,0,0,0,.118,3.8,4.935,4.935,0,0,0,3.154,2.857,27.561,27.561,0,0,0,3.938.94c1.474.29,2.955.533,4.444.741,2.994.411,6,.69,9.017.862s5.913.247,8.872.29a45.485,45.485,0,0,0,9.127-.415,9.283,9.283,0,0,0,6.442-4.15,22.062,22.062,0,0,0,1.579-3.977c.458-1.344.929-2.735,1.379-4.107a111.7,111.7,0,0,0,4.491-17.25c.376-2.339.811-5.126-.952-7.046a5.238,5.238,0,0,0-3.868-1.419c-1.4-.027-2.915.055-4.369.07-1.552.016-3.147-.067-4.691.082s-3.119.118-4.691.114q-4.6-.012-9.185.145c-1.5.051-3,.051-4.495.063a.7.7,0,0,0,0,1.391h0Z" transform="translate(-1042.217 -504.933)" fill="#010d3d"/>
  </g>
  <path id="Trazado_6476" data-name="Trazado 6476" d="M882.2,519.539c-3.182-1.94-8.186-4.346-11.235-1.054a52.853,52.853,0,0,0-10.412,17.975c-.607,1.744,1.466,2.9,2.88,2.214,3.166-1.485,4.173-4.906,5.764-7.759a18.927,18.927,0,0,0,4.1,2.14c.02.415.059.827.082,1.242h0c-.078,2.469,3.852,2.543,3.915.1a50.652,50.652,0,0,0,4.248-4.307c.615-.584,1.759,3.535,2.281,2.939,1.1-1.266,4.115-5.294,4.35-6.556.321-1.744-3.233-5.408-5.968-6.932Z" transform="translate(-748.712 -403.809)" fill="#fff"/>
  <path id="Trazado_6477" data-name="Trazado 6477" d="M875.271,524.928c0-2.022-2.582-2.661-4.032-1.7a7.95,7.95,0,0,0-2.022,2.253c-.69,1-1.379,2-2.03,3.029s-1.289,1.983-1.865,3.021-.933,2.093-1.489,3.088a2.7,2.7,0,0,1-2.057,1.45,2.195,2.195,0,0,1-1.156-.137c-.012-.008-.008.176,0-.094.016-.3-.008-.6.008-.9a13.26,13.26,0,0,1,2.065-5.96,64.977,64.977,0,0,1,4.04-5.745c1.524-2.038,3.014-4.115,4.6-6.105a3.006,3.006,0,0,1,2.21-1.466,15.274,15.274,0,0,1,3.1.513,11.966,11.966,0,0,1,5.8,2.555,11.8,11.8,0,0,1,1.889,2.723,7.331,7.331,0,0,0,2.351,2.665.348.348,0,0,0,.505-.388c-.357-1.007-.784-1.991-1.191-2.982a10.388,10.388,0,0,0-1.85-2.908,11.4,11.4,0,0,0-5.416-3.061c-1.007-.294-2.034-.505-3.064-.7a5.988,5.988,0,0,0-3.77.071,6.708,6.708,0,0,0-2.343,2.331c-.8,1.078-1.6,2.159-2.406,3.237-1.536,2.049-3.119,4.072-4.6,6.168a23.006,23.006,0,0,0-3.284,6.188,11.888,11.888,0,0,0-.576,3.433,2.335,2.335,0,0,0,.443,1.661,2.524,2.524,0,0,0,1.516.705,4.484,4.484,0,0,0,3.135-.647,5.62,5.62,0,0,0,2.014-2.763,35.286,35.286,0,0,1,1.689-3.617,40.521,40.521,0,0,1,2.242-3.523A9.917,9.917,0,0,1,872,524.528a1.573,1.573,0,0,1,1.262-.3.832.832,0,0,1,.725.694.643.643,0,0,0,1.285,0h0Z" transform="translate(-747.651 -401.953)" fill="#010d3d"/>
  <path id="Trazado_6478" data-name="Trazado 6478" d="M1056.374,385.962c-3.2-11.572-13.825-19.064-23-25.91-1.219-.658-2.9-2.394-4.244-1.156q-2.874,3.533-5.753,7.065a1.592,1.592,0,0,0,0,2.2c5.921,5.353,11.9,10.949,15.608,18.116-10.96,5.8-22.117,11.627-34.135,14.812-1.971.184-4.271,1.419-6.055.49-3.307-1.81-7.4-2.132-11.09-1.736-11.054,1.133-20.882,7.144-27.9,15.628a.078.078,0,0,0,.016-.023.739.739,0,0,0-.078.106s0-.008,0-.012c-6.344,7-14.244,13.946-23.939,15.306-6.45.862-9.867-1.109-14.926-4.314-1.422-.7-3.233,4.275-4.189,5.29-.7,1.9-5.58,4.6-3.253,6.442,3.445,2.657,7.2,5.2,11.568,6.1,9.53,2.6,18.876-1.81,26.7-6.963,5.807-3.6,11.49-7.536,16.212-12.512-5.737,17.117-19.158,30.6-34.382,39.778a1.579,1.579,0,0,0,.372,2.853c8.072,1.325,16.019,3.292,23.99,5.122,12.2,3.088,21.666,5.032,27.721-8.5,8.143-15.369,16.408-31.357,17.861-48.975,14.981-2.9,30.005-7.712,42.353-16.932C1049.568,395.194,1055.4,390.821,1056.374,385.962Zm-17.042.984a.249.249,0,0,1-.055-.133C1039.332,386.91,1039.387,387.016,1039.332,386.946Z" transform="translate(-780.562 -307.484)" fill="#64d8cc"/>
  <path id="Trazado_6479" data-name="Trazado 6479" d="M1119.064,314.32a.779.779,0,0,1-.639-.5c-1.27-13.222-11.305-22.352-20.056-31.31-1.281-1.105-2.171-2.916-3.931-3.272-5.122.846-2.633,1.5-7.857-.321a4.939,4.939,0,0,0-4.769,2.277c-1.634,1.916-3.437,3.715-4.945,5.733-1.626,2.935-2.786,5.9-4.969,8.57-4.663,6.9-8.057,13.292-9.773,21.368-.878,1.552-1.152,5.13-1.023,7.641.553,10.686,8.488,21.991,19.276,22.991.074,0-5.909,8.214-5.835,8.21.416,0,2.159,4.158,2.571,4.162.741.008,5.886-2.386,6.235-3.041,2.359-4.428,2.433-8.848,3.981-9.162,2.014-.411,5.423-1.7,7.418-2.19a9.984,9.984,0,0,1,2.52-1.191c6.971-3.068,13.386-7.641,17.011-14.4a10.106,10.106,0,0,0,10.573-9.389c.549-3.989-1.979-6.133-5.792-6.176Z" transform="translate(-870.722 -259.091)" fill="#fff"/>
  <path id="Trazado_6480" data-name="Trazado 6480" d="M1074.913,301.622c-1.673,1.995-3.335,4-4.82,6.137s-2.7,4.15-3.923,6.309a59.394,59.394,0,0,0-5.576,12.783,31.619,31.619,0,0,0-1.066,13.222A32.573,32.573,0,0,0,1064.7,353.4a26.055,26.055,0,0,0,3.868,4.93,14.911,14.911,0,0,0,3.551,2.441,28.994,28.994,0,0,0,4.158,1.3,27.172,27.172,0,0,0,4.64.584,39.062,39.062,0,0,0,19.237-4.651,35.226,35.226,0,0,0,7.943-5.612,22.627,22.627,0,0,0,4.973-7.061,11.992,11.992,0,0,0,.78-1.971,1.054,1.054,0,0,0-2.03-.56,12.708,12.708,0,0,1-1.36,3.539,18.337,18.337,0,0,1-2.406,3.158,29.124,29.124,0,0,1-6.909,5.58,38.258,38.258,0,0,1-17.924,5.643,27.1,27.1,0,0,1-4.44-.188c.2.023-.129-.02-.137-.02-.082-.012-.165-.023-.247-.039-.18-.027-.36-.059-.537-.09-.353-.067-.705-.141-1.054-.231a19.454,19.454,0,0,1-1.971-.611c-.161-.059-.329-.118-.486-.188-.192-.09-.035-.027,0-.012-.082-.043-.164-.09-.243-.133-.3-.165-.584-.345-.886-.5a14.511,14.511,0,0,1-1.728-1.034c-.125-.086-.247-.18-.368-.267-.243-.172.133.106-.016-.008l-.176-.141c-.259-.212-.51-.431-.752-.662a12.827,12.827,0,0,1-1.348-1.5,33.907,33.907,0,0,1-6.387-12.841,28.252,28.252,0,0,1-.043-12.1,49.025,49.025,0,0,1,4.42-12.073c1.07-2.116,2.226-4.189,3.433-6.227.619-1.042,1.219-2.089,1.822-3.139.3-.517.619-1.027.905-1.552.317-.584.568-1.2.9-1.771.615-1.054,1.144-2.167,1.708-3.249.212-.408-.345-.909-.674-.521h0Z" transform="translate(-869.613 -272.84)" fill="#010d3d"/>
  <path id="Trazado_6481" data-name="Trazado 6481" d="M1194.627,367.755c.482.016.964.067,1.45.082a4.775,4.775,0,0,1,1.493.337,6.59,6.59,0,0,1,2.391,1.481,5.609,5.609,0,0,1,1.532,4.941,8.8,8.8,0,0,1-3.735,5.055,9.218,9.218,0,0,1-5.494,1.971,4.794,4.794,0,0,1-1.238-.165,14.055,14.055,0,0,1-1.4-.564,1.328,1.328,0,0,0-1.348.1c-.443.431-.125,1.207.215,1.583a4.883,4.883,0,0,0,3.061,1.215,8.894,8.894,0,0,0,3.092-.235,13.812,13.812,0,0,0,5.878-3.225,9.352,9.352,0,0,0,3.366-6.074,7.583,7.583,0,0,0-2.688-6.466,6.769,6.769,0,0,0-3.28-1.442,9.073,9.073,0,0,0-1.846-.067,3.907,3.907,0,0,0-1.708.513.519.519,0,0,0,.259.96h0Z" transform="translate(-947.951 -312.228)" fill="#010d3d"/>
  <path id="Trazado_6482" data-name="Trazado 6482" d="M1093.845,296.115a6.361,6.361,0,0,0,1.019-.98,8.907,8.907,0,0,1,.94-1.109,23.645,23.645,0,0,0,1.881-2.351c1.215-1.567,2.574-3,3.848-4.514l-1.32-.349a36.659,36.659,0,0,0,7.292,13.394.6.6,0,0,0,.941-.121,22.266,22.266,0,0,0,2.112-11.486l-1.516.2a36.657,36.657,0,0,0,5.365,12.152q.946,1.387,2.018,2.688a21.591,21.591,0,0,0,2.238,2.457,2.463,2.463,0,0,0,2.9.611,3.405,3.405,0,0,0,1.4-2.355c.282-1.383.435-2.8.65-4.2q.335-2.2.666-4.4l-1.54-.208a27.186,27.186,0,0,0,5.843,15.028.776.776,0,0,0,.948.121,8.44,8.44,0,0,0,3.676-6.348l-1.54.208,2.484,15.922a.768.768,0,0,0,.733.56,2.817,2.817,0,0,0,2.716-2.692c.043-.964-1.43-.952-1.493,0a1.3,1.3,0,0,1-1.219,1.168l.733.56-2.441-15.933a.774.774,0,0,0-.858-.56.791.791,0,0,0-.678.768,6.754,6.754,0,0,1-2.9,4.992l.948.121a25.352,25.352,0,0,1-5.384-13.923.788.788,0,0,0-.678-.768.771.771,0,0,0-.858.56q-.535,3.539-1.062,7.077a6.6,6.6,0,0,1-.635,2.665c-.494.737-1.227.051-1.673-.4a34.031,34.031,0,0,1-6.713-9.859,34.377,34.377,0,0,1-2.156-6.423c-.192-.827-1.611-.67-1.516.2a20.759,20.759,0,0,1-1.6,10.882l.941-.121a30.866,30.866,0,0,1-4.185-6.046,24.526,24.526,0,0,1-2.433-6.92.8.8,0,0,0-1.321-.349,36.1,36.1,0,0,0-3.989,4.679,13.028,13.028,0,0,0-1.638,2.524c-.2.466-.431.905-.678,1.348a5.62,5.62,0,0,0-.462,1.411.118.118,0,0,0,.2.114h0Z" transform="translate(-890.532 -263.313)" fill="#010d3d"/>
  <path id="Trazado_6483" data-name="Trazado 6483" d="M1126.7,284.839a67.1,67.1,0,0,0,8.7-11.141c1.277-1.979,2.508-4.009,3.594-6.1a4.93,4.93,0,0,0,.658-3.617,12.735,12.735,0,0,0-1.771-3.221c-2.645-4.185-5.333-8.366-8.237-12.383a53.7,53.7,0,0,0-9.268-10.271,25.426,25.426,0,0,0-13.605-5.925,1.209,1.209,0,0,0-1.192,1.191c-.09,1.991-.223,3.985-.216,5.98l1.689-.7c-1.058-.905-2.049-1.869-3.151-2.727a37.115,37.115,0,0,0-3.488-2.426,36.566,36.566,0,0,0-7.567-3.484,30.689,30.689,0,0,0-8.119-1.634c-2.218-.1-5.337.835-5.118,3.617a7.123,7.123,0,0,0,.878,2.559c.4.815.807,1.575,1.238,2.347.878,1.571,1.834,3.1,2.841,4.593l1.262-1.262a64.982,64.982,0,0,0-7.724-2.943q-1.922-.588-3.876-1.054a11.97,11.97,0,0,0-3.225-.423,4.793,4.793,0,0,0-2.994,1.058,3.833,3.833,0,0,0-1.254,3.037c.125,2.426,1.826,4.408,3.441,6.062a33.058,33.058,0,0,0,6.7,5.275l.8-1.889c-1.615-.38-3.366-.725-4.918.063a3.42,3.42,0,0,0-1.928,3.636c.329,1.489,1.724,2.594,2.821,3.48a17.93,17.93,0,0,0,3.864,2.386,1.057,1.057,0,0,0,1.407-.368,1.038,1.038,0,0,0-.368-1.407,17.013,17.013,0,0,1-3.045-1.8,10.289,10.289,0,0,1-2.386-2.257c-.474-.7-.165-1.372.576-1.775,1.026-.56,2.355-.212,3.425.031a1.042,1.042,0,0,0,.8-1.889,30.673,30.673,0,0,1-5.357-3.966c-1.442-1.336-3.115-2.872-3.7-4.816a2.256,2.256,0,0,1,.231-2.128,2.532,2.532,0,0,1,1.889-.784,10.044,10.044,0,0,1,2.712.329c1.187.27,2.363.576,3.535.917a59.014,59.014,0,0,1,7.649,2.81.959.959,0,0,0,1.117-.145.932.932,0,0,0,.145-1.117,45.064,45.064,0,0,1-4.314-7.634,2.146,2.146,0,0,1-.223-1.5,1.319,1.319,0,0,1,.686-.674,5.042,5.042,0,0,1,2.485-.372,29.086,29.086,0,0,1,7.308,1.446,34.6,34.6,0,0,1,10.392,5.4,20.784,20.784,0,0,1,3.162,2.821.994.994,0,0,0,1.654-.435c.3-2.073.459-4.158.655-6.242l-1.192,1.191a24.717,24.717,0,0,1,11.145,4.6,41.734,41.734,0,0,1,9,9.1c2.814,3.738,5.369,7.681,7.9,11.607q.994,1.54,1.971,3.092c.564.9,1.183,1.712.862,2.814a16.33,16.33,0,0,1-1.442,2.966q-.817,1.522-1.685,3.013c-1.266,2.163-2.594,4.291-4.044,6.333s-3,4.134-4.518,6.188c-.321.431.368.929.733.564h0Z" transform="translate(-874.179 -228.371)" fill="#010d3d"/>
  <path id="Trazado_6484" data-name="Trazado 6484" d="M1250.244,316.368c.106-.051.208-.106.313-.153l-.247.1a2.71,2.71,0,0,0,.921-.556c.29-.223.6-.455.9-.686.235-.184.466-.372.7-.556l.325-.263c.063-.051.125-.1.184-.149a2.063,2.063,0,0,0,.318-.4l.129-.306a.954.954,0,0,0,.024-.513,1.222,1.222,0,0,0-.353-.737,1.322,1.322,0,0,0-1.56-.2,4.476,4.476,0,0,0-.866.768c-.208.212-.419.419-.623.631s-.4.431-.607.651l-.282.3a2.106,2.106,0,0,0-.47.748l.1-.247c-.059.1-.121.192-.18.286a.937.937,0,0,0,.145,1.125.966.966,0,0,0,1.125.145h0Z" transform="translate(-984.91 -279.098)" fill="#010d3d"/>
  <path id="Trazado_6485" data-name="Trazado 6485" d="M1247.9,323.226l.024.012-.259-.337.008.031a.781.781,0,0,0,.745.568,1.545,1.545,0,0,0,.192,0c.118-.02-.082,0-.1-.02a.481.481,0,0,0,.114.028,3.134,3.134,0,0,0,.635.027c.306,0,.607,0,.913-.02a16.621,16.621,0,0,0,1.975-.141,1.619,1.619,0,0,0,.729-.341c-.356.274-.251.192-.18.141a2.268,2.268,0,0,0,.247-.188.937.937,0,0,0,.18-.235c.039-.086.074-.169.11-.259s0,0-.1.231a1.194,1.194,0,0,0,.1-.788,1.112,1.112,0,0,0-.29-.494,1.41,1.41,0,0,0-.952-.392,4.049,4.049,0,0,0-.968.125c-.3.059-.6.129-.889.208-.172.047-.345.09-.521.137-.078.02-.157.039-.235.063a2.038,2.038,0,0,0-.3.125c-.086.039.251-.086.055-.031-.161.043-.321.094-.478.149a1.3,1.3,0,0,0-.263.114c-.141.086.031-.035.051-.008a1.075,1.075,0,0,0-.227.059.784.784,0,0,0-.568.745v.027l.165-.4-.02.016a.546.546,0,0,0,.11.854h0Z" transform="translate(-984.175 -284.729)" fill="#010d3d"/>
  <path id="Trazado_6486" data-name="Trazado 6486" d="M1089.631,342.343c-2.414,2.5-4.714,5.11-6.995,7.728-2.132,2.449-4.26,4.906-6.223,7.5-.972,1.281-1.908,2.6-2.778,3.954-.431.67-.87,1.352-1.242,2.057a1.513,1.513,0,0,0,0,1.752,6.7,6.7,0,0,0,1.3,1.027c.768.533,1.567,1.023,2.375,1.493,1.058.611,2.179,1.109,3.245,1.7a10.447,10.447,0,0,0,3.2,1.2,1.12,1.12,0,1,0,.3-2.2c-.1-.012-.251-.035-.059,0l-.278-.047c-.216-.043-.427-.094-.639-.149-.466-.125-.925-.278-1.387-.423a16.178,16.178,0,0,1-2.727-1.223c-.89-.474-1.673-.933-2.48-1.442-.31-.2-.615-.4-.917-.6-.114-.078-.227-.161-.341-.243-.086-.063-.122-.1-.008,0-.051-.043-.1-.078-.153-.125-.035-.031-.114-.133-.157-.145-.067-.02.1.145.086.11.051.1.039.333.1.321.012,0,.114-.227.125-.247.361-.654.741-1.293,1.137-1.928.8-1.289,1.673-2.539,2.583-3.758,1.822-2.43,3.8-4.745,5.764-7.061,2.387-2.814,4.769-5.643,7.007-8.578.372-.486-.423-1.074-.839-.647h0Z" transform="translate(-877.434 -297.596)" fill="#010d3d"/>
  <path id="Trazado_6487" data-name="Trazado 6487" d="M1127.8,418.756a5.949,5.949,0,0,0,3.546.67,12.61,12.61,0,0,0,3.688-.694,13.976,13.976,0,0,0,3.37-1.662,11.218,11.218,0,0,0,2.829-2.574c.58-.8-.674-1.709-1.348-1.038a17.486,17.486,0,0,1-2.465,2.226,13.321,13.321,0,0,1-2.967,1.513,14.875,14.875,0,0,1-3.256.745,27.347,27.347,0,0,0-3.323.243.318.318,0,0,0-.074.572Z" transform="translate(-911.214 -340.787)" fill="#010d3d"/>
  <path id="Trazado_6488" data-name="Trazado 6488" d="M1132.884,281.083c2.621-3.785,5.643-7.3,8.017-11.247.925-1.375,1.595-3.041.478-4.483-3.3-4.683-6.47-9.46-9.621-14.244-2.915-4.726-6.36-9.33-11.54-11.709a62.9,62.9,0,0,0-8.59-3.413c-2.167-.572-2.621,2.767-3.217,4.22-7.14-4.687-15.314-9.322-24.147-8.076-.811.121-1.646,1.062-1.2,1.928q2.052,4.109,4.393,8.057a106.258,106.258,0,0,1-13.61-2.9,1.447,1.447,0,0,0-1.379,0c-1.56,1.25-1.912,4.1-.294,5.4a15.993,15.993,0,0,0,5.22,6.1c.678.6,1.861.811,2.273,1.63-1.371.086-4.977-.157-5.466,1.607-.6,1.979,3.539,4.887,5.854,5.733,2.308,1.9,5.188-5.768,7.575-6.141.466,2.249,3.813,11.446,6.043,11.638a.97.97,0,0,0,1.838.537,24.729,24.729,0,0,0,1.873-6.407c1.332,2.959,6.956,13.3,10.044,13.6a1.1,1.1,0,0,0,.662-.815q1.105-3.909,2.1-7.849a32.151,32.151,0,0,0,1.877,5.408c.439,1.4,2.218,6.019,3.781,7.293-.345-.282,1.125-1.109,1.238-1.552.337-.991,1.113-1.885,1.556-2.849.431,3.358,1.344,6.63,1.7,10a8.47,8.47,0,0,0,1.223,4.15c.842.94,1.8-.078,1.615-1.105,7.359-1.489,4,4.13,9.7-4.51Z" transform="translate(-876.833 -230.533)" fill="#343d64"/>
  <path id="Trazado_6489" data-name="Trazado 6489" d="M1089.364,327.658a11.715,11.715,0,0,0-1.728,2.531,3.916,3.916,0,0,0-.313,2.935c.791,2.01,3.715,1.7,5.345,1.1a6.091,6.091,0,0,0,1.5-.776,2.492,2.492,0,0,0,1.324-1.81,1.069,1.069,0,0,0-1.34-1.023c-.627.184-.941.725-1.411,1.14-.031.027-.341.27-.161.137-.078.059-.161.117-.243.172a6.39,6.39,0,0,1-.588.361,4.4,4.4,0,0,1-1.254.408,3.627,3.627,0,0,1-.541.055c-.247.012-.49.023-.737.012-.372-.016-.552-.059-.666-.439a2.207,2.207,0,0,1,.094-1.262,8.455,8.455,0,0,1,1.61-2.649.65.65,0,0,0,0-.893.635.635,0,0,0-.894,0h0Z" transform="translate(-886.581 -288.637)" fill="#010d3d"/>
  <path id="Trazado_6490" data-name="Trazado 6490" d="M1139.054,352.942a11.5,11.5,0,0,0-1.963,3.013,4.34,4.34,0,0,0,.114,3.676,4.509,4.509,0,0,0,2.574,2.155,5.111,5.111,0,0,0,3.95-.5,9.225,9.225,0,0,0,1.795-1.289c.643-.58,1.45-1.375,1.172-2.324a1.044,1.044,0,0,0-.737-.737c-1-.176-1.544.49-2.171,1.125a6.071,6.071,0,0,1-1.36,1.136c-.117.067-.243.125-.361.192a1.13,1.13,0,0,1-.274.118,4.661,4.661,0,0,1-.455.137c.019,0-.388.071-.223.047a2.155,2.155,0,0,1-1.356-.219,2.24,2.24,0,0,1-1.054-2.277,6.029,6.029,0,0,1,1.532-3.068.861.861,0,0,0,0-1.18.842.842,0,0,0-1.179,0h0Z" transform="translate(-916.735 -303.983)" fill="#010d3d"/>
  <path id="Trazado_6491" data-name="Trazado 6491" d="M1155.887,412.807c.036.016.075.027.11.043l-.2-.086a3.613,3.613,0,0,1,.745.431l-.173-.133a3.92,3.92,0,0,1,.38.341l-.133-.176a1.4,1.4,0,0,1,.149.223l-.09-.216c.114.306.306.576.435.878l-.1-.239c.067.165.137.329.208.49l-.1-.239c.137.329.192.784.474,1.019a.99.99,0,0,0,.819.266.909.909,0,0,0,.713-.466,1.336,1.336,0,0,0,.149-.529,2.508,2.508,0,0,0-.047-.345,1.532,1.532,0,0,0-.067-.227,4.053,4.053,0,0,0-.282-.654,3.074,3.074,0,0,0-.9-1l.18.141c-.274-.235-.541-.478-.839-.686a4.12,4.12,0,0,0-.968-.478.852.852,0,0,0-1.046.6.848.848,0,0,0,.086.654.981.981,0,0,0,.51.392h0Z" transform="translate(-928.005 -339.513)" fill="#010d3d"/>
  <path id="Trazado_6492" data-name="Trazado 6492" d="M1097.545,454.323a24.949,24.949,0,0,1-2.559,3.77,28.589,28.589,0,0,1-2.994,3.307,1.036,1.036,0,0,0-.161,1.238c.47.815.952,1.63,1.45,2.43.239.388.5.764.748,1.144.122.184.239.372.372.549.177.235.4.3.6.49a.643.643,0,0,0,1.066-.619,4,4,0,0,0-.133-.764c-.078-.172-.165-.337-.251-.506-.223-.435-.439-.874-.678-1.3-.455-.823-.929-1.642-1.411-2.453l-.161,1.238a27.433,27.433,0,0,0,3.147-3.625,16.384,16.384,0,0,0,1.273-1.983c.364-.7.682-1.422,1.038-2.124.459-.9-.893-1.689-1.352-.792h0Z" transform="translate(-889.345 -365.543)" fill="#010d3d"/>
  <path id="Trazado_6493" data-name="Trazado 6493" d="M1101.23,467.852a25.726,25.726,0,0,1,3.782-1.646c1.285-.486,2.68-.85,3.5-2.085a3.687,3.687,0,0,0,.368-.944c.086-.27.176-.537.259-.807.2-.654.407-1.3.6-1.959a24.205,24.205,0,0,0,.929-4.342.733.733,0,0,0-.729-.729.749.749,0,0,0-.729.729,16.987,16.987,0,0,1-.9,3.566,11.96,11.96,0,0,1-1.324,3.072l.353-.353c-.513.368-.764.909-1.344,1.2s-1.254.505-1.865.772a25.25,25.25,0,0,0-3.684,2.175.784.784,0,0,0,.791,1.352h0Z" transform="translate(-894.441 -366.399)" fill="#010d3d"/>
  <path id="Trazado_6494" data-name="Trazado 6494" d="M1075.278,474.638c-.858,2.151-1.238,4.824.208,6.822a4.357,4.357,0,0,0,1.164,1.156c.654.411,1.262.1,1.885-.2q1.875-.894,3.754-1.779a.691.691,0,0,0,.247-.937.7.7,0,0,0-.937-.247c-1.019.505-2.038,1.007-3.057,1.513l-.8.4c-.223.11-.337.239-.545.086a3.278,3.278,0,0,1-.823-.9c-1.093-1.732-.8-3.805-.153-5.643.212-.6-.717-.835-.945-.259h0Z" transform="translate(-878.898 -377.937)" fill="#010d3d"/>
  <path id="Trazado_6495" data-name="Trazado 6495" d="M1101.351,485.521q.576.923,1.156,1.846a13.734,13.734,0,0,1,1.1,1.873.763.763,0,0,0,.846.345,12.459,12.459,0,0,0,3.119-1.176,9.928,9.928,0,0,0,2.692-1.85,6.865,6.865,0,0,0,1.65-2.618c.3-.858.435-2.336-.306-3.01a.5.5,0,0,0-.823.216,5.262,5.262,0,0,0-.165,1.191,6.765,6.765,0,0,1-.337,1.23,5.338,5.338,0,0,1-1.45,2.073,9.194,9.194,0,0,1-2.3,1.45c-.862.408-1.826.654-2.657,1.121l.909.118a13.351,13.351,0,0,1-1.231-1.685c-.392-.564-.8-1.144-1.2-1.716-.427-.611-1.422-.055-1.015.592h0Z" transform="translate(-895.158 -381.877)" fill="#010d3d"/>
  <path id="Trazado_6496" data-name="Trazado 6496" d="M894.562,541.086a21.7,21.7,0,0,1-1.716,4.64c-.721,1.3-2.1,2.912-.937,4.389a3.308,3.308,0,0,0,4.268.486,12.2,12.2,0,0,0,3.354-2.833c.584-.705,1.129-1.321,1.673-2.057a6.091,6.091,0,0,0,.635-1.281,1.86,1.86,0,0,0-.039-1.795,1.236,1.236,0,0,0-1.368-.556,2.088,2.088,0,0,0-1.289,1.462c-.031.09-.067.176-.1.266-.027.067-.078.2-.02.055-.11.263-.231.525-.318.8a5.3,5.3,0,0,1-1.035,1.948,11.094,11.094,0,0,1-1.775,1.736,8.862,8.862,0,0,1-.937.627c-.415.243-.847.4-1.27.611l.419-.114c-.545.059-1.285-.074-1.2-.78a2.932,2.932,0,0,1,.474-1.066,13.663,13.663,0,0,0,.662-1.2,27.557,27.557,0,0,0,1.638-5.032.582.582,0,0,0-1.121-.31h0Z" transform="translate(-767.573 -418.291)" fill="#010d3d"/>
  <path id="Trazado_6497" data-name="Trazado 6497" d="M881.087,554.3a7.678,7.678,0,0,0,2.261,1.227,8.783,8.783,0,0,0,1.129.317,2.646,2.646,0,0,0,1.45.027.7.7,0,0,0,0-1.356,4.787,4.787,0,0,0-1.254-.121c-.094-.008-.188-.016-.282-.027.125.016-.067-.012-.09-.016a3.932,3.932,0,0,1-.556-.129,6.016,6.016,0,0,1-1.865-.952.653.653,0,0,0-.846.169.643.643,0,0,0,.051.862h0Z" transform="translate(-761.147 -425.899)" fill="#010d3d"/>
  <path id="Trazado_6498" data-name="Trazado 6498" d="M894.388,546.219a4.259,4.259,0,0,0-.76-1.309l.1.133a5.277,5.277,0,0,0-.345-.435,1.456,1.456,0,0,0-.27-.215.731.731,0,0,0-.09-.059.956.956,0,0,0-.4-.114.683.683,0,0,0-.584.337.693.693,0,0,0,0,.682,1.21,1.21,0,0,0,.313.333c.114.1.251.18.376.274l-.133-.106a2.209,2.209,0,0,1,.4.415l-.1-.129a3.3,3.3,0,0,1,.4.658.593.593,0,0,0,.36.274.643.643,0,0,0,.392-.031.6.6,0,0,0,.349-.709h0Z" transform="translate(-767.873 -420.45)" fill="#010d3d"/>
  <path id="Trazado_6499" data-name="Trazado 6499" d="M1052.393,516.7c.878-1.383,1.826-2.743,2.614-4.177a12.339,12.339,0,0,0,.9-2.061q.177-.547.306-1.105c.071-.3.114-.513-.125-.745a.116.116,0,0,0-.125-.031c-.3.117-.353.286-.431.588-.094.368-.208.737-.337,1.1a14.519,14.519,0,0,1-.894,2.018c-.756,1.4-1.642,2.731-2.477,4.083-.223.364.345.694.572.333Z" transform="translate(-865.065 -398.77)" fill="#010d3d"/>
  <g id="Grupo_4570" data-name="Grupo 4570" transform="translate(0 99.67)">
    <path id="Trazado_6500" data-name="Trazado 6500" d="M751.762,532.6c.035-2.39-.694-4.554-3.711-4.452-4.4.145-8.8.388-13.21.5q-6.413.159-12.83.161a30.976,30.976,0,0,0-8.241.678c-4.738-11.878-10.028-23.563-15.048-35.311-1.266-2.962-2.042-6.442-5.576-7.242-3.648-.827-52.506-4.279-54.814-4.216-1.325.039-1.2,1.485-1.622,2.774a1.6,1.6,0,0,0-.419,1.36c.466,4.342,1.873,6.865,3.774,10.725q3.533,7.171,7.089,14.323,7.03,14.131,14.166,28.21c1.14,2.253,4.522.27,3.386-1.975-.227-.447-.451-.893-.674-1.34,3.742-.956,7.575-.741,11.4-.537,4.3.227,8.59.243,12.892.106,7.869-.251,15.726-.866,23.6-.87q.464,1.193.917,2.39c.874,2.343,4.663,1.328,3.778-1.038q-.37-.993-.748-1.979a101.776,101.776,0,0,1,11.952,1.007,91.086,91.086,0,0,0,11.784.764,21.721,21.721,0,0,0,8.637-1.4c.933,1.133,2.966,1.238,3.339-.6l.211-1.058a2.022,2.022,0,0,0-.031-.976Z" transform="translate(-612.39 -482.718)" fill="#fff"/>
    <path id="Trazado_6501" data-name="Trazado 6501" d="M876.774,618.933q-.082-4.532-.364-9.056c.016-.929-.266-2.01-1.528-2.073-78.671-3.049-157.448-2.261-236.139-.478-20.871.635-41.73,1.517-62.585,2.5a.9.9,0,0,0-.619,1.5c1.1,12.892,1.532,112.12,1.469,125.056,84.024,3.919,171.324.071,256.387,2.347,13.3.839,26.549,1.375,39.9,1.552,2.606.078,2.363-7.594,2.876-9.511.086-8.547.8-103.276.6-111.838Z" transform="translate(-575.318 -557.539)" fill="#010d3d"/>
    <path id="Trazado_6502" data-name="Trazado 6502" d="M576.185,611.622c8.989-.255,18.01-.549,27-.552,9.475,0,18.947-.447,28.418-.451,9.828,0,19.664-.415,29.488-.611q15.106-.3,30.217-.521,30.489-.441,60.982-.521,30.019-.059,60.038.345c18.7.271,37.4.705,56.088,1.415q3.245.124,6.486.259c1.987.082,1.983-3.006,0-3.088-18.461-.764-36.937-1.25-55.41-1.56q-29.848-.505-59.7-.466-30.5.006-60.982.423-30.025.394-60.046,1.121c-18.708.482-37.4,1.485-56.1,2.143-2.163.074-4.322.274-6.485.361-1.089.043-1.1,1.732,0,1.7h0Z" transform="translate(-575.346 -557.611)" fill="#fff"/>
  </g>
  <path id="Trazado_6503" data-name="Trazado 6503" d="M657.339,532.239c-.862-1.583-1.665-3.178-2.394-4.828-.866-1.955-1.642-3.672-2.606-5.584q-3-5.943-5.917-11.928c-1.948-3.989-3.719-7.7-5.545-11.56q-2.1-4.438-4.173-8.88c-.627-1.348-1.187-2.751-1.881-4.064-.008-.02-.016-.035-.024-.055l.141.525c0-.039.012-.082.012-.121,0,.345,0,.012.024-.106a5.364,5.364,0,0,1,.345-1.18A11.426,11.426,0,0,1,636,483.2c.078-.133.153-.266.239-.4.039-.059.078-.122.122-.18-.09.118.012-.012.055-.047a.362.362,0,0,1,.059-.051c-.071.027.208-.059.27-.071a10.869,10.869,0,0,1,1.176-.023c1.183,0,2.375,0,3.554.051,4.757.231,9.507.6,14.252,1.023,9.6.85,19.186,1.908,28.81,2.473,2.347.137,4.695.266,7.042.364a5.071,5.071,0,0,1,1.332.2c.208.063.1.078-.012-.031-.172-.172-.114-.2-.086-.106a3.394,3.394,0,0,0,.188.353c.705,1.434,1.14,2.575,1.736,3.977.384.909.9,2.136,1.332,3.186q.805,1.946,1.607,3.887,1.875,4.526,3.664,9.087Q705,516.219,708.7,525.53c.263.658.588,1.293.843,1.955a.8.8,0,0,0,.948.541.78.78,0,0,0,.541-.948c-.454-1.164-.835-2.359-1.285-3.527q-.747-1.94-1.5-3.88c-1.058-2.727-2.151-5.439-3.256-8.147q-3.2-7.835-6.383-15.675c-1.317-3.221-2.579-6.485-4.083-9.624a4.768,4.768,0,0,0-.357-.67,2.177,2.177,0,0,0-1.579-.721,29.128,29.128,0,0,0-2.927-.1c-4.06-.1-8.116-.384-12.163-.705-8.261-.654-16.5-1.544-24.758-2.23-4.06-.337-8.123-.537-12.183-.823-1-.071-2-.141-3.006-.192a7.023,7.023,0,0,0-.952-.008,2.431,2.431,0,0,0-.976.235,3.167,3.167,0,0,0-1.136,1.129,11.133,11.133,0,0,0-1.281,2.241,2.659,2.659,0,0,0-.184,2.077c.09.2.184.408.274.611l1.387,3.057q2.61,5.731,5.286,11.435,3.5,7.441,7.12,14.824,1.828,3.715,3.742,7.379c1.156,2.214,2.578,4.26,3.872,6.391.541.893,1.054,1.806,1.6,2.7a.6.6,0,0,0,1.035-.607h0Z" transform="translate(-610.323 -381.861)" fill="#010d3d"/>
  <path id="Trazado_6504" data-name="Trazado 6504" d="M716.914,533.821c-2.657-6.952-5.514-13.829-8.39-20.69-2.218-5.294-4.389-10.623-6.811-15.831-.231-.5-.372-.917-.9-1.16a9.327,9.327,0,0,0-2.618-.47q-1.176-.153-2.351-.29c-3.629-.427-7.261-.78-10.9-1.1-7.6-.674-15.212-1.215-22.826-1.7q-4.238-.27-8.48-.517c-1.407-.082-2.818-.2-4.228-.235-.063,0-.129-.008-.192-.012a.579.579,0,0,0-.494.858c3.4,7.606,6.728,15.232,10.482,22.669q4.4,8.723,9.029,17.328,1,1.864,2.01,3.723a.6.6,0,0,0,.525.3q17.922-.735,35.856-1.285t35.868-.913q5.031-.1,10.063-.188c.8-.016,1.6-.027,2.406-.039a17.286,17.286,0,0,1,2.465-.02c1.132.149.933,1.775.788,2.578-.137.748,1.007,1.066,1.144.317a4.853,4.853,0,0,0-.145-2.939c-.572-1.2-1.763-1.2-2.935-1.183q-4.6.07-9.185.157-9.24.17-18.48.392-18.534.447-37.067,1.1-10.387.364-20.769.807l.525.3c-1.877-3.433-3.723-6.885-5.565-10.337-3.256-6.105-6.45-12.261-9.377-18.531-2.292-4.9-4.44-9.875-6.65-14.812l-.494.858q5.167.27,10.334.6c7.336.455,14.667.956,21.992,1.567,3.742.31,7.481.647,11.215,1.046,1.646.176,3.292.361,4.937.568a19.935,19.935,0,0,1,2.363.333c.114.027.513.263.3.023a.263.263,0,0,1,.027.043c.035.063.067.125.1.188.8,1.556,1.45,3.194,2.148,4.793q1.951,4.5,3.856,9.017c2.927,6.936,5.823,13.892,8.562,20.9q.405,1.04.807,2.085c.251.654,1.317.372,1.062-.294h0Z" transform="translate(-619.922 -388.576)" fill="#010d3d"/>
  <path id="Trazado_6505" data-name="Trazado 6505" d="M863.821,585.82l.2-2.1a9.061,9.061,0,0,0,.082-1.027,2.6,2.6,0,0,0-.227-1.281.757.757,0,0,0-1.293,0,2.763,2.763,0,0,0-.313,1.281,8.951,8.951,0,0,0-.016,1.027v2.1a.791.791,0,0,0,.784.784.8.8,0,0,0,.784-.784h0Z" transform="translate(-749.806 -442.849)" fill="#010d3d"/>
  <path id="Trazado_6506" data-name="Trazado 6506" d="M873.428,587.069q.523-1.017,1.117-1.995a6.553,6.553,0,0,0,1.058-2.085.457.457,0,0,0-.161-.47.444.444,0,0,0-.5-.035,4.74,4.74,0,0,0-1.379,2.018c-.337.741-.639,1.481-.913,2.242-.164.451.557.748.772.325h0Z" transform="translate(-756.122 -443.682)" fill="#010d3d"/>
  <path id="Trazado_6507" data-name="Trazado 6507" d="M853.435,586.3q-.423-1.17-.909-2.308c-.157-.36-.317-.717-.5-1.066a4.376,4.376,0,0,0-.294-.509,1.173,1.173,0,0,0-.368-.4,1.308,1.308,0,0,0-.341-.121.609.609,0,0,0-.737.419,1.143,1.143,0,0,0-.078.364,1.027,1.027,0,0,0,.114.419,5.413,5.413,0,0,0,.294.607c.188.341.384.682.58,1.019.4.674.784,1.348,1.16,2.034a.585.585,0,0,0,.733.239.577.577,0,0,0,.341-.694h0Z" transform="translate(-742.489 -443.344)" fill="#010d3d"/>
  <g id="Grupo_4571" data-name="Grupo 4571" transform="translate(51.813 113.93)">
    <path id="Trazado_6508" data-name="Trazado 6508" d="M711.325,563.6l1.567,3.789h-.925l-2.594-2.018.839,2.018h-1.105L707.54,563.6h.925l2.594,2.018-.839-2.018Z" transform="translate(-707.54 -546.166)" fill="#010d3d"/>
    <path id="Trazado_6509" data-name="Trazado 6509" d="M722.833,568.491a2.736,2.736,0,0,1-.846-.541,2.237,2.237,0,0,1-.549-.788,1.256,1.256,0,0,1-.1-.78.837.837,0,0,1,.4-.541,1.541,1.541,0,0,1,.815-.192,2.563,2.563,0,0,1,.976.192,2.667,2.667,0,0,1,.843.537,2.263,2.263,0,0,1,.545.784,1.28,1.28,0,0,1,.1.788.824.824,0,0,1-.4.541,1.546,1.546,0,0,1-.819.2,2.533,2.533,0,0,1-.972-.2m1.023-.811a.6.6,0,0,0-.031-.517,1.122,1.122,0,0,0-.392-.509.927.927,0,0,0-.541-.184.407.407,0,0,0-.388.184.576.576,0,0,0,.027.509,1.2,1.2,0,0,0,.4.517.908.908,0,0,0,.545.188.4.4,0,0,0,.388-.188" transform="translate(-715.916 -547.413)" fill="#010d3d"/>
    <path id="Trazado_6510" data-name="Trazado 6510" d="M732.291,565.752a1.383,1.383,0,0,1,.564-.1l.384.925a2.213,2.213,0,0,0-.251-.016.53.53,0,0,0-.47.18c-.082.118-.071.3.031.549l.556,1.348h-1.081L730.81,565.7h1.027l.145.353a.562.562,0,0,1,.306-.3" transform="translate(-721.691 -547.413)" fill="#010d3d"/>
    <path id="Trazado_6511" data-name="Trazado 6511" d="M742.822,565.991a2.151,2.151,0,0,1,.745.98l.694,1.681h-1.078l-.627-1.513a1.116,1.116,0,0,0-.31-.454.623.623,0,0,0-.4-.145.33.33,0,0,0-.325.161.628.628,0,0,0,.055.494l.6,1.458h-1.081l-.627-1.513c-.164-.4-.4-.6-.713-.6a.329.329,0,0,0-.329.161.627.627,0,0,0,.055.494l.6,1.458H739l-1.215-2.935h1.027l.129.31a.609.609,0,0,1,.294-.266,1.168,1.168,0,0,1,.478-.09,1.81,1.81,0,0,1,.627.114,1.693,1.693,0,0,1,.556.345.64.64,0,0,1,.317-.341,1.21,1.21,0,0,1,.56-.118,1.814,1.814,0,0,1,1.042.325" transform="translate(-725.936 -547.425)" fill="#010d3d"/>
    <path id="Trazado_6512" data-name="Trazado 6512" d="M757.2,565.695l1.215,2.935h-1.027l-.121-.294c-.106.227-.364.341-.768.341a2.05,2.05,0,0,1-.843-.188,2.472,2.472,0,0,1-.764-.533,2.421,2.421,0,0,1-.533-.8,1.468,1.468,0,0,1-.129-.8.787.787,0,0,1,.325-.529,1.2,1.2,0,0,1,.69-.184,1.7,1.7,0,0,1,.984.3l-.106-.255H757.2Zm-.423,1.979a.6.6,0,0,0-.031-.517,1.124,1.124,0,0,0-.392-.509.929.929,0,0,0-.541-.184.407.407,0,0,0-.388.184.576.576,0,0,0,.027.509,1.2,1.2,0,0,0,.4.517.909.909,0,0,0,.545.188.4.4,0,0,0,.388-.188" transform="translate(-735.924 -547.407)" fill="#010d3d"/>
    <path id="Trazado_6513" data-name="Trazado 6513" d="M766.241,563.763a2.4,2.4,0,0,1,.815.486,2.063,2.063,0,0,1,.525.745,1.14,1.14,0,0,1,.09.741.782.782,0,0,1-.411.486,1.878,1.878,0,0,1-.866.172H765.7l.412.991h-1.125l-1.568-3.793h1.818a2.906,2.906,0,0,1,1.007.172m.2,1.642a.39.39,0,0,0,.008-.408.847.847,0,0,0-.345-.411,1.086,1.086,0,0,0-.584-.145H764.9l.459,1.109h.623a.572.572,0,0,0,.462-.145" transform="translate(-741.523 -546.16)" fill="#010d3d"/>
    <path id="Trazado_6514" data-name="Trazado 6514" d="M776.841,565.752a1.383,1.383,0,0,1,.564-.1l.384.925a2.214,2.214,0,0,0-.251-.016.53.53,0,0,0-.47.18c-.082.118-.07.3.031.549l.557,1.348h-1.082L775.36,565.7h1.027l.145.353a.562.562,0,0,1,.306-.3" transform="translate(-748.784 -547.413)" fill="#010d3d"/>
    <path id="Trazado_6515" data-name="Trazado 6515" d="M784.533,568.491a2.738,2.738,0,0,1-.846-.541,2.238,2.238,0,0,1-.549-.788,1.255,1.255,0,0,1-.1-.78.837.837,0,0,1,.4-.541,1.541,1.541,0,0,1,.815-.192,2.563,2.563,0,0,1,.976.192,2.668,2.668,0,0,1,.843.537,2.265,2.265,0,0,1,.545.784,1.279,1.279,0,0,1,.1.788.824.824,0,0,1-.4.541,1.545,1.545,0,0,1-.819.2,2.533,2.533,0,0,1-.972-.2m1.023-.811a.6.6,0,0,0-.031-.517,1.142,1.142,0,0,0-.392-.509.927.927,0,0,0-.541-.184.407.407,0,0,0-.388.184.576.576,0,0,0,.027.509,1.2,1.2,0,0,0,.4.517.909.909,0,0,0,.545.188.4.4,0,0,0,.388-.188" transform="translate(-753.438 -547.413)" fill="#010d3d"/>
    <path id="Trazado_6516" data-name="Trazado 6516" d="M733.443,530.7l-.827-.564c-1.023-2.093-1.473-4.056-3.151-6.05-.615-.729-1.889-2.128-2.6-2.943-.129-.161-.259-.313-.388-.455-.031-.043-.059-.074-.082-.1h-.012a5.556,5.556,0,0,0-1.038-.905c-1.207-.772-2.214-.768-3.088.043-.164.153-1,.055-1.019.478a2.5,2.5,0,0,1,.749-.047,12.59,12.59,0,0,1,1.763.8c-1.4,2.778,2.151,6.383,3.911,9.221,0,.168-1.3.219-.846.933a.3.3,0,0,0,.216.149c1.348.153,1.877-.408,3.147-.364,1.105.035,1.9.521,3.256.364.286-.031.31-.345.012-.549" transform="translate(-715.871 -519.11)" fill="#010d3d" fill-rule="evenodd"/>
    <path id="Trazado_6517" data-name="Trazado 6517" d="M729.89,524.869a.944.944,0,0,1,.1.443c1.493,5.78,3.934,8,4.224,6.352.09-.513.6-.56,1.336,1.916.078.263-.654.145-.929.157-.815.035-.858.086-1.356-.219-.282-.172-4.158-5.09-4.122-7.63a5.378,5.378,0,0,1,.059-1.191c.02-.1.4-.216.686.165" transform="translate(-720.677 -522.447)" fill="#fff" fill-rule="evenodd"/>
    <path id="Trazado_6518" data-name="Trazado 6518" d="M727.844,520.945a.155.155,0,0,1-.149.235.408.408,0,0,1-.345-.235.155.155,0,0,1,.149-.235.408.408,0,0,1,.345.235" transform="translate(-719.576 -520.083)" fill="#fff"/>
  </g>
</svg>
