<svg xmlns="http://www.w3.org/2000/svg" width="87.553" height="87.545" viewBox="0 0 87.553 87.545">
  <path id="arrow-right-arrow-left" d="M83.441,58.819H13.549L26.252,45.2a4.1,4.1,0,0,0-5.99-5.6L1.111,60.119a4.1,4.1,0,0,0,0,5.6l19.15,20.518a4.1,4.1,0,1,0,5.991-5.6l-12.7-13.614H83.441a4.1,4.1,0,0,0,0-8.207ZM4.1,28.726H74L61.3,42.341a4.1,4.1,0,1,0,6,5.6l19.15-20.518a4.1,4.1,0,0,0,0-5.6L67.3,1.305A4.118,4.118,0,0,0,64.291,0a4.1,4.1,0,0,0-3,6.9L74,20.518H4.1a4.1,4.1,0,0,0,0,8.207Z" fill="#ccced8"/>
</svg>
