<svg id="award" xmlns="http://www.w3.org/2000/svg" width="47.563" height="63.423" viewBox="0 0 47.563 63.423">
  <path id="Trazado_4100" data-name="Trazado 4100" d="M47.449,24.833c0-2.134-2.139-3.947-2.643-5.915-.521-2.037.447-4.721-.541-6.5-1-1.808-3.719-2.266-5.125-3.734S37.3,4.373,35.565,3.327c-1.708-1.032-4.278-.021-6.229-.566C27.558,2.234,25.824,0,23.781,0S20,2.234,18.121,2.76c-1.957.543-4.521-.467-6.232.564C10.157,4.37,9.718,7.209,8.313,8.676S4.188,10.6,3.186,12.41c-.988,1.778-.02,4.469-.541,6.5C2.14,20.888,0,22.7,0,24.833s2.139,3.947,2.643,5.915c.521,2.037-.448,4.721.54,6.5,1,1.808,3.72,2.261,5.125,3.735s1.844,4.307,3.577,5.355c1.708,1.032,4.277.02,6.227.565,1.89.521,3.624,2.759,5.668,2.759s3.78-2.234,5.665-2.76c1.951-.544,4.519.468,6.227-.564,1.731-1.046,2.171-3.885,3.577-5.353s4.124-1.925,5.126-3.734c.988-1.784.021-4.467.542-6.5C45.418,28.778,47.449,26.967,47.449,24.833ZM23.781,35.181a10.132,10.132,0,0,1-9.908-10.347,10.127,10.127,0,0,1,9.908-10.347,10.127,10.127,0,0,1,9.908,10.347A10.132,10.132,0,0,1,23.781,35.181Z" transform="translate(-0.001)" fill="#010d3d"/>
  <path id="Trazado_4101" data-name="Trazado 4101" d="M11.894,314.13c-1.732-1.048-2.171-3.893-3.577-5.355a6.975,6.975,0,0,0-1.73-1.207L.22,323.826a3.211,3.211,0,0,0,.48,3.137,2.9,2.9,0,0,0,2.864,1.054l5.6-1.169,2.654,5.467a2.941,2.941,0,0,0,2.648,1.694c.043,0,.082,0,.125,0a2.946,2.946,0,0,0,2.631-1.925l5.829-14.809c-1.728-.435-3.275-2.121-4.925-2.582C16.172,314.143,13.6,315.164,11.894,314.13Zm35.468,9.688L41,307.572a6.993,6.993,0,0,0-1.734,1.209c-1.4,1.468-1.844,4.307-3.577,5.353-1.708,1.032-4.277.019-6.228.564-1.649.46-3.2,2.145-4.922,2.58l5.829,14.809a2.948,2.948,0,0,0,2.631,1.925c.036-.119-.026,0,.123,0a2.925,2.925,0,0,0,2.645-1.7l2.654-5.469,5.6,1.169a2.9,2.9,0,0,0,2.864-1.054A3.214,3.214,0,0,0,47.362,323.817Z" transform="translate(-0.008 -270.589)" fill="#010d3d" opacity="0.4"/>
</svg>
