<svg xmlns="http://www.w3.org/2000/svg" width="71.143" height="71" viewBox="0 0 71.143 71">
  <g id="earth-americas" transform="translate(-32 -32)">
    <path id="Trazado_6454" data-name="Trazado 6454" d="M80.758,35.243a5.084,5.084,0,0,1-.556,5.828l-2.493,2.919a5.071,5.071,0,0,0-.048,6.558l2.16,2.573a3.036,3.036,0,0,1-3.287,4.828l-3.827-1.223a4.081,4.081,0,0,0-3.24.238l-.953.461a3.232,3.232,0,0,0-1.6,3.906,3.118,3.118,0,0,0,1.445,1.763l5.479,3.144a10.137,10.137,0,0,0,4.907,1.334h6.987a7.66,7.66,0,0,1,5.4,2.239l.6.6a7.66,7.66,0,0,1,2.239,5.4v1.3a7.593,7.593,0,0,1-3.843,6.622l-1.286.746a10.137,10.137,0,0,0-4.812,6.352l-.445,1.779a7.684,7.684,0,0,1-5.193,5.352A3.833,3.833,0,0,1,73.5,94.393V88.2a4.352,4.352,0,0,0-2.541-4.113,4.872,4.872,0,0,1-2.541-4.113V73.637a6.183,6.183,0,0,0-4.605-6.114l-9.449-2.731A10.156,10.156,0,0,1,48.7,60.648L45.26,55.487A35.536,35.536,0,0,1,78.583,32H78.9Zm29.187,15.273A35.347,35.347,0,0,1,114.3,67.571c0,1.969-.3,3.891-.461,5.78l-7.289-2.43a5.09,5.09,0,0,1-3.224-3.224l-2.763-8.289a5.1,5.1,0,0,1,2.938-6.32Z" transform="translate(-11.154)" fill="#010d3d"/>
    <path id="Trazado_6455" data-name="Trazado 6455" d="M34.106,55.487l3.444,5.161a10.156,10.156,0,0,0,5.661,4.145l9.449,2.731a6.183,6.183,0,0,1,4.605,6.114v6.336a4.471,4.471,0,0,0,2.541,3.97A4.7,4.7,0,0,1,62.347,88.2v6.193a3.833,3.833,0,0,0,4.891,3.573,7.684,7.684,0,0,0,5.193-5.352l.445-1.779a10.209,10.209,0,0,1,4.812-6.368l1.286-.73a7.593,7.593,0,0,0,3.843-6.622v-1.3a7.632,7.632,0,0,0-2.239-5.4l-.6-.6a7.8,7.8,0,0,0-5.4-2.382H67.587a9.956,9.956,0,0,1-4.907-1.191L57.2,63.093a3.117,3.117,0,0,1-1.445-1.763,3.225,3.225,0,0,1,1.6-3.906l.953-.461a4.081,4.081,0,0,1,3.24-.238l3.827,1.223a3.036,3.036,0,0,0,3.287-4.828l-2.16-2.573a5.071,5.071,0,0,1,.048-6.558l2.493-2.919a5.084,5.084,0,0,0,.556-5.828L67.746,32A35.573,35.573,0,0,1,98.791,50.516l-6.447,2.573a5.09,5.09,0,0,0-2.938,6.32L92.169,67.7a5.09,5.09,0,0,0,3.224,3.224l7.289,2.43A35.58,35.58,0,1,1,34.106,55.487Z" fill="#010d3d" opacity="0.4"/>
  </g>
</svg>
