<svg id="handshake" xmlns="http://www.w3.org/2000/svg" width="79.279" height="47.565" viewBox="0 0 79.279 47.565">
  <path id="Trazado_4102" data-name="Trazado 4102" d="M123.574,81.268l-4.905,4.137a5.941,5.941,0,0,1-7.68-9.067l13.663-11.26L118.9,64a27.081,27.081,0,0,0-18.915,7.915L96,71.965v27.7l6.225-.011,11.21,10.135a7.924,7.924,0,0,0,11.149-1.145l2.245,1.888a4.624,4.624,0,0,0,6.488-.665l3.887-4.781.666.557a3.977,3.977,0,0,0,5.574-.588l1.182-1.459a3.963,3.963,0,0,0-.581-5.566Zm27.921-9.29v27.7a3.947,3.947,0,0,0,3.852,3.97l8.039-.006V71.99Zm5.946,27.7a1.981,1.981,0,1,1,1.982-1.981A2,2,0,0,1,157.441,99.675Z" transform="translate(-84.108 -64)" fill="#010d3d"/>
  <path id="Trazado_4103" data-name="Trazado 4103" d="M59.459,72.015c-5.076-5.07-8-7.943-15.187-7.943a4.77,4.77,0,0,0-3.741,1.061L26.88,76.4a5.946,5.946,0,0,0,7.685,9.075l4.9-4.145L59.943,98.09a3.874,3.874,0,0,1,1.125,1.615l6.319-.079V72.04ZM0,103.69l7.928,0a3.957,3.957,0,0,0,3.964-3.968v-27.7H0Zm5.946-7.9a1.981,1.981,0,1,1-1.982,1.982A1.985,1.985,0,0,1,5.946,95.786Z" transform="translate(0 -64.063)" fill="#010d3d" opacity="0.4"/>
</svg>
