<svg id="pegasus" xmlns="http://www.w3.org/2000/svg" width="65.185" height="57.943" viewBox="0 0 65.185 57.943">
  <path id="Trazado_4108" data-name="Trazado 4108" d="M121.889,8.669a3.6,3.6,0,0,0-.968-2.472c-.428-.453-.974-1.032-1.553-1.641a5.366,5.366,0,0,0,2.514-3.466.916.916,0,0,0-.724-1.074A.951.951,0,0,0,120.979,0H107.4A14.4,14.4,0,0,0,93.019,14.485c-7.435,0-11.894-4.161-14.542-10.215a1.063,1.063,0,0,0-1.947-.032,17.926,17.926,0,0,0-1.715,7.656A17.421,17.421,0,0,0,89.2,28.609v.361A18.061,18.061,0,0,1,71.438,15.062a2.261,2.261,0,0,1-.238.113V15.1a10.842,10.842,0,0,0-3.789,18.166l-2.905,7.765a7.117,7.117,0,0,0-.423,2.43,7.3,7.3,0,0,0,.184,1.91L66.728,55.2a3.617,3.617,0,0,0,3.51,2.743H73.97a3.621,3.621,0,0,0,3.514-4.5l-2.409-9.662,2.687-7.2,15.063,2.529V54.32a3.622,3.622,0,0,0,3.621,3.621h3.52a3.622,3.622,0,0,0,3.621-3.621V36.009a11.883,11.883,0,0,0,3.726-8.85c0-.025-.01-.047-.012-.072v-11.6l1.913.8,2.149,4.278a3.6,3.6,0,0,0,4.571,1.731l3.687-1.478a3.629,3.629,0,0,0,2.278-3.372Zm-7.243,2.194a1.727,1.727,0,0,1-1.709-1.811,1.712,1.712,0,1,1,3.418,0A1.729,1.729,0,0,1,114.646,10.863Z" transform="translate(-56.714 0.001)" fill="#010d3d"/>
  <path id="Trazado_4109" data-name="Trazado 4109" d="M7.284,166.3a4.958,4.958,0,0,0-1.953,3.655V176.3a1.792,1.792,0,0,1-1.709,1.811H1.709A1.8,1.8,0,0,1,0,176.3v-6.337A9.938,9.938,0,0,1,9.857,160h.154A10.815,10.815,0,0,0,7.284,166.3Z" transform="translate(0 -141.893)" fill="#010d3d" opacity="0.4"/>
</svg>
