<svg id="chart-line-up" xmlns="http://www.w3.org/2000/svg" width="66.222" height="57.944" viewBox="0 0 66.222 57.944">
  <path id="Trazado_4106" data-name="Trazado 4106" d="M125.835,153.687a4.13,4.13,0,0,1-5.846,0l-9.61-9.481-7.308,7.411a4.134,4.134,0,0,1-5.846-5.846l10.347-10.347a4.13,4.13,0,0,1,5.846,0l9.494,9.481,7.424-7.411-4.307-4.307a3.1,3.1,0,0,1,2.3-5.187h14.24a3.1,3.1,0,0,1,3.1,3.1v14.24a3.107,3.107,0,0,1-5.3,2.186l-4.191-4.191Z" transform="translate(-83.592 -115.583)" fill="#010d3d"/>
  <path id="Trazado_4107" data-name="Trazado 4107" d="M4.139,32a4.139,4.139,0,0,1,4.139,4.139V79.6a2.072,2.072,0,0,0,2.069,2.069H62.083a4.139,4.139,0,0,1,0,8.278H10.347A10.346,10.346,0,0,1,0,79.6V36.139A4.139,4.139,0,0,1,4.139,32Z" transform="translate(0 -32)" fill="#010d3d" opacity="0.4"/>
</svg>
