<svg xmlns="http://www.w3.org/2000/svg" width="40" height="40" viewBox="0 0 40 40">
  <g id="Grupo_4697" data-name="Grupo 4697" transform="translate(-111.598 3.151)">
    <g id="Grupo_4699" data-name="Grupo 4699" transform="translate(42 -1)">
      <rect id="Rectángulo_3120" data-name="Rectángulo 3120" width="40" height="40" rx="5" transform="translate(69.598 -2.151)" fill="#9297ab"/>
      <g id="Grupo_4698" data-name="Grupo 4698" transform="translate(69.756 -2.052)">
        <path id="Trazado_6572" data-name="Trazado 6572" d="M36.353,36.579l-1.03-1.03c-.272-3.817.357-7.394-1.13-11.029-.546-1.332-1.75-3.882-2.4-5.367-.11-.292-.225-.57-.346-.831-.028-.075-.05-.138-.065-.189l-.023,0a5.529,5.529,0,0,0-1.155-1.656c-1.54-1.409-3.3-1.4-5.4.077-.4.279-1.78.1-2.119.874a4.554,4.554,0,0,1,1.332-.087A13.058,13.058,0,0,1,26.513,18.8c-4.424,5.062-.85,11.641.167,16.809-.116.308-2.422.4-2.144,1.7a.312.312,0,0,0,.265.273c2.235.281,3.555-.746,5.735-.668,1.9.067,2.936.948,5.4.668a.592.592,0,0,0,.415-1" transform="translate(-9.85 -6.536)" fill="#010d3d" fill-rule="evenodd"/>
        <path id="Trazado_6573" data-name="Trazado 6573" d="M30.694,22.743a1.836,1.836,0,0,1-.141.81c-1.56,10.541,1.087,14.582,2.78,11.582.53-.939,1.437-1.023.943,3.5-.052.482-1.246.267-1.73.288-1.442.063-1.559.159-2.2-.4-.363-.316-3.566-9.282-1.682-13.908a13.471,13.471,0,0,1,.958-2.172.643.643,0,0,1,1.072.3" transform="translate(-12.129 -9.424)" fill="#9297ab" fill-rule="evenodd"/>
        <path id="Trazado_6574" data-name="Trazado 6574" d="M31.085,17.86a.429.429,0,1,1-.429-.429.429.429,0,0,1,.429.429" transform="translate(-13.041 -7.38)" fill="#9297ab"/>
      </g>
    </g>
  </g>
</svg>
