<svg xmlns="http://www.w3.org/2000/svg" width="471.646" height="295.458" viewBox="0 0 471.646 295.458">
  <g id="IICE_LandingCompliancePenal_Nivel3_2" transform="translate(-574.68 -294.6)">
    <g id="Grupo_4912" data-name="Grupo 4912" transform="translate(684.359 303.738)">
      <path id="Trazado_9163" data-name="Trazado 9163" d="M908.512,451.4a16.449,16.449,0,0,1-5.537-6.362c-2.231-4.492-2.451-9.583-1.626-14.453,1.381-8.159,5.69-16.085,12.406-21.029a22.443,22.443,0,0,1,5.378-2.909,25.863,25.863,0,0,1,5.36-1.241c1.277-.2,3.208-.4,4.027-1.4.281-.342.153-1.137-.11-1.8-.458-1.161-1.112-2.249-1.662-3.367-.99-2.023-1.907-4.241-1.662-6.545a9.032,9.032,0,0,1,2.915-5.47c1.3-1.283,2.9-2.4,3.807-4.021a10.825,10.825,0,0,0,.959-5.347,39.758,39.758,0,0,1,.257-7.083,10.289,10.289,0,0,1,1.18-3.27,33.539,33.539,0,0,1,2.035-2.7,2.064,2.064,0,0,0,.507-2.127,4.759,4.759,0,0,0-2.432-2.041,37.549,37.549,0,0,1-5.329-2.4.787.787,0,0,1-1.125.318,19.97,19.97,0,0,1-7.932-11.055,24.719,24.719,0,0,1,.22-13.787,17.69,17.69,0,0,1,3.117-6.344,18.144,18.144,0,0,1,5.378-4.394,22.456,22.456,0,0,1,13.469-2.335,20.309,20.309,0,0,1,10.952,4.932c3.031-8.434,11.373-14.49,20.229-15.486,10.3-1.155,19.287,5.708,22.924,15.04a23.473,23.473,0,0,1,1.552,10.273,18.882,18.882,0,0,1,9.87-4.749c5.659-.678,11.386,2.176,14.967,6.466,6.93,8.287,7.713,20.583,3.954,30.422a33.751,33.751,0,0,1-8.6,12.852,23.914,23.914,0,0,1,4.125,28.98,23.914,23.914,0,0,1-4.425,5.653,25.51,25.51,0,0,1,9.424,18.9,24.235,24.235,0,0,1-10.933,20.656,24.481,24.481,0,0,1-9.57,3.869,34.7,34.7,0,0,1,6.252,19.5c.024,3.765-.434,7.975-2.555,11.2a10.178,10.178,0,0,1-10.31,4.351,14.136,14.136,0,0,1-5.867-2.4,38.512,38.512,0,0,1,1.167,8.861c.061,4.217-.727,8.7-3.483,12.033-3.38,4.089-8.751,3.771-13.378,2.335a36.923,36.923,0,0,1-11.935-6.38,36.026,36.026,0,0,1-8.6-9.888,20.682,20.682,0,0,1-14.392,3.63,20.229,20.229,0,0,1-14.154-8.794,19.788,19.788,0,0,1-2.854-6.435c-6.228,2.053-13.158-1.033-17.65-5.592-5.549-5.622-8.862-14.631-5.708-22.245a15.359,15.359,0,0,1,5.4-6.82Z" transform="translate(-811.217 -309.552)" fill="#00b2e3"/>
      <path id="Trazado_9164" data-name="Trazado 9164" d="M756.758,495.911a1.705,1.705,0,0,1,1.7-.452c.7.287,1.418.581,2.133.868a1.713,1.713,0,0,1,1.5-.263,76.8,76.8,0,0,0,13.3,2.347A90.165,90.165,0,0,0,789,498.4a118.423,118.423,0,0,0,26.536-5.25,110.666,110.666,0,0,0,14.453-5.751,1.694,1.694,0,0,1,1.8.128,45.358,45.358,0,0,1,4.8-4.455,26.656,26.656,0,0,1,15.071-5.341,34.454,34.454,0,0,1,10.09,1.461,1.936,1.936,0,0,1,.141-.44c1.418-3.092,2.878-6.142,4.431-9.161-1.668-.532-3.331-1.1-4.975-1.711h0a12.436,12.436,0,0,0-4.137-4.033,13.522,13.522,0,0,1-3.429-4.223,37.774,37.774,0,0,1-2.585-4.8c-.7-1.656-1.241-3.386-1.778-5.1-1.173-3.758-2.518-7.419-2.872-11.367-.636-7.065.917-14,2.823-20.766,2.066-1.552,4.186-3.025,6.179-4.669a28.048,28.048,0,0,0,4.333-4.309,27.1,27.1,0,0,0,3.166-5.39c2.072-4.5,3.331-9.405,4.81-14.129q2.53-8.076,5.06-16.146a1.738,1.738,0,0,1,1.186-1.2.739.739,0,0,1,1.265-.251c.122.141.22.287.336.428a1.655,1.655,0,0,1,.868,1.192c.348.526.678,1.057,1,1.6s.636,1.082.953,1.626a11.073,11.073,0,0,0,3.569,4.235,6.281,6.281,0,0,0,5.39.122,8.319,8.319,0,0,0,4.18-4.009,16.466,16.466,0,0,0,1.4-7.376c.018-1.2,1.925-1.558,2.176-.293a65.646,65.646,0,0,0,2.628,9.644,41,41,0,0,0,2.445,5.47,34.161,34.161,0,0,0,2.029,3.288c.257.367.617,1,1.131.947.44-.043.917-.593,1.2-.9,1.491-1.62,1.8-3.948,2.286-6,.3-1.289,2-.849,2.133.287a29.759,29.759,0,0,0,5.439,13.39,22.581,22.581,0,0,0,4.834,5.25,4.538,4.538,0,0,0,3.221,1.045,4.907,4.907,0,0,0,2.732-1.577c1.943-2,2.8-4.834,4.584-6.985.666-.8,1.858.073,1.65.959a206.642,206.642,0,0,0-4.37,24.317c-.134,1.167-.263,2.341-.373,3.514a11.8,11.8,0,0,0,1.314-2.6,8.114,8.114,0,0,1,2.958-4.009c3.263-2.06,7.566-.77,10.065,1.864a12.078,12.078,0,0,1,2.927,10.732,17.281,17.281,0,0,1-2.377,5.818,16.524,16.524,0,0,1-4.088,4.712c-3.557,2.548-7.511.312-10.285-2.426-.067.208-.141.416-.214.629-.33.972-.666,1.95-1.033,2.909q-1.036,2.713-2.231,5.366a37.523,37.523,0,0,1-6.117,9.784c-2.7,2.982-5.25,8.874-8.629,11.013-3.526,2.225-6.839,3.117-10.6,4.907-4.137,1.968-9.656,1.112-14.246,1.345-.923,2.017-1.956,3.966-2.8,6.026q-1.366,3.346-2.732,6.686c.263.079.526.165.788.244a50.8,50.8,0,0,1,8.55,2.988,17.35,17.35,0,0,1,5.665,4.932,26.074,26.074,0,0,1,3.257,6.747c.892,2.383,1.693,4.81,2.781,7.114a42.089,42.089,0,0,0,3.74,6.472A41.45,41.45,0,0,0,927.8,529.346a42.4,42.4,0,0,0,31.15-5.317q1.714-1.054,3.337-2.243a.789.789,0,0,1,.874-.049,10.336,10.336,0,0,1,1.07-1.882c.483-.6,1-1.186,1.516-1.754a43.171,43.171,0,0,1,6.93-6.032c4.877-3.435,11.025-6.5,17.081-6.551a1.362,1.362,0,0,1,1.149.666c.073-.043.141-.086.208-.128a.755.755,0,0,1,.764,1.3,12.758,12.758,0,0,0-4.858,5.262q3.346.156,6.7.293a.806.806,0,0,1,.562,1.357,19.066,19.066,0,0,1-6.564,4.107q2.7,1.082,5.39,2.176c.526.208.9.941.373,1.387a15.675,15.675,0,0,1-9.143,3.691c.391.471.776.941,1.167,1.418a.887.887,0,0,1-.171,1.363,9.644,9.644,0,0,1-4.773,1.613,14.824,14.824,0,0,0-5.4,1.479c-3.123,1.717-5.439,4.59-7.81,7.181a36.639,36.639,0,0,1-8.275,6.912,43.429,43.429,0,0,1-10.4,4.327,71.328,71.328,0,0,1-11.1,2.084,63.525,63.525,0,0,1-12.565.458,27.826,27.826,0,0,1-11.691-3.428,44.034,44.034,0,0,1-9.308-7.651,208.032,208.032,0,0,1-17.778-20.644,40.821,40.821,0,0,0-1.32,6.826c-.312,3.086-.165,6.191-.452,9.277a20.719,20.719,0,0,1-2.744,8.36,61.181,61.181,0,0,0-3.862,7.664c-4.321,11.159-4.162,23.376-2.3,35.03,1.149,7.23,2.891,14.38,4.553,21.506a1.347,1.347,0,0,1-.929,1.644c-8.733,1.424-17.43,3.013-26.132,4.59-3.74.678-7.81,1.491-11.465,0a8.889,8.889,0,0,1-4.559-3.96c-4.608,7.052-15.712,5.054-23.022,4.278q-4.18-.44-8.354-.886c-.275-.031-.55-.055-.831-.079a22.441,22.441,0,0,1-5.885-.9,5.358,5.358,0,0,1-3.337-4.528,33.771,33.771,0,0,1-.342-7.572c.605-10.224,4.467-20.229,8.513-29.542,2.084-4.8,4.327-9.558,6.808-14.172,1.2-2.231,2.487-4.412,3.728-6.619a22.416,22.416,0,0,0,2.72-6.588c.556-2.866,0-5.849-.385-8.7a39.684,39.684,0,0,1-.361-8.385,36.751,36.751,0,0,1,2.738-11.324c-10.163,3.477-20.968,4.565-31.718,4.29a89.4,89.4,0,0,1-17.595-1.717c-5.207-1.192-10.347-3.691-13.249-8.36-2.732-4.388-3.526-10.921.306-14.954Z" transform="translate(-754.147 -332.366)" fill="#fff"/>
      <path id="Trazado_9165" data-name="Trazado 9165" d="M907.982,600.2a49.91,49.91,0,0,1,.238-5.732c.324-3.758.843-7.517,1.375-11.251q1.586-11.266,4.1-22.368a115.491,115.491,0,0,1,3.288-12.571,1.341,1.341,0,0,1,2.622.354,22.339,22.339,0,0,0,.2,3.2,9.208,9.208,0,0,0,1.076,2.756,5.461,5.461,0,0,0,3.869,2.878,12.359,12.359,0,0,0,2.891,0c1.18-.086,2.347-.171,3.526-.232,2.267-.128,4.535-.293,6.8-.471a1.2,1.2,0,0,1,.257.018c.061-.153.128-.306.2-.452.379-.831,1.839-.232,1.491.63s-.721,1.693-1.021,2.555c-.324.947-.562,1.907-.923,2.848q-1.045,2.75-2.218,5.439c-1.54,3.557-3.147,7.089-4.859,10.567a99.027,99.027,0,0,1-12.131,19.349,39.447,39.447,0,0,1-4.577,4.516c-1.626,1.424-3.135,2.976-4.773,4.382-.568.489-1.675.214-1.613-.666A56.318,56.318,0,0,0,907.982,600.2Z" transform="translate(-813.895 -402.019)" fill="#f9d0dd"/>
      <g id="Grupo_4911" data-name="Grupo 4911" transform="translate(79.098 176.726) rotate(14)">
        <path id="Trazado_9166" data-name="Trazado 9166" d="M880.864,617.307s.428-.636.568-.85c-.636-3.013-1.913-5.793-1.565-8.708.128-1.07.495-3.123.666-4.315.018-.232.049-.458.086-.666,0-.061.006-.11.006-.153h.018a3.327,3.327,0,0,1,.526-1.344c.88-1.173,2.243-1.234,4.193-.165.367.2,1.4,0,1.833.6a3.507,3.507,0,0,0-1.051-.012,7.574,7.574,0,0,0-1.607,1.247c4.541,3.795,3.233,9.112,3.587,13.212.159.238,1.962.214,2.035,1.247.006.116-.037.208-.147.226-1.668.312-2.915-.44-4.584-.287-1.455.134-2.06.868-4.028.752-.416-.024-.746-.464-.544-.77" transform="translate(-879.809 -600.346)" fill="#010d3d" fill-rule="evenodd"/>
        <path id="Trazado_9167" data-name="Trazado 9167" d="M884.641,605.8a1.791,1.791,0,0,0,.287.63c3.539,8.213,2.384,11.5.409,9.216-.617-.715-1.338-.746.043,2.787.147.379,1.021.159,1.4.153,1.131-.012,1.241.061,1.613-.4.208-.263.7-7.437-1.778-10.994a14.436,14.436,0,0,0-1.222-1.668c-.128-.141-.74-.275-.764.281" transform="translate(-881.147 -602.31)" fill="#fff" fill-rule="evenodd"/>
        <path id="Trazado_9168" data-name="Trazado 9168" d="M890.3,602.154a.449.449,0,0,0,.428.318.265.265,0,0,0,.238-.354.444.444,0,0,0-.428-.318.265.265,0,0,0-.238.354" transform="translate(-887.035 -600.911)" fill="#fff"/>
      </g>
      <path id="Trazado_9169" data-name="Trazado 9169" d="M1042.415,446.468a5.636,5.636,0,0,1,1.6-1.375c.66-.318,1.247-.813,1.925-1.1a3.907,3.907,0,0,1,3.484.342c2.664,1.522,3.386,4.706,3.471,7.56a19.428,19.428,0,0,1-1.7,9.454c-1.265,2.42-3.588,4.6-6.417,4.871a6.418,6.418,0,0,1-6.557-4.816.508.508,0,0,0-.972,0c-.849,3.483,2.3,6.588,5.549,7.205,3.716.709,7.407-1.259,9.662-4.137,2.549-3.257,3.367-7.474,3.551-11.514s-.623-8.495-4.131-11.031a7.18,7.18,0,0,0-6.111-1.222,6.6,6.6,0,0,0-2.927,1.717,9.282,9.282,0,0,0-.88,1.259c-.293.434-.727.85-1.07,1.271-.862,1.045.55,2.536,1.516,1.516h0Z" transform="translate(-864.181 -360.458)" fill="#010d3d"/>
      <path id="Trazado_9170" data-name="Trazado 9170" d="M941.076,393.029c.318-.88.642-1.729,1.027-2.579.342-.758.752-1.473,1.106-2.225a43.618,43.618,0,0,0,1.864-5.134c.562-1.723,1-3.355,1.473-5.036a20.569,20.569,0,0,0,.605-2.475c.147-.978.012-1.931.2-2.9l-1.986-.269A51.486,51.486,0,0,1,942.7,383.6c-.6,1.784-1.283,3.569-2.035,5.292a25.043,25.043,0,0,0-1.063,2.7,16.789,16.789,0,0,0-.629,3c-.171,1.375,1.919,1.509,2.316.312a52.765,52.765,0,0,0,1.393-5.6,43.5,43.5,0,0,1,1.662-5.537,54.939,54.939,0,0,0,3.007-11.08,1.012,1.012,0,0,0-1.95-.538c-.312.886-.886,1.589-1.247,2.457a21.162,21.162,0,0,0-.782,2.426c-.489,1.73-1.008,3.453-1.455,5.195a43.479,43.479,0,0,0-1.192,5.182,42.06,42.06,0,0,1-.935,5.274.669.669,0,0,0,1.289.354h0Z" transform="translate(-826.015 -333.616)" fill="#010d3d"/>
      <path id="Trazado_9171" data-name="Trazado 9171" d="M950.778,428.457c-2.041,1.852-4.2,3.52-6.283,5.323s-4.156,3.587-6.258,5.347c-1.98,1.656-3.948,3.367-5.8,5.17-.843.819-1.662,1.662-2.444,2.542-.892,1-1.638,2.084-2.451,3.141a1.8,1.8,0,0,0,.642,2.451c4.394,2.463,10.414,3.679,14.8.593a.771.771,0,0,0-.385-1.424c-4.3-.183-8.727-.159-12.608-2.261l.642,2.451A33.156,33.156,0,0,1,935.4,446.5q2.686-2.631,5.366-5.262c1.876-1.846,3.7-3.752,5.567-5.6s3.771-3.96,5.763-5.842c.874-.831-.434-2.121-1.32-1.32h0Z" transform="translate(-821.471 -355.697)" fill="#010d3d"/>
      <path id="Trazado_9172" data-name="Trazado 9172" d="M969.312,485.665c-1.479,1.992-4.095,2.964-6.4,3.587a25.579,25.579,0,0,1-7.419.666,28.508,28.508,0,0,1-7.273-1.271,29.118,29.118,0,0,1-3.4-1.259c-1.253-.562-2.646-1.693-4.064-1.4a1.494,1.494,0,0,0-1.039,1.827c.458,1.247,1.705,1.681,2.836,2.194,1.057.477,2.133.917,3.227,1.29a31.562,31.562,0,0,0,6.588,1.491,24.45,24.45,0,0,0,12.73-1.882,13.222,13.222,0,0,0,5.836-4.315c.691-1-.911-1.888-1.607-.941h0Z" transform="translate(-826.279 -377.874)" fill="#010d3d"/>
      <path id="Trazado_9173" data-name="Trazado 9173" d="M971.767,489.691a17.546,17.546,0,0,1-8.287,6.3,5.371,5.371,0,0,1-4.669.018,12.787,12.787,0,0,1-2.035-1.375c-.77-.605-1.473-1.448-2.5-1.485l.617.165a4.8,4.8,0,0,1-.837-.776l-1.308,1.693a11.946,11.946,0,0,0,1.4.77,1.035,1.035,0,0,0,1.045-1.785,12.85,12.85,0,0,0-1.351-.849,1.083,1.083,0,0,0-1.308,1.693,5.9,5.9,0,0,1,.691.917l-.165-.617c0,1.131,1.094,2.084,1.882,2.793a10.75,10.75,0,0,0,2.487,1.687,8.232,8.232,0,0,0,6.637.263c3.948-1.516,7.059-4.993,9.277-8.5.629-1-.923-1.882-1.571-.917h0Z" transform="translate(-831.179 -379.437)" fill="#010d3d"/>
      <path id="Trazado_9174" data-name="Trazado 9174" d="M997.307,430.442a27.505,27.505,0,0,0-.678,4.632,1.843,1.843,0,0,0,.538,1.3,1.9,1.9,0,0,0,1.3.538,1.875,1.875,0,0,0,1.3-.538,2.034,2.034,0,0,0,.538-1.3c.037-.605.1-1.2.177-1.8l-.067.489c.11-.788.251-1.571.434-2.341a1.921,1.921,0,0,0-.183-1.412,1.867,1.867,0,0,0-1.094-.843,1.836,1.836,0,0,0-1.412.183,1.885,1.885,0,0,0-.843,1.094h0Z" transform="translate(-848.438 -356.044)" fill="#010d3d"/>
      <path id="Trazado_9175" data-name="Trazado 9175" d="M949.048,414.013c-.049.489-.1.978-.171,1.467l.067-.489c-.11.788-.238,1.571-.391,2.347-.073.373-.153.739-.232,1.112-.049.2-.092.4-.141.6-.024.092-.049.183-.067.275a3.032,3.032,0,0,0,.012,1.076,1.665,1.665,0,0,0,.458.788,1.787,1.787,0,0,0,1.027.5,1.843,1.843,0,0,0,1.785-.856,4.985,4.985,0,0,0,.556-1.852c.11-.5.2-1,.293-1.5.2-1.149.354-2.3.471-3.465a1.842,1.842,0,0,0-.538-1.3,1.829,1.829,0,0,0-2.591,0,2.075,2.075,0,0,0-.538,1.3h0Z" transform="translate(-829.556 -349.46)" fill="#010d3d"/>
      <path id="Trazado_9176" data-name="Trazado 9176" d="M947.941,538.9q-2.292,3.685-4.461,7.438l-1.045,1.815a12.206,12.206,0,0,1-1.014,1.76c-.226.269-.269.2-.654.244-.752.086-1.5.153-2.255.214-1.455.11-2.915.177-4.37.2-.7.012-1.412.012-2.115,0-.355,0-.7-.012-1.057-.024a1.426,1.426,0,0,0-.361-.012c.611.519.813.623.617.306a2.2,2.2,0,0,1-.1-.208c-.587-1.222-1.07-2.506-1.571-3.771-.251-.623-.452-1.271-.691-1.894.055.147-.177.348.018.147a2.913,2.913,0,0,0,.177-.336c.183-.318.409-.623.617-.929,1.852-2.732,3.789-5.433,5.537-8.232.807-1.289-1.155-2.885-2.151-1.656-2.169,2.665-4.174,5.482-6.24,8.226a5.344,5.344,0,0,0-1.137,1.986,4.675,4.675,0,0,0,.263,2.616c.544,1.577,1.112,3.147,1.687,4.712a4.155,4.155,0,0,0,1.277,2.121,4.33,4.33,0,0,0,2.518.593q2.567.064,5.134-.067a49.037,49.037,0,0,0,5.231-.464c1.864-.3,2.64-1.662,3.5-3.166,1.888-3.288,3.752-6.582,5.525-9.931a1.661,1.661,0,0,0-2.866-1.675h0Z" transform="translate(-820.816 -396.644)" fill="#010d3d"/>
      <path id="Trazado_9177" data-name="Trazado 9177" d="M958.834,558.928c2.072.739,4.1,1.565,6.2,2.237s4.168,1.222,6.185,1.98c.287.11.342.079.507.306a3.348,3.348,0,0,1,.342.9c.342,1.027.691,2.053,1.033,3.08.685,2.041,1.351,4.095,2.06,6.13a23.773,23.773,0,0,0,2.646,6,26.648,26.648,0,0,1,1.351,2.549c.4.733.837,1.448,1.271,2.17a42.2,42.2,0,0,0,6.307,7.963,43,43,0,0,0,17.3,10.45,41.206,41.206,0,0,0,20.913.843,42.843,42.843,0,0,0,21.072-11.074l-2.75-.354c2.329,3.979,4.461,8.049,6.539,12.162.263.519.556,1.039.788,1.577.2.458.049.257.116.092a3.487,3.487,0,0,0-.269.373c-.507.758-1.008,1.516-1.552,2.249a25.544,25.544,0,0,1-3.459,3.673,42.493,42.493,0,0,1-8.574,6.111,51.355,51.355,0,0,1-9.968,3.911,58.128,58.128,0,0,1-10.622,1.919,50.2,50.2,0,0,1-11.96-.214,31,31,0,0,1-12.076-5.03,79.19,79.19,0,0,1-9.24-6.949,86.191,86.191,0,0,1-9.191-9.406c-1.387-1.656-2.848-3.251-4.168-4.962-.654-.849-1.283-1.711-1.882-2.6a26.1,26.1,0,0,0-2.206-2.646.563.563,0,0,0-.935.544,15.047,15.047,0,0,0,1.051,2.744c.532.941,1.112,1.864,1.681,2.781a51.357,51.357,0,0,0,3.557,5.274,72.207,72.207,0,0,0,8.5,8.843,86.934,86.934,0,0,0,9.839,7.511c3.752,2.463,7.737,4.8,12.131,5.867a44.842,44.842,0,0,0,13.28.88,62.457,62.457,0,0,0,11.349-1.7,54.7,54.7,0,0,0,10.719-3.856,47.649,47.649,0,0,0,9.595-5.922,62.4,62.4,0,0,0,4.638-4.351c1.5-1.5,3.966-3.594,3.135-6.05a29.834,29.834,0,0,0-1.846-3.8c-.63-1.234-1.277-2.426-1.937-3.624-1.326-2.4-2.64-4.81-4-7.187a1.77,1.77,0,0,0-2.75-.354,40.71,40.71,0,0,1-8.042,6.3,38.783,38.783,0,0,1-29.377,3.985,39.8,39.8,0,0,1-16.739-9.381,38.984,38.984,0,0,1-6.331-7.615,24.713,24.713,0,0,1-2.322-4.412c-.342-.911-.446-1.919-.8-2.842q-.6-1.568-1.137-3.153c-.764-2.225-1.516-4.455-2.273-6.68-.373-1.1-.721-2.206-1.118-3.294a4.767,4.767,0,0,0-1.968-2.7,15.607,15.607,0,0,0-3.178-1.131l-3.416-1.076c-2.377-.752-4.785-1.338-7.187-2-1.931-.532-2.658,2.3-.819,2.964h0Z" transform="translate(-833.329 -405.345)" fill="#010d3d"/>
      <path id="Trazado_9178" data-name="Trazado 9178" d="M964.539,593.366c-1.063,3.41-2.084,6.833-2.885,10.316s-1.815,6.753-2.4,10.23a81.59,81.59,0,0,0-.856,10.866c-.049,1.705-.006,3.416-.153,5.121-.03.367-.116.746-.116,1.112a7.251,7.251,0,0,1,.024,1.094,8.024,8.024,0,0,1-.794,2.249c-1.4,2.9-3.343,5.451-4.541,8.458a34.774,34.774,0,0,0-2.1,9.418,117.584,117.584,0,0,0,.2,20.638q.477,6.05,1.314,12.046c.269,1.956.581,3.905.966,5.849a40.539,40.539,0,0,0,1.528,6.014,1.4,1.4,0,0,0,1.528,1,1.373,1.373,0,0,0,1.2-1.369c-.165-1.8-.495-3.594-.825-5.366s-.629-3.5-.935-5.244q-.917-5.179-1.473-10.42a134.356,134.356,0,0,1-.831-20.736,37.3,37.3,0,0,1,1.479-9.21,22.807,22.807,0,0,1,1.8-4.3c.752-1.369,1.693-2.683,2.518-4.04a22.174,22.174,0,0,0,1.986-4.3c.153-.434.4-.856.526-1.3a7.9,7.9,0,0,0,.177-1.314c.086-.837.116-1.681.134-2.524.079-3.508.177-7,.477-10.493.165-1.943.269-3.887.385-5.836s.092-3.917.361-5.83a113.18,113.18,0,0,1,2.3-11.844.517.517,0,0,0-1-.275h0Z" transform="translate(-830.441 -419.78)" fill="#010d3d"/>
      <path id="Trazado_9179" data-name="Trazado 9179" d="M861.192,543.768a53.374,53.374,0,0,0-11.129.379,38.958,38.958,0,0,0-5.341,1.259,12.076,12.076,0,0,0-4.309,2.115c-1.265,1.027-2.267,2.353-3.508,3.422a28.175,28.175,0,0,1-3.844,2.744c-2.927,1.785-6.056,3.208-9.137,4.706-6.417,3.117-12.8,6.68-19.813,8.244a59.573,59.573,0,0,1-20.559.581c-8.214-1.051-16.244-3.086-24.415-4.333a1.714,1.714,0,0,0-2.041,1.161,1.674,1.674,0,0,0,1.161,2.041c14.111,2.542,28.723,5.775,43.091,3.538a44,44,0,0,0,10.084-2.781c3.4-1.412,6.667-3.129,9.968-4.761s6.374-3.08,9.515-4.712a37.376,37.376,0,0,0,8.14-5.4,16,16,0,0,1,4.217-3.251,18.744,18.744,0,0,1,5.47-1.045,76.978,76.978,0,0,1,12.443-.513,1.7,1.7,0,0,0,0-3.4h0Z" transform="translate(-755.274 -400.58)" fill="#010d3d"/>
      <path id="Trazado_9180" data-name="Trazado 9180" d="M852.3,579.1a44.7,44.7,0,0,1-4.639,10.542c-1.9,3.367-3.648,6.612-5.213,10.053a31,31,0,0,0-2.995,11.477c-.183,4.033,1.014,7.688,1.357,11.575a15.1,15.1,0,0,1-.489,5.61,30.764,30.764,0,0,1-2.139,5.189c-1.785,3.6-3.636,7.162-5.415,10.756a169.927,169.927,0,0,0-9.546,22.362,85.533,85.533,0,0,0-3.233,13.036c-.361,2.249-.636,4.51-.788,6.784s-.422,4.8.3,7.028a1.528,1.528,0,0,0,2.921,0,12.661,12.661,0,0,0,.318-2.995c0-1.057.031-2.115.086-3.166.1-1.943.287-3.887.574-5.812a82.17,82.17,0,0,1,2.628-11.544,147.26,147.26,0,0,1,9.075-22.129c1.754-3.581,3.569-7.126,5.366-10.683s3.581-7.059,4.009-11.019-.9-7.945-1.283-11.929a27.837,27.837,0,0,1,1.54-10.878c1.222-4.04,3.2-7.749,4.932-11.581a61.063,61.063,0,0,0,4.284-12.217.853.853,0,0,0-1.644-.452h0Z" transform="translate(-779.373 -414.133)" fill="#010d3d"/>
      <path id="Trazado_9181" data-name="Trazado 9181" d="M904.823,761.966a54.121,54.121,0,0,1-7.205,1.9c-2.426.538-5.06,1.112-7.6,1.62A110.257,110.257,0,0,1,875,767.607a37.6,37.6,0,0,0-4.37.477,13.562,13.562,0,0,1-2,.409,23.653,23.653,0,0,1-2.371-.073l.776.593a15.546,15.546,0,0,0-1.626-3.27c-.685-1.014-1.565-1.87-2.286-2.848a1.16,1.16,0,0,0-1.8-.232,41.685,41.685,0,0,0-2.677,3.807,3.17,3.17,0,0,1-.978,1.106,6.735,6.735,0,0,1-2.078.263,80.106,80.106,0,0,1-9.46.245c-6.283-.165-12.541-.886-18.774-1.626a6.967,6.967,0,0,1-3.581-1.039,2.1,2.1,0,0,1-.611-2.524c.379-.911-.923-1.888-1.711-1.314a3.32,3.32,0,0,0-1.216,3.807,5.131,5.131,0,0,0,3.031,3.282,16.915,16.915,0,0,0,4.681.953c1.8.208,3.6.416,5.4.611a118.1,118.1,0,0,0,21.793.758c1.974-.153,4.156-.061,5.335-1.937.507-.813.911-1.717,1.381-2.555a21.477,21.477,0,0,0,1.375-2.726l-1.681.684a9.283,9.283,0,0,1,2.732,2.97,17.4,17.4,0,0,1,1.051,1.748c.4.776.672.825,1.516.911a10.493,10.493,0,0,1,2.4.281,11.6,11.6,0,0,0,2.231.519,23.168,23.168,0,0,0,5,.012,136.614,136.614,0,0,0,18.982-3.074,69.263,69.263,0,0,0,10.243-2.652,1.713,1.713,0,0,0,1.161-2.041,1.676,1.676,0,0,0-2.041-1.161h0Z" transform="translate(-779.782 -485.263)" fill="#010d3d"/>
      <path id="Trazado_9182" data-name="Trazado 9182" d="M939.625,553.751c-2.041,7.871-5.555,15.285-9.039,22.594a53.646,53.646,0,0,1-2.842,5.329,51.823,51.823,0,0,1-3.7,5.036c-2.634,3.239-5.3,6.454-7.951,9.68-1.485,1.809-2.958,3.624-4.455,5.415a29.5,29.5,0,0,1-4.51,4.565l1.381.788c-.043-2.1-.128-4.186-.086-6.289q.064-3,.238-5.983c.238-4.137.672-8.269,1.2-12.382,1.033-7.994,2.3-15.981,3.972-23.865a31.224,31.224,0,0,1,4.26-11.221c.648-.959-.892-1.846-1.546-.9a29.618,29.618,0,0,0-4.143,9.968c-.941,3.85-1.6,7.774-2.286,11.673a228.049,228.049,0,0,0-3.08,24.934c-.141,2.292-.251,4.583-.306,6.875s-.128,4.8-.061,7.187a.93.93,0,0,0,1.565.648c3.19-2.5,5.6-5.91,8.122-9.039q4.061-5.023,8.116-10.053a53.22,53.22,0,0,0,6.716-10.188c1.809-3.722,3.514-7.535,5.134-11.355a89.56,89.56,0,0,0,4.541-13.084.65.65,0,0,0-1.253-.342h0Z" transform="translate(-813.448 -401.542)" fill="#010d3d"/>
      <path id="Trazado_9183" data-name="Trazado 9183" d="M931.958,565.278c-.422,3.062-.923,6.515.623,9.363a7.115,7.115,0,0,0,2.823,2.817c1.167.623,2.634,1.045,3.7.122a.438.438,0,0,0-.2-.727c-1.014-.373-2.06-.324-3.019-.9a6.354,6.354,0,0,1-2.243-2.445c-1.32-2.438-.99-5.458-.733-8.1.055-.544-.88-.672-.959-.128h0Z" transform="translate(-823.125 -408.858)" fill="#010d3d"/>
      <path id="Trazado_9184" data-name="Trazado 9184" d="M925.777,568.077c-.935,1.778-1.962,3.832-3.777,4.865a4.245,4.245,0,0,1-2.4.587,5.458,5.458,0,0,1-1.314-.3,8.7,8.7,0,0,0-1.192-.428.394.394,0,0,0-.477.477,2.072,2.072,0,0,0,.99,1.247,3.673,3.673,0,0,0,1.54.464,5.961,5.961,0,0,0,3.184-.709c2.182-1.155,3.392-3.5,4.449-5.61.33-.666-.654-1.253-1.008-.587h0Z" transform="translate(-817.323 -409.971)" fill="#010d3d"/>
      <path id="Trazado_9185" data-name="Trazado 9185" d="M901.271,661.8l-.685,3.367a1.939,1.939,0,0,0,.183,1.406,1.831,1.831,0,0,0,2.5.654,1.811,1.811,0,0,0,.837-1.094l.7-3.361a1.955,1.955,0,0,0-.183-1.412,1.867,1.867,0,0,0-1.094-.843,1.834,1.834,0,0,0-2.255,1.277h0Z" transform="translate(-811.071 -446.007)" fill="#010d3d"/>
      <path id="Trazado_9186" data-name="Trazado 9186" d="M895.265,686.022l-1.112,4.632a1.925,1.925,0,0,0,.183,1.412,1.831,1.831,0,0,0,3.349-.44l1.112-4.632a1.925,1.925,0,0,0-.183-1.412,1.831,1.831,0,0,0-3.349.44Z" transform="translate(-808.567 -455.429)" fill="#010d3d"/>
      <path id="Trazado_9187" data-name="Trazado 9187" d="M891.257,714.641l-1.186,4.6a1.9,1.9,0,0,0,.183,1.412,1.831,1.831,0,0,0,3.349-.44l1.186-4.6a1.9,1.9,0,0,0-.183-1.412,1.831,1.831,0,0,0-3.349.44Z" transform="translate(-806.979 -466.557)" fill="#010d3d"/>
      <path id="Trazado_9188" data-name="Trazado 9188" d="M888.333,742.278a10.67,10.67,0,0,0-.342,1.5c-.055.4-.116.794-.141,1.2a2.78,2.78,0,0,0,.067,1.192l.183.434a1.377,1.377,0,0,0,.464.507,1.719,1.719,0,0,0,1.1.391,2.18,2.18,0,0,0,.917-.244,2.01,2.01,0,0,0,.831-1.082,3.863,3.863,0,0,0,.11-1.137,6.8,6.8,0,0,1,.073-.709l-.067.489a9.8,9.8,0,0,1,.348-1.565,1.9,1.9,0,0,0-.183-1.412,1.831,1.831,0,0,0-2.506-.66,1.955,1.955,0,0,0-.843,1.094h0Z" transform="translate(-806.127 -477.303)" fill="#010d3d"/>
      <path id="Trazado_9189" data-name="Trazado 9189" d="M820.774,607.737c-8.208,1.687-16.44,3.38-24.818,3.972a67.624,67.624,0,0,1-22.349-1.894,45.871,45.871,0,0,1-11.343-4.675,1.428,1.428,0,0,0-1.442,2.463c14.026,8.067,30.771,7.279,46.171,4.577,4.761-.837,9.485-1.864,14.2-2.9,1.008-.22.581-1.754-.428-1.546h0Z" transform="translate(-756.474 -424.415)" fill="#010d3d"/>
      <path id="Trazado_9190" data-name="Trazado 9190" d="M1007.81,421.27c-2-.862-3.948-1.821-5.952-2.665s-3.979-1.65-5.977-2.445-3.905-1.546-5.867-2.31c-2.06-.8-4.04-1.8-6.1-2.6a1.927,1.927,0,0,0-2.322,1.32A39.692,39.692,0,0,0,979.05,426.7c.018,4.81,1.131,9.161,4.308,12.681A15.274,15.274,0,0,0,988.235,443a10.913,10.913,0,0,0,3.251,1.033,11.913,11.913,0,0,0,2.72-.092,11.148,11.148,0,0,0,8.99-5.91,31.039,31.039,0,0,0,2.072-6.643c.666-2.781,1.424-5.531,2.115-8.305l-1.668-.226a43.551,43.551,0,0,1-3.936,13.213,11.341,11.341,0,0,1-3.38,4.718,5.412,5.412,0,0,1-5.011.428.571.571,0,0,0-.636.831,3.4,3.4,0,0,0,2.634,1.571,6.334,6.334,0,0,0,3.062-.464,9.814,9.814,0,0,0,4.767-4.969,45.561,45.561,0,0,0,4.2-15.321c.11-.96-1.448-1.143-1.668-.226-1.014,4.2-1.736,8.556-3.172,12.644a9.259,9.259,0,0,1-2.805,4.351,7.019,7.019,0,0,1-1.962,1.063,7.247,7.247,0,0,1-2.4.3,14.074,14.074,0,0,1-4.663-1.1,11.382,11.382,0,0,1-3.82-2.383c-2.8-2.616-3.893-6.179-4-9.98a38.11,38.11,0,0,1,2.322-13.952l-2.322,1.32c1.962.727,3.991,1.271,5.952,2s4.015,1.54,6.02,2.316,3.911,1.522,5.873,2.267,4.04,1.424,6.044,2.194c1.375.532,2.377-1.809,1.008-2.4h0Z" transform="translate(-841.603 -349.059)" fill="#343d64"/>
      <path id="Trazado_9191" data-name="Trazado 9191" d="M973.629,420.16a19.813,19.813,0,0,0-1.522-4.5,7.285,7.285,0,0,0-3.306-3.5,8.36,8.36,0,0,0-4.645-.99,8.1,8.1,0,0,0-2.616.672,5.891,5.891,0,0,0-.862.471,2.146,2.146,0,0,0-1.014,1.809c-.11.849.776,1.448,1.5,1.5-.281-.037-.275-.031.024.006a1.288,1.288,0,0,0,.7-.031,2.112,2.112,0,0,0,.617-.318,4.671,4.671,0,0,1,.782-.44c-.269.122.128-.043.2-.061.128-.043.263-.079.4-.11s.269-.061.4-.086c.471-.092-.281-.012.2-.018.281,0,.556-.024.831-.006.018,0,.544.055.22.006.141.018.275.049.416.073a7.3,7.3,0,0,1,.886.244c.037.012.409.165.269.1-.092-.043.269.141.33.171a5.214,5.214,0,0,1,1.29.935,14.861,14.861,0,0,1,1.436,1.289,8.535,8.535,0,0,1,1.522,3.312c.324,1.277,2.157.721,1.943-.538h0Z" transform="translate(-834.061 -349.056)" fill="#343d64"/>
      <path id="Trazado_9192" data-name="Trazado 9192" d="M945.261,397.054c-.061,1.137-.1,2.292-.269,3.416-.183,1.241-.544,2.451-.77,3.691-.428,2.353-.856,4.706-1.442,7.022a22.344,22.344,0,0,1-2.041,6.026,6.429,6.429,0,0,1-1.369,1.565,5.1,5.1,0,0,1-2.06.941,7.774,7.774,0,0,1-4.217-.165,8.751,8.751,0,0,1-3.942-2.714c-2.383-2.762-3.239-6.735-3.294-10.328a32.565,32.565,0,0,1,.813-7.456c.287-1.32.63-2.628,1.014-3.917a17.229,17.229,0,0,0,.33-2.011,14.439,14.439,0,0,1,.568-1.937l-1.509,1.149a58.08,58.08,0,0,1,10.182,2.218c.825.238,1.662.385,2.481.636s1.6.483,2.426.654a5.754,5.754,0,0,1,2.219,1.253,10.468,10.468,0,0,0,2.267,1.369c.843.367,1.888-.416,1.338-1.338a5.845,5.845,0,0,0-2.011-2.041,27.449,27.449,0,0,1-2.4-1.393,12.513,12.513,0,0,0-2.3-1.54,23.151,23.151,0,0,0-2.775-1.2c-3.71-1.2-7.6-1.265-11.428-1.754a1.573,1.573,0,0,0-1.509,1.149c-.214.593-.385,1.2-.648,1.766a12.891,12.891,0,0,0-.874,1.858c-.367,1.247-.709,2.506-.99,3.777a39.072,39.072,0,0,0-1.014,7.9c-.067,4.626.953,9.454,3.832,13.176a12.091,12.091,0,0,0,10.878,4.865,9.97,9.97,0,0,0,5.659-2.463c1.809-1.65,2.7-4.04,3.361-6.337a60.716,60.716,0,0,0,1.864-8.586c.116-.837.2-1.687.263-2.53.061-.727-.012-1.455-.018-2.188-.018-1.509.073-3.019.073-4.535a1.342,1.342,0,0,0-2.683,0h0Z" transform="translate(-819.432 -340.519)" fill="#343d64"/>
      <path id="Trazado_9193" data-name="Trazado 9193" d="M1023.391,433.592q7.168,2.42,14.087,5.506a1.979,1.979,0,0,0,2.628-.691,1.931,1.931,0,0,0-.691-2.628q-7.361-3.291-15-5.891a1.924,1.924,0,0,0-1.021,3.71h0Z" transform="translate(-858.296 -356.315)" fill="#343d64"/>
      <path id="Trazado_9194" data-name="Trazado 9194" d="M1108.892,608.056a17.3,17.3,0,0,1,5.121-3.05,6.477,6.477,0,0,1,5.048.471,3.7,3.7,0,0,1,.709.691,1.448,1.448,0,0,0,.177.208c.037.031.281.208.073.012-.165-.159.012-.061,0,.061.006-.1.012.183.012.165-.1.654-1.014,1.014-1.54,1.18-.966.306-1.956.489-2.9.868-.819.33-2.3.849-2.6,1.772a4.912,4.912,0,0,0-.1,1.436,6.87,6.87,0,0,1-.2,1.62,3.168,3.168,0,0,1-1.687,2.445c-.293.11-.489.526-.2.764,1.143.96,2.353-.092,2.952-1.161a8.1,8.1,0,0,0,.764-2.035,9.456,9.456,0,0,0,.2-1.167c.025-.2.037-.391.049-.587v-.232c.012-.238.012-.257,0-.061l-.593.452a21.174,21.174,0,0,0,2.347-1.137c.923-.336,1.907-.434,2.842-.721,1.8-.55,3.575-1.992,3.447-4.07a3.757,3.757,0,0,0-1.131-2.646,5.872,5.872,0,0,0-2.677-1.406,8.538,8.538,0,0,0-5.885.966,25.732,25.732,0,0,0-5.457,3.942c-.862.733.367,1.888,1.228,1.228h0Z" transform="translate(-891.502 -423.17)" fill="#010d3d"/>
      <path id="Trazado_9195" data-name="Trazado 9195" d="M1101.136,602.259a33,33,0,0,1,2.836-2.475,15.983,15.983,0,0,1,3.2-1.846c2.17-.984,4.235-2.182,6.435-3.092a44.555,44.555,0,0,1,7.083-2.261c1.167-.263,2.347-.495,3.532-.672a5.557,5.557,0,0,1,2.292-.171c.251.079.073.031.043.141a1.648,1.648,0,0,1-.464.672c-.544.544-1.2,1-1.8,1.491-1.32,1.076-2.628,2.151-4,3.16a.957.957,0,0,0,.733,1.742,15.541,15.541,0,0,1,4.632-.379c.7.043,1.418.1,2.109.208.825.128,1.607.4,2.42.562l-.978-1.289a4.458,4.458,0,0,1-2.506,3.282,9.527,9.527,0,0,1-2.328,1.021,14.526,14.526,0,0,1-2.781.238,1.519,1.519,0,0,0-1.485,1.485,1.494,1.494,0,0,0,1.485,1.485,11.369,11.369,0,0,1,3.832.208,11.205,11.205,0,0,1,1.766.562c.342.147,1.271.446,1.412.77l-.177-.648c.049.562-1.173,1.332-1.6,1.613a10.455,10.455,0,0,1-2.439,1.143,20.582,20.582,0,0,1-5.549.544,1.617,1.617,0,0,0-1.583,1.393,1.6,1.6,0,0,0,1.155,1.766c.189.055.214.043.067-.031q.247.147.037.018c-.183-.2.073.214-.018-.043a3.28,3.28,0,0,1,.141.477c-.055-.3-.037.44,0,.2-.1.648-.9.923-1.565,1.1a30.809,30.809,0,0,1-3.245.568,12.03,12.03,0,0,0-1.98.373,4.019,4.019,0,0,0-1.522.953.588.588,0,0,0,.116.917,4.269,4.269,0,0,0,2.469.471c.849-.1,1.7-.244,2.548-.354a10.032,10.032,0,0,0,4.345-1.222,3.941,3.941,0,0,0,1.937-3.416,3.136,3.136,0,0,0-2.469-3.1v3.1a48.988,48.988,0,0,0,5.5-1.473,12.592,12.592,0,0,0,5.011-2.781,2.676,2.676,0,0,0,1.131-2.762,4.02,4.02,0,0,0-2.5-2.115,13.986,13.986,0,0,0-6.82-1.192l.4,2.915c1.063-.409,2.09-.96,3.172-1.314a12.534,12.534,0,0,0,2.964-1.332,9.9,9.9,0,0,0,3.7-4.455,1.332,1.332,0,0,0-.611-1.509c-3.343-1.552-7.383-1.131-10.7.208l.929,1.6c1.3-1.137,2.665-2.2,4.021-3.27,1.063-.837,2.634-1.723,3.1-3.068a2.767,2.767,0,0,0-1.137-3.233,5.4,5.4,0,0,0-3.826-.7,35.666,35.666,0,0,0-16.4,6.172c-1.308.947-2.328,2.157-3.538,3.215s-2.463,2.206-3.6,3.41a.735.735,0,0,0,1.039,1.039h0Z" transform="translate(-888.587 -417.972)" fill="#010d3d"/>
      <path id="Trazado_9196" data-name="Trazado 9196" d="M929.756,373.293c-.654,3.1-1.369,6.179-2.206,9.228s-2.029,5.934-3.092,8.874c-.5,1.363-1.216,2.677-1.8,4.009-.623,1.424-1.283,2.83-2.023,4.2a40.15,40.15,0,0,1-5.109,7.5c-2.224,2.524-4.8,4.73-6.912,7.352a30.214,30.214,0,0,0-4.926,8.855,43.54,43.54,0,0,0,5.286,37.982,36.058,36.058,0,0,0,13.83,11.7,32.016,32.016,0,0,0,8.923,2.75,62.151,62.151,0,0,0,11.129.483c6.826-.22,13.732-1.247,19.923-4.278a37.983,37.983,0,0,0,13.983-12.461,45.38,45.38,0,0,0,5.036-8.886c.666-1.632,1.18-3.337,1.748-5.005a32.06,32.06,0,0,0,1.479-4.975,45.805,45.805,0,0,1,1.2-5.066.765.765,0,0,0-1.473-.409,31.514,31.514,0,0,1-1.986,4.822c-.819,1.571-1.314,3.19-2.011,4.755s-1.528,2.976-2.286,4.474-1.485,3.019-2.322,4.486a38.683,38.683,0,0,1-11.514,12.974c-5.256,3.557-11.477,5.14-17.735,5.684a80,80,0,0,1-9.98.232,32.886,32.886,0,0,1-9.54-1.638,31.765,31.765,0,0,1-13.555-9.35,36.323,36.323,0,0,1-7.81-16.323,40.027,40.027,0,0,1,.4-18.4,28.041,28.041,0,0,1,3.7-8.3,53.646,53.646,0,0,1,6.338-7.071,44.432,44.432,0,0,0,9.845-15.627c.513-1.393.825-2.842,1.259-4.266s.746-2.982,1.045-4.5c.587-2.995,1.21-6.007,1.668-9.026.226-1.479.544-2.946.819-4.419.159-.856-1.137-1.234-1.32-.367h0Z" transform="translate(-811.444 -334.145)" fill="#010d3d"/>
    </g>
    <g id="Grupo_4915" data-name="Grupo 4915" transform="translate(574.68 294.6)">
      <g id="Grupo_4913" data-name="Grupo 4913" transform="translate(282.474)">
        <path id="Trazado_9197" data-name="Trazado 9197" d="M1039.7,719.765a11.718,11.718,0,0,0,6.105,1,7.349,7.349,0,0,0-.593,1.393,4.075,4.075,0,0,0,.269,3.416c.709,1.112,1.919,1.387,3.117,1.662,1.791.4,3.606.7,5.427.947.049.269.1.538.159.807a5.962,5.962,0,0,0,.678,2.139c1.222,1.919,3.319,1.332,5.158.966a44.994,44.994,0,0,1,6.063-.685,3.271,3.271,0,0,0,1.057,2.493c1.931,1.809,4.388.11,6.173-.978q2.4-1.467,4.693-3.1c1.687-1.2,3.019-2.524,3.2-4.712a17.112,17.112,0,0,0-.2-2.793,4.1,4.1,0,0,1,.122-1.778,6.8,6.8,0,0,1,1.882-3.178c.159-.159.324-.3.489-.446.031-.024.055-.043.073-.061a7.591,7.591,0,0,1,.929-.574c.092-.049.183-.092.275-.134.037-.006.4-.147.409-.153a8.972,8.972,0,0,0,1.161-.458,3.243,3.243,0,0,0,1.925-2.707,3.6,3.6,0,0,0-1.216-2.738,20.887,20.887,0,0,0-9.308-5.1,2.284,2.284,0,0,0-.7-.061,1.781,1.781,0,0,0-.666-.7,1.9,1.9,0,0,0-2.518.66c.067-.1.055-.092-.031,0a.61.61,0,0,0-.141.086c.122-.11-.171-.018-.086,0-.122.006-.245,0-.373-.006.147,0-.452-.086-.507-.073a8.152,8.152,0,0,1-2.408-1.222,19.33,19.33,0,0,0-6.643-2.5c-4.082-.849-8.806-1.314-12.058,1.84a2.128,2.128,0,0,0,.929,3.514c1.8.593,3.575,1.253,5.323,1.968-.269.1-.538.214-.8.336a37.307,37.307,0,0,0-4.914,3.3c-3.551,2.426-7.847,3.367-12,4.2a1.894,1.894,0,0,0-.446,3.428Zm43.9-2.94c.147-.128.067-.055,0,0Z" transform="translate(-1037.631 -452.46)" fill="#fff"/>
        <path id="Trazado_9198" data-name="Trazado 9198" d="M1074.842,700.746c-2.267,1.387-5.03.929-7.444.171-2.811-.886-5.47-2.218-8.452-2.445s-5.684.984-8.165,2.451a5.085,5.085,0,0,0-2.591,2.677,2.392,2.392,0,0,0,1.766,2.933c1.516.495,3.08.807,4.583,1.357a44.94,44.94,0,0,1,4.608,1.986l.33-2.524-6.539,2.383c-2.218.807-4.51,1.448-6.765,2.151a24.742,24.742,0,0,0-6.1,2.3,6.459,6.459,0,0,0-3.184,5.292,1.791,1.791,0,0,0,.892,1.558,18.993,18.993,0,0,0,11.233,1.375,32.947,32.947,0,0,0,5.36-1.3c.9-.293,1.8-.611,2.689-.941a12.4,12.4,0,0,0,2.989-1.247l-2.438-3.166c-.4.489-.868.923-1.222,1.448l.556-.556c-2.555,1.3-5.458,1.613-8.134,2.585a11.936,11.936,0,0,0-6.466,4.8,1.561,1.561,0,0,0,.238,1.87,14.8,14.8,0,0,0,9.851,3.1,26.418,26.418,0,0,0,5.769-.929c.935-.244,1.852-.532,2.769-.831a12.344,12.344,0,0,0,3.062-1.167l-2.444-3.166a5.709,5.709,0,0,1-1.614,1.546c-.7.385-1.393.776-2.09,1.161-1.3.727-2.609,1.454-3.905,2.194-1.222.7-2.451,1.705-2.151,3.282a2.861,2.861,0,0,0,2.414,2.145,14.3,14.3,0,0,0,3.923,0,38.236,38.236,0,0,0,4.565-.6,35.014,35.014,0,0,0,8.275-2.823l-2.053-2.658-6.227,6.533a1.358,1.358,0,0,0,.947,2.292,27.651,27.651,0,0,0,7.743-1.082,22.744,22.744,0,0,0,7.1-3.856c2.127-1.693,4.137-3.862,4.84-6.533.177-.672.257-1.369.367-2.06.061-.367.122-.733.214-1.088.037-.134.073-.269.116-.4.214-.721-.177.22.1-.269.116-.2.226-.4.342-.6.037-.061.275-.4.1-.165-.159.214.037-.043.061-.067a12.948,12.948,0,0,1,1.21-1.179c.079-.067.159-.128.238-.2.526-.428-.385.275.165-.122.226-.165.446-.324.672-.483.507-.361,1.027-.715,1.528-1.094a7.059,7.059,0,0,0,1.943-1.864,12.947,12.947,0,0,0,.929-1.895c.648-1.552-1.571-3.2-2.9-2.231a9.364,9.364,0,0,1-1.155.721,9.616,9.616,0,0,0-1.668,1.228c-.794.666-1.638,1.283-2.432,1.949a9.527,9.527,0,0,0-3.649,5.879,16.371,16.371,0,0,1-.6,4.027,9.891,9.891,0,0,1-1.821,2.61,19.248,19.248,0,0,1-5.7,4.211,16.427,16.427,0,0,1-7.731,1.87l.947,2.292,6.729-6.038a1.688,1.688,0,0,0,.134-2.225,1.727,1.727,0,0,0-2.182-.434,43.255,43.255,0,0,1-13.066,3.355,7.164,7.164,0,0,1-1.4.061c-.458-.055-.275-.189-.189.189.128.593-.263.33.134.165a6.052,6.052,0,0,0,.52-.324c.556-.33,1.118-.648,1.681-.972,1.033-.6,2.066-1.192,3.1-1.791.513-.293,1.021-.629,1.552-.886a6.567,6.567,0,0,1,1.925-.416,2.02,2.02,0,0,0-.538-3.96,10.814,10.814,0,0,0-2.72.837c-.862.324-1.723.636-2.6.917a23.612,23.612,0,0,1-4.9,1.131,12.432,12.432,0,0,1-8.354-1.717l.55,2.108c1.07-2.115,3.3-3.092,5.47-3.746,2.7-.813,5.488-1.234,8.03-2.518l-.782.214a5.5,5.5,0,0,0,1.846-.409,2.032,2.032,0,0,0,1.442-2.212,1.988,1.988,0,0,0-1.98-1.748c-1.779.226-3.514,1.241-5.2,1.852a35.489,35.489,0,0,1-5.189,1.5,16.264,16.264,0,0,1-9.479-.788l1.326,1.742c-.086-1.534,1.21-2.536,2.494-3.19a55.791,55.791,0,0,1,5.372-2.133c3.917-1.5,7.865-2.83,11.844-4.143a1.4,1.4,0,0,0,.33-2.524,33.118,33.118,0,0,0-7.535-2.854c-.629-.153-1.259-.281-1.888-.409a4.06,4.06,0,0,0-.623-.159c-.037.031.037.043.067.141.061.2-.092.116.037-.012a5.5,5.5,0,0,1,.947-.9c.568-.361,1.149-.709,1.742-1.027a10.208,10.208,0,0,1,7.352-1.247c2.634.581,4.871,1.717,7.389,2.3s5.488.666,7.841-.825c1.1-.7.1-2.445-1.027-1.76h0Z" transform="translate(-1036.89 -451.64)" fill="#010d3d"/>
        <path id="Trazado_9199" data-name="Trazado 9199" d="M1275.7,680.567c5.256-.354,1.729-18.346.489-26.212-3.948-38.459-18.9-91.567-52.179-114.38-21.75-14.661-50.987-7.309-51.989,23.107-2.1,28.51,8.4,80.083,10.4,111.154C1189.289,686.916,1256.923,681.832,1275.7,680.567Z" transform="translate(-1089.331 -387.184)" fill="#64d8cc"/>
        <path id="Trazado_9200" data-name="Trazado 9200" d="M1219.632,553.72a11.2,11.2,0,0,1-1.717,3.618,3.737,3.737,0,0,1-.574.623C1218.135,556.562,1218.9,555.15,1219.632,553.72Z" transform="translate(-1107.06 -395.362)" fill="#fff"/>
        <path id="Trazado_9201" data-name="Trazado 9201" d="M1121.433,395.836c1.271-4.492,3-8.825,4.553-13.225.764-2.176,1.485-4.364,2.09-6.594q.458-1.7.8-3.416c.11-.526.2-1.057.287-1.589.03-.177.055-.348.085-.532,0-.006.012-.1.018-.171s.024-.171.024-.177c.018-.177.037-.354.055-.538a35.433,35.433,0,0,1,.972-6.814,10.825,10.825,0,0,1,4.688-6.1c4.357-2.762,9.815-3.52,14.857-3.881a83.134,83.134,0,0,1,29.359,3.343,89.753,89.753,0,0,1,14,5.519,40.3,40.3,0,0,1,11.055,7.407,16,16,0,0,1,4.987,12.394c-.2,2.707-.874,4.657-.66,7.3.006.024.031.165.055.293l.055.055c.4.416.831.788,1.216,1.21a17.456,17.456,0,0,1,2.078,2.75,17.786,17.786,0,0,1,2.084,12.858,13.462,13.462,0,0,1-3.025,6.221,7.956,7.956,0,0,1-7.407,2.176,13.057,13.057,0,0,1-2.872-.868,51.621,51.621,0,0,1-19.776,30.673,46.533,46.533,0,0,1-7.957,4.73c.1.422.2.849.324,1.265.153.5.33.99.52,1.479,0,.006.037.1.061.165s.061.153.067.159c.122.281.257.562.385.843,1.008,2.1,2.243,4.082,3.416,6.093a30.716,30.716,0,0,1,4.027,9.968.129.129,0,0,1,.043.018c-.092.171-.177.348-.269.526a.8.8,0,0,0-.116.165c-2.09,3.642-3.789,7.486-5.83,11.153-.672,1.2-1.387,2.4-2.157,3.545a1.321,1.321,0,0,1-.238-1.063,22.586,22.586,0,0,0,.238-7.474,29.925,29.925,0,0,0-.947-3.526c-.073-.275-.165-.55-.263-.819q-.082-.248-.183-.5c-.238-.526-.5-1.039-.776-1.546a25.175,25.175,0,0,0-1.907-2.94c-.055-.079-.116-.153-.171-.232h0l-.018-.024s-.024-.037-.049-.067c-.165-.214-.336-.428-.513-.636-.367-.458-.74-.911-1.118-1.363q-2.622-3.163-5.3-6.289c-.88-1.033-1.76-2.066-2.634-3.111-.33-.4-.672-.782-1.027-1.161-.171-.183-.354-.373-.544-.544-.1-.086-.189-.165-.287-.257l-.018-.012a.176.176,0,0,1-.037-.024c-.226-.147-.446-.275-.678-.4-.043-.012-.33-.141-.428-.171-.245-.067-.495-.128-.746-.177a.908.908,0,0,1-.134-.018c-.1,0-.275-.012-.3-.012a13.405,13.405,0,0,0-1.717.037c-.269.018-.544.049-.813.086,0,0-.1.006-.171.018-.1.012-.3.043-.324.043a26.073,26.073,0,0,1-7.609.348,18.189,18.189,0,0,1-6.454-2.3c-8.813-5.048-12.247-15.1-15.217-24.195a65.695,65.695,0,0,1-3.453-15.639,42.312,42.312,0,0,1,1.76-14.441Z" transform="translate(-1069.052 -317.158)" fill="#fff"/>
        <path id="Trazado_9202" data-name="Trazado 9202" d="M1200.921,503.2a.423.423,0,0,1-.079.031l-.061.031c.055-.024.11-.043.165-.067A.037.037,0,0,1,1200.921,503.2Z" transform="translate(-1100.621 -375.713)" fill="#fff"/>
        <path id="Trazado_9203" data-name="Trazado 9203" d="M1106.549,317.141a3.944,3.944,0,0,1,.831-1.919,2.789,2.789,0,0,1,1.98-1.216,1.286,1.286,0,0,1,.819.257,9.808,9.808,0,0,1,4.455-2.97c3.538-1.247,7.5-.672,11.013.373,1.265.373,2.506.825,3.734,1.3q-2.273-3.153-4.553-6.3c-1.32-1.833-2.457-3.63-2.035-5.983a5.358,5.358,0,0,1,2.988-3.7c3.2-1.546,6.613-.9,9.925-.1a86.694,86.694,0,0,1,11.257,3.587q2.7,1.073,5.329,2.316a3.371,3.371,0,0,1,4.357-2.072,2.32,2.32,0,0,1,1.815-.128,136.528,136.528,0,0,1,37.628,20.986,129.994,129.994,0,0,1,15.5,14.356,11.555,11.555,0,0,1,3.221,5.341,14.355,14.355,0,0,1-.574,6.429,56.521,56.521,0,0,1-3.465,10.267,22.243,22.243,0,0,1-2.842,4.48c-.024.22-.061.428-.1.623a9.923,9.923,0,0,1-1.216,3.129,2.594,2.594,0,0,1-3.49,1.008c-.122-.061-.238-.122-.348-.177a.738.738,0,0,0-.073.055,25.607,25.607,0,0,1-5.519,2.53,20.866,20.866,0,0,1-2.842.733,11.335,11.335,0,0,1-1.137.165,2.423,2.423,0,0,1-.128.513,2.307,2.307,0,0,1-2.164,1.668,1.117,1.117,0,0,1-.984-.538,1.758,1.758,0,0,1-1.772-1.21c-.2-.593-.556-1.21-.727-1.852-3.343-1.687-4.247-5.757-4.926-9.228-.171-.9-.336-1.809-.5-2.72-.257-.593-.513-1.186-.776-1.772q-1.375-3.108-2.756-6.209c-.086-.2-.177-.4-.263-.6-.813,3.19-1.839,7.383-5.891,7.389-3.606,0-5.629-3.8-7.3-6.411-1.882-2.958-3.777-5.928-5.671-8.886-.972-1.534-1.956-3.062-2.933-4.6-.2,1.173-.312,2.176-.409,3.52a45.959,45.959,0,0,0-.073,5.024c.037.837.1,1.675.177,2.512a10.8,10.8,0,0,1,.11,1.247c-.006.471-.1.935-.079,1.4a2.4,2.4,0,0,1-4.064,1.681c-2.982-3.062-4.8-7.114-7.272-10.56-1.222-1.717-2.506-3.4-3.869-5-.183-.22-.373-.44-.556-.666-.19,3.758-.379,7.517-.532,11.275a2.533,2.533,0,0,1-2.2,2.481,2.572,2.572,0,0,1-2.775-1.809,40.932,40.932,0,0,0-1.674-4.089c-.7-1.338-1.424-2.671-2.078-4.027-.556-1.161-1.118-2.328-1.674-3.5-.483,1.222-.966,2.457-1.461,3.679l-.55,1.375c-.1.306-.2.611-.287.917a4.694,4.694,0,0,1-1.271,2.194c-.2.3-.416.593-.623.886a3.265,3.265,0,0,1-.88,1.271,2.708,2.708,0,0,1-4.095-.171h-.018a4.547,4.547,0,0,1-4.1-2.646.453.453,0,0,0-.037-.079l-.043-.018a4.894,4.894,0,0,1-2.176-5.445,5.17,5.17,0,0,1,2.567-3.251,6.629,6.629,0,0,0-.636-3.092,25,25,0,0,0-2-3.49,20.286,20.286,0,0,0-2.273-2.8c-.917-.959-1.962-1.772-2.9-2.7-1.32-1.3-2.481-3.1-2.084-5.036Z" transform="translate(-1063.959 -295.159)" fill="#010d3d"/>
        <path id="Trazado_9204" data-name="Trazado 9204" d="M1248.7,415.841a6.652,6.652,0,0,0,1.821-.605,7.176,7.176,0,0,1,1.681-.642,7.633,7.633,0,0,1,3.538-.244,8.134,8.134,0,0,1,5.672,5.017c.171.385-.159-.458.085.22.055.141.11.281.159.422.128.354.232.721.33,1.082s.165.739.238,1.112c.092.434.037.2.024.092.037.263.055.526.073.794a14.063,14.063,0,0,1-.018,2.151c0-.049-.079.691-.037.379s-.073.428-.067.379c-.073.409-.171.819-.281,1.222-.092.33-.2.66-.312.984q-.11.321-.238.642c.043-.1.159-.318-.043.079a16.386,16.386,0,0,1-1.1,1.888c.177-.238-.281.33-.245.293-.1.11-.2.226-.3.33-.257.269-.532.526-.813.77-.532.458.183-.116-.159.122-.153.11-.312.214-.471.312s-.293.177-.446.257c-.092.049-.745.324-.293.153a8.337,8.337,0,0,1-.984.312c-.2.049-.4.086-.611.128-.495.1.336,0-.208.024-.379.018-.758.037-1.137.018-.171-.006-.342-.024-.513-.043.526.043-.122-.031-.2-.049a8.864,8.864,0,0,1-1.173-.342c.092.031.385.2,0,0-.177-.092-.354-.183-.532-.281s-.348-.2-.519-.306c-.079-.049-.556-.391-.19-.122a10.811,10.811,0,0,0-1.326-.788,1.9,1.9,0,0,0-2.762,2.127c1.185,4.076,6.6,4.962,10.2,4.125,3.966-.917,6.8-4.137,8.25-7.792,2.732-6.857-.11-17.161-8.128-18.823a11.425,11.425,0,0,0-5.916.183,7.957,7.957,0,0,0-2.524,1.479,3.049,3.049,0,0,0-1.173,2.438.52.52,0,0,0,.648.5h0Z" transform="translate(-1118.702 -339.84)" fill="#010d3d"/>
        <path id="Trazado_9205" data-name="Trazado 9205" d="M1197.818,419.677a43.857,43.857,0,0,0-5.525,12.638c-.66,2.4,2.964,3.373,3.716,1.027,1.283-4.015,2.127-8.214,3.147-12.3a2.05,2.05,0,0,0-1.406-2.475,2.015,2.015,0,0,0-2.475,1.406c-2.53,10.078-5.2,20.528-13.158,27.666a40.36,40.36,0,0,1-13.292,7.5c-5.39,1.925-11.2,3.514-16.947,3.514a27.3,27.3,0,0,1-13.555-3.722,33.213,33.213,0,0,1-10.279-9.185c-6.441-8.745-8.428-19.825-7.871-30.471.617-11.838,4.773-23.248,9.222-34.12.556-1.351,1.143-2.689,1.723-4.027a1.909,1.909,0,0,0-.666-2.53,1.86,1.86,0,0,0-2.53.666c-5,11.63-9.772,23.394-11.294,36.063-1.387,11.544.012,23.828,6.215,33.882,5.354,8.678,14.392,15.7,24.653,17.173,6.276.9,12.547-.263,18.585-2a51.514,51.514,0,0,0,15.352-6.9,33.646,33.646,0,0,0,6.338-5.659,37.444,37.444,0,0,0,4.626-7.016,77.858,77.858,0,0,0,5.708-15.761q.541-2,1.045-4l-3.875-1.07c-1.021,4.095-2.237,8.2-2.988,12.351l3.716,1.027a55.96,55.96,0,0,1,3.655-12.883c.446-1.112-1.247-1.681-1.846-.776h0Z" transform="translate(-1067.707 -325.617)" fill="#010d3d"/>
        <path id="Trazado_9206" data-name="Trazado 9206" d="M1136.321,370.179c.519-.813,1.045-1.6,1.528-2.445.5-.88.892-1.827,1.387-2.713a51.825,51.825,0,0,1,3.221-5.048l-2.805-.367c1.723,5.916,4.04,12.895,10.065,15.7a1.446,1.446,0,0,0,2.145-1.228l.7-15.113-2.585.7q2.851,4.043,5.69,8.091l2.8,3.985a21.39,21.39,0,0,0,2.658,3.355c1.7,1.613,4.364,3.062,6.564,1.485,2.457-1.766,1.791-5.091,1.565-7.67l-.966-10.872-2.567.7q5.088,8.214,10.145,16.452c1.4,2.273,2.726,5.262,5.4,6.27,2.316.874,5.017-.257,6.576-2.041,2.1-2.4,2.359-5.726,2.457-8.77l-2.6.354c1.95,5.268,4.089,10.45,6.246,15.639q1.586,3.823,3.282,7.6c.88,1.962,2.151,4.309,4.718,3.74,2.3-.507,3.63-3.141,4.247-5.189a1.246,1.246,0,0,0-2.4-.66c-.293,1.008-1.791,4.675-3.306,3.141a11.61,11.61,0,0,1-1.7-3.306q-.981-2.145-1.919-4.309c-2.475-5.677-4.62-11.489-6.619-17.35a1.332,1.332,0,0,0-2.6.354c-.135,2.206-.177,4.755-1.552,6.613-.917,1.241-2.787,2.31-4.278,1.442a6.484,6.484,0,0,1-2-2.335c-.746-1.2-1.479-2.4-2.219-3.6l-4.473-7.254q-2.512-4.079-5.024-8.165c-.666-1.094-2.689-.733-2.567.7l.715,8.489.348,4.168a6.5,6.5,0,0,1-.122,3.123c-.788,1.7-2.989-.189-3.752-.972a23.326,23.326,0,0,1-2.243-2.982l-2.438-3.49q-2.833-4.052-5.665-8.11a1.4,1.4,0,0,0-2.585.7l-.776,15.113,2.145-1.228c-5.36-2.524-7.15-8.776-8.544-14.056a1.556,1.556,0,0,0-2.805-.367,29.244,29.244,0,0,0-3.184,5.378,17.2,17.2,0,0,0-1.167,2.927,15.765,15.765,0,0,0-.4,3.1.688.688,0,0,0,1.271.342h0Z" transform="translate(-1075.061 -318.758)" fill="#010d3d"/>
        <path id="Trazado_9207" data-name="Trazado 9207" d="M1205.812,367.881c.776-1.888,1.558-3.777,2.328-5.665s1.455-3.771,2.31-5.592c1.76-3.771,3.27-7.658,4.755-11.551.715-1.876,1.381-3.966.733-5.965a12.943,12.943,0,0,0-3.141-4.486q-3.346-3.676-7-7.065a122.268,122.268,0,0,0-54.788-29.255,1.942,1.942,0,0,0-2.353,1.338,8.219,8.219,0,0,0,2.322,7.969l2.31-2.995c-6.063-3.991-12.541-8.079-19.776-9.473a21.6,21.6,0,0,0-10.6.232,6,6,0,0,0-3.734,2.9c-.929,2.023.055,3.826,1.234,5.476l8.018,11.2,2.61-2.61a26.954,26.954,0,0,0-21.53-2.322c-3.1,1.014-6.765,3.318-6.386,7.083.2,1.986,1.491,3.575,2.64,5.127s2.445,3.147,3.746,4.645a76.764,76.764,0,0,0,9.3,9.137l2.176-3.74a14.994,14.994,0,0,0-6.57-.648,6.5,6.5,0,0,0-4.926,4.052c-1.583,4.04.886,8.366,4.327,10.457a17.542,17.542,0,0,0,3.331,1.5,9.765,9.765,0,0,0,1.754.464c.574.086,1.357.128,1.809.244,2.322.587,3.312-3.007.99-3.587-1.161-.293-2.029-.813-3.178-1.2a10.64,10.64,0,0,1-2.53-1.143c-.2-.122-.4-.251-.593-.385a2.059,2.059,0,0,1-.4-.324c-.2-.177-.391-.361-.568-.556-.031-.031-.391-.513-.165-.183-.134-.2-.257-.391-.373-.6-.043-.073-.33-.691-.171-.306a6.83,6.83,0,0,1-.36-1.253c-.025-.159-.025-.128,0,.079-.012-.128-.025-.263-.031-.391-.006-.2,0-.391,0-.587,0-.483-.1.238.024-.189a5.77,5.77,0,0,1,.214-.721c-.141.354.049-.024.116-.153.189-.391-.177.122.116-.165a3.867,3.867,0,0,1,.275-.275q-.257.174.073-.055a3.572,3.572,0,0,1,.581-.318c-.348.141.232-.049.305-.067.141-.037.287-.067.434-.092-.22.031-.189.031.079,0,.464,0,.917-.006,1.375.037.275.031.312.037.11.012.116.018.232.037.348.061.275.049.544.11.813.171.532.128,1.063.275,1.583.428a2.277,2.277,0,0,0,2.53-1.027,2.21,2.21,0,0,0-.348-2.713,87.405,87.405,0,0,1-14.13-14.582,3.884,3.884,0,0,1-.886-1.674,1.1,1.1,0,0,1,.055-.4c.018-.037.135-.336.018-.086a3.281,3.281,0,0,1,.305-.507c-.159.208.116-.116.159-.159.122-.128.244-.244.379-.361a3.258,3.258,0,0,1,.477-.342,8.322,8.322,0,0,1,1.693-.837,23.35,23.35,0,0,1,19.061,1.748,1.94,1.94,0,0,0,2.31-.3,1.916,1.916,0,0,0,.3-2.31l-6.4-8.861L1123.8,302.1A6.055,6.055,0,0,1,1122.49,300c.043.238.086-.214-.031.012.177-.348.086-.251.348-.446a4.56,4.56,0,0,1,1.271-.617,18.219,18.219,0,0,1,8.776-.073,35.726,35.726,0,0,1,8.9,3.294,100.558,100.558,0,0,1,9.57,5.763c1.8,1.192,3.893-1.522,2.31-2.995a4.327,4.327,0,0,1-1.332-4.253l-2.353,1.338a118.474,118.474,0,0,1,50.755,26.23q3.594,3.163,6.924,6.613,1.687,1.742,3.294,3.557a6.268,6.268,0,0,1,1.186,1.638,3.338,3.338,0,0,1,0,2.115c-.526,2.066-1.412,4.07-2.1,6.087s-1.522,4.211-2.1,6.362c-1.143,4.3-2.768,8.507-4.174,12.73a1.064,1.064,0,0,0,.733,1.3,1.08,1.08,0,0,0,1.3-.733h0Z" transform="translate(-1062.635 -294.6)" fill="#010d3d"/>
        <path id="Trazado_9208" data-name="Trazado 9208" d="M1283.867,370.078c.116.006.568.086.153.006l-.6-.354a1.137,1.137,0,0,0,.495.336.723.723,0,0,0,.373.1c.275.037.263.037-.037-.012.165.012.336.079.5.079a2.068,2.068,0,0,1,.275,0l-.452-.061c.709.141,1.43-.024,2.151.067l-.526-.073a8.634,8.634,0,0,1,2.1.568l-.538-.226c.208.086.41.183.617.269a2.827,2.827,0,0,0,1.638.116,2.052,2.052,0,0,0,1.424-1.271,2.074,2.074,0,0,0-.11-1.956,2.85,2.85,0,0,0-.929-.923,3.312,3.312,0,0,0-.819-.306,10.717,10.717,0,0,0-1.24-.208,6.835,6.835,0,0,0-1.962.1,8.081,8.081,0,0,0-1.467.379,3.953,3.953,0,0,0-.684.287,3.085,3.085,0,0,0-.416.33c.22-.171.257-.2.116-.1a1.6,1.6,0,0,0-.581.581c.177-.2.2-.238.079-.128a1.427,1.427,0,0,0-.428,1.076l.19-.7c-.086.134-.177.263-.257.4a1.089,1.089,0,0,0,.929,1.619h0Z" transform="translate(-1132.507 -322.44)" fill="#010d3d"/>
        <path id="Trazado_9209" data-name="Trazado 9209" d="M1283.8,362.5s.257-.079.1-.073l-.44-.116.073.055a1.156,1.156,0,0,0,1.167,0l.776-.367-1.082.141a2.047,2.047,0,0,0,.923,0c.085-.024.159-.061.244-.086a5.506,5.506,0,0,0,.917-.391,7.357,7.357,0,0,0,1.1-.654c.464-.342.972-.666,1.4-1.045a5.87,5.87,0,0,0,.483-.471,2.656,2.656,0,0,0,.617-1.014c.037-.1.067-.208.1-.312a1.929,1.929,0,0,0-.495-1.882,1.991,1.991,0,0,0-1.882-.5,2.468,2.468,0,0,0-.929.336,9.81,9.81,0,0,0-.819.636,8.725,8.725,0,0,0-.843.868,7.614,7.614,0,0,0-1.693,2.493l.159-.379a1.915,1.915,0,0,0-.318,1.057l.189-.709c-.147.232-.293.464-.44.7a1.142,1.142,0,0,0,0,1.167l.031.049-.086-.672c.031-.043.031-.043,0,.006l-.067.122a.712.712,0,0,0,.055.788.7.7,0,0,0,.752.257h0Z" transform="translate(-1132.55 -318.373)" fill="#010d3d"/>
        <path id="Trazado_9210" data-name="Trazado 9210" d="M1199.8,417.88a2.53,2.53,0,1,0-2.53-2.53,2.555,2.555,0,0,0,2.53,2.53Z" transform="translate(-1099.255 -340.571)" fill="#010d3d"/>
        <path id="Trazado_9211" data-name="Trazado 9211" d="M1142.8,408.908l.037-.024.018-.012s.483-.367.507-.391a1.353,1.353,0,0,0,.2-.257,1.759,1.759,0,0,0,.2-.263c.031-.043.055-.086.086-.128l-.4.526h0l.409-.532.263-.623a2,2,0,0,0,.049-1.039,1.3,1.3,0,0,0-.177-.654,1.278,1.278,0,0,0-.336-.574,1.3,1.3,0,0,0-.464-.464,1.337,1.337,0,0,0-.574-.336,1.95,1.95,0,0,0-1-.226l-.691.092-.623.263-.526.409-.409.526-.263.623a2,2,0,0,0-.049,1.039,1.3,1.3,0,0,0,.177.654,1.921,1.921,0,0,0,.538.837h0l-.4-.519c.031.043.055.086.085.128h0l.391.513h0l.5.391.018.012.037.031a2.376,2.376,0,0,0,2.4,0h0Z" transform="translate(-1076.599 -337.106)" fill="#010d3d"/>
        <path id="Trazado_9212" data-name="Trazado 9212" d="M1148.414,408.977a41.454,41.454,0,0,0-3.624,2.579c-1.1.9-2.157,1.84-3.221,2.781q-3.3,2.906-6.576,5.849l-13.085,11.764a1.357,1.357,0,0,0,0,1.913,81.361,81.361,0,0,0,10.505,7.3c1.8,1.033,3.642,1.986,5.519,2.86a42.162,42.162,0,0,0,6.142,2.506,1.587,1.587,0,0,0,1.222-2.9c-1.895-.843-3.862-1.5-5.757-2.353s-3.673-1.729-5.458-2.7a72.178,72.178,0,0,1-10.255-6.631v1.913l12.858-11.777q3.19-2.915,6.344-5.867c1.033-.966,2.084-1.919,3.074-2.921.5-.5,1.015-.984,1.491-1.51.55-.605.99-1.289,1.5-1.925.367-.458-.1-1.265-.684-.886h0Z" transform="translate(-1069.797 -339.039)" fill="#010d3d"/>
        <path id="Trazado_9213" data-name="Trazado 9213" d="M1181.9,472.207c-.238.3-.5.526-.721.843-.183.263-.367.513-.568.764a14,14,0,0,1-1.369,1.455,11.555,11.555,0,0,1-3.41,2.127,18.386,18.386,0,0,1-3.942,1.1,19.314,19.314,0,0,1-2.059.226,14.043,14.043,0,0,0-2.377.165,1.383,1.383,0,0,0,0,2.646,7.61,7.61,0,0,0,2.579.049,25.855,25.855,0,0,0,2.6-.361,19.871,19.871,0,0,0,4.657-1.516,13.455,13.455,0,0,0,3.85-2.665,8.774,8.774,0,0,0,1.473-1.913,8.54,8.54,0,0,0,.483-1.051,4.282,4.282,0,0,0,.232-1.271.848.848,0,0,0-1.436-.593h0Z" transform="translate(-1087.281 -363.571)" fill="#010d3d"/>
        <path id="Trazado_9214" data-name="Trazado 9214" d="M1203.572,506.947a6.007,6.007,0,0,0,.862,2.518c.373.794.745,1.558,1.106,2.347.764,1.662,1.662,3.251,2.536,4.859,1.723,3.16,3.508,6.282,5.274,9.418,1.149,2.029,4.3.2,3.129-1.827-1.8-3.117-3.575-6.246-5.421-9.332-.911-1.522-1.8-3.062-2.805-4.522-.489-.715-.978-1.424-1.461-2.139a6.151,6.151,0,0,0-1.8-2.127.96.96,0,0,0-1.43.819h0Z" transform="translate(-1101.702 -376.811)" fill="#010d3d"/>
        <path id="Trazado_9215" data-name="Trazado 9215" d="M1207.647,525.64a42.072,42.072,0,0,1-2.066,3.789c-.7,1.265-1.393,2.591-1.98,3.917a1.757,1.757,0,0,0,.617,2.341,1.706,1.706,0,0,0,2.341-.617,18.182,18.182,0,0,0,2.927-8.715c.067-1.717-2.4-1.925-2.9-.391a61.573,61.573,0,0,1-4.223,9.937,29.868,29.868,0,0,1-6.46,8.4l2.444,1.014c.2-5.066.354-10.139.532-15.205a8.492,8.492,0,0,0-.36-3.759,23.588,23.588,0,0,0-1.882-3.092c-1.35-2.1-2.732-4.192-4.1-6.289-1.6-2.426-3.2-4.852-4.834-7.248a1.856,1.856,0,0,0-2.469-.648,1.824,1.824,0,0,0-.648,2.469c1.809,2.652,3.667,5.268,5.531,7.884s3.722,4.938,5.39,7.511c.795,1.228.458,2.817.416,4.217l-.141,4.516c-.1,3.215-.2,6.423-.293,9.638a1.45,1.45,0,0,0,2.445,1.014,31.99,31.99,0,0,0,6.747-8.935c1.754-3.312,3.068-6.857,4.608-10.3l-2.75-.746a12.722,12.722,0,0,1-2.671,6.637l2.689,2.078a16.432,16.432,0,0,0,1.791-4.327,44.561,44.561,0,0,0,.685-4.522c.11-.764-1.021-1.461-1.393-.587h0Z" transform="translate(-1094.226 -377.91)" fill="#010d3d"/>
        <path id="Trazado_9216" data-name="Trazado 9216" d="M1216.2,548.238c.306.794,1.094,1.247,1.742,1.748.782.611,1.589,1.186,2.383,1.772,1.6,1.18,3.092,2.487,4.675,3.685.9.678,2.035-.1,2.353-.959a31.582,31.582,0,0,0,1.736-7.8,14.069,14.069,0,0,0-1.155-7.688c-.733-1.461-3.251-.44-2.677,1.131a13.316,13.316,0,0,1,.721,6.686c-.33,2.341-1.161,4.535-1.717,6.826l2.353-.96c-1.687-.923-3.435-1.711-5.115-2.658-.795-.446-1.583-.9-2.383-1.338a5.233,5.233,0,0,0-2.5-1,.44.44,0,0,0-.422.556h0Z" transform="translate(-1106.605 -389.36)" fill="#010d3d"/>
        <path id="Trazado_9217" data-name="Trazado 9217" d="M1197.638,546.869a2.85,2.85,0,0,0-.917-.593,4.193,4.193,0,0,0-.917-.232c-.776-.122-1.546-.189-2.322-.251-1.424-.116-2.854-.2-4.284-.287l1.308,1.717c.189-.678.379-1.363.611-2.023a12.824,12.824,0,0,1,.758-1.76,20.9,20.9,0,0,1,1.045-1.84,4.514,4.514,0,0,1,.465-.642,7.178,7.178,0,0,0,.831-1.045,1.367,1.367,0,0,0-.348-1.748,1.4,1.4,0,0,0-1.778.1,9.591,9.591,0,0,0-1.424,2,20.953,20.953,0,0,0-1.106,1.888,19.755,19.755,0,0,0-1.674,4.333,1.375,1.375,0,0,0,1.308,1.717c1.4.037,2.8.086,4.2.1.7.006,1.4.018,2.1-.024a3.511,3.511,0,0,0,2.035-.623.521.521,0,0,0,.1-.8h0Z" transform="translate(-1095.591 -389.208)" fill="#010d3d"/>
        <path id="Trazado_9218" data-name="Trazado 9218" d="M1097.554,645.781c36.564-12.877,64.787-42.046,82.956-75.628,5.024-12.589,15.639-7.236,17.784,3.7,1.027,5.873-.067,11.789-1.723,17.442-10.89,29.536-40.091,56.836-68.619,69.443a147.554,147.554,0,0,1-13.946,5.292c-3.227,1.565-6.771,1.216-9.045-1.766-2.952-2.176-11.722-16.061-7.407-18.475Z" transform="translate(-1060.024 -398.918)" fill="#64d8cc"/>
        <path id="Trazado_9219" data-name="Trazado 9219" d="M1172.156,623.273c3.563-2.121,6.454-5.237,9.326-8.2.7-.727,1.375-1.5,2.121-2.188.782-.721,1.577-1.412,2.292-2.2,1.418-1.577,2.817-3.172,4.174-4.8,2.671-3.215,5.231-6.527,7.737-9.864s4.736-6.82,6.9-10.371c1.2-1.962,2.377-3.93,3.514-5.928.568-1,1.149-1.992,1.681-3.007a12.264,12.264,0,0,0,1.363-3.435.811.811,0,0,0-1.344-.782c-1.491,1.406-2.426,3.526-3.447,5.286s-2.072,3.5-3.154,5.219c-2.2,3.514-4.577,6.949-6.979,10.328s-4.773,6.619-7.364,9.79c-1.314,1.607-2.64,3.208-4,4.785s-2.518,3.215-3.887,4.724c-3.092,3.41-6.619,6.539-9.277,10.31-.146.208.135.452.336.336h0Z" transform="translate(-1089.341 -402.573)" fill="#010d3d"/>
        <path id="Trazado_9220" data-name="Trazado 9220" d="M1226.833,613.962c-1.534,2.108-2.811,4.382-4.174,6.6s-2.7,4.364-4.119,6.5a154.327,154.327,0,0,1-9.13,12.461,189.411,189.411,0,0,1-21.64,21.977c-2.145,1.894-4.162,3.96-6.448,5.69q-1.733,1.311-3.508,2.573a14.261,14.261,0,0,0-1.73,1.424c-.55.538-1.118.923-1.613,1.485-.342.391-.018,1.094.538.917a12.4,12.4,0,0,0,1.711-.788,14.221,14.221,0,0,0,1.785-.88q1.65-1.109,3.264-2.261c1.075-.77,2.09-1.467,3.153-2.182s2.206-1.43,3.251-2.231a110.848,110.848,0,0,0,11.862-10.6,138.441,138.441,0,0,0,19.159-24.916c1.528-2.512,2.934-5.091,4.278-7.7a42.977,42.977,0,0,0,3.392-8.073c0-.012-.012-.018-.018-.006h0Z" transform="translate(-1090.336 -418.783)" fill="#010d3d"/>
        <path id="Trazado_9221" data-name="Trazado 9221" d="M1177.23,588.922l-.342-.342s-.073.018-.043.043l.342.342s.073-.018.043-.043Z" transform="translate(-1091.311 -408.918)" fill="#010d3d"/>
      </g>
      <g id="Grupo_4914" data-name="Grupo 4914" transform="translate(0 24.757)">
        <path id="Trazado_9222" data-name="Trazado 9222" d="M864.408,710.46q.037-2.732.171-5.464c.092-1.956.208-4.192,2.3-5.079,1.6-.678,3.771-.275,5.458-.116,1.846.165,3.685.416,5.5.752a54.756,54.756,0,0,1,9.638,2.7c3.031,1.149,6.014,2.4,9.1,3.4,6.331,2.066,13.213,3.881,18.065,8.715a2.481,2.481,0,0,1,0,3.471,2.421,2.421,0,0,1-2.518.544,2.109,2.109,0,0,1-2.219.562c-.25-.086-.495-.171-.739-.251a3.612,3.612,0,0,1,.593,3.325,4.244,4.244,0,0,1-2.964,2.6,5.44,5.44,0,0,1-3.508-.244q-.568-.229-1.118-.477c-.177-.079-.2-.092-.189-.092a1.533,1.533,0,0,1-.165-.055,5.038,5.038,0,0,0-.8-.238H901c.043.012.024.018-.049.018h-.006l-.012.012-.012.006h0l-.012.012a.45.45,0,0,1-.031.037c-.037.031-.061.067-.1.1h0c-.006.061-.159.483-.141.354l-.018.055h0a.088.088,0,0,0,.012.024,2.42,2.42,0,0,1,.959,1.907,2.487,2.487,0,0,1-1.2,2.1c-2.047,1.3-4.406.611-6.594.141-.165-.037-.342-.073-.513-.1-.024,0-.147-.006-.263-.012a2.5,2.5,0,0,1-1.143,2.988c-3.367,1.589-6.949.587-10.279-.587a56.075,56.075,0,0,1-9.027-4.095c-1.363-.77-2.689-1.607-3.972-2.5-1.5-1.039-3.111-2.06-3.722-3.875-.562-1.668-.391-3.728-.434-5.476-.043-1.717-.049-3.441-.031-5.164Z" transform="translate(-687.343 -476.822)" fill="#fff"/>
        <path id="Trazado_9223" data-name="Trazado 9223" d="M881.394,700.074c2.475.7,4.993,1.18,7.48,1.821a37.475,37.475,0,0,1,6.643,2,12.86,12.86,0,0,1,4.828,3.587,6.707,6.707,0,0,1,.685,1.063,5.249,5.249,0,0,1,.3.917c.018.1,0,.2.012.3,0-.018.037-.226,0,.006,0,.043.018.128-.037.159.183-.086-.11.012-.153.018s-.41,0-.556-.006a17.787,17.787,0,0,1-7.517-2.053A2,2,0,0,0,890.1,709.6a2.486,2.486,0,0,1-1.846,2.536c-.843.22-1.87-.073-2.665.7a1.849,1.849,0,0,0,.428,2.891c1.76,1.027,4.345.055,5.775-1.112a6.5,6.5,0,0,0,2.267-5.017l-2.976,1.711a22.876,22.876,0,0,0,8.929,2.445,4.785,4.785,0,0,0,3.979-1.461,4.234,4.234,0,0,0,.709-3.893c-.678-2.475-2.9-4.437-5.005-5.739a22.614,22.614,0,0,0-7.389-2.768c-3.441-.7-6.985-.77-10.4-1.632a.948.948,0,0,0-.5,1.827h0Z" transform="translate(-693.695 -476.311)" fill="#010d3d"/>
        <path id="Trazado_9224" data-name="Trazado 9224" d="M889.981,709.506a56.763,56.763,0,0,1,13,5.653,21.911,21.911,0,0,1,5.323,4.486,2.29,2.29,0,0,1,.629,1.192c0,.257-.055.238-.208.275a4.749,4.749,0,0,1-2.231-.379c-3.135-1.082-6.27-2.176-9.411-3.239-1.84-.623-3.007,2.2-1.314,3.123a70.672,70.672,0,0,1,6.117,3.875,20.278,20.278,0,0,1,2.518,1.858c.11.1.257.354.342.4.1.055.018.134.012-.012-.012-.19-.073.092-.049.067a.917.917,0,0,1-.306.238c-.672.33-1.937-.177-2.677-.416q-1.714-.559-3.38-1.241c-2.243-.9-4.412-1.986-6.582-3.044a2.156,2.156,0,0,0-2.738.544,2.109,2.109,0,0,0,.165,2.787c1.674,1.436,3.447,2.781,5.164,4.168.422.342.843.678,1.265,1.021.171.141.342.281.5.434l.159.159c.177.183.2.214.073.1a1.517,1.517,0,0,1,.073-.568c-.079.226-.208.147,0,.061-.214.092-.134.079-.4.055a8.5,8.5,0,0,1-2.4-.843c-1.1-.477-2.212-.929-3.325-1.381-2.176-.886-4.284-1.956-6.472-2.811a2.437,2.437,0,0,0-2.75,1.118,2.515,2.515,0,0,0,.379,2.952l3.93,4.021c.562.574,1.143,1.131,1.711,1.7.409.409.049.073.024-.263a1.629,1.629,0,0,1,.409-.966c-.232.33.19-.226.385-.19-.031-.006-.568.183-.2.086s-.183,0-.238.006c-.183,0-.868-.1-.318.012-.911-.183-1.821-.4-2.726-.617-1.754-.416-3.5-.856-5.256-1.3s-3.5-.892-5.207-1.467a24.551,24.551,0,0,1-4.095-1.76,44.7,44.7,0,0,1-4.089-2.457c-.642-.434-1.277-.886-1.895-1.351-.067-.055-.507-.385-.208-.153l-.409-.318c-.342-.269-.678-.544-1.008-.819-1.406-1.167-2.719-2.438-4.113-3.624a24.212,24.212,0,0,0-2.426-1.638,6.85,6.85,0,0,0-2.61-1.051,1.042,1.042,0,0,0-1.265,1.265,6.034,6.034,0,0,0,.9,2.408,17.769,17.769,0,0,0,1.833,2.585,43.6,43.6,0,0,0,4.07,3.661,43.092,43.092,0,0,0,9.412,6.111,58,58,0,0,0,11.263,3.465c2.084.471,4.156,1,6.246,1.454,1.723.379,3.783.385,5.164-.886a3.57,3.57,0,0,0,1.021-3.416,6.478,6.478,0,0,0-1.858-2.909c-1.632-1.711-3.337-3.355-5.005-5.036l-2.371,4.07c1.32.507,2.7.886,4.046,1.332s2.677.96,4.009,1.448c2.347.862,5.341,2.353,7.755.953a3.816,3.816,0,0,0,2.035-3.276,4.43,4.43,0,0,0-1.84-3.27c-2.1-1.766-4.186-3.581-6.35-5.268l-2.066,3.545c2.732,1.143,5.476,2.279,8.293,3.2s6.289,2.188,8.66-.086a3.55,3.55,0,0,0,.911-3.826,7.831,7.831,0,0,0-2.921-3.092,58.476,58.476,0,0,0-7.584-4.73l-1.314,3.123c3.172,1.057,6.337,2.163,9.546,3.123,2.408.715,6.008.416,6.179-2.817.153-2.909-3.117-5.048-5.189-6.509a33.857,33.857,0,0,0-7.321-3.764c-2.927-1.137-5.934-2.084-8.929-3.013-1.094-.342-1.546,1.351-.471,1.711h0Z" transform="translate(-682.457 -480.029)" fill="#010d3d"/>
        <path id="Trazado_9225" data-name="Trazado 9225" d="M575.249,640.593c.336-19.758,7.786-38.569,18.884-54.709,11.935-21.414,31.089-37.316,52.8-48.231,8.874-4.62,18.627-8.061,28.76-6.655,9.13,1.351,19.789,5.1,22.667,14.838,3.783,13.635-1.6,27.7-5.8,40.6-5.977,19.807-12.589,41.154-13.158,62.422,0,1.118-2.09,30.942-3.294,30.924-24.06-.422-89.434,1.247-99.187.422-4.027-.165-1.332-36.485-1.668-39.614Z" transform="translate(-574.681 -411.159)" fill="#010d3d"/>
        <path id="Trazado_9226" data-name="Trazado 9226" d="M633.369,659.079c.966-5.641,2.139-11.233,3.337-16.831a180.617,180.617,0,0,1,10.512-32.635c1.228-2.9,2.524-5.775,3.862-8.623a58.217,58.217,0,0,1,4.59-8.593c.306-.44,1.094-.189.917.385-.843,2.689-2.06,5.274-3.16,7.871s-2.133,5.189-3.135,7.81c-2.017,5.28-3.905,10.628-5.665,16a268.174,268.174,0,0,0-8.892,32.775c-1.21,6.289-2.047,12.638-3.251,18.915-.116.605-1.082.458-1.063-.147a118.856,118.856,0,0,1,1.95-16.941Z" transform="translate(-596.744 -435.072)" fill="#fff"/>
        <path id="Trazado_9227" data-name="Trazado 9227" d="M696.391,391.241c.257-3.661,1.662-7.364,5.488-8.513a17.588,17.588,0,0,1,5.879-.354c.849.055,1.7.128,2.542.22-1.638-7.6-2.842-15.382-1.216-23.089,1.613-7.609,6.166-14.46,13.341-17.8,7.1-3.3,15.285-3.648,22.991-3.355a32.164,32.164,0,0,1,13.011,2.848c3.765,1.84,6.991,4.669,10.114,7.425,3.2,2.805,6.319,5.842,8.373,9.613a33.739,33.739,0,0,1,3.569,12.064c.507,3.96.568,7.939.733,11.917q.284,6.82,1.063,13.616a193.569,193.569,0,0,0,5.066,26.3,54.239,54.239,0,0,1,2.231,13.011,21.971,21.971,0,0,1-.911,6.7,31.077,31.077,0,0,1-2.787,5.934c-1.027,1.84-1.821,3.954-3.325,5.476-1.607,1.638-3.936,2.365-6.087,3a44.394,44.394,0,0,1-12.926,1.711c-8.874-.086-17.6-2.335-26.022-4.981-.758-.245-1.522-.483-2.28-.733a52.88,52.88,0,0,1-4.828,7.81c-1.027,1.381-2.1,2.726-3.245,4.015a32.235,32.235,0,0,1-3.759,3.428,2.62,2.62,0,0,1-1.516.611c-1.8.746-3.917.544-5.054-1.247-1.235-1.937-.281-3.942.617-5.781.819-1.65,1.687-3.288,2.579-4.9a51.866,51.866,0,0,1,5.384-9.265c-.171-.2-.342-.4-.507-.617a31.1,31.1,0,0,1-2.713-4.742c-.849-1.65-1.644-3.331-2.39-5.024a99.67,99.67,0,0,1-6.888-22.148q-.843-4.6-1.271-9.271a11.844,11.844,0,0,1-12.919-4.92,14.342,14.342,0,0,1-2.353-8.965Z" transform="translate(-621.991 -336.336)" fill="#fff"/>
        <path id="Trazado_9228" data-name="Trazado 9228" d="M699.165,544.786c-.574-7.444,9.02-8.58,14.557-9.528a34.134,34.134,0,0,1,19.935,4.48c3.7.037-3.545,13.836-3.887,16.33-5.543,14.563-11.819,28.858-18.511,42.939q-3.85,7.948-7.975,15.786c-.7,1.32-2.542.6-2.628-.709q-.77-11.532-1.253-23.077c-.562-15.4-.581-30.807-.245-46.22Z" transform="translate(-622.999 -412.884)" fill="#fff"/>
        <path id="Trazado_9229" data-name="Trazado 9229" d="M703.949,584.127q1.357-2.438,2.683-4.9.678-1.265,1.351-2.542a15.479,15.479,0,0,1,1.033-1.907,25.89,25.89,0,0,0,1.717-2.555,6.825,6.825,0,0,0,1.076-2.952c.043-2.09-2.035-3.722-3.221-5.213a5.018,5.018,0,0,1-1.3-2.8,3.594,3.594,0,0,1,.678-2.084,18.871,18.871,0,0,1,4.785-4.767,29.8,29.8,0,0,1,5.042-3.043,4.246,4.246,0,0,0,1.846.923.888.888,0,0,0,.562-.11c.868,1.632,1.748,3.27,2.463,4.975s1.644,3.869,1.289,5.757a4.681,4.681,0,0,1-3.27,3.545c-1.87.733-3.82,1.2-5.659,2.029a.826.826,0,0,0-.415.727q-.018,5.289-.318,10.573c-.348,6.283-.953,12.553-1.7,18.8q-.367,3-.782,5.983c-.122.251-.238.5-.354.758q-3.85,7.948-7.975,15.786c-.7,1.32-2.542.605-2.628-.709q-.77-11.532-1.253-23.077c-.061-1.748-.116-3.5-.171-5.25q2.292-3.951,4.529-7.945Z" transform="translate(-623.187 -419.205)" fill="#00b2e3"/>
        <path id="Trazado_9230" data-name="Trazado 9230" d="M770.667,348.375c.287.232.568.464.843.7a10.322,10.322,0,0,0,.9.825c.709.477,1.473.868,2.182,1.344a31.74,31.74,0,0,1,3.636,2.878,29.419,29.419,0,0,1,5.812,7.321c3.532,6.319,4.027,13.744,4.235,20.84.116,3.826.153,7.658.373,11.483.238,4.125.666,8.232,1.235,12.321s1.3,7.981,2.163,11.923,1.968,7.81,3.007,11.7a43.382,43.382,0,0,1,1.821,11.275,17.67,17.67,0,0,1-2.42,9.326c-.214.342-.44.678-.678,1s.312-.367-.128.165c-.116.134-.226.275-.342.409a18.222,18.222,0,0,1-1.558,1.589c-.263.232-.532.464-.807.678.287-.226-.073.049-.147.1-.141.1-.287.2-.434.306a19.46,19.46,0,0,1-2,1.192c-.318.165-.636.324-.96.471-.128.061-.263.116-.391.177-.629.281.214-.086-.165.067-.709.287-1.418.556-2.145.794a37.129,37.129,0,0,1-4.522,1.149c-.733.141-1.473.269-2.212.385-.147.024-.293.043-.446.067a2.029,2.029,0,0,1-.336.043c-.373.043-.746.092-1.118.128-1.656.159-3.318.226-4.981.275a90.667,90.667,0,0,1-11.807-.33,52.588,52.588,0,0,1-11.013-2.115,36.712,36.712,0,0,1-8.788-4.217,29.411,29.411,0,0,1-7.132-6.527,37.39,37.39,0,0,1-5.066-9.454,89.381,89.381,0,0,1-3.538-11.306c-.446-1.864-.819-3.74-1.216-5.616-.2-.935-.367-1.876-.587-2.805-.244-1.027-.648-1.98-.8-3.031-.269-1.876-.458-3.765-.623-5.653-.134-1.509-2.438-1.565-2.4,0,.055,2.1.2,4.2.409,6.295.1.947-.049,1.895.012,2.848.073,1.112.263,2.225.434,3.325a79.32,79.32,0,0,0,3.05,11.966c2.365,7.285,5.439,14.466,11.263,19.66,5.445,4.852,12.345,7.835,19.367,9.577a59.721,59.721,0,0,0,12.369,1.442,108.213,108.213,0,0,0,11.263-.238c6.515-.471,13.164-1.9,18.236-6.276,5.72-4.938,7.065-12.926,6.13-20.088a91.465,91.465,0,0,0-2.86-12.376c-1.125-4.089-2.1-8.214-2.854-12.376a154.12,154.12,0,0,1-2.255-24.464c-.079-3.96-.183-7.926-.629-11.862a42.931,42.931,0,0,0-2.989-11.587A32.144,32.144,0,0,0,775.99,348.84c-.672-.4-1.357-.77-2.053-1.106a8.934,8.934,0,0,0-2.573-.568c-.623-.092-1.345.7-.709,1.216h0Z" transform="translate(-630.454 -339.794)" fill="#010d3d"/>
        <path id="Trazado_9231" data-name="Trazado 9231" d="M784.914,358.92a31.757,31.757,0,0,0-5.158-8.574,41.732,41.732,0,0,0-7.181-6.973,40.092,40.092,0,0,0-19.728-7.945,44.884,44.884,0,0,0-22.233,3.013,33.224,33.224,0,0,0-9.638,5.818,22.975,22.975,0,0,0-6.026,9.662,53.911,53.911,0,0,0-2.579,13.518,55.343,55.343,0,0,0,.77,14.386c.348,1.723,3.343,1.363,3.117-.422a70.735,70.735,0,0,1-.648-11.923,57.172,57.172,0,0,1,1.693-11.606,23.3,23.3,0,0,1,4.3-9.436,24.228,24.228,0,0,1,8.153-5.952,41.236,41.236,0,0,1,39.168,2,45.228,45.228,0,0,1,4.388,2.885c1.387,1.082,2.683,2.371,4.009,3.581a36.957,36.957,0,0,1,3.532,3.862c.587.709,1.2,1.338,1.729,2.1s1.057,1.546,1.607,2.3c.238.324.874.147.709-.3h0Z" transform="translate(-628.163 -335.109)" fill="#010d3d"/>
        <path id="Trazado_9232" data-name="Trazado 9232" d="M706.944,409.552c-2.133-2.561-5.934-2.872-8.9-1.76a9.129,9.129,0,0,0-4.3,3.276,12.9,12.9,0,0,0-2.145,4.981c-.782,3.691-.7,8.269,1.522,11.471a17.5,17.5,0,0,0,4.675,4.241,12.26,12.26,0,0,0,5.531,2.212,10.8,10.8,0,0,0,5.971-.874c1.583-.77,3.905-2.1,3.942-4.064a.83.83,0,0,0-1.039-.788c-1.4.208-2.359,1.436-3.71,1.84a11.18,11.18,0,0,1-3.862.617,8.532,8.532,0,0,1-3.93-1.277,20.554,20.554,0,0,1-3.813-2.866c-2.182-2.145-2.493-5.549-2.273-8.446a10.1,10.1,0,0,1,3.471-7.242,5.748,5.748,0,0,1,7.425.116c.947.911,2.237-.44,1.418-1.418h0Z" transform="translate(-619.974 -363.136)" fill="#010d3d"/>
        <path id="Trazado_9233" data-name="Trazado 9233" d="M820.044,427.525l-.012.012-.354.458s-.018.037-.031.055l-.024.043a5.532,5.532,0,0,0-.25.593,2.755,2.755,0,0,0-.153.9c.012.116.024.232.049.354a3.53,3.53,0,0,0,.049.354.263.263,0,0,0,.012.067l.031.153c.006.043.018.092.024.134a.884.884,0,0,0,.134.336,1.311,1.311,0,0,0,.324.556,1.234,1.234,0,0,0,.452.452,3.3,3.3,0,0,0,.275.214,2.8,2.8,0,0,0,1.925.257l.6-.251a2.436,2.436,0,0,0,.9-.9L824,431.3l.257-.605.092-.672-.092-.672-.037-.147c-.024-.092-.043-.189-.067-.281l-.25-.6-.391-.507-.037-.043s-.049-.061-.073-.086a1.17,1.17,0,0,0-.092-.086l-.043-.037c-.08-.061-.159-.128-.244-.189a.757.757,0,0,0-.251-.189l-.538-.226a1.728,1.728,0,0,0-.9-.043,1.1,1.1,0,0,0-.568.153,1.708,1.708,0,0,0-.727.464h0Z" transform="translate(-669.772 -370.793)" fill="#010d3d"/>
        <path id="Trazado_9234" data-name="Trazado 9234" d="M762.53,422.054a1.074,1.074,0,0,0-.538.226,2.214,2.214,0,0,0-.788.788c-.024.037-.043.073-.067.11a2.777,2.777,0,0,0-.306.77c-.055.269-.086.556-.116.837a2.185,2.185,0,0,0-.024.281,4.611,4.611,0,0,0,.128.9c.018.079.037.165.061.244s.061.177.092.269c.086.214.177.422.269.636a2.564,2.564,0,0,0,.9.9,4.462,4.462,0,0,0,.672.281,1.833,1.833,0,0,0,.978.043,1.767,1.767,0,0,0,.911-.293l.495-.385a2.424,2.424,0,0,0,.629-1.082l.012-.049a1.423,1.423,0,0,0,.049-.361,1.256,1.256,0,0,0,0-.672,1.226,1.226,0,0,0-.171-.636,1.214,1.214,0,0,0-.134-.318c-.012-.024-.031-.049-.043-.079a2.51,2.51,0,0,1-.141-.287l.251.593c-.03-.079-.061-.153-.092-.232-.092-.269-.2-.526-.318-.782l.244.581a3.143,3.143,0,0,1-.122-.336c-.012-.049-.031-.1-.043-.153a3.93,3.93,0,0,0-.281-.684l.226.538-.037-.092-.012-.031a1.655,1.655,0,0,0-.391-.746,1.124,1.124,0,0,0-.4-.4,1.658,1.658,0,0,0-.746-.391,2.119,2.119,0,0,0-1.155,0h0Z" transform="translate(-647.013 -368.884)" fill="#010d3d"/>
        <path id="Trazado_9235" data-name="Trazado 9235" d="M766.259,484.907c-1.864-.764-3.82-1.2-5.647-2.084a27.121,27.121,0,0,1-4.907-3.056,26.049,26.049,0,0,1-7.395-9.21,1.41,1.41,0,0,0-1.907-.5,1.424,1.424,0,0,0-.5,1.907,28.18,28.18,0,0,0,8.2,9.974,26.815,26.815,0,0,0,5.494,3.3,17.082,17.082,0,0,0,6.374,1.84c1.338.024,1.375-1.729.293-2.169h0Z" transform="translate(-641.196 -387.516)" fill="#010d3d"/>
        <path id="Trazado_9236" data-name="Trazado 9236" d="M744.443,522.663c-1.516,1.742-3.007,3.508-4.565,5.219s-3.172,3.239-4.712,4.9c-.758.813-1.54,1.607-2.255,2.463-.153.183-.324.379-.464.568-.4.556.159-.122.141,0a6.415,6.415,0,0,1-1.32-.208,15.016,15.016,0,0,1-2.86-.923c-.446-.2-.886-.422-1.314-.666-.226-.128-.44-.257-.666-.385-.391-.232-.128-.2-.079.043v.807a7.342,7.342,0,0,1,.953-1.986c.367-.685.746-1.369,1.131-2.047.819-1.43,1.723-2.817,2.652-4.18.88-1.289,1.8-2.548,2.781-3.771.483-.605.978-1.21,1.479-1.8a15.3,15.3,0,0,0,1.748-2.133,1.639,1.639,0,0,0-.422-2.115,1.676,1.676,0,0,0-2.151.128,10.2,10.2,0,0,0-1.6,1.888q-.843,1.082-1.662,2.194c-1,1.363-1.962,2.762-2.878,4.18s-1.742,2.8-2.573,4.223c-.416.709-.819,1.43-1.216,2.157a12.393,12.393,0,0,0-1.143,2.341c-.568,2,1.173,3.117,2.689,3.93a18.607,18.607,0,0,0,4.663,1.778,6.444,6.444,0,0,0,2.787.257,4.32,4.32,0,0,0,2.2-1.4,39.134,39.134,0,0,0,3.5-4.339c2.292-3.257,4.62-6.515,6.741-9.888.6-.96-.825-2.108-1.589-1.228h0Z" transform="translate(-632.489 -405.495)" fill="#010d3d"/>
        <path id="Trazado_9237" data-name="Trazado 9237" d="M808.959,427.182a32.947,32.947,0,0,0,.263-3.96c.006-.691,0-1.387,0-2.078,0-.348-.006-.691,0-1.039a3.957,3.957,0,0,0,.018-1.039c.055-.22.018-.257-.1-.092l.141-.012a4.431,4.431,0,0,1,1.021.086c.7.073,1.393.153,2.09.232q2.017.229,4.028.507c5.482.77,10.958,1.754,16.372,2.927l-.911-1.192c.636,5.03.99,10.738-1.369,15.4a9.447,9.447,0,0,1-4.486,4.467,7.071,7.071,0,0,1-2.8.666,5.392,5.392,0,0,1-1.29-.116,2.615,2.615,0,0,0-1.888.043c-.464.2-.941.691-.715,1.259a2.077,2.077,0,0,0,1.021,1.314,5.35,5.35,0,0,0,1.607.367,9,9,0,0,0,3.025-.153,11.092,11.092,0,0,0,5.207-2.811c3.264-3.062,4.223-7.688,4.419-11.984a54.114,54.114,0,0,0-.257-8.446,1.279,1.279,0,0,0-.911-1.192,183.822,183.822,0,0,0-18.524-2.909q-2.31-.247-4.626-.44c-1.2-.1-2.652-.073-2.946,1.387a6.8,6.8,0,0,0,.1,1.895c.067.794.116,1.583.183,2.377a34.589,34.589,0,0,0,.636,4.553c.073.324.642.354.691,0h0Z" transform="translate(-665.141 -366.936)" fill="#00b2e3"/>
        <path id="Trazado_9238" data-name="Trazado 9238" d="M766.231,413.722c.116,2.481.385,4.926.312,7.413a53.666,53.666,0,0,1-.691,7.224c-.348,2.133-.532,4.278-1.687,6.166a7.514,7.514,0,0,1-3.581,3,10.331,10.331,0,0,1-9.32-.868,16.256,16.256,0,0,1-6.472-9c-1.632-5.134-1.406-10.652-1.234-15.963l-1.412,1.412c.513-.061.978-.226,1.479-.3a11.026,11.026,0,0,1,1.479-.067c.984-.018,1.974.037,2.958.092,1.956.11,3.9.324,5.836.623,3.936.617,7.816,1.516,11.691,2.438,1.809.428,2.579-2.371.77-2.787-4-.9-8.018-1.821-12.088-2.365-1.962-.263-3.93-.458-5.91-.526-1.039-.037-2.072,0-3.111.037-.495.018-.99.037-1.479.067-.55.031-1.082-.092-1.632-.043a1.449,1.449,0,0,0-1.412,1.412c-.244,5.329-.458,10.774,1,15.969a20.179,20.179,0,0,0,7.126,10.872,13.281,13.281,0,0,0,11.624,2.09,11.05,11.05,0,0,0,4.92-2.964,11.7,11.7,0,0,0,2.787-6.258,22.677,22.677,0,0,0,.257-4.119c-.043-1.558.012-3.117-.024-4.675-.073-2.982-.012-6.2-1.082-9.033-.208-.556-1.137-.532-1.106.147h0Z" transform="translate(-639.182 -364.311)" fill="#00b2e3"/>
        <path id="Trazado_9239" data-name="Trazado 9239" d="M793.44,418.98a35.837,35.837,0,0,0,4.675,14.515,71.791,71.791,0,0,0,4.137,6.221c.409.556.837,1.1,1.259,1.644-.165-.214.086.11.092.122.073.1.147.2.226.3.22.3.44.593.654.9a21.2,21.2,0,0,1,1.681,2.97c.067.147.141.293.2.44-.043-.1-.147-.4.018.073.079.232.165.458.232.691.092.3.165.6.226.9.024.11.037.22.061.33.086.385-.037-.593.006.092a11.861,11.861,0,0,1,.018,1.546c-.012.22-.043.44-.061.66.043-.519.024-.141,0-.024-.037.183-.067.361-.11.544a12,12,0,0,1-.4,1.387c-.049.141-.1.275-.159.416.1-.263.232-.733-.171.409-.1.275-.177.556-.275.831-.006.018-.141.354-.043.122.1-.257-.079.171-.1.226a5.67,5.67,0,0,1-.379.678,5.376,5.376,0,0,1-.813,1.057,10.134,10.134,0,0,1-5.286,3.392,12.667,12.667,0,0,1-6.686-.434,14.837,14.837,0,0,1-6.038-3.972,17.223,17.223,0,0,1-2.163-2.848c-.342-.556-.623-1.155-.972-1.705a4.862,4.862,0,0,0-1.344-1.369.76.76,0,0,0-1.112.452,4.947,4.947,0,0,0,.88,3.575,21.13,21.13,0,0,0,2.139,3.007,18.346,18.346,0,0,0,5.61,4.492,16.52,16.52,0,0,0,7.548,1.8,17.907,17.907,0,0,0,3.74-.385,18.362,18.362,0,0,0,3.887-1.161,14.874,14.874,0,0,0,5.616-5.048,11.534,11.534,0,0,0,1.815-7.431,13.8,13.8,0,0,0-1.118-4.412,14.873,14.873,0,0,0-.807-1.626,7.808,7.808,0,0,0-.721-1.014c-.1-.122-.214-.238-.312-.367.2.251-.073-.116-.134-.2-1.632-2.163-3.526-4.07-5.317-6.093a43.578,43.578,0,0,1-4.975-7.45c-.746-1.32-1.375-2.738-2.017-4.107s-1.3-2.842-1.846-4.333c-.245-.666-1.436-.642-1.345.183h0Z" transform="translate(-654.81 -367.467)" fill="#010d3d"/>
        <path id="Trazado_9240" data-name="Trazado 9240" d="M799.823,423.717a6.882,6.882,0,0,0-1.791-1.265c-.666-.4-1.338-.788-2-1.186a14.581,14.581,0,0,0-3.905-1.913,7.575,7.575,0,0,0-4.3.409,12.332,12.332,0,0,0-4.095,2.31c-.978.935.03,2.94,1.393,2.4,1.234-.489,2.267-1.338,3.483-1.882a7.255,7.255,0,0,1,3.539-.593,11.058,11.058,0,0,1,3.618,1.057,12.873,12.873,0,0,0,3.758,1.393c.4.031.526-.477.306-.733h0Z" transform="translate(-655.821 -367.809)" fill="#00b2e3"/>
        <path id="Trazado_9241" data-name="Trazado 9241" d="M731.942,414.841c-2.591-1.039-5.549-1.192-8.311-1.485s-5.671-.605-8.489-1.033c-1-.153-1.442,1.381-.422,1.54,2.86.446,5.739.77,8.611,1.094s5.794.819,8.611.361c.269-.043.2-.4,0-.477h0Z" transform="translate(-628.911 -365.131)" fill="#00b2e3"/>
        <path id="Trazado_9242" data-name="Trazado 9242" d="M786.5,367.286a45.625,45.625,0,0,1-8.006-6.3,52.331,52.331,0,0,1-6.533-7.737c-.41-.605-1.546-.819-1.9,0a32.242,32.242,0,0,1-13.414,15.242l1.723.99a39.236,39.236,0,0,1,1.785-15.871,1.25,1.25,0,0,0-2.273-.96c-3.013,5.641-6.289,11.123-9.778,16.482-1.723,2.646-3.441,5.341-5.347,7.865-.391.519-1.271,1.656-1.925.892-.7-.807-.623-2.316-.672-3.294a34.574,34.574,0,0,1,1.167-10.53c.434-1.62-1.827-2.127-2.438-.672-2.182,5.231-4.51,10.389-6.875,15.535a12.082,12.082,0,0,1-1.565,2.982c-.581.672-1,.477-1.43-.232a17.12,17.12,0,0,1-1.375-3.337,13.69,13.69,0,0,1-.929-4.033h-1.607c.067,1.84-.086,3.679-.165,5.519s-.238,3.679-.464,5.506a73.921,73.921,0,0,1-2.194,10.8l1.424-.807c-3.441-1.43-5.671-4.791-6.521-8.33-.3-1.247-2.451-1.014-2.292.312a11.655,11.655,0,0,0,2.726,6.289,14.269,14.269,0,0,0,5.47,3.96,1.169,1.169,0,0,0,1.424-.807,65.044,65.044,0,0,0,2.127-11.129c.183-1.827.3-3.667.336-5.506.043-1.95-.153-3.868-.269-5.812-.061-1.027-1.662-1.039-1.607,0a21.125,21.125,0,0,0,1.125,7.12c.746,1.833,2.133,4.1,4.492,3.27,2.1-.739,2.952-3.318,3.82-5.14,1.137-2.383,2.206-4.791,3.263-7.211q1.806-4.116,3.508-8.281l-2.438-.672a37.218,37.218,0,0,0-1.192,10.768c.1,2.414.471,6.747,3.917,6.386,1.5-.159,2.518-1.357,3.349-2.506,1.076-1.491,2.1-3.019,3.129-4.547q3-4.464,5.794-9.045,3.172-5.207,6.142-10.536l-2.273-.959a36.064,36.064,0,0,0-1.638,16.837,1.156,1.156,0,0,0,1.687.684,35.577,35.577,0,0,0,14.154-16.116h-1.9a41.328,41.328,0,0,0,15.822,13.989.615.615,0,0,0,.617-1.063h0Z" transform="translate(-629.201 -341.697)" fill="#010d3d"/>
        <path id="Trazado_9243" data-name="Trazado 9243" d="M739.353,608.143a.021.021,0,0,1,.006.012,2.033,2.033,0,0,1,.086-.3c.935-2.677,1.118-5.824,1.748-8.684v.031c2.842-14.142,5.855-28.265,8.642-42.419,1.076-4.058,1.375-9.173,4.559-12.174,1.143-.7,2.775-.917,3.661-.043,1.534,1.509,6.753,6.185,7.236,10.78,2.891,16.22,5.537,33.154,13.262,47.858A54.218,54.218,0,0,0,817.3,632.821c3.221,1.027,7.841.892,9.143,4.419-.452,7.963-2.616,15.767-4.095,23.578-.9,2.506.629,6.68-2.328,7.884-11.575,2.995-29.445-9.479-39.981-14.71-15.162-8.929-38.227-26.75-41.606-44.625.1-.672.917-.55.923-1.216Z" transform="translate(-638.357 -416.337)" fill="#010d3d"/>
        <path id="Trazado_9244" data-name="Trazado 9244" d="M732.945,551.426c.77,2.371,1.772,4.651,2.689,6.967q.687,1.723,1.283,3.477a32.255,32.255,0,0,0,1.344,3.679,1.253,1.253,0,0,0,1.705.446c.519-.367,1.014-.691,1.479-1.088.819-.7-.055-2.322-1.094-1.882a17.85,17.85,0,0,0-1.638.825l1.827.746a17.457,17.457,0,0,0-1.125-3.673c-.458-1.2-.96-2.432-1.485-3.63a28.515,28.515,0,0,0-3.826-6.539c-.44-.544-1.363.043-1.155.672h0Z" transform="translate(-636.214 -418.881)" fill="#010d3d"/>
        <path id="Trazado_9245" data-name="Trazado 9245" d="M719.206,548.946c-.611.122-.96.752-1.357,1.2-.464.519-.947,1.021-1.418,1.528-.984,1.051-2,2.072-3.031,3.074s-2.047,1.9-3.129,2.787c-.538.44-1.082.862-1.644,1.265a5.409,5.409,0,0,1-1.717,1.1h.623c-.226-.043-.458-.373-.642-.556-.312-.318-.623-.629-.953-.935a5.7,5.7,0,0,0-1.943-1.344.815.815,0,0,0-1,1,7.644,7.644,0,0,0,2.029,2.726c.678.7,1.412,1.6,2.506,1.375a7.02,7.02,0,0,0,2.555-1.681c.782-.623,1.565-1.259,2.316-1.919a39.425,39.425,0,0,0,4.241-4.272c.636-.764,1.259-1.54,1.827-2.353.458-.654,1.461-1.668,1.369-2.5a.512.512,0,0,0-.636-.483h0Z" transform="translate(-624.566 -418.26)" fill="#010d3d"/>
        <path id="Trazado_9246" data-name="Trazado 9246" d="M750.186,649.057c.037-.752.128-1.5.19-2.249.122-1.393.269-2.781.458-4.168q.55-4.089,1.149-8.165c.813-5.488,1.668-10.976,2.744-16.421.306-1.534.611-3.062.929-4.59.33-1.6.88-3.092,1.326-4.651.024-.086.171-.073.159.024-.153,1.314-.165,2.628-.361,3.936-.208,1.387-.477,2.768-.7,4.15q-.688,4.153-1.387,8.3-1.384,8.214-2.518,16.458c-.214,1.546-.416,3.092-.678,4.632-.122.739-.244,1.479-.367,2.224-.141.856-.428,1.638-.629,2.481a.122.122,0,0,1-.238-.031c0-.642-.1-1.283-.073-1.925Z" transform="translate(-642.926 -441.52)" fill="#fff"/>
      </g>
    </g>
  </g>
</svg>
