<svg xmlns="http://www.w3.org/2000/svg" width="507.896" height="407.186" viewBox="0 0 507.896 407.186">
  <g id="IICE_LandingCompliancePenal_Nivel1_6" transform="translate(-588.089 -241.987)">
    <g id="Grupo_4704" data-name="Grupo 4704" transform="translate(588.089 241.987)">
      <g id="Grupo_4702" data-name="Grupo 4702">
        <path id="Trazado_7459" data-name="Trazado 7459" d="M824.309,250.1c-73.168-6.581-119.853-8.039-192.023,0-5.925.657-41.588,6.13-41.527,10.6,1.115,77.115,5.966,155.045,6.711,229.315-.219,3.667,2.812,5.959,7.874,5.6,74.352,1.047,147.246-14.928,221.611-14.907,3.92-24.93,2.8-182.1-2.648-230.608" transform="translate(-588.933 -242.814)" fill="#fff"/>
        <path id="Trazado_7460" data-name="Trazado 7460" d="M823.466,247.517c-23.808-2.2-47.657-4.071-71.553-4.974-21.7-.821-43.422-.753-65.109.335q-17.681.883-35.322,2.545c-8.572.794-17.172,1.546-25.689,2.819-6.629.992-13.238,2.155-19.792,3.578-3.236.7-6.465,1.471-9.626,2.442a23.2,23.2,0,0,0-6.3,2.634,4.3,4.3,0,0,0-1.847,2.2,8.353,8.353,0,0,0-.089,2.477c.027,1.7.055,3.386.082,5.083q.174,9.934.417,19.867.472,19.641,1.156,39.269c.883,26.141,1.943,52.275,2.873,78.415.917,25.676,1.71,51.358,2.066,77.047.041,2.9-.1,5.863.1,8.757a6.6,6.6,0,0,0,2.846,5.042,10.617,10.617,0,0,0,6.445,1.553c3.161-.082,6.328.034,9.5.021,12.985-.048,25.97-.582,38.927-1.416,25.812-1.669,51.529-4.543,77.252-7.211s51.529-5.145,77.4-6q9.462-.318,18.923-.322a1.81,1.81,0,0,0,1.738-1.327c1.45-9.3,1.512-18.9,1.786-28.282.465-15.824.6-31.655.609-47.479q.031-28.128-.486-56.256c-.321-17.986-.787-35.979-1.539-53.951-.575-13.826-1.225-27.673-2.572-41.452-.116-1.225-.246-2.442-.383-3.667a1.864,1.864,0,0,0-1.806-1.806,1.818,1.818,0,0,0-1.806,1.806c1.457,12.992,2.1,26.086,2.7,39.146.807,17.644,1.307,35.308,1.662,52.972q.575,28.149.616,56.3c.027,16.4-.068,32.8-.465,49.2-.253,10.276-.383,20.661-1.58,30.882-.041.342-.082.684-.13,1.026.089-.684-.055.383-.089.6l1.738-1.327c-25.593,0-51.139,1.888-76.6,4.337-25.429,2.442-50.811,5.439-76.267,7.621-12.684,1.088-25.4,1.977-38.12,2.5q-9.554.39-19.122.479-4.792.041-9.585-.007c-2.134-.021-4.7.39-6.6-.841-1.6-1.033-1.382-2.675-1.4-4.365q-.051-4.669-.123-9.345-.144-9.4-.356-18.8-.431-18.985-1.074-37.969c-.841-25.669-1.875-51.324-2.812-76.992-.937-25.84-1.779-51.686-2.223-77.547q-.041-2.422-.082-4.844c-.014-.8.041-1.628-.034-2.422.021.178-.021.205-.144.486.089-.205.342-.376-.034,0a2.238,2.238,0,0,1,.315-.308c.233-.164-.116.082-.13.1.089-.062.171-.13.267-.185.171-.1.335-.212.513-.315a12.846,12.846,0,0,1,2.668-1.17c1.3-.465,2.62-.869,3.947-1.245a198.546,198.546,0,0,1,20.182-4.3q4.31-.739,8.641-1.382c.513-.075,1.026-.151,1.539-.219l.363-.048c.226-.027.452-.062.67-.089,2.052-.26,4.112-.465,6.171-.684,11.924-1.272,23.876-2.353,35.842-3.174q32.407-2.217,64.911-1.6c21.653.431,45.078,1.929,67.565,3.756q9.236.749,18.458,1.546c2.258.2,2.237-3.311,0-3.523h0Z" transform="translate(-588.089 -241.987)" fill="#010d3d"/>
      </g>
      <path id="Trazado_7461" data-name="Trazado 7461" d="M861.046,299.008c-2.49-2.066-6.417-.568-7.683,1.786-3.927,3.578.137,10.419,5.1,9.687,6.663-.814,8.346-7.861,2.579-11.48Z" transform="translate(-671.383 -269.689)" fill="#f9d0dd"/>
      <path id="Trazado_7462" data-name="Trazado 7462" d="M633.123,311.3c-.534,5.74-.629,11.493-.7,17.254s-.082,11.261-.055,16.884c.055,11.384.28,22.754.52,34.138.137,6.486.308,12.964.472,19.45a.98.98,0,0,0,.971.971c23.863-2.429,47.718-4.768,71.642-6.486s47.6-3,71.43-3.838c13.347-.472,26.777-1.149,40.1.123,1.293.123,1.279-1.888,0-2.018-11.993-1.17-24.068-.766-36.088-.363q-17.876.6-35.732,1.526-35.732,1.857-71.376,5.069c-13.341,1.2-26.681,2.463-39.981,4.043l.971.971c-.944-22.741-.93-45.515-.787-68.27.041-6.486.15-12.978-.205-19.457a.592.592,0,0,0-1.184,0h0Z" transform="translate(-602.069 -273.7)" fill="#010d3d"/>
      <path id="Trazado_7463" data-name="Trazado 7463" d="M641.98,339.033q90.1-7.655,180.331-12.513" transform="translate(-605.111 -268.688)" fill="none" stroke="#64d8cc" stroke-width="1.11" stroke-dasharray="0 6.63"/>
      <path id="Trazado_7464" data-name="Trazado 7464" d="M638.8,405.926a186.852,186.852,0,0,1,18.7-30.088l-1.279-.164c1.984,4.406,4.009,8.791,6.034,13.176a.97.97,0,0,0,1.662,0c4.823-7.662,9.523-15.407,14.271-23.124h-1.594q3.869,6.106,7.7,12.239a.94.94,0,0,0,1.7-.219,74.3,74.3,0,0,1,16.6-26.681l-1.491-.192c2.648,5.747,5.288,11.507,8,17.22a.967.967,0,0,0,1.656,0c2.682-4.365,5.3-8.743,8.162-13s5.74-8.483,8.476-12.814l-1.19.151c6.479,7.662,13.382,14.948,19.744,22.706.807.985,2.23-.431,1.4-1.4-6.492-7.635-13.546-14.77-20.073-22.378a.767.767,0,0,0-1.19.151c-2.7,4.358-5.432,8.668-8.333,12.9s-5.9,8.394-8.647,12.711h1.656c-2.62-5.76-5.323-11.487-8.011-17.213a.957.957,0,0,0-1.491-.192,77.411,77.411,0,0,0-17.042,27.53l1.7-.219q-3.869-6.106-7.717-12.225a.935.935,0,0,0-1.594,0c-4.789,7.69-9.626,15.345-14.339,23.083h1.662c-2.087-4.351-4.166-8.7-6.287-13.033a.82.82,0,0,0-1.4,0,163.094,163.094,0,0,0-18.15,30.642c-.212.493.479.924.732.431h0Z" transform="translate(-603.867 -283.304)" fill="#ef8aab"/>
      <path id="Trazado_7465" data-name="Trazado 7465" d="M796.484,354.236c2.046-4.03,3.859-8.189,5.843-12.253.971-1.984,2-3.941,3.017-5.9s2.08-4.173,3.311-6.116h-1.437c1.868,2.613,3.9,5.1,5.8,7.7s3.735,5.247,5.494,7.95a1.175,1.175,0,0,0,2,0c3.489-6.1,6.889-12.246,10.324-18.376s6.746-12.335,10.317-18.376c.759-1.293-1.3-2.49-2-1.17-3.3,6.191-6.875,12.26-10.324,18.376s-6.923,12.225-10.31,18.383h2q-2.75-4.084-5.726-8a75.548,75.548,0,0,0-6.26-7.484.836.836,0,0,0-1.307.171c-.93,2.121-2.087,4.16-3.106,6.239s-1.957,4.091-2.935,6.137c-1.943,4.064-3.906,8.182-5.453,12.417-.164.438.547.739.759.322h0Z" transform="translate(-653.671 -272.561)" fill="#ef8aab"/>
      <path id="Trazado_7466" data-name="Trazado 7466" d="M641.22,466.209a41.559,41.559,0,0,0-.383,7.827c-.014,2.579,0,5.316.007,7.977a1.088,1.088,0,0,0,1.081,1.081L657,482.416a1.109,1.109,0,0,0,1.047-.794,54.786,54.786,0,0,0,.027-16.583,1.066,1.066,0,0,0-.759-.759,29.524,29.524,0,0,0-14.408.424,1.09,1.09,0,0,0,.581,2.1,27.163,27.163,0,0,1,13.252-.424l-.759-.759a51.376,51.376,0,0,1-.021,15.427l1.047-.794-15.071.684,1.081,1.081c0-2.661,0-5.316-.027-7.977a41.741,41.741,0,0,0-.417-7.826.7.7,0,0,0-1.341,0h0Z" transform="translate(-604.748 -311.983)" fill="#010d3d"/>
      <path id="Trazado_7467" data-name="Trazado 7467" d="M682.226,464.675a36.383,36.383,0,0,0,4.214-.376c1.457-.157,2.921-.308,4.378-.479q4.207-.5,8.415-.992a74.957,74.957,0,0,1,8.593-.787c2.853.007,5.624-.2,8.442-.246,1.628-.027,3.263-.021,4.892.041.787.027,1.573.068,2.36.116a8.347,8.347,0,0,0,2.442,0,.958.958,0,0,0,.226-1.738,12.108,12.108,0,0,0-4.187-.52c-1.361-.062-2.812-.082-4.221-.075a61.777,61.777,0,0,0-8.709.472c-5.733.841-11.507,1.43-17.254,2.169-1.574.205-3.154.417-4.727.643a44.044,44.044,0,0,0-5.008.78.511.511,0,0,0,.137,1h0Z" transform="translate(-617.664 -310.729)" fill="#010d3d"/>
      <path id="Trazado_7468" data-name="Trazado 7468" d="M755.629,460.474c11.227-.554,22.494-.513,33.728-.3,1.272.027,1.259-1.909,0-1.97a225.732,225.732,0,0,0-33.728,1.136c-.711.075-.739,1.17,0,1.136Z" transform="translate(-640.837 -310.216)" fill="#010d3d"/>
      <path id="Trazado_7469" data-name="Trazado 7469" d="M683.572,474.984c1.478.041,2.955-.1,4.44-.055,1.382.034,2.764.137,4.146.212s2.723.082,4.077.027a18.155,18.155,0,0,0,4.16-.5c.917-.267.787-1.827-.233-1.731-1.416.13-2.8.383-4.221.458s-2.723.075-4.084.116-2.771.109-4.153.205a18.573,18.573,0,0,0-4.214.6.34.34,0,0,0,.089.664h0Z" transform="translate(-618.148 -314.935)" fill="#010d3d"/>
      <path id="Trazado_7470" data-name="Trazado 7470" d="M717.118,471.5c3,.308,6.157-.356,9.14-.7s6.1-.629,9.14-.951,6.007-.7,9.017-.992a26.914,26.914,0,0,1,8.777.294c1.115.26,1.594-1.478.472-1.717a28.124,28.124,0,0,0-8.928-.26c-2.983.308-6.027.746-9.031,1.149s-6.294.9-9.448,1.3c-1.519.192-3.031.383-4.549.588a22.944,22.944,0,0,0-4.638.93.182.182,0,0,0,.048.356h0Z" transform="translate(-628.789 -313.043)" fill="#010d3d"/>
      <path id="Trazado_7471" data-name="Trazado 7471" d="M782.851,466.181c.055.062.376.26.137.041.151.137.164.3.376.417a4.73,4.73,0,0,0,1.779.308,56.523,56.523,0,0,0,5.9,0c5.015-.109,10.029-.267,15.051-.233a.873.873,0,0,0,0-1.745c-4.8.068-9.585.335-14.38.493-1.95.062-3.893.1-5.842.137-.629.014-1.259.027-1.888.055a1.776,1.776,0,0,0-.732.123c-.3.151-.041.123-.082.1a.223.223,0,0,0-.315.315h0Z" transform="translate(-649.588 -312.42)" fill="#010d3d"/>
      <path id="Trazado_7472" data-name="Trazado 7472" d="M684.107,485.236c.588.657,2.018.513,2.812.54,1.177.048,2.36.048,3.537.021,2.374-.055,4.748-.2,7.122-.383,5.446-.431,10.891-.937,16.344-1.252,1.142-.068,1.149-1.861,0-1.792-5.459.342-10.9.9-16.344,1.368-2.374.205-4.741.41-7.122.561-1.136.075-2.271.137-3.407.2-.828.041-2.306-.144-2.942.5a.171.171,0,0,0,0,.24h0Z" transform="translate(-618.403 -317.915)" fill="#010d3d"/>
      <path id="Trazado_7473" data-name="Trazado 7473" d="M740.481,480.087a7.791,7.791,0,0,1-2.873-.089c-.746-.226-.985,1.006-.15,1.095a62.6,62.6,0,0,0,10.248-.28l10.248-.643c1.259-.082,1.266-2.052,0-1.97l-10.419.718A62.267,62.267,0,0,0,737.307,480l.431,1.019a7.8,7.8,0,0,1,2.764-.759c.1-.014.075-.185-.021-.171h0Z" transform="translate(-635.103 -316.598)" fill="#010d3d"/>
      <path id="Trazado_7474" data-name="Trazado 7474" d="M641.65,514.159a41.554,41.554,0,0,0-.383,7.826c-.014,2.579,0,5.316.007,7.977a1.088,1.088,0,0,0,1.081,1.081l15.072-.677a1.108,1.108,0,0,0,1.047-.794,54.786,54.786,0,0,0,.027-16.583,1.066,1.066,0,0,0-.759-.759,29.524,29.524,0,0,0-14.408.424,1.09,1.09,0,0,0,.581,2.1,27.163,27.163,0,0,1,13.252-.424l-.759-.759A51.376,51.376,0,0,1,656.386,529l1.047-.794-15.071.684,1.081,1.081c0-2.661,0-5.316-.027-7.977a41.742,41.742,0,0,0-.417-7.826.7.7,0,0,0-1.341,0h0Z" transform="translate(-604.884 -327.129)" fill="#010d3d"/>
      <path id="Trazado_7475" data-name="Trazado 7475" d="M682.666,513.171a30.979,30.979,0,0,0,3.975-.281c2.114-.178,4.235-.363,6.349-.54,2.531-.205,5.056-.41,7.594-.554,1.341-.075,2.654.034,3.988.007s2.723-.116,4.084-.171,2.846-.1,4.262-.109c.67-.007,1.334-.014,2-.007a5.272,5.272,0,0,0,2.046-.15c.636-.26,1.06-1.355.226-1.738a8.592,8.592,0,0,0-3.6-.28c-1.286.014-2.572.048-3.852.089s-2.62.1-3.927.178c-1.389.089-2.737.376-4.119.5-4.823.431-9.66.766-14.476,1.355a28.535,28.535,0,0,0-4.7.7.511.511,0,0,0,.137,1h0Z" transform="translate(-617.803 -326.421)" fill="#010d3d"/>
      <path id="Trazado_7476" data-name="Trazado 7476" d="M742.118,509.753c6.7-.4,13.416-.746,20.127-1.088,8-.41,16.009-.876,24.02-1.136,1.84-.062,3.688-.109,5.528-.123.773-.007,1.539-.007,2.312,0,.342,0,.691.034,1.033.014a1.849,1.849,0,0,0,1.095-.52.644.644,0,0,0,0-.9c-.965-.883-2.634-.588-3.872-.588-1.58,0-3.161.027-4.741.062q-5.654.133-11.3.458c-8.039.452-16.077,1.054-24.1,1.724-3.373.28-6.732.657-10.1.971-.718.068-.739,1.177,0,1.136h0Z" transform="translate(-636.569 -325.178)" fill="#010d3d"/>
      <path id="Trazado_7477" data-name="Trazado 7477" d="M684.012,522.934c1.478.041,2.955-.1,4.44-.055,1.382.034,2.764.137,4.146.212s2.723.082,4.078.027a18.159,18.159,0,0,0,4.16-.5c.917-.267.787-1.827-.233-1.731-1.416.13-2.8.383-4.221.458s-2.723.075-4.084.116-2.771.109-4.153.205a18.579,18.579,0,0,0-4.214.6.34.34,0,0,0,.089.664h0Z" transform="translate(-618.287 -330.081)" fill="#010d3d"/>
      <path id="Trazado_7478" data-name="Trazado 7478" d="M717.551,518.814c2.8.021,5.583-.239,8.381-.479,4.365-.376,8.73-.773,13.094-1.108q14.172-1.1,28.371-2.046c3.181-.205,6.369-.451,9.557-.493a.89.89,0,0,0,0-1.779c-7.088.151-14.2.917-21.263,1.512-9.516.8-19.019,1.738-28.515,2.675a66.426,66.426,0,0,0-9.667,1.361.182.182,0,0,0,.048.356h0Z" transform="translate(-628.928 -327.562)" fill="#010d3d"/>
      <path id="Trazado_7479" data-name="Trazado 7479" d="M684.572,532.685a6.23,6.23,0,0,0,2.887.445c1.307.014,2.62,0,3.927-.027,3.27-.068,6.533-.246,9.8-.438,7.272-.424,14.531-1.026,21.8-1.56,3.229-.239,6.451-.472,9.68-.664,1.143-.068,1.149-1.861,0-1.792-13.4.821-26.784,2.039-40.172,2.99-1.526.109-3.051.212-4.584.287a9.063,9.063,0,0,0-3.332.465.167.167,0,0,0,0,.287h0Z" transform="translate(-618.539 -332.534)" fill="#010d3d"/>
      <path id="Trazado_7480" data-name="Trazado 7480" d="M770.421,527.047a7.789,7.789,0,0,1-2.873-.089c-.746-.226-.985,1.006-.151,1.095a62.6,62.6,0,0,0,10.248-.28l10.248-.643c1.259-.082,1.266-2.052,0-1.97l-10.419.718a62.255,62.255,0,0,0-10.228,1.081l.431,1.019a7.8,7.8,0,0,1,2.764-.759c.1-.014.075-.185-.021-.171h0Z" transform="translate(-644.56 -331.431)" fill="#010d3d"/>
      <path id="Trazado_7481" data-name="Trazado 7481" d="M643.07,559.229a41.559,41.559,0,0,0-.383,7.827c-.014,2.579,0,5.316.007,7.977a1.088,1.088,0,0,0,1.081,1.081l15.071-.677a1.109,1.109,0,0,0,1.047-.794,54.784,54.784,0,0,0,.027-16.583,1.066,1.066,0,0,0-.759-.759,29.523,29.523,0,0,0-14.408.424,1.09,1.09,0,0,0,.581,2.1,27.163,27.163,0,0,1,13.252-.424l-.759-.759a51.375,51.375,0,0,1-.021,15.427l1.047-.794-15.071.684,1.081,1.081c0-2.661,0-5.316-.027-7.977a41.742,41.742,0,0,0-.417-7.826.7.7,0,0,0-1.341,0h0Z" transform="translate(-605.332 -341.365)" fill="#010d3d"/>
      <path id="Trazado_7482" data-name="Trazado 7482" d="M684.086,557.7a36.372,36.372,0,0,0,4.214-.376c1.457-.157,2.921-.308,4.378-.479q4.207-.5,8.415-.992a74.956,74.956,0,0,1,8.593-.787c2.853.007,5.624-.2,8.442-.246,1.628-.027,3.263-.021,4.892.041.787.027,1.574.068,2.36.116a8.347,8.347,0,0,0,2.442,0,.958.958,0,0,0,.226-1.738,12.109,12.109,0,0,0-4.187-.52c-1.361-.062-2.812-.082-4.221-.075a61.766,61.766,0,0,0-8.709.472c-5.733.841-11.507,1.43-17.254,2.169-1.573.205-3.154.417-4.727.643a44.055,44.055,0,0,0-5.008.78.511.511,0,0,0,.137,1h0Z" transform="translate(-618.251 -340.111)" fill="#010d3d"/>
      <path id="Trazado_7483" data-name="Trazado 7483" d="M757.479,553.484c11.227-.554,22.494-.513,33.728-.3,1.272.027,1.259-1.909,0-1.97a225.72,225.72,0,0,0-33.728,1.136c-.711.075-.739,1.17,0,1.136Z" transform="translate(-641.422 -339.595)" fill="#010d3d"/>
      <path id="Trazado_7484" data-name="Trazado 7484" d="M685.432,568c1.478.041,2.955-.1,4.44-.055,1.382.034,2.764.137,4.146.212s2.723.082,4.078.027a18.152,18.152,0,0,0,4.16-.5c.917-.267.787-1.827-.233-1.731-1.416.13-2.8.383-4.221.458s-2.723.075-4.084.116-2.771.109-4.153.205a18.576,18.576,0,0,0-4.214.6.34.34,0,0,0,.089.664h0Z" transform="translate(-618.735 -344.317)" fill="#010d3d"/>
      <path id="Trazado_7485" data-name="Trazado 7485" d="M718.968,564.517c3,.308,6.157-.356,9.14-.7s6.1-.629,9.14-.951,6.007-.7,9.017-.992a26.914,26.914,0,0,1,8.777.294c1.115.26,1.594-1.478.472-1.717a28.125,28.125,0,0,0-8.928-.26c-2.983.308-6.027.746-9.031,1.149s-6.294.9-9.448,1.3c-1.519.192-3.031.383-4.549.588a22.945,22.945,0,0,0-4.638.93.182.182,0,0,0,.048.356h0Z" transform="translate(-629.373 -342.425)" fill="#010d3d"/>
      <path id="Trazado_7486" data-name="Trazado 7486" d="M784.7,559.191c.055.062.376.26.137.041.151.137.164.3.376.417a4.729,4.729,0,0,0,1.779.308,56.515,56.515,0,0,0,5.9,0c5.015-.109,10.029-.267,15.051-.233a.873.873,0,0,0,0-1.745c-4.8.068-9.585.335-14.38.493-1.95.062-3.893.1-5.842.137-.629.014-1.259.027-1.888.055a1.775,1.775,0,0,0-.732.123c-.3.15-.041.123-.082.1a.223.223,0,0,0-.315.315h0Z" transform="translate(-650.172 -341.799)" fill="#010d3d"/>
      <path id="Trazado_7487" data-name="Trazado 7487" d="M685.957,578.256c.588.657,2.018.513,2.812.541,1.177.048,2.36.048,3.537.021,2.374-.055,4.748-.2,7.122-.383,5.446-.431,10.891-.937,16.344-1.252,1.142-.068,1.149-1.861,0-1.792-5.459.342-10.9.9-16.344,1.368-2.374.205-4.741.41-7.122.561-1.136.075-2.271.137-3.407.2-.828.041-2.306-.144-2.942.5a.171.171,0,0,0,0,.239Z" transform="translate(-618.987 -347.297)" fill="#010d3d"/>
      <path id="Trazado_7488" data-name="Trazado 7488" d="M742.331,573.107a7.791,7.791,0,0,1-2.873-.089c-.746-.226-.985,1.006-.151,1.095a62.6,62.6,0,0,0,10.248-.28l10.248-.643c1.259-.082,1.266-2.052,0-1.97l-10.419.718a62.273,62.273,0,0,0-10.228,1.081l.431,1.019a7.8,7.8,0,0,1,2.764-.759c.1-.014.075-.185-.021-.171h0Z" transform="translate(-635.688 -345.98)" fill="#010d3d"/>
      <path id="Trazado_7489" data-name="Trazado 7489" d="M648.485,468.755c-.369,1.04.2,2.422.581,3.414l1.136,2.969a2.16,2.16,0,0,0,3.564.937c3.982-3.982,7.874-8.059,11.794-12.1a2.221,2.221,0,0,0,0-3.085,2.195,2.195,0,0,0-3.085,0c-3.92,4.05-7.874,8.059-11.726,12.171l3.345.431-1.286-2.908c-.424-.965-.971-2.312-1.963-2.791a1.637,1.637,0,0,0-2.367.965h0Z" transform="translate(-607.128 -310.93)" fill="#64d8cc"/>
      <path id="Trazado_7490" data-name="Trazado 7490" d="M650.4,517.332l-.062.027a.925.925,0,0,0-.458.8,12.088,12.088,0,0,0,.246,2.894c.171.841.534,1.649.616,2.477a2.126,2.126,0,0,0,3.571,1.478c2.148-1.676,4.091-3.687,6.089-5.535l6.048-5.576a2.182,2.182,0,1,0-3.085-3.085l-6.027,5.6c-2,1.854-4.153,3.626-5.986,5.637H654.3a8.584,8.584,0,0,1-1.314-2.073c-.431-.787-.9-1.546-1.4-2.285a.919.919,0,0,0-.8-.458,1.162,1.162,0,0,0-.4.1h0Z" transform="translate(-607.603 -326.703)" fill="#64d8cc"/>
      <path id="Trazado_7491" data-name="Trazado 7491" d="M653.3,561.745a11.945,11.945,0,0,0,.363,3.263c.123.534.2,1.067.349,1.6s.363,1.026.458,1.56a2.068,2.068,0,0,0,3.017,1.231,26.721,26.721,0,0,0,3.578-3.462l3.092-3.209,6.4-6.629a2.227,2.227,0,0,0,0-3.085,2.182,2.182,0,0,0-3.085,0l-6.376,6.65-3.085,3.215a26.284,26.284,0,0,0-3.339,3.7l3.229-.417a6.541,6.541,0,0,1-.65-1.067c-.253-.424-.554-.828-.8-1.259a26.938,26.938,0,0,0-1.519-2.531.886.886,0,0,0-1.635.445h0Z" transform="translate(-608.685 -340.029)" fill="#64d8cc"/>
    </g>
    <g id="Grupo_4707" data-name="Grupo 4707" transform="translate(815.985 319.864)">
      <path id="Trazado_7504" data-name="Trazado 7504" d="M1036.285,453.275c1.081-2.949.431-6.308-.431-9.222-1.272-4.31-3.544-8.428-7.313-10.816a14.34,14.34,0,0,0-7.437-18.711c1.574-5.583,2.47-12.075-.294-17.268.718-1,1.416-2.011,2.135-3.017,5.959.055,9.263-7.642,10-12.7.486-3.318.239-7.019-1.7-9.879a10.776,10.776,0,0,0-6.568-4.461,9.563,9.563,0,0,0-4.426.068c-.027-.2-.055-.383-.089-.582a18.553,18.553,0,0,0-2.018-4.358,12.059,12.059,0,0,0-7.594-5.836,16.608,16.608,0,0,0-17.924,5.836,15.124,15.124,0,0,0-2.682,6.232,16.108,16.108,0,0,0-13.484-3c-6.472,1.485-10.563,7.307-11.062,13.737a16.144,16.144,0,0,0,.561,5.583,19.13,19.13,0,0,0-17.083,6.964,23.727,23.727,0,0,0-4.3,21.413,24.326,24.326,0,0,0,4.043,8.244c-3.386,1.751-5.644,5.418-6.787,9.085-1.7,5.391-1.081,11.658,3.742,15.2a9.517,9.517,0,0,0,3.585,1.621,22.538,22.538,0,0,0-2,12.793c.739,5.145,3.824,10.289,9.126,11.63a10.008,10.008,0,0,0,4.378.157c-.479,2.258-1.2,4.474-1.573,6.759a14.67,14.67,0,0,0,.9,8.511,8.366,8.366,0,0,0,6.9,5.022,13.659,13.659,0,0,0,8.955-2.791,16.882,16.882,0,0,0,4.091-4.283,15.949,15.949,0,0,0,9.858,6.212,14.192,14.192,0,0,0,14.442-6.335,13.347,13.347,0,0,0,1.122-2.114c.226.192.458.369.712.547a9.219,9.219,0,0,0,7.478,1.409,9.79,9.79,0,0,0,6.882-8.121,12.679,12.679,0,0,0,11.3-4.214c3.571-4.248,3.619-10.337,1.279-15.181a8.121,8.121,0,0,0,3.284-4.146Z" transform="translate(-927.45 -355.821)" fill="#00b2e3"/>
      <path id="Trazado_7505" data-name="Trazado 7505" d="M946.013,533.187c-.9-.65-1.847-1.238-2.778-1.833-4.242-2.73-8.771-5.063-13.854-5.583a1.621,1.621,0,0,0-1.225.5c-.6-.24-1.177-.479-1.751-.739a1.777,1.777,0,0,0-2.093.267l-.041.055a1.926,1.926,0,0,0-.342.691l-.048-.021v.034a1.733,1.733,0,0,0,.78,1.95,45.219,45.219,0,0,0,6.1,2.49c-.082.157-.164.315-.239.472-.233.287-.493.547-.746.821a5.166,5.166,0,0,0-1.389,2.162,3.056,3.056,0,0,0,0,1.491c.055.233.171.452.233.684a.409.409,0,0,1-.034.055c-.055.075-.055.075-.041.062l-.014.021c-.068.082-.144.157-.219.239-.151.157-.308.3-.465.458a3.9,3.9,0,0,0-.814,1.129,2.752,2.752,0,0,0,.287,3.072,2.169,2.169,0,0,0,.78.5,3.111,3.111,0,0,0,.855,2.935,3.792,3.792,0,0,0,3.188,1.074,6.433,6.433,0,0,0,1.751-.465c.547-.226,1.115-.588,1.669-.759a4.621,4.621,0,0,1,1.149-.171c.068,0,.732-.014.52-.041a5.33,5.33,0,0,1,.958.246,5.306,5.306,0,0,0,3.414.082A5.761,5.761,0,0,0,944.186,543a22.531,22.531,0,0,0,2.641-5.863,5.281,5.281,0,0,0,.458-1.82,2.632,2.632,0,0,0-1.272-2.114Z" transform="translate(-922.031 -409.359)" fill="#fff"/>
      <path id="Trazado_7506" data-name="Trazado 7506" d="M1011.385,727.78c.007-.15.021-.294.034-.445a1.813,1.813,0,0,0-1.806-1.806,1.943,1.943,0,0,0-.855.239c-.021,0-.034-.014-.055-.014a1.884,1.884,0,0,0-.67.055,4.675,4.675,0,0,0-3.085,1.272c-1.881,1.772-1.71,4.591-1.745,6.951a140.271,140.271,0,0,1-3.646,30.17c-1.1,4.734-2.237,9.421-4.762,13.484a41.247,41.247,0,0,1-4.166,5.425c-.239.281-.486.568-.725.862a34.788,34.788,0,0,0-6.328,6.356,1.8,1.8,0,0,0,.233,2.128c-.041.062-.082.116-.123.178-.472.684.534,1.355,1.1.848.171-.151.328-.308.5-.458a1.721,1.721,0,0,0,.759-.233q3.376-2.011,6.759-4.023c1.984-1.183,4.009-2.319,5.884-3.674a19.605,19.605,0,0,0,4.926-4.871,19.394,19.394,0,0,0,2.613-6.711c1.095-4.967,1.82-10.043,2.559-15.072q1.149-7.85,1.991-15.742.411-3.879.739-7.772c.109-1.334.226-2.668.315-4a6.01,6.01,0,0,0-.452-3.161Z" transform="translate(-940.827 -472.599)" fill="#fff"/>
      <path id="Trazado_7507" data-name="Trazado 7507" d="M1077.8,782.18a57.584,57.584,0,0,1-4.385-4.187,30.655,30.655,0,0,1-5.569-10.358,38.821,38.821,0,0,1-1.156-4.611c-.068-.4-.144-.8-.212-1.2-1.211-7.368-.623-14.989-.041-22.487.411-5.316.671-10.871-1.259-15.947a1.8,1.8,0,0,0-3.462,0q-.246,1.16-.452,2.34a.971.971,0,0,0-1.895-.123c-.082.5-.171,1-.253,1.5a1.989,1.989,0,0,0-.91,1.539,72.262,72.262,0,0,0-.349,14.442,97.714,97.714,0,0,0,2.463,14.456,58.417,58.417,0,0,1,1.272,6.882,57.826,57.826,0,0,1,.178,7.3,68.315,68.315,0,0,0-.123,7.1,6.6,6.6,0,0,0,1.1,3.462,11.746,11.746,0,0,0,2.634,2.435c4.009,2.976,8.668,5.884,13.874,4.782a1.833,1.833,0,0,0,1.32-1.731c.144-2.237-1.218-4.132-2.771-5.6Z" transform="translate(-964.302 -471.509)" fill="#fff"/>
      <path id="Trazado_7508" data-name="Trazado 7508" d="M1001.89,807.058a1.794,1.794,0,0,0-.445-.841,1.52,1.52,0,0,0-.479-.383,1.82,1.82,0,0,0-1.82.027,2.1,2.1,0,0,0-.917,1.368c-.014.062-.021.123-.027.178-.588.349-1.184.7-1.772,1.047a13.973,13.973,0,0,0-2.032,1.32,5.451,5.451,0,0,0-.677.39c-.732.493-1.443,1.026-2.155,1.567-1.519,1.142-3,2.333-4.495,3.5-.561.438-.992.773-1.587,1.225a1.853,1.853,0,0,0-1.238.192c-.26.144-.527.281-.794.4-.116.055-.239.109-.363.164s-.123.055-.027.014l-.185.075c-.561.205-1.122.39-1.7.54-.1.027-.212.048-.315.068a1.818,1.818,0,0,0-2.394-.581,16.456,16.456,0,0,0-3.215,2.367c-.383.315-.759.636-1.129.958a2.475,2.475,0,0,0-.753,1.081c-.1.123-.2.246-.294.369-.78,1.019.13,2.278,1.074,2.648a7.23,7.23,0,0,0,7.163-1.334,52.158,52.158,0,0,0,8-5.418c.7-.547,1.4-1.1,2.093-1.649l1.047-.821c.068-.055.144-.109.219-.164l.1-.075c.178-.137.356-.267.527-.4.7-.534,1.423-1.06,2.148-1.567.123-.082.239-.178.356-.267.034.048.062.1.1.144a2.565,2.565,0,0,0,3.188.629,5.356,5.356,0,0,0,1.881-2.306,8.945,8.945,0,0,0,.828-3.085,1.62,1.62,0,0,0-.021-.41c.014-.027.034-.041.041-.068a.648.648,0,0,0,.089-.335.948.948,0,0,0-.027-.534Z" transform="translate(-937.496 -497.892)" fill="#010d3d"/>
      <path id="Trazado_7509" data-name="Trazado 7509" d="M1084.378,812.578a14.668,14.668,0,0,0-2.846-1.539,3.033,3.033,0,0,0-2.114-.287,4.413,4.413,0,0,0-1.355.937,3.508,3.508,0,0,1-2.223.677c-.048-.014-.1-.021-.137-.034-.876-.335-1.758-.677-2.634-1.006-.246-.1-.5-.185-.759-.28-.068-.034-.13-.062-.2-.1a2.211,2.211,0,0,0-.636-.2c-.486-.171-.985-.349-1.478-.54a27.809,27.809,0,0,1-2.853-1.888c-.431-.328-.841-.677-1.238-1.04-.424-.39-.889-.711-1.293-1.122a9.4,9.4,0,0,1-1.047-1.279,9.179,9.179,0,0,0-1-1.443.856.856,0,0,0-.67-.233,1.472,1.472,0,0,0-2.525.561,5.461,5.461,0,0,0,.527,3.38c.082.178.171.363.267.547a3.4,3.4,0,0,0,.219.41,6.8,6.8,0,0,0,1.115,1.519,3.082,3.082,0,0,0,2.039.9c.055.021.1.048.157.068a1.169,1.169,0,0,0,1.259-.253,19.249,19.249,0,0,0,4.508,2.641,1.506,1.506,0,0,0,.472.807c2.182,1.9,4.892,2.682,7.615,3.482.623.185,1.245.376,1.861.6l.493.185c.055.021.082.034.1.041l.048.021c.315.137.616.287.924.445a9.247,9.247,0,0,0,4.577,1.423,1.687,1.687,0,0,0,1.6-1.218,6.234,6.234,0,0,0-2.784-6.157Z" transform="translate(-964.823 -496.974)" fill="#010d3d"/>
      <path id="Trazado_7510" data-name="Trazado 7510" d="M1056.546,634.36a52.315,52.315,0,0,0-2.668-15.632c-2.88-7.95-9.4-15.591-18.157-16.919-5.425-.821-10.727.766-15.585,3.092a26.305,26.305,0,0,0-6.4,3.934,14.011,14.011,0,0,0-3.742,6.315c-.807,2.531-1.355,5.152-2,7.724-.684,2.757-1.375,5.507-2.052,8.264a125.72,125.72,0,0,0-3.147,16.529c-.041.383-.068.753-.1,1.136-1.047,6.985-1.943,13.991-3.188,20.948a133.142,133.142,0,0,1-3.3,14.319,1.382,1.382,0,0,0,.944,1.656A84.41,84.41,0,0,0,1019.7,691.1a85.906,85.906,0,0,0,23.165-.889,81.76,81.76,0,0,0,12.622-3.25,1.392,1.392,0,0,0,.992-1.307q.072-17.312.144-34.617c.027-5.555.164-11.131-.068-16.686Z" transform="translate(-944.879 -433.451)" fill="#010d3d"/>
      <path id="Trazado_7511" data-name="Trazado 7511" d="M1039.546,524.53c-.13-1.615-.294-3.236-.493-4.844-.109-.889-.219-1.779-.356-2.661a7,7,0,0,0-.623-2.388c-1.006-1.738-3.038-1.485-4.768-1.519-.93-.021-1.861-.034-2.784-.041a14.229,14.229,0,0,0-2.955.014c-1.615.027-3.229.089-4.837.219-1.026.082-2.2.253-2.49,1.444a1.67,1.67,0,0,0,.192,1.231,1.629,1.629,0,0,0,.062.65,86.171,86.171,0,0,0,11.22,23.11q2.114,3.068,4.481,5.952a1.785,1.785,0,0,0,1.97.369,1.872,1.872,0,0,0,1.108-1.649,107.248,107.248,0,0,0,.294-19.881Z" transform="translate(-952.474 -405.471)" fill="#f9d0dd"/>
      <path id="Trazado_7512" data-name="Trazado 7512" d="M1040.638,573.825a3.656,3.656,0,0,0,.684-.308,3.379,3.379,0,0,1,.137-.684c.13-.376.274-.753.417-1.122.294-.739.6-1.471.9-2.21a23.561,23.561,0,0,0,1.286-4.064c1.006-4.912.164-10.139-1.19-14.928-1.019-3.592-2.4-7.067-3.708-10.563a119.019,119.019,0,0,1-12.807-23.295c-1.608-4.529-4.378-3.838-8.264-4.919-7.149-1.56-28.727-.9-33.543,4.7-5.788,12.1-10.932,24.56-16.419,36.813-3-6.834-6.663-13.341-10.016-20a1.3,1.3,0,0,0-1.765-.465,40.74,40.74,0,0,0-9.154,8.887c-1.573,2.36.328,5.1.965,7.491A90.647,90.647,0,0,0,963.139,575.7a2.418,2.418,0,0,0,3.742,1.854c8.928-8.305,14.811-19.477,19.758-30.5,6.657,16.4,6.691,19.368,4.406,36.875-.527,4.071-1.19,8.134-1.97,12.164a1.3,1.3,0,0,0,1.635,1.567c1.833.766,3.968.677,5.931.8a81.664,81.664,0,0,0,24.649-3.024c1.635-.711,2.36-3.722,3.209-5.152.951,3.127,3.243,5.2,6.971,4.1,3.544-.424,5.788-.7,9.332-1.136.684-.082,1.368-.52,1.279-1.279-1.074-8.565-1.074-11.617-1.457-18.15Zm-26.893-34.166c-.13,1.491-.233,3.031-.424,4.543-4.645-9.954-9.988-19.614-13.4-30.116a82.869,82.869,0,0,1,13.026-.6,150.683,150.683,0,0,1,.794,26.168Z" transform="translate(-929.224 -404.837)" fill="#fff"/>
      <path id="Trazado_7513" data-name="Trazado 7513" d="M1041.336,428.115a43.33,43.33,0,0,1-3.578-6.328,27.944,27.944,0,0,1-1.683-7.621c-.356-3.092-.712-6.178-.944-9.277-.233-3.14-.219-6.294-.431-9.434-.041-.636-.93-1.2-1.423-.588-1.252,1.573-4.05,3.9-6.13,2.353-1.669-1.245-1.293-3.988-.951-5.754a.521.521,0,0,0-1.006-.274,20.03,20.03,0,0,1-6.014,8.251,19.319,19.319,0,0,1-4.406,2.682,7.841,7.841,0,0,1-2.778.848,2.944,2.944,0,0,1-2.2-.971c-1.6-1.662-1.4-4.18-1.238-6.294.055-.7-1.006-.677-1.081,0a19.162,19.162,0,0,1-4.262,10.036c-1.074,1.272-2.5,2.607-4.242,2.757a3.053,3.053,0,0,1-3.3-2.011c-.157-.6-.971-.417-1.026.137a56.712,56.712,0,0,1-2.182,11.049c-.534,1.779-1.149,3.523-1.84,5.247-.1.26-.664,1.765-1.019,1.43-.068-.062-.1-.3-.123-.376-.075-.274-.144-.554-.219-.835-.123-.486-.253-.978-.383-1.464a.556.556,0,0,0-.1-.212,4.333,4.333,0,0,0-1.129-2.586c.137.137.287.219-.192-.26a2.225,2.225,0,0,0-.554-.383,6.808,6.808,0,0,0-.855-.383,5.873,5.873,0,0,0-7.464,3.38,16.134,16.134,0,0,0-1.17,3.51A13.765,13.765,0,0,0,977.1,429a7.012,7.012,0,0,0,1.519,3.845,6.6,6.6,0,0,0,2.867,2.046,4.7,4.7,0,0,0,3.845-.472,47.628,47.628,0,0,0,1.129,5.022c.657,2.7,1.225,5.411,1.916,8.1a24.823,24.823,0,0,0,2.648,6.814,19.3,19.3,0,0,0,4.009,4.741,25.927,25.927,0,0,0,11.384,5.459,32.121,32.121,0,0,0,14.066-.424,45.675,45.675,0,0,0,6.54-2.141,1.119,1.119,0,0,0,.144.465,1.191,1.191,0,0,0,1.608.417,33.237,33.237,0,0,0,10.426-8.237,34.495,34.495,0,0,0,3.8-5.459,23.07,23.07,0,0,0,2.723-6.787c.978-5.247-1.7-10.023-4.42-14.285Zm-56.174-7.006h-.007a.069.069,0,0,0-.021-.007c-.007-.007-.021-.007-.027-.021A.2.2,0,0,1,985.162,421.109Zm-.677-.205h-.041a.533.533,0,0,1-.089-.007C984.4,420.9,984.444,420.9,984.485,420.9Z" transform="translate(-938.843 -366.878)" fill="#fff"/>
      <path id="Trazado_7514" data-name="Trazado 7514" d="M1033.074,505.078c-.479-1.4-.978-2.8-1.464-4.207q-1.652-4.751-3.311-9.5a1.822,1.822,0,0,0-1.977-1.293,1.786,1.786,0,0,0-1.567,1.772.772.772,0,0,0,.021.123,1.819,1.819,0,0,0-1.546.123,1.876,1.876,0,0,0-.438.39.86.86,0,0,0-1.279.513,6.143,6.143,0,0,0-.123,1.06,9.754,9.754,0,0,0,.205,1.17c.123.711.253,1.409.431,2.114.342,1.4.759,2.764,1.218,4.125s.978,2.7,1.519,4.03c.547,1.355,1.067,2.743,1.724,4.05a3.986,3.986,0,0,0,3.311,2.436,3.782,3.782,0,0,0,3.386-2.21,6.165,6.165,0,0,0-.1-4.693Z" transform="translate(-952.85 -398.224)" fill="#fff"/>
      <path id="Trazado_7515" data-name="Trazado 7515" d="M987.025,432.63a4.111,4.111,0,0,0-.438-1.6,4.173,4.173,0,0,0-1.019-1.656,5.779,5.779,0,0,0-3.5-1.245c-2.825-.1-5.151,2.032-6.3,4.461a11.721,11.721,0,0,0-.363,8.552,14.415,14.415,0,0,0,1.881,3.7,9.9,9.9,0,0,0,2.935,2.976c3.393,2.018,6.123-2.223,5.972-5.268a.479.479,0,0,0-.889-.239c-.739,1.327-.883,3.079-2.121,4.1-1.437,1.184-2.955-.027-3.968-1.149a10.441,10.441,0,0,1-2.374-7.806c.192-2.449,1.3-5.473,3.64-6.629a3.524,3.524,0,0,1,2.949-.048,16.075,16.075,0,0,1,1.437.876,2.835,2.835,0,0,1,1.088,1.272.581.581,0,0,0,1.074-.287h0Z" transform="translate(-938.127 -378.659)" fill="#010d3d"/>
      <path id="Trazado_7516" data-name="Trazado 7516" d="M989.33,433.875c-.062,1.143-.274,2.292-.26,3.434.014,1.252.062,2.49.185,3.729a50.273,50.273,0,0,0,1.149,7.06,27.182,27.182,0,0,0,6.26,12.191c6.834,7.327,17.138,9.044,26.695,7.751,8.983-1.218,18.218-4.727,23.507-12.5a23.474,23.474,0,0,0,4.077-12.383,17.684,17.684,0,0,0-1.033-6.561,41.086,41.086,0,0,0-3.38-6.4,48.54,48.54,0,0,1-5.7-15.585c-.534-2.791-.9-5.6-1.19-8.429a58.594,58.594,0,0,0-1.06-8.319c-.178-.7-1.136-.486-1.2.164a37.267,37.267,0,0,0,.239,7.252c.239,2.415.52,4.8.9,7.177a59.348,59.348,0,0,0,3.592,13.491c1.786,4.31,4.762,8.08,5.966,12.609a18.7,18.7,0,0,1-1,11.986c-3.434,8.21-11.446,12.739-19.785,14.627-8.983,2.032-19.135,1.656-26.592-4.337a23.319,23.319,0,0,1-7.649-12.007,44.531,44.531,0,0,1-1.4-7.218c-.144-1.238-.267-2.483-.4-3.729-.144-1.348-.445-2.661-.588-4.009a.667.667,0,0,0-1.334,0h0Z" transform="translate(-942.642 -368.965)" fill="#010d3d"/>
      <path id="Trazado_7517" data-name="Trazado 7517" d="M1044.349,427.906l-.021-.014-.13.171h.13l-.4-.226a10.433,10.433,0,0,1,.547,2.23c.233.958.506,1.916.787,2.86.54,1.847,1.183,3.674,1.751,5.514s1.108,3.585,1.635,5.384c.554,1.909,1.368,3.763,1.881,5.671l.616-1.081a12.1,12.1,0,0,1-8.394-1.772c-.937-.588-1.8.9-.862,1.478a14.233,14.233,0,0,0,9.721,1.984.891.891,0,0,0,.616-1.081c-.281-1.06-.4-2.182-.65-3.263s-.506-2.039-.8-3.044c-.6-2.066-1.218-4.125-1.888-6.171s-1.32-3.975-2.121-5.918c-.315-.753-1.355-4.276-2.668-3.421a.466.466,0,0,0-.1.718c.055.055.116.109.171.157a.114.114,0,0,0,.137.021l.082-.034c.089-.041.034-.171-.048-.171h0Z" transform="translate(-959.199 -378.328)" fill="#010d3d"/>
      <path id="Trazado_7518" data-name="Trazado 7518" d="M1053.772,425.707a.571.571,0,0,0-.144-.841.482.482,0,0,0-.26-.075c-.034,0-.034.055,0,.048a.519.519,0,0,1,.37.835c-.021.021.014.048.027.027h0Z" transform="translate(-962.943 -377.606)" fill="#64d8cc"/>
      <g id="Grupo_4705" data-name="Grupo 4705" transform="translate(46.336 45.05)">
        <path id="Trazado_7519" data-name="Trazado 7519" d="M1017.512,422.758c-1.922,3.715-1.478,8.668.075,12.438a8.192,8.192,0,0,0,3.469,4.242,8.3,8.3,0,0,0,5.165.889c3.783-.527,6.294-3.421,7.69-6.793a16.368,16.368,0,0,0,1.143-5.918,26.1,26.1,0,0,0-.089-3.188c-.089-.855-.274-1.8-1.245-2.025a25.413,25.413,0,0,0-3.537-.383c-1.313-.123-2.634-.137-3.947-.178q-4.023-.144-8.052-.171a1.109,1.109,0,0,0,0,2.217c3.975.1,8.018.315,11.993.13.951-.041,1.9-.116,2.839-.164a2.1,2.1,0,0,1,.5-.027c-.274-.267-.205.28-.212.315a6.927,6.927,0,0,0,.034,1.594,19.7,19.7,0,0,1-.636,5.329,9.285,9.285,0,0,1-5.644,6.554,6.253,6.253,0,0,1-4.03.007,5.348,5.348,0,0,1-2.914-2.8,14.755,14.755,0,0,1-1.368-5.562,43.251,43.251,0,0,1,.287-6.1.821.821,0,0,0-1.519-.411h0Z" transform="translate(-997.559 -421.67)" fill="#343d64"/>
        <path id="Trazado_7520" data-name="Trazado 7520" d="M1008.539,424.088a16.856,16.856,0,0,0-4.926.383c-1.587.274-3.195.616-4.789.924s-3.195.6-4.789.9c-.766.144-1.546.274-2.3.486a7.355,7.355,0,0,0-2.422.821.82.82,0,0,0,.192,1.478,7.159,7.159,0,0,0,2.531-.027,22.661,22.661,0,0,0,2.312-.328c1.656-.28,3.311-.6,4.96-.924s3.3-.629,4.933-1.013a15.36,15.36,0,0,0,4.577-1.628.582.582,0,0,0-.287-1.074h0Z" transform="translate(-988.935 -422.412)" fill="#343d64"/>
        <path id="Trazado_7521" data-name="Trazado 7521" d="M1042.763,426.537c.1-.062.212-.123.315-.185.062-.034.13-.068.2-.1-.178.089.075-.027.171-.075l.164-.082c.151-.082-.075.021.021-.014.13-.041.253-.089.383-.13s.239-.055.363-.082c-.123.021-.123.014,0,.007a1.653,1.653,0,0,0,.185-.007,7.553,7.553,0,0,1,.787,0c.089,0,.205-.034-.021-.007a1.727,1.727,0,0,1,.185.027c.123.021.246.048.363.075a3.671,3.671,0,0,1,.39.123c.034.014.233.1.082.027s.062.034.075.041c.109.055.219.116.322.178.055.034.1.068.157.1.144.089.082.014-.014-.014.1.034.233.2.3.274a2.581,2.581,0,0,0,.458.4,1.087,1.087,0,0,0,1.307-.171,1.15,1.15,0,0,0,.171-1.307,2.713,2.713,0,0,0-.917-.91,4.064,4.064,0,0,0-.766-.445,5.267,5.267,0,0,0-2.094-.486,4.153,4.153,0,0,0-3.585,1.751.736.736,0,0,0,1,1h0Z" transform="translate(-1005.591 -422.336)" fill="#343d64"/>
        <path id="Trazado_7522" data-name="Trazado 7522" d="M1051.527,424.21a61.839,61.839,0,0,0,.732,8.99c.376,2.531,1.2,5.049,3.571,6.383a6.744,6.744,0,0,0,6.821-.151c2.285-1.409,3.311-3.811,3.742-6.369a19.143,19.143,0,0,0-.65-9.605,1.128,1.128,0,0,0-1.361-.773,7.241,7.241,0,0,1-3.537-.239,26.638,26.638,0,0,0-4.1-.452,13.708,13.708,0,0,0-3.818.2,1.58,1.58,0,0,0-.752,2.7,1.273,1.273,0,0,0,1.751,0,1.247,1.247,0,0,0,0-1.751l-.109-.082.322.547.021.048-.171.623.075-.13-.445.445c-.123-.021-.1-.027.075-.027.1-.007.205-.021.3-.027.253-.021.506-.034.759-.048.506-.027,1.012-.041,1.526-.034,1.013,0,2.032.055,3.038.144,1.861.171,3.8.828,5.644.233l-1.361-.773a21.736,21.736,0,0,1,.3,8.935c-.479,2.388-1.806,4.823-4.529,4.98a4.138,4.138,0,0,1-3.085-1.095,6.175,6.175,0,0,1-1.532-3.421c-.616-3.147-1.054-6.335-1.964-9.414a.651.651,0,0,0-1.272.171h0Z" transform="translate(-1008.703 -421.76)" fill="#343d64"/>
      </g>
      <path id="Trazado_7523" data-name="Trazado 7523" d="M1022.04,499.529a17.753,17.753,0,0,0,.657,4.043,33.8,33.8,0,0,0,1.149,3.913c.465,1.293,1.006,2.641,1.546,3.947a22.96,22.96,0,0,0,1.69,3.735c.732,1.108,2.114,1.286,3.325,1.546a2.728,2.728,0,0,0,1.806.027,3.248,3.248,0,0,0,1.122-1.286,19.463,19.463,0,0,0,2.21-3.339c.479-1.211-.137-2.47-.5-3.653-.479-1.573-1.026-3.126-1.567-4.686-.274-.78-.554-1.553-.835-2.326a10.72,10.72,0,0,0-.924-2.251,1.1,1.1,0,0,0-1.183-.479l-.1.014a.952.952,0,0,0-.657,1.149,29.216,29.216,0,0,0,1.423,4.18c.554,1.5,1.095,3,1.7,4.474a22.313,22.313,0,0,1,.848,2.114c.226.759-.144,1.17-.581,1.779s-.862,1.2-1.314,1.792c-.1.123-.383.67-.554.711.383-.1-.691-.445-.794-.486-.568-.219-1.2-.3-1.5-.862-.328-.629-.6-1.307-.876-1.957-.582-1.341-1.129-2.7-1.642-4.071s-.985-2.757-1.573-4.091a33.816,33.816,0,0,0-1.854-4.221.555.555,0,0,0-1.026.28h0Z" transform="translate(-953.056 -400.952)" fill="#010d3d"/>
      <path id="Trazado_7524" data-name="Trazado 7524" d="M1011.238,512.065a8.352,8.352,0,0,0-2.73-.363,23.662,23.662,0,0,0-2.955.075,37.343,37.343,0,0,0-5.7.93,10.72,10.72,0,0,0-4.5,2.093,11.429,11.429,0,0,0-2.716,3.77c-1.628,3.366-2.853,6.958-4.235,10.426l-4.55,11.425c-1.724,4.317-3.339,8.7-5.172,12.964a.831.831,0,1,0,1.526.643c1.334-3.626,2.866-7.2,4.3-10.789l4.3-10.789c1.437-3.6,2.86-7.19,4.3-10.789,1.211-3.031,2.607-5.925,5.918-7.012a31.9,31.9,0,0,1,6.041-1.245c1.04-.13,2.08-.219,3.12-.308a15.62,15.62,0,0,0,3.058-.328.369.369,0,0,0,0-.7h0Z" transform="translate(-939.333 -405.054)" fill="#010d3d"/>
      <path id="Trazado_7525" data-name="Trazado 7525" d="M961.6,545.043c1.245,1.861,2.62,3.619,3.824,5.514s2.244,3.893,3.263,5.89a61.737,61.737,0,0,1,2.73,6.116c.383,1.006.725,2.018,1.095,3.031a12.905,12.905,0,0,0,1.375,3.181.826.826,0,0,0,1.526-.417,9.562,9.562,0,0,0-.561-3.414c-.315-1.122-.732-2.223-1.149-3.318a62.524,62.524,0,0,0-2.832-6.294,54.685,54.685,0,0,0-3.619-5.849,37.215,37.215,0,0,0-4.331-5.459c-.657-.65-1.861.205-1.313,1.013h0Z" transform="translate(-933.923 -415.195)" fill="#010d3d"/>
      <path id="Trazado_7526" data-name="Trazado 7526" d="M958.414,544.1a2.372,2.372,0,0,0-1.272-1.69.826.826,0,0,0-.971.123c-1.368,1.416-2.607,2.969-3.913,4.44s-2.572,2.99-3.79,4.536c-1.129,1.43-2.169,2.668-1.792,4.6a34.661,34.661,0,0,0,1.573,4.994,70.389,70.389,0,0,0,9.5,17.9,80.4,80.4,0,0,0,7.491,8.777.805.805,0,0,0,1.129,0A95.788,95.788,0,0,0,985.731,560.3c1.3-2.86,2.442-5.822,3.537-8.764.3-.814-1.006-1.17-1.3-.356a93.135,93.135,0,0,1-7.177,14.942,101.359,101.359,0,0,1-9.263,13.546,89.489,89.489,0,0,1-6.287,6.992h1.129a71.527,71.527,0,0,1-11.384-15.5,75.621,75.621,0,0,1-4.064-8.579c-.581-1.464-1.108-2.955-1.594-4.454-.239-.739-.493-1.485-.67-2.244a2.606,2.606,0,0,1,.732-2.415c1.272-1.69,2.607-3.332,3.9-5s2.7-3.181,4.016-4.8l-.78.205a1.4,1.4,0,0,1,.7.725c.342.691,1.327.185,1.184-.5h0Z" transform="translate(-929.226 -414.726)" fill="#010d3d"/>
      <path id="Trazado_7527" data-name="Trazado 7527" d="M1004.45,564.19c1.218,3.256,2.572,6.451,3.831,9.694a32.22,32.22,0,0,1,2.271,10.029c.363,7.047-1.4,14.038-2.374,20.976-.239,1.7-.472,3.4-.623,5.117-.13,1.546-.52,3.578.089,5.049,1.177,2.846,5.09,1.9,7.4,1.594l11.3-1.457c3-.383,6.013-.7,8.99-1.272,1.2-.226,2.394-.479,3.585-.746a2.456,2.456,0,0,0,1.416-.6c1.457-1.615,3.12-3.824,3.25-6.082l-1.717.465c1.026,1.56,2.367,2.88,3.393,4.44.63.965,2.189.068,1.56-.91-1.013-1.567-2.347-2.894-3.352-4.467a.93.93,0,0,0-1.717.465c-.123,1.868-1.615,3.4-2.689,4.8-.281.363.335-.048.185-.082a2.359,2.359,0,0,0-.746.144c-.972.192-1.95.39-2.921.581-6.205,1.231-12.561,1.8-18.827,2.62-1.587.205-3.195.506-4.8.6-1.156.068-2.47.007-2.545-1.4a29.794,29.794,0,0,1,.328-4.994c.192-1.628.451-3.25.753-4.864,1.218-6.506,2.853-12.992,2.572-19.669a33.221,33.221,0,0,0-2.306-10.7,45.036,45.036,0,0,0-5.521-9.66c-.26-.363-.958-.157-.78.328h0Z" transform="translate(-947.493 -421.473)" fill="#010d3d"/>
      <path id="Trazado_7528" data-name="Trazado 7528" d="M1065.212,615.26c.458.239.6.6,1.115.7a17.116,17.116,0,0,0,1.772.2,27.342,27.342,0,0,0,3.818-.075,34.122,34.122,0,0,0,7.464-1.293,1.076,1.076,0,0,0,.78-1.026c-.636-6.055-1.5-12.075-2.415-18.1-.452-2.969-.958-5.931-1.5-8.887q-.411-2.247-.855-4.481a27.565,27.565,0,0,0-1.033-4.673c-.212-.54-1.108-.527-1.088.144a28.194,28.194,0,0,0,.787,4.385c.281,1.43.582,2.99.855,4.488q.821,4.433,1.505,8.894a149.254,149.254,0,0,1,1.6,18.225l.78-1.026c-2.305.6-4.645,1.136-7,1.532-1.238.205-2.477.281-3.722.39-.541.048-1.067.062-1.608.075s-.746.342-1.272.465a.034.034,0,0,0-.007.062h0Z" transform="translate(-966.681 -425.762)" fill="#010d3d"/>
      <path id="Trazado_7529" data-name="Trazado 7529" d="M1056.726,526.842a34.436,34.436,0,0,0,2.47,4.789c.883,1.539,1.772,3.27,2.7,4.885s1.82,3.243,2.75,4.857,1.875,3.051,2.641,4.659a7.681,7.681,0,0,1,.458,4.892,12.083,12.083,0,0,0,.068,5.145c.438,1.758,1.019,3.311,1.512,4.967.527,1.779.992,3.585,1.444,5.384.978,3.913,1.9,7.833,2.942,11.733a.189.189,0,0,0,.37-.048,87.543,87.543,0,0,0-3.626-21.448,15.314,15.314,0,0,1-.568-2.449,10.064,10.064,0,0,1,.212-2.791,9.766,9.766,0,0,0-.1-5.042,23.884,23.884,0,0,0-2.415-4.55c-1-1.635-2.039-3.25-3.038-4.885-1.115-1.833-2.305-3.619-3.434-5.439a39.8,39.8,0,0,0-3.469-5.186.557.557,0,0,0-.924.54h0Z" transform="translate(-964.003 -409.623)" fill="#010d3d"/>
      <path id="Trazado_7530" data-name="Trazado 7530" d="M1039.06,511.045a9.152,9.152,0,0,0,3.913.739q2.073.164,4.146.322a17.373,17.373,0,0,1,3.626.342,4.676,4.676,0,0,1,2.456,2.34.686.686,0,0,0,1.183-.691,6.355,6.355,0,0,0-2.285-2.846,8.615,8.615,0,0,0-3.694-.835c-1.526-.123-3.051-.185-4.577-.26s-3.263-.41-4.679.185a.4.4,0,0,0-.1.712h0Z" transform="translate(-958.371 -404.519)" fill="#010d3d"/>
      <path id="Trazado_7531" data-name="Trazado 7531" d="M1088.174,562.61h-.239s-.027.041,0,.041h.239s.027-.041,0-.041Z" transform="translate(-973.866 -421.138)" fill="#010d3d"/>
      <path id="Trazado_7532" data-name="Trazado 7532" d="M1046.938,570.4c-.055.1-.1.205-.157.308a1.921,1.921,0,0,0-.171.753,2.754,2.754,0,0,0,0,.711c.1.828.308,1.875,1.259,2.107a1.219,1.219,0,0,0,1.184-.315,1.346,1.346,0,0,0,.349-.711,1.171,1.171,0,0,0-.137-.759,1.211,1.211,0,0,0-.711-.547,1.073,1.073,0,0,0-1.17.479h0l.164-.205-.014.014.219-.171a.1.1,0,0,0-.021.014l.267-.116h-.014l.3-.041h-.014l.308.041h-.014l.281.116h-.014l.24.178a1.214,1.214,0,0,0-.411-.267,2.032,2.032,0,0,0-.5-.109l.322.041-.027-.014.287.123-.027-.014.246.192-.075-.075.192.246a2.091,2.091,0,0,1-.2-.39l.116.281a5.066,5.066,0,0,1-.328-1.184l.034.274a1.738,1.738,0,0,0-.192-.732l.1.233c-.027-.082-.048-.171-.068-.26a.866.866,0,0,0-.725-.623.875.875,0,0,0-.869.417h0Z" transform="translate(-960.809 -423.463)" fill="#010d3d"/>
      <path id="Trazado_7533" data-name="Trazado 7533" d="M1050.607,587.8c-.027.171-.055.342-.089.52a4.806,4.806,0,0,0-.048.828c0,.185.027.376.041.561l.021.281a.444.444,0,0,0,.014.137,1.4,1.4,0,0,0,.192.677,1.238,1.238,0,0,0,.431.431,1.219,1.219,0,0,0,1.765-.718,2.538,2.538,0,0,0-.062-1.108c-.034-.192-.055-.383-.1-.575-.021-.089-.041-.178-.068-.274a2.561,2.561,0,0,0-.171-.486c-.068-.164-.144-.335-.219-.5l-.144-.192-.192-.144a.909.909,0,0,0-.6-.109.886.886,0,0,0-.445.185.865.865,0,0,0-.335.486h0Z" transform="translate(-962.036 -428.879)" fill="#010d3d"/>
      <path id="Trazado_7534" data-name="Trazado 7534" d="M1054.551,605.774a1.105,1.105,0,0,0-.171.349c-.014.062-.027.13-.048.192l.109-.253a1.672,1.672,0,0,0-.068.164.549.549,0,0,0-.075.274,1.337,1.337,0,0,0-.021.233c0,.068,0,.137-.007.212a3.868,3.868,0,0,0,.027.4,7.248,7.248,0,0,0,.123,1.095,1.251,1.251,0,0,0,.554.725l.287.123a.976.976,0,0,0,.486.021,1.14,1.14,0,0,0,.7-.335,1.183,1.183,0,0,0,.356-.855,7.216,7.216,0,0,0-.185-1.088,3.968,3.968,0,0,0-.089-.39c-.021-.068-.041-.13-.068-.2-.007-.027-.021-.055-.027-.082a1.443,1.443,0,0,0-.3-.506l.171.219c-.041-.055-.062-.116-.1-.171a1.306,1.306,0,0,0-.253-.294.94.94,0,0,0-.746-.246.872.872,0,0,0-.65.424h0Z" transform="translate(-963.237 -434.639)" fill="#010d3d"/>
      <path id="Trazado_7535" data-name="Trazado 7535" d="M1056.765,616.083l-.062.055.192-.15a.87.87,0,0,0-.315.274.531.531,0,0,0-.13.226,1.057,1.057,0,0,0-.055.13.616.616,0,0,0-.021.109,1.183,1.183,0,0,1-.048.212l.109-.26s-.021.048-.034.075l-.116.267a1.018,1.018,0,0,0-.048.321,1.134,1.134,0,0,1-.021.151c-.014.1-.021.212-.034.315l.041-.315-.014.041a1.254,1.254,0,0,0,0,.636,1.167,1.167,0,0,0,.308.534,1.231,1.231,0,0,0,.848.349.986.986,0,0,0,.465-.1.9.9,0,0,0,.39-.246,1.168,1.168,0,0,0,.308-.534,1.254,1.254,0,0,0,0-.636l-.014-.041.041.315c-.014-.1-.027-.212-.034-.315a1.137,1.137,0,0,0-.021-.151,1.018,1.018,0,0,0-.048-.321l-.116-.267s-.021-.048-.034-.075l.109.26c-.021-.068-.034-.144-.048-.212a.546.546,0,0,0-.021-.1V616.6l-.109-.239a.733.733,0,0,0-.26-.28.381.381,0,0,0-.137-.1l.192.15-.062-.055a.9.9,0,0,0-.6-.253l-.226.027a.869.869,0,0,0-.376.219h0Z" transform="translate(-963.837 -437.949)" fill="#010d3d"/>
      <path id="Trazado_7536" data-name="Trazado 7536" d="M1026.169,514.339c-.322-.664-1.211-.328-1.293.315a4.733,4.733,0,0,0,.588,1.97l.828,2.217c1.163,3.113,2.326,6.232,3.421,9.373s2.169,6.28,3.25,9.42A83.618,83.618,0,0,0,1036.6,547a.876.876,0,0,0,1.621-.438,44.589,44.589,0,0,1,.328-4.666c.116-1.546.212-3.113.281-4.673.137-3.065.068-6.137.021-9.2s-.26-6.123-.431-9.188c-.11-1.881.212-5.206-1.991-6.034-.787-.294-1.108.951-.342,1.252.972.383.862,2.312.951,3.12.144,1.334.287,2.661.37,4,.178,2.784.287,5.576.287,8.36s-.164,5.576-.328,8.36c-.075,1.334-.178,2.675-.294,4.009a26.71,26.71,0,0,1-.554,4.433h1.683c-1.573-5.466-4.166-10.659-6.335-15.913-1.081-2.613-2.182-5.22-3.222-7.854-.52-1.313-1.033-2.627-1.553-3.941l-.746-1.9-.37-.944a7.053,7.053,0,0,0-.383-1.108.333.333,0,0,0,.575-.335h0Z" transform="translate(-953.949 -405.391)" fill="#010d3d"/>
      <path id="Trazado_7537" data-name="Trazado 7537" d="M946.07,539.541c.349-.554.472-1.17.8-1.751a12.756,12.756,0,0,0,.971-1.813,3.859,3.859,0,0,0-.978-3.954,18.29,18.29,0,0,0-3.988-2.88c-1.546-.978-3.12-1.916-4.748-2.764A28.821,28.821,0,0,0,927.968,523a12.9,12.9,0,0,0-5.069.226,2.408,2.408,0,0,0-1.443,3.421c.725,1.669,2.88,2.47,4.358,3.325l3.079,1.786a9.607,9.607,0,0,0,3.058,1.539.757.757,0,0,0,.732-1.252,6.657,6.657,0,0,0-1.97-1.375l-2.2-1.272c-1.416-.821-2.86-1.608-4.248-2.477-.465-.294-1.122-.7-1.149-1.32-.034-.725.971-.684,1.5-.732a17.088,17.088,0,0,1,4.42.185,28.853,28.853,0,0,1,8.429,3.092c1.348.711,2.668,1.485,3.975,2.278a27.724,27.724,0,0,1,3.708,2.429,3.9,3.9,0,0,1,1.252,1.539,2.389,2.389,0,0,1-.328,1.963,10.687,10.687,0,0,0-.807,1.724,1.43,1.43,0,0,0,.233,1.526.377.377,0,0,0,.588-.075h0Z" transform="translate(-921.206 -408.584)" fill="#010d3d"/>
      <path id="Trazado_7538" data-name="Trazado 7538" d="M940.89,535.308a2.994,2.994,0,0,0-2.066-1.813,4.772,4.772,0,0,0-3.325.274c-2.176,1.026-3.824,3.482-4.632,5.678a3.885,3.885,0,0,0,.356,3.64,2.884,2.884,0,0,0,3.345,1.019A21.613,21.613,0,0,0,938.3,542l.841-.513a2.437,2.437,0,0,0,.445-.26c.082-.123-.137-.424-.308-.226a2.5,2.5,0,0,0-.021.513,4.376,4.376,0,0,0,.014.794,4.025,4.025,0,0,0,1.957,2.928,3.523,3.523,0,0,0,3.6.164.966.966,0,0,0-.739-1.758,2.074,2.074,0,0,1-2.7-1.888c.027-.924.041-1.943-.869-2.483-1.095-.643-2.2.151-3.127.691-1.047.609-2.066,1.266-3.126,1.847-.691.376-1.259.376-1.505-.472a3.835,3.835,0,0,1,.759-2.648,9.93,9.93,0,0,1,1.717-2.367,4.214,4.214,0,0,1,5.22-.7c.192.123.5-.082.411-.315h0Z" transform="translate(-924.167 -411.884)" fill="#010d3d"/>
      <path id="Trazado_7539" data-name="Trazado 7539" d="M931.225,535.357a2.411,2.411,0,0,0-2.826,1.7,2.92,2.92,0,0,0,1.416,3.38l.192-1.491a4.641,4.641,0,0,0-3.6,3.64,3.413,3.413,0,0,0,2.613,3.8l-.233-1.792a3.229,3.229,0,0,0-1.416,3.852,4.688,4.688,0,0,0,3.653,2.887,5.872,5.872,0,0,0,4.905-.841,3.3,3.3,0,0,0,.7-4.344l-.985,1.717a4.159,4.159,0,0,0,4.139-3.893c.109-1.43-2.093-1.409-2.217,0a1.878,1.878,0,0,1-1.916,1.615,1.155,1.155,0,0,0-.807,1.943c.383.5-.185,1.272-.581,1.526a3.8,3.8,0,0,1-2.784.253,2.936,2.936,0,0,1-2.073-1.279,1.326,1.326,0,0,1,.376-1.745.988.988,0,0,0-.493-1.827c-.937-.068-1.286-1.177-1.095-1.929a3.264,3.264,0,0,1,2.251-2.011c.609-.205.876-1.163.192-1.491a1.482,1.482,0,0,1-.9-1.594,2.14,2.14,0,0,1,1.491-1.423.336.336,0,0,0,0-.643h0Z" transform="translate(-922.841 -412.508)" fill="#010d3d"/>
      <path id="Trazado_7540" data-name="Trazado 7540" d="M940.408,553.089c-.041.356.274.684.493.93a5.3,5.3,0,0,0,.54.5,6,6,0,0,0,1.656.91,5.3,5.3,0,0,0,3.516.062,1.231,1.231,0,1,0-.65-2.374,4.882,4.882,0,0,1-.691.178,1.26,1.26,0,0,0-.157.027c.055-.014.26-.027.089-.014-.116.007-.239.021-.356.021a12.249,12.249,0,0,1-1.416-.041c-.144-.014.2.048.055,0-.048-.014-.1-.021-.157-.034-.116-.027-.233-.055-.342-.089-.226-.062-.452-.137-.67-.212a1.224,1.224,0,0,1-.144-.055c.116.048.021,0-.041-.021-.1-.048-.192-.1-.281-.144s-.205-.109-.308-.171a.871.871,0,0,0-.65-.1.661.661,0,0,0-.472.623h0Z" transform="translate(-927.27 -417.925)" fill="#010d3d"/>
      <path id="Trazado_7541" data-name="Trazado 7541" d="M989.414,779.573a81.4,81.4,0,0,1-8.278,9.024c-1.519,1.361-3.072,2.7-4.714,3.92-1.526,1.136-3.318,2.093-4.474,3.64a4.491,4.491,0,0,0-.52,4.734c1.013,1.868,3.147,1.9,4.994,1.594,3.9-.657,7.669-2.955,10.768-5.316a36.221,36.221,0,0,0,8.73-9.53l-2.128-1.245a3.441,3.441,0,0,0,1.539,4.652c1.916.985,4.194-.062,5.391-1.662,1.4-1.861,1.484-4.365,1.615-6.6.144-2.524.062-5.049.322-7.566.513-4.981,2.36-9.728,3.551-14.565a146.229,146.229,0,0,0,2.784-14.771c.787-5.624,1.286-11.281,1.786-16.939.137-1.512-2.21-1.491-2.353,0-.835,8.784-1.567,17.664-3.27,26.339-.862,4.385-2.1,8.654-3.27,12.964a46.171,46.171,0,0,0-1.307,6.315c-.267,2.141-.335,4.385-.445,6.575s-.027,5.015-1.389,6.8a2.229,2.229,0,0,1-2.066,1c-.52-.123-1.047-.773-.759-1.3a1.233,1.233,0,0,0-2.128-1.245,32.249,32.249,0,0,1-15.372,12.971,13.22,13.22,0,0,1-2.661.732c-.609.1-1.662.308-2.094-.281-.794-1.074.363-2.429,1.129-3.079,1.3-1.115,2.8-2.018,4.16-3.085a44.84,44.84,0,0,0,4.064-3.578,42.823,42.823,0,0,0,7.491-9.646c.363-.664-.568-1.485-1.095-.848Z" transform="translate(-936.925 -473.321)" fill="#010d3d"/>
      <path id="Trazado_7542" data-name="Trazado 7542" d="M998.312,779.18c4.385-5.671,6.308-12.862,7.751-19.785,1.573-7.553,2.634-15.229,3.455-22.891.239-2.223.452-4.454.636-6.677.089-1.06.171-2.121.246-3.174a7.577,7.577,0,0,0-.082-3.441,1,1,0,0,0-1.806-.233,5.943,5.943,0,0,0-.527,2.675c-.068,1.006-.137,2.011-.219,3.01q-.226,2.925-.52,5.849-.585,5.839-1.416,11.658a145.716,145.716,0,0,1-4.337,21.318c-1.142,3.79-2.613,7.519-4.057,11.192-.185.472.554.917.869.506h0Z" transform="translate(-945.275 -471.642)" fill="#010d3d"/>
      <path id="Trazado_7543" data-name="Trazado 7543" d="M983.1,814.787a1.537,1.537,0,0,0,.992,1.827,4.559,4.559,0,0,0,3.3-.335,27.823,27.823,0,0,0,6.479-3.818q3.356-2.463,6.7-4.946c.978-.732,1.95-1.471,2.866-2.285.794-.7,1.97-1.594,2.018-2.723a.72.72,0,0,0-.9-.691c-.876.294-1.4,1.245-2.039,1.875a25,25,0,0,1-2.347,1.984c-1.847,1.4-3.715,2.75-5.576,4.125-1.69,1.252-3.366,2.545-5.165,3.64a19.1,19.1,0,0,1-2.86,1.464c-.992.39-2.189.883-2.935-.185a.289.289,0,0,0-.52.068h0Z" transform="translate(-940.734 -496.686)" fill="#010d3d"/>
      <path id="Trazado_7544" data-name="Trazado 7544" d="M1065.248,726.248a157.612,157.612,0,0,0-.965,21.708,121.193,121.193,0,0,0,2.2,21.379,20.6,20.6,0,0,0,3.783,8.647,29.416,29.416,0,0,0,6.458,5.678c1.177.828,2.374,1.621,3.585,2.4a15.925,15.925,0,0,1,3.544,2.661c.8.917,1.225,2.36-.123,3a5.891,5.891,0,0,1-3.523.109c-5.849-1.142-12.143-3.681-15.092-9.208a1.181,1.181,0,0,0-2.018,0c-.746,1.177-2.613.67-3.339-.26-1.245-1.6-.78-3.913-.2-5.665a34.98,34.98,0,0,0,1.916-6.349,22.56,22.56,0,0,0-.164-6.65c-.7-4.461-2.333-8.716-3.3-13.115-1.081-4.912-.629-9.824-.7-14.8a65.849,65.849,0,0,0-2.265-16.453,1,1,0,0,0-1.922.534,82.082,82.082,0,0,1,1.9,15.927c.041,2.757-.13,5.514-.075,8.271a36.272,36.272,0,0,0,.944,7.43c1.095,4.741,2.962,9.379,3.407,14.25a17.079,17.079,0,0,1-.664,6.882c-.725,2.23-1.909,4.543-1.957,7.04-.041,2.2.848,4.6,2.969,5.555a4.286,4.286,0,0,0,5.466-1.409h-2.018c2.921,5.193,8.5,8.011,14.1,9.38,2.374.582,5.6,1.45,7.806-.068a3.317,3.317,0,0,0,1.375-3.325,6.323,6.323,0,0,0-2.518-3.551c-2.381-1.888-5.062-3.359-7.423-5.275a21.693,21.693,0,0,1-5.815-6.862c-1.642-3.215-2.114-7.005-2.614-10.536-.54-3.8-.869-7.621-1.074-11.446-.452-8.613-.24-17.254-.383-25.874a.65.65,0,0,0-1.3,0h0Z" transform="translate(-962.864 -470.417)" fill="#010d3d"/>
      <path id="Trazado_7545" data-name="Trazado 7545" d="M1061.953,802.33a6.42,6.42,0,0,0,1.71,2.244c.766.794,1.539,1.587,2.353,2.326a51.269,51.269,0,0,0,5.2,4.119c1.628,1.129,3.489,2.285,5.542,2.292a4.928,4.928,0,0,0,4.324-2.271.741.741,0,0,0-1.279-.746,3.76,3.76,0,0,1-4.153,1.361,14.7,14.7,0,0,1-4.878-2.559c-1.491-1.033-2.99-2.189-4.419-3.38-.732-.616-1.457-1.238-2.148-1.9a7.7,7.7,0,0,0-2.011-1.669.17.17,0,0,0-.246.192h0Z" transform="translate(-965.658 -496.797)" fill="#010d3d"/>
      <path id="Trazado_7546" data-name="Trazado 7546" d="M1034.3,524.11c1.054,2.23-.363,4.851-2.449,5.87a.632.632,0,0,0,.486,1.149c2.928-1.019,4.043-4.775,2.682-7.437-.246-.479-.944-.062-.718.417Z" transform="translate(-956.057 -408.779)" fill="#010d3d"/>
      <path id="Trazado_7547" data-name="Trazado 7547" d="M1036.938,523.752c.021.123,0,.253.014.383a2.126,2.126,0,0,0,.123.465,3.049,3.049,0,0,0,.472.8,4.316,4.316,0,0,0,1.4,1.177,4.94,4.94,0,0,0,3.605.452.649.649,0,0,0-.342-1.252,3.663,3.663,0,0,1-2.655-.308,5.285,5.285,0,0,1-1.149-.821c-.185-.178-.349-.369-.513-.554a3.939,3.939,0,0,1-.486-.534c-.157-.267-.513-.075-.472.2h0Z" transform="translate(-957.761 -408.764)" fill="#010d3d"/>
      <path id="Trazado_7548" data-name="Trazado 7548" d="M1022.894,436.348a6.39,6.39,0,0,0,5.138,1.621,6.953,6.953,0,0,0,2.613-.876c.759-.438,1.888-1.163,1.97-2.1a.788.788,0,0,0-.992-.753c-.458.109-.664.452-.972.739a5.055,5.055,0,0,1-.814.609,5.848,5.848,0,0,1-2.032.759,6.286,6.286,0,0,1-4.2-.937.6.6,0,0,0-.718.937h0Z" transform="translate(-953.267 -380.584)" fill="#010d3d"/>
      <path id="Trazado_7549" data-name="Trazado 7549" d="M1033.023,431.543c0,.075-.021.137-.014.212,0,.034.014.082.014.109a.35.35,0,0,0,0,.205l.014.055c.014.075.027.144.041.219.048.239.1.472.171.7a5.314,5.314,0,0,0,.52,1.485.465.465,0,0,0,.527.212.476.476,0,0,0,.342-.451,2.8,2.8,0,0,0-.185-.828c-.089-.239-.178-.472-.267-.7-.1-.253-.2-.506-.315-.753a1.633,1.633,0,0,0-.192-.335c-.034-.041-.055-.1-.089-.137-.041-.062-.1-.109-.151-.171-.144-.171-.39-.021-.4.164h0Z" transform="translate(-956.52 -379.659)" fill="#010d3d"/>
      <path id="Trazado_7550" data-name="Trazado 7550" d="M1056.074,435.583a6.047,6.047,0,0,0,1.8,1.006,5.126,5.126,0,0,0,2.011.226,4.224,4.224,0,0,0,1.724-.479,2.556,2.556,0,0,0,.711-.554,1.235,1.235,0,0,0,.328-.609.863.863,0,0,0,.021-.233l-.027-.2c-.014-.068-.007-.068.007,0a.636.636,0,0,0-1.074-.445c.055-.062-.1.041-.137.068a1.789,1.789,0,0,0-.328.315l-.1.1c-.014.014-.123.1-.062.055s-.1.062-.1.062c-.041.027-.089.048-.13.075a.857.857,0,0,1-.137.068c.075-.034.034-.014-.021,0a2.724,2.724,0,0,1-.335.1,2.352,2.352,0,0,1-.3.062c-.13.021.116-.007-.014,0l-.226.021a5.661,5.661,0,0,1-2.894-.6.6.6,0,0,0-.773.157.6.6,0,0,0,.048.787h0Z" transform="translate(-963.747 -380.552)" fill="#010d3d"/>
      <path id="Trazado_7551" data-name="Trazado 7551" d="M1061.99,431.862a5.743,5.743,0,0,0,.39,1.724,7.653,7.653,0,0,0,.383.835,1.272,1.272,0,0,0,.636.67.246.246,0,0,0,.3-.171,1.54,1.54,0,0,0-.219-.889c-.1-.239-.219-.479-.315-.718-.219-.534-.445-1.06-.67-1.594-.109-.246-.52-.123-.506.137h0Z" transform="translate(-965.675 -379.752)" fill="#010d3d"/>
      <path id="Trazado_7552" data-name="Trazado 7552" d="M1014.55,463.613c-.014,1.225,1.06,2.545,1.916,3.339a12.5,12.5,0,0,0,3.77,2.285,25.132,25.132,0,0,0,5.028,1.437c.869.157,1.751.274,2.641.349a5.7,5.7,0,0,0,2.716-.144.949.949,0,0,0,0-1.635,6.645,6.645,0,0,0-2.3-.3c-.794-.055-1.58-.144-2.36-.26a27.357,27.357,0,0,1-4.611-1.143,16.468,16.468,0,0,1-3.434-1.539,7.3,7.3,0,0,1-1.519-1.143c-.431-.458-.746-1.047-1.2-1.5a.375.375,0,0,0-.636.26h0Z" transform="translate(-950.69 -389.755)" fill="#010d3d"/>
      <path id="Trazado_7553" data-name="Trazado 7553" d="M1058.2,513.323a28.571,28.571,0,0,0,1.444,2.661c.554.965,1.026,1.97,1.56,2.949,1.012,1.868,2.059,3.708,3.079,5.569,2,3.626,3.865,7.32,5.658,11.049.91,1.9,1.936,3.749,2.791,5.671s1.615,4,2.326,6.041a76.753,76.753,0,0,1,3.332,12.054c.924,5.323-2.285,9.769-3.455,14.757-.246,1.04,1.259,1.779,1.786.753a59.077,59.077,0,0,0,2.586-6.691c.711-1.936,1.69-4.351,1.177-6.445-.274-1.136-.424-2.285-.732-3.421s-.616-2.169-.93-3.256c-.6-2.039-1.184-4.071-1.834-6.1-1.32-4.125-2.819-8.189-4.173-12.3a72.19,72.19,0,0,0-5.521-11.781c-1.163-2.128-2.415-4.2-3.783-6.212-.7-1.04-1.478-2.018-2.258-3.01a28.812,28.812,0,0,0-2.326-2.86c-.4-.39-.924.1-.725.561h0Z" transform="translate(-964.464 -405.346)" fill="#010d3d"/>
      <path id="Trazado_7554" data-name="Trazado 7554" d="M1078.5,581.88a3.7,3.7,0,0,0,1.095.171,8.063,8.063,0,0,1,.992.144,7.843,7.843,0,0,1,1.033.328,6.016,6.016,0,0,0,.985.424.522.522,0,0,0,.506-.862,2.809,2.809,0,0,0-1.115-.65,5.606,5.606,0,0,0-1.143-.335,6.048,6.048,0,0,0-1.225-.13,2.029,2.029,0,0,0-1.211.3.338.338,0,0,0,.082.609h0Z" transform="translate(-970.814 -426.937)" fill="#010d3d"/>
      <path id="Trazado_7555" data-name="Trazado 7555" d="M1022.115,417.869a6.859,6.859,0,0,1,1.225-1.82,3.731,3.731,0,0,1,1.758-1.006,3.526,3.526,0,0,1,1.95.1c.116.034.226.068.335.109.055.021.164.062.048.014a4.5,4.5,0,0,1,.568.3,2.645,2.645,0,0,0,.67.363c.116.034.506.1.26.062a2.368,2.368,0,0,0,.438.041.876.876,0,0,0,.862-.862,1.522,1.522,0,0,0-.055-.431c-.116-.26-.137-.322-.068-.178l-.116-.267a2.069,2.069,0,0,0-.814-.739,5.953,5.953,0,0,0-1.45-.636,5.559,5.559,0,0,0-3.188.062,5.329,5.329,0,0,0-2.5,1.683,4.387,4.387,0,0,0-1.122,2.88.653.653,0,0,0,1.2.328h0Z" transform="translate(-952.7 -373.791)" fill="#00b2e3"/>
      <path id="Trazado_7556" data-name="Trazado 7556" d="M1053.344,416.827a.993.993,0,0,0,.2-.075l.068-.021q-.2-.031-.021,0a2.679,2.679,0,0,0,.52-.1,2.441,2.441,0,0,1,.65-.1,4.781,4.781,0,0,1,.766.014c.233.021-.123-.027.1.014.062.014.123.021.178.034.13.027.26.062.39.1a1.878,1.878,0,0,1,.6.253c.116.068.226.144.342.219.055.034.1.068.151.1s.137.1.048.027c.452.349.841,1.108,1.491,1.06l-.308-.082a1.824,1.824,0,0,0,.328.171.463.463,0,0,0,.561-.315,1.309,1.309,0,0,0,0-.541l-.062.465c.472-.787-.445-1.567-1.019-1.991a4.868,4.868,0,0,0-1.738-.78,4.937,4.937,0,0,0-1.977-.089,3.905,3.905,0,0,0-.835.246,1.255,1.255,0,0,0-.581.342c-.068.082-.062.082.014,0-.034.027-.075.055-.109.082-.075.055-.144.116-.219.178-.349.3.021.978.465.8h0Z" transform="translate(-962.756 -374.555)" fill="#00b2e3"/>
      <g id="Grupo_4706" data-name="Grupo 4706" transform="matrix(0.839, -0.545, 0.545, 0.839, 64.04, 131.004)">
        <path id="Trazado_7557" data-name="Trazado 7557" d="M1018.474,552.013l.547-.356c.41-1.813.4-3.633,1.348-5.185.349-.568,1.088-1.635,1.491-2.264.068-.123.144-.246.219-.356a.454.454,0,0,0,.041-.082h.007a2.184,2.184,0,0,1,.65-.636c.8-.472,1.6-.219,2.435.787.157.192.8.294.9.718a2.106,2.106,0,0,0-.6-.226,5.175,5.175,0,0,0-1.238.356c1.621,3.065-.5,5.76-1.348,8.12.027.164,1.067.527.842,1.122-.027.068-.075.109-.144.1-1.033-.171-1.553-.855-2.545-1.122-.862-.233-1.4.055-2.5-.424-.233-.1-.308-.417-.109-.54" transform="translate(-1018.36 -542.904)" fill="#010d3d" fill-rule="evenodd"/>
        <path id="Trazado_7558" data-name="Trazado 7558" d="M1024,545.914a1,1,0,0,0,0,.41c-.089,5.322-1.594,6.916-2.135,5.227-.171-.527-.575-.7-.691,1.567-.014.239.541.3.76.376.65.233.691.294,1.026.109.192-.1,2.319-4,1.813-6.506a8.453,8.453,0,0,0-.267-1.183.28.28,0,0,0-.506,0" transform="translate(-1019.031 -543.803)" fill="#fff" fill-rule="evenodd"/>
        <path id="Trazado_7559" data-name="Trazado 7559" d="M1021.191,544.006a.242.242,0,0,0,.164.267.171.171,0,0,0,.226-.151.249.249,0,0,0-.164-.267.171.171,0,0,0-.226.15" transform="translate(-1015.768 -543.202)" fill="#fff"/>
      </g>
    </g>
    <g id="Grupo_4710" data-name="Grupo 4710" transform="translate(976.516 322.119)">
      <path id="Trazado_7560" data-name="Trazado 7560" d="M1253.856,733.077q-3.592-23.91-7.683-47.732-2.032-11.822-4.18-23.623c-1.444-7.9-2.921-15.845-4.748-23.671-1.019-4.378-2.08-8.743-2.969-13.142-.4-1.95-.91-4.077-.458-6.061a5.215,5.215,0,0,1,1.765-2.976,12.946,12.946,0,0,1,.814,2.374,5.214,5.214,0,0,0,2.47,3.3,4.212,4.212,0,0,0,4.57-.561,5.587,5.587,0,0,0,.739-.766,1.762,1.762,0,0,0,1.019-1.019c.281-.848.568-1.7.841-2.545a1.325,1.325,0,0,0-.021-.876,2.989,2.989,0,0,0-.151-2.285c-.889-1.7-2.8-1.7-4.344-1.013-1.129-1.9-.739-4.3-.014-6.335.52-1.464,1.286-2.832,1.82-4.3a15.7,15.7,0,0,0,.794-3.879c.1-.062.2-.116.294-.171a1.346,1.346,0,0,0-1.362-2.319c-.281.171-.568.363-.848.561-.007,0-.014.007-.021.014a21.308,21.308,0,0,0-3.291,2.894,25.1,25.1,0,0,0-8.976-6.13c-3.024-1.238-7.286-2.271-10.625-1.156-3.366-.732-6.889-.67-10.3-.978-2.1-.185-4.2-.41-6.3-.691s-4.167-.711-6.26-.978a1.544,1.544,0,0,0-1.6-.493,10.264,10.264,0,0,0-4.556,2.8c-1.088,1.368-1.656,3.5-.657,5.063.2.308.534.554.718.869a1.788,1.788,0,0,1,.014,1.252c-.164.978-.369,1.943-.6,2.9a41.026,41.026,0,0,1-1.266,4.125c-.5-.328-1.006-.643-1.512-.951a1.363,1.363,0,0,0-1.847,1.847c.157.281.308.554.472.835a1.93,1.93,0,0,0-.212.048c-.506-.287-1.341-.021-1.279.7a5.164,5.164,0,0,0,1.143,3.161,1.754,1.754,0,0,0,2.647.137,2.247,2.247,0,0,0,.219-.376c.068.123.144.233.171.274a5.451,5.451,0,0,1,.342,1.567,23.268,23.268,0,0,1-.3,4.68q-.821,6.352-1.252,12.752c-.575,8.4-.7,16.83-.52,25.245.369,16.966,2,33.871,3.763,50.742.493,4.693.978,9.386,1.505,14.079.281,2.47.506,4.974.992,7.409.458,2.312,1.567,4.433,2.094,6.725a2.273,2.273,0,0,0,2.025,3.161q4.577.092,9.147.171a2.291,2.291,0,0,0,2.182-2.86q-1.929-10.724-3.517-21.5a143.37,143.37,0,0,1-2-21.215c.021-7.238.718-14.422.171-21.66-.274-3.544-.664-7.074-.821-10.631a72.618,72.618,0,0,1,.39-10.419c.711-6.876,1.82-13.778.855-20.633q8.712.021,17.411.445,3.807,22.946,8.066,45.8c2.935,15.7,6.1,31.347,9.3,46.993.452,2.2.91,4.4,1.368,6.6a8.8,8.8,0,0,0,2.5,5.09c2.641,2.312,6.39,2.429,9.708,2.162a2.278,2.278,0,0,0,2.155-2.826Z" transform="translate(-1164.777 -431.557)" fill="#fff"/>
      <path id="Trazado_7561" data-name="Trazado 7561" d="M1255.216,630.839c.39,2.087.725,4.18,1.04,6.273.513,3.448.862,6.417,1.43,9.8,1.485,8.914,3.181,17.794,4.782,26.688q2.719,15.126,5.357,30.259,2.35,13.495,4.6,27,.831,5.008,1.621,10.029c.192,1.238.322,2.511.6,3.729a10.561,10.561,0,0,1,.41,1.875c.021.78-.9.869-1.505,1.006a15.4,15.4,0,0,1-2.955.376,16.463,16.463,0,0,1-5.624-.759c-1.82-.575-2.538,2.223-.766,2.791a17.038,17.038,0,0,0,6.089.835,13.467,13.467,0,0,0,5.562-1.293c2.135-1.163,1.8-3.961,1.512-6.041-.411-2.955-.883-5.9-1.355-8.839-1.389-8.682-2.873-17.343-4.372-26q-2.668-15.434-5.425-30.861c-1.683-9.407-3.3-18.834-5.145-28.214-1.177-6.014-2.7-11.952-4.112-17.911-.089-.383-.185-.759-.274-1.142-.233-.958-1.635-.54-1.457.4h0Z" transform="translate(-1187.236 -444.644)" fill="#010d3d"/>
      <path id="Trazado_7562" data-name="Trazado 7562" d="M1189.27,623.013c-2.7,7.635-2.737,15.892-2.976,23.9s-.315,16.276-.116,24.4a488.819,488.819,0,0,0,3.633,48.991q.852,6.835,1.888,13.642.534,3.469,1.108,6.93c.383,2.306.712,4.632,1.279,6.9a1.45,1.45,0,0,0,1.354,1.033,54.325,54.325,0,0,0,6.992.568,27.635,27.635,0,0,0,6.971-1.088,1.253,1.253,0,0,0-.664-2.415c-4.023,1.2-8.935,1.731-12.923.164l1.033,1.355c-.472-4.1-1.348-8.175-1.991-12.26s-1.19-7.895-1.71-11.849q-1.58-12.1-2.565-24.266c-1.307-16.214-1.827-32.51-1.567-48.772.075-4.57.246-9.133.356-13.7s.027-8.928,1.211-13.176a.685.685,0,0,0-1.32-.363h0Z" transform="translate(-1165.396 -442.317)" fill="#010d3d"/>
      <path id="Trazado_7563" data-name="Trazado 7563" d="M1269.351,597.988c-1.136.6-2.265,1.2-3.414,1.772-.52.26-1.06.506-1.574.787a2.271,2.271,0,0,0-1.129,1.259.748.748,0,0,0,.52.917.763.763,0,0,0,.917-.52c-.048.116.137-.164.048-.068a2.36,2.36,0,0,1,.233-.219c.1-.082.315-.212.486-.322.479-.294.965-.581,1.45-.876,1-.6,2.011-1.184,3.031-1.758.629-.356.068-1.307-.568-.971h0Z" transform="translate(-1189.761 -434.546)" fill="#010d3d"/>
      <path id="Trazado_7564" data-name="Trazado 7564" d="M1188.832,600.09c-.007.78.712,1.231.739,1.95a6.462,6.462,0,0,1-.281,1.478c-.109.54-.232,1.074-.369,1.608a34.636,34.636,0,0,1-2.162,6.178l1.026-.267c-.7-.335-1.416-.677-2.128-1.006a3.717,3.717,0,0,0-1.861-.561c-1.218.13-1.642,1.457-1.608,2.511a5.388,5.388,0,0,0,1.149,3.168,4,4,0,0,0,2.8,1.738.566.566,0,0,0,.281-1.047,9.965,9.965,0,0,1-1.8-1.184,3.885,3.885,0,0,1-1-1.963c-.116-.623-.157-1.861.732-1.587a25.269,25.269,0,0,1,2.675,1.225.771.771,0,0,0,1.1-.445,43.747,43.747,0,0,0,2.114-6.547,16.02,16.02,0,0,0,.547-3.058,1.773,1.773,0,0,0-.308-1.108c-.212-.328-.643-.67-.664-1.081a.5.5,0,0,0-.992,0h0Z" transform="translate(-1164.171 -435.081)" fill="#010d3d"/>
      <path id="Trazado_7565" data-name="Trazado 7565" d="M1186.587,612.74c-.068-.109-.137-.212-.2-.328-.027-.048-.048-.1-.075-.15s-.014-.027.014.034c-.014-.027-.021-.062-.034-.089a1.824,1.824,0,0,1-.055-.185.6.6,0,0,1-.041-.185v-.315c.007-.068,0-.062,0,.021a.58.58,0,0,0,.027-.116c0-.014.055-.144.048-.151-.041.089-.041.1-.014.041a.322.322,0,0,0,.034-.068l.062-.1c.041-.055.027-.041-.027.027.014-.021.034-.041.048-.062.034-.041.075-.075.109-.109.082-.089-.116.075.014-.007a.646.646,0,0,1,.116-.068c.062-.027.048-.021-.048.014.021-.007.048-.021.075-.027s.089-.021.13-.034.027,0-.075.007h.157c.068,0,.055,0-.055-.007a.537.537,0,0,0,.151.034c.116.027-.123-.068-.014-.007.048.027.089.048.13.075l.062.041c-.075-.062-.089-.068-.034-.027.027.027.062.055.089.082a.881.881,0,0,1,.109.116c.021.021.034.041.055.062.041.055.034.041-.021-.034a1.449,1.449,0,0,1,.157.239c.055.1.1.192.151.294a.632.632,0,0,0,.862.226.64.64,0,0,0,.226-.862,2.231,2.231,0,0,0-2.046-1.491,1.985,1.985,0,0,0-1.717,2.093,3.1,3.1,0,0,0,.575,1.608.6.6,0,1,0,1.04-.6h0Z" transform="translate(-1165.046 -438.242)" fill="#010d3d"/>
      <path id="Trazado_7566" data-name="Trazado 7566" d="M1261.742,604.613c-.582,3.113-1.232,6.219-1.82,9.332q-.452,2.411-.842,4.844a6.238,6.238,0,0,0,.192,3.886,10.853,10.853,0,0,0,2.265,3.147,6.816,6.816,0,0,0,3.1,2.114c1.177.219,2.271-.7,3.126-1.45a4.041,4.041,0,0,0,1.567-2.654,2.649,2.649,0,0,0-1.314-2.552,2.3,2.3,0,0,0-.739-.219c-.233-.027-.746.1-.951.014-.226-.1-.452-.622-.6-.848a11.369,11.369,0,0,0-.746-1.06c-.582-.711-1.519.192-1.19.917.438.944,1.143,2.442,2.312,2.579.541.062,1.149-.322,1.56.15a1.445,1.445,0,0,1,.144,1.539,4.077,4.077,0,0,1-1.19,1.368c-.65.54-1.361,1.177-2.162.547a13.111,13.111,0,0,1-2.771-3.058,5.447,5.447,0,0,1-1.019-3.941c.219-1.58.541-3.147.78-4.727.493-3.2.9-6.417,1.4-9.626.109-.725-.978-1.047-1.115-.308h0Z" transform="translate(-1188.392 -436.526)" fill="#010d3d"/>
      <path id="Trazado_7567" data-name="Trazado 7567" d="M1269.346,624.8a4.38,4.38,0,0,0,.458,1.231c.24.438.588.883,1.143.746a2.208,2.208,0,0,0,.534-.28,1.516,1.516,0,0,1,.479-.157c-.1.021.116-.014.116-.014h.3c-.116-.014.082.021.1.021l.144.041c.082.027.1.034.034.014a2.246,2.246,0,0,1,.219.123c.041.027.041.027-.014-.014a1.35,1.35,0,0,1,.1.1c.034.034.062.068.1.1-.048-.062-.048-.062,0,.014s.068.116.1.178h0c.014.041.027.089.041.13s.021.089.034.13q-.01-.133,0-.041v.233c0-.192-.021.062-.034.116-.048.171.075-.1-.034.075-.021.027-.192.267-.1.157a3.773,3.773,0,0,1-.4.4c-.151.137-.308.267-.465.39.062-.048.055-.048-.027.021s-.171.123-.253.192a.967.967,0,0,0-.294.369.875.875,0,0,0,0,.841.833.833,0,0,0,.725.417,1.481,1.481,0,0,0,.9-.417c.157-.13.3-.267.445-.41a4.947,4.947,0,0,0,.821-.992,2.343,2.343,0,0,0,0-2.34,2.44,2.44,0,0,0-1.922-1.245,2.6,2.6,0,0,0-1.143.13,3.029,3.029,0,0,0-.568.26c-.15.1-.3.233-.431.294l.315-.082a1.722,1.722,0,0,0,.2.082l-.116-.178c-.068-.109-.123-.219-.178-.328a3.513,3.513,0,0,1-.226-.636.578.578,0,0,0-1.115.308h0Z" transform="translate(-1191.693 -442.801)" fill="#010d3d"/>
      <path id="Trazado_7568" data-name="Trazado 7568" d="M1268.077,621.364a19.1,19.1,0,0,0,1.341-5.37,13.518,13.518,0,0,0-.3-2.914c-.027-.15-.048-.308-.082-.451-.109-.506.014.089-.034.068,0,0,.13-.233.137-.253a9.3,9.3,0,0,0,.575-1.245c.2-.534.657-1.56-.021-1.957-.6-.356-1.04.52-1.3.9-.486.7-1.3,1.108-1.724,1.854-.486.862-.041,1.881.082,2.784.144,1.013.205,2.039.315,3.051.055.54.116,1.06.123,1.6a6.624,6.624,0,0,1-.26,1.621.593.593,0,0,0,1.143.315h0Z" transform="translate(-1190.786 -438.097)" fill="#010d3d"/>
      <path id="Trazado_7569" data-name="Trazado 7569" d="M1269.291,620.106l.246.848c.082.28.137.568.233.841a1.123,1.123,0,0,0,.691.725,1.416,1.416,0,0,0,1.026-.137c.062-.027.116-.055.178-.075-.144.055.041-.007.055-.014l.164-.041c.048-.014.116,0-.014,0h.171c.034,0,.219.021.041,0a1.789,1.789,0,0,1,.328.089c-.157-.055.007.007.041.021s.1.062.144.089c-.137-.082,0,0,.034.034l.082.082c.123.123-.055-.116.027.041.027.048.062.1.089.151.089.157-.027-.13.014.041a1.6,1.6,0,0,0,.048.171c.048.171.014-.137,0,.041v.178c0,.1,0,.192-.007.294-.021.322-.021.7.294.889.383.226.759-.062.965-.376a1.454,1.454,0,0,0,.219-.924,2.4,2.4,0,0,0-.684-1.553,2.359,2.359,0,0,0-1.526-.643,2.152,2.152,0,0,0-.855.13,3.6,3.6,0,0,0-.431.212.813.813,0,0,1-.171.089c.062-.027.055-.027-.014,0a.3.3,0,0,1,.109,0l.048.021c.055.041.055.041,0-.014l.027.034a1.03,1.03,0,0,1-.055-.1,4.457,4.457,0,0,1-.171-.417l-.363-.985a.521.521,0,0,0-.629-.356.512.512,0,0,0-.356.629h0Z" transform="translate(-1191.678 -441.354)" fill="#010d3d"/>
      <path id="Trazado_7570" data-name="Trazado 7570" d="M1270.224,553.121a132.755,132.755,0,0,0-34.651-50.345c-3.982-3.742-9.27-3.749-14.456-3.633-13.607-1.026-15.441,2.771-26.243,9.5a368.65,368.65,0,0,0-35.582,35.37c-2.463,2.264-5.124,5.555-2.066,8.552,4.679,5.795,11.582,9.195,17.439,13.628,1.7.937,3.256,3.079,5.384,2.593,3.065-1.532,5.48-4.3,7.409-7.094a183.511,183.511,0,0,1-10.385,23.863c-2.935,5.206,41.219,4.194,46.008,4.673.725,0,3.339.636,3.441-.021,1.7-10.707,3.893-19.984,5.822-29.685,2.374-12.034,4.652-24.218,4.6-36.533,7.265,8.21,11.288,18.643,18.485,26.873a152.938,152.938,0,0,0-19.8,14.654c-2.251,2.073-1.259,5.357-1.416,8.066.014,1.286-.171,2.935,1.122,3.688,9.065.308,18.417-9.961,25.655-14.914,2.6-2.791,9.318-5.138,9.229-9.222Zm-97.544-4.837q13.115-13.053,25.545-26.756c-2.866,12.786-5.774,25.593-10.016,38-4.324-4.57-10.166-7.888-15.53-11.24Z" transform="translate(-1155.854 -403.294)" fill="#64d8cc"/>
      <path id="Trazado_7571" data-name="Trazado 7571" d="M1279.965,422.637a8.2,8.2,0,0,0-4.857.281,1.82,1.82,0,0,0-.226-.144c-.294-.137-.281-.062-.417-.369a3.567,3.567,0,0,1-.116-.629c-.055-1.17.205-2.347.1-3.523-.2-2.347-1.375-4.488-2.353-6.6a40.146,40.146,0,0,0-6.212-10.228,22.455,22.455,0,0,0-10.741-6.232,24.813,24.813,0,0,0-11.5-.766,14.3,14.3,0,0,0-9.537,6.759,55.214,55.214,0,0,0-2.935,5.911q-1.57,3.376-3.085,6.8c-2,4.474-4.071,8.921-6.089,13.4a30.247,30.247,0,0,0-2.217,6.239,20.115,20.115,0,0,0-.082,7.183,16.318,16.318,0,0,0,2.538,7.115,21.14,21.14,0,0,0,5.227,4.789c3.674,2.572,7.669,4.878,12.178,5.247a30.9,30.9,0,0,1-1.389,7.471c-.732,2.292-2,4.652-1.108,7.088a4.154,4.154,0,0,0,1.861,2.271,3.389,3.389,0,0,0,3.133-.452c2.223-1.293,2.914-3.824,3.53-6.157.383-1.45.759-2.9,1.156-4.344.2-.725.411-1.444.616-2.169.157-.568.233-1.662.7-2.08.616-.554,1.963-.527,2.737-.67a21.765,21.765,0,0,0,3.756-1.067,30.277,30.277,0,0,0,12.013-8.476,43.739,43.739,0,0,0,5.1-7.231c.746-1.314,1.437-2.668,2.073-4.043a9.28,9.28,0,0,1,1.2-1.8,8.008,8.008,0,0,0,5.925-.65,7.285,7.285,0,0,0,3.688-6.787c-.157-2.634-1.991-5.521-4.679-6.123Z" transform="translate(-1175.931 -370.155)" fill="#fff"/>
      <path id="Trazado_7572" data-name="Trazado 7572" d="M1216.359,753.9c-.267-3.448-.253-6.91-.486-10.358s-.684-6.937-1.074-10.4c-.787-6.978-1.553-13.963-2.087-20.969-1.067-13.895-.876-27.824-.787-41.746l.075-11.87.034-5.767a28.341,28.341,0,0,0-.021-3.051,29.462,29.462,0,0,1-.233-3.051l-1.19,1.19c1.745-.027,3.482.055,5.22.027,1.532-.027,3.044-.2,4.584-.13,3.27.157,6.533.322,9.81.335a.791.791,0,0,0,0-1.58c-3.27.014-6.54-.1-9.81-.294-1.5-.089-2.956-.41-4.447-.554-1.779-.178-3.578-.15-5.364-.178a1.2,1.2,0,0,0-1.19,1.19c-.041,1.772-.315,3.482-.328,5.261l-.034,5.261-.068,10.515c-.048,7.012-.123,14.032-.1,21.044s.205,14.038.684,21.044,1.218,14,2.011,20.976c.452,3.934.889,7.874,1.45,11.794s1.478,7.642,2.066,11.493c.109.711,1.32.554,1.266-.171h0Z" transform="translate(-1172.597 -449.579)" fill="#010d3d"/>
      <path id="Trazado_7573" data-name="Trazado 7573" d="M1259.3,752.842c-.561.581-.841-1.245-.889-1.526-.151-.889-.205-1.786-.356-2.668-.308-1.813-.65-3.619-.985-5.432-.65-3.5-1.416-6.978-2.128-10.467-1.43-7.026-2.7-14.086-3.872-21.16-2.306-13.826-4.823-27.618-7.149-41.438q-.985-5.829-1.875-11.678-.452-2.935-.862-5.87c-.274-1.957-.335-4.194-1.108-6.075a1.211,1.211,0,0,0-2.367.321,21.817,21.817,0,0,0,.486,5.719c.26,1.875.527,3.708.807,5.562q.831,5.542,1.758,11.062c1.2,7.183,2.477,14.346,3.742,21.516,2.627,14.88,4.864,29.828,7.943,44.619.855,4.125,1.806,8.264,3.065,12.28.335,1.074.759,2.093,1.136,3.147a9.745,9.745,0,0,0,.958,2.47c.342.472.828.794,1.368.486a.759.759,0,0,0,.472-.841.092.092,0,0,0-.151-.041h0Z" transform="translate(-1181.687 -449.631)" fill="#010d3d"/>
      <path id="Trazado_7574" data-name="Trazado 7574" d="M1232.778,404.051c-.855,1.977-1.964,3.8-2.832,5.774s-1.751,3.947-2.682,5.9c-1.786,3.77-3.79,7.416-5.726,11.1a38.235,38.235,0,0,0-4.358,11.651A18.393,18.393,0,0,0,1218.794,450c3.434,6.834,10.57,10.734,17.76,12.458a32.215,32.215,0,0,0,12.52.732,26.2,26.2,0,0,0,9.954-4.132c7.382-4.721,12.143-12.267,15.831-20.025.711-1.491-1.567-2.778-2.2-1.286-2.839,6.643-6.732,13.04-12.451,17.589a25.933,25.933,0,0,1-9.174,4.577,23.838,23.838,0,0,1-11.2.246c-6.739-1.355-13.676-4-17.555-10.043a15.36,15.36,0,0,1-2.36-9.845,30.188,30.188,0,0,1,3.605-10.83c2.032-3.988,4.235-7.881,6.164-11.924.985-2.066,1.929-4.146,2.812-6.26s1.389-4.276,2.114-6.424c.363-1.06-1.382-1.827-1.833-.773h0Z" transform="translate(-1175.135 -373.153)" fill="#010d3d"/>
      <path id="Trazado_7575" data-name="Trazado 7575" d="M1301.668,435.58a3.946,3.946,0,0,1,5.624-.212c1.909,1.669,2.3,4.4,1.792,6.773a7.072,7.072,0,0,1-1.491,3.038,7.389,7.389,0,0,1-2.566,2.121,2.884,2.884,0,0,1-2.613-.075,4.281,4.281,0,0,1-.937-.889c-.349-.39-.889-.609-1.2-.917a.6.6,0,0,0-.937.123,2.862,2.862,0,0,0-.486,1.307,2.67,2.67,0,0,0,.848,2,5.323,5.323,0,0,0,3.147,1.621,6.5,6.5,0,0,0,6.609-3.537,14.644,14.644,0,0,0,1.047-3.674,13.714,13.714,0,0,0,.26-4.16,7.356,7.356,0,0,0-3.427-5.548,5.145,5.145,0,0,0-6.561,1.149c-.493.629.376,1.532.9.9h0Z" transform="translate(-1201.021 -382.407)" fill="#010d3d"/>
      <path id="Trazado_7576" data-name="Trazado 7576" d="M1280.376,410.388c2.4-2.251,4.939-4.31,7.293-6.616a9.839,9.839,0,0,0,2.333-3.236,3.591,3.591,0,0,0-.746-3.722l-1.026,1.765a7.178,7.178,0,0,1,2.456.787c.718.417,1.416.862,2.107,1.327.568.383,1.491-.267,1.218-.937a6.055,6.055,0,0,0-4.632-3.756l.239,1.813a41.453,41.453,0,0,1,3.674-2.463c.9-.54.6-2.244-.575-2.121a10.842,10.842,0,0,0-4.864,1.881l1.608.424c-5.288-11.165-15.051-19.087-25.032-25.908-2.8-1.916-5.979-4-9.427-4.365a.81.81,0,0,0-.8.8,25.328,25.328,0,0,0,.787,5.644l1.177-.91a76.317,76.317,0,0,0-15.885-8.21,61.56,61.56,0,0,0-17.61-3.469,1.457,1.457,0,0,0-1.443,1.444c.144,7.149,5.1,13,10.241,17.452l1.375-1.779a28.052,28.052,0,0,0-16.919-2.059,1.076,1.076,0,0,0-.732,1.293c.4,2.381,2.381,4.077,4.276,5.364a70.744,70.744,0,0,0,7.437,4.481l.472-1.738a17.151,17.151,0,0,0-7.047.588c-2.381.814-.985,3.516-.089,4.987,2.094,3.441,5.576,5.733,8.9,7.854,1.012.643,1.936-.958.937-1.6-2.668-1.717-5.439-3.516-7.409-6.061a11.949,11.949,0,0,1-1.211-1.922,8.515,8.515,0,0,1-.452-1.06c-.164-.479-.144-.369.37-.5a19.474,19.474,0,0,1,6.007-.424.939.939,0,0,0,.472-1.738,39.651,39.651,0,0,1-6.807-3.845c-1.738-1.272-3.462-2.716-3.818-4.946l-.732,1.293a24.805,24.805,0,0,1,15.215,1.984c1.095.534,2.374-.855,1.375-1.779-4.5-4.173-8.859-9.407-8.955-15.851L1222.69,362a79.721,79.721,0,0,1,16.884,3.2,62.737,62.737,0,0,1,15.8,6.978.809.809,0,0,0,1.177-.91,13.808,13.808,0,0,1-.739-5.213l-1.012.766c3.01.725,5.261,2.969,7.751,4.652s4.816,3.325,7.142,5.1a73.957,73.957,0,0,1,12.574,11.849,39.274,39.274,0,0,1,5.179,8.292,1.187,1.187,0,0,0,1.608.424,13.164,13.164,0,0,1,3.982-1.669l-1.108-1.9a37.978,37.978,0,0,1-3.3,2.531c-.643.438-.67,1.642.24,1.813a5.1,5.1,0,0,1,3.64,2.477l1.136-1.136c-.773-.424-1.56-.828-2.367-1.19a13.255,13.255,0,0,1-2.223-1.416c-.965-.684-1.806.6-1.443,1.444.294.684-.534,1.991-.889,2.518a20.235,20.235,0,0,1-2.292,2.552c-.9.944-1.7,1.9-2.518,2.914-.862,1.067-1.868,2.032-2.8,3.031a.905.905,0,0,0,1.279,1.279h0Z" transform="translate(-1174.59 -359.117)" fill="#010d3d"/>
      <path id="Trazado_7577" data-name="Trazado 7577" d="M1239.828,400.315a25.643,25.643,0,0,0,2.155,6.821,23.3,23.3,0,0,0,1.929,3.257,4.223,4.223,0,0,0,2.223,2,1.833,1.833,0,0,0,2.094-1.368,21.214,21.214,0,0,0,1.033-3.77,28.454,28.454,0,0,0,.369-7.991l-1.69.226a38.4,38.4,0,0,0,2.969,8.565,30.22,30.22,0,0,0,4.939,7.594c.876.951,2.189,1.833,3.537,1.409s1.7-1.745,1.854-2.949c.212-1.724.322-3.469.39-5.206a20.533,20.533,0,0,0-.109-5.234l-1.662.7c.547,1.252.821,2.634,1.293,3.927s.978,2.456,1.546,3.646a41.535,41.535,0,0,0,4.214,6.951.755.755,0,0,0,1.286,0,24.148,24.148,0,0,0,3.975-11.076l-1.806.246a40.9,40.9,0,0,1,2.1,8.052c.233,1.4.39,2.8.506,4.214a17.576,17.576,0,0,0,.541,3.681c.609,2.011,2.292,4,4.57,3.954s3.619-1.943,4.488-3.742a.816.816,0,0,0-1.409-.821c-.807,1.334-1.922,3.51-3.838,2.8-2.155-.807-2.483-3.428-2.648-5.4a68.368,68.368,0,0,0-2.538-13.217c-.233-.814-1.621-.937-1.779,0a36.058,36.058,0,0,1-1.129,5.439,25.7,25.7,0,0,1-2.326,5.138l1.17-.151a32.922,32.922,0,0,1-4.16-6.6,31.169,31.169,0,0,1-1.443-3.619,14.044,14.044,0,0,1-.93-3.872c-.027-.978-1.621-1.3-1.786-.239a31.451,31.451,0,0,0-.075,4.4c-.021,1.437-.089,2.99-.2,4.488-.048.657.082,2.908-1.033,2.737-1.047-.157-1.991-1.69-2.579-2.456a32.627,32.627,0,0,1-6.273-13.806c-.185-.937-1.792-.739-1.69.226a26.443,26.443,0,0,1-.055,6.451,29.14,29.14,0,0,1-.575,2.969c-.13.513-.267,1.026-.431,1.532-.068.212-.137.623-.41.677-.171.034-.479-.328-.568-.424a18.545,18.545,0,0,1-3.01-4.844,23.292,23.292,0,0,1-1.84-5.63c-.15-.78-1.313-.445-1.183.328h0Z" transform="translate(-1182.377 -371.531)" fill="#010d3d"/>
      <path id="Trazado_7578" data-name="Trazado 7578" d="M1244.142,432.016a58.328,58.328,0,0,0-7.943,4.645,34.555,34.555,0,0,0-6.575,6.568,1.554,1.554,0,0,0-.233,1.8c2.162,4.009,5.1,8.353,9.735,9.639.4.109.862-.383.581-.753-.636-.828-1.443-1.532-2.052-2.388a25.228,25.228,0,0,0-2.148-2.538,19.579,19.579,0,0,1-3.557-5.453l-.233,1.8a72.419,72.419,0,0,1,6.205-6.424,35.508,35.508,0,0,1,3.215-2.867,33.545,33.545,0,0,1,3.865-2.531c.972-.547.116-1.984-.869-1.491h0Z" transform="translate(-1179.022 -382.114)" fill="#010d3d"/>
      <path id="Trazado_7579" data-name="Trazado 7579" d="M1236.727,427.564a4.708,4.708,0,0,1,.4-.91,3.563,3.563,0,0,1,.664-.78,5.518,5.518,0,0,1,1.724-1.013c.1-.041,0,0-.021,0,.041-.014.075-.034.116-.048l.24-.082c.178-.055.363-.1.547-.144.007,0,.171-.021.068-.014.048,0,.1-.007.157-.007h.151c-.021,0-.1-.021.007,0a.877.877,0,0,1,.144.041c-.048-.021-.055-.041-.021,0,.055.075-.014-.014-.027-.034.034.034.068.075.109.109-.109-.089-.014,0,.034.062.089.137-.014-.089.034.068.021.075.048.233.027.062a1.922,1.922,0,0,1,.007.28.626.626,0,0,1-.007.116c0-.034.034-.137,0-.034s-.048.192-.075.287c-.014.048-.034.1-.048.144,0,0-.062.151-.027.068s-.034.062-.034.062c-.027.062-.062.116-.089.178-.246.458-.541.889-.807,1.341-.315.534-.9,1.3-.65,1.936a.987.987,0,0,0,1.17.664c.677-.109,1.047-1.026,1.341-1.573.26-.486.534-.971.746-1.478a3.216,3.216,0,0,0-.075-3.181,2.134,2.134,0,0,0-1.416-.91,3.587,3.587,0,0,0-1.7.2,4.689,4.689,0,0,0-1.416.718,7.279,7.279,0,0,0-.889.889,7.022,7.022,0,0,0-1.443,2.675.551.551,0,0,0,1.06.294h0Z" transform="translate(-1181.055 -379.214)" fill="#010d3d"/>
      <path id="Trazado_7580" data-name="Trazado 7580" d="M1268.136,436.162c-.007.1.007-.068.014-.068.021-.082.041-.164.068-.246a1.553,1.553,0,0,1,.123-.246c.089-.144-.062.068.041-.062a2.376,2.376,0,0,1,.178-.192,4.073,4.073,0,0,1,.363-.322c.137-.116-.1.068.055-.041.075-.055.151-.109.226-.157l.185-.123c.021-.014.185-.1.034-.027.349-.178.712-.322,1.067-.486.137-.062.274-.13.411-.2.068-.034.137-.068.205-.1-.2.082-.014.007.021,0a4.507,4.507,0,0,1,.431-.137c.089-.027.178-.048.267-.068.116-.027.226-.027.041-.014.144-.014.281-.007.417-.014.308-.014-.144-.055.021,0,.062.021.13.027.2.048.041.014.226.1.089.027s.041.041.075.055c.144.055-.15-.178.041.027.021.027.212.233.1.1-.144-.171.205.335.089.144-.1-.157.034.1.041.123a1.928,1.928,0,0,1,.048.192,1.765,1.765,0,0,1,.034.2c-.007-.041-.034-.267-.014-.027.014.144.041.287.062.431a4.861,4.861,0,0,0,.15.493c-.027-.089-.007-.171-.021,0,0-.034-.007-.212,0,.027,0,.137,0,.28.014.417a2.289,2.289,0,0,1-.1.958,9.182,9.182,0,0,1-.924,2.025,4.2,4.2,0,0,0-.575,1.006.7.7,0,0,0,.677.889c.52-.007.78-.554,1.006-.944.205-.356.39-.725.568-1.1.376-.787.7-1.6,1.033-2.4l-.212.363a2.209,2.209,0,0,0,.513-.937c.014-.041.171-.445.075-.212a2.466,2.466,0,0,0,.233-.794,3.437,3.437,0,0,0-.417-1.9,3.348,3.348,0,0,0-3.667-1.6,6.553,6.553,0,0,0-3.339,1.779,4.528,4.528,0,0,0-1.751,3.14.9.9,0,0,0,1.806,0h0Z" transform="translate(-1190.749 -381.887)" fill="#010d3d"/>
      <path id="Trazado_7581" data-name="Trazado 7581" d="M1255.726,471.074a8.486,8.486,0,0,0,4.6,1.286,9.473,9.473,0,0,0,4.946-1.772,12.567,12.567,0,0,0,3.7-3.469c.848-1.245,1.991-3.64,1.088-5.09a1.085,1.085,0,0,0-1.854,0,7.913,7.913,0,0,0-.472,2.011,6.062,6.062,0,0,1-.773,1.772,9.71,9.71,0,0,1-2.832,2.8,10.657,10.657,0,0,1-3.749,1.806,5.247,5.247,0,0,1-3.838-.759c-.9-.547-1.7.841-.814,1.4h0Z" transform="translate(-1187.281 -391.459)" fill="#010d3d"/>
      <path id="Trazado_7582" data-name="Trazado 7582" d="M1272.994,462.765a6.169,6.169,0,0,1,1.006-.014,1.683,1.683,0,0,1,.253.027c.1.007-.034,0-.048,0l.144.021c.164.027.328.068.493.109s.322.1.479.151c.068.027.137.048.2.075.151.062.027.014,0,0,.041.021.089.041.13.062a4,4,0,0,1,.445.239c.062.041.123.082.178.123s.253.2.109.075a1.335,1.335,0,0,0,.862.438.919.919,0,0,0,.8-.4.971.971,0,0,0-.021-.965,1.833,1.833,0,0,0-.616-.527,7.77,7.77,0,0,0-1.97-.862,6.617,6.617,0,0,0-2.429-.2.849.849,0,0,0-.828.828.84.84,0,0,0,.828.828h0Z" transform="translate(-1192.597 -391.326)" fill="#010d3d"/>
      <path id="Trazado_7583" data-name="Trazado 7583" d="M1246.785,488a47.261,47.261,0,0,1-2.689,9.284c-.322.814-.684,1.608-1.04,2.408a2.191,2.191,0,0,0-.219,1.69,8.339,8.339,0,0,0,1.348,1.936,18.44,18.44,0,0,1,1.471,2.107.8.8,0,0,0,1.095.287,16.213,16.213,0,0,1,4.44-2.066c1.437-.547,1.751-2.627,2.217-3.92.616-1.7,1.32-3.352,1.922-5.049s1.512-3.626,1.532-5.439a1,1,0,0,0-1.847-.5,19.245,19.245,0,0,0-1.567,4.912c-.431,1.594-.807,3.161-1.293,4.721-.26.828-.541,1.656-.821,2.477a6.427,6.427,0,0,1-.322.924c-.239.452-.513.493-.978.636a18.634,18.634,0,0,0-4.091,1.929l.965.123a17.786,17.786,0,0,1-1.491-1.861c-.479-.636-1.293-1.355-1.094-2.162a14.448,14.448,0,0,1,.828-1.9c.246-.6.506-1.259.732-1.9a42.156,42.156,0,0,0,1.916-8.367c.089-.657-.9-.958-1.012-.28h0Z" transform="translate(-1183.299 -399.707)" fill="#010d3d"/>
      <path id="Trazado_7584" data-name="Trazado 7584" d="M1242.346,512.324a13.745,13.745,0,0,1-3.469,1.977l.814.465a30.161,30.161,0,0,1-1.532-4.782,9.9,9.9,0,0,1-.171-2.292,16.6,16.6,0,0,1,.431-2.319.62.62,0,0,0-1.129-.472c-.9,1.423-.787,3.516-.534,5.11a22.342,22.342,0,0,0,1.717,5.261.665.665,0,0,0,.9.239c1.136-.8,2.381-1.416,3.51-2.244.554-.41.034-1.341-.547-.937h0Z" transform="translate(-1181.352 -405.07)" fill="#010d3d"/>
      <path id="Trazado_7585" data-name="Trazado 7585" d="M1248.384,514.355a16.507,16.507,0,0,0,1.252,2.155c.39.609.718,1.464,1.389,1.806.9.465,1.779-.486,2.5-.9s1.437-.841,2.141-1.293,1.4-.917,2.073-1.4,1.608-.78,1.875-1.649a5.6,5.6,0,0,0-.294-2.607,6.874,6.874,0,0,0-.889-2.593.437.437,0,0,0-.787.1c-.431,1.4,0,2.928.082,4.358.034.554-.4.835-.821,1.136-.582.417-1.17.821-1.772,1.2s-1.163.725-1.758,1.06a18.488,18.488,0,0,1-1.868.862c.212.068.26.075.144,0-.062-.041-.123-.089-.185-.13-.123-.089-.24-.185-.356-.287a4.334,4.334,0,0,1-.7-.711,12.7,12.7,0,0,1-1.047-1.7c-.335-.657-1.272-.082-.978.575h0Z" transform="translate(-1185.063 -406.041)" fill="#010d3d"/>
      <path id="Trazado_7586" data-name="Trazado 7586" d="M1269.506,802.558a.75.75,0,0,0,0-1.5.75.75,0,0,0,0,1.5Z" transform="translate(-1191.524 -498.712)" fill="#010d3d"/>
      <g id="Grupo_4708" data-name="Grupo 4708" transform="translate(12.118 304.914)">
        <path id="Trazado_7587" data-name="Trazado 7587" d="M1193.816,806.49c-2.825,3.058-7.375,3.8-11.541,3.653a15.02,15.02,0,0,0-3.551.1,3.979,3.979,0,0,0-2.839,1.943,3.808,3.808,0,0,0,1.382,4.481,8.871,8.871,0,0,0,4.8,1.457,28.82,28.82,0,0,0,17.425-4.385c1.621,1.32,4.077,2.258,5.7.937a3.642,3.642,0,0,0,1.088-3.366,9.565,9.565,0,0,0-1.43-3.393,2.556,2.556,0,0,0-1.006-1.108,2.631,2.631,0,0,0-1.286-.137l-9.229.547" transform="translate(-1174.207 -805.341)" fill="#010d3d"/>
        <path id="Trazado_7588" data-name="Trazado 7588" d="M1192.7,805.481c-2.21,2.155-5.61,2.846-8.613,2.8-3.277-.055-7.478-1.019-9.7,2.135s.493,6.547,3.4,7.655a15.769,15.769,0,0,0,5.11.787,30.672,30.672,0,0,0,5.329-.328,29.475,29.475,0,0,0,11.316-4.146l-1.656-.212c1.861,1.478,4.406,2.627,6.739,1.526s2.908-4.091,2.155-6.41a10.774,10.774,0,0,0-1.827-3.345,2.934,2.934,0,0,0-1.621-1.081,5.584,5.584,0,0,0-2.066.219,42.527,42.527,0,0,1-4.283.2,14.421,14.421,0,0,0-4.536.493.953.953,0,0,0,0,1.82c2.018.5,4.3,0,6.349-.157a14.474,14.474,0,0,1,3.072-.137c.9.137,1.136.807,1.532,1.56.6,1.142,1.478,3.017.376,4.153-1.04,1.067-3.038-.055-3.948-.773a1.42,1.42,0,0,0-1.656-.212c-5.165,3.257-11.705,5.172-17.835,4.262-1.334-.2-2.887-.622-3.64-1.847a1.955,1.955,0,0,1,.458-2.839c1.286-.828,3.044-.568,4.488-.527a18.537,18.537,0,0,0,4.194-.451,15.773,15.773,0,0,0,4.262-1.341,12.83,12.83,0,0,0,3.564-2.839c.575-.65-.328-1.58-.958-.958h0Z" transform="translate(-1173.567 -804.81)" fill="#010d3d"/>
      </g>
      <g id="Grupo_4709" data-name="Grupo 4709" transform="translate(75.813 303.665)">
        <path id="Trazado_7589" data-name="Trazado 7589" d="M1268.743,804.41a18.567,18.567,0,0,0-.39,5.863,7.411,7.411,0,0,0,.889,3.181,3.456,3.456,0,0,0,2.675,1.758,2.271,2.271,0,0,0,2.36-1.888c2.75,2.518,5.74,4.9,9.263,6.116s7.69,1.1,10.686-1.108a2.084,2.084,0,0,0,.677-.7,1.879,1.879,0,0,0-.1-1.587c-.978-2.134-3.5-2.976-5.74-3.7-3.763-1.225-7.765-3.038-9.4-6.636-.192-.417-.4-.9-.848-1.019a1.465,1.465,0,0,0-.78.1,13.7,13.7,0,0,1-5.186.554c-1.382-.116-2.873-.424-4.084.26l.91,4.447" transform="translate(-1267.176 -803.435)" fill="#010d3d"/>
        <path id="Trazado_7590" data-name="Trazado 7590" d="M1267.553,803.775c-.814,3.154-1.662,7.416.417,10.276a4.381,4.381,0,0,0,3.886,1.957,3.468,3.468,0,0,0,3.154-2.791l-2.141.568c3.195,2.757,6.732,5.548,10.878,6.65a14.947,14.947,0,0,0,5.931.335,9.877,9.877,0,0,0,5.35-2.278c1.662-1.6.458-4.009-.985-5.275a16.521,16.521,0,0,0-4.885-2.586c-3.181-1.32-6.739-2.47-8.593-5.63-.6-1.006-1.122-2.135-2.511-2a11.393,11.393,0,0,0-1.69.568,9.683,9.683,0,0,1-1.854.274c-2.422.116-4.85-1.095-6.958.6a.99.99,0,0,0-.26.992c.493,1.423.835,2.9,1.3,4.337.2.623,1.272.561,1.2-.164-.137-1.485-.4-2.962-.5-4.447l-.746.985c1.717-.458,3.592.048,5.35-.109a22.737,22.737,0,0,0,2.73-.363,3.858,3.858,0,0,1,1.17-.226c-.2-.021-.1-.233.034.123.1.239.2.486.308.718,1.368,2.976,4.3,4.762,7.211,5.973,1.478.616,3,.944,4.508,1.45,1.252.417,2.668,1.019,3.229,2.312.328.753-.294.992-.889,1.348a8.493,8.493,0,0,1-2.367.965,10.854,10.854,0,0,1-4.939-.027c-4.043-.9-7.293-3.53-10.207-6.335-.623-.6-1.991-.438-2.141.568a1.064,1.064,0,0,1-1.409.9,2.835,2.835,0,0,1-1.786-2.011,15.433,15.433,0,0,1-.417-7.279c.164-.882-1.136-1.272-1.368-.376h0Z" transform="translate(-1266.67 -802.985)" fill="#010d3d"/>
      </g>
      <path id="Trazado_7591" data-name="Trazado 7591" d="M1288.15,395.255a28.622,28.622,0,0,0-2.176-5.1,33,33,0,0,0-7.341-8.552c-2.9-2.579-5.959-5.015-9.106-7.293a81.713,81.713,0,0,0-11.514-6.951,1.246,1.246,0,0,0-1.806,1.382,19.99,19.99,0,0,1,.205,3.674,38.909,38.909,0,0,0-5.042-3.393,47.323,47.323,0,0,0-7.56-3.311,59.914,59.914,0,0,0-8.812-2.2c-3.1-.561-6.274-1.163-9.414-1.423a1.709,1.709,0,0,0-1.635,2.155,46.08,46.08,0,0,0,7.738,12.971c-.13-.048-.267-.082-.39-.123a29.536,29.536,0,0,0-4.009-1.06,22.591,22.591,0,0,0-8.545.281,1.7,1.7,0,0,0-.746,2.832,34.594,34.594,0,0,0,9.824,5.993,10.773,10.773,0,0,1-5.63.855c-1.56-.137-2.224,1.963-1.231,2.976a57.094,57.094,0,0,0,8.155,7.1,1.593,1.593,0,0,0,2.169-.568l1.786-3.017.78-1.314c.13.274.267.547.39.814.383.787.773,1.574,1.156,2.367.814,1.683,1.649,3.373,2.47,5.063.6,1.218,2.825,1.006,3.044-.4.342-2.182.7-4.372,1.054-6.561a25.259,25.259,0,0,0,6.623,9.845c.281.527.561,1.06.869,1.573a1.9,1.9,0,0,0,3.51-.951,6.674,6.674,0,0,0-.486-2.75,15.8,15.8,0,0,0,.424-5.268c-.021-.479-.048-.965-.068-1.45a68.182,68.182,0,0,0,5.275,11.439,1.884,1.884,0,0,0,.725.7,1.485,1.485,0,0,0,2.771-.739,13.854,13.854,0,0,0,2.641-5.288c.185.739.383,1.478.547,2.2l1.081,4.892c.363,1.635.7,3.277,1.081,4.9a4.215,4.215,0,0,0,2.477,3.277c2.258.78,4.611-.841,6.171-2.682,2.148.123,4.7-1.717,6.014-3.3a20.582,20.582,0,0,0,6.834-7.9c.794-1.847.281-3.859-.294-5.692Z" transform="translate(-1175.325 -360.054)" fill="#010d3d"/>
    </g>
  </g>
</svg>
