<svg xmlns="http://www.w3.org/2000/svg" width="327.206" height="481.802" viewBox="0 0 327.206 481.802">
  <g id="IICE_LandingCompliancePenal_Nivel1_4" transform="translate(-702.753 -161.369)">
    <g id="Grupo_4677" data-name="Grupo 4677" transform="translate(702.753 326.976)">
      <g id="Grupo_4675" data-name="Grupo 4675" transform="translate(47.279 245.166)">
        <path id="Trazado_7070" data-name="Trazado 7070" d="M850.273,863.46c-3.888-2.569-7.821-5.4-9.969-9.669a16,16,0,0,1-1.836-6.737c-.038-2.39-.249-4.787-.453-7.177-.465-5.526-.931-11.058-1.109-16.6-.159-4.9-.013-10.02-2.358-14.481a5.39,5.39,0,0,0-3.053-2.83,3.445,3.445,0,0,0-3.9,1.746,12.066,12.066,0,0,0-1.192,3.958,19.151,19.151,0,0,0-.185,4.755,2.421,2.421,0,0,0,.344,1.026,58.2,58.2,0,0,0,.2,8.815,46.891,46.891,0,0,0,1.339,7.279c.612,2.193,1.4,4.328,2.052,6.508a28.566,28.566,0,0,1,1.339,6.769,21.561,21.561,0,0,1-1.026,6.635c-.529,2.027-.937,4.239-.1,6.246a6.936,6.936,0,0,0,3.984,3.627,29.039,29.039,0,0,0,7.234,1.67,44.416,44.416,0,0,0,8.178.357,1.025,1.025,0,0,0,.51-1.893Z" transform="translate(-794.777 -805.842)" fill="#fff"/>
        <path id="Trazado_7071" data-name="Trazado 7071" d="M797.849,867.843a9.655,9.655,0,0,1-2.428-1.931,30.847,30.847,0,0,1-2.122-2.25,25.377,25.377,0,0,1-3.429-5.144c-2.148-4.245-2.632-8.777-2.7-13.481-.019-1.351,0-2.7-.057-4.054-.051-1.3-.115-2.6-.172-3.9q-.182-3.987-.357-7.98c-.121-2.7-.185-5.392-.147-8.088a17.56,17.56,0,0,0-.8-6.807,6.089,6.089,0,0,0-2.518-3.308,3.264,3.264,0,0,0-4.258,1.09,7.986,7.986,0,0,0-1.211,3.856,6.988,6.988,0,0,0,.032,1.676c-.223,1.683-.465,3.359-.542,5.074-.1,2.454-.2,4.914-.2,7.374a52.844,52.844,0,0,0,.465,7.508,57.727,57.727,0,0,0,1.549,6.96,37.7,37.7,0,0,1,1.377,6.692,29.5,29.5,0,0,1-.465,6.61c-.338,2.269-.918,5.016-.108,7.247.829,2.288,3.053,3.263,5.086,4.27q1.778.88,3.6,1.664a19.727,19.727,0,0,0,4.009,1.453c2.435.465,5.309-.3,6.055-2.932a1.421,1.421,0,0,0-.65-1.6Z" transform="translate(-776.93 -807.535)" fill="#fff"/>
      </g>
      <path id="Trazado_7072" data-name="Trazado 7072" d="M870.675,439.491A10.987,10.987,0,0,0,862.6,435.1a10.1,10.1,0,0,0-4.9.81c0-.1.006-.2.006-.293a44.866,44.866,0,0,0-.178-4.627,11.354,11.354,0,0,0-4.965-8.005c-6.367-4.143-14.615-.491-18.917,4.876a39.888,39.888,0,0,0-5.169,9.044,20.111,20.111,0,0,0-19.695-4.551c-7.317,2.448-12.671,9.357-12.193,17.216a17.835,17.835,0,0,0,1.581,6.323c.108.229.21.459.325.695a16.19,16.19,0,0,0-14.366,6.833,19.376,19.376,0,0,0-3.353,10.957,24.817,24.817,0,0,0,2.875,11.384,32.087,32.087,0,0,0,5.883,8.044c-3.595,1.44-6.342,4.85-7.935,8.343a15.354,15.354,0,0,0-1.587,9.006,11.559,11.559,0,0,0,3.639,6.418,12.266,12.266,0,0,0,4.723,2.683,14.448,14.448,0,0,0-.166,13.863c2.62,4.7,8.12,7.483,13.4,5.915a12.291,12.291,0,0,0,3.767-1.855,13.128,13.128,0,0,0,6.635,7.763c4.889,2.473,10.682,1.574,15.131-1.434a21.314,21.314,0,0,0,5.6-5.59,17.859,17.859,0,0,0,11.944-3.2,17.572,17.572,0,0,0,7.177-11.932,17.916,17.916,0,0,0-.319-6.718,17.359,17.359,0,0,0,4.78-23.946c3.7-2.7,5.258-7.833,5.494-12.3a8.448,8.448,0,0,0-.969-4.6,37.426,37.426,0,0,0-2.256-3,5.755,5.755,0,0,1-.446-.733,1.5,1.5,0,0,1-.153-.453c-.006-.032-.026-.147-.026-.166-.006-.115.006-.223,0-.338v-.013c.038-.159.089-.312.127-.472.006-.019.026-.07.038-.108a2.291,2.291,0,0,1,.108-.217c.108-.21.223-.408.351-.606a8.387,8.387,0,0,1,.809-1.084c1.44-1.772,2.862-3.512,2.957-5.743a13.475,13.475,0,0,0,3.168-1.759,21.7,21.7,0,0,0,3.544-3.423,17.272,17.272,0,0,0,4.028-9.44,13.49,13.49,0,0,0-2.428-9.191Z" transform="translate(-730.709 -421.194)" fill="#00b2e3"/>
      <path id="Trazado_7073" data-name="Trazado 7073" d="M823.226,770.347c-4-15.711-8.5-31.429-10.778-47.5-.261-1.861-.459-3.729-.555-5.609a55.457,55.457,0,0,0-.465-6.17c-.574-3.55-2.46-6.928-5.857-8.426a18.522,18.522,0,0,0-5.309-1.275c-1.912-.229-3.837-.376-5.762-.446a68.479,68.479,0,0,0-11.817.6,51.226,51.226,0,0,0-12.276,3.008,9.727,9.727,0,0,0-4.85,3.665,6.122,6.122,0,0,0-.873,4.321c-.038.134-.064.261-.108.4a9,9,0,0,0-.4,1.4c-.083.542-.185,1.077-.274,1.619a60.837,60.837,0,0,0-.478,6.463c-.229,4.092-.351,8.19-.408,12.282q-.182,12.439.555,24.877.421,7.075,1.141,14.131a1.981,1.981,0,0,0,1.906,1.906,103.474,103.474,0,0,0,10.982.134q5.5-.115,10.988-.217c7.1-.14,14.226-.14,21.3-.816a78.966,78.966,0,0,0,12.008-2.008A1.928,1.928,0,0,0,823.226,770.347Z" transform="translate(-724.594 -522.614)" fill="#010d3d"/>
      <path id="Trazado_7074" data-name="Trazado 7074" d="M805.987,898.785a2.425,2.425,0,0,0-3.85-1.938,5.57,5.57,0,0,0-2.116-.242c-1.237.1-2.422.37-3.678.344a21.361,21.361,0,0,1-3.6-.421,31.225,31.225,0,0,1-3.627-.937,8.789,8.789,0,0,0-2.358-.873,26.087,26.087,0,0,1-6.17-3.62,1.193,1.193,0,0,0-1.957.516,6.037,6.037,0,0,0-.357,3.1,3.9,3.9,0,0,0-.057.542,4.149,4.149,0,0,0,2.524,3.856,4.305,4.305,0,0,0,2.5.268,20.435,20.435,0,0,0,2.212-.988c1-.3,2.346.733,3.187,1.224a21.977,21.977,0,0,0,4.417,1.982,19.715,19.715,0,0,0,4.787.892,19.243,19.243,0,0,0,2.186.013,6.7,6.7,0,0,0,1.013-.147,4.922,4.922,0,0,0,5.469-1.179,1.482,1.482,0,0,0-.523-2.4Z" transform="translate(-730.115 -591.476)" fill="#010d3d"/>
      <path id="Trazado_7075" data-name="Trazado 7075" d="M854.011,890.908a22.813,22.813,0,0,0-5.552.733,28.112,28.112,0,0,1-2.887.4c-.714-.236-1.428-.478-2.142-.707s-1.4-.459-2.1-.688a9.99,9.99,0,0,1-2.269-.841,1.639,1.639,0,0,0-1.555-.057c-1.428-1.364-2.824-2.773-4.723-3.372a1.776,1.776,0,0,0-.555-.083,3.687,3.687,0,0,0-2.352-1.166,2.393,2.393,0,0,0-2.671,2.218,2.711,2.711,0,0,0,1.077,2.193,5.359,5.359,0,0,0,1.562,4.436c1.141,1.1,2.964,1.651,4.251.433a2.816,2.816,0,0,0,.771-1.345c.07.019.134.045.2.064a1.811,1.811,0,0,0,1.192-.146,17.972,17.972,0,0,0,2.824,2.193,37.153,37.153,0,0,0,4.736,2.346,16.254,16.254,0,0,0,5.532,1.466c2.817.147,8.7-.58,8.515-4.513a3.9,3.9,0,0,0-3.863-3.55Z" transform="translate(-747.883 -589.425)" fill="#010d3d"/>
      <path id="Trazado_7076" data-name="Trazado 7076" d="M858.766,605.737c-1-2.543-1.957-5.061-3.155-7.515q-1.75-3.585-3.78-7.011a46.875,46.875,0,0,0-4.4-6.61,7.055,7.055,0,0,0-7.037-2.154,11.535,11.535,0,0,0-5.182,2.989c-.128-.255-.261-.51-.389-.765a1.869,1.869,0,0,0-2.524-.657c-5.73,3.117-11.409,6.361-17.209,9.344-.465-3.11-1.02-6.214-1.523-9.318L811.632,572.1q-.975-5.975-1.944-11.944a15.886,15.886,0,0,0-1.447-5.086,9.32,9.32,0,0,0-3.168-3.308,25.274,25.274,0,0,0-4.066-1.989,28.137,28.137,0,0,1-2.773-1.319l3.563-5.934a33.545,33.545,0,0,0,26.655-3.754,31.609,31.609,0,0,0,5.564-4.392,22.312,22.312,0,0,0,7.821-16.47c0-4.417-1.816-8.356-3.608-12.3a29.66,29.66,0,0,1-2.983-12.365,27.857,27.857,0,0,1,.223-3.563c.013-.076.025-.159.038-.242a10.28,10.28,0,0,0,1.351-2.964c-2.658,2.607-6.329,4.544-10.122,3.544a5.708,5.708,0,0,1-4.36-4.972,22.62,22.62,0,0,1-2.18,2.173c-2.282,2.027-6.163,4.946-9.369,3.193a5.108,5.108,0,0,1-2.18-3.4c-.229-.873-.4-1.753-.612-2.626a19.619,19.619,0,0,1-1.848,3.091c-1.938,2.645-4.621,5.577-7.852,6.578a3.774,3.774,0,0,1-3.627-.535,4.375,4.375,0,0,1-1.358-2.435c-.618,1.9-1.058,3.869-1.651,5.768a28.419,28.419,0,0,1-3.066,6.979.525.525,0,0,1-.892,0c-1.192-2.3-1.982-4.761-2.964-7.139a3.94,3.94,0,0,0-1.7.1c-1.97.574-3.123,2.473-3.639,4.347a15.812,15.812,0,0,0-.089,7.164c.478,2.25,2.269,4.551,4.831,4.086,1.428-.255,2.269-1.415,3.27-2.339-.185,2.1-.229,4.245-.268,6.329a49.948,49.948,0,0,0,.5,8.394,24.927,24.927,0,0,0,5.564,12.646,47.206,47.206,0,0,0-4.863,10.192,11.413,11.413,0,0,1-4.035-.86c-1.581-.567-3.123-1.237-4.736-1.708a16.8,16.8,0,0,0-10.9.918,67.96,67.96,0,0,0-10.039,5.513,100.5,100.5,0,0,0-9.37,6.457c-5.909,4.64-10.784,10.51-15.711,16.138a148.968,148.968,0,0,0-13.277,17.088,73.246,73.246,0,0,0-5.233,9.535,1.008,1.008,0,0,0-.771.382q-4.484,5.354-9.032,10.663c-.854,1.007.586,2.473,1.466,1.466a8.663,8.663,0,0,1,1.4-1.294c-1.058,2.122-2.135,4.239-3.2,6.355-.574,1.141,1.135,2.148,1.715,1.007a13.159,13.159,0,0,1,3.008-3.888q-.535,3.375-1.064,6.756c-.166,1.052,1.275,1.887,1.855.784,1.275-2.422,2.537-4.844,3.805-7.26.083.2.166.4.249.606a1,1,0,0,0,1.963-.268,5.838,5.838,0,0,1,.574-2.785c.593-.969,1.313-1.874,1.874-2.855a43.26,43.26,0,0,1,3.754-5.424c2.964-3.722,6.049-7.355,9.216-10.912a251.592,251.592,0,0,1,20.2-20.192c1.989-1.772,3.984-3.55,6.081-5.195.988-.778,1.97-1.562,2.97-2.307-.191.873-.389,1.746-.58,2.626l-1.434,6.463q-1.463,6.616-2.932,13.232c-.459,2.065-.905,4.13-1.53,6.151a42.347,42.347,0,0,1-2.4,5.934,114.635,114.635,0,0,0-5.029,11.811q-.583,1.683-1.1,3.391a15.488,15.488,0,0,0-.9,3.646c-.045.956-.108,1.912-.172,2.868a1.885,1.885,0,0,0-1.7,1.829q-.325,3.06-.65,6.125a13.53,13.53,0,0,0-.14,3.786c2.511.032,4.991.516,7.489.8,5.354.6,10.708-.306,16.068-.083,1.332.057,2.715.344,4.079.351.427-.038.86-.083,1.287-.128l.357-.038c1.708-.427,1.6-2.575,1.919-3.984a.908.908,0,0,1,1.644-.217,8.109,8.109,0,0,0,2.5,3.435,3.07,3.07,0,0,0,1.523.465,7.59,7.59,0,0,0,2.371-.14,50.449,50.449,0,0,1,5.915-1.224c1.383-.127,2.792.051,4.175.026a51.653,51.653,0,0,0,.108-5.794c-.089-2.078-.293-4.156-.389-6.24-.1-2.008.038-4.073.1-6.081a65.182,65.182,0,0,1,1.064-10.912c1.23-5.985,3.831-12.1,8.547-16.138.867,3.709,1.81,7.381,3.008,11a112.852,112.852,0,0,0,4.972,12.5,1.243,1.243,0,0,0,1.689.44q6.635-4.886,13.385-9.644l6.731-4.755c1.8-1.275,3.62-2.53,5.354-3.9a21.447,21.447,0,0,0,1.625,2.562,4.846,4.846,0,0,0,.816,6.106,1.4,1.4,0,0,0,1.931,0,5.779,5.779,0,0,0,.4-.484c.223.293.44.593.663.886a1.507,1.507,0,0,0,1.472.707,1.455,1.455,0,0,0,1.224-1.058,8.626,8.626,0,0,0,.128-.982,1.639,1.639,0,0,0,1.523.351,4.254,4.254,0,0,0,2.409-5.539.877.877,0,0,1,.542.172c.918.561,1.46,1.893,1.982,2.773,1.492,2.518,2.964,5.093,4.29,7.706.9,1.772,4,.529,3.263-1.377Z" transform="translate(-703.509 -444.107)" fill="#fff"/>
      <path id="Trazado_7077" data-name="Trazado 7077" d="M840.5,586.546a13.789,13.789,0,0,1-2.843,3.027c-.064.051-.134.1-.2.147a6.479,6.479,0,0,0-2.084.44.141.141,0,0,0-.051.006v.013c-.1.038-.2.076-.3.115a1,1,0,0,0-.472.472.567.567,0,0,1-.032-.064c-.759-1.472-1.5-2.945-2.256-4.417-.363-.937-.759-1.868-1.173-2.785a1.344,1.344,0,0,0-.554-.625c-.121-.236-.242-.472-.357-.708a.749.749,0,0,0-1.281-.026c-.331-.37-1.058-.274-1.02.344.121,1.816.217,3.633.306,5.456a1.975,1.975,0,0,0-.58,1.351,4.357,4.357,0,0,0,.14,1.237,94.071,94.071,0,0,1,.631,12.493,2.287,2.287,0,0,0,.026.3c-.013.147-.026.287-.045.433a1.219,1.219,0,0,0,.077.567c-.038,1.721-.1,3.435-.185,5.156-.019.121-.038.242-.057.357a2.692,2.692,0,0,0,0,.816q-.115,2-.274,4c-.057.746,1.007.95,1.351.37.631-1.058,1.243-2.129,1.842-3.2a2.573,2.573,0,0,0,.708-.975c.217-.51.433-1.013.65-1.523a139.918,139.918,0,0,0,9.529-22.143c.306-.931-1-1.364-1.5-.631Z" transform="translate(-748.024 -479.431)" fill="#f5b9cd"/>
      <path id="Trazado_7078" data-name="Trazado 7078" d="M839.656,878.342a17.764,17.764,0,0,0,7.285,9.057,13.091,13.091,0,0,0,5.7,1.778,5.883,5.883,0,0,1,3.11.848,1.6,1.6,0,0,1,.274,2.377,4.359,4.359,0,0,1-2.741,1.128,16.76,16.76,0,0,1-3.193.236c-1.135-.006-2.275-.121-3.41-.07a8.336,8.336,0,0,1-3.3-.695,24.886,24.886,0,0,1-3.149-1.4c-1.013-.548-1.8-1.237-2.734-1.8a2.459,2.459,0,0,0-2.55-.026c-.727.4-1.294,1.071-2.18,1.1-2.326.057-3.557-2.409-3.544-4.417.013-2.62,1.4-4.978,2.142-7.432.382-1.249-1.562-1.772-1.95-.535-.771,2.448-2.071,4.729-2.269,7.336a6.7,6.7,0,0,0,2.55,6.049,4.406,4.406,0,0,0,5.571-.108c.306-.261.656-.682,1.09-.688.536,0,1.217.586,1.645.854a24.481,24.481,0,0,0,3.327,1.772,25.982,25.982,0,0,0,3.474,1.135,26.411,26.411,0,0,0,3.563,1.058,13.662,13.662,0,0,0,7.228-.7c2.129-1,3.658-3.289,2.409-5.532s-4.067-2.218-6.355-2.53c-5.073-.7-9-4.736-11.218-9.127-.223-.44-.975-.134-.8.338h0Z" transform="translate(-747.856 -586.764)" fill="#010d3d"/>
      <path id="Trazado_7079" data-name="Trazado 7079" d="M848.335,856.092c-2.326-1.708-2.658-5.067-3.1-7.706-.574-3.423-.816-6.916-1.147-10.37-.656-6.935-.816-13.895-.822-20.861,0-1.912.013-3.824,0-5.736,0-.982-.006-1.963-.006-2.945a9.885,9.885,0,0,0-.2-2.97.713.713,0,0,0-1.364,0,8.9,8.9,0,0,0-.274,2.664c-.026.9-.051,1.861-.083,2.785-.051,1.81-.076,3.614-.083,5.424-.019,3.614.026,7.228.159,10.842s.344,7.311.727,10.95a105.938,105.938,0,0,0,1.8,10.568c.612,2.964,1.3,6.259,3.933,8.114.472.331.9-.433.446-.765h0Z" transform="translate(-752.972 -560.37)" fill="#010d3d"/>
      <path id="Trazado_7080" data-name="Trazado 7080" d="M829.937,852.431a15.165,15.165,0,0,0,1.236-5.278,1.056,1.056,0,0,0-2.065-.28c-.465,2.008-.465,4.143-.733,6.182-.115.873,1.128.86,1.409.191a17.242,17.242,0,0,0,1.249-8.758,88.6,88.6,0,0,0-2.135-9.612,57.369,57.369,0,0,1-1.358-9.656c-.191-3.244-.025-6.54.057-9.816a89.865,89.865,0,0,1,1-11.243c.127-.867-1.166-1.262-1.345-.37-.65,3.2-1.249,6.431-1.727,9.663a57.193,57.193,0,0,0-.548,9.809A55.078,55.078,0,0,0,826,832.87c.637,3.161,1.708,6.367,2.562,9.554s1.5,7.2-.083,10.275l1.313.554c.44-2.027,1.147-4.035,1.39-6.1l-2.065.28a10.574,10.574,0,0,1-.159,4.729c-.2.644.759.88.988.274h0Z" transform="translate(-747.067 -559.75)" fill="#010d3d"/>
      <path id="Trazado_7081" data-name="Trazado 7081" d="M830.666,883.735a6.83,6.83,0,0,0,4.264,3.544,62.406,62.406,0,0,1,5.787,2.658,17.647,17.647,0,0,0,5.66,1.861,8.114,8.114,0,0,0,2.881-.153c.223-.057.446-.172.669-.217a5.3,5.3,0,0,1,.555-.045c.593-.064.835-.58,1.2-.962a.857.857,0,0,0-1.211-1.211,2.893,2.893,0,0,1-.529.255,2.631,2.631,0,0,0-.459.421,2.012,2.012,0,0,1-1.083.427,7.514,7.514,0,0,1-2.588-.083,20.4,20.4,0,0,1-5.067-1.919,41.147,41.147,0,0,0-4.819-2.059c-1.829-.618-3.353-1.307-4.219-3.13-.331-.7-1.358-.089-1.039.606h0Z" transform="translate(-749.115 -588.588)" fill="#010d3d"/>
      <path id="Trazado_7082" data-name="Trazado 7082" d="M788.376,884.3a17.764,17.764,0,0,0,7.285,9.057,13.092,13.092,0,0,0,5.7,1.778,5.883,5.883,0,0,1,3.11.848,1.6,1.6,0,0,1,.274,2.377,4.36,4.36,0,0,1-2.741,1.128,16.77,16.77,0,0,1-3.193.236c-1.135-.006-2.276-.121-3.41-.07a8.336,8.336,0,0,1-3.3-.695,24.873,24.873,0,0,1-3.149-1.4c-1.013-.548-1.8-1.236-2.734-1.8a2.46,2.46,0,0,0-2.549-.026c-.727.4-1.294,1.071-2.18,1.1-2.326.057-3.557-2.409-3.544-4.417.013-2.62,1.4-4.978,2.142-7.432.382-1.249-1.562-1.772-1.95-.535-.771,2.448-2.071,4.729-2.269,7.336a6.7,6.7,0,0,0,2.55,6.049,4.406,4.406,0,0,0,5.571-.108c.306-.261.656-.682,1.09-.688.535,0,1.217.586,1.644.854a24.468,24.468,0,0,0,3.327,1.772,25.981,25.981,0,0,0,3.474,1.135,26.421,26.421,0,0,0,3.563,1.058,13.664,13.664,0,0,0,7.228-.7c2.129-1,3.658-3.289,2.409-5.532s-4.067-2.218-6.355-2.53c-5.073-.7-9-4.736-11.218-9.127-.223-.44-.975-.134-.8.338h0Z" transform="translate(-729.261 -588.925)" fill="#010d3d"/>
      <path id="Trazado_7083" data-name="Trazado 7083" d="M797.055,862.052c-2.326-1.708-2.658-5.067-3.1-7.706-.574-3.423-.816-6.916-1.147-10.37-.656-6.935-.816-13.895-.822-20.861,0-1.912.013-3.824,0-5.736,0-.982-.006-1.963-.006-2.945a9.883,9.883,0,0,0-.2-2.97.713.713,0,0,0-1.364,0,8.9,8.9,0,0,0-.274,2.664c-.025.9-.051,1.861-.083,2.785-.051,1.81-.077,3.614-.083,5.424-.019,3.614.026,7.228.159,10.842s.344,7.311.727,10.95a105.959,105.959,0,0,0,1.8,10.568c.612,2.964,1.3,6.259,3.933,8.114.472.331.9-.433.446-.765h0Z" transform="translate(-734.377 -562.532)" fill="#010d3d"/>
      <path id="Trazado_7084" data-name="Trazado 7084" d="M778.657,858.391a15.163,15.163,0,0,0,1.237-5.277,1.056,1.056,0,0,0-2.065-.28c-.465,2.008-.465,4.143-.733,6.182-.115.873,1.128.86,1.409.191a17.241,17.241,0,0,0,1.249-8.758,88.592,88.592,0,0,0-2.135-9.612,57.369,57.369,0,0,1-1.358-9.656c-.191-3.244-.025-6.54.057-9.816a89.853,89.853,0,0,1,1-11.243c.127-.867-1.166-1.262-1.345-.37-.65,3.2-1.249,6.431-1.727,9.663a57.2,57.2,0,0,0-.548,9.809,55.091,55.091,0,0,0,1.02,9.605c.637,3.161,1.708,6.367,2.562,9.554s1.5,7.2-.083,10.275l1.313.554c.44-2.027,1.147-4.035,1.389-6.1l-2.065.281a10.574,10.574,0,0,1-.159,4.729c-.2.644.758.88.988.274h0Z" transform="translate(-728.471 -561.911)" fill="#010d3d"/>
      <path id="Trazado_7085" data-name="Trazado 7085" d="M779.385,889.685a6.831,6.831,0,0,0,4.264,3.544,62.406,62.406,0,0,1,5.787,2.658,17.65,17.65,0,0,0,5.66,1.861,8.114,8.114,0,0,0,2.881-.153c.223-.057.446-.172.669-.217a5.3,5.3,0,0,1,.555-.045c.593-.064.835-.58,1.2-.962a.857.857,0,0,0-1.211-1.211,2.9,2.9,0,0,1-.529.255,2.629,2.629,0,0,0-.459.421,2.013,2.013,0,0,1-1.083.427,7.514,7.514,0,0,1-2.588-.083,20.4,20.4,0,0,1-5.067-1.919,41.141,41.141,0,0,0-4.819-2.059c-1.829-.618-3.353-1.307-4.219-3.13-.331-.7-1.358-.089-1.039.606h0Z" transform="translate(-730.519 -590.745)" fill="#010d3d"/>
      <path id="Trazado_7086" data-name="Trazado 7086" d="M894.505,508.351c-.242-.312.79-.274.848-.268.465.038.931.083,1.4.115,1.039.07,2.084.121,3.123.159,2.078.076,4.181.038,6.253.2l-1.084-.822a17.325,17.325,0,0,1,.038,5.877,12.107,12.107,0,0,1-1.8,5.182,8.574,8.574,0,0,1-3.652,3.079,6.724,6.724,0,0,1-2.3.58,5.473,5.473,0,0,1-1.447-.077,6.168,6.168,0,0,0-1.173-.28.389.389,0,0,0-.331.58c.408.848,1.638,1.166,2.5,1.275a7.539,7.539,0,0,0,2.792-.178,9.777,9.777,0,0,0,4.9-3.378,13.981,13.981,0,0,0,2.671-6.042,18.062,18.062,0,0,0-.032-7.209,1.126,1.126,0,0,0-1.084-.822c-2.964.089-5.94-.172-8.9-.127-1.135.019-2.473-.115-3.4.682a1.616,1.616,0,0,0-.223,2.39c.593.6,1.39-.274.9-.9h0Z" transform="translate(-771.799 -452.016)" fill="#343d64"/>
      <path id="Trazado_7087" data-name="Trazado 7087" d="M893.527,517.986a21.3,21.3,0,0,1,1.135-9.6l-1.676-.465a29.522,29.522,0,0,0-.886,5.105c-.083.841-.127,1.683-.147,2.524a5.847,5.847,0,0,0,.229,2.562c.255.542.962.293,1.141-.147a8.014,8.014,0,0,0,.172-2.416c.038-.81.108-1.625.21-2.428a41.286,41.286,0,0,1,.956-4.736.87.87,0,0,0-1.676-.465,21.953,21.953,0,0,0-.433,10.192c.1.548,1.052.427.975-.134h0Z" transform="translate(-771.35 -452.421)" fill="#343d64"/>
      <path id="Trazado_7088" data-name="Trazado 7088" d="M828.693,505.33a4.7,4.7,0,0,0-1.778-2.384,4.154,4.154,0,0,0-3.238-.695c-2.575.4-4.207,2.741-5.086,5a12.063,12.063,0,0,0-.37,8.573,6.136,6.136,0,0,0,2.326,3.1,7.286,7.286,0,0,0,1.676.5,9,9,0,0,0,1.74.325c2,.108,5.22-1.53,4.621-3.958a.188.188,0,0,0-.338-.045,5.455,5.455,0,0,1-2.154,2.486,3.274,3.274,0,0,1-3.27-.038c-.548-.382-.408-.548-.86-1.128a12,12,0,0,1-1.064-1.409,6.741,6.741,0,0,1-.8-3.569c.051-2.256.778-5.258,2.62-6.75a3.156,3.156,0,0,1,2.384-.688c.9.077,1.676.178,2,1.128s1.88.586,1.587-.44h0Z" transform="translate(-744.395 -450.563)" fill="#010d3d"/>
      <path id="Trazado_7089" data-name="Trazado 7089" d="M838.112,568.759c-1.007,1.447-2.148,2.773-3.187,4.194s-1.989,3-2.97,4.493a5.776,5.776,0,0,0-1.045,2.046,3.025,3.025,0,0,0,.688,2.244c.453.688.848,1.4,1.339,2.046.555.739,1.249,1.389,1.785,2.135a.622.622,0,0,0,.669.274,12.079,12.079,0,0,0,3.977-1.829c.586-.421,1.135-.892,1.676-1.364.612-.542,1.294-.994,1.906-1.542a22.344,22.344,0,0,0,3.028-3.792,19.969,19.969,0,0,0,2.626-4.411,1.189,1.189,0,0,0-.688-1.409,1.217,1.217,0,0,0-1.492.491c-.911,1.179-1.562,2.613-2.409,3.85s-1.791,2.307-2.671,3.48c-.408.548-.739,1.16-1.135,1.721a10.047,10.047,0,0,1-1.453,1.542,8.308,8.308,0,0,1-3.671,2.135l.669.274c-.37-.739-.612-1.562-.943-2.326a20.574,20.574,0,0,0-.988-1.848c-.134-.236-.574-.784-.567-1.052,0-.185.115-.3.242-.478.446-.656.867-1.326,1.3-1.989.835-1.275,1.753-2.53,2.473-3.875s1.491-2.785,2.326-4.143c.58-.937-.848-1.74-1.46-.854h0Z" transform="translate(-749.212 -474.57)" fill="#010d3d"/>
      <path id="Trazado_7090" data-name="Trazado 7090" d="M790.694,577.861c-3.729-1.077-7.617-2.167-11.536-1.912s-7.247,2.084-10.536,4.1a146.756,146.756,0,0,0-44.438,42.513c-1.084,1.6-2.135,3.212-3.155,4.857a16.2,16.2,0,0,0-2.537,5.564c-.752,4.251,1.358,8.248,3.416,11.811a1.267,1.267,0,0,0,2.161,0,160.988,160.988,0,0,1,15.6-19.9c2.855-3.1,5.647-6.316,8.656-9.274s6.189-5.762,9.452-8.426c3.729-3.04,7.648-5.807,11.619-8.522.58-.4.051-1.339-.561-.956a166.441,166.441,0,0,0-20.517,15.616c-3.174,2.792-6.418,5.52-9.325,8.6s-5.781,6.418-8.477,9.79q-4.56,5.708-8.617,11.8h2.161c-1.689-2.919-3.716-6.361-3.168-9.879a12.75,12.75,0,0,1,2.078-4.627c.892-1.434,1.727-2.747,2.626-4.1a142.654,142.654,0,0,1,12.008-15.578,144.116,144.116,0,0,1,29.823-25.591c3.18-2.046,6.527-4.436,10.319-5.137,4.111-.758,8.356.523,12.276,1.657a1.257,1.257,0,0,0,.669-2.422h0Z" transform="translate(-708.403 -477.298)" fill="#010d3d"/>
      <path id="Trazado_7091" data-name="Trazado 7091" d="M781.628,609.948a54.062,54.062,0,0,0-4.991,13.245,59.472,59.472,0,0,0-1.2,7.171c-.255,2.409-.223,4.634-.414,6.947a15.273,15.273,0,0,1-2.25,6.463c-1.192,2.04-2.307,3.856-3.346,5.858a77.089,77.089,0,0,0-8.311,28.191,1.266,1.266,0,0,0,1.256,1.256,1.288,1.288,0,0,0,1.256-1.256,74.615,74.615,0,0,1,7.578-26.171c1.013-2.021,2.142-3.971,3.3-5.9a19.768,19.768,0,0,0,2.7-6.1,51.845,51.845,0,0,0,.535-6.973,52.839,52.839,0,0,1,.88-6.833,58.909,58.909,0,0,1,4.991-14.73c.644-1.313-1.275-2.467-1.976-1.154h0Z" transform="translate(-723.916 -489.436)" fill="#010d3d"/>
      <path id="Trazado_7092" data-name="Trazado 7092" d="M884.065,507.607c1.064,4.041,2.193,8.063,3.327,12.085q.841,2.983,1.683,5.953c.287,1.02.574,2.033.867,3.053a27.926,27.926,0,0,0,.905,3.04l.121-.937c-.128.178-.95.121-1.154.115a7.559,7.559,0,0,1-1.3-.2c-.765-.153-1.53-.319-2.282-.529-.714-.2-1.4-.453-2.091-.7a2.62,2.62,0,0,0-1.919-.178.354.354,0,0,0-.185.325c.191,1.517,2.607,2.11,3.837,2.4a10.516,10.516,0,0,0,2.562.306c.459-.006.918-.064,1.383-.083.306-.013,1.1-.172,1.339.019a1.229,1.229,0,0,0,2.033-1.185,26.786,26.786,0,0,0-.835-3.059c-.287-1-.58-2.033-.867-3.053-.561-1.982-1.128-3.971-1.689-5.953-1.135-4.022-2.263-8.044-3.442-12.053a1.191,1.191,0,0,0-2.295.631h0Z" transform="translate(-767.765 -451.992)" fill="#010d3d"/>
      <path id="Trazado_7093" data-name="Trazado 7093" d="M848.732,536.828c-.051.535-.064,1.077-.115,1.619a14.294,14.294,0,0,0-.128,1.523,10.414,10.414,0,0,0,.484,3.1,9.6,9.6,0,0,0,1.154,2.454,9.962,9.962,0,0,0,.854,1.084,1.719,1.719,0,0,0,1.657.733,1,1,0,0,0,.739-.975,1.6,1.6,0,0,0-.822-1.237,5.214,5.214,0,0,1-.835-.841,6.569,6.569,0,0,1-1.045-1.925,14.452,14.452,0,0,1-.676-5.539c.051-.822-1.2-.809-1.275,0h0Z" transform="translate(-755.6 -462.902)" fill="#010d3d"/>
      <path id="Trazado_7094" data-name="Trazado 7094" d="M850.124,537.2a.032.032,0,0,0,0-.064.032.032,0,0,0,0,.064Z" transform="translate(-756.182 -463.239)" fill="#010d3d"/>
      <path id="Trazado_7095" data-name="Trazado 7095" d="M847.435,537.881a4.034,4.034,0,0,1,1.466-.739,3.968,3.968,0,0,1,.739-.134c.147-.013.3-.013.446-.013a1.31,1.31,0,0,1,.223.013.3.3,0,0,1,.108.013q-.077-.01.019,0l.293-1.064a5.319,5.319,0,0,0-1.957.07,7.736,7.736,0,0,0-.835.236,2.9,2.9,0,0,0-.51.249c-.064.038-.128.076-.191.121a.678.678,0,0,0-.242.242c-.077.185-.089.217-.045.089a.622.622,0,0,0,0,.631c.026.038.064.089.1.127a.625.625,0,0,0,.606.159c-.134.025-.1.019.108-.006a.538.538,0,0,0,.21-.1c.051-.032.1-.064.14-.089.115-.07.229-.128.344-.2a3.62,3.62,0,0,1,.344-.191c.032-.013.07-.032.1-.045-.064.025-.057.025.006,0s.128-.045.185-.057q.191-.057.382-.1l.191-.038c.07-.013.076-.013.013,0,.025,0,.057-.006.083-.006a4.363,4.363,0,0,1,.816-.006.559.559,0,0,0,.555-.555.572.572,0,0,0-.555-.555,5.159,5.159,0,0,0-3.748,1.166.5.5,0,0,0-.038.65.482.482,0,0,0,.637.128h0Z" transform="translate(-754.947 -462.788)" fill="#010d3d"/>
      <path id="Trazado_7096" data-name="Trazado 7096" d="M869.034,520.607l-.242,1.256-.121.618-.057.306c-.006.045-.019.1-.026.14a1.868,1.868,0,0,0,0,.752l.121.293.191.249a1.251,1.251,0,0,0,1.931-.249,2.706,2.706,0,0,0,.261-.854l.121-.618.242-1.23a1.348,1.348,0,0,0-.128-.969,1.259,1.259,0,0,0-.752-.574,1.287,1.287,0,0,0-.969.128,1.235,1.235,0,0,0-.574.752h0Z" transform="translate(-762.874 -456.91)" fill="#010d3d"/>
      <path id="Trazado_7097" data-name="Trazado 7097" d="M898.564,522.022a9.649,9.649,0,0,0-.312,2.989,1.332,1.332,0,0,0,.363.88,1.261,1.261,0,0,0,.88.363,1.284,1.284,0,0,0,.88-.363,1.261,1.261,0,0,0,.363-.88c0-.408.006-.816.013-1.224,0-.2.006-.389,0-.586a1.652,1.652,0,0,0-.115-.58,1.508,1.508,0,0,0-.389-.65,1.112,1.112,0,0,0-.752-.312,1.2,1.2,0,0,0-.752.312,1.545,1.545,0,0,0-.389.65,1.437,1.437,0,0,0-.115.555v.612c0,.408.006.816.013,1.224h2.479a8.235,8.235,0,0,1,.051-1.772l-.045.325a8.89,8.89,0,0,1,.172-.9,1.3,1.3,0,0,0-.121-.937,1.216,1.216,0,0,0-1.664-.44,1.249,1.249,0,0,0-.561.727h0Z" transform="translate(-773.64 -457.433)" fill="#010d3d"/>
      <path id="Trazado_7098" data-name="Trazado 7098" d="M849.777,620.287c.4,2.409.644,4.831,1.039,7.234.191,1.147.357,2.3.529,3.455a17.478,17.478,0,0,1,.4,3.729c-.134,1.842-2.154,3.187-3.391,4.328a24.727,24.727,0,0,0-3.85,4.538c-4.768,7.221-4.137,15.82-3.729,24.061.115,2.346.2,4.7.089,7.049a31.853,31.853,0,0,1-.325,3.474c-.178,1.154-.491,2.346-.65,3.531-.147,1.122,1.708,1.606,2.161.586a19.759,19.759,0,0,0,1.256-6.495,55.377,55.377,0,0,0,.051-6.336c-.159-4.232-.567-8.471-.331-12.709a23.36,23.36,0,0,1,3.423-11.556,23.027,23.027,0,0,1,3.939-4.634c1.5-1.37,3.1-2.645,3.385-4.7a11.27,11.27,0,0,0-.3-3.805c-.255-1.294-.561-2.683-.809-4.028-.5-2.7-1.154-5.354-1.651-8.05-.147-.816-1.377-.465-1.236.344h0Z" transform="translate(-752.477 -493.101)" fill="#010d3d"/>
      <path id="Trazado_7099" data-name="Trazado 7099" d="M763.332,716.1a31.494,31.494,0,0,0,4.7,1.045c1.6.14,3.232.382,4.844.561a83.652,83.652,0,0,0,9.459.5,60,60,0,0,0,9.357-.605c3.429-.555,3.193-5.023,4.965-7.3l-1.186-.491a7.9,7.9,0,0,0,.727,3.1,17.621,17.621,0,0,0,.962,2.658,2.349,2.349,0,0,0,2.307,1.249c1.026.026,2.059.159,3.1.185a41.069,41.069,0,0,0,6.2-.287c1.026-.127,2.046-.293,3.059-.5a7.26,7.26,0,0,0,1.428-.382,1.565,1.565,0,0,0,.892-1.064.655.655,0,0,0-.293-.727c-.771-.58-1.479-.306-2.339-.077s-1.721.421-2.594.58a28.018,28.018,0,0,1-5.456.484c-.886-.013-1.772-.057-2.658-.14-.752-.07-1.421-.051-1.746-.79-.357-.81-.676-1.632-1.039-2.441a6.572,6.572,0,0,0-1.345-2.346.7.7,0,0,0-1.16.306,17.787,17.787,0,0,1-2.275,4.239c-.306.51-.586,1.179-1.141,1.453a5.615,5.615,0,0,1-1.823.331c-2.938.344-5.877.6-8.84.656a80.13,80.13,0,0,1-8.84-.319,31.43,31.43,0,0,1-4.3-.631c-1.492-.351-3.034-.4-4.545-.688-.943-.178-1.358,1.224-.4,1.46h0Z" transform="translate(-724.53 -525.597)" fill="#010d3d"/>
      <path id="Trazado_7100" data-name="Trazado 7100" d="M815.125,700.1l.128-1.007.064-.5.032-.236a1.388,1.388,0,0,0-.07-.555,1.3,1.3,0,0,0-.306-.529l-.242-.185a.876.876,0,0,0-.446-.14.675.675,0,0,0-.319,0,.581.581,0,0,0-.306.083,1.194,1.194,0,0,0-.574.491c-.045.083-.076.153-.115.242-.025.057-.051.121-.076.185-.019.121-.032.249-.051.37-.013.076-.019.153-.032.236l-.064.523-.128,1.026a.981.981,0,0,0,.108.484.937.937,0,0,0,.261.4,1.283,1.283,0,0,0,.886.37,1.266,1.266,0,0,0,.886-.37l.2-.255a1.237,1.237,0,0,0,.172-.631h0Z" transform="translate(-742.593 -521.182)" fill="#010d3d"/>
      <path id="Trazado_7101" data-name="Trazado 7101" d="M817.52,683.018c0-.937.019-1.874,0-2.8A1.291,1.291,0,0,0,816.6,679a1.2,1.2,0,0,0-.669,0,1.283,1.283,0,0,0-.918,1.211c-.019.937,0,1.867,0,2.8a1.256,1.256,0,0,0,2.511,0h0Z" transform="translate(-743.458 -514.664)" fill="#010d3d"/>
      <path id="Trazado_7102" data-name="Trazado 7102" d="M819.246,666.263a12.584,12.584,0,0,1,.1-2.135l-.045.331a12.6,12.6,0,0,1,.331-1.606,1.256,1.256,0,1,0-2.422-.663,13.551,13.551,0,0,0-.478,4.079,1.256,1.256,0,0,0,2.511,0h0Z" transform="translate(-744.082 -508.254)" fill="#010d3d"/>
      <path id="Trazado_7103" data-name="Trazado 7103" d="M822.434,649.745c.013-.178.032-.363.057-.542l-.045.331a9.016,9.016,0,0,1,.2-1.02q.057-.239.134-.478c.026-.089.057-.172.083-.261a1.707,1.707,0,0,0,.019-.822,1.2,1.2,0,0,0-.848-.848,1.226,1.226,0,0,0-.644,0,1.2,1.2,0,0,0-.535.312,1.563,1.563,0,0,0-.433.758c-.038.108-.07.223-.1.331-.064.2-.115.414-.159.625a11.46,11.46,0,0,0-.229,1.606,1.255,1.255,0,0,0,.37.886,1.3,1.3,0,0,0,.886.37,1.266,1.266,0,0,0,.886-.37,1.443,1.443,0,0,0,.37-.886h0Z" transform="translate(-745.242 -502.737)" fill="#010d3d"/>
      <path id="Trazado_7104" data-name="Trazado 7104" d="M826.555,581.119q.191,4.532.2,9.07c0,3.028-.134,6.138-.433,9.223s-.561,6.036-.809,9.057c-.064.778-.166,1.562-.2,2.339-.038.727.026,1.453,0,2.18s-.1,1.453-.1,2.18c0,.835.07,1.644.038,2.486-.026.586.727.688,1.02.274a143.856,143.856,0,0,0,8.248-12.677,109.933,109.933,0,0,0,6.444-13.506,20.547,20.547,0,0,0,1.772-8.439c-.051-.911-1.555-1.249-1.7-.229-.708,4.921-2.588,9.433-4.659,13.927s-4.315,8.9-6.743,13.206c-1.37,2.428-2.753,4.844-4.309,7.158l1,.421c.166-.816.414-1.593.606-2.4.159-.7.242-1.434.357-2.142.242-1.555.5-3.053.618-4.627.223-3,.287-6.049.236-9.057-.026-1.568-.166-3.123-.159-4.691,0-1.46.006-2.919-.013-4.379-.038-3.13-.153-6.253-.325-9.382-.038-.695-1.115-.7-1.084,0h0Z" transform="translate(-747.158 -478.994)" fill="#010d3d"/>
      <path id="Trazado_7105" data-name="Trazado 7105" d="M833.566,595.806a5.058,5.058,0,0,1-2.288,2.326,5.276,5.276,0,0,1-1.536.523,8.1,8.1,0,0,0-1.657.223.342.342,0,0,0-.083.612,2.474,2.474,0,0,0,1.931.185,6.138,6.138,0,0,0,1.81-.663,5.946,5.946,0,0,0,2.537-2.785.434.434,0,0,0-.147-.567.42.42,0,0,0-.567.147Z" transform="translate(-748.115 -484.44)" fill="#010d3d"/>
      <path id="Trazado_7106" data-name="Trazado 7106" d="M837.093,597.053a6.4,6.4,0,0,0,.714,3.34,6.913,6.913,0,0,0,.969,1.409,6.223,6.223,0,0,0,.586.574,1.48,1.48,0,0,0,.854.453.4.4,0,0,0,.338-.593,1.73,1.73,0,0,0-.574-.542,5.116,5.116,0,0,1-.542-.5,5.708,5.708,0,0,1-.892-1.237,5.639,5.639,0,0,1-.682-2.906c.019-.5-.746-.5-.778,0h0Z" transform="translate(-751.462 -484.826)" fill="#010d3d"/>
      <path id="Trazado_7107" data-name="Trazado 7107" d="M852.859,586.068a26.581,26.581,0,0,1,4.666,2.569,9.867,9.867,0,0,1,3.595,3.576,18.621,18.621,0,0,1,1.084,5c.268,1.785.491,3.576.7,5.367.433,3.722.778,7.451,1.217,11.173a79.853,79.853,0,0,0,1.766,10.765c.268,1.026.759,1.944,1.064,2.945s.586,2,.892,3a28.042,28.042,0,0,0,2.275,5.679.445.445,0,0,0,.81-.344c-.516-1.817-1.2-3.595-1.734-5.411-.255-.867-.484-1.734-.676-2.613-.223-1-.2-1.982-.331-3-.465-3.684-1.135-7.336-1.562-11.027s-.8-7.642-1.249-11.46q-.325-2.811-.733-5.609a22.655,22.655,0,0,0-1.122-5.207,10.994,10.994,0,0,0-3.952-4.449,26.906,26.906,0,0,0-5.437-3.136,1.291,1.291,0,0,0-1.714.453,1.26,1.26,0,0,0,.453,1.715h0Z" transform="translate(-756.967 -480.139)" fill="#010d3d"/>
      <path id="Trazado_7108" data-name="Trazado 7108" d="M856.76,645.906a59.466,59.466,0,0,0,2.288,12.41,61.95,61.95,0,0,0,2.224,5.959q.593,1.386,1.256,2.747c.229.472.459.95.72,1.409a4.31,4.31,0,0,0,.478.739c.2.223.459.363.618.618a.914.914,0,0,0,1.243.325c4.589-3.257,9.267-6.367,13.755-9.765,2.212-1.676,4.423-3.359,6.6-5.086q1.654-1.31,3.289-2.645a4.1,4.1,0,0,0,1.81-2.754,26.637,26.637,0,0,0-.217-4.666c-.121-1.651-.249-3.308-.37-4.959-.045-.644-.7-1.4-1.428-1.09a201.109,201.109,0,0,0-19.16,9.217c-1.415.778-.153,2.951,1.268,2.167,6.106-3.365,12.384-6.508,18.764-9.318l-1.7-.975c.306,2.741.637,5.475.956,8.216a3.927,3.927,0,0,1,.013,1.657,3.058,3.058,0,0,1-1.045,1.186c-1.026.88-2.065,1.753-3.1,2.613-4.13,3.41-8.413,6.61-12.792,9.694-2.467,1.74-4.952,3.41-7.553,4.94l1.243.325a4.586,4.586,0,0,1-.166-.873,4.369,4.369,0,0,0-.306-.682c-.223-.478-.465-.95-.695-1.421-.421-.86-.816-1.734-1.2-2.613-.809-1.88-1.511-3.811-2.135-5.762a70.849,70.849,0,0,1-2.862-11.849c-.14-1.007-1.887-.778-1.791.242h0Z" transform="translate(-758.599 -500.204)" fill="#010d3d"/>
      <path id="Trazado_7109" data-name="Trazado 7109" d="M909.779,641.03c1.064-.484,2.161-.88,3.206-1.4s1.989-1.026,3.008-1.466a2.406,2.406,0,0,1,2.326-.153,6.7,6.7,0,0,1,2.078,1.778,51.932,51.932,0,0,1,6.265,10.612c.79,1.625,1.5,3.321,2.39,4.9.6,1.064,1.237,2.11,1.855,3.161.293.5.612.994.886,1.511.242.459.255.72-.2,1.256-1.237,1.434-2.4-1.332-2.97-2.224-.918-1.44-1.855-2.868-2.792-4.3-.459-.707-.962-1.4-1.377-2.135-.363-.637-.631-1.3-1.02-1.925a1,1,0,0,0-1.727,1.013,16.356,16.356,0,0,0,1.275,1.7c.535.682.988,1.447,1.479,2.161,1.013,1.491,2.033,2.97,3.028,4.481.867,1.319,1.664,3.117,3.461,3.193a2.94,2.94,0,0,0,2.843-3.346,10.777,10.777,0,0,0-1.715-4.1c-.829-1.409-1.542-2.824-2.25-4.3a65.719,65.719,0,0,0-7.476-12.556c-1.434-1.8-3.193-3.282-5.6-3.3a8.9,8.9,0,0,0-4.028,1.447c-1.364.695-2.658,1.485-4,2.224-1.192.657-.147,2.339,1.052,1.8h0Z" transform="translate(-777.251 -498.935)" fill="#010d3d"/>
      <path id="Trazado_7110" data-name="Trazado 7110" d="M923.151,661.127a1.905,1.905,0,0,1-.319,2.594,1.262,1.262,0,0,1-2.014-.421c-.363-.924-1.849-.561-1.523.421.274.829.536,2.295-.758,2.269-1.1-.025-1.785-1.135-2.307-1.957a.666.666,0,0,0-1.211.51c.121.4.523,1.81-.344,1.657s-1.077-1.581-1.294-2.212a9.466,9.466,0,0,1-.841-2.843c.013-.931.79-.937,1.479-.688.606.223.982-.606.593-1.026a2.055,2.055,0,0,0-3.117.625,3,3,0,0,0-.038,2.256c.261.9.6,1.778.9,2.664.421,1.237,1.268,2.906,2.887,2.473,1.46-.389,1.377-2.11,1.052-3.263l-1.211.51c.873,1.421,2.091,2.977,3.977,2.671a2.24,2.24,0,0,0,1.778-1.466,5.025,5.025,0,0,0-.026-2.607l-1.523.421a3.02,3.02,0,0,0,4.487,1.887,3.591,3.591,0,0,0,.752-5.29c-.6-.81-1.957-.076-1.383.809h0Z" transform="translate(-778.36 -507.407)" fill="#010d3d"/>
      <path id="Trazado_7111" data-name="Trazado 7111" d="M921.687,650.42a2.526,2.526,0,0,1-.07,1.88,5.244,5.244,0,0,1-1.032,1.562,7.886,7.886,0,0,1-3.5,1.887,2.609,2.609,0,0,1-1.836.083.872.872,0,0,1-.306-1.2,3.47,3.47,0,0,1,1.288-1.307,10.389,10.389,0,0,1,2.008-1.1.945.945,0,0,0,0-1.8,3.789,3.789,0,0,1-1.7-1.071,1,1,0,0,1,.045-1.345.738.738,0,0,0-.319-1.217c-1.536-.37-1.874,1.88-1.523,2.906a4.545,4.545,0,0,0,3,2.524l-.223-1.708a10.5,10.5,0,0,0-3.741,2.569,2.972,2.972,0,0,0,.223,4.309c1.428,1.1,3.161.637,4.634.076a8.169,8.169,0,0,0,3.837-2.722,4.968,4.968,0,0,0,.5-4.685.684.684,0,0,0-.822-.465.675.675,0,0,0-.465.822h0Z" transform="translate(-778.98 -502.985)" fill="#010d3d"/>
      <path id="Trazado_7112" data-name="Trazado 7112" d="M909.381,656.647a3.187,3.187,0,0,0,.574,1.013,3.761,3.761,0,0,0,.72.631,2.454,2.454,0,0,0,.892.4,2.511,2.511,0,0,0,1.23,0,.983.983,0,0,0,.708-1.09.972.972,0,0,0-.975-.86,4.783,4.783,0,0,1-.605,0l.268.038a2.7,2.7,0,0,1-.708-.191l.229.1a2.062,2.062,0,0,1-.37-.2l.185.147a2.456,2.456,0,0,1-.389-.382l.14.185a2.162,2.162,0,0,1-.261-.44l.089.217-.013-.032a.96.96,0,0,0-.414-.535.9.9,0,0,0-.688-.089.914.914,0,0,0-.535.414.875.875,0,0,0-.089.688h0Z" transform="translate(-777.662 -506.165)" fill="#010d3d"/>
      <path id="Trazado_7113" data-name="Trazado 7113" d="M861.04,507.824a35,35,0,0,1,5.539-.351c.931.013,1.861.057,2.785.14.414.038.822.076,1.237.134.306.038,1.383.351,1.638.134.147-.128-.076-.236-.159-.121a2.931,2.931,0,0,0,.038.7c.019.414.045.822.057,1.237.038.982.045,1.957.019,2.932a14.323,14.323,0,0,1-.778,5,7.862,7.862,0,0,1-7.107,5.112,7.469,7.469,0,0,1-4.589-1.147,5.425,5.425,0,0,1-1.766-3.767,21.37,21.37,0,0,1,.178-5.558,25.964,25.964,0,0,1,.606-3.028,29.9,29.9,0,0,0,.86-2.957l-.6.459a31.227,31.227,0,0,0,3.187.2c.688-.032.695-1.1,0-1.077a7.344,7.344,0,0,1-3.021-.351.625.625,0,0,0-.7.287,10.721,10.721,0,0,0-.988,2.938c-.255,1.045-.472,2.1-.625,3.168a24.805,24.805,0,0,0-.268,5.909,7.35,7.35,0,0,0,1.753,4.455,7.8,7.8,0,0,0,4.965,1.963,9.169,9.169,0,0,0,8.911-4.812,15.723,15.723,0,0,0,1.81-5.469,23.285,23.285,0,0,0,.2-3.333,20.564,20.564,0,0,0-.134-3.276,2.522,2.522,0,0,0-2.231-1.938,25.159,25.159,0,0,0-3.729-.4,38.519,38.519,0,0,0-7.757.389,1.269,1.269,0,0,0-.88,1.542,1.292,1.292,0,0,0,1.542.88h0Z" transform="translate(-758.507 -451.572)" fill="#343d64"/>
      <path id="Trazado_7114" data-name="Trazado 7114" d="M849.94,506.206a57.055,57.055,0,0,0-16.209-1.383,1.012,1.012,0,0,0-.931.708.8.8,0,0,0,.1.739.955.955,0,0,0,.829.478,69.639,69.639,0,0,1,7.9-.37,40.153,40.153,0,0,1,7.961,1.052c.8.178,1.141-1.052.338-1.23h0Z" transform="translate(-749.892 -451.477)" fill="#343d64"/>
      <path id="Trazado_7115" data-name="Trazado 7115" d="M883.777,509.845a3.449,3.449,0,0,1,1.173-1.1,2.821,2.821,0,0,1,1.555-.363,3.817,3.817,0,0,1,1.51.325,4.053,4.053,0,0,1,.4.223l.172.115c.261.172-.045-.045.1.07a1.857,1.857,0,0,0,1.147.625.842.842,0,0,0,.835-.835c.051-.911-1.128-1.562-1.848-1.874a4.771,4.771,0,0,0-2.416-.408,2.74,2.74,0,0,0-.784.172c-.115.051-.185.083-.351.147a5.96,5.96,0,0,0-1.077.51,5.024,5.024,0,0,0-1.632,1.683c-.465.784.72,1.46,1.211.708h0Z" transform="translate(-767.916 -452.165)" fill="#343d64"/>
      <path id="Trazado_7116" data-name="Trazado 7116" d="M832.759,509.964c-.268,2.384-.529,4.78-.625,7.177a25.8,25.8,0,0,0,.185,3.506c.121,1.23.172,2.435.376,3.659.727,4.258,1.969,8.432,4.838,11.753,5.6,6.489,14.985,8.28,23.162,7.387a35.8,35.8,0,0,0,22.136-10.8c5.787-6.208,8.471-14.9,5.207-22.888-.931-2.275-2.11-4.423-2.9-6.756-.382-1.128-.727-2.275-1.02-3.429a34.584,34.584,0,0,1-.854-3.455,29.767,29.767,0,0,1,1.5-14.265c.268-.765-.943-1.09-1.211-.331a35.365,35.365,0,0,0-2,11.792,45.194,45.194,0,0,0,.281,6.163,25.288,25.288,0,0,0,1.625,5.838c.746,1.874,1.9,3.754,2.626,5.724a16.146,16.146,0,0,1,.943,5.845,20.507,20.507,0,0,1-3.512,11.154c-4.251,6.425-11.7,10.587-19.083,12.27-7.547,1.715-16.808,1.2-23-3.926a16.048,16.048,0,0,1-3.863-4.576,24.131,24.131,0,0,1-2.186-6.654c-.268-1.243-.5-2.492-.784-3.729a32.869,32.869,0,0,1-.44-3.811,41.335,41.335,0,0,1-.281-7.636c.057-.727-1.045-.707-1.128,0h0Z" transform="translate(-749.666 -442.915)" fill="#010d3d"/>
      <path id="Trazado_7117" data-name="Trazado 7117" d="M724.692,683.362a.631.631,0,0,0,0-1.262.631.631,0,0,0,0,1.262Z" transform="translate(-710.486 -515.805)" fill="#010d3d"/>
      <path id="Trazado_7118" data-name="Trazado 7118" d="M715.811,678.058a9.074,9.074,0,0,1-2.173,6.947l1.3.166a11.8,11.8,0,0,1-1.186-3.69.819.819,0,0,0-1.568,0,13.736,13.736,0,0,1-3.633,7.534l-.344.363c-.038.038-.274.382-.217.344q.086.163.019-.019a.5.5,0,0,1-.032-.191c0-.178-.006-.357,0-.535a19.532,19.532,0,0,1,.236-2.581,23.082,23.082,0,0,1,1.3-4.748c.261-.688-.822-1.115-1.173-.5a25.635,25.635,0,0,1-5.227,6.724l1.02.421c-.306-3.563,1.644-6.539,3.588-9.344.535-.778-.688-1.727-1.313-1.013-1.135,1.288-2.256,2.581-3.4,3.869l1.275.338a5.718,5.718,0,0,1,1.185-3.754,36.35,36.35,0,0,1,2.416-3.276,68.217,68.217,0,0,1,5.43-5.845c.809-.784-.421-2.008-1.23-1.23a49.512,49.512,0,0,0-5.806,6.731c-1.542,2.135-3.818,4.748-3.5,7.572.07.606.816,1.077,1.307.542,1.16-1.262,2.333-2.511,3.5-3.767l-1.313-1.013c-1.785,3.053-3.767,6.514-3.333,10.185a.607.607,0,0,0,1.02.421,28.82,28.82,0,0,0,5.488-6.922l-1.173-.5a26.883,26.883,0,0,0-1.428,6.081c-.115.956-.618,4.392,1.466,3.614a5.878,5.878,0,0,0,1.95-1.683,14.414,14.414,0,0,0,1.574-2.186,15.169,15.169,0,0,0,1.912-5.214h-1.568a13.485,13.485,0,0,0,1.326,4.1.833.833,0,0,0,1.428,0,12.131,12.131,0,0,0,1.823-7.948c-.076-.586-1-.612-.943,0h0Z" transform="translate(-702.753 -510.615)" fill="#010d3d"/>
      <path id="Trazado_7119" data-name="Trazado 7119" d="M763.361,718.623a34.6,34.6,0,0,0-2.256,11.371c-.28,4.143-.472,8.292-.606,12.442a230.4,230.4,0,0,0,.37,24.558c.312,4.137.771,8.267,1.409,12.365.268,1.715.446,3.627,2.511,3.945a15,15,0,0,0,2.728.006l3.34-.1q12.6-.354,25.2-.714c9.07-.268,18.216-.7,27.044-2.97a1.278,1.278,0,0,0,.88-1.542c-1.938-7.725-3.875-15.456-5.475-23.258-.81-3.926-1.421-7.884-2.173-11.817s-2.059-7.292-2.371-11.116c-.363-4.5-.51-9.025-.962-13.519-.153-1.491-2.428-1.562-2.377,0,.128,4.1.465,8.2.746,12.3a38.14,38.14,0,0,0,.727,5.775c.427,1.893,1.013,3.588,1.434,5.4.918,3.945,1.428,7.993,2.218,11.964s1.632,7.744,2.543,11.594c1.052,4.462,2.167,8.9,3.276,13.353l.88-1.542c-7.527,1.938-15.284,2.492-23.029,2.773-8.031.293-16.068.472-24.1.695l-6.042.172-2.862.083a4.97,4.97,0,0,1-1.109.019c-.319-.076-.217.038-.312-.421a95.492,95.492,0,0,1-1.453-11.581,216.236,216.236,0,0,1-.6-23.615c.108-4.462.319-8.923.561-13.385.115-2.116.185-4.232.293-6.342a22.936,22.936,0,0,1,.95-6.31c.274-.8-1.039-1.37-1.377-.58h0Z" transform="translate(-723.634 -528.508)" fill="#010d3d"/>
      <g id="Grupo_4676" data-name="Grupo 4676" transform="matrix(0.978, 0.208, -0.208, 0.978, 68.686, 118.883)">
        <path id="Trazado_7120" data-name="Trazado 7120" d="M808.71,619.464s.312-.408.421-.542c-.217-1.95-.867-3.767-.459-5.647.147-.688.516-2.014.7-2.785a3.838,3.838,0,0,1,.1-.427.657.657,0,0,0,.013-.1h.013a2.446,2.446,0,0,1,.421-.867c.637-.746,1.523-.778,2.709-.064.223.134.9.019,1.141.408a2.332,2.332,0,0,0-.676-.019,5.491,5.491,0,0,0-1.109.79c2.683,2.5,1.5,5.928,1.479,8.579.089.153,1.249.159,1.23.829a.13.13,0,0,1-.108.147c-1.09.185-1.848-.312-2.932-.229-.943.07-1.383.542-2.639.44-.268-.019-.453-.306-.3-.5" transform="translate(-808.54 -608.52)" fill="#010d3d" fill-rule="evenodd"/>
        <path id="Trazado_7121" data-name="Trazado 7121" d="M811.648,611.914a1,1,0,0,0,.147.408c1.759,5.348.81,7.464-.312,5.966-.351-.472-.816-.5-.147,1.8.07.242.65.115.892.115.727,0,.8.051,1.064-.242.153-.166.924-4.806-.453-7.133a8.252,8.252,0,0,0-.682-1.09.3.3,0,0,0-.51.172" transform="translate(-809.063 -609.657)" fill="#fff" fill-rule="evenodd"/>
        <path id="Trazado_7122" data-name="Trazado 7122" d="M813.467,609.649a.254.254,0,0,0,.255.21.182.182,0,0,0,.172-.229.259.259,0,0,0-.255-.21.182.182,0,0,0-.172.23" transform="translate(-810.889 -608.845)" fill="#fff"/>
      </g>
    </g>
    <g id="Grupo_4680" data-name="Grupo 4680" transform="translate(891.581 339.567)">
      <path id="Trazado_7123" data-name="Trazado 7123" d="M1165.828,805.733c-.605-16.393-.064-46.2-.3-62.61-.733-12.161,2.052-24.386,2.639-36.464.172-4.1-4.94-5.59-8.5-5.016-8.088.478-16.209.695-24.291,1.313-2.339.331-9.108.229-6.635,4.054.911,13.073-.14,26.266-.108,39.384-.351,13.283.006,39.951-.421,53.234.5,6-3.078,18.752-.6,18.917,6.871.459,11.2,3.48,10.013-2.473-.4-27.63,2.435-73.33.057-100.929a46.712,46.712,0,0,1,18.822-.548c.8,3.493.223,6.712.057,10.287-.7,12.257-.121,24.851-.548,37.121-.376,14.252-1.026,44.336.988,58.473.306,3.3,6.329,4.124,8.968,1.485,2.033-2.033-.516-11.008-.14-16.221Z" transform="translate(-1045.327 -535.44)" fill="#fff"/>
      <path id="Trazado_7124" data-name="Trazado 7124" d="M1105.144,583.092c.3-4.94-5.367-8.095-9.1-4.487-7.017,10.115-9.293,22.99-15,33.9-3.059,4.761-7.712,12.658-1.281,16.763,3.85,2.346,7.311-1.211,9.191-4.353C1097.674,612.692,1104.175,598.2,1105.144,583.092Z" transform="translate(-1027.123 -490.302)" fill="#64d8cc"/>
      <path id="Trazado_7125" data-name="Trazado 7125" d="M1126.913,706.835c-.045,1.16-.089,2.32-.108,3.48s-.178,2.314-.236,3.48c-.108,2.256,0,4.544.051,6.807q.143,6.807.217,13.614c.083,9.121.013,18.248-.357,27.369-.268,6.7-.778,13.385-1.166,20.077s-.695,12.945-.937,19.421-.465,12.85-.261,19.262a1.3,1.3,0,0,0,1.256,1.256l12.066,1.345a1.266,1.266,0,0,0,1.256-1.256c-.153-3.544-.453-7.075-.586-10.619q-.182-4.8-.2-9.605c-.045-6.928.089-13.863.261-20.791.357-14.239.937-28.478.829-42.723-.051-7.2-.28-14.4-.982-21.569a1.288,1.288,0,0,0-1.256-1.256,1.266,1.266,0,0,0-1.256,1.256c1.307,13.334,1.1,26.808.8,40.187-.319,14.15-.924,28.3-.918,42.456,0,3.639.045,7.272.172,10.906.134,3.926.459,7.833.631,11.753l1.256-1.256-12.066-1.345,1.256,1.256c-.178-5.615-.013-11.25.178-16.859.217-6.578.535-13.149.9-19.72s.841-12.677,1.147-19.019c.433-9.063.561-18.133.516-27.2-.026-5.067-.1-10.134-.2-15.2-.051-2.537-.1-5.067-.242-7.6-.077-1.326-.332-2.632-.427-3.958s-.191-2.639-.312-3.958a.638.638,0,0,0-1.275,0h0Z" transform="translate(-1044.348 -537.139)" fill="#010d3d"/>
      <path id="Trazado_7126" data-name="Trazado 7126" d="M1142.712,721.784q4.866-.029,9.733-.051c3.244-.019,6.5-.166,9.733-.038l-.682-.892a29.57,29.57,0,0,0-.465,5.418c-.07,1.829-.178,3.627-.261,5.443q-.268,5.841-.427,11.677-.335,12.41-.478,24.819c-.185,16.381-.026,32.793.72,49.161.1,2.122.2,4.239.325,6.361.057.988.115,1.969.178,2.957a5.694,5.694,0,0,0,.58,2.964c.676.956,1.918.982,2.977,1.122a25.481,25.481,0,0,0,3.193.274,9.03,9.03,0,0,0,6.131-1.963c.982-.841-.351-2.613-1.4-1.817a7.537,7.537,0,0,1-4.972,1.4,20.326,20.326,0,0,1-2.632-.255,4.674,4.674,0,0,0-1.166-.2l-.2-.051c.127.223.159.255.1.089.083-.147-.044-.708-.051-.886-.217-3.486-.414-6.979-.574-10.472-.344-7.712-.529-15.437-.637-23.156-.217-16.094-.1-32.2.21-48.294.083-4.258.172-8.509.229-12.76.026-1.982.032-3.964.089-5.947a33.573,33.573,0,0,0-.083-5.883.7.7,0,0,0-.682-.516c-3.231.185-6.495.1-9.733.134s-6.489.076-9.733.121a.628.628,0,0,0,0,1.256h0Z" transform="translate(-1050.905 -542.24)" fill="#010d3d"/>
      <path id="Trazado_7127" data-name="Trazado 7127" d="M1188.213,706.191c.816,4.544.21,9.1-.325,13.646s-1.313,8.891-1.657,13.372c-.574,7.464-.312,15.017-.28,22.5q.1,22.19.586,44.381c.172,7.54.376,15.08.682,22.614.064,1.6,2.569,1.613,2.5,0-.586-14.239-.848-28.5-1.039-42.749q-.153-11.071-.21-22.149c-.038-7.381-.217-14.526.1-21.766.223-5.137,1.083-10.192,1.689-15.284a38.064,38.064,0,0,0,.376-7.566,61.872,61.872,0,0,0-.86-7.419c-.21-1.02-1.74-.58-1.555.427h0Z" transform="translate(-1066.768 -536.769)" fill="#010d3d"/>
      <g id="Grupo_4678" data-name="Grupo 4678" transform="translate(95.254 286.169)">
        <path id="Trazado_7128" data-name="Trazado 7128" d="M1167.573,891.09a21.371,21.371,0,0,1-14.035,8.254,4.529,4.529,0,0,0-2.371.739c-1.287,1.077-.746,3.257.434,4.455,2.193,2.231,5.832,2.46,8.777,1.4s5.354-3.193,7.7-5.265a1.442,1.442,0,0,1,.943-.478,2.129,2.129,0,0,1,.88.408c1.485.854,3.474-.325,4.1-1.919a9.076,9.076,0,0,0-.026-5.067.946.946,0,0,0-.293-.618.935.935,0,0,0-.561-.121,47.386,47.386,0,0,0-5.934.357" transform="translate(-1149.171 -890.349)" fill="#010d3d"/>
        <path id="Trazado_7129" data-name="Trazado 7129" d="M1166.344,890.152a21.013,21.013,0,0,1-2.53,2.167c-.88.695-1.689,1.428-2.62,2.052a20.818,20.818,0,0,1-5.9,2.747,27.857,27.857,0,0,1-3.308.656,4.189,4.189,0,0,0-2.9,1.536c-1.256,1.759-.478,4.251.911,5.685,3.18,3.289,8.413,2.76,12.116.771a31.262,31.262,0,0,0,5.73-4.29c.166-.147.319-.3.491-.433-.083.064-.516-.274,0,.077a3.627,3.627,0,0,0,1.925.586,4.447,4.447,0,0,0,2.811-1.1c2.256-1.874,1.957-5.029,1.421-7.61a2.134,2.134,0,0,0-1.071-1.593,4.487,4.487,0,0,0-2.116-.2c-1.619.032-3.231.153-4.838.344a1.292,1.292,0,0,0-1.256,1.256,1.262,1.262,0,0,0,1.256,1.256c1.039-.127,2.078-.223,3.117-.28.472-.026.937-.045,1.409-.057.261-.006.523-.013.784-.013h.312q.554.057.134-.076l-.325-.555a8.479,8.479,0,0,1,.472,2.677,3.868,3.868,0,0,1-.535,2.537,2.177,2.177,0,0,1-1.485.905,1.294,1.294,0,0,1-.758-.242,2.525,2.525,0,0,0-1.511-.427,4.046,4.046,0,0,0-2.224,1.358c-.746.65-1.491,1.3-2.269,1.906a15.466,15.466,0,0,1-4.7,2.651c-2.46.771-6.775.669-7.789-2.32a1.465,1.465,0,0,1,.089-1.44c.51-.567,1.766-.516,2.46-.631a21.758,21.758,0,0,0,5.08-1.5,22.286,22.286,0,0,0,4.978-2.951,12.932,12.932,0,0,0,2.161-2.052,23.379,23.379,0,0,0,1.619-2.511.729.729,0,0,0-1.141-.88h0Z" transform="translate(-1148.458 -889.927)" fill="#010d3d"/>
      </g>
      <g id="Grupo_4679" data-name="Grupo 4679" transform="translate(64.955 283.278)">
        <path id="Trazado_7130" data-name="Trazado 7130" d="M1119.608,887.28c-3.525,3.155-8.554,3.926-13.283,4.1-.682.026-1.517.134-1.785.765a1.405,1.405,0,0,0-.064.727c.287,2.25,2.862,3.378,5.093,3.741,4.819.778,10.4-.351,13.181-4.36,1.479.924,3.525,1.81,4.812.631,1.1-1.007.765-2.8.249-4.2a.966.966,0,0,0-.28-.465,1.011,1.011,0,0,0-.535-.153l-5.724-.529a5.312,5.312,0,0,0-1.491.006,6.477,6.477,0,0,0-1.925.931c-3.251,1.906-7.2,2.205-10.956,1.976a6.456,6.456,0,0,0-2.62.178,2,2,0,0,0-1.409,1.995,2.327,2.327,0,0,0,.434.956c1.3,1.855,3.569,2.779,5.787,3.231,5.093,1.033,10.956-.268,14.131-4.391" transform="translate(-1101.623 -886.076)" fill="#010d3d"/>
        <path id="Trazado_7131" data-name="Trazado 7131" d="M1118.028,885.716a15.626,15.626,0,0,1-7.884,3.327,41.2,41.2,0,0,1-4.513.408c-1.421.076-2.964.586-3.1,2.244-.229,2.824,2.613,4.589,4.978,5.214a17.58,17.58,0,0,0,8.063.089,12.343,12.343,0,0,0,7.559-4.806l-1.708.446c1.791,1.1,4.3,2.11,6.151.58,1.721-1.428,1.434-4.041.612-5.883-.574-1.281-1.88-1.217-3.091-1.326l-4.067-.376a5.962,5.962,0,0,0-3.805.65,16.278,16.278,0,0,1-3.078,1.479,20.561,20.561,0,0,1-7.132.784c-2.18-.083-5.252-.28-5.991,2.416-.631,2.288,1.823,4.3,3.62,5.2a15.833,15.833,0,0,0,6.393,1.53c4.653.2,9.758-1.434,12.537-5.36.784-1.109-.994-2.492-1.893-1.46a12.364,12.364,0,0,1-7.974,4.219c-2.977.37-6.884.038-9.242-2.027-.363-.319-1.243-1.045-.943-1.581.37-.663,1.555-.535,2.161-.51a33.645,33.645,0,0,0,5.666-.083,17.568,17.568,0,0,0,5.622-1.593,11.67,11.67,0,0,1,2.32-1.211,11.418,11.418,0,0,1,3.251.185,25.5,25.5,0,0,0,3.467.319l.3.025c-.376-.4-.478-.427-.312-.083a3.989,3.989,0,0,0,.2.663,3.84,3.84,0,0,1,.159,1.262c-.178,2.008-2.728.593-3.659.026a1.276,1.276,0,0,0-1.708.446c-2.556,3.588-7.674,4.462-11.772,3.792a8.033,8.033,0,0,1-2.894-.982,3.3,3.3,0,0,1-.886-.739,2.107,2.107,0,0,1-.312-.561c-.057-.153-.051-.548-.166-.414a4.014,4.014,0,0,1,1.186-.1c.682-.032,1.364-.076,2.046-.14a31.859,31.859,0,0,0,3.882-.58,17.112,17.112,0,0,0,7.725-3.729c1.2-1.058-.561-2.811-1.759-1.759h0Z" transform="translate(-1100.921 -885.391)" fill="#010d3d"/>
      </g>
      <path id="Trazado_7132" data-name="Trazado 7132" d="M1161.335,629.306c-2.014-16.986-2.065-36.407-14.825-49.4-9.828-9.879-28.121-16.508-39.823-6.214-6.45,8.1,1.281,17.885,3.314,26.247a147.829,147.829,0,0,1,6.208,37.72c.312,7.221.229,14.456-.121,21.677a1.28,1.28,0,0,0,1.268,1.268q17.037-1.09,34.119-1.511c2.167-.535,11.065,1,11.065-1.453a205.358,205.358,0,0,0-1.2-28.338Z" transform="translate(-1037.143 -487.209)" fill="#64d8cc"/>
      <path id="Trazado_7133" data-name="Trazado 7133" d="M1089.5,500.214a4.919,4.919,0,0,0,3.289-2.409c1.523-2.467.9-5.87.229-8.515-.771-3.078-3.372-6.176-6.852-5.7-.74.1-1.421.625-2.148.676a2.444,2.444,0,0,1-1.39-.606c-1.268-.88-2.365-1.963-3.69-2.773a41.392,41.392,0,0,0-9.083-3.786,68.753,68.753,0,0,0-10.472-2.62c-6.795-1.071-13.838-.752-20.1,2.32-3,1.472-5.781,3.8-6.82,7.075a10.039,10.039,0,0,0-.332,4.423.89.89,0,0,0-.255,1.026c2.212,6.8,3.812,13.806,5.641,20.721.892,3.372,1.766,6.769,2.983,10.032a41.669,41.669,0,0,0,4.9,8.987,37.6,37.6,0,0,1,4.506,8.758c1.09,3.091,1.88,6.272,2.734,9.433a13.822,13.822,0,0,0,1.549,4.239,4.722,4.722,0,0,0,3.659,2.078c2.951.223,5.857-1.785,8.063-3.506,1.345-1.052,3.219-2.524,2.11-4.423-.21-.357-.459-.548-.465-.975a3.433,3.433,0,0,1,.185-.975,5.058,5.058,0,0,1,1.033-1.874,5.258,5.258,0,0,1,1.651-1.288c.695-.351,1.409-.676,1.638-1.5a2.318,2.318,0,0,0-.682-2.161,4.854,4.854,0,0,0-.835-.656,4.621,4.621,0,0,1-.663-.427,8.924,8.924,0,0,1,3.812-2.5,2.238,2.238,0,0,1,1.313-.185,2.851,2.851,0,0,1,.892.72c.848.79,1.689,1.581,2.537,2.371q4.943,4.637,9.9,9.267a1,1,0,0,0,1.562-.2q.832-1.826,1.683-3.646c.484-1.026,1.288-2.078.905-3.263a6.93,6.93,0,0,0-1.734-2.448,24.46,24.46,0,0,0-2.237-2.059c-2.39-1.976-5.144-3.716-7.241-6.036a7.87,7.87,0,0,0,3.748-3.085c1.638-2.4,2.2-5.558,2.569-8.375a49.424,49.424,0,0,0,.249-9.312c-.083-1.517-.2-3.021-.344-4.532-.077-.758-.147-1.517-.236-2.275a7.157,7.157,0,0,0,2.244-.006Z" transform="translate(-1010.906 -452.907)" fill="#fff"/>
      <path id="Trazado_7134" data-name="Trazado 7134" d="M1031.683,499.048c1.083,4.232,1.676,8.566,2.677,12.818s1.861,8.445,2.728,12.677c1.466,7.158,3.646,15.616,10.147,19.905a19.984,19.984,0,0,0,5.01,2.173,22.852,22.852,0,0,0,5.354,1.1,27.519,27.519,0,0,0,11.536-1.778,40.084,40.084,0,0,0,9.465-4.908,27.322,27.322,0,0,0,7.419-7.139,24.364,24.364,0,0,0,3.646-12.078,39.342,39.342,0,0,0-.255-6.482,42.1,42.1,0,0,0-1.358-6.693c-.281-1.007-2.033-.854-1.9.255.229,1.861.421,3.729.656,5.59a45.1,45.1,0,0,1,.382,5.647,24.262,24.262,0,0,1-2.027,10.421,25.089,25.089,0,0,1-5.768,7.865,33.633,33.633,0,0,1-8.388,5.278,29.048,29.048,0,0,1-11.288,2.747,20.5,20.5,0,0,1-5.214-.574,13.2,13.2,0,0,1-2.454-.816,16.486,16.486,0,0,1-2.231-1.389,21.229,21.229,0,0,1-6.584-7.738,42.433,42.433,0,0,1-3.442-10.574c-.956-4.411-1.817-8.84-2.849-13.238-.535-2.269-1.128-4.532-1.861-6.75s-1.562-4.4-2.25-6.641a.6.6,0,0,0-1.16.319h0Z" transform="translate(-1010.848 -461.748)" fill="#010d3d"/>
      <path id="Trazado_7135" data-name="Trazado 7135" d="M1111.027,492.882c.089-2.39,3.92-3.85,5.915-3.3,2.569.707,3.13,4.156,3.62,6.348.529,2.371.854,5.265-.943,7.215a3.089,3.089,0,0,1-2.588,1.052c-1-.1-1.778-.88-2.747-.644l.561.147-.153-.127c-.376-.3-1.026-.038-.867.5l.057.185.057-.446c-.548,1.294.663,2.2,1.772,2.613a5.1,5.1,0,0,0,3.372-.019c2.543-.918,3.882-3.506,4.137-6.074a14.049,14.049,0,0,0-.433-4.551,22.878,22.878,0,0,0-1.313-4.219c-1.147-2.569-3.41-4.245-6.3-3.761-2.575.433-5.367,2.186-5.367,5.08a.612.612,0,0,0,1.224,0h0Z" transform="translate(-1039.189 -457.909)" fill="#010d3d"/>
      <path id="Trazado_7136" data-name="Trazado 7136" d="M1115.3,476.115c.134-.969.408-1.906.522-2.875s.108-1.982.134-2.964c.051-1.97.026-3.945-.064-5.915a69.613,69.613,0,0,0-1.3-11.779c-.293-1.339-2.607-1.071-2.435.331.472,3.824,1.058,7.591,1.23,11.447.083,1.867.108,3.735.089,5.6-.013.988-.083,1.97-.083,2.957s.159,1.963.134,2.951,1.632,1.262,1.772.242Z" transform="translate(-1040.036 -444.851)" fill="#010d3d"/>
      <path id="Trazado_7137" data-name="Trazado 7137" d="M1071.895,447.527a107.134,107.134,0,0,0-15.718-5.093,51.99,51.99,0,0,0-7.706-1.4,18.083,18.083,0,0,0-3.895.045,8.534,8.534,0,0,0-3.786,1.084,1.185,1.185,0,0,0-.236,1.836,14.906,14.906,0,0,0,5.233,3.455l.382-1.4c-1.957-.28-3.9-.637-5.857-.924a47.408,47.408,0,0,0-5.953-.421,89.646,89.646,0,0,0-11.626.465,35.509,35.509,0,0,0-10.759,2.715,48.96,48.96,0,0,0-4.978,2.651c-1.307.771-3.467,2.033-2.569,3.894a4.014,4.014,0,0,0,2.193,1.638c.886.421,1.8.8,2.715,1.16a36.343,36.343,0,0,0,6.163,1.753v-2.416a46.764,46.764,0,0,0-7.6,1.969,24.241,24.241,0,0,0-6.6,3.072c-1.715,1.3-3.11,3.786-1.721,5.832a4.169,4.169,0,0,0,2.7,1.6c1.294.268,2.639.389,3.952.542,3.18.363,6.38.58,9.58.663l-.331-2.46c-3.2.771-14.061,4.519-9.312,9.306a19.712,19.712,0,0,0,6.622,4.016,20.491,20.491,0,0,0,7.872,1.555,1.17,1.17,0,0,0,0-2.339,22.878,22.878,0,0,1-11.8-4.226c-.5-.37-1.651-1.045-1.217-1.778a6.322,6.322,0,0,1,2.371-1.734,23.526,23.526,0,0,1,6.125-2.39,1.259,1.259,0,0,0-.331-2.46c-3.047-.076-6.081-.274-9.108-.612a26.424,26.424,0,0,1-4.188-.606c-.975-.274-1.211-.956-.72-1.842a5.392,5.392,0,0,1,2.384-1.912,34.989,34.989,0,0,1,3.837-1.632,46.717,46.717,0,0,1,8.152-2.167,1.262,1.262,0,0,0,0-2.416,36.945,36.945,0,0,1-5.207-1.4c-.816-.287-1.619-.6-2.409-.956-.472-.21-1.759-.58-1.957-1.045l.172.631c-.032-.293.618-.574.86-.72.6-.357,1.192-.707,1.8-1.052,1.115-.637,2.25-1.256,3.416-1.8a29.791,29.791,0,0,1,7.489-2.218,80.76,80.76,0,0,1,16.081-.784c3.193.1,6.393-.083,9.573.242.848.089.931-1.179.191-1.421a5.7,5.7,0,0,1-3.665-3.193l-.816,1.44c1.166-.185,2.244-.663,3.435-.771a19.16,19.16,0,0,1,3.627.045,53.611,53.611,0,0,1,7.489,1.466,108.375,108.375,0,0,1,14.985,4.914,1.266,1.266,0,0,0,1.542-.88,1.284,1.284,0,0,0-.88-1.542h0Z" transform="translate(-999.012 -440.949)" fill="#010d3d"/>
      <path id="Trazado_7138" data-name="Trazado 7138" d="M1029.041,488.76a17.762,17.762,0,0,0,5.335,3.531c1.715.714,4.1,1.651,5.979,1.084,2.543-.765,1.906-3.761,1.377-5.685a19.5,19.5,0,0,0-2.951-6.2l-1.944,1.5a43.581,43.581,0,0,0,12.722,7.234c1.74.637,4.175,1.256,5.685-.229,1.606-1.581.937-4.6.37-6.508a15.373,15.373,0,0,0-4.028-6.68c-1.173-1.128-2.7.529-1.74,1.74a47.863,47.863,0,0,0,17.776,13.506,1.135,1.135,0,0,0,1.53-.4c2.409-5.195-1.8-10-3.13-14.819l-2.295.969a76.773,76.773,0,0,0,9.656,11.167c.892.848,1.785,1.7,2.69,2.524a7.639,7.639,0,0,0,2.849,2.091,2.121,2.121,0,0,0,2.581-1.377,4.376,4.376,0,0,0-.166-2.734,3.976,3.976,0,0,1-.357-1.339,2.966,2.966,0,0,1,.446-1.453,3.8,3.8,0,0,1,2.467-1.836c1.058-.242.586-1.766-.433-1.568a5.827,5.827,0,0,0-4.36,4.487,6.879,6.879,0,0,0-.229,1.727,10.9,10.9,0,0,0,.351,1.715,3.9,3.9,0,0,1,.064.433c-.051.128.026.057.229-.2a1.4,1.4,0,0,1-.44-.21,14.1,14.1,0,0,1-1.721-1.428,67.82,67.82,0,0,1-11.454-13.283,1.262,1.262,0,0,0-2.295.969c1.2,4.385,4.933,8.515,3.506,13.289l1.377-.778a32.144,32.144,0,0,1-16.706-12.958l-1.931,1.491a13.309,13.309,0,0,1,3.493,6.106,14.086,14.086,0,0,1,.325,1.7,3.427,3.427,0,0,1-.006,1.759c-.331.593-1.364.433-1.893.325a25.687,25.687,0,0,1-6.75-2.824,39.938,39.938,0,0,1-6.412-4.372,1.258,1.258,0,0,0-1.625-.1,1.224,1.224,0,0,0-.319,1.6,17.167,17.167,0,0,1,3.066,7.215c.108.637.274,1.409-.516,1.568-1.441.293-3.308-.376-4.64-.86a16.622,16.622,0,0,1-4.749-2.671c-.529-.433-1.287.28-.765.765h0Z" transform="translate(-1009.844 -453.64)" fill="#010d3d"/>
      <path id="Trazado_7139" data-name="Trazado 7139" d="M1055.929,516.142c-.58,1.67-1.4,3.225-1.88,4.927s-.918,3.378-1.319,5.08a37.518,37.518,0,0,0-.943,5,48.069,48.069,0,0,1-.656,5.411.79.79,0,0,0,.351.867,40.759,40.759,0,0,0,6.431,2.486,28.238,28.238,0,0,0,3.41.733,8,8,0,0,0,3.276-.261c.319-.083.44-.618.1-.765a12.443,12.443,0,0,0-2.83-.956c-1.1-.179-2.205-.37-3.289-.612a34.736,34.736,0,0,1-6.323-1.957l.382.663a30.029,30.029,0,0,1,1.262-5.023c.5-1.651.873-3.378,1.281-5.08s.8-3.3,1.236-4.94.593-3.455,1.058-5.15a.8.8,0,0,0-1.549-.427h0Z" transform="translate(-1017.904 -468.013)" fill="#010d3d"/>
      <path id="Trazado_7140" data-name="Trazado 7140" d="M1044.5,521.934a13.738,13.738,0,0,1,.465,1.332c.064.217.108.44.153.663a2.754,2.754,0,0,0,.249.956,1.213,1.213,0,0,0,1.345.548,1.35,1.35,0,0,0,.523-.306,1.286,1.286,0,0,0,.351-.841,2.282,2.282,0,0,0-.236-.969c-.077-.223-.166-.446-.242-.669-.185-.523-.4-1.039-.637-1.549a1.07,1.07,0,0,0-.644-.5,1.111,1.111,0,0,0-.7.057,1.029,1.029,0,0,0-.516.44,1.041,1.041,0,0,0-.108.835h0Z" transform="translate(-1015.49 -469.822)" fill="#010d3d"/>
      <path id="Trazado_7141" data-name="Trazado 7141" d="M1077.936,513.314a30.241,30.241,0,0,0,1.039,3.142,1.408,1.408,0,0,0,.574.752,1.283,1.283,0,0,0,.969.128,1.264,1.264,0,0,0,.752-.574,1.208,1.208,0,0,0,.127-.969,28.753,28.753,0,0,1-1.039-3.142,1.256,1.256,0,0,0-2.422.663h0Z" transform="translate(-1027.616 -466.613)" fill="#010d3d"/>
      <path id="Trazado_7142" data-name="Trazado 7142" d="M1037.011,508.411a2.239,2.239,0,0,1,.344-1.409,2.17,2.17,0,0,1,.465-.542,2.406,2.406,0,0,1,.548-.338,2.3,2.3,0,0,1,1.37-.064,8.3,8.3,0,0,1,.8.255,5.452,5.452,0,0,0,.714.306.384.384,0,0,0,.465-.465c-.1-.714-.962-1.262-1.606-1.428a3.454,3.454,0,0,0-2.25.178,3.5,3.5,0,0,0-2.021,3.5.606.606,0,0,0,.586.586.589.589,0,0,0,.586-.586h0Z" transform="translate(-1012.358 -464.037)" fill="#010d3d"/>
      <path id="Trazado_7143" data-name="Trazado 7143" d="M1074.508,499.349c.026-.089.045-.28.115-.344l-.038.1c.019-.038.032-.07.051-.108a1.382,1.382,0,0,1,.07-.134,2.541,2.541,0,0,1,.172-.28c.026-.032.045-.064.07-.1l-.064.083c.006-.032.089-.108.115-.134a3.187,3.187,0,0,1,.261-.249c.038-.032.115-.147.045-.045h0a.7.7,0,0,0,.07-.051,4.357,4.357,0,0,1,.605-.344c.172-.083-.21.076-.013.006.045-.019.1-.032.14-.051.1-.038.21-.07.319-.1a3.487,3.487,0,0,1,.351-.083c.108-.019.223.013-.038,0a1.71,1.71,0,0,0,.178-.019,2.858,2.858,0,0,1,.331,0,1.084,1.084,0,0,1,.147.006.871.871,0,0,1,.121.013l-.166-.026a2.652,2.652,0,0,0,.408.057c.312-.045.382-.051.2-.026-.1.013-.115.019-.026.013a1.317,1.317,0,0,0,.822-.351.874.874,0,0,0,.236-.886,1.294,1.294,0,0,0-.778-.8l.14.064a1.309,1.309,0,0,0-.306-.134,3.564,3.564,0,0,0-.408-.051,3.526,3.526,0,0,0-.777.019,4.544,4.544,0,0,0-1.874.631,4.645,4.645,0,0,0-2.1,2.862.859.859,0,0,0,.593,1.039.848.848,0,0,0,1.039-.593h0Z" transform="translate(-1025.794 -460.679)" fill="#010d3d"/>
      <path id="Trazado_7144" data-name="Trazado 7144" d="M1076.83,564.825a2.593,2.593,0,0,0,1.689,1.785c.472.159,1.141.223,1.434-.274.338-.567-.229-1.141-.6-1.517a5.125,5.125,0,0,0-1.268-.982.606.606,0,0,0-.612,1.045c.159.1.312.191.465.287s.3.217.453.312c-.013-.006-.108-.083-.026-.019l.045.038.1.083c.07.064.147.121.21.191s.127.121.191.185c.032.032.057.064.089.1.051.051-.019.019-.019-.025,0,.013.032.051.038.064.019.032.019.076-.013-.032,0,0-.006-.115-.006-.057s.006-.064.006-.057a.421.421,0,0,1,.14-.2s.108-.064.038-.019c-.006,0-.083.019.006,0s-.045,0-.07,0-.07-.006-.108-.006c.006,0,.127.019.038,0h-.045c-.076-.025-.153-.045-.223-.064l-.1-.038c-.1-.038.07.038-.013,0a2.073,2.073,0,0,1-.2-.108c-.032-.019-.064-.038-.089-.057s-.108-.083-.051-.032-.032-.026-.045-.038a1.123,1.123,0,0,1-.089-.083,2.271,2.271,0,0,1-.166-.185c-.051-.064.013.013.019.025-.006-.019-.026-.032-.038-.051s-.045-.07-.07-.1c-.045-.076-.083-.153-.121-.236-.026-.045.019.045.019.045l-.026-.07a1.06,1.06,0,0,1-.038-.134.477.477,0,0,0-.586-.331.488.488,0,0,0-.331.586h0Z" transform="translate(-1027.23 -485.484)" fill="#010d3d"/>
      <path id="Trazado_7145" data-name="Trazado 7145" d="M1115.41,450.965l.287-.523.07-.128s.026-.045.038-.07l.127-.3V449.9a.559.559,0,0,0,.032-.14c.019-.108.032-.217.045-.325a1.22,1.22,0,0,0-.159-.6,1.144,1.144,0,0,0-.427-.427.894.894,0,0,0-.433-.14.733.733,0,0,0-.166-.019,1.22,1.22,0,0,0-.6.159l-.242.185c-.038.032-.077.07-.115.1a1.7,1.7,0,0,0-.338.484l-.287.523a.952.952,0,0,0-.146.465.906.906,0,0,0,.026.5.95.95,0,0,0,.223.427,1.01,1.01,0,0,0,.351.325l.3.128a1.324,1.324,0,0,0,.669,0l.3-.128a1.281,1.281,0,0,0,.453-.453h0Z" transform="translate(-1040.372 -443.597)" fill="#010d3d"/>
      <path id="Trazado_7146" data-name="Trazado 7146" d="M1114.628,453.552a8.683,8.683,0,0,1,1.211-.249l-.159.019c.166-.019.325-.045.491-.064l-.147.019a1.055,1.055,0,0,0,.319-.07,1.456,1.456,0,0,0,.172-.089.448.448,0,0,0,.185-.612.84.84,0,0,0-.459-.319,2.917,2.917,0,0,0-.465-.064,5.356,5.356,0,0,0-1.5.127.686.686,0,0,0-.472.829.694.694,0,0,0,.829.472h0Z" transform="translate(-1040.63 -444.998)" fill="#010d3d"/>
      <path id="Trazado_7147" data-name="Trazado 7147" d="M1115.111,452.163a3.271,3.271,0,0,0-2.244,1.358.629.629,0,0,0,.37.911c.076.013.159.026.236.032l-.178-.026a3.3,3.3,0,0,0,.5.057,3.112,3.112,0,0,0,.344-.013c.325-.026.65-.07.975-.115l-.28.038c.191-.025.382-.045.574-.051a1.241,1.241,0,0,0,.79-.325,1.064,1.064,0,0,0,.306-.937,1.048,1.048,0,0,0-.421-.727,1.111,1.111,0,0,0-.975-.2h0Z" transform="translate(-1040.271 -445.005)" fill="#010d3d"/>
      <path id="Trazado_7148" data-name="Trazado 7148" d="M1083.713,567.955c-1.918.408-3.818.962-5.736,1.4-.038.006-.076.019-.115.026,1.3-1.007,2.607-2.014,3.907-3.021,1.428-1.1-.127-3.729-1.785-3.066a45.484,45.484,0,0,0-14.468,9.433,1.751,1.751,0,0,0,1.026,2.983,1.243,1.243,0,0,0,.013.217v.038a3.468,3.468,0,0,0,.867,2.588,3.508,3.508,0,0,0,2.862,1.727c.089,0,.178-.013.268-.013a1.837,1.837,0,0,0,.586,1.523,3.46,3.46,0,0,0,1.186,3.3c1.562,1.192,3.282.306,4.7-.612,1.4-.905,2.811-1.791,4.188-2.728a1.684,1.684,0,0,0-.389-3.015c1.09-1.339-.854-3.69-2.428-2.588a5.728,5.728,0,0,1-1.16.625c-.045-.172-.121-.4-.134-.433a4.676,4.676,0,0,0-.274-.72c.918-.593,1.848-1.173,2.8-1.721a28.952,28.952,0,0,1,5.016-2.492,1.786,1.786,0,0,0-.95-3.442Z" transform="translate(-1022.928 -485.274)" fill="#fff"/>
      <path id="Trazado_7149" data-name="Trazado 7149" d="M1065.1,573.136a18.548,18.548,0,0,1,2.46-2.441c.905-.7,1.887-1.268,2.8-1.95a28.313,28.313,0,0,1,5.743-3.314,27.927,27.927,0,0,1,3.072-1.09,4.685,4.685,0,0,1,1.619-.4c.2.038.223.051.185.3-.134.892-1.721,1.683-2.358,2.167-1.071.816-2.129,1.708-3.244,2.46-.829.555-.089,1.874.79,1.351a20.524,20.524,0,0,1,5.673-2.065c.963-.223,1.944-.421,2.926-.555.274-.038.72-.185.784.115.057.268-.293.739-.44.931a15.966,15.966,0,0,1-3.8,3.4,41.7,41.7,0,0,1-4.678,2.428c-1,.51-.421,1.861.529,1.944a4.962,4.962,0,0,0,1.7-.191,4.143,4.143,0,0,1,1.351-.344c.376.045.4.344.255.669-.261.58-1.064.854-1.574,1.16a1.041,1.041,0,0,0,.8,1.893c.325-.07,1.1-.274,1.4-.019.427.382-.414.962-.72,1.185a12.2,12.2,0,0,1-3.831,1.938,8.55,8.55,0,0,0-3.155,1.1,3.819,3.819,0,0,0-1.632,2.7c-.147,1.147,1.689,1.339,1.989.268.159-.567.561-.8,1.064-1.045.554-.28,1.1-.6,1.657-.867a31.3,31.3,0,0,0,4.481-2.307c1.154-.8,2.53-2.129,1.848-3.678-.567-1.288-2.129-1.447-3.359-1.313l.523,1.925c1.664-.765,3.467-2.715,2.224-4.621a2.3,2.3,0,0,0-2.269-.956c-.758.1-1.708.688-2.454.446v2.014a16.128,16.128,0,0,0,5.838-3.263,20.7,20.7,0,0,0,2.441-2.288,5.734,5.734,0,0,0,1.587-2.588,1.945,1.945,0,0,0-.956-2.25c-.988-.5-2.352.019-3.34.274-1.249.312-2.479.707-3.7,1.1s-2.479.994-3.748,1.421l.605,1.434c2.212-.937,4.6-1.963,6.246-3.8a3.314,3.314,0,0,0,.905-3,2.436,2.436,0,0,0-2.288-1.906,9.369,9.369,0,0,0-3.1.663,31.644,31.644,0,0,0-3.168,1.192,28.955,28.955,0,0,0-5.743,3.321,16.048,16.048,0,0,0-2.658,2.645c-.816.969-1.657,1.887-2.422,2.894-.5.663.605,1.517,1.16.892h0Z" transform="translate(-1022.512 -484.668)" fill="#010d3d"/>
      <path id="Trazado_7150" data-name="Trazado 7150" d="M1052.972,567.183c3.958,3.149,4.774,8.585,5.851,13.226.5,2.161.943,4.831,2.435,6.565a4.634,4.634,0,0,0,2.53,1.453,12.5,12.5,0,0,0,1.625.249c.478.045.911.2,1.39.255.287.032.465-.3.408-.535-.236-.931-1.4-1.409-2.237-1.606a4.112,4.112,0,0,1-2.645-1.2,8.641,8.641,0,0,1-1.383-3.1c-.382-1.307-.682-2.632-.982-3.952a27.87,27.87,0,0,0-2.237-7.107,15.543,15.543,0,0,0-4.1-5.08c-.478-.363-1.122.459-.644.835h0Z" transform="translate(-1018.522 -486.389)" fill="#010d3d"/>
      <path id="Trazado_7151" data-name="Trazado 7151" d="M1098.457,564.833c1.275,1.281,2.467,2.632,3.735,3.914s2.639,2.62,3.9,3.977a9.015,9.015,0,0,0,1.931,1.823,11.846,11.846,0,0,1,1.893,1.39,26.354,26.354,0,0,0,3.767,2.728.694.694,0,0,0,1.032-.593,18.247,18.247,0,0,1,1.664-6.087,4.566,4.566,0,0,0,.733-2.492,4.479,4.479,0,0,0-1.466-2.416,41.844,41.844,0,0,0-4.423-4.009,42.888,42.888,0,0,0-5.131-3.639,1.212,1.212,0,0,0-1.224,2.091c1.517,1.064,3.123,1.995,4.64,3.072a36.177,36.177,0,0,1,4.283,3.537c.484.472,1.53,1.2,1.4,1.963a16.319,16.319,0,0,1-.924,2.409,20.643,20.643,0,0,0-.931,5.577l1.032-.593a16.24,16.24,0,0,1-3.62-2.766,10.485,10.485,0,0,1-1.434-1.88,11.638,11.638,0,0,0-1.957-1.836c-1.307-1.166-2.562-2.39-3.837-3.588s-2.7-2.4-4.016-3.639a.753.753,0,0,0-1.064,1.064h0Z" transform="translate(-1034.988 -483.847)" fill="#010d3d"/>
      <path id="Trazado_7152" data-name="Trazado 7152" d="M1116.292,589.88c-.663.95-1.313,1.919-1.919,2.906-.287.472-.567.95-.835,1.44-.147.268-.287.529-.427.8a2.576,2.576,0,0,1-.414.746l1.237.159c-1.562-2.269-3.117-4.532-4.487-6.928-.108-.185-.229-.357-.338-.535-.134-.223-.236-.459-.535-.465-.637-.019-.72.784-.593,1.237a4.867,4.867,0,0,0,.446.892l.516.937c.338.6.682,1.192,1.039,1.785a42.661,42.661,0,0,0,2.588,3.875.794.794,0,0,0,1.466-.4c0-.217.249-.535.344-.739.108-.229.217-.453.331-.682.261-.523.523-1.033.8-1.549.542-1,1.1-1.976,1.727-2.926.389-.593-.548-1.128-.943-.555h0Z" transform="translate(-1038.508 -494.273)" fill="#010d3d"/>
      <path id="Trazado_7153" data-name="Trazado 7153" d="M1125.636,587.2a19.261,19.261,0,0,0,2.492,1.6c.421.229.841.446,1.281.644.217.1.433.191.656.28q.163.067.325.153c.083.045.3.229.178.032a.92.92,0,0,0,1.664-.217,39.862,39.862,0,0,0,.758-5.488,24.773,24.773,0,0,0,.1-2.747c-.026-.816.108-2.205-.574-2.773a.9.9,0,0,0-1.377.178c-.491.644-.147,1.842-.1,2.594.051.88.1,1.766.083,2.651a25.551,25.551,0,0,1-.644,5.105l.421-.542-.115.051.612-.083a12.485,12.485,0,0,1-5.169-2.422c-.605-.433-1.154.555-.58.988h0Z" transform="translate(-1044.843 -490.804)" fill="#010d3d"/>
      <path id="Trazado_7154" data-name="Trazado 7154" d="M1080.777,629.519a246,246,0,0,1-3.913-28.453c-.1-1.128-1.109-1.128-1.874-1.5-2.237-.351-9.752-1.536-10.389,1.192q.459,8.863.918,17.732c.363,5.3-.057,11.071,2.766,15.807C1073.224,642.381,1083.581,639.532,1080.777,629.519Z" transform="translate(-1022.795 -498.263)" fill="#64d8cc"/>
      <path id="Trazado_7155" data-name="Trazado 7155" d="M1192.052,621.472c-7.661-17.706-19.459-34.9-36.305-44.8-1.071-.625-2.148-1.23-3.257-1.785s-2.078,1.064-.975,1.67a16.283,16.283,0,0,1,2.97,1.957c4.965,7.253,7.228,15.826,9.121,24.3,2.116,9.5,4.13,19.032,6.2,28.542,1.039,2.5,2.4,18.248,6.068,15.737,4.462-4.564,19.453-19.211,16.183-25.616Z" transform="translate(-1054.137 -489.477)" fill="#64d8cc"/>
      <path id="Trazado_7156" data-name="Trazado 7156" d="M1110.309,608.113c.529,1.517,1.007,3.053,1.421,4.6.2.778.414,1.555.612,2.333a3.987,3.987,0,0,0,.835,2c.076.064.229.076.274-.038a3.466,3.466,0,0,0-.089-2.065c-.2-.81-.408-1.613-.65-2.409q-.717-2.352-1.6-4.646c-.185-.491-.975-.287-.8.217h0Z" transform="translate(-1039.363 -501.384)" fill="#010d3d"/>
      <path id="Trazado_7157" data-name="Trazado 7157" d="M1086.573,628.007a73.219,73.219,0,0,1,.708,7.649c.051,1.256.07,2.5.051,3.761-.006.58-.019,1.16-.038,1.734a3.348,3.348,0,0,0,.14,1.632.376.376,0,0,0,.644,0,3.21,3.21,0,0,0,.255-1.632c.019-.676.026-1.351.026-2.027,0-1.256-.032-2.5-.1-3.761a75.906,75.906,0,0,0-.79-7.6c-.089-.593-.988-.338-.905.249h0Z" transform="translate(-1030.759 -508.568)" fill="#010d3d"/>
      <path id="Trazado_7158" data-name="Trazado 7158" d="M1088.419,639.844a10.81,10.81,0,0,1,1.262,2.906,11.392,11.392,0,0,1,.306,1.542,3.223,3.223,0,0,0,.293,1.549.334.334,0,0,0,.567,0,2.379,2.379,0,0,0,.127-1.657,12.988,12.988,0,0,0-.338-1.7,11.968,11.968,0,0,0-1.39-3.13c-.325-.516-1.147-.045-.829.484h0Z" transform="translate(-1031.406 -512.814)" fill="#010d3d"/>
      <path id="Trazado_7159" data-name="Trazado 7159" d="M1189.276,640.442a73.848,73.848,0,0,1,2.875,14.143c.249,2.371.58,4.761.593,7.151s-.013,4.768.019,7.151a.1.1,0,0,0,.2.025,33.551,33.551,0,0,0,.727-7.183,64.669,64.669,0,0,0-.21-7.3,65.859,65.859,0,0,0-3.27-14.252c-.2-.58-1.115-.344-.93.255h0Z" transform="translate(-1067.997 -513.074)" fill="#010d3d"/>
      <path id="Trazado_7160" data-name="Trazado 7160" d="M1183.979,631.077c-1.3-1.976-2.479-4.022-3.812-5.972s-2.766-3.964-4.181-5.928-2.779-3.722-4.219-5.552c-.727-.931-1.479-1.836-2.205-2.766a8.207,8.207,0,0,0-2.333-2.5.23.23,0,0,0-.332.255,7.909,7.909,0,0,0,1.708,2.8c.695.956,1.358,1.931,2.04,2.894,1.364,1.931,2.722,3.869,4.1,5.781s2.766,3.843,4.156,5.762,2.9,3.76,4.277,5.7c.338.472,1.122.038.79-.465h0Z" transform="translate(-1059.889 -501.645)" fill="#010d3d"/>
      <path id="Trazado_7161" data-name="Trazado 7161" d="M1192.693,644.415a8.305,8.305,0,0,0,2.346,2.677,8.037,8.037,0,0,0,1.53.86,8.435,8.435,0,0,0,.873.325,2.682,2.682,0,0,0,.911.191c.389-.026.644-.618.217-.81a5.694,5.694,0,0,0-.816-.223c-.274-.076-.522-.159-.778-.255a7.385,7.385,0,0,1-1.453-.771,7.589,7.589,0,0,1-2.3-2.314.31.31,0,0,0-.535.312h0Z" transform="translate(-1069.227 -514.561)" fill="#010d3d"/>
      <path id="Trazado_7162" data-name="Trazado 7162" d="M1074.035,450.608c-.733-1.453-2.244-2.046-3.69-2.543q-2.457-.832-4.946-1.574-5.038-1.5-10.185-2.639c-1.886-.421-3.78-.8-5.679-1.141a11.906,11.906,0,0,0-5.724.14,1.492,1.492,0,0,0-.656,2.473c.459.363.911.727,1.37,1.09-1.268-.121-2.537-.236-3.812-.3a79.388,79.388,0,0,0-8.076-.038,64.886,64.886,0,0,0-16.03,2.747c-2.753.854-5.564,1.829-7.617,3.939a1.663,1.663,0,0,0,.331,2.594,54.234,54.234,0,0,1,5.552,2.492c.172.1.344.2.523.306-1.3.408-2.562.943-3.684,1.4a60.73,60.73,0,0,0-8.942,4.6,1.876,1.876,0,0,0,0,3.2,8.712,8.712,0,0,0,3.907,1.058c1.37.115,2.734.2,4.1.363a56.466,56.466,0,0,1,5.813.988,11.856,11.856,0,0,1-2.722,1.058c-2.065.65-4.181,1.562-5.246,3.569a1.894,1.894,0,0,0,.911,2.645,20.03,20.03,0,0,0,4.659,2.365c1.721.8,3.4,1.689,5.144,2.435a1.582,1.582,0,0,0,2.282-.924,7.7,7.7,0,0,0,.045-3.257h.115c1.071-.121,1.81.9,2.569,1.517a5.162,5.162,0,0,0,3.136,1.275,3.2,3.2,0,0,0,2.161-.88,1.628,1.628,0,0,0,1.071-1.549,5.281,5.281,0,0,0-1.345-3.48l-.013.013a36.534,36.534,0,0,1-1.46-4.392c2.25.656,4.239,2.224,6.119,3.557,2.709,1.912,5.877,3.767,9.331,3.423.758-.07,1.625-.644,1.53-1.53a29.421,29.421,0,0,0-2.078-8.305c.331.178.644.376.943.574,1.453.962,2.454,2.569,3.576,3.882a22.338,22.338,0,0,0,8.936,6.023c1.064.433,2.129-.829,1.823-1.823-.854-2.817-1.606-5.647-2.326-8.5-.127-.491-.249-.988-.376-1.479l.21.229c3.984,4.4,8,8.764,11.944,13.187a1.791,1.791,0,0,0,2.977-.784,47.581,47.581,0,0,0,.586-5.125c.185-.006.382-.013.586,0a1.84,1.84,0,0,0,1.8-1.8q.688-5.277.937-10.587c.083-1.766.134-3.537.14-5.309C1074.571,454.12,1074.806,452.138,1074.035,450.608Z" transform="translate(-1000.049 -441.487)" fill="#010d3d"/>
    </g>
    <g id="Grupo_4682" data-name="Grupo 4682" transform="translate(824.309 500.957)">
      <path id="Trazado_7163" data-name="Trazado 7163" d="M1009.382,825.6c-.172-6.947-.389-13.9-.586-20.849-.4-13.984-.8-27.968-1.434-41.946q-.239-5.239-.516-10.479c-.1-1.676-.127-3.365-.3-5.029a3.859,3.859,0,0,0-2.065-3.41c-1.383-.637-3.091-.5-4.583-.561l-5.246-.191q-5.239-.182-10.485-.319c-4.608-.128-9.21-.217-13.818-.293-.057-2.448-.051-4.889-.331-7.336a1.182,1.182,0,0,0-1.46-1.115,32.1,32.1,0,0,1-4.43.089q-2.218,0-4.423-.006-4.427-.029-8.847-.019c-2.951.013-5.9.045-8.847.064q-2.209.01-4.423.032c-.682.006-1.37.019-2.052.006-.37-.006-.739.006-1.1-.013-.44-.026-.822-.159-1.268-.153a1.129,1.129,0,0,0-1.115,1.115,68.727,68.727,0,0,1,.261,7.247q-16.043.191-32.073.765-2.534.086-5.08.191a1.207,1.207,0,0,0-1.039.606.5.5,0,0,0-.408.542c.089,3.372.14,6.743.083,10.115s.025,6.712.045,10.064q.067,10.02-.038,20.026c-.121,13.328-.427,26.655-.306,39.983.07,7.566.28,15.138.72,22.691a1.306,1.306,0,0,0,1.268,1.268q21.884,1.539,43.833,1.734,21.932.191,43.858-.969,12.285-.65,24.552-1.727a1.316,1.316,0,0,0,1.275-1.268,186.616,186.616,0,0,0,.382-20.855Z" transform="translate(-893.466 -708.625)" fill="#fff"/>
      <path id="Trazado_7164" data-name="Trazado 7164" d="M984.535,715.346a.291.291,0,0,1-.064-.006,20.7,20.7,0,0,0-5.921.293,37.251,37.251,0,0,1,.389,7.247c-.057,1.339-.523,3.021.236,4.232a3.02,3.02,0,0,0,4.009.9c2.779-1.536,1.944-4.927,1.7-7.476C984.707,718.807,984.605,717.08,984.535,715.346Z" transform="translate(-924.32 -701.807)" fill="#f2a1bc"/>
      <path id="Trazado_7165" data-name="Trazado 7165" d="M987.5,702.246a2.312,2.312,0,0,0-.835-1.817,3.556,3.556,0,0,0-1.44-.682c-.045-.032-.089-.07-.134-.1-.8-.535-1.925-.765-2.581-1.288a6.716,6.716,0,0,0-2.875-1.746c-1.421-.268-2.964.331-4.341.663a7.547,7.547,0,0,0-3.652,1.753,15.211,15.211,0,0,0-3.888,6.081,1.926,1.926,0,0,0,1.332,2.346,1.814,1.814,0,0,0,1.568-.287,2.188,2.188,0,0,0,.427.2,6.5,6.5,0,0,0,3.372-.051,2.8,2.8,0,0,0,.013.516,22.064,22.064,0,0,1,6.068-.529h.006c0-.076-.006-.153-.013-.229.6-.108,1.2-.229,1.81-.287a11.805,11.805,0,0,1,3.735.51,1.922,1.922,0,0,0,2.409-1.836,8.005,8.005,0,0,0-.975-3.219Z" transform="translate(-920.372 -695.024)" fill="#ef8aab"/>
      <g id="Grupo_4681" data-name="Grupo 4681" transform="translate(28.604 58.013)">
        <path id="Trazado_7166" data-name="Trazado 7166" d="M970.886,793.124a106.218,106.218,0,0,1,9.389,16.693c2.69,5.781,4.9,11.333,7.069,17.388,1.1,3.053,2.148,6.119,3.187,9.191.242.707.478,1.421.72,2.129.108.319.217.631.312.956.045.147.083.293.121.44.032.127.057.733.057.229,0,.14,0,.3.013.433l.019-.121c.038-.191.025-.166-.026.077-.025-.077.293-.459,0-.045.07-.1.185-.223.249-.319.051-.077.484-.115-.045-.013-.153.032-.306.064-.459.089.453-.076-.038,0-.153.006-3.047.312-6.125.4-9.185.484-8.777.255-17.566.255-26.343.07-3.467-.077-6.935-.166-10.4-.414-.586-.045-1.166-.1-1.753-.153-.1-.006-.567-.089-.1,0-.153-.026-.306-.064-.459-.089-.28-.051-.159-.166-.045.013.064.1.185.223.255.325-.089-.127-.14-.382,0,.045-.07-.223.051-.3,0,.045.006-.057.026-.663,0-.325-.038.376.076-.344.076-.338.038-.147.076-.293.121-.44.1-.319.21-.637.312-.956.268-.8.542-1.6.81-2.4q.774-2.266,1.555-4.532c4.168-12.021,8.624-23.6,15.654-34.342.873-1.332,1.778-2.632,2.715-3.913a2.526,2.526,0,0,0-.9-3.435,2.585,2.585,0,0,0-3.435.9c-8.012,10.931-13.238,23.57-17.745,36.26-1.115,3.142-2.193,6.3-3.257,9.459a10.175,10.175,0,0,0-.8,4.927,4.5,4.5,0,0,0,3.824,3.608,74.837,74.837,0,0,0,10.071.656c9.121.281,18.261.281,27.388.077,3.537-.077,7.081-.172,10.606-.459.841-.07,1.689-.14,2.518-.28a4.519,4.519,0,0,0,3.818-3.6,10.242,10.242,0,0,0-.848-5.054c-.555-1.651-1.083-3.2-1.638-4.8-2.212-6.425-4.544-12.8-7.228-19.045a99.989,99.989,0,0,0-9.6-17.534c-.931-1.351-1.874-2.683-2.862-3.99a2.14,2.14,0,0,0-2.836-.746,2.1,2.1,0,0,0-.746,2.836h0Z" transform="translate(-938.343 -786.773)" fill="#ef8aab"/>
        <path id="Trazado_7167" data-name="Trazado 7167" d="M974.2,793.548a4.975,4.975,0,0,1,2.014-2.492c1.816-1.166.159-4.054-1.7-2.913a8.232,8.232,0,0,0-2.116,2.237,20.794,20.794,0,0,0-1.491,2.295l3.429,1.447a6.4,6.4,0,0,1,1.759-2.416,3.883,3.883,0,0,1,1.026-.765c.2-.121.414-.236.625-.344.14-.076.28-.147.427-.21-.223.1-.191.1.083-.006.274-.064.535-.153.816-.2.179-.032.159-.032-.064.006.159-.013.319-.019.478-.025.121,0,1.02.115.516.013.229.045.453.115.682.172.274.1.293.1.057.006.14.07.28.14.414.223.5.242-.153-.2.274.191a6.852,6.852,0,0,1,.695.733c-.236-.287.236.344.287.414.746,1.115,1.421,2.275,2.11,3.423a8.2,8.2,0,0,0,1.351,1.906,2.4,2.4,0,0,0,1.052.612l-.331-.153c.159-.057.523.631.586.739a37.274,37.274,0,0,0,2.275,3.289c.81,1.141.892,2.613,1.753,3.716.421.542,1.128.019,1.192-.491.153-1.237-.561-2.339-.854-3.506a33.754,33.754,0,0,0-.873-3.563c-.21-.574-.548-1.109-.714-1.689-.006-.025-.089-.408-.089-.408s-.1.975.013.089a2.943,2.943,0,0,0-.21-1.479,24.518,24.518,0,0,0-2.027-3.55c-1.377-2.25-2.817-4.334-5.418-5.246a8.53,8.53,0,0,0-7.266.937,11.251,11.251,0,0,0-4.245,6.584,1.875,1.875,0,0,0,3.614,1,7.657,7.657,0,0,1,.994-1.874c.459-.631,1.064-1.141,1.485-1.8l-2.913-1.7a16.309,16.309,0,0,0-1.67,4.258,1.016,1.016,0,0,0,1.957.542h0Z" transform="translate(-950.061 -785.177)" fill="#ef8aab"/>
        <path id="Trazado_7168" data-name="Trazado 7168" d="M977.275,803.967a88.65,88.65,0,0,0,.21,12.136c.172,1.963.4,3.926.65,5.883a15.426,15.426,0,0,0,1.581,5.9,2.559,2.559,0,0,0,3.436.9c1.855-.969,2-3.181,2.3-5.01.319-1.95.593-3.914.79-5.883a45.867,45.867,0,0,0-.153-11.371,9.753,9.753,0,0,0-1.944-4.812c-1.364-1.7-3.9-2.365-5.571-.644-1.351,1.4-1.5,3.423-1.549,5.265a31.948,31.948,0,0,0,.459,5.507c.274,1.823.7,3.8,1.02,5.7a24.879,24.879,0,0,1,.338,2.626c.115,1.364.127,2.556,1.109,3.633a2.112,2.112,0,0,0,2.964,0c1.294-1.39,1.026-3.193.816-4.921-.191-1.568-.459-3.117-.746-4.666a34.544,34.544,0,0,1-.937-8.025q.019-.5.057-.994a5.536,5.536,0,0,1,.064-.567c-.019.115-.089.376.032-.026.013-.038.128-.37.019-.1l-.045.1c.127-.21.14-.236.025-.083-.191.057-.5.382-.727.465a1.279,1.279,0,0,1-1.281-.191c-.121-.1-.121-.1,0,.013.032.045.37.421.2.2-.147-.191.076.134.083.14.083.14.159.281.236.427-.025-.045-.121-.312-.013-.032a9.592,9.592,0,0,1,.491,1.938c.07.414.121.937.179,1.638.064.765.1,1.536.121,2.307.038,1.542-.006,3.085-.115,4.621-.115,1.67-.306,3.353-.529,4.863-.121.816-.249,1.632-.389,2.448-.077.44-.14.886-.229,1.319-.019.1-.057.21-.07.312-.115.306-.076.28.108-.083a1.082,1.082,0,0,1,.35-.459l3.436.9c-.032-.051-.325-.593-.229-.4.07.153-.1-.261-.108-.306a8.9,8.9,0,0,1-.3-1.147c-.166-.79-.268-1.625-.351-2.288-.242-1.906-.44-3.818-.605-5.73-.325-3.831-.6-7.674-.771-11.511a2.2,2.2,0,0,0-4.4,0h0Z" transform="translate(-952.369 -790.574)" fill="#ef8aab"/>
        <path id="Trazado_7169" data-name="Trazado 7169" d="M980.038,853.031a6.506,6.506,0,0,0-.784.988,4.333,4.333,0,0,0-.37.829,1.269,1.269,0,0,0-.045.147c-.026.127-.038.268-.057.389s-.045.274-.051.4v.121a5.062,5.062,0,0,0,.1.752.811.811,0,0,0,.038.115,3.69,3.69,0,0,0,.3.688,4.948,4.948,0,0,0,.44.58,1,1,0,0,0,.076.083c.083.076.242.191.293.229,0,0,.191.159.281.217.019.013.038.019.057.032l.6.255.045.019a.117.117,0,0,1,.045.013,5.154,5.154,0,0,0,.7.1,1.874,1.874,0,0,0,.453-.045,2.224,2.224,0,0,0,.459-.076,4.208,4.208,0,0,0,.72-.306,5.813,5.813,0,0,0,.746-.555c.083-.064.159-.128.242-.2a5.228,5.228,0,0,0,.784-.931,1.324,1.324,0,0,0,.14-.242,3.833,3.833,0,0,0,.338-.867,3.521,3.521,0,0,0-.019-1.727,3.636,3.636,0,0,0-.829-1.453,1.19,1.19,0,0,0-.153-.159,4.847,4.847,0,0,0-.676-.516,5.593,5.593,0,0,0-.784-.351.954.954,0,0,0-.229-.07,3.613,3.613,0,0,0-2.741.382,3.96,3.96,0,0,0-1.2,1.186,3.648,3.648,0,0,0-.459,1,4.234,4.234,0,0,0-.166,1.1,1.616,1.616,0,0,0,.013.249,6.97,6.97,0,0,0,.127.88,4.758,4.758,0,0,0,.319.79c.038.083.076.159.121.236a5.314,5.314,0,0,0,.523.676,3.583,3.583,0,0,0,.446.376,3.044,3.044,0,0,0,.472.338,6.251,6.251,0,0,0,.822.351,1.668,1.668,0,0,0,.255.07,5.648,5.648,0,0,0,.924.121,1.792,1.792,0,0,0,.261-.013,4.862,4.862,0,0,0,.905-.14,6.145,6.145,0,0,0,.81-.331,1.565,1.565,0,0,0,.242-.153,5.357,5.357,0,0,0,.669-.535,5.094,5.094,0,0,0,.548-.708,3.692,3.692,0,0,0,.459-1.039,3.556,3.556,0,0,0,.147-1.166,7.467,7.467,0,0,0-.1-.758.69.69,0,0,0-.019-.121,4.3,4.3,0,0,0-.332-.835,3.47,3.47,0,0,0-.656-.892,5.875,5.875,0,0,0-.663-.529,1.317,1.317,0,0,0-.236-.147,6.105,6.105,0,0,0-.79-.331,1.317,1.317,0,0,0-.274-.064,5.819,5.819,0,0,0-.873-.1,5.333,5.333,0,0,0-.892.108,1.418,1.418,0,0,0-.249.07,4.747,4.747,0,0,0-.8.357,4.964,4.964,0,0,0-.676.516,1.716,1.716,0,0,0-.178.191,5.46,5.46,0,0,0-.516.695,6.488,6.488,0,0,0-.351.8,3.857,3.857,0,0,0-.191,1.141,1.535,1.535,0,0,0,.013.242,4.4,4.4,0,0,0,.147.905c.045.134.108.268.166.4s.1.268.172.4a4.568,4.568,0,0,0,.516.695,2.43,2.43,0,0,0,.178.185,6.11,6.11,0,0,0,.688.523,3.752,3.752,0,0,0,1.026.44c.045.013.089.019.134.032.153.026.535.083.682.089a1.8,1.8,0,0,0,.982-.217,3.957,3.957,0,0,0,.376-.166,2.77,2.77,0,0,0,.905-.9l-.86.86.026-.019a2.385,2.385,0,0,0,.854-.854,2.673,2.673,0,0,0,.236-1.836,2.438,2.438,0,0,0-.612-1.052l-.019-.013.376.484a2.673,2.673,0,0,0-.905-.905l.5.382a4.752,4.752,0,0,0-.567-.446,2.053,2.053,0,0,0-.7-.274,1.782,1.782,0,0,1-.261-.083l.6.255a1.548,1.548,0,0,1-.357-.21l.51.4a1.452,1.452,0,0,1-.242-.242l.4.51a1.418,1.418,0,0,1-.159-.268l.255.6a1.2,1.2,0,0,1-.089-.338l.089.669a1.906,1.906,0,0,1,0-.382l-.089.669a1.524,1.524,0,0,1,.1-.37l-.255.6a2.074,2.074,0,0,1,.21-.363l-.4.51a1.49,1.49,0,0,1,.249-.242l-.51.4a1.409,1.409,0,0,1,.268-.159l-.6.255a1.2,1.2,0,0,1,.338-.089l-.669.089a1.553,1.553,0,0,1,.344,0l-.669-.089a1.7,1.7,0,0,1,.4.108l-.6-.255a1.549,1.549,0,0,1,.331.191l-.51-.4a1.558,1.558,0,0,1,.274.268l-.4-.51a1.413,1.413,0,0,1,.159.268l-.255-.6a1.53,1.53,0,0,1,.1.344l-.089-.669a1.677,1.677,0,0,1,0,.357l.089-.669a1.54,1.54,0,0,1-.115.414l.255-.6a1.883,1.883,0,0,1-.2.344l.4-.51a1.6,1.6,0,0,1-.255.255l.51-.4a1.391,1.391,0,0,1-.312.185l.6-.255a1.74,1.74,0,0,1-.357.1l.669-.089a1.744,1.744,0,0,1-.446,0l.669.089a2.087,2.087,0,0,1-.433-.121l.6.255a2.017,2.017,0,0,1-.357-.21l.51.4a1.687,1.687,0,0,1-.261-.261l.4.51a1.28,1.28,0,0,1-.178-.312l.255.6a1.533,1.533,0,0,1-.1-.382l.089.669a1.593,1.593,0,0,1,0-.427l-.089.669a1.561,1.561,0,0,1,.1-.376l-.255.6a1.242,1.242,0,0,1,.178-.306l-.4.51a1.03,1.03,0,0,1,.2-.2l-.51.4a1.21,1.21,0,0,1,.249-.147l-.6.255a1.043,1.043,0,0,1,.242-.064l-.669.089a1.278,1.278,0,0,1,.312,0l-.669-.089a1.573,1.573,0,0,1,.338.1l-.6-.255a1.464,1.464,0,0,1,.274.159l-.51-.4a1.2,1.2,0,0,1,.223.217l-.4-.51a1.274,1.274,0,0,1,.14.236l-.255-.6a1,1,0,0,1,.064.236l-.089-.669a1.212,1.212,0,0,1,0,.217l.089-.669a1.278,1.278,0,0,1-.07.268l.255-.6a1.578,1.578,0,0,1-.2.344l.4-.51a3.412,3.412,0,0,1-.605.567l.51-.4a1.46,1.46,0,0,1-.3.185l.6-.255a.8.8,0,0,1-.166.045l.669-.089h-.121l.669.089a.487.487,0,0,1-.127-.038l.6.255s-.057-.032-.083-.051l.51.4a.493.493,0,0,1-.115-.115l.4.51a.67.67,0,0,1-.083-.147l.255.6a1,1,0,0,1-.057-.2l.089.669a.723.723,0,0,1,0-.2l-.089.669a1.154,1.154,0,0,1,.07-.242l-.255.6a1.8,1.8,0,0,1,.2-.338l-.4.51c.089-.115.191-.223.287-.331a2.641,2.641,0,0,0,.733-1.772,1.883,1.883,0,0,0-.217-.969,1.919,1.919,0,0,0-.516-.809,2.515,2.515,0,0,0-1.772-.733l-.669.089a2.5,2.5,0,0,0-1.109.644h0Z" transform="translate(-952.843 -809.184)" fill="#ef8aab"/>
      </g>
      <path id="Trazado_7170" data-name="Trazado 7170" d="M893.718,749.259c.1,3.372.159,6.743.1,10.115s.026,6.705.045,10.064c.045,6.673.019,13.347-.038,20.026-.121,13.328-.427,26.655-.306,39.983.07,7.566.281,15.138.72,22.691a1.292,1.292,0,0,0,1.256,1.256q21.884,1.539,43.832,1.734,21.932.191,43.858-.969,12.295-.65,24.558-1.727a1.3,1.3,0,0,0,1.256-1.256,183.5,183.5,0,0,0,.382-20.849c-.178-6.948-.389-13.9-.586-20.849-.4-13.984-.8-27.968-1.434-41.946q-.239-5.239-.523-10.478c-.089-1.67-.127-3.365-.3-5.029a3.835,3.835,0,0,0-2.052-3.4c-1.389-.637-3.091-.5-4.583-.555q-2.62-.105-5.246-.191-5.239-.182-10.485-.325-20.976-.564-41.965-.465t-41.959.848l-5.086.191a1.256,1.256,0,0,0,0,2.511q20.651-.822,41.321-1c13.78-.121,27.344-.032,41.015.268q10.335.229,20.657.612a35.774,35.774,0,0,1,4.678.217,1.161,1.161,0,0,1,1.1.822,9.153,9.153,0,0,1,.2,2.167q.3,5.163.548,10.319c.663,13.71,1.083,27.426,1.479,41.149q.287,10.2.574,20.4c.191,6.8.4,13.7.083,20.549q-.115,2.524-.338,5.042l1.256-1.256q-21.856,1.912-43.794,2.486t-43.864-.217q-12.3-.44-24.584-1.307l1.256,1.256c-.778-13.385-.816-26.8-.682-40.206s.433-26.655.229-39.983c-.057-3.767-.077-7.559-.4-11.313s-.644-7.585-1-11.377c-.07-.739-1.2-.771-1.173,0h0Z" transform="translate(-893.474 -713.348)" fill="#010d3d"/>
      <path id="Trazado_7171" data-name="Trazado 7171" d="M956.056,743.058a43.812,43.812,0,0,0,.172-7.865l-1.1,1.1c.739-.013,1.46-.2,2.212-.236s1.472-.045,2.212-.057c1.472-.025,2.951-.045,4.423-.064,2.951-.038,5.9-.032,8.847-.025s5.9.025,8.847.057c1.472.019,2.951.051,4.423.089a30.3,30.3,0,0,1,4.436.236l-.835-1.1c.045,2.575.4,5.1.657,7.655.127,1.23,1.995,1.288,1.963,0-.064-2.556-.051-5.105-.338-7.655a1.169,1.169,0,0,0-1.447-1.1,32.186,32.186,0,0,1-4.436.089c-1.472-.006-2.951,0-4.423-.006q-4.427-.029-8.847-.013c-2.951.013-5.9.045-8.847.057-1.472.006-2.951.019-4.423.032-.682.006-1.37.019-2.052.006-.37,0-.739,0-1.1-.013-.44-.026-.822-.159-1.262-.153a1.116,1.116,0,0,0-1.1,1.1,67.5,67.5,0,0,1,.249,7.865c-.038,1.166,1.67,1.115,1.785,0h0Z" transform="translate(-915.427 -708.632)" fill="#010d3d"/>
      <path id="Trazado_7172" data-name="Trazado 7172" d="M979.66,726.274c-.064-2.148-.083-4.3-.159-6.444-.032-1.033-.089-2.065-.1-3.091,0-.516.013-1.033.019-1.549a11.524,11.524,0,0,1,.026-1.625l-.682.516c1.613.1,3.257.128,4.857.357l-.5-.5a26.675,26.675,0,0,1,.567,6.374c.026,1.058.019,2.116.108,3.174a6.79,6.79,0,0,0,.637,3.1.691.691,0,0,0,1.275-.344,7.139,7.139,0,0,0-.21-1.593c-.064-.523-.1-1.084-.115-1.625-.032-1.058-.013-2.122.032-3.174a14.609,14.609,0,0,0-.911-6.278.737.737,0,0,0-.688-.523c-1.683-.006-3.372-.229-5.042-.37a.723.723,0,0,0-.682.516,6.337,6.337,0,0,0-.089,3.034c.1,1.115.14,2.231.2,3.353.115,2.237.281,4.468.4,6.7.038.676,1.077.682,1.058,0h0Z" transform="translate(-924.072 -700.873)" fill="#010d3d"/>
      <path id="Trazado_7173" data-name="Trazado 7173" d="M967.683,708.009c3.346-.255,6.718-.2,10.071-.159,1.683.019,3.359.057,5.042.14s3.372.064,5.029.242c.567.057.956-.51.994-.994.242-2.747.331-5.43-1.109-7.884a10.674,10.674,0,0,0-5.666-4.551,12.517,12.517,0,0,0-14.016,4.564c-1.536,2.142-2.855,5.8-1.441,8.292a.822.822,0,0,0,1.485-.191c.338-1.313.3-2.683.7-4A9.075,9.075,0,0,1,970.692,700a10.136,10.136,0,0,1,6.909-3.321,8.9,8.9,0,0,1,7.094,2.753,8.281,8.281,0,0,1,1.785,3.136,12.939,12.939,0,0,1,.344,4.672l.994-.994c-1.683-.121-3.34-.37-5.029-.44s-3.359-.108-5.042-.1c-3.384.026-6.705.37-10.071.676-1.033.1-1.052,1.715,0,1.632h0Z" transform="translate(-919.763 -694.158)" fill="#010d3d"/>
    </g>
    <path id="Trazado_7174" data-name="Trazado 7174" d="M842.094,184.024a.032.032,0,0,0,0-.064.032.032,0,0,0,0,.064Z" transform="translate(-50.518 -8.192)" fill="#010d3d"/>
    <g id="Grupo_4685" data-name="Grupo 4685" transform="translate(852.675 161.369)">
      <g id="Grupo_4683" data-name="Grupo 4683" transform="translate(2.902 12.226)">
        <path id="Trazado_7175" data-name="Trazado 7175" d="M994.486,182.87c-.1-1.128-.376-2.122-1.5-2.32-15.609.293-31.773.293-47.383,0-4.1,3.212-2.785,10.689-3.015,22.461-.2,10.657-.172,21.359,3.333,31.289,4.124,8.726,14.59,13.181,23.373,13.181s19.249-4.455,23.373-13.181c3.506-9.93,3.365-20.626,3.333-31.289C995.971,193.807,996.335,183.75,994.486,182.87Z" transform="translate(-942.523 -180.55)" fill="#f2a1bc"/>
        <path id="Trazado_7176" data-name="Trazado 7176" d="M961.4,241.084A34.8,34.8,0,0,1,956.13,232a42.908,42.908,0,0,1-2.384-10.02c-.465-3.55-.656-7.145-.86-10.721-.2-3.716-.325-7.432-.331-11.148a152.513,152.513,0,0,1,1.1-19.453c-1.472-.019-2.951-.038-4.417-.07-1.919,6.291-1.039,13.1-.924,19.58.121,7.107-.083,14.284,1.154,21.314,1.013,5.768,3.021,11.613,6.9,16.119a20.458,20.458,0,0,0,6.189,4.819c-.389-.44-.778-.886-1.141-1.351Z" transform="translate(-944.512 -180.564)" fill="#f5b9cd"/>
        <path id="Trazado_7177" data-name="Trazado 7177" d="M987.678,183.059c-.032-.357-.121-.676-.478-.739-4.978.1-10.128.1-15.1,0-1.307,1.026-.886,17.426-.962,21.18-.064,3.4-.057,6.807,1.064,9.975,1.313,2.779,4.653,4.2,7.451,4.2s6.138-1.421,7.451-4.2c1.115-3.161,1.071-6.578,1.064-9.975-.013-2.932.108-20.16-.484-20.441Z" transform="translate(-952.891 -181.192)" fill="#ef8aab"/>
        <path id="Trazado_7178" data-name="Trazado 7178" d="M999.493,182.87c-.1-1.128-.376-2.122-1.5-2.32q-3.566.067-7.164.108c.153.8.312,1.606.472,2.4.414,2.059.822,4.117,1.045,6.208a70.9,70.9,0,0,1,.21,7.177c.019,4.615-.134,9.229-.433,13.831-.274,4.162-.58,8.35-1.237,12.473a30.085,30.085,0,0,1-3.066,9.663,18.281,18.281,0,0,1-7.2,7.139,28.313,28.313,0,0,1-18.439,3.372,22.52,22.52,0,0,1-5.858-1.772,28.9,28.9,0,0,0,17.974,6.329c8.783,0,19.249-4.455,23.373-13.181,3.506-9.93,3.365-20.626,3.333-31.289-.032-9.2.331-19.262-1.517-20.141Z" transform="translate(-947.53 -180.55)" fill="#ef8aab"/>
      </g>
      <g id="Grupo_4684" data-name="Grupo 4684">
        <path id="Trazado_7179" data-name="Trazado 7179" d="M940.714,178.962q28.07.507,56.14.229l-.408-15.7q-27.64-.526-55.267.758a1.784,1.784,0,0,0-1.492.567,1.733,1.733,0,0,0-.185.956l-.013,13.2,1.715.019" transform="translate(-938.521 -162.084)" fill="#fff"/>
        <path id="Trazado_7180" data-name="Trazado 7180" d="M940.162,179.05c14.59.389,29.173.44,43.769.446,4.111,0,8.267.166,12.372-.1a.931.931,0,0,0,.918-.918c-.191-2.594-.1-5.246-.159-7.852s-.14-5.233-.166-7.853a1.015,1.015,0,0,0-1-1c-1.179-.045-2.326-.21-3.493-.287-1.262-.083-2.549-.045-3.812-.064-2.435-.038-4.87-.045-7.311-.051q-7.228-.01-14.456.1t-14.449.351q-3.652.124-7.3.274l-3.493.153a4.809,4.809,0,0,0-2.868.656c-1.058.822-.682,1.957-.644,3.1.045,1.358.013,2.728.025,4.086.013,2.722,0,5.45,0,8.171a.874.874,0,0,0,.86.86c.574.006,1.147-.006,1.715-.019a.826.826,0,0,0,0-1.651c-.574-.019-1.147-.045-1.715-.051l.86.86c0-2.307-.019-4.608,0-6.916l.019-3.142.013-1.727c0-.338-.134-1.4.166-1.638.166-.134.752-.057.943-.07.529-.025,1.058-.051,1.587-.07,1.166-.051,2.326-.1,3.493-.147,2.326-.1,4.659-.178,6.986-.249q13.653-.43,27.318-.421c2.543,0,5.086.019,7.623.038,1.268.006,2.543.019,3.812.032,1.377.013,2.747-.166,4.13-.159l-1-1c.115,2.613.166,5.233.242,7.853s.306,5.246.249,7.852l.918-.918c-3.633-.166-7.3.025-10.944.057s-7.3.045-10.944.038q-10.947-.01-21.888-.134c-4.124-.045-8.248-.032-12.371-.07a.8.8,0,0,0,0,1.606h0Z" transform="translate(-937.97 -161.369)" fill="#010d3d"/>
      </g>
    </g>
  </g>
</svg>
