<svg xmlns="http://www.w3.org/2000/svg" width="467.455" height="374.759" viewBox="0 0 467.455 374.759"><g id="IICE_LandingCompliancePenal_Nivel3_7" transform="translate(-588.659 -243.697)"><g id="Grupo_4803" data-name="Grupo 4803" transform="translate(588.659 243.697)"><g id="Grupo_4801" data-name="Grupo 4801"><path id="Trazado_7472" data-name="Trazado 7472" d="M806.269,251.365c-67.344-6.057-110.313-7.4-176.738,0-5.453.6-38.278,5.642-38.221,9.76,1.026,70.977,5.491,142.7,6.177,211.061-.2,3.375,2.588,5.485,7.248,5.151,68.433.963,135.525-13.74,203.971-13.721,3.608-22.945,2.582-167.6-2.437-212.251" transform="translate(-589.641 -244.663)" fill="#fff"/><path id="Trazado_7473" data-name="Trazado 7473" d="M805.287,248.787c-21.913-2.021-43.863-3.747-65.858-4.578-19.973-.756-39.966-.693-59.926.309q-16.274.812-32.51,2.342c-7.89.73-15.8,1.417-23.638,2.594-6.1.913-12.184,1.983-18.216,3.293-2.978.649-5.951,1.354-8.86,2.248a21.441,21.441,0,0,0-5.8,2.424,3.958,3.958,0,0,0-1.694,2.015,7.68,7.68,0,0,0-.082,2.279c.025,1.562.05,3.117.076,4.678q.16,9.143.384,18.286.435,18.078,1.064,36.143c.812,24.06,1.788,48.114,2.645,72.173.844,23.632,1.574,47.27,1.9,70.914.038,2.67-.094,5.4.094,8.06a6.076,6.076,0,0,0,2.613,4.634,9.763,9.763,0,0,0,5.925,1.429c2.909-.076,5.825.031,8.74.019,11.951-.044,23.9-.535,35.829-1.3,23.758-1.536,47.427-4.181,71.1-6.637s47.427-4.735,71.242-5.522q8.708-.293,17.417-.3a1.666,1.666,0,0,0,1.593-1.215c1.335-8.557,1.392-17.392,1.644-26.025.428-14.564.548-29.135.56-43.7q.028-25.889-.447-51.778c-.3-16.554-.724-33.115-1.417-49.656-.529-12.726-1.127-25.47-2.368-38.152-.107-1.127-.227-2.248-.353-3.375a1.709,1.709,0,0,0-1.656-1.656,1.67,1.67,0,0,0-1.656,1.656c1.341,11.958,1.933,24.01,2.481,36.03.743,16.239,1.2,32.5,1.53,48.756q.529,25.908.567,51.816c.025,15.093-.063,30.193-.428,45.286-.233,9.458-.353,19.016-1.455,28.424-.038.315-.076.63-.12.945.082-.63-.05.353-.082.56l1.593-1.215c-23.556,0-47.068,1.738-70.5,3.992-23.405,2.248-46.766,5.006-70.2,7.015-11.674,1-23.374,1.82-35.086,2.3q-8.793.359-17.6.441-4.411.038-8.822-.006c-1.965-.019-4.326.359-6.076-.774-1.473-.951-1.278-2.468-1.291-4.024q-.047-4.3-.113-8.6-.132-8.652-.327-17.3-.4-17.474-.989-34.947c-.775-23.625-1.725-47.238-2.588-70.864-.863-23.783-1.637-47.572-2.046-71.374q-.038-2.229-.076-4.458c-.013-.737.038-1.5-.031-2.229.019.164-.019.183-.132.441.082-.189.315-.346-.031-.006a2.054,2.054,0,0,1,.29-.283c.214-.151-.107.076-.12.088.082-.057.157-.12.246-.17.157-.094.309-.2.472-.29a12.167,12.167,0,0,1,2.456-1.077c1.2-.428,2.412-.8,3.633-1.146a182.752,182.752,0,0,1,18.576-3.954q3.967-.68,7.953-1.272c.472-.069.945-.139,1.417-.2l.334-.044c.208-.025.416-.057.617-.082,1.889-.239,3.784-.428,5.68-.63,10.975-1.171,21.976-2.166,32.989-2.922q29.828-2.04,59.744-1.473c19.929.4,41.489,1.776,62.187,3.457q8.5.69,16.989,1.423c2.072.183,2.053-3.035,0-3.224h0Z" transform="translate(-588.659 -243.697)" fill="#010d3d"/></g><path id="Trazado_7474" data-name="Trazado 7474" d="M860.859,300.63c-2.292-1.9-5.906-.523-7.071,1.643-3.614,3.293.126,9.59,4.7,8.916,6.133-.749,7.682-7.235,2.374-10.566Z" transform="translate(-686.306 -274.447)" fill="#f9d0dd"/><path id="Trazado_7475" data-name="Trazado 7475" d="M633.611,312.955c-.491,5.283-.579,10.579-.649,15.88s-.076,10.365-.05,15.54c.05,10.478.258,20.943.479,31.421.126,5.969.283,11.932.435,17.9a.9.9,0,0,0,.888.888c21.963-2.235,43.92-4.389,65.94-5.969q32.841-2.361,65.745-3.532c12.285-.435,24.646-1.058,36.905.113,1.184.113,1.171-1.732,0-1.845-11.038-1.077-22.152-.705-33.215-.334q-16.453.548-32.888,1.4-32.888,1.71-65.694,4.666c-12.279,1.1-24.557,2.267-36.8,3.721l.888.888c-.869-20.93-.856-41.892-.724-62.835.038-5.969.138-11.945-.189-17.908a.539.539,0,0,0-1.077,0h0Z" transform="translate(-605.042 -279.152)" fill="#010d3d"/><path id="Trazado_7476" data-name="Trazado 7476" d="M642.53,339.737q82.928-7.046,165.976-11.517" transform="translate(-608.609 -284.998)" fill="none" stroke="#64d8cc" stroke-width="1.11" stroke-dasharray="0 6.63"/><path id="Trazado_7477" data-name="Trazado 7477" d="M639.286,402.458a172.436,172.436,0,0,1,17.2-27.7l-1.171-.151c1.826,4.055,3.69,8.091,5.554,12.128a.887.887,0,0,0,1.518,0c4.439-7.052,8.765-14.18,13.135-21.283h-1.454q3.561,5.62,7.09,11.265a.863.863,0,0,0,1.555-.2,68.421,68.421,0,0,1,15.276-24.557l-1.366-.176c2.437,5.289,4.867,10.591,7.361,15.849a.887.887,0,0,0,1.517,0c2.468-4.017,4.874-8.047,7.512-11.964s5.283-7.808,7.8-11.794l-1.089.139c5.963,7.052,12.316,13.758,18.172,20.9.737.9,2.04-.4,1.284-1.285-5.976-7.027-12.467-13.595-18.475-20.6a.7.7,0,0,0-1.089.139c-2.487,4.011-5,7.978-7.669,11.869s-5.428,7.726-7.959,11.7h1.518c-2.412-5.3-4.9-10.572-7.373-15.843a.874.874,0,0,0-1.366-.176,71.248,71.248,0,0,0-15.685,25.338l1.555-.2q-3.561-5.62-7.1-11.252a.852.852,0,0,0-1.455,0c-4.408,7.078-8.859,14.124-13.2,21.245H662.4c-1.921-4-3.835-8-5.787-12a.754.754,0,0,0-1.285,0,150.48,150.48,0,0,0-16.712,28.2c-.2.453.441.85.674.4h0Z" transform="translate(-607.147 -290.406)" fill="#ef8aab"/><path id="Trazado_7478" data-name="Trazado 7478" d="M796.969,352.186c1.883-3.709,3.558-7.537,5.377-11.277.888-1.826,1.839-3.627,2.777-5.434s1.914-3.841,3.048-5.629h-1.316c1.719,2.405,3.589,4.7,5.34,7.084s3.438,4.83,5.056,7.317a1.073,1.073,0,0,0,1.832,0c3.211-5.61,6.341-11.271,9.5-16.913s6.208-11.353,9.5-16.913c.7-1.184-1.2-2.279-1.839-1.077-3.041,5.7-6.328,11.284-9.5,16.913s-6.372,11.252-9.489,16.919h1.832q-2.531-3.759-5.27-7.361a69.539,69.539,0,0,0-5.762-6.889.767.767,0,0,0-1.2.157c-.856,1.952-1.92,3.828-2.859,5.743s-1.8,3.765-2.7,5.648c-1.795,3.74-3.6,7.531-5.018,11.429-.151.4.5.68.7.3h0Z" transform="translate(-665.537 -277.814)" fill="#ef8aab"/><path id="Trazado_7479" data-name="Trazado 7479" d="M641.749,467.7a38.218,38.218,0,0,0-.353,7.2c-.013,2.374,0,4.893.006,7.342a1.009,1.009,0,0,0,.995.995l13.872-.623a1.007,1.007,0,0,0,.957-.73,50.425,50.425,0,0,0,.025-15.263.971.971,0,0,0-.7-.7,27.174,27.174,0,0,0-13.261.39,1,1,0,0,0,.529,1.927,25,25,0,0,1,12.2-.39l-.7-.7a47.285,47.285,0,0,1-.019,14.2l.957-.73-13.872.63.995.995c0-2.449,0-4.893-.025-7.342a38.421,38.421,0,0,0-.384-7.2.641.641,0,0,0-1.228,0h0Z" transform="translate(-608.186 -325.757)" fill="#010d3d"/><path id="Trazado_7480" data-name="Trazado 7480" d="M682.736,465.976a34.926,34.926,0,0,0,3.879-.346c1.341-.145,2.689-.283,4.03-.441q3.872-.463,7.745-.913a68.991,68.991,0,0,1,7.909-.724c2.594,0,5.176-.183,7.77-.227,1.5-.025,3-.019,4.5.038.724.025,1.448.063,2.172.107a7.681,7.681,0,0,0,2.248,0,.88.88,0,0,0,.208-1.593,11.126,11.126,0,0,0-3.854-.479c-1.259-.057-2.588-.076-3.885-.069a56.716,56.716,0,0,0-8.009.434c-5.277.775-10.591,1.316-15.88,2-1.448.189-2.9.384-4.351.592a40.859,40.859,0,0,0-4.616.718.47.47,0,0,0,.126.919h0Z" transform="translate(-623.325 -324.291)" fill="#010d3d"/><path id="Trazado_7481" data-name="Trazado 7481" d="M756.126,461.973c2.569-.164,5.176-.164,7.751-.252s5.176-.132,7.764-.164c5.176-.063,10.358.031,15.534.132,1.165.025,1.152-1.75,0-1.807-5.17-.246-10.358-.22-15.534-.063-2.588.082-5.176.214-7.764.378s-5.17.491-7.751.724c-.661.057-.674,1.089,0,1.045h0Z" transform="translate(-650.491 -323.688)" fill="#010d3d"/><path id="Trazado_7482" data-name="Trazado 7482" d="M684.093,476.52c1.36.038,2.72-.088,4.087-.057,1.272.031,2.544.126,3.816.2s2.506.076,3.753.025a16.61,16.61,0,0,0,3.822-.46c.844-.239.724-1.675-.214-1.587-1.3.12-2.582.353-3.885.422s-2.506.069-3.759.107-2.55.1-3.822.189a17.1,17.1,0,0,0-3.879.548.313.313,0,0,0,.082.611h0Z" transform="translate(-623.889 -329.218)" fill="#010d3d"/><path id="Trazado_7483" data-name="Trazado 7483" d="M717.658,472.839c2.758.283,5.673-.327,8.412-.642s5.61-.579,8.412-.875,5.529-.649,8.3-.913a25.245,25.245,0,0,1,8.085.271c1.026.239,1.461-1.348.434-1.574a25.883,25.883,0,0,0-8.217-.239c-2.745.283-5.547.686-8.312,1.058s-5.793.825-8.7,1.2c-1.4.176-2.789.353-4.187.535a20.7,20.7,0,0,0-4.269.856.167.167,0,0,0,.044.327h0Z" transform="translate(-636.372 -327.004)" fill="#010d3d"/><path id="Trazado_7484" data-name="Trazado 7484" d="M783.386,467.774c.05.057.346.239.126.038.139.126.151.277.346.384a4.229,4.229,0,0,0,1.637.277,52.021,52.021,0,0,0,5.428,0c4.616-.1,9.231-.246,13.853-.214a.8.8,0,0,0,0-1.6c-4.414.063-8.822.309-13.236.453-1.794.057-3.583.094-5.377.126-.579.013-1.159.025-1.738.05a1.634,1.634,0,0,0-.674.113c-.277.138-.038.113-.076.088a.205.205,0,0,0-.29.29h0Z" transform="translate(-660.75 -326.266)" fill="#010d3d"/><path id="Trazado_7485" data-name="Trazado 7485" d="M684.654,486.715c.541.611,1.858.466,2.588.5,1.083.044,2.172.044,3.255.019,2.185-.05,4.37-.183,6.555-.353,5.012-.4,10.024-.863,15.043-1.152,1.052-.063,1.052-1.706,0-1.637-5.025.315-10.031.825-15.043,1.259-2.185.189-4.364.378-6.555.516-1.045.069-2.091.126-3.136.183-.762.038-2.122-.138-2.708.46a.158.158,0,0,0,0,.22h0Z" transform="translate(-624.191 -332.719)" fill="#010d3d"/><path id="Trazado_7486" data-name="Trazado 7486" d="M740.738,481.64a7.169,7.169,0,0,1-2.645-.082c-.686-.208-.907.938-.138,1.008a62.164,62.164,0,0,0,9.433-.264l9.432-.592c1.152-.069,1.159-1.883,0-1.8l-9.59.661a61.823,61.823,0,0,0-9.414.989l.4.938a7.181,7.181,0,0,1,2.544-.7c.088-.013.069-.17-.019-.157Z" transform="translate(-643.768 -331.171)" fill="#010d3d"/><path id="Trazado_7487" data-name="Trazado 7487" d="M642.179,515.651a38.218,38.218,0,0,0-.353,7.2c-.013,2.374,0,4.893.006,7.342a1.009,1.009,0,0,0,.995.995l13.872-.623a1.007,1.007,0,0,0,.957-.73,50.422,50.422,0,0,0,.025-15.263.97.97,0,0,0-.7-.7,27.173,27.173,0,0,0-13.261.39,1,1,0,0,0,.529,1.927,25,25,0,0,1,12.2-.39l-.7-.7a47.283,47.283,0,0,1-.019,14.2l.957-.73-13.872.63.995.995c0-2.449,0-4.893-.025-7.342a38.422,38.422,0,0,0-.384-7.2.641.641,0,0,0-1.228,0h0Z" transform="translate(-608.346 -343.514)" fill="#010d3d"/><path id="Trazado_7488" data-name="Trazado 7488" d="M683.166,514.562a28.533,28.533,0,0,0,3.658-.264c1.946-.164,3.9-.334,5.843-.5,2.33-.189,4.653-.378,6.989-.51,1.234-.069,2.443.031,3.671.006s2.506-.107,3.759-.157,2.619-.088,3.923-.1c.617-.006,1.228-.013,1.845-.006a4.852,4.852,0,0,0,1.883-.139c.586-.239.97-1.24.208-1.593a7.892,7.892,0,0,0-3.312-.258c-1.184.013-2.368.044-3.545.082s-2.412.088-3.614.164c-1.278.082-2.519.346-3.791.46-4.439.4-8.891.705-13.324,1.247a26.15,26.15,0,0,0-4.326.636.47.47,0,0,0,.126.919h0Z" transform="translate(-623.484 -342.684)" fill="#010d3d"/><path id="Trazado_7489" data-name="Trazado 7489" d="M742.622,511.107c2.67-.183,5.359-.258,8.028-.409,3.495-.2,7-.416,10.49-.6,7.367-.378,14.734-.806,22.108-1.045,1.694-.057,3.394-.1,5.088-.113.711-.006,1.417-.006,2.128,0a2.624,2.624,0,0,0,1.958-.46.585.585,0,0,0,0-.825c-.888-.812-2.424-.542-3.564-.542-1.455,0-2.909.025-4.364.057q-5.2.123-10.4.422c-7.4.416-14.8.97-22.183,1.587-3.1.258-6.2.623-9.294.888-.661.057-.674,1.089,0,1.045h0Z" transform="translate(-645.487 -341.231)" fill="#010d3d"/><path id="Trazado_7490" data-name="Trazado 7490" d="M684.523,524.46c1.36.038,2.72-.088,4.087-.057,1.272.031,2.544.126,3.816.2s2.506.076,3.753.025a16.613,16.613,0,0,0,3.822-.46c.844-.239.724-1.675-.214-1.587-1.3.12-2.582.353-3.885.422s-2.506.069-3.759.107-2.55.1-3.822.189a17.1,17.1,0,0,0-3.879.548.313.313,0,0,0,.082.611h0Z" transform="translate(-624.048 -346.972)" fill="#010d3d"/><path id="Trazado_7491" data-name="Trazado 7491" d="M718.088,520.044c2.582.019,5.138-.22,7.714-.441,4.017-.346,8.035-.712,12.052-1.026q13.044-1.011,26.113-1.883c2.928-.189,5.862-.416,8.8-.453a.816.816,0,0,0,0-1.631c-6.523.138-13.072.844-19.57,1.392-8.753.737-17.505,1.6-26.245,2.456a61.15,61.15,0,0,0-8.9,1.253.167.167,0,0,0,.044.328h0Z" transform="translate(-636.532 -344.022)" fill="#010d3d"/><path id="Trazado_7492" data-name="Trazado 7492" d="M685.115,534.071a5.734,5.734,0,0,0,2.657.409c1.2.006,2.412,0,3.614-.025,3.01-.063,6.013-.227,9.017-.4,6.693-.39,13.374-.944,20.061-1.436,2.972-.22,5.938-.434,8.91-.611,1.052-.063,1.052-1.706,0-1.637-12.335.756-24.652,1.876-36.975,2.752-1.4.1-2.808.2-4.219.264a8.213,8.213,0,0,0-3.067.428.153.153,0,0,0,0,.264h0Z" transform="translate(-624.351 -349.858)" fill="#010d3d"/><path id="Trazado_7493" data-name="Trazado 7493" d="M770.678,528.6a7.169,7.169,0,0,1-2.645-.082c-.686-.208-.907.938-.139,1.008a62.163,62.163,0,0,0,9.432-.264l9.433-.592c1.152-.069,1.159-1.883,0-1.8l-9.59.661a61.814,61.814,0,0,0-9.414.989l.4.938a7.179,7.179,0,0,1,2.544-.7c.088-.013.069-.17-.019-.157h0Z" transform="translate(-654.855 -348.561)" fill="#010d3d"/><path id="Trazado_7494" data-name="Trazado 7494" d="M643.6,560.721a38.217,38.217,0,0,0-.353,7.2c-.013,2.374,0,4.893.006,7.342a1.009,1.009,0,0,0,.995.995l13.872-.623a1.007,1.007,0,0,0,.957-.73,50.421,50.421,0,0,0,.025-15.263.97.97,0,0,0-.7-.7,27.173,27.173,0,0,0-13.261.39,1,1,0,0,0,.529,1.927,25,25,0,0,1,12.2-.39l-.7-.7a47.287,47.287,0,0,1-.019,14.2l.957-.73-13.872.63.995.995c0-2.449,0-4.893-.025-7.342a38.422,38.422,0,0,0-.384-7.2.641.641,0,0,0-1.228,0h0Z" transform="translate(-608.872 -360.205)" fill="#010d3d"/><path id="Trazado_7495" data-name="Trazado 7495" d="M684.586,559a34.917,34.917,0,0,0,3.879-.346c1.341-.145,2.689-.283,4.03-.441q3.872-.463,7.745-.913a69,69,0,0,1,7.909-.724c2.626.006,5.176-.183,7.77-.227,1.5-.025,3-.019,4.5.038.724.025,1.448.063,2.172.107a7.684,7.684,0,0,0,2.248,0,.88.88,0,0,0,.208-1.593,11.124,11.124,0,0,0-3.854-.479c-1.259-.057-2.588-.076-3.885-.069a56.734,56.734,0,0,0-8.009.435c-5.277.775-10.591,1.316-15.88,2-1.448.189-2.9.384-4.351.592a40.869,40.869,0,0,0-4.616.718.47.47,0,0,0,.126.919h0Z" transform="translate(-624.01 -358.738)" fill="#010d3d"/><path id="Trazado_7496" data-name="Trazado 7496" d="M757.976,554.993c2.569-.164,5.176-.164,7.751-.252s5.176-.132,7.764-.164c5.176-.063,10.358.031,15.534.132,1.165.025,1.152-1.751,0-1.807-5.17-.246-10.358-.22-15.534-.063-2.588.082-5.176.214-7.764.378s-5.17.491-7.751.724c-.661.057-.674,1.089,0,1.045h0Z" transform="translate(-651.176 -358.135)" fill="#010d3d"/><path id="Trazado_7497" data-name="Trazado 7497" d="M685.943,569.54c1.36.038,2.72-.088,4.087-.057,1.272.031,2.544.126,3.816.2s2.506.076,3.753.025a16.61,16.61,0,0,0,3.822-.46c.844-.239.724-1.675-.214-1.587-1.3.12-2.582.353-3.885.422s-2.506.069-3.759.107-2.55.1-3.822.189a17.1,17.1,0,0,0-3.879.548.313.313,0,0,0,.082.611h0Z" transform="translate(-624.574 -363.666)" fill="#010d3d"/><path id="Trazado_7498" data-name="Trazado 7498" d="M719.508,565.849c2.758.283,5.673-.327,8.412-.642s5.61-.579,8.412-.875,5.529-.649,8.3-.913a25.244,25.244,0,0,1,8.085.271c1.026.239,1.461-1.348.435-1.574a25.884,25.884,0,0,0-8.217-.239c-2.745.283-5.547.686-8.312,1.058s-5.793.825-8.7,1.2c-1.4.176-2.789.353-4.187.535a20.693,20.693,0,0,0-4.269.856.167.167,0,0,0,.044.327h0Z" transform="translate(-637.057 -361.448)" fill="#010d3d"/><path id="Trazado_7499" data-name="Trazado 7499" d="M785.236,560.794c.05.057.346.239.126.038.139.126.151.277.346.384a4.228,4.228,0,0,0,1.637.277,52,52,0,0,0,5.428,0c4.616-.1,9.231-.246,13.853-.214a.8.8,0,0,0,0-1.6c-4.414.063-8.822.309-13.236.453-1.795.057-3.583.094-5.378.126-.579.013-1.159.025-1.738.05a1.635,1.635,0,0,0-.674.113c-.277.138-.038.113-.076.088a.205.205,0,0,0-.29.29h0Z" transform="translate(-661.435 -360.713)" fill="#010d3d"/><path id="Trazado_7500" data-name="Trazado 7500" d="M686.5,579.734c.542.611,1.858.466,2.588.5,1.083.044,2.172.044,3.255.019,2.185-.05,4.37-.183,6.555-.353,5.012-.4,10.024-.863,15.043-1.152,1.052-.063,1.052-1.706,0-1.637-5.025.315-10.031.825-15.043,1.259-2.185.189-4.364.378-6.555.516-1.045.069-2.091.126-3.136.183-.762.038-2.122-.138-2.708.46a.158.158,0,0,0,0,.22h0Z" transform="translate(-624.877 -367.167)" fill="#010d3d"/><path id="Trazado_7501" data-name="Trazado 7501" d="M742.588,574.66a7.172,7.172,0,0,1-2.645-.082c-.686-.208-.907.938-.138,1.007a62.163,62.163,0,0,0,9.432-.264l9.433-.592c1.152-.069,1.159-1.883,0-1.8l-9.59.661a61.805,61.805,0,0,0-9.414.989l.4.938a7.18,7.18,0,0,1,2.544-.7c.088-.013.069-.17-.019-.157h0Z" transform="translate(-644.453 -365.618)" fill="#010d3d"/><path id="Trazado_7502" data-name="Trazado 7502" d="M649.035,469.792c-.34.957.183,2.223.535,3.136l1.045,2.733a1.982,1.982,0,0,0,3.268.863c3.665-3.665,7.248-7.418,10.856-11.139a2.04,2.04,0,0,0,0-2.827,2,2,0,0,0-2.827,0c-3.608,3.728-7.248,7.418-10.793,11.2l3.066.4L653,471.479c-.39-.888-.894-2.128-1.8-2.569a1.5,1.5,0,0,0-2.166.882h0Z" transform="translate(-610.977 -324.53)" fill="#64d8cc"/><path id="Trazado_7503" data-name="Trazado 7503" d="M650.9,518.472l-.057.025a.851.851,0,0,0-.422.737,10.848,10.848,0,0,0,.239,2.663c.157.774.491,1.518.573,2.286a1.947,1.947,0,0,0,3.274,1.354c1.977-1.543,3.766-3.394,5.6-5.094l5.566-5.132a2,2,0,1,0-2.827-2.827l-5.547,5.151c-1.839,1.706-3.822,3.337-5.51,5.189h2.708a7.9,7.9,0,0,1-1.209-1.908c-.4-.724-.819-1.429-1.285-2.109a.846.846,0,0,0-.737-.422,1.069,1.069,0,0,0-.372.088h0Z" transform="translate(-611.529 -343.023)" fill="#64d8cc"/><path id="Trazado_7504" data-name="Trazado 7504" d="M653.854,562.705a10.767,10.767,0,0,0,.346,3c.113.491.183.982.321,1.473s.334.945.422,1.436a1.9,1.9,0,0,0,2.771,1.127,24.6,24.6,0,0,0,3.293-3.186l2.846-2.953,5.887-6.1a2.034,2.034,0,0,0,0-2.827,2,2,0,0,0-2.827,0l-5.869,6.12-2.84,2.959a24.9,24.9,0,0,0-3.073,3.4l2.959-.384a6.289,6.289,0,0,1-.6-.989c-.233-.39-.51-.762-.737-1.159a23.96,23.96,0,0,0-1.392-2.33.815.815,0,0,0-1.5.409Z" transform="translate(-612.798 -358.644)" fill="#64d8cc"/></g><g id="Grupo_4806" data-name="Grupo 4806" transform="translate(798.414 315.369)"><path id="Trazado_7517" data-name="Trazado 7517" d="M1029.248,447.218c.995-2.714.4-5.806-.4-8.488-1.171-3.967-3.262-7.758-6.731-9.955a13.2,13.2,0,0,0-6.845-17.222c1.448-5.138,2.273-11.114-.271-15.893.661-.919,1.3-1.851,1.964-2.777,5.484.05,8.526-7.033,9.206-11.687.447-3.054.22-6.46-1.562-9.092a9.918,9.918,0,0,0-6.045-4.105,8.8,8.8,0,0,0-4.074.063c-.025-.183-.05-.353-.082-.535a17.08,17.08,0,0,0-1.858-4.011,11.1,11.1,0,0,0-6.989-5.371,15.286,15.286,0,0,0-16.5,5.371,13.919,13.919,0,0,0-2.468,5.736,14.826,14.826,0,0,0-12.411-2.758c-5.957,1.366-9.722,6.725-10.182,12.644a14.861,14.861,0,0,0,.516,5.138,17.607,17.607,0,0,0-15.723,6.41,21.839,21.839,0,0,0-3.961,19.709,22.39,22.39,0,0,0,3.721,7.588c-3.117,1.612-5.195,4.987-6.246,8.362-1.568,4.962-.995,10.73,3.444,13.991a8.761,8.761,0,0,0,3.3,1.492A20.743,20.743,0,0,0,947.22,453.6c.68,4.735,3.52,9.47,8.4,10.7a9.21,9.21,0,0,0,4.03.145c-.441,2.078-1.1,4.118-1.448,6.221a13.5,13.5,0,0,0,.831,7.833,7.7,7.7,0,0,0,6.353,4.622,12.573,12.573,0,0,0,8.243-2.569,15.539,15.539,0,0,0,3.765-3.942,14.679,14.679,0,0,0,9.074,5.717A13.062,13.062,0,0,0,999.76,476.5a12.285,12.285,0,0,0,1.033-1.946c.208.176.422.34.655.5a8.485,8.485,0,0,0,6.882,1.3,9.01,9.01,0,0,0,6.335-7.474,11.67,11.67,0,0,0,10.4-3.879c3.287-3.91,3.331-9.514,1.177-13.973a7.474,7.474,0,0,0,3.022-3.816Z" transform="translate(-929.088 -357.521)" fill="#00b2e3"/><path id="Trazado_7518" data-name="Trazado 7518" d="M944.8,534.26c-.825-.6-1.7-1.14-2.557-1.687-3.9-2.512-8.072-4.66-12.751-5.138a1.492,1.492,0,0,0-1.127.46c-.554-.22-1.083-.441-1.612-.68a1.636,1.636,0,0,0-1.927.246l-.038.05a1.772,1.772,0,0,0-.315.636l-.044-.019v.031a1.6,1.6,0,0,0,.718,1.795,41.6,41.6,0,0,0,5.61,2.292c-.076.145-.151.29-.22.435-.214.264-.453.5-.686.756a4.755,4.755,0,0,0-1.278,1.99,2.814,2.814,0,0,0,0,1.373c.05.214.158.416.214.63a.383.383,0,0,1-.031.05c-.05.069-.05.069-.038.057l-.013.019c-.063.076-.132.145-.2.22-.139.145-.284.277-.428.422a3.589,3.589,0,0,0-.749,1.039,2.533,2.533,0,0,0,.265,2.827,2,2,0,0,0,.718.46,2.864,2.864,0,0,0,.787,2.7,3.49,3.49,0,0,0,2.934.989,5.919,5.919,0,0,0,1.612-.428c.5-.208,1.026-.542,1.536-.7a4.255,4.255,0,0,1,1.058-.157c.063,0,.674-.013.478-.038a4.907,4.907,0,0,1,.882.227,4.884,4.884,0,0,0,3.142.076,5.3,5.3,0,0,0,2.38-1.9,20.739,20.739,0,0,0,2.431-5.4,4.861,4.861,0,0,0,.422-1.675,2.422,2.422,0,0,0-1.171-1.946Z" transform="translate(-922.735 -420.289)" fill="#fff"/><path id="Trazado_7519" data-name="Trazado 7519" d="M1009.691,729.3c.006-.138.019-.271.032-.409a1.669,1.669,0,0,0-1.662-1.662,1.79,1.79,0,0,0-.787.22c-.019,0-.031-.013-.05-.013a1.732,1.732,0,0,0-.617.05,4.3,4.3,0,0,0-2.84,1.171c-1.732,1.631-1.574,4.225-1.606,6.4a129.108,129.108,0,0,1-3.356,27.769c-1.014,4.357-2.059,8.671-4.382,12.411a37.966,37.966,0,0,1-3.835,4.993c-.22.258-.447.523-.667.793a32.018,32.018,0,0,0-5.825,5.85,1.656,1.656,0,0,0,.214,1.958c-.038.057-.076.107-.113.164-.435.63.491,1.247,1.014.781.157-.139.3-.283.46-.422a1.585,1.585,0,0,0,.7-.214q3.107-1.851,6.221-3.7c1.826-1.089,3.69-2.135,5.415-3.381a18.045,18.045,0,0,0,4.534-4.483,17.852,17.852,0,0,0,2.405-6.177c1.007-4.572,1.675-9.244,2.355-13.872q1.058-7.225,1.832-14.489.378-3.57.68-7.153c.1-1.228.208-2.456.29-3.684a5.53,5.53,0,0,0-.416-2.909Z" transform="translate(-944.768 -494.432)" fill="#fff"/><path id="Trazado_7520" data-name="Trazado 7520" d="M1076.742,779.1a52.986,52.986,0,0,1-4.036-3.854,28.211,28.211,0,0,1-5.125-9.533,35.729,35.729,0,0,1-1.064-4.244c-.063-.365-.132-.737-.2-1.1-1.115-6.782-.573-13.8-.038-20.7.378-4.893.617-10.006-1.159-14.678a1.654,1.654,0,0,0-3.186,0q-.227,1.067-.416,2.153a.893.893,0,0,0-1.744-.113c-.076.46-.157.919-.233,1.379a1.831,1.831,0,0,0-.838,1.417,66.508,66.508,0,0,0-.321,13.292,89.971,89.971,0,0,0,2.267,13.305,41.581,41.581,0,0,1,1.335,13.053,62.855,62.855,0,0,0-.113,6.536,6.077,6.077,0,0,0,1.014,3.186,10.811,10.811,0,0,0,2.424,2.242c3.69,2.739,7.978,5.415,12.77,4.4a1.687,1.687,0,0,0,1.215-1.593c.132-2.059-1.121-3.8-2.55-5.151Z" transform="translate(-972.294 -493.154)" fill="#fff"/><path id="Trazado_7521" data-name="Trazado 7521" d="M1000.122,808.643a1.65,1.65,0,0,0-.409-.775,1.4,1.4,0,0,0-.441-.353,1.676,1.676,0,0,0-1.675.025,1.936,1.936,0,0,0-.844,1.259c-.013.057-.019.113-.025.164-.542.321-1.089.642-1.631.963a12.87,12.87,0,0,0-1.87,1.215,5.013,5.013,0,0,0-.623.359c-.674.453-1.329.945-1.984,1.442-1.4,1.052-2.758,2.147-4.137,3.224-.516.4-.913.711-1.461,1.127a1.706,1.706,0,0,0-1.14.176c-.239.132-.485.258-.73.372-.107.05-.22.1-.334.151s-.113.05-.025.013l-.17.069c-.516.189-1.033.359-1.568.5-.094.025-.2.044-.29.063a1.674,1.674,0,0,0-2.2-.535,15.148,15.148,0,0,0-2.959,2.179c-.353.29-.7.586-1.039.882a2.278,2.278,0,0,0-.693.995c-.094.113-.183.227-.271.34-.718.938.12,2.1.989,2.437a6.655,6.655,0,0,0,6.593-1.228,48.014,48.014,0,0,0,7.361-4.987c.642-.5,1.284-1.014,1.927-1.517l.963-.756c.063-.05.132-.1.2-.151l.094-.069c.164-.126.327-.246.485-.372.649-.491,1.31-.976,1.977-1.442.113-.076.22-.164.328-.246.031.044.057.088.094.132a2.361,2.361,0,0,0,2.934.579,4.93,4.93,0,0,0,1.732-2.122,8.236,8.236,0,0,0,.762-2.84,1.491,1.491,0,0,0-.019-.378c.013-.025.031-.038.038-.063a.6.6,0,0,0,.082-.309.872.872,0,0,0-.025-.491Z" transform="translate(-940.866 -524.086)" fill="#010d3d"/><path id="Trazado_7522" data-name="Trazado 7522" d="M1082.932,813.492a13.5,13.5,0,0,0-2.619-1.417,2.791,2.791,0,0,0-1.946-.264,4.058,4.058,0,0,0-1.247.863,3.229,3.229,0,0,1-2.047.623c-.044-.013-.088-.019-.126-.031-.806-.309-1.618-.623-2.424-.926-.227-.088-.46-.17-.7-.258-.063-.031-.12-.057-.183-.088a2.03,2.03,0,0,0-.586-.183c-.447-.157-.907-.321-1.36-.5a25.63,25.63,0,0,1-2.626-1.738c-.4-.3-.775-.623-1.14-.957-.39-.359-.819-.655-1.19-1.033a8.666,8.666,0,0,1-.964-1.177,8.447,8.447,0,0,0-.919-1.329.787.787,0,0,0-.617-.214,1.355,1.355,0,0,0-2.324.516,5.028,5.028,0,0,0,.485,3.111c.075.164.157.334.245.5a3.12,3.12,0,0,0,.2.378,6.266,6.266,0,0,0,1.026,1.4,2.837,2.837,0,0,0,1.877.825c.05.019.094.044.145.063a1.076,1.076,0,0,0,1.159-.233,17.715,17.715,0,0,0,4.149,2.431,1.385,1.385,0,0,0,.434.743c2.009,1.751,4.5,2.468,7.008,3.205.573.17,1.146.346,1.713.548l.453.17c.05.019.076.031.095.038l.044.019c.29.126.567.264.85.409a8.512,8.512,0,0,0,4.213,1.31,1.552,1.552,0,0,0,1.473-1.121,5.738,5.738,0,0,0-2.563-5.667Z" transform="translate(-972.905 -523.01)" fill="#010d3d"/><path id="Trazado_7523" data-name="Trazado 7523" d="M1052.289,633.451a48.154,48.154,0,0,0-2.456-14.388c-2.651-7.317-8.652-14.35-16.712-15.572-4.993-.756-9.873.705-14.344,2.846a24.211,24.211,0,0,0-5.894,3.621,12.9,12.9,0,0,0-3.444,5.812c-.743,2.33-1.247,4.741-1.839,7.109-.63,2.538-1.266,5.069-1.889,7.607a115.713,115.713,0,0,0-2.9,15.213c-.038.353-.063.693-.094,1.045-.963,6.429-1.788,12.877-2.934,19.281a122.509,122.509,0,0,1-3.035,13.179,1.272,1.272,0,0,0,.869,1.524,77.687,77.687,0,0,0,20.754,4.949,79.065,79.065,0,0,0,21.321-.819,75.267,75.267,0,0,0,11.618-2.991,1.281,1.281,0,0,0,.913-1.2q.066-15.934.132-31.862c.025-5.113.151-10.245-.063-15.358Z" transform="translate(-949.522 -448.535)" fill="#010d3d"/><path id="Trazado_7524" data-name="Trazado 7524" d="M1038.556,525.313c-.12-1.486-.271-2.978-.453-4.458-.1-.819-.2-1.637-.327-2.449a6.444,6.444,0,0,0-.573-2.2c-.926-1.6-2.8-1.366-4.389-1.4-.856-.019-1.713-.031-2.563-.038a13.094,13.094,0,0,0-2.72.013c-1.486.025-2.972.082-4.452.2-.945.076-2.028.233-2.292,1.329a1.537,1.537,0,0,0,.176,1.133,1.5,1.5,0,0,0,.057.6,79.31,79.31,0,0,0,10.327,21.27q1.946,2.824,4.124,5.478a1.643,1.643,0,0,0,1.814.34,1.723,1.723,0,0,0,1.02-1.518,98.721,98.721,0,0,0,.271-18.3Z" transform="translate(-958.426 -415.73)" fill="#f9d0dd"/><path id="Trazado_7525" data-name="Trazado 7525" d="M1033.7,570.514a3.371,3.371,0,0,0,.63-.283,3.092,3.092,0,0,1,.126-.63c.12-.346.252-.693.384-1.033.271-.68.554-1.354.831-2.034a21.7,21.7,0,0,0,1.184-3.74c.926-4.521.151-9.332-1.1-13.74-.938-3.306-2.21-6.5-3.413-9.722a109.535,109.535,0,0,1-11.787-21.44c-1.48-4.168-4.03-3.532-7.606-4.527-6.58-1.436-26.44-.825-30.873,4.326-5.327,11.139-10.062,22.605-15.112,33.883-2.764-6.29-6.133-12.279-9.219-18.412a1.193,1.193,0,0,0-1.625-.428,37.493,37.493,0,0,0-8.425,8.18c-1.448,2.172.3,4.7.888,6.895a83.431,83.431,0,0,0,13.784,24.432,2.225,2.225,0,0,0,3.444,1.706c8.217-7.644,13.632-17.927,18.185-28.071,6.127,15.093,6.158,17.826,4.055,33.94-.485,3.747-1.1,7.487-1.813,11.2a1.2,1.2,0,0,0,1.505,1.442c1.688.705,3.652.623,5.459.737a75.162,75.162,0,0,0,22.687-2.783c1.505-.655,2.172-3.425,2.953-4.741.875,2.878,2.985,4.785,6.416,3.772,3.262-.39,5.327-.642,8.589-1.045.63-.076,1.259-.479,1.177-1.177-.989-7.884-.989-10.692-1.341-16.705Zm-24.753-31.446c-.12,1.373-.214,2.789-.39,4.181-4.276-9.162-9.193-18.053-12.329-27.718a76.263,76.263,0,0,1,11.989-.548A138.677,138.677,0,0,1,1008.949,539.068Z" transform="translate(-931.168 -414.984)" fill="#fff"/><path id="Trazado_7526" data-name="Trazado 7526" d="M1036.769,426.847a39.832,39.832,0,0,1-3.293-5.824,25.715,25.715,0,0,1-1.549-7.015c-.328-2.846-.655-5.686-.869-8.538-.214-2.89-.2-5.793-.4-8.683-.038-.586-.856-1.108-1.31-.542-1.152,1.448-3.728,3.589-5.642,2.166-1.536-1.146-1.19-3.671-.875-5.3a.48.48,0,0,0-.926-.252,18.434,18.434,0,0,1-5.535,7.594,17.781,17.781,0,0,1-4.055,2.468,7.216,7.216,0,0,1-2.557.781,2.709,2.709,0,0,1-2.027-.894c-1.474-1.53-1.285-3.847-1.14-5.793.05-.649-.926-.623-.995,0a17.636,17.636,0,0,1-3.923,9.237c-.989,1.171-2.3,2.4-3.9,2.538a2.81,2.81,0,0,1-3.035-1.851c-.145-.554-.894-.384-.945.126a52.194,52.194,0,0,1-2.009,10.169c-.491,1.637-1.058,3.243-1.694,4.83-.094.239-.611,1.625-.938,1.316-.063-.057-.094-.277-.113-.346-.069-.252-.132-.51-.2-.768-.113-.447-.233-.9-.353-1.348a.514.514,0,0,0-.094-.2,3.988,3.988,0,0,0-1.039-2.38c.126.126.264.2-.176-.239a2.046,2.046,0,0,0-.51-.353,6.254,6.254,0,0,0-.787-.353,5.405,5.405,0,0,0-6.87,3.111,14.862,14.862,0,0,0-1.077,3.23,12.669,12.669,0,0,0-.283,3.923,6.455,6.455,0,0,0,1.4,3.539,6.075,6.075,0,0,0,2.638,1.883,4.329,4.329,0,0,0,3.539-.434,43.843,43.843,0,0,0,1.039,4.622c.6,2.481,1.127,4.981,1.763,7.455A22.847,22.847,0,0,0,990.462,451a17.769,17.769,0,0,0,3.69,4.364,23.862,23.862,0,0,0,10.478,5.025,29.563,29.563,0,0,0,12.946-.39,42.033,42.033,0,0,0,6.02-1.971,1.032,1.032,0,0,0,.132.428,1.1,1.1,0,0,0,1.48.384,30.59,30.59,0,0,0,9.6-7.581,31.764,31.764,0,0,0,3.5-5.025,21.24,21.24,0,0,0,2.506-6.246c.9-4.83-1.568-9.225-4.068-13.148Zm-51.7-6.448h-.006a.063.063,0,0,0-.019-.006c-.006-.006-.019-.006-.025-.019A.185.185,0,0,1,985.066,420.4Zm-.623-.189H984.4a.493.493,0,0,1-.082-.006C984.361,420.2,984.4,420.21,984.442,420.21Z" transform="translate(-942.446 -370.485)" fill="#fff"/><path id="Trazado_7527" data-name="Trazado 7527" d="M1032.684,505.583c-.441-1.291-.9-2.582-1.347-3.872q-1.521-4.373-3.048-8.74a1.677,1.677,0,0,0-1.82-1.19,1.644,1.644,0,0,0-1.442,1.631.7.7,0,0,0,.019.113,1.674,1.674,0,0,0-1.423.113,1.73,1.73,0,0,0-.4.359.792.792,0,0,0-1.178.472,5.67,5.67,0,0,0-.113.976,8.984,8.984,0,0,0,.189,1.077c.113.655.233,1.3.4,1.946.315,1.284.7,2.544,1.121,3.8s.9,2.481,1.4,3.709c.5,1.247.982,2.525,1.587,3.728a3.668,3.668,0,0,0,3.048,2.242,3.481,3.481,0,0,0,3.117-2.034,5.674,5.674,0,0,0-.088-4.32Z" transform="translate(-958.863 -407.235)" fill="#fff"/><path id="Trazado_7528" data-name="Trazado 7528" d="M986.6,433.979a3.875,3.875,0,0,0-.409-1.467,3.777,3.777,0,0,0-.938-1.518,5.3,5.3,0,0,0-3.211-1.146c-2.594-.088-4.741,1.87-5.793,4.1a10.769,10.769,0,0,0-.334,7.865,13.447,13.447,0,0,0,1.725,3.407,9.018,9.018,0,0,0,2.7,2.733c3.117,1.851,5.635-2.046,5.491-4.842a.441.441,0,0,0-.819-.22c-.68,1.228-.806,2.834-1.946,3.772-1.322,1.089-2.727-.019-3.658-1.058a9.588,9.588,0,0,1-2.191-7.185c.176-2.254,1.2-5.044,3.35-6.1a3.258,3.258,0,0,1,2.72-.044,14.8,14.8,0,0,1,1.322.806,2.509,2.509,0,0,1,.995,1.178.535.535,0,0,0,.989-.264h0Z" transform="translate(-941.61 -384.304)" fill="#010d3d"/><path id="Trazado_7529" data-name="Trazado 7529" d="M989.859,432.681c-.057,1.052-.252,2.109-.239,3.161.013,1.152.057,2.292.17,3.432a46.269,46.269,0,0,0,1.058,6.5,25.018,25.018,0,0,0,5.761,11.221c6.291,6.744,15.773,8.324,24.564,7.134,8.268-1.121,16.768-4.351,21.636-11.5a21.6,21.6,0,0,0,3.753-11.4,16.261,16.261,0,0,0-.951-6.032,38.109,38.109,0,0,0-3.111-5.887,44.732,44.732,0,0,1-5.245-14.344c-.491-2.569-.831-5.157-1.1-7.758a54.963,54.963,0,0,0-.976-7.657c-.164-.649-1.045-.447-1.1.151a34.821,34.821,0,0,0,.227,6.675c.22,2.223.479,4.414.825,6.605a54.628,54.628,0,0,0,3.306,12.417c1.644,3.967,4.383,7.436,5.491,11.6a17.213,17.213,0,0,1-.919,11.032c-3.161,7.556-10.535,11.725-18.217,13.462-8.268,1.87-17.612,1.524-24.482-3.992a21.513,21.513,0,0,1-7.046-11.051,40.989,40.989,0,0,1-1.284-6.643c-.132-1.14-.246-2.286-.365-3.432-.132-1.24-.409-2.449-.542-3.69a.611.611,0,0,0-1.221,0h0Z" transform="translate(-946.899 -372.938)" fill="#010d3d"/><path id="Trazado_7530" data-name="Trazado 7530" d="M1044.67,429.532l-.019-.013-.12.157h.12l-.365-.208a8.839,8.839,0,0,1,.5,2.046c.214.882.466,1.763.724,2.632.5,1.7,1.089,3.381,1.612,5.075s1.02,3.3,1.5,4.956c.51,1.757,1.259,3.463,1.732,5.22l.56-.989a11.13,11.13,0,0,1-7.726-1.631c-.856-.535-1.65.825-.793,1.354a13.135,13.135,0,0,0,8.948,1.826.813.813,0,0,0,.56-.989c-.258-.976-.371-2.009-.6-3s-.466-1.876-.737-2.8c-.554-1.9-1.121-3.8-1.738-5.68s-1.215-3.658-1.952-5.447c-.29-.7-1.24-3.923-2.456-3.148a.428.428,0,0,0-.088.661c.05.05.107.1.157.145a.105.105,0,0,0,.126.019l.076-.031c.082-.038.032-.157-.044-.157h0Z" transform="translate(-966.31 -383.906)" fill="#010d3d"/><path id="Trazado_7531" data-name="Trazado 7531" d="M1054.288,427.334a.526.526,0,0,0-.132-.775.444.444,0,0,0-.239-.069c-.031,0-.031.05,0,.044a.477.477,0,0,1,.34.768c-.019.019.013.044.025.025h0Z" transform="translate(-970.701 -383.062)" fill="#64d8cc"/><g id="Grupo_4804" data-name="Grupo 4804" transform="translate(42.638 41.47)"><path id="Trazado_7532" data-name="Trazado 7532" d="M1017.971,424.375c-1.769,3.419-1.36,7.978.069,11.447a7.543,7.543,0,0,0,3.186,3.9,7.66,7.66,0,0,0,4.748.819c3.476-.485,5.787-3.148,7.071-6.246a15.066,15.066,0,0,0,1.052-5.447,23.982,23.982,0,0,0-.082-2.934c-.082-.787-.252-1.65-1.14-1.858a23.4,23.4,0,0,0-3.249-.353c-1.209-.113-2.424-.126-3.633-.164q-3.7-.132-7.411-.157a1.018,1.018,0,0,0,0,2.034c3.658.094,7.38.29,11.038.12.875-.038,1.744-.107,2.613-.151a1.946,1.946,0,0,1,.46-.025c-.239-.246-.189.277-.2.3a6.374,6.374,0,0,0,.031,1.467,18.129,18.129,0,0,1-.586,4.905,8.554,8.554,0,0,1-5.2,6.032,5.755,5.755,0,0,1-3.709.006,4.955,4.955,0,0,1-2.689-2.575,13.58,13.58,0,0,1-1.259-5.119,39.8,39.8,0,0,1,.264-5.617.753.753,0,0,0-1.392-.378h0Z" transform="translate(-999.602 -423.38)" fill="#343d64"/><path id="Trazado_7533" data-name="Trazado 7533" d="M1007.523,425.786a15.9,15.9,0,0,0-4.527.359c-1.461.252-2.941.567-4.408.85s-2.941.554-4.408.831c-.705.132-1.423.252-2.116.447a6.907,6.907,0,0,0-2.229.749.752.752,0,0,0,.176,1.354,6.589,6.589,0,0,0,2.33-.025,20.869,20.869,0,0,0,2.128-.3c1.524-.258,3.048-.548,4.565-.85s3.041-.579,4.54-.932a14.2,14.2,0,0,0,4.213-1.492.536.536,0,0,0-.264-.989h0Z" transform="translate(-989.488 -424.25)" fill="#343d64"/><path id="Trazado_7534" data-name="Trazado 7534" d="M1043.226,428.011c.094-.057.2-.113.29-.17.057-.031.12-.063.183-.094-.164.082.069-.031.157-.069l.151-.076c.139-.076-.069.019.019-.013.12-.038.233-.082.353-.12s.22-.05.334-.076c-.113.019-.113.013,0,0a1.545,1.545,0,0,0,.17-.006,6.941,6.941,0,0,1,.724,0c.082,0,.2-.025-.019,0a1.6,1.6,0,0,1,.17.025c.113.019.227.044.334.069a3.4,3.4,0,0,1,.359.113c.031.013.214.094.076.025s.057.031.069.038c.1.05.2.107.3.164.05.031.094.063.145.095.126.082.075.013-.013-.013.094.032.208.183.277.252a2.339,2.339,0,0,0,.422.365,1.009,1.009,0,0,0,1.2-.151,1.049,1.049,0,0,0,.151-1.2,2.535,2.535,0,0,0-.837-.837,3.749,3.749,0,0,0-.705-.409,4.848,4.848,0,0,0-1.927-.447,3.829,3.829,0,0,0-3.293,1.606.673.673,0,0,0,.913.913h0Z" transform="translate(-1009.014 -424.158)" fill="#343d64"/><path id="Trazado_7535" data-name="Trazado 7535" d="M1052.066,425.724a61.773,61.773,0,0,0,.674,8.274c.346,2.33,1.108,4.647,3.287,5.869a6.222,6.222,0,0,0,6.278-.139,8.042,8.042,0,0,0,3.444-5.856,17.6,17.6,0,0,0-.6-8.834,1.029,1.029,0,0,0-1.247-.712,6.664,6.664,0,0,1-3.255-.22,24.51,24.51,0,0,0-3.772-.416,12.616,12.616,0,0,0-3.514.183,1.451,1.451,0,0,0-.693,2.475,1.171,1.171,0,0,0,1.606,0,1.14,1.14,0,0,0,0-1.606l-.1-.076.29.5.019.044-.157.573c-.472.227-.56.309-.265.264.094-.006.189-.019.277-.025.233-.019.466-.031.7-.044.466-.025.932-.038,1.4-.031.932,0,1.87.05,2.8.132,1.707.157,3.5.762,5.195.214l-1.247-.712a20.013,20.013,0,0,1,.277,8.224c-.441,2.2-1.662,4.439-4.175,4.59a3.809,3.809,0,0,1-2.84-1.008,5.705,5.705,0,0,1-1.411-3.148c-.567-2.9-.995-5.818-1.807-8.664a.6.6,0,0,0-1.171.157h0Z" transform="translate(-1012.66 -423.482)" fill="#343d64"/></g><path id="Trazado_7536" data-name="Trazado 7536" d="M1022.59,501.152a16.63,16.63,0,0,0,.6,3.721,30.281,30.281,0,0,0,1.058,3.6c.428,1.19.926,2.431,1.423,3.633a21.134,21.134,0,0,0,1.555,3.438c.674,1.02,1.939,1.184,3.06,1.417a2.51,2.51,0,0,0,1.662.025,3.037,3.037,0,0,0,1.033-1.184,17.9,17.9,0,0,0,2.034-3.073c.441-1.115-.126-2.273-.46-3.356-.441-1.448-.944-2.878-1.442-4.313-.252-.718-.51-1.429-.768-2.141a9.873,9.873,0,0,0-.85-2.072.944.944,0,0,0-.831-.472l-.12.019a.871.871,0,0,0-.825,1.083,28.807,28.807,0,0,0,1.31,3.847c.51,1.379,1.008,2.764,1.568,4.118a20.477,20.477,0,0,1,.781,1.946c.208.705-.132,1.077-.535,1.643s-.793,1.108-1.209,1.65c-.088.113-.359.617-.51.655.346-.082-.642-.409-.737-.447-.523-.208-1.108-.277-1.385-.8-.3-.579-.548-1.2-.806-1.8-.535-1.234-1.039-2.487-1.511-3.747s-.907-2.538-1.448-3.766a31.122,31.122,0,0,0-1.706-3.885.511.511,0,0,0-.945.258h0Z" transform="translate(-959.108 -410.422)" fill="#010d3d"/><path id="Trazado_7537" data-name="Trazado 7537" d="M1009.189,513.731a7.517,7.517,0,0,0-2.512-.327,23.047,23.047,0,0,0-2.72.069,34.5,34.5,0,0,0-5.245.856,9.853,9.853,0,0,0-4.143,1.92,10.519,10.519,0,0,0-2.5,3.47c-1.5,3.1-2.626,6.4-3.9,9.6l-4.187,10.516c-1.587,3.973-3.073,8-4.76,11.939a.762.762,0,1,0,1.4.592c1.228-3.337,2.638-6.624,3.954-9.93l3.961-9.93c1.322-3.312,2.632-6.618,3.961-9.93,1.114-2.8,2.4-5.453,5.453-6.454a29.362,29.362,0,0,1,5.56-1.146c.957-.12,1.914-.2,2.871-.283a14.428,14.428,0,0,0,2.815-.3.34.34,0,0,0,0-.649h0Z" transform="translate(-943.019 -415.243)" fill="#010d3d"/><path id="Trazado_7538" data-name="Trazado 7538" d="M962.146,546.646c1.146,1.713,2.412,3.331,3.52,5.075s2.065,3.583,3,5.422a56.9,56.9,0,0,1,2.512,5.636c.353.926.667,1.858,1.008,2.789a12.1,12.1,0,0,0,1.259,2.928.757.757,0,0,0,1.4-.378,8.746,8.746,0,0,0-.516-3.136c-.29-1.026-.674-2.046-1.058-3.054a57.556,57.556,0,0,0-2.607-5.793,50.364,50.364,0,0,0-3.331-5.384,34.26,34.26,0,0,0-3.986-5.025c-.6-.592-1.7.183-1.2.932h0Z" transform="translate(-936.678 -427.14)" fill="#010d3d"/><path id="Trazado_7539" data-name="Trazado 7539" d="M958.023,545.664a2.192,2.192,0,0,0-1.177-1.549.752.752,0,0,0-.888.113c-1.259,1.3-2.4,2.733-3.6,4.087s-2.368,2.752-3.488,4.175c-1.039,1.316-2,2.456-1.65,4.231a31.88,31.88,0,0,0,1.448,4.6,64.781,64.781,0,0,0,8.746,16.479,73.99,73.99,0,0,0,6.895,8.079.739.739,0,0,0,1.033,0,88.163,88.163,0,0,0,17.82-25.3c1.2-2.626,2.248-5.359,3.249-8.066.277-.743-.919-1.07-1.184-.327a85.714,85.714,0,0,1-6.605,13.752,93.291,93.291,0,0,1-8.526,12.468,82.343,82.343,0,0,1-5.787,6.435h1.033a65.78,65.78,0,0,1-10.478-14.262,70.117,70.117,0,0,1-3.74-7.9c-.535-1.348-1.02-2.72-1.467-4.1-.22-.68-.453-1.366-.617-2.065a2.394,2.394,0,0,1,.674-2.223c1.171-1.555,2.4-3.066,3.589-4.6s2.481-2.928,3.7-4.42l-.712.189a1.279,1.279,0,0,1,.649.674c.309.636,1.228.17,1.089-.46h0Z" transform="translate(-931.17 -426.586)" fill="#010d3d"/><path id="Trazado_7540" data-name="Trazado 7540" d="M1004.991,565.852c2.223,5.932,5.289,11.706,5.623,18.154.334,6.486-1.291,12.921-2.185,19.306-.22,1.568-.434,3.129-.573,4.71-.12,1.423-.479,3.293.082,4.647,1.083,2.613,4.685,1.738,6.807,1.467l10.4-1.341c2.764-.353,5.535-.649,8.274-1.171,1.1-.208,2.2-.441,3.3-.686a2.259,2.259,0,0,0,1.3-.554c1.342-1.486,2.865-3.52,2.991-5.6l-1.574.428c.944,1.436,2.179,2.651,3.123,4.087.579.882,2,.063,1.423-.831-.932-1.442-2.16-2.664-3.085-4.112a.852.852,0,0,0-1.574.428c-.113,1.719-1.486,3.129-2.481,4.414-.252.334.309-.044.164-.076a2.175,2.175,0,0,0-.686.132c-.894.176-1.794.359-2.688.535-5.711,1.133-11.561,1.662-17.329,2.412-1.461.189-2.941.466-4.414.554-1.064.063-2.28,0-2.349-1.291a27.417,27.417,0,0,1,.3-4.6c.176-1.5.416-2.991.693-4.477,1.121-5.988,2.626-11.958,2.368-18.1a30.576,30.576,0,0,0-2.122-9.848,41.425,41.425,0,0,0-5.075-8.891c-.239-.334-.882-.145-.718.3h0Z" transform="translate(-952.579 -434.496)" fill="#010d3d"/><path id="Trazado_7541" data-name="Trazado 7541" d="M1065.763,613.934c.422.22.548.554,1.026.649a15.754,15.754,0,0,0,1.631.176,25.155,25.155,0,0,0,3.514-.069,31.281,31.281,0,0,0,6.864-1.19.988.988,0,0,0,.718-.938c-.586-5.573-1.373-11.114-2.216-16.655-.416-2.733-.882-5.459-1.379-8.18q-.378-2.069-.787-4.124a25.368,25.368,0,0,0-.951-4.3c-.2-.5-1.02-.485-1,.132a25.952,25.952,0,0,0,.724,4.036c.258,1.316.535,2.752.787,4.131q.756,4.08,1.385,8.186a138.648,138.648,0,0,1,1.48,16.775l.718-.938c-2.122.554-4.275,1.045-6.442,1.41-1.14.189-2.279.258-3.425.359-.5.044-.982.05-1.48.063s-.686.315-1.171.428a.031.031,0,0,0-.006.057h0Z" transform="translate(-975.086 -439.521)" fill="#010d3d"/><path id="Trazado_7542" data-name="Trazado 7542" d="M1057.277,528.48a31.732,31.732,0,0,0,2.279,4.408c.85,1.486,1.631,3.01,2.487,4.5s1.675,2.985,2.531,4.471,1.725,2.808,2.43,4.288a7.083,7.083,0,0,1,.422,4.508,11.09,11.09,0,0,0,.063,4.729c.4,1.612.938,3.048,1.392,4.572.485,1.637.913,3.3,1.329,4.956.9,3.6,1.75,7.21,2.7,10.8a.174.174,0,0,0,.34-.044,80.919,80.919,0,0,0-3.337-19.74,14.024,14.024,0,0,1-.523-2.261,9.265,9.265,0,0,1,.2-2.569,8.986,8.986,0,0,0-.088-4.641,21.968,21.968,0,0,0-2.223-4.187c-.919-1.5-1.876-2.991-2.8-4.5-1.026-1.687-2.122-3.331-3.161-5.006a37.769,37.769,0,0,0-3.186-4.779.513.513,0,0,0-.85.5h0Z" transform="translate(-971.946 -420.591)" fill="#010d3d"/><path id="Trazado_7543" data-name="Trazado 7543" d="M1039.595,512.652a8.438,8.438,0,0,0,3.6.674q1.908.151,3.816.3a15.989,15.989,0,0,1,3.337.315,4.315,4.315,0,0,1,2.267,2.154.624.624,0,0,0,1.077-.63,5.86,5.86,0,0,0-2.1-2.613,7.907,7.907,0,0,0-3.4-.768c-1.4-.113-2.808-.17-4.213-.239s-3-.384-4.307.164a.364.364,0,0,0-.088.655h0Z" transform="translate(-965.34 -414.612)" fill="#010d3d"/><path id="Trazado_7544" data-name="Trazado 7544" d="M1088.7,564.31h-.22s-.025.038,0,.038h.22s.025-.038,0-.038Z" transform="translate(-983.506 -434.1)" fill="#010d3d"/><path id="Trazado_7545" data-name="Trazado 7545" d="M1047.46,572.077c-.05.094-.094.189-.145.283a1.716,1.716,0,0,0-.158.693,2.534,2.534,0,0,0,0,.655c.095.756.283,1.725,1.159,1.939a1.122,1.122,0,0,0,1.083-.283,1.185,1.185,0,0,0,.315-.655,1.06,1.06,0,0,0-.126-.693,1.088,1.088,0,0,0-.655-.5.994.994,0,0,0-1.077.435h0l.151-.189-.013.013.2-.158a.092.092,0,0,0-.019.013l.246-.1h-.013l.277-.038h-.013l.283.038h-.013l.258.107h-.013l.22.164a1.154,1.154,0,0,0-.372-.246,1.809,1.809,0,0,0-.46-.1l.3.038-.025-.013.264.113-.025-.013.227.176-.069-.069.17.22a1.92,1.92,0,0,1-.183-.359l.107.258a4.667,4.667,0,0,1-.3-1.089l.031.252a1.55,1.55,0,0,0-.176-.667l.088.214c-.025-.076-.044-.157-.063-.239a.806.806,0,0,0-.661-.573.786.786,0,0,0-.793.384h0Z" transform="translate(-968.199 -436.836)" fill="#010d3d"/><path id="Trazado_7546" data-name="Trazado 7546" d="M1051.146,589.445c-.025.158-.05.315-.082.479a4.421,4.421,0,0,0-.044.762c0,.17.025.346.038.516l.019.258a.408.408,0,0,0,.013.126,1.251,1.251,0,0,0,.176.617,1.14,1.14,0,0,0,.4.4,1.112,1.112,0,0,0,1.612-.655,2.306,2.306,0,0,0-.057-1.014c-.031-.176-.05-.353-.094-.529-.019-.082-.038-.164-.063-.252a2.364,2.364,0,0,0-.157-.447c-.069-.157-.132-.308-.2-.46l-.132-.176-.176-.132a.83.83,0,0,0-.548-.1.772.772,0,0,0-.4.17.827.827,0,0,0-.309.447h0Z" transform="translate(-969.637 -443.178)" fill="#010d3d"/><path id="Trazado_7547" data-name="Trazado 7547" d="M1055.078,607.435a.955.955,0,0,0-.157.321,1.79,1.79,0,0,1-.044.176l.1-.233c-.025.05-.044.1-.063.145a.5.5,0,0,0-.069.252,1.2,1.2,0,0,0-.019.208c0,.063,0,.126-.006.2a3.528,3.528,0,0,0,.025.365,6.659,6.659,0,0,0,.113,1.008,1.119,1.119,0,0,0,.51.661l.265.113a.872.872,0,0,0,.441.019,1.06,1.06,0,0,0,.636-.3,1.115,1.115,0,0,0,.327-.787,6.75,6.75,0,0,0-.17-1c-.025-.12-.044-.239-.082-.359-.019-.063-.038-.12-.063-.183-.006-.025-.019-.05-.025-.076a1.454,1.454,0,0,0-.277-.466l.151.2c-.038-.05-.057-.107-.088-.157a1.368,1.368,0,0,0-.233-.271.819.819,0,0,0-.68-.22.8.8,0,0,0-.592.39h0Z" transform="translate(-971.044 -449.922)" fill="#010d3d"/><path id="Trazado_7548" data-name="Trazado 7548" d="M1057.282,617.772l-.057.05.176-.132a.746.746,0,0,0-.29.252.5.5,0,0,0-.12.2.943.943,0,0,0-.05.12.564.564,0,0,0-.019.1,1.091,1.091,0,0,1-.044.2l.1-.239s-.019.044-.031.069l-.1.246a.937.937,0,0,0-.044.3,1.035,1.035,0,0,1-.019.139c-.013.094-.019.2-.032.29l.038-.29-.013.038a1.155,1.155,0,0,0,0,.586,1.054,1.054,0,0,0,.283.485,1.15,1.15,0,0,0,.781.321.867.867,0,0,0,.422-.094.813.813,0,0,0,.353-.227,1.086,1.086,0,0,0,.283-.485,1.15,1.15,0,0,0,0-.586l-.012-.038.038.29c-.013-.094-.025-.2-.031-.29a1.059,1.059,0,0,0-.019-.139.94.94,0,0,0-.044-.3l-.1-.246s-.019-.044-.031-.069l.1.239c-.019-.063-.031-.132-.044-.2a.52.52,0,0,0-.019-.094v-.019l-.1-.22a.674.674,0,0,0-.239-.258.352.352,0,0,0-.126-.088l.176.132-.057-.05a.8.8,0,0,0-.554-.227l-.208.025a.837.837,0,0,0-.346.2h0Z" transform="translate(-971.755 -453.811)" fill="#010d3d"/><path id="Trazado_7549" data-name="Trazado 7549" d="M1026.615,515.908c-.3-.611-1.115-.3-1.19.29a4.356,4.356,0,0,0,.542,1.814l.762,2.04c1.07,2.865,2.141,5.736,3.148,8.627s2,5.774,3,8.664a78.132,78.132,0,0,0,3.344,8.62.8.8,0,0,0,1.486-.4,41.009,41.009,0,0,1,.3-4.294c.107-1.423.2-2.865.258-4.3.126-2.821.069-5.648.025-8.469s-.239-5.636-.4-8.457c-.1-1.738.189-4.779-1.832-5.554-.718-.277-1.026.875-.315,1.152.894.346.8,2.128.875,2.871.132,1.228.265,2.449.34,3.684.164,2.563.265,5.132.265,7.695s-.151,5.132-.3,7.695c-.069,1.228-.164,2.462-.271,3.69a24.588,24.588,0,0,1-.51,4.08h1.536c-1.448-5.031-3.835-9.81-5.825-14.646-.989-2.412-2.009-4.8-2.966-7.229-.479-1.209-.951-2.418-1.429-3.627l-.686-1.744-.34-.869a6.473,6.473,0,0,0-.353-1.02.306.306,0,0,0,.529-.309h0Z" transform="translate(-960.155 -415.632)" fill="#010d3d"/><path id="Trazado_7550" data-name="Trazado 7550" d="M944.648,539.917c.321-.51.428-1.083.737-1.612a10.282,10.282,0,0,0,.888-1.669,3.549,3.549,0,0,0-.894-3.633,16.838,16.838,0,0,0-3.671-2.651c-1.423-.9-2.871-1.763-4.37-2.544a26.534,26.534,0,0,0-9.344-3.1,11.871,11.871,0,0,0-4.666.208A2.208,2.208,0,0,0,922,528.054c.667,1.536,2.651,2.273,4,3.054l2.834,1.643a8.78,8.78,0,0,0,2.815,1.417.693.693,0,0,0,.667-1.146,5.968,5.968,0,0,0-1.813-1.266l-2.028-1.171c-1.3-.756-2.632-1.48-3.91-2.279-.428-.271-1.033-.655-1.064-1.222-.031-.674.894-.636,1.379-.68a15.723,15.723,0,0,1,4.068.17,26.553,26.553,0,0,1,7.758,2.846c1.24.655,2.456,1.366,3.658,2.1a25.523,25.523,0,0,1,3.413,2.235,3.6,3.6,0,0,1,1.152,1.417,2.218,2.218,0,0,1-.3,1.814,10.435,10.435,0,0,0-.749,1.587,1.3,1.3,0,0,0,.214,1.4.347.347,0,0,0,.542-.069h0Z" transform="translate(-921.774 -419.385)" fill="#010d3d"/><path id="Trazado_7551" data-name="Trazado 7551" d="M940.617,536.853a2.748,2.748,0,0,0-1.9-1.662,4.372,4.372,0,0,0-3.054.252,9.411,9.411,0,0,0-4.257,5.226,3.578,3.578,0,0,0,.328,3.35,2.626,2.626,0,0,0,3.073.932,19.894,19.894,0,0,0,3.438-1.939l.775-.472a2.049,2.049,0,0,0,.409-.239c.076-.107-.113-.4-.277-.208a2.85,2.85,0,0,0-.019.472,4.035,4.035,0,0,0,.013.73,3.706,3.706,0,0,0,1.8,2.689,3.242,3.242,0,0,0,3.312.151.886.886,0,0,0-.68-1.612,1.915,1.915,0,0,1-2.487-1.744c.025-.85.038-1.788-.793-2.279-1-.592-2.015.138-2.878.636-.964.56-1.9,1.165-2.878,1.7-.642.353-1.165.346-1.391-.435a3.536,3.536,0,0,1,.7-2.443,9,9,0,0,1,1.587-2.179,3.87,3.87,0,0,1,4.811-.636c.176.113.46-.076.378-.29h0Z" transform="translate(-925.242 -423.254)" fill="#010d3d"/><path id="Trazado_7552" data-name="Trazado 7552" d="M931.393,537.051a2.219,2.219,0,0,0-2.6,1.562,2.7,2.7,0,0,0,1.3,3.1l.176-1.36a4.265,4.265,0,0,0-3.306,3.344,3.135,3.135,0,0,0,2.4,3.495l-.214-1.643a2.953,2.953,0,0,0-1.3,3.539,4.315,4.315,0,0,0,3.362,2.657,5.391,5.391,0,0,0,4.508-.774,3.033,3.033,0,0,0,.642-3.992l-.9,1.568a3.825,3.825,0,0,0,3.8-3.577c.1-1.31-1.914-1.291-2.034,0a1.724,1.724,0,0,1-1.769,1.486,1.057,1.057,0,0,0-.737,1.782c.359.46-.17,1.177-.542,1.41a3.5,3.5,0,0,1-2.563.233,2.678,2.678,0,0,1-1.908-1.184,1.229,1.229,0,0,1,.346-1.612.907.907,0,0,0-.453-1.675c-.856-.069-1.19-1.083-1.014-1.782a3.026,3.026,0,0,1,2.072-1.857c.554-.189.8-1.064.176-1.36a1.365,1.365,0,0,1-.831-1.474,1.993,1.993,0,0,1,1.373-1.31.309.309,0,0,0,0-.592h0Z" transform="translate(-923.689 -423.981)" fill="#010d3d"/><path id="Trazado_7553" data-name="Trazado 7553" d="M940.958,554.743c-.038.327.252.623.453.85a4.881,4.881,0,0,0,.5.46,5.588,5.588,0,0,0,1.517.838,4.917,4.917,0,0,0,3.237.057,1.127,1.127,0,0,0-.6-2.172,4.487,4.487,0,0,1-.636.164,1.174,1.174,0,0,0-.145.025c.05-.013.233-.025.082-.013-.107.006-.22.019-.327.019a11.257,11.257,0,0,1-1.3-.038c-.132-.013.183.044.05,0-.044-.013-.094-.019-.145-.031-.107-.025-.214-.05-.315-.082-.208-.057-.416-.126-.617-.2a1.137,1.137,0,0,1-.132-.05c.107.044.013,0-.038-.019-.088-.044-.176-.088-.258-.132s-.189-.1-.283-.158a.827.827,0,0,0-.6-.094.6.6,0,0,0-.428.567h0Z" transform="translate(-928.877 -430.338)" fill="#010d3d"/><path id="Trazado_7554" data-name="Trazado 7554" d="M988.5,777.155a74.933,74.933,0,0,1-7.619,8.306c-1.4,1.253-2.827,2.487-4.338,3.608-1.4,1.045-3.054,1.921-4.112,3.35a4.122,4.122,0,0,0-.479,4.351c.926,1.719,2.89,1.751,4.59,1.461,3.583-.6,7.059-2.72,9.911-4.893a33.34,33.34,0,0,0,8.035-8.771l-1.952-1.14a3.16,3.16,0,0,0,1.417,4.276c1.763.907,3.854-.057,4.956-1.53,1.284-1.713,1.366-4.011,1.486-6.07.132-2.323.057-4.647.3-6.964.472-4.584,2.172-8.954,3.268-13.406a135.062,135.062,0,0,0,2.563-13.595c.724-5.176,1.184-10.383,1.643-15.585.12-1.385-2.021-1.366-2.154,0-.768,8.091-1.442,16.258-3.016,24.243-.793,4.036-1.933,7.965-3.01,11.932a42.519,42.519,0,0,0-1.2,5.812c-.245,1.971-.308,4.036-.409,6.051s-.025,4.615-1.278,6.259a2.062,2.062,0,0,1-1.908.919c-.479-.12-.963-.718-.7-1.2a1.131,1.131,0,0,0-1.952-1.14,29.7,29.7,0,0,1-14.155,11.939,12.173,12.173,0,0,1-2.449.674c-.567.088-1.536.283-1.933-.258-.73-.989.334-2.235,1.039-2.84,1.2-1.026,2.582-1.858,3.828-2.84a41.267,41.267,0,0,0,3.74-3.293,39.521,39.521,0,0,0,6.9-8.872c.327-.611-.523-1.354-1-.775h0Z" transform="translate(-940.2 -495.281)" fill="#010d3d"/><path id="Trazado_7555" data-name="Trazado 7555" d="M998.78,776.369c4.036-5.22,5.806-11.844,7.134-18.21,1.448-6.945,2.424-14.017,3.18-21.069.22-2.047.416-4.1.586-6.146.082-.976.157-1.952.227-2.922a6.976,6.976,0,0,0-.075-3.167.92.92,0,0,0-1.656-.214,5.37,5.37,0,0,0-.485,2.462c-.063.926-.126,1.851-.2,2.771q-.208,2.692-.479,5.384-.538,5.384-1.3,10.73a134.106,134.106,0,0,1-3.992,19.621c-1.052,3.488-2.412,6.914-3.74,10.3-.17.435.51.844.8.466h0Z" transform="translate(-949.983 -493.311)" fill="#010d3d"/><path id="Trazado_7556" data-name="Trazado 7556" d="M983.649,815.46a1.411,1.411,0,0,0,.913,1.681,4.261,4.261,0,0,0,3.041-.309,25.391,25.391,0,0,0,5.963-3.514q3.089-2.267,6.165-4.553c.9-.674,1.795-1.354,2.638-2.1.724-.642,1.813-1.467,1.851-2.5a.656.656,0,0,0-.825-.63c-.806.271-1.291,1.146-1.876,1.725a21.436,21.436,0,0,1-2.166,1.826c-1.7,1.285-3.419,2.531-5.132,3.8-1.555,1.152-3.1,2.342-4.754,3.35a17.354,17.354,0,0,1-2.638,1.348c-.919.359-2.015.812-2.7-.176a.266.266,0,0,0-.479.063h0Z" transform="translate(-944.662 -522.679)" fill="#010d3d"/><path id="Trazado_7557" data-name="Trazado 7557" d="M1064.834,727.339a148.148,148.148,0,0,0-.882,19.98,110.983,110.983,0,0,0,2.028,19.671,18.9,18.9,0,0,0,3.482,7.953,27.073,27.073,0,0,0,5.944,5.226c1.083.762,2.185,1.492,3.3,2.21a14.651,14.651,0,0,1,3.262,2.45c.743.844,1.133,2.179-.114,2.771a5.422,5.422,0,0,1-3.243.1c-5.39-1.052-11.177-3.388-13.9-8.475a1.082,1.082,0,0,0-1.851,0c-.686,1.089-2.412.623-3.079-.239-1.146-1.474-.724-3.608-.182-5.22a32.206,32.206,0,0,0,1.763-5.843,20.711,20.711,0,0,0-.151-6.114c-.642-4.106-2.147-8.022-3.041-12.071-.995-4.521-.579-9.042-.649-13.626a60.6,60.6,0,0,0-2.084-15.144.915.915,0,0,0-1.763.485,75.558,75.558,0,0,1,1.744,14.659c.038,2.538-.12,5.075-.069,7.613a33.817,33.817,0,0,0,.863,6.838c1.007,4.364,2.726,8.633,3.135,13.116a15.764,15.764,0,0,1-.611,6.341c-.667,2.059-1.757,4.181-1.8,6.473-.038,2.015.781,4.238,2.733,5.107a3.941,3.941,0,0,0,5.025-1.291h-1.851c2.682,4.779,7.827,7.373,12.978,8.633,2.185.535,5.157,1.335,7.184-.063a3.028,3.028,0,0,0,1.26-3.054,5.842,5.842,0,0,0-2.317-3.268c-2.191-1.738-4.659-3.092-6.832-4.855a20.074,20.074,0,0,1-5.359-6.316c-1.511-2.959-1.946-6.448-2.405-9.7-.5-3.495-.8-7.015-.989-10.534-.416-7.928-.246-15.88-.346-23.814a.6.6,0,0,0-1.2,0h0Z" transform="translate(-970.612 -491.872)" fill="#010d3d"/><path id="Trazado_7558" data-name="Trazado 7558" d="M1062.505,804.011a5.911,5.911,0,0,0,1.574,2.065c.705.73,1.417,1.461,2.166,2.141a46.093,46.093,0,0,0,4.786,3.784c1.5,1.033,3.211,2.1,5.1,2.1a4.544,4.544,0,0,0,3.979-2.091.675.675,0,0,0-1.165-.68,3.476,3.476,0,0,1-3.828,1.259,13.424,13.424,0,0,1-4.49-2.361c-1.373-.957-2.752-2.015-4.068-3.111-.674-.567-1.341-1.14-1.977-1.744a7.087,7.087,0,0,0-1.851-1.536.157.157,0,0,0-.227.176h0Z" transform="translate(-973.887 -522.798)" fill="#010d3d"/><path id="Trazado_7559" data-name="Trazado 7559" d="M1034.628,525.759c.97,2.053-.334,4.464-2.254,5.4a.581.581,0,0,0,.447,1.058c2.689-.932,3.721-4.4,2.468-6.845-.227-.441-.869-.057-.661.384Z" transform="translate(-962.627 -419.609)" fill="#010d3d"/><path id="Trazado_7560" data-name="Trazado 7560" d="M1037.478,525.427c.019.113,0,.233.013.353a1.95,1.95,0,0,0,.113.428,2.8,2.8,0,0,0,.434.737,3.971,3.971,0,0,0,1.291,1.083,4.547,4.547,0,0,0,3.318.416.6.6,0,0,0-.315-1.152,3.371,3.371,0,0,1-2.443-.283,4.859,4.859,0,0,1-1.058-.756c-.17-.164-.321-.34-.472-.51a3.622,3.622,0,0,1-.447-.491c-.145-.246-.472-.069-.434.183h0Z" transform="translate(-964.621 -419.591)" fill="#010d3d"/><path id="Trazado_7561" data-name="Trazado 7561" d="M1023.419,437.881a5.877,5.877,0,0,0,4.729,1.486,6.4,6.4,0,0,0,2.405-.806c.7-.4,1.738-1.07,1.814-1.927a.719.719,0,0,0-.907-.686c-.416.107-.6.416-.894.68a4.645,4.645,0,0,1-.749.56,5.244,5.244,0,0,1-1.876.7,5.777,5.777,0,0,1-3.866-.863.55.55,0,0,0-.661.863h0Z" transform="translate(-959.352 -386.556)" fill="#010d3d"/><path id="Trazado_7562" data-name="Trazado 7562" d="M1033.572,433.223c0,.069-.019.126-.013.2,0,.031.013.076.013.1a.322.322,0,0,0,0,.189l.013.05c.013.069.025.132.038.2.044.22.094.434.157.649a4.891,4.891,0,0,0,.479,1.366.428.428,0,0,0,.485.2.438.438,0,0,0,.315-.416,2.574,2.574,0,0,0-.17-.762c-.082-.22-.164-.435-.246-.649-.088-.233-.183-.466-.29-.693a1.505,1.505,0,0,0-.176-.309c-.031-.038-.05-.088-.082-.126-.038-.057-.094-.1-.139-.157-.132-.157-.359-.019-.371.151h0Z" transform="translate(-963.17 -385.469)" fill="#010d3d"/><path id="Trazado_7563" data-name="Trazado 7563" d="M1056.718,437.261a4.888,4.888,0,0,0,3.432,1.039,3.753,3.753,0,0,0,1.581-.453,2.363,2.363,0,0,0,.623-.491,1.09,1.09,0,0,0,.3-.56.779.779,0,0,0,.019-.208l-.025-.183c-.013-.063-.006-.063.006,0a.575.575,0,0,0-.976-.4c.051-.057-.094.044-.126.063a1.646,1.646,0,0,0-.3.29l-.094.094c-.013.013-.113.094-.057.05s-.094.063-.094.057c-.038.025-.082.044-.12.069a.773.773,0,0,1-.126.063c.069-.031.031-.013-.019,0a2.515,2.515,0,0,1-.309.094,2.165,2.165,0,0,1-.277.057c-.12.019.107-.006-.013,0l-.208.019a5.2,5.2,0,0,1-2.664-.548.565.565,0,0,0-.755.2.573.573,0,0,0,.2.756h0Z" transform="translate(-971.645 -386.522)" fill="#010d3d"/><path id="Trazado_7564" data-name="Trazado 7564" d="M1062.54,433.54a5.283,5.283,0,0,0,.359,1.587,7.036,7.036,0,0,0,.353.768,1.17,1.17,0,0,0,.586.617.226.226,0,0,0,.277-.157,1.417,1.417,0,0,0-.2-.819c-.094-.22-.2-.441-.29-.661-.2-.491-.409-.976-.617-1.467-.1-.227-.478-.113-.466.126h0Z" transform="translate(-973.903 -385.578)" fill="#010d3d"/><path id="Trazado_7565" data-name="Trazado 7565" d="M1015.09,465.285a4.856,4.856,0,0,0,1.769,3.067,11.508,11.508,0,0,0,3.469,2.1,23.133,23.133,0,0,0,4.628,1.322c.8.145,1.612.252,2.424.321a5.224,5.224,0,0,0,2.494-.132.871.871,0,0,0,0-1.5,6.1,6.1,0,0,0-2.109-.277c-.724-.05-1.455-.132-2.172-.239a25.185,25.185,0,0,1-4.244-1.052,15.358,15.358,0,0,1-3.167-1.417,6.724,6.724,0,0,1-1.4-1.052c-.4-.422-.686-.963-1.1-1.379a.346.346,0,0,0-.586.239h0Z" transform="translate(-956.331 -397.305)" fill="#010d3d"/><path id="Trazado_7566" data-name="Trazado 7566" d="M1058.747,514.966a26.262,26.262,0,0,0,1.335,2.443c.51.888.945,1.813,1.436,2.714.932,1.719,1.9,3.413,2.834,5.126,1.839,3.337,3.558,6.738,5.207,10.169.837,1.75,1.782,3.451,2.569,5.22s1.486,3.684,2.141,5.56a71.361,71.361,0,0,1,3.067,11.095c.85,4.9-2.1,8.992-3.18,13.582-.22.951,1.152,1.631,1.637.693a53.9,53.9,0,0,0,2.38-6.158c.655-1.782,1.549-4,1.083-5.925-.252-1.045-.39-2.1-.674-3.148s-.567-2-.856-3c-.542-1.876-1.089-3.747-1.681-5.61-1.215-3.8-2.6-7.537-3.847-11.322a66.45,66.45,0,0,0-5.082-10.843c-1.071-1.958-2.223-3.866-3.482-5.717-.649-.957-1.36-1.858-2.078-2.771a25.794,25.794,0,0,0-2.141-2.632c-.365-.359-.85.094-.667.516h0Z" transform="translate(-972.484 -415.585)" fill="#010d3d"/><path id="Trazado_7567" data-name="Trazado 7567" d="M1079.02,583.507a3.405,3.405,0,0,0,1.008.157,7.4,7.4,0,0,1,.913.132,7.211,7.211,0,0,1,.951.3,5.535,5.535,0,0,0,.907.39.481.481,0,0,0,.466-.793,2.585,2.585,0,0,0-1.026-.6,5.16,5.16,0,0,0-1.052-.308,5.567,5.567,0,0,0-1.127-.12,1.866,1.866,0,0,0-1.115.277.311.311,0,0,0,.076.56Z" transform="translate(-979.924 -440.898)" fill="#010d3d"/><path id="Trazado_7568" data-name="Trazado 7568" d="M1022.559,419.166a6.311,6.311,0,0,1,1.127-1.675,3.433,3.433,0,0,1,1.618-.926,3.246,3.246,0,0,1,1.795.088c.107.031.208.063.309.1.05.019.151.057.044.013a4.149,4.149,0,0,1,.522.277,2.5,2.5,0,0,0,.611.334c.107.031.466.088.239.057a2.183,2.183,0,0,0,.4.038.8.8,0,0,0,.787-.787,1.331,1.331,0,0,0-.05-.39c-.107-.239-.126-.3-.063-.164l-.1-.246a1.95,1.95,0,0,0-.749-.68,5.616,5.616,0,0,0-1.335-.586,5.117,5.117,0,0,0-2.934.057,4.936,4.936,0,0,0-2.3,1.549,3.968,3.968,0,0,0-1.026,2.651.6.6,0,0,0,1.1.3h0Z" transform="translate(-958.687 -378.596)" fill="#00b2e3"/><path id="Trazado_7569" data-name="Trazado 7569" d="M1053.837,418.389a.91.91,0,0,0,.183-.069l.063-.019q-.179-.028-.019,0a2.079,2.079,0,0,0,.479-.094,2.052,2.052,0,0,1,.6-.094,4.385,4.385,0,0,1,.705.013c.214.019-.114-.025.094.013.057.013.113.019.164.031.12.025.239.057.359.088s.214.069.321.107c.182.069-.088-.057.088.038.05.025.1.057.145.082.107.063.208.132.315.2.05.031.094.063.138.094s.126.088.044.025c.434.334.756.989,1.366.976l-.283-.076a1.676,1.676,0,0,0,.3.157.426.426,0,0,0,.516-.29,1.2,1.2,0,0,0,0-.5l-.057.428c.378-.756-.384-1.417-.938-1.826a4.763,4.763,0,0,0-3.413-.8,3.981,3.981,0,0,0-.768.22,1.144,1.144,0,0,0-.535.309c-.063.076-.057.076.013,0-.031.025-.069.05-.1.076-.069.05-.132.107-.2.164-.321.277.019.9.428.737h0Z" transform="translate(-970.477 -379.481)" fill="#00b2e3"/><g id="Grupo_4805" data-name="Grupo 4805" transform="matrix(0.875, -0.485, 0.485, 0.875, 59.111, 120.177)"><path id="Trazado_7570" data-name="Trazado 7570" d="M1019.015,552.989l.5-.328c.378-1.669.365-3.344,1.24-4.773.321-.523,1-1.5,1.373-2.084.063-.113.132-.227.2-.327a.422.422,0,0,0,.038-.076h.006a2.013,2.013,0,0,1,.6-.586c.737-.435,1.473-.2,2.242.724.145.176.737.271.825.661a1.938,1.938,0,0,0-.548-.208,4.759,4.759,0,0,0-1.14.327c1.492,2.821-.46,5.3-1.241,7.474.025.151.982.485.775,1.033-.025.063-.069.1-.132.088-.951-.157-1.429-.787-2.342-1.033-.793-.214-1.291.05-2.3-.39-.214-.094-.283-.384-.1-.5" transform="translate(-1018.91 -544.604)" fill="#010d3d" fill-rule="evenodd"/><path id="Trazado_7571" data-name="Trazado 7571" d="M1024.327,547.6a.923.923,0,0,0,0,.378c-.082,4.9-1.467,6.366-1.964,4.811-.157-.485-.529-.642-.636,1.442-.013.22.5.277.7.346.6.214.636.271.945.1.176-.094,2.135-3.684,1.669-5.988a7.821,7.821,0,0,0-.246-1.089.258.258,0,0,0-.466,0" transform="translate(-1019.752 -545.658)" fill="#fff" fill-rule="evenodd"/><path id="Trazado_7572" data-name="Trazado 7572" d="M1021.74,545.694a.222.222,0,0,0,.151.246.157.157,0,0,0,.208-.138.229.229,0,0,0-.151-.246.157.157,0,0,0-.208.138" transform="translate(-1016.75 -544.953)" fill="#fff"/></g></g><g id="Grupo_4809" data-name="Grupo 4809" transform="translate(946.154 317.445)"><path id="Trazado_7573" data-name="Trazado 7573" d="M1248.854,723.265q-3.306-22.007-7.071-43.932-1.87-10.881-3.847-21.743c-1.328-7.273-2.689-14.583-4.37-21.787-.938-4.03-1.914-8.047-2.733-12.1a13.4,13.4,0,0,1-.422-5.579,4.8,4.8,0,0,1,1.625-2.739,11.909,11.909,0,0,1,.749,2.185,4.8,4.8,0,0,0,2.273,3.041,3.877,3.877,0,0,0,4.206-.516,5.12,5.12,0,0,0,.68-.705,1.621,1.621,0,0,0,.938-.938c.258-.781.523-1.562.774-2.342a1.22,1.22,0,0,0-.019-.806,2.75,2.75,0,0,0-.139-2.1c-.819-1.568-2.575-1.568-4-.932-1.039-1.744-.68-3.954-.013-5.831.479-1.347,1.184-2.607,1.675-3.954a14.456,14.456,0,0,0,.73-3.57c.088-.057.183-.107.271-.157a1.238,1.238,0,0,0-1.253-2.135c-.258.157-.523.334-.781.516-.006,0-.013.006-.019.013a19.614,19.614,0,0,0-3.029,2.663,23.1,23.1,0,0,0-8.261-5.642c-2.783-1.14-6.706-2.091-9.779-1.064-3.1-.674-6.341-.617-9.477-.9-1.933-.17-3.866-.378-5.8-.636s-3.835-.655-5.761-.9a1.421,1.421,0,0,0-1.474-.453,9.447,9.447,0,0,0-4.194,2.582,4.178,4.178,0,0,0-.6,4.66c.183.283.491.51.661.8a1.644,1.644,0,0,1,.012,1.152c-.151.9-.34,1.788-.554,2.67a37.8,37.8,0,0,1-1.165,3.8c-.46-.3-.926-.592-1.392-.875a1.254,1.254,0,0,0-1.7,1.7c.145.258.284.51.435.768a1.794,1.794,0,0,0-.2.044c-.466-.264-1.234-.019-1.178.642a4.754,4.754,0,0,0,1.052,2.909,1.615,1.615,0,0,0,2.437.126,2.079,2.079,0,0,0,.2-.346c.063.113.132.214.157.252a5.014,5.014,0,0,1,.315,1.442,21.433,21.433,0,0,1-.277,4.307q-.756,5.846-1.152,11.737c-.529,7.732-.649,15.49-.479,23.235.34,15.616,1.839,31.175,3.463,46.7.453,4.32.9,8.639,1.385,12.959.258,2.273.466,4.578.913,6.819.422,2.128,1.442,4.08,1.927,6.19a2.092,2.092,0,0,0,1.864,2.909q4.213.085,8.419.157a2.109,2.109,0,0,0,2.009-2.632q-1.776-9.87-3.237-19.791a131.925,131.925,0,0,1-1.839-19.526c.019-6.662.661-13.274.157-19.936-.252-3.262-.611-6.511-.756-9.785a66.86,66.86,0,0,1,.359-9.59c.655-6.328,1.675-12.682.787-18.991q8.019.019,16.025.409,3.5,21.119,7.424,42.151c2.7,14.451,5.61,28.852,8.564,43.252.416,2.028.837,4.049,1.259,6.076a8.1,8.1,0,0,0,2.3,4.685c2.43,2.128,5.881,2.235,8.935,1.99a2.1,2.1,0,0,0,1.983-2.6Z" transform="translate(-1166.866 -445.746)" fill="#fff"/><path id="Trazado_7574" data-name="Trazado 7574" d="M1255.754,632.454c.359,1.92.674,3.841.963,5.774.472,3.167.793,5.913,1.316,9.017,1.366,8.2,2.928,16.378,4.4,24.564q2.5,13.922,4.93,27.85,2.163,12.42,4.231,24.847.765,4.609,1.492,9.231c.176,1.14.3,2.311.548,3.432a9.713,9.713,0,0,1,.378,1.725c.019.724-.831.806-1.392.932a14.17,14.17,0,0,1-2.72.346,15.209,15.209,0,0,1-5.182-.7c-1.681-.529-2.324,2.034-.705,2.557a15.683,15.683,0,0,0,5.6.768,12.342,12.342,0,0,0,5.113-1.19c1.965-1.064,1.656-3.639,1.385-5.554-.378-2.72-.812-5.428-1.247-8.135-1.278-7.99-2.645-15.962-4.024-23.934q-2.456-14.206-4.993-28.4c-1.549-8.658-3.041-17.335-4.735-25.968-1.083-5.535-2.487-11-3.784-16.485-.082-.353-.164-.7-.252-1.052-.214-.882-1.5-.5-1.341.372h0Z" transform="translate(-1193.185 -461.085)" fill="#010d3d"/><path id="Trazado_7575" data-name="Trazado 7575" d="M1189.568,624.677c-2.481,7.021-2.512,14.627-2.733,21.995s-.29,14.98-.107,22.461a449.919,449.919,0,0,0,3.344,45.091q.784,6.29,1.738,12.556.491,3.193,1.02,6.379c.352,2.122.655,4.263,1.177,6.347a1.33,1.33,0,0,0,1.247.945,50.017,50.017,0,0,0,6.435.523,25.345,25.345,0,0,0,6.41-1,1.147,1.147,0,0,0-.611-2.21c-3.7,1.1-8.224,1.6-11.895.151l.945,1.247c-.434-3.778-1.24-7.525-1.832-11.284s-1.1-7.266-1.574-10.906q-1.455-11.136-2.361-22.335c-1.2-14.923-1.681-29.922-1.442-44.89.069-4.206.227-8.406.327-12.612s.025-8.211,1.115-12.128a.63.63,0,0,0-1.215-.334h0Z" transform="translate(-1167.595 -458.365)" fill="#010d3d"/><path id="Trazado_7576" data-name="Trazado 7576" d="M1269.4,599.682c-1.045.554-2.084,1.1-3.142,1.631-.478.239-.976.466-1.448.724a2.09,2.09,0,0,0-1.039,1.159.689.689,0,0,0,.479.844.7.7,0,0,0,.844-.479c-.044.107.126-.151.044-.063a2.186,2.186,0,0,1,.214-.2c.088-.076.29-.2.447-.3.441-.271.888-.535,1.335-.806.919-.554,1.851-1.089,2.789-1.618.579-.328.063-1.2-.523-.894Z" transform="translate(-1196.153 -449.25)" fill="#010d3d"/><path id="Trazado_7577" data-name="Trazado 7577" d="M1188.847,601.755c-.006.718.655,1.133.68,1.795a5.967,5.967,0,0,1-.258,1.36c-.1.5-.214.989-.34,1.48a31.878,31.878,0,0,1-1.99,5.686l.945-.246c-.655-.309-1.3-.617-1.958-.919a3.419,3.419,0,0,0-1.706-.516c-1.121.113-1.511,1.341-1.48,2.311a4.959,4.959,0,0,0,1.058,2.915,3.685,3.685,0,0,0,2.575,1.6.521.521,0,0,0,.258-.963,9.169,9.169,0,0,1-1.656-1.089,3.574,3.574,0,0,1-.919-1.807c-.107-.579-.145-1.713.674-1.461a23.259,23.259,0,0,1,2.462,1.127.705.705,0,0,0,1.014-.409,40.234,40.234,0,0,0,1.946-6.026,14.741,14.741,0,0,0,.5-2.815,1.634,1.634,0,0,0-.283-1.02c-.2-.3-.592-.617-.611-.995a.457.457,0,0,0-.913,0h0Z" transform="translate(-1166.155 -449.882)" fill="#010d3d"/><path id="Trazado_7578" data-name="Trazado 7578" d="M1187.007,614.191c-.063-.1-.126-.2-.183-.3-.025-.044-.044-.094-.069-.138s-.013-.025.012.031c-.012-.025-.019-.057-.031-.082a1.717,1.717,0,0,1-.05-.17.551.551,0,0,1-.038-.17v-.29c.006-.063,0-.057,0,.019a.52.52,0,0,0,.025-.107c0-.013.05-.132.044-.139-.038.082-.038.095-.013.038a.292.292,0,0,0,.031-.063l.057-.094c.038-.05.025-.038-.025.025.013-.019.032-.038.044-.057.032-.038.069-.069.1-.1.076-.082-.107.069.013-.006a.6.6,0,0,1,.107-.063c.057-.025.044-.019-.044.013.019-.006.044-.019.069-.025s.082-.019.12-.031.025,0-.069.006h.145c.063,0,.051,0-.05-.006a.5.5,0,0,0,.139.031c.107.025-.113-.063-.013-.006.044.025.082.044.12.069l.057.038c-.069-.057-.082-.063-.031-.025.025.025.057.05.082.076a.808.808,0,0,1,.1.107c.019.019.031.038.05.057.038.05.032.038-.019-.031a1.334,1.334,0,0,1,.145.22c.05.088.094.176.139.271a.582.582,0,0,0,.793.208.589.589,0,0,0,.208-.793,2.053,2.053,0,0,0-1.883-1.373,1.827,1.827,0,0,0-1.58,1.927,2.848,2.848,0,0,0,.529,1.48.553.553,0,1,0,.957-.554h0Z" transform="translate(-1167.181 -453.584)" fill="#010d3d"/><path id="Trazado_7579" data-name="Trazado 7579" d="M1262.067,606.273c-.535,2.865-1.134,5.724-1.669,8.589q-.415,2.22-.775,4.458a5.723,5.723,0,0,0,.176,3.57,9.989,9.989,0,0,0,2.084,2.9,6.35,6.35,0,0,0,2.846,1.952c1.077.208,2.091-.648,2.878-1.328a3.721,3.721,0,0,0,1.442-2.443,2.438,2.438,0,0,0-1.209-2.349,1.963,1.963,0,0,0-.68-.2c-.214-.025-.686.1-.882.013-.214-.094-.416-.573-.548-.781a11.716,11.716,0,0,0-.68-.976c-.523-.655-1.411.176-1.1.844.416.863,1.052,2.242,2.128,2.368.5.057,1.058-.29,1.436.138a1.33,1.33,0,0,1,.132,1.417,3.752,3.752,0,0,1-1.1,1.259c-.6.5-1.253,1.083-2,.5a11.807,11.807,0,0,1-2.55-2.815,5.029,5.029,0,0,1-.938-3.633c.2-1.455.5-2.9.718-4.351.453-2.947.837-5.906,1.285-8.853.1-.667-.9-.963-1.026-.283h0Z" transform="translate(-1194.555 -451.572)" fill="#010d3d"/><path id="Trazado_7580" data-name="Trazado 7580" d="M1269.894,626.436a4.03,4.03,0,0,0,.422,1.133c.22.4.542.812,1.052.686a2.035,2.035,0,0,0,.491-.258,1.575,1.575,0,0,1,.441-.145c-.094.019.107-.013.107-.013h.277c-.107-.013.076.013.094.019s.246.088.164.044a1.281,1.281,0,0,1,.2.113c.038.025.038.025-.013-.013a1.224,1.224,0,0,1,.094.088c.032.031.057.063.088.094-.044-.057-.038-.057,0,.013s.063.107.094.164h0c.013.038.025.082.038.12s.019.082.031.12q-.009-.113,0-.038v.214c0-.17-.019.063-.031.107-.038.151.063-.082-.031.069-.019.025-.176.246-.094.145a3.443,3.443,0,0,1-.371.372c-.138.126-.283.246-.428.359.057-.044.051-.038-.025.019s-.157.113-.233.176a.869.869,0,0,0-.271.334.806.806,0,0,0,0,.775.745.745,0,0,0,.661.378,1.378,1.378,0,0,0,.831-.384c.145-.12.277-.246.41-.378a4.387,4.387,0,0,0,.755-.913,2.175,2.175,0,0,0,0-2.147,2.25,2.25,0,0,0-1.763-1.146,2.4,2.4,0,0,0-1.052.12,2.785,2.785,0,0,0-.522.239c-.139.088-.277.214-.4.271l.29-.076a1.563,1.563,0,0,0,.183.076l-.107-.164c-.063-.1-.114-.2-.164-.3a3.229,3.229,0,0,1-.208-.586.532.532,0,1,0-1.026.283h0Z" transform="translate(-1198.422 -458.921)" fill="#010d3d"/><path id="Trazado_7581" data-name="Trazado 7581" d="M1268.5,622.089a17.521,17.521,0,0,0,1.228-4.943,12.447,12.447,0,0,0-.277-2.682c-.025-.139-.044-.283-.076-.416-.1-.46.013.082-.025.057,0,0,.12-.214.126-.233a8.565,8.565,0,0,0,.529-1.146c.183-.491.611-1.429-.013-1.8-.548-.327-.957.479-1.2.825-.447.649-1.2,1.02-1.58,1.707-.447.793-.038,1.725.082,2.556.132.932.189,1.876.29,2.808a8.144,8.144,0,0,1-.132,2.972.546.546,0,0,0,1.052.29h0Z" transform="translate(-1197.366 -453.409)" fill="#010d3d"/><path id="Trazado_7582" data-name="Trazado 7582" d="M1269.839,621.756l.227.781c.076.258.126.523.214.774a1.033,1.033,0,0,0,.636.667,1.3,1.3,0,0,0,.945-.126c.057-.025.107-.05.164-.069-.132.05.038-.006.051-.013l.151-.038c.044-.013.107,0-.013,0h.157c.031,0,.2.019.038,0a1.649,1.649,0,0,1,.3.082c-.145-.05.006.006.038.019s.088.057.132.082c-.126-.076,0,0,.032.031l.076.076c.113.113-.05-.107.025.038.025.044.057.094.082.138.082.145-.025-.12.013.038a1.46,1.46,0,0,0,.044.158c.044.157.013-.126,0,.038v.164c0,.088,0,.176-.006.271-.019.3-.019.649.271.819.353.208.7-.057.888-.346a1.338,1.338,0,0,0,.2-.85,2.209,2.209,0,0,0-.63-1.429,2.172,2.172,0,0,0-1.4-.592,1.983,1.983,0,0,0-.787.12,3.342,3.342,0,0,0-.4.2.745.745,0,0,1-.157.082c.057-.025.05-.025-.013,0a.269.269,0,0,1,.1,0l.044.019c.051.038.051.038,0-.013l.025.031a.972.972,0,0,1-.05-.094,4.115,4.115,0,0,1-.157-.384l-.334-.907a.48.48,0,0,0-.579-.327.472.472,0,0,0-.327.579h0Z" transform="translate(-1198.404 -457.232)" fill="#010d3d"/><path id="Trazado_7583" data-name="Trazado 7583" d="M1261.671,550.512a122.19,122.19,0,0,0-31.893-46.338c-3.665-3.444-8.532-3.451-13.305-3.344-12.524-.945-14.212,2.55-24.154,8.74a339.308,339.308,0,0,0-32.749,32.554c-2.267,2.084-4.716,5.113-1.9,7.871,4.307,5.333,10.66,8.463,16.05,12.543,1.568.863,3,2.833,4.955,2.386a19.342,19.342,0,0,0,6.819-6.53,168.9,168.9,0,0,1-9.558,21.963c-2.7,4.792,37.938,3.86,42.346,4.3.667,0,3.073.586,3.167-.019,1.562-9.854,3.583-18.393,5.359-27.322,2.185-11.076,4.282-22.291,4.238-33.625,6.687,7.556,10.39,17.159,17.014,24.734a140.79,140.79,0,0,0-18.223,13.488c-2.072,1.908-1.158,4.93-1.3,7.424.013,1.184-.157,2.7,1.033,3.394,8.343.283,16.951-9.168,23.613-13.727,2.393-2.569,8.576-4.729,8.494-8.488Zm-89.779-4.452q12.071-12.014,23.512-24.627c-2.638,11.769-5.314,23.556-9.218,34.979-3.98-4.206-9.357-7.26-14.294-10.346Z" transform="translate(-1156.403 -412.61)" fill="#64d8cc"/><path id="Trazado_7584" data-name="Trazado 7584" d="M1275.7,422.063a7.548,7.548,0,0,0-4.471.258,1.675,1.675,0,0,0-.208-.132c-.271-.126-.258-.057-.384-.34a3.285,3.285,0,0,1-.107-.579c-.05-1.077.189-2.16.094-3.243-.183-2.16-1.266-4.131-2.166-6.07a36.954,36.954,0,0,0-5.717-9.414,20.668,20.668,0,0,0-9.886-5.736,22.836,22.836,0,0,0-10.585-.705,13.167,13.167,0,0,0-8.778,6.221,50.824,50.824,0,0,0-2.7,5.44q-1.445,3.107-2.84,6.259c-1.839,4.118-3.747,8.211-5.6,12.329a27.848,27.848,0,0,0-2.04,5.743,18.517,18.517,0,0,0-.076,6.612,15.02,15.02,0,0,0,2.336,6.549,19.452,19.452,0,0,0,4.811,4.408c3.381,2.368,7.059,4.49,11.208,4.83a28.445,28.445,0,0,1-1.278,6.876c-.674,2.109-1.839,4.282-1.02,6.523a3.824,3.824,0,0,0,1.713,2.09,3.119,3.119,0,0,0,2.884-.416c2.047-1.19,2.682-3.52,3.249-5.667.353-1.335.7-2.67,1.064-4,.183-.667.378-1.329.567-2,.145-.523.214-1.53.649-1.914.567-.51,1.807-.485,2.519-.617a20.024,20.024,0,0,0,3.457-.982,27.866,27.866,0,0,0,11.057-7.8,40.249,40.249,0,0,0,4.691-6.656c.686-1.209,1.322-2.456,1.908-3.721a8.537,8.537,0,0,1,1.108-1.656,7.37,7.37,0,0,0,5.453-.6,6.7,6.7,0,0,0,3.394-6.246c-.145-2.424-1.833-5.081-4.307-5.636Z" transform="translate(-1179.943 -373.758)" fill="#fff"/><path id="Trazado_7585" data-name="Trazado 7585" d="M1216.319,746.966c-.246-3.174-.24-6.36-.447-9.533s-.63-6.385-.989-9.571c-.724-6.423-1.429-12.852-1.921-19.3-.982-12.789-.806-25.609-.724-38.423l.069-10.925.032-5.308a26.072,26.072,0,0,0-.019-2.808,27.118,27.118,0,0,1-.214-2.808l-1.089,1.089c1.605-.025,3.2.05,4.8.025,1.41-.025,2.8-.183,4.219-.12,3.01.145,6.013.3,9.03.309a.725.725,0,0,0,0-1.448c-3.01.013-6.02-.095-9.03-.271-1.379-.082-2.72-.378-4.093-.51-1.637-.164-3.293-.139-4.937-.164a1.106,1.106,0,0,0-1.089,1.089c-.038,1.631-.29,3.205-.3,4.842l-.031,4.842-.063,9.678c-.044,6.454-.114,12.915-.088,19.369s.189,12.921.63,19.369,1.121,12.883,1.851,19.306c.416,3.621.819,7.247,1.335,10.856s1.354,7.034,1.9,10.579c.1.655,1.216.51,1.165-.157h0Z" transform="translate(-1176.041 -466.871)" fill="#010d3d"/><path id="Trazado_7586" data-name="Trazado 7586" d="M1258.133,746.014c-.516.535-.774-1.146-.819-1.4-.138-.818-.189-1.643-.327-2.456-.284-1.669-.6-3.331-.907-5-.6-3.218-1.3-6.423-1.958-9.634-1.316-6.467-2.481-12.965-3.564-19.476-2.122-12.726-4.439-25.42-6.58-38.139q-.907-5.365-1.725-10.749-.416-2.7-.793-5.4a23.261,23.261,0,0,0-1.02-5.592,1.108,1.108,0,0,0-2.166.3,20.1,20.1,0,0,0,.447,5.264c.239,1.732.485,3.413.743,5.119q.765,5.1,1.618,10.182c1.1,6.612,2.279,13.2,3.444,19.8,2.418,13.7,4.477,27.454,7.311,41.068.787,3.8,1.662,7.606,2.821,11.3.308.989.7,1.927,1.045,2.9a8.959,8.959,0,0,0,.875,2.273c.309.435.762.73,1.259.453a.7.7,0,0,0,.434-.775.085.085,0,0,0-.139-.038h0Z" transform="translate(-1186.698 -466.939)" fill="#010d3d"/><path id="Trazado_7587" data-name="Trazado 7587" d="M1232.074,405.716c-.787,1.82-1.807,3.495-2.607,5.314s-1.612,3.633-2.469,5.428c-1.644,3.47-3.488,6.826-5.27,10.22a35.154,35.154,0,0,0-4.011,10.717A16.928,16.928,0,0,0,1219.2,448c3.161,6.29,9.729,9.88,16.34,11.466a29.636,29.636,0,0,0,11.523.674,24.112,24.112,0,0,0,9.162-3.8c6.788-4.345,11.17-11.29,14.571-18.424.649-1.366-1.436-2.544-2.021-1.177-2.613,6.12-6.2,12-11.46,16.189a23.766,23.766,0,0,1-8.444,4.213,21.966,21.966,0,0,1-10.314.227c-6.2-1.247-12.594-3.684-16.157-9.244a14.135,14.135,0,0,1-2.172-9.061,27.856,27.856,0,0,1,3.318-9.974c1.87-3.671,3.9-7.254,5.674-10.975.907-1.9,1.776-3.816,2.588-5.762s1.278-3.935,1.946-5.913c.327-.97-1.266-1.669-1.681-.705h0Z" transform="translate(-1179.013 -377.278)" fill="#010d3d"/><path id="Trazado_7588" data-name="Trazado 7588" d="M1301.994,437.059a3.632,3.632,0,0,1,5.176-.2,6.434,6.434,0,0,1,1.65,6.24,6.509,6.509,0,0,1-1.373,2.8,6.765,6.765,0,0,1-2.368,1.952,2.654,2.654,0,0,1-2.405-.069,3.829,3.829,0,0,1-.863-.825c-.315-.353-.825-.56-1.1-.85a.556.556,0,0,0-.863.113,2.8,2.8,0,0,0-.441,1.2,2.434,2.434,0,0,0,.781,1.832,4.883,4.883,0,0,0,2.89,1.492,5.964,5.964,0,0,0,6.076-3.255,13.48,13.48,0,0,0,.963-3.381,12.62,12.62,0,0,0,.239-3.828,6.759,6.759,0,0,0-3.155-5.1,4.734,4.734,0,0,0-6.032,1.052c-.453.579.346,1.41.825.825Z" transform="translate(-1209.358 -388.119)" fill="#010d3d"/><path id="Trazado_7589" data-name="Trazado 7589" d="M1275.733,408c2.21-2.072,4.546-3.967,6.712-6.089a9.1,9.1,0,0,0,2.147-2.972,3.306,3.306,0,0,0-.68-3.419l-.938,1.612a6.934,6.934,0,0,1,2.26.724c.661.384,1.3.793,1.939,1.222.516.346,1.366-.239,1.114-.856a5.566,5.566,0,0,0-4.256-3.451l.214,1.662a38.17,38.17,0,0,1,3.381-2.267c.825-.491.548-2.053-.529-1.946a10.007,10.007,0,0,0-4.477,1.732l1.467.384c-4.867-10.276-13.853-17.562-23.033-23.84-2.582-1.763-5.5-3.677-8.677-4.024a.735.735,0,0,0-.731.73,23.021,23.021,0,0,0,.724,5.195l1.077-.831a70.856,70.856,0,0,0-14.621-7.556,56.446,56.446,0,0,0-16.2-3.192,1.334,1.334,0,0,0-1.322,1.322c.132,6.574,4.7,11.964,9.426,16.063l1.259-1.631a25.806,25.806,0,0,0-15.566-1.9.983.983,0,0,0-.674,1.184c.372,2.191,2.185,3.753,3.936,4.93a65.118,65.118,0,0,0,6.845,4.124l.428-1.593a15.786,15.786,0,0,0-6.486.542c-2.191.743-.9,3.23-.082,4.584,1.927,3.167,5.132,5.277,8.186,7.229.926.592,1.769-.875.856-1.467a26.159,26.159,0,0,1-6.819-5.579,11.28,11.28,0,0,1-1.115-1.769,7.848,7.848,0,0,1-.416-.976c-.151-.441-.126-.346.346-.466a17.923,17.923,0,0,1,5.528-.39.86.86,0,0,0,.428-1.593,36.5,36.5,0,0,1-6.265-3.539c-1.6-1.171-3.186-2.5-3.513-4.559l-.674,1.184a22.782,22.782,0,0,1,14,1.832c1.007.491,2.172-.781,1.259-1.631-4.143-3.841-8.154-8.658-8.249-14.59l-1.322,1.322a73.374,73.374,0,0,1,15.541,2.947,57.641,57.641,0,0,1,14.539,6.423.741.741,0,0,0,1.077-.831,12.848,12.848,0,0,1-.68-4.8l-.926.705c2.771.661,4.848,2.727,7.14,4.282s4.433,3.06,6.574,4.691a68.321,68.321,0,0,1,11.573,10.906,36.135,36.135,0,0,1,4.767,7.632,1.077,1.077,0,0,0,1.467.384,12.117,12.117,0,0,1,3.665-1.536l-1.014-1.744a36.3,36.3,0,0,1-3.035,2.336c-.586.4-.611,1.5.214,1.662a4.671,4.671,0,0,1,3.35,2.286l1.039-1.039c-.712-.39-1.436-.762-2.172-1.1a13.305,13.305,0,0,1-2.047-1.3c-.881-.617-1.656.542-1.322,1.322.271.63-.491,1.839-.819,2.324a18.626,18.626,0,0,1-2.109,2.349c-.831.869-1.562,1.751-2.317,2.676-.793.982-1.719,1.87-2.582,2.8a.829.829,0,0,0,1.171,1.171h0Z" transform="translate(-1178.375 -360.817)" fill="#010d3d"/><path id="Trazado_7590" data-name="Trazado 7590" d="M1240.361,401.866a23.594,23.594,0,0,0,1.984,6.278,21.432,21.432,0,0,0,1.776,3c.523.737,1.1,1.618,2.04,1.839a1.685,1.685,0,0,0,1.921-1.253,19.53,19.53,0,0,0,.951-3.47,26.181,26.181,0,0,0,.34-7.355l-1.549.208a35.336,35.336,0,0,0,2.733,7.884,27.663,27.663,0,0,0,4.546,6.983c.806.869,2.009,1.688,3.249,1.3s1.568-1.6,1.706-2.708c.2-1.587.3-3.192.359-4.792a19.513,19.513,0,0,0-.094-4.817l-1.524.642c.5,1.159.756,2.431,1.19,3.614s.9,2.261,1.423,3.356a38.234,38.234,0,0,0,3.879,6.4.7.7,0,0,0,1.184,0,22.218,22.218,0,0,0,3.652-10.194l-1.656.227a37.651,37.651,0,0,1,1.933,7.411c.214,1.285.359,2.582.466,3.885a16.172,16.172,0,0,0,.5,3.388c.56,1.851,2.1,3.677,4.2,3.633s3.325-1.788,4.124-3.444a.744.744,0,0,0-1.285-.749c-.743,1.228-1.769,3.237-3.539,2.575-1.99-.743-2.292-3.161-2.443-4.981a63,63,0,0,0-2.336-12.165c-.214-.743-1.486-.856-1.625,0a33.7,33.7,0,0,1-1.039,5,23.806,23.806,0,0,1-2.141,4.729l1.077-.139a30.3,30.3,0,0,1-3.828-6.076,28.665,28.665,0,0,1-1.328-3.331,12.918,12.918,0,0,1-.856-3.564c-.031-.888-1.486-1.19-1.637-.22a29.937,29.937,0,0,0-.069,4.049c-.019,1.329-.082,2.752-.183,4.131-.044.611.076,2.682-.957,2.525-.97-.151-1.832-1.555-2.38-2.261a29.98,29.98,0,0,1-5.774-12.713c-.17-.856-1.644-.68-1.549.208a24.33,24.33,0,0,1-.05,5.938,26.823,26.823,0,0,1-.529,2.733c-.12.472-.246.944-.4,1.41-.063.2-.126.579-.384.623-.164.031-.441-.3-.529-.39a17.274,17.274,0,0,1-2.771-4.464,21.447,21.447,0,0,1-1.694-5.182c-.139-.718-1.209-.409-1.089.3h0Z" transform="translate(-1187.489 -375.373)" fill="#010d3d"/><path id="Trazado_7591" data-name="Trazado 7591" d="M1243.509,433.7a53.687,53.687,0,0,0-7.311,4.276,31.589,31.589,0,0,0-6.045,6.045,1.441,1.441,0,0,0-.214,1.65c1.984,3.684,4.691,7.695,8.954,8.872.365.1.793-.353.535-.693-.586-.762-1.335-1.41-1.889-2.2a23.2,23.2,0,0,0-1.977-2.336,17.961,17.961,0,0,1-3.274-5.025l-.214,1.65a66.649,66.649,0,0,1,5.711-5.913,32.686,32.686,0,0,1,2.959-2.638,30.858,30.858,0,0,1,3.558-2.33c.888-.5.107-1.813-.793-1.36Z" transform="translate(-1183.572 -387.774)" fill="#010d3d"/><path id="Trazado_7592" data-name="Trazado 7592" d="M1237.184,428.884a4.325,4.325,0,0,1,.365-.837,3.273,3.273,0,0,1,.611-.718,5.09,5.09,0,0,1,1.587-.938c.088-.038,0,0-.019,0,.038-.013.069-.031.107-.044l.22-.076c.164-.05.334-.094.5-.132,0,0,.157-.019.063-.013.044,0,.094-.006.145-.006h.138c-.019,0-.088-.019.006,0a.812.812,0,0,1,.132.038c-.044-.019-.05-.038-.019,0a.307.307,0,1,1-.025-.025c.038.031.063.069.1.1-.094-.082-.006,0,.032.063.082.126-.013-.082.031.063.019.069.044.214.031.063a1.788,1.788,0,0,1,.006.258.583.583,0,0,1-.006.107c0-.031.031-.12,0-.025s-.044.176-.069.264c-.013.044-.088.227-.069.189.038-.076-.031.057-.031.057-.025.057-.057.107-.082.164-.227.422-.5.819-.743,1.234-.29.491-.825,1.2-.6,1.776a.9.9,0,0,0,1.07.6c.623-.107.963-.945,1.234-1.448.24-.447.491-.894.686-1.36a2.948,2.948,0,0,0-.069-2.922,1.965,1.965,0,0,0-1.3-.837,3.3,3.3,0,0,0-1.568.183,4.284,4.284,0,0,0-1.3.661,6.247,6.247,0,0,0-.819.812,6.465,6.465,0,0,0-1.328,2.462.507.507,0,0,0,.976.271h0Z" transform="translate(-1185.949 -384.383)" fill="#010d3d"/><path id="Trazado_7593" data-name="Trazado 7593" d="M1268.551,437.46a1.424,1.424,0,0,1,.189-.523c.082-.132-.057.063.038-.057a2.166,2.166,0,0,1,.164-.176,3.738,3.738,0,0,1,.334-.3c.126-.107-.082.063.05-.038.069-.05.139-.1.208-.145l.17-.113c.019-.013.17-.094.031-.025.315-.164.655-.3.982-.447.126-.057.252-.12.378-.183.063-.031.126-.063.189-.088-.183.076-.013.006.019,0a4.156,4.156,0,0,1,.4-.126c.082-.025.164-.044.246-.063.107-.025.208-.031.044-.013.132-.013.258-.006.384-.013.283-.013-.132-.05.025,0,.057.019.12.025.183.044.038.013.208.094.082.025s.038.038.076.05c.132.05-.139-.164.038.025.019.025.2.214.094.088-.126-.157.189.309.082.132-.088-.145.032.094.038.113a1.789,1.789,0,0,1,.044.176,1.587,1.587,0,0,1,.031.183c-.006-.038-.031-.246-.013-.025a4.289,4.289,0,0,0,.2.85c-.025-.076-.006-.157-.019,0,0-.031-.006-.189,0,.025,0,.126,0,.258.012.384a1.688,1.688,0,0,1,.025.372,3.573,3.573,0,0,1-.126.51,8.445,8.445,0,0,1-.85,1.864,3.873,3.873,0,0,0-.529.926.646.646,0,0,0,.624.819c.478-.006.718-.51.926-.869.189-.327.359-.667.523-1.014.346-.724.636-1.473.944-2.216l-.2.334a2,2,0,0,0,.472-.863c.013-.038.157-.4.069-.2a2.231,2.231,0,0,0,.214-.724,3.21,3.21,0,0,0-.378-1.75,3.077,3.077,0,0,0-3.369-1.473,6.013,6.013,0,0,0-3.067,1.637,4.166,4.166,0,0,0-1.612,2.884.825.825,0,1,0,1.65,0h0Z" transform="translate(-1197.33 -387.506)" fill="#010d3d"/><path id="Trazado_7594" data-name="Trazado 7594" d="M1256.243,472.006a7.774,7.774,0,0,0,4.231,1.184,8.758,8.758,0,0,0,4.552-1.631,11.412,11.412,0,0,0,3.407-3.193c.775-1.14,1.832-3.344,1-4.678a.993.993,0,0,0-1.7,0,7.286,7.286,0,0,0-.434,1.851,5.7,5.7,0,0,1-.712,1.637,9.056,9.056,0,0,1-2.613,2.588,9.7,9.7,0,0,1-3.451,1.662,4.85,4.85,0,0,1-3.539-.7c-.819-.5-1.549.768-.749,1.278h0Z" transform="translate(-1193.246 -398.735)" fill="#010d3d"/><path id="Trazado_7595" data-name="Trazado 7595" d="M1273.473,464.329a5.678,5.678,0,0,1,.926-.013,1.547,1.547,0,0,1,.233.025c.088.006-.031,0-.038,0l.132.019c.151.025.3.063.453.1s.3.088.441.138c.063.025.126.044.182.069.139.057.025.013,0,0,.038.019.082.038.12.057a3.671,3.671,0,0,1,.409.22c.057.038.113.076.164.113s.233.183.1.069a1.243,1.243,0,0,0,.787.4.826.826,0,0,0,.737-.359.9.9,0,0,0-.025-.882,1.686,1.686,0,0,0-.567-.485,7.152,7.152,0,0,0-1.813-.793,6.046,6.046,0,0,0-2.229-.183.775.775,0,0,0-.755.756.766.766,0,0,0,.755.756h0Z" transform="translate(-1199.482 -398.582)" fill="#010d3d"/><path id="Trazado_7596" data-name="Trazado 7596" d="M1247,489.673a43.475,43.475,0,0,1-2.475,8.545c-.3.749-.63,1.48-.957,2.216a2.017,2.017,0,0,0-.2,1.555,7.674,7.674,0,0,0,1.24,1.782,18.814,18.814,0,0,1,1.36,1.939.733.733,0,0,0,.995.264,15.192,15.192,0,0,1,4.087-1.9c1.316-.5,1.606-2.418,2.04-3.6.567-1.562,1.215-3.085,1.769-4.647a16.62,16.62,0,0,0,1.411-5.006.917.917,0,0,0-1.694-.46,17.714,17.714,0,0,0-1.442,4.521c-.4,1.467-.743,2.909-1.19,4.345-.239.762-.5,1.524-.756,2.279a5.652,5.652,0,0,1-.3.85c-.22.416-.479.453-.907.586a16.969,16.969,0,0,0-3.759,1.776l.882.113a17.953,17.953,0,0,1-1.366-1.719c-.441-.586-1.19-1.247-1.008-1.99a13.292,13.292,0,0,1,.762-1.744c.227-.554.466-1.159.674-1.744a38.815,38.815,0,0,0,1.763-7.7c.082-.6-.825-.882-.932-.258h0Z" transform="translate(-1188.578 -408.405)" fill="#010d3d"/><path id="Trazado_7597" data-name="Trazado 7597" d="M1242.427,513.409a12.65,12.65,0,0,1-3.193,1.82l.749.428a27.759,27.759,0,0,1-1.41-4.4,9.115,9.115,0,0,1-.157-2.109,15.3,15.3,0,0,1,.4-2.135.571.571,0,0,0-1.039-.435c-.825,1.31-.724,3.237-.491,4.7a20.571,20.571,0,0,0,1.58,4.842.612.612,0,0,0,.831.22c1.045-.737,2.191-1.3,3.23-2.065.51-.378.031-1.234-.5-.863h0Z" transform="translate(-1186.294 -414.693)" fill="#010d3d"/><path id="Trazado_7598" data-name="Trazado 7598" d="M1248.916,515.523a15.213,15.213,0,0,0,1.152,1.984c.359.56.661,1.341,1.279,1.662.818.422,1.637-.453,2.3-.825s1.329-.775,1.977-1.184,1.285-.844,1.908-1.291,1.48-.724,1.719-1.524a5.15,5.15,0,0,0-.271-2.4,6.322,6.322,0,0,0-.812-2.387.4.4,0,0,0-.724.094c-.4,1.278,0,2.7.076,4.011.025.51-.372.768-.762,1.045-.535.384-1.077.756-1.631,1.108s-1.07.667-1.618.976a14.181,14.181,0,0,1-1.719.793q.283.095.132,0c-.057-.038-.113-.082-.17-.12-.114-.082-.221-.176-.328-.264a3.993,3.993,0,0,1-.649-.655,11.7,11.7,0,0,1-.963-1.562c-.309-.6-1.171-.076-.9.529h0Z" transform="translate(-1190.641 -415.831)" fill="#010d3d"/><path id="Trazado_7599" data-name="Trazado 7599" d="M1269.989,804.129a.69.69,0,0,0,0-1.379.69.69,0,0,0,0,1.379Z" transform="translate(-1198.22 -524.475)" fill="#010d3d"/><g id="Grupo_4807" data-name="Grupo 4807" transform="translate(11.16 280.643)"><path id="Trazado_7600" data-name="Trazado 7600" d="M1192.916,808.19c-2.6,2.815-6.788,3.5-10.623,3.362a13.826,13.826,0,0,0-3.268.088,3.663,3.663,0,0,0-2.613,1.788,3.5,3.5,0,0,0,1.272,4.124,8.166,8.166,0,0,0,4.414,1.341,26.525,26.525,0,0,0,16.038-4.036c1.492,1.215,3.753,2.078,5.245.863a3.352,3.352,0,0,0,1-3.1,8.8,8.8,0,0,0-1.316-3.123,2.353,2.353,0,0,0-.926-1.02,2.421,2.421,0,0,0-1.184-.126l-8.494.5" transform="translate(-1174.873 -807.132)" fill="#010d3d"/><path id="Trazado_7601" data-name="Trazado 7601" d="M1191.728,807.121c-2.027,1.99-5.163,2.626-7.928,2.582-3.016-.05-6.876-.938-8.923,1.965s.453,6.02,3.123,7.04a14.511,14.511,0,0,0,4.7.724,28.127,28.127,0,0,0,4.9-.3,27.127,27.127,0,0,0,10.415-3.816l-1.517-.2c1.713,1.354,4.049,2.418,6.2,1.4s2.67-3.765,1.977-5.894a9.991,9.991,0,0,0-1.681-3.079,2.708,2.708,0,0,0-1.486-.995,5.139,5.139,0,0,0-1.9.2,39.121,39.121,0,0,1-3.942.183,13.271,13.271,0,0,0-4.175.453.873.873,0,0,0,0,1.669c1.857.46,3.948,0,5.843-.145a13.32,13.32,0,0,1,2.827-.126c.837.126,1.045.743,1.41,1.442.548,1.052,1.36,2.783.346,3.828-.957.989-2.8-.05-3.639-.712a1.3,1.3,0,0,0-1.518-.2c-4.754,3-10.774,4.76-16.416,3.923a4.519,4.519,0,0,1-3.35-1.7,1.81,1.81,0,0,1,.422-2.626c1.184-.762,2.8-.529,4.137-.485a16.672,16.672,0,0,0,3.86-.416,14.586,14.586,0,0,0,3.923-1.234,11.833,11.833,0,0,0,3.287-2.613c.529-.6-.3-1.455-.881-.882h0Z" transform="translate(-1174.127 -806.51)" fill="#010d3d"/></g><g id="Grupo_4808" data-name="Grupo 4808" transform="translate(69.786 279.5)"><path id="Trazado_7602" data-name="Trazado 7602" d="M1269.256,806.11a17.082,17.082,0,0,0-.359,5.4,6.819,6.819,0,0,0,.819,2.928,3.181,3.181,0,0,0,2.462,1.618,2.09,2.09,0,0,0,2.172-1.738,25.285,25.285,0,0,0,8.526,5.629c3.243,1.121,7.078,1.014,9.836-1.02a1.917,1.917,0,0,0,.623-.649,1.729,1.729,0,0,0-.094-1.461c-.9-1.965-3.224-2.739-5.283-3.406-3.463-1.127-7.147-2.8-8.652-6.108-.176-.384-.371-.831-.781-.938a1.35,1.35,0,0,0-.718.094,12.607,12.607,0,0,1-4.773.51c-1.272-.107-2.645-.39-3.759.239l.837,4.093" transform="translate(-1267.821 -805.219)" fill="#010d3d"/><path id="Trazado_7603" data-name="Trazado 7603" d="M1268.037,805.416c-.737,2.9-1.524,6.826.39,9.458a4.036,4.036,0,0,0,3.57,1.8,3.179,3.179,0,0,0,2.9-2.563l-1.965.516c2.934,2.538,6.2,5.107,10.012,6.12a13.758,13.758,0,0,0,5.459.309,9.052,9.052,0,0,0,4.918-2.1c1.53-1.467.422-3.684-.907-4.848a15.357,15.357,0,0,0-4.5-2.38c-2.928-1.215-6.209-2.279-7.915-5.182-.541-.926-1.033-1.965-2.311-1.845a10.485,10.485,0,0,0-1.555.523,8.92,8.92,0,0,1-1.706.252c-2.229.107-4.464-1.007-6.4.548a.9.9,0,0,0-.239.907c.453,1.31.768,2.67,1.19,3.992.183.579,1.178.516,1.108-.151-.132-1.366-.372-2.727-.466-4.093l-.686.9c1.581-.422,3.312.044,4.93-.1a21.105,21.105,0,0,0,2.512-.334,3.548,3.548,0,0,1,1.077-.208c-.176-.025-.088-.2.038.113.088.22.183.447.283.661,1.259,2.739,3.954,4.376,6.637,5.5,1.36.567,2.764.869,4.149,1.335a4.562,4.562,0,0,1,2.978,2.128c.3.693-.271.919-.818,1.247a7.781,7.781,0,0,1-2.185.888,9.991,9.991,0,0,1-4.546-.025c-3.721-.831-6.719-3.249-9.4-5.831-.573-.554-1.826-.4-1.965.516a.983.983,0,0,1-1.3.831,2.616,2.616,0,0,1-1.65-1.858,14.044,14.044,0,0,1-.378-6.7c.151-.812-1.052-1.171-1.259-.346h0Z" transform="translate(-1267.233 -804.695)" fill="#010d3d"/></g><path id="Trazado_7604" data-name="Trazado 7604" d="M1283.066,394.315a26.358,26.358,0,0,0-2-4.691,30.374,30.374,0,0,0-6.757-7.871c-2.67-2.374-5.484-4.616-8.381-6.712a75.206,75.206,0,0,0-10.6-6.4,1.147,1.147,0,0,0-1.662,1.272,18.418,18.418,0,0,1,.189,3.381,35.792,35.792,0,0,0-4.641-3.123,43.559,43.559,0,0,0-6.958-3.048,55.142,55.142,0,0,0-8.11-2.028c-2.852-.516-5.774-1.07-8.664-1.31a1.573,1.573,0,0,0-1.5,1.983,42.416,42.416,0,0,0,7.122,11.939c-.12-.044-.245-.076-.359-.113a27.177,27.177,0,0,0-3.69-.976,20.792,20.792,0,0,0-7.865.258,1.567,1.567,0,0,0-.686,2.607,31.84,31.84,0,0,0,9.042,5.516,9.915,9.915,0,0,1-5.182.787c-1.436-.126-2.046,1.807-1.133,2.739a52.555,52.555,0,0,0,7.506,6.536,1.466,1.466,0,0,0,2-.523l1.643-2.777.718-1.209c.12.252.246.5.359.749.353.724.712,1.448,1.064,2.179.749,1.549,1.518,3.1,2.273,4.66a1.548,1.548,0,0,0,2.8-.371c.315-2.009.649-4.024.97-6.039a23.249,23.249,0,0,0,6.1,9.061c.258.485.516.976.8,1.448a1.748,1.748,0,0,0,3.23-.875,6.143,6.143,0,0,0-.447-2.531,14.538,14.538,0,0,0,.39-4.849c-.019-.441-.044-.888-.063-1.335a62.731,62.731,0,0,0,4.855,10.528,1.734,1.734,0,0,0,.667.649,1.367,1.367,0,0,0,2.55-.68,12.749,12.749,0,0,0,2.431-4.867c.17.68.353,1.36.5,2.021l.995,4.5c.334,1.5.642,3.016.995,4.509a3.88,3.88,0,0,0,2.279,3.016c2.078.718,4.244-.775,5.68-2.468,1.977.113,4.326-1.581,5.535-3.041a18.942,18.942,0,0,0,6.29-7.273c.73-1.7.258-3.551-.271-5.239Z" transform="translate(-1179.229 -361.916)" fill="#010d3d"/></g></g></svg>