<svg xmlns="http://www.w3.org/2000/svg" width="373.484" height="511.717" viewBox="0 0 373.484 511.717">
  <g id="IICE_LandingCompliancePenal_Nivel1_3" transform="translate(-656.589 -206.103)">
    <g id="Grupo_4673" data-name="Grupo 4673" transform="translate(635.056 123.4)">
      <g id="Grupo_4643" data-name="Grupo 4643" transform="translate(21.533 286.96)">
        <g id="Grupo_4635" data-name="Grupo 4635" transform="translate(22.944 237.07)">
          <path id="Trazado_6945" data-name="Trazado 6945" d="M702.631,891.569a6.412,6.412,0,0,1,1.731-3.584,9.558,9.558,0,0,1,3.206-1.774,17.161,17.161,0,0,0,4.439-2.223c.028-.028.121-.085.3-.235.135-.121.278-.235.413-.371.3-.264.584-.549.862-.834a16.11,16.11,0,0,0,1.411-1.724,33.446,33.446,0,0,0,2.586-4.389c1.575-3.107,2.907-6.341,4.66-9.355,1.909-3.306,4.439-6.37,7.959-8.016a1.589,1.589,0,0,1,2.138.556,7.152,7.152,0,0,1,.534,1.553.727.727,0,0,1,1.282.613,47.023,47.023,0,0,1-3.819,10.737,53.185,53.185,0,0,1-6.37,9.5,50.824,50.824,0,0,1-8.18,8.051c-2.729,2.066-6.242,3.734-8.051,6.776-1.233,2.073-.349,4.446-.114,6.662a5.811,5.811,0,0,1-1.966,5.451.994.994,0,0,1-1.453-.591c-.15-.634-.378-1.24-.549-1.86-.207-.72-.321-1.468-.542-2.18a12.622,12.622,0,0,1-.534-1.838c-.128-.791-.221-1.582-.306-2.373a30.144,30.144,0,0,1,.378-8.543Z" transform="translate(-702.114 -858.877)" fill="#fff"/>
          <path id="Trazado_6946" data-name="Trazado 6946" d="M777.661,913.76c.328-3.228.648-6.441.855-9.669.214-3.178.5-6.348.591-9.533.021-.684.05-1.382.078-2.073a2.671,2.671,0,0,1-.264-.9,52.949,52.949,0,0,1-.114-10.3,20.126,20.126,0,0,1,.313-2.772c.078-.328.178-.641.278-.962,0-.036-.014-.064-.014-.1a18.808,18.808,0,0,1,1.09-6.94c.143-.52.278-1.033.435-1.546a28.185,28.185,0,0,1,1.51-4.047,5.688,5.688,0,0,1,1.938-2.529c1.988-1.268,4.5.093,5.408,2.045,1.2,2.572-.071,5.629-.691,8.194a156.116,156.116,0,0,0-3.249,17.549,120.972,120.972,0,0,0-1.211,17.727c.086,3.776.812,7.859,2.857,11.051a28.9,28.9,0,0,0,2.373,2.736h0a3.905,3.905,0,0,0,.371.221,2.292,2.292,0,0,1,.57.492c.221.15.427.3.663.435a.859.859,0,0,1-.385,1.582,1.839,1.839,0,0,1-2.33,1.3,29.215,29.215,0,0,1-7.588-4A23.23,23.23,0,0,1,777.84,919c-.755-.819-.542-1.76-.435-2.757.093-.834.185-1.667.264-2.494Z" transform="translate(-723.728 -859.743)" fill="#fff"/>
        </g>
        <path id="Trazado_6947" data-name="Trazado 6947" d="M774.969,940.476a.8.8,0,0,1,1.147-.47,55.169,55.169,0,0,0,9.248,4.945,20.487,20.487,0,0,0,4.9,1.254,16.289,16.289,0,0,0,1.952.1,10.728,10.728,0,0,1,3.755-.221.79.79,0,0,1,.655.606c1.354.121,2.715.235,4.068.342.007-.029.021-.057.029-.086.363-.955,1.9-.57,1.56.427a.846.846,0,0,0-.036.1.793.793,0,0,1,.014.77,4.537,4.537,0,0,1-1.161,1.5,1.446,1.446,0,0,1-.734.705,16.68,16.68,0,0,1-11.692.107,18.1,18.1,0,0,1-5-2.9c-.883-.691-2.152-2.024-3.413-2.266a2.992,2.992,0,0,1-2.665,1.888,3.337,3.337,0,0,1-2.971-2.223,5.971,5.971,0,0,1,.342-4.6Z" transform="translate(-699.923 -645.1)" fill="#010d3d"/>
        <path id="Trazado_6948" data-name="Trazado 6948" d="M698.67,909.76a4.076,4.076,0,0,0-.413-1.1c-.9-1.632-1.746-3.107-1.083-5.03.506-1.482,1.66-3.883,3.584-3.392a1.125,1.125,0,0,1,.777,1.368,18.523,18.523,0,0,0-.62,4.247,39.178,39.178,0,0,0-.093,4.09,26.582,26.582,0,0,0,1.112,7.745,5.163,5.163,0,0,0,1.411,2.294,10.6,10.6,0,0,0,1.8.955.725.725,0,0,1,.962.584,18.751,18.751,0,0,0,1.788,4.6c.534,1.019,1.731,2.643,1.062,3.84-1.439,2.572-5.693-2.608-6.6-3.734a17.293,17.293,0,0,1-2.294-3.9,14.253,14.253,0,0,1-1.4-4.446c-.05-.7.078-1.4.078-2.088,0-.748-.078-1.489-.057-2.244.014-.449.057-.9.085-1.347-.036-.591-.064-1.183-.085-1.767-.007-.228,0-.456,0-.684Z" transform="translate(-677.682 -633.678)" fill="#010d3d"/>
        <path id="Trazado_6949" data-name="Trazado 6949" d="M727.858,836.631a352.948,352.948,0,0,0,16.209-49.555c.242-2.993,2.344-12.184,4.866-11.885,4.589-.043,45.394-2.608,46.135-.37,0,1.988-1.311,11.628-1.4,13.616a111.866,111.866,0,0,1-12.8,52.9,2.024,2.024,0,0,1-2.237.912c-3.121-.869-6.242-.313-9.405-.036-5.016.2-42.971.278-41.382-5.593Z" transform="translate(-686.555 -597.378)" fill="#010d3d"/>
        <g id="Grupo_4636" data-name="Grupo 4636" transform="translate(7.109)">
          <path id="Trazado_6950" data-name="Trazado 6950" d="M758.9,565.732c3.641-2.793,4.189-8.073,3.612-12.626-.42-3.327-1.4-6.812-3.9-9.034s-6.918-2.544-8.97.114c.876-6.8-3.135-14.364-9.776-16.074-5.116-1.318-10.709,1.033-14.2,4.995s-5.116,9.277-5.593,14.535c-3.32-4.247-9.661-5.55-14.642-3.491s-8.457,7.032-9.312,12.355a21.944,21.944,0,0,0,3.712,15.354,10.313,10.313,0,0,0-13.025-.57c-2.878,2.273-4.3,5.949-4.959,9.555a22.467,22.467,0,0,0,1.325,13.616c1.988,4.19,5.971,7.574,10.574,8.087-6.384,2.743-10.816,9.89-9.711,16.751s8.194,12.4,15.034,11.165c-4.76,3.263-6.619,10.331-3.655,15.283s10.545,6.534,14.97,2.829c-2.964,3.085-2.166,8.386.477,11.749a14.183,14.183,0,0,0,23.89-2.522c.72,2.864,3.726,4.731,6.676,4.888a14.782,14.782,0,0,0,8.322-2.615,15.9,15.9,0,0,0,6.448-6.6c1.29-2.843,1.1-6.519-1.083-8.742a7.423,7.423,0,0,0,7.937-1.7,12.751,12.751,0,0,0,3.47-7.709,20.482,20.482,0,0,0-9.847-19.779c4.738-1.389,7.26-6.69,7.724-11.607a25.6,25.6,0,0,0-14.043-24.809,17.581,17.581,0,0,0,8.172-13.673" transform="translate(-680.317 -526.608)" fill="#00b2e3"/>
          <path id="Trazado_6951" data-name="Trazado 6951" d="M758.828,565.886c3.961-2.9,4.98-8.351,4.5-12.989-.52-4.959-2.358-10.823-7.852-12.12a7.023,7.023,0,0,0-7.154,2.045l2.166.9c.741-6.519-2.672-13.872-8.892-16.516-7.2-3.064-15.162.919-19.173,7.139a28.85,28.85,0,0,0-4.061,12.825l2.18-.9c-4.033-5.066-11.671-6.177-17.285-3.249-6.113,3.185-9.426,10.224-9.063,16.951a22.461,22.461,0,0,0,4.19,12.006l1.831-1.411a12.215,12.215,0,0,0-9.59-2.551,11.471,11.471,0,0,0-8.094,6.142,24.472,24.472,0,0,0-2.636,11.464,19.978,19.978,0,0,0,3.292,11.457,14.649,14.649,0,0,0,10.118,6.3l-.655-2.423a17.84,17.84,0,0,0-10.068,13.8,14.858,14.858,0,0,0,6.947,14.649,13.218,13.218,0,0,0,9.434,1.8l-.969-2.294a13.545,13.545,0,0,0-5.387,13.6,11.427,11.427,0,0,0,10.509,8.871,9.563,9.563,0,0,0,7.631-2.465l-1.81-1.4a10.3,10.3,0,0,0-1.689,7.724,12.869,12.869,0,0,0,4.182,7.4A15.217,15.217,0,0,0,728.262,665a15.7,15.7,0,0,0,7.125-7.039l-2.3-.3a7.988,7.988,0,0,0,5.1,5.116,11.385,11.385,0,0,0,8.03-.221,23.122,23.122,0,0,0,7.31-4.517,12.646,12.646,0,0,0,4.068-6.641,8.956,8.956,0,0,0-2.038-8.03l-1.518,1.967a8.535,8.535,0,0,0,8.194-.869,12.41,12.41,0,0,0,4.809-7.716A21.691,21.691,0,0,0,756.9,613.93l-.314,2.387c6.185-1.924,8.721-8.864,8.764-14.806a27.1,27.1,0,0,0-6.462-17.428,25.392,25.392,0,0,0-8.336-6.519v2.159a18.964,18.964,0,0,0,6.156-6.313,18.641,18.641,0,0,0,2.444-8.436c.093-1.361-2.023-1.354-2.116,0a16.833,16.833,0,0,1-2.458,7.189,16.584,16.584,0,0,1-5.294,5.4,1.258,1.258,0,0,0,0,2.159c9.79,4.8,16.38,17.385,12.369,28.037-1.012,2.686-2.935,5.173-5.757,6.042a1.322,1.322,0,0,0-.314,2.387,19.171,19.171,0,0,1,8.493,10.794c1.4,4.5,1.446,10.331-1.76,14.043-1.646,1.91-4.531,3.192-7,2.13a1.258,1.258,0,0,0-1.518,1.967,6.675,6.675,0,0,1,1.04,6.819c-.94,2.608-3.185,4.6-5.436,6.085-2.465,1.625-5.372,3.114-8.408,2.992a5.768,5.768,0,0,1-5.465-4.04,1.272,1.272,0,0,0-2.3-.3,13.148,13.148,0,0,1-12.048,7.253c-5.052-.192-10.061-3.249-11.657-8.03a9.075,9.075,0,0,1-.47-3.876,4.685,4.685,0,0,1,1.71-3.135,1.155,1.155,0,0,0-1.4-1.81,9.7,9.7,0,0,1-10.745.178c-3.534-2.273-4.539-6.655-3.37-10.538a10.522,10.522,0,0,1,4.019-5.664,1.261,1.261,0,0,0-.969-2.294c-4.688.741-9.6-2.13-12.034-6.042a12,12,0,0,1-1.8-7.089,13.687,13.687,0,0,1,2.636-6.925,15.513,15.513,0,0,1,6.548-5.387,1.357,1.357,0,0,0,.955-1.254,1.3,1.3,0,0,0-.955-1.254c-6.79-.94-10.965-6.982-11.578-13.5-.563-5.921.741-15.005,7.36-17.143a8.866,8.866,0,0,1,9.134,2.038A1.17,1.17,0,0,0,700.4,570.8a25.709,25.709,0,0,1-3.505-9.312,16.976,16.976,0,0,1,1.183-9.035c2.287-5.151,7.246-8.835,13.017-8.351a10.984,10.984,0,0,1,7.638,3.983c.77.955,2.095.071,2.18-.9.62-6.762,3.335-13.894,9.654-17.214a12.1,12.1,0,0,1,9.255-1.026,11.637,11.637,0,0,1,6.22,5.337,15.074,15.074,0,0,1,1.9,9.448,1.279,1.279,0,0,0,2.166.9,4.805,4.805,0,0,1,5.878-.891c2.394,1.161,3.677,3.833,4.339,6.284,1.275,4.731,1.767,11.25-2.351,14.763-.606.513.207,1.589.855,1.112h0Z" transform="translate(-679.89 -526.149)" fill="#00b2e3"/>
        </g>
        <path id="Trazado_6952" data-name="Trazado 6952" d="M761.707,676.187a1.914,1.914,0,0,0,.285.677,1.871,1.871,0,0,0,.834.7c.228.42.449.848.677,1.268.677,1.268,1.347,2.529,2.016,3.8,1.347,2.529,2.715,5.052,4.133,7.545a99.873,99.873,0,0,0,9.576,14.193,2.1,2.1,0,0,0,2.081.848,2.011,2.011,0,0,0,1.6-1.553,39.4,39.4,0,0,0-.385-8.137c-.292-2.508-.656-5.009-1.1-7.488a135.882,135.882,0,0,0-3.05-13.367,17.713,17.713,0,0,0-.62-2.016,2.137,2.137,0,0,0,.57-1.525,2.086,2.086,0,0,0-2.152-1.909c-3.356-.071-6.185,1.553-9.1,2.971a2.1,2.1,0,0,0-1.368-.52,10.592,10.592,0,0,0-3.869.755,2.035,2.035,0,0,0-.143,3.762Z" transform="translate(-695.959 -567.281)" fill="#f5b9cd"/>
        <path id="Trazado_6953" data-name="Trazado 6953" d="M835.239,625.455a16.426,16.426,0,0,0-6.427-4.581,15.44,15.44,0,0,0-7.959-.755,1.966,1.966,0,0,0-1.61,1.119c-.128.093-.256.185-.378.292-1.71,1.439-2.665,3.862-3.363,5.914a25.061,25.061,0,0,0-1.218,6.79,1.4,1.4,0,0,0,.314.933,5.352,5.352,0,0,0-.691.435,1.783,1.783,0,0,0-1.625,1.261c-1.817,5.821-2.4,12.084-5.03,17.642a19.952,19.952,0,0,1-10.082,9.74,33.138,33.138,0,0,1-14.385,2.586,29.965,29.965,0,0,1-7.994-1.176,19.853,19.853,0,0,1-7.139-4.467c-2.444-2.123-4.859-4.282-7.289-6.42-1.19-1.055-2.3-1.9-3.983-1.625a48.386,48.386,0,0,0-4.788,1.282,1.258,1.258,0,0,0-.77,1.568,86.9,86.9,0,0,1,3.684,18.746,123.246,123.246,0,0,1,.577,13.951q-4.425-5.942-8.415-12.191-2.661-4.19-5.123-8.493c-.826-1.468-1.639-2.928-2.437-4.41s-2.045-2.708-2.786-4.218c-.207-.442-.741-.883-1.261-.627-2.195,1.069-4.432,2.123-6.519,3.4a2.769,2.769,0,0,0-.805.221l-8.443,3.7a35.313,35.313,0,0,0-7.3,3.961,31.709,31.709,0,0,0-5.949,6.17c-1.7,2.223-3.37,4.517-4.852,6.89a50.244,50.244,0,0,0-3.733,8.1,49.972,49.972,0,0,1-3.876,7.389,57.514,57.514,0,0,0-6.334,15.6c-.791,3.042-1.5,6.113-2.351,9.141-.128.442-.264.876-.392,1.318a89.481,89.481,0,0,0-11.372,5.971c-.827.534-.606,2.195.556,2.045,1.6-.2,3.192-.42,4.788-.648a42.525,42.525,0,0,1-4.788,4.1,1.1,1.1,0,0,0,.841,2,30.641,30.641,0,0,0,5.408-1.5c-.15.192-.3.385-.449.57a2.389,2.389,0,0,0-.349.591c-.178.214-.356.42-.534.634-1.254,1.468.727,3.57,2.059,2.373a10.441,10.441,0,0,0,3.513-3.477c.271-.413,2.658-1.475,3.107-2.365a13.443,13.443,0,0,1,1.432-2.237c.157-.385.313-.769.477-1.154.278-.641.591-1.275.855-1.917.285-.691.52-1.4.777-2.1a1.058,1.058,0,0,1,.534-.6,225.613,225.613,0,0,1,12.255-21.6c1.56-2.366,3.171-4.7,4.788-7.025a63.75,63.75,0,0,1,4.418-6.071,25.175,25.175,0,0,1,3.648-3.213c1.71-3.007,4.6-5.415,7.211-7.481,1.062-.841,2.9-.713,3.249.855.862,3.9,1.2,7.923,2.38,11.763a21.116,21.116,0,0,0,2.066,4.66,12.892,12.892,0,0,1,1.582,3.962,21.043,21.043,0,0,1-.371,9.013c-1.261,5.5-3.848,10.581-5.344,16-.121,1.261-.314,2.529-.385,3.783-.121,2.173-.143,4.368-.371,6.534a1.562,1.562,0,0,0,1.589,1.852,26.45,26.45,0,0,1,2.708-.043c.9.043,1.824.15,2.729.121,1.738-.05,3.491-.185,5.237-.285l9.291-.492c2.779-.15,5.721-.107,8.393-1.026a8.559,8.559,0,0,0,4.952-4.667,13.327,13.327,0,0,1,2.266-3.791c.235.328.484.641.727.969.449.62.784,1.325,1.176,1.995a31.181,31.181,0,0,0,2.836,3.855.923.923,0,0,0,1.026.349c3.156-1.1,6.327-2.166,9.469-3.32a.847.847,0,0,0,.577-.648,41.891,41.891,0,0,0-1.247-14.108q-2.875-12.59-6.648-24.952a14.905,14.905,0,0,1-.663-3.035,18.592,18.592,0,0,1,.271-3.014c.2-2.1-.748-3.734-1.717-5.515q-2.779-5.077-5.557-10.167a5.6,5.6,0,0,1,3.221,1.468,29.872,29.872,0,0,0,4.539,3.128c3.05,1.518,6.5,1.959,9.84,2.351,3.8.449,7.681.9,11.493.192a23.762,23.762,0,0,0,10.7-5.536.929.929,0,0,0,1.176.192,25.654,25.654,0,0,0,5.885-5.137,45.217,45.217,0,0,0,6.833-12.569c2.152-5.465,3.947-11.087,5.885-16.63a1.389,1.389,0,0,0-1.062-1.639,1.355,1.355,0,0,0-.8.071c-.021-.036-.05-.078-.071-.114a1.573,1.573,0,0,0,.648-.663c.135-.257.278-.513.406-.77a4.2,4.2,0,0,1,.912-1,1.711,1.711,0,0,0,1.539.791,4.456,4.456,0,0,0,1.468-.313,2.422,2.422,0,0,0,1.012.064,2.831,2.831,0,0,0,2.8,1.738A3.121,3.121,0,0,0,833,634.077c-.214-1.553-1.126-2.978-1.012-4.6.064-.9.705-2.066,1.76-1.845,1.119.228,2.33-1.2,1.489-2.18Zm-7.417,6.313a3.041,3.041,0,0,1,.891-2.308,9.833,9.833,0,0,0,.093,2.743A4.346,4.346,0,0,0,827.822,631.768Z" transform="translate(-670.695 -553.107)" fill="#fff"/>
        <path id="Trazado_6954" data-name="Trazado 6954" d="M870.752,635.123a51.859,51.859,0,0,1,1.881-6.063,16.849,16.849,0,0,1,2.765-4.938,10.008,10.008,0,0,1,4.368-3.185,8.329,8.329,0,0,1,2.608-.492,8.916,8.916,0,0,1,1.446.078,2.683,2.683,0,0,0,1.318.071.638.638,0,0,0,.378-.933c-.549-.8-1.76-.941-2.665-1.012a9.067,9.067,0,0,0-3.121.342,11.126,11.126,0,0,0-5.258,3.384,16.927,16.927,0,0,0-3.121,5.337,38.3,38.3,0,0,0-1.625,7.132c-.121.67.869.969,1.033.285h0Z" transform="translate(-727.355 -552.736)" fill="#010d3d"/>
        <path id="Trazado_6955" data-name="Trazado 6955" d="M723.642,600.969c2.066-1.411,4.553-.378,6.5.7a16.469,16.469,0,0,1,1.988,1.282l.9.328c.114.043.855.392.955.285a3.2,3.2,0,0,0-.043-.435,11.122,11.122,0,0,0-1.268-3.463,24.31,24.31,0,0,0-3.342-4.567c2.245-1.147,2.394-3.62,1.781-5.857a.763.763,0,0,0,.157-.385c2.807.014,5.55-.42,6.983-3.228a11.277,11.277,0,0,0,.955-6.455,5.159,5.159,0,0,0,1.938,1.6c3.37,1.553,5.75-1.867,6.633-4.638a19.537,19.537,0,0,0,.955-6.591,13.9,13.9,0,0,0,2.444,2.565,4.945,4.945,0,0,0,4.781,1.04,7.869,7.869,0,0,0,4.09-4.332A11.925,11.925,0,0,0,760.97,563a52.922,52.922,0,0,1,2.665,4.667,1.127,1.127,0,0,0,.427.492,63.126,63.126,0,0,0,5.964,8.814,28.792,28.792,0,0,0,5.4,5.173c1.924,1.382,4.047,2.458,6.035,3.748a14.966,14.966,0,0,1,4.909,4.8,19.683,19.683,0,0,1,2.223,7.852,30.306,30.306,0,0,1-2.558,15.768,29.585,29.585,0,0,1-9.156,11.179,9.6,9.6,0,0,1-1.9,1.339.751.751,0,0,1-.534.071,15.415,15.415,0,0,1-6.348,3.655,18.305,18.305,0,0,1-2.7.542,4.129,4.129,0,0,0-2.166.713.987.987,0,0,1,.2.314c.67,1.9.321,3.819.157,5.729.093.712.178,1.411.242,2.116a5.89,5.89,0,0,1-.342,3.121c-.534,1.119-1.3,2.152-1.952,3.221a1.045,1.045,0,0,1-1.2.363,14.387,14.387,0,0,1-4.019-1.917,4.819,4.819,0,0,1-1.774-4.125,44.08,44.08,0,0,1,1.026-8.564,36.224,36.224,0,0,1-12.526-6.242,55.3,55.3,0,0,1-6.028-5.814c-.99-1.04-1.931-2.13-2.843-3.249-.463-.57-1-1.161-1.51-1.767a5.048,5.048,0,0,1-2.415.805c-2.244.107-3.9-1.055-5.365-2.672a12.6,12.6,0,0,1-3.156-5.835c-.427-2.166-.014-4.973,1.945-6.313Z" transform="translate(-684.762 -536.744)" fill="#fff"/>
        <path id="Trazado_6956" data-name="Trazado 6956" d="M764.332,562.464c.855,1.9,1.689,3.748,2.7,5.565s2.059,3.577,3.221,5.28a35.246,35.246,0,0,0,8.443,8.97,29.65,29.65,0,0,0,5.864,2.829,12.673,12.673,0,0,1,5.451,4.46,18.677,18.677,0,0,1,2.679,5.978,14.227,14.227,0,0,1,.463,2.943,31.091,31.091,0,0,1-.264,3.448,29.335,29.335,0,0,1-3.513,12.056,34.405,34.405,0,0,1-8.208,9.726c-6.363,5.237-15.034,8.386-23.256,6.434a26.311,26.311,0,0,1-11.236-6.028,37.43,37.43,0,0,1-4.631-4.93c-1.389-1.774-2.508-3.7-3.769-5.543a1.214,1.214,0,0,0-2.095,1.225,32.894,32.894,0,0,0,7.617,10.232,31.252,31.252,0,0,0,10.374,6.683c8.465,3.228,17.884,1.24,25.33-3.577,7.5-4.859,13.716-12.7,15.4-21.61a15.693,15.693,0,0,0,.071-6.641c-.549-2.116-.983-4.268-1.731-6.334a23.28,23.28,0,0,0-3.085-5.707,14.808,14.808,0,0,0-2.223-2.586,37.279,37.279,0,0,0-3.092-2.187c-1.033-.727-2.294-1.261-3.327-2.059-.933-.727-1.924-1.382-2.829-2.152a32.534,32.534,0,0,1-4.852-5.144,54.859,54.859,0,0,1-3.9-5.978c-.613-1.062-1.2-2.13-1.767-3.213s-1.268-2.166-1.888-3.27c-.727-1.29-2.529-.157-1.945,1.14h0Z" transform="translate(-688.929 -536.1)" fill="#010d3d"/>
        <path id="Trazado_6957" data-name="Trazado 6957" d="M731.482,628.011a2.121,2.121,0,0,1-1.86,1.9,4.9,4.9,0,0,1-3.491-.691,11.957,11.957,0,0,1-2.814-3.05,11.606,11.606,0,0,1-1.852-3.491,4.471,4.471,0,0,1,.221-3.363,5.17,5.17,0,0,1,2.073-2.031,3.938,3.938,0,0,1,3.406.057c.627.271,1.133.741,1.76,1a8.6,8.6,0,0,0,1.632.484.384.384,0,0,0,.477-.363c-.178-2.928-3.562-4.4-6.177-4.154a5.185,5.185,0,0,0-4.817,4.859,10.853,10.853,0,0,0,1.568,7.111,21.867,21.867,0,0,0,2.515,3.263,10.333,10.333,0,0,0,3.263,2.522,4.687,4.687,0,0,0,4.5-.256,4.248,4.248,0,0,0,2-3.8,1.2,1.2,0,0,0-2.4,0h0Z" transform="translate(-684.301 -551.488)" fill="#010d3d"/>
        <path id="Trazado_6958" data-name="Trazado 6958" d="M782.9,585.653l.677.862.328.42.171.214.043.05a1.249,1.249,0,0,0,.171.157.832.832,0,0,0,.314.185.675.675,0,0,0,.335.093.467.467,0,0,0,.2.021l.342-.043a.951.951,0,0,0,.442-.235.621.621,0,0,0,.235-.235,1.022,1.022,0,0,0,.235-.442,3.1,3.1,0,0,0,.05-.371l-.05-.349a1.691,1.691,0,0,0-.143-.328,2.481,2.481,0,0,0-.271-.342l-.192-.192-.392-.4-.777-.784a1.256,1.256,0,0,0-.862-.356.97.97,0,0,0-.47.107.948.948,0,0,0-.392.249,1.225,1.225,0,0,0-.356.862l.043.321a1.2,1.2,0,0,0,.314.534h0Z" transform="translate(-702.292 -542.66)" fill="#010d3d"/>
        <path id="Trazado_6959" data-name="Trazado 6959" d="M761.514,600.235a10.432,10.432,0,0,1,1.275,1.3.527.527,0,0,0,.086.093c.05.043.107.086.157.121a.871.871,0,0,0,.313.185,1.818,1.818,0,0,0,.228.085,1.226,1.226,0,0,0,.7,0,1.266,1.266,0,0,0,.534-.313c.029-.036.171-.214.192-.249a.852.852,0,0,0,.15-.47,1.193,1.193,0,0,0,.021-.192,1.489,1.489,0,0,0-.028-.249.922.922,0,0,0-.1-.363,1.165,1.165,0,0,0-.1-.214,4.693,4.693,0,0,0-.484-.584c-.107-.114-.214-.221-.321-.335-.249-.242-.506-.47-.77-.691a1.461,1.461,0,0,0-.926-.385,1.034,1.034,0,0,0-.506.114.915.915,0,0,0-.42.271,1.329,1.329,0,0,0-.385.926,1.252,1.252,0,0,0,.385.926h0Z" transform="translate(-696.137 -546.797)" fill="#010d3d"/>
        <g id="Grupo_4637" data-name="Grupo 4637" transform="translate(43.318 32.105)">
          <path id="Trazado_6960" data-name="Trazado 6960" d="M748.67,595.214c.492,3.648,3.035,6.847,5.892,9.02a8.8,8.8,0,0,0,5.045,2.052,7.51,7.51,0,0,0,4.71-1.667c3.114-2.43,3.641-6.384,2.786-10.039a15.563,15.563,0,0,0-2.344-5.109c-.492-.727-1.012-1.439-1.575-2.123-.47-.57-1.019-1.254-1.838-1.161a4.675,4.675,0,0,0-1.568.72c-.506.278-1.012.556-1.518.841-1.1.627-2.159,1.339-3.228,2.031q-3.206,2.073-6.356,4.239c-1.119.769-.078,2.6,1.076,1.838,3.035-2,6.149-3.969,9.056-6.149.663-.5,1.311-1.012,1.959-1.525a2.992,2.992,0,0,1,.534-.427l.093-.157.171.249a5.653,5.653,0,0,1,.805,1.1,19.209,19.209,0,0,1,2.309,4.147c1.09,2.8,1.161,6.227-.805,8.685a5.731,5.731,0,0,1-3.427,2.08,5.53,5.53,0,0,1-3.983-1.147c-2.943-1.981-4.589-4.909-6.327-7.887-.363-.627-1.582-.413-1.475.4h0Z" transform="translate(-735.737 -575.512)" fill="#343d64"/>
          <path id="Trazado_6961" data-name="Trazado 6961" d="M743.934,599.734a5.339,5.339,0,0,0-1.845,1.2c-.577.492-1.161,1-1.7,1.532-1.147,1.126-2.251,2.308-3.377,3.463s-2.195,2.237-3.292,3.363a18.732,18.732,0,0,0-1.568,1.71c-.47.613-1.247,1.2-1.418,1.966a.8.8,0,0,0,.969.969c.741-.157,1.29-.883,1.881-1.332a18.37,18.37,0,0,0,1.717-1.553c1.147-1.133,2.273-2.287,3.392-3.449s2.195-2.244,3.235-3.42c.506-.577.983-1.176,1.446-1.788a5.7,5.7,0,0,0,1.183-2.045.5.5,0,0,0-.613-.613h0Z" transform="translate(-730.709 -579.405)" fill="#343d64"/>
          <path id="Trazado_6962" data-name="Trazado 6962" d="M769.315,587.626a6.84,6.84,0,0,1,.335-.641c.057-.107.121-.214.185-.321.021-.028.078-.135.107-.15l-.064.085s.05-.064.078-.093a3.046,3.046,0,0,1,.256-.271c.021-.021.128-.128.143-.121l-.093.071c.05-.036.1-.071.15-.114s.1-.078.15-.114h0l.078-.057a3.494,3.494,0,0,1,.321-.2c.1-.057.207-.107.306-.157a1.833,1.833,0,0,0,.171-.078c-.2.143-.1.043-.014.014a2.944,2.944,0,0,1,.356-.107,1.932,1.932,0,0,0,.363-.078c-.2.078-.164.021-.029.007a1.618,1.618,0,0,0,.185-.014c.121,0,.249,0,.37.007.1.007.228.078-.036-.007.05.014.107.014.15.029a1.548,1.548,0,0,0,.827.036,1.037,1.037,0,0,0,.449-1.71,1.978,1.978,0,0,0-1.4-.435,4.878,4.878,0,0,0-1.019.085,4.441,4.441,0,0,0-1.717.684A3.968,3.968,0,0,0,768,587.284a.734.734,0,0,0,.52.684.7.7,0,0,0,.8-.328h0Z" transform="translate(-741.427 -574.658)" fill="#343d64"/>
          <path id="Trazado_6963" data-name="Trazado 6963" d="M774.464,579.681a29.822,29.822,0,0,0,2.565,3.335c.891,1.062,1.867,2.237,2.864,3.292,1.717,1.8,3.769,3.256,6.377,2.928a6.382,6.382,0,0,0,5.187-4.268c.891-2.465.043-4.973-1.1-7.2a17.739,17.739,0,0,0-5.451-6.405,1.09,1.09,0,0,0-1.461.385,6.432,6.432,0,0,1-2.665,1.532,23.714,23.714,0,0,0-3.278,1.753,19.034,19.034,0,0,0-2.85,2.13c-.834.805-.791,2.472.57,2.715,1.5.264,2.138-2.038.634-2.294l.527.477v.634c-.157.392.007.093.228-.093.171-.143.349-.285.527-.427.392-.306.8-.6,1.211-.884.791-.542,1.617-1.054,2.458-1.525,1.589-.891,3.342-1.446,4.475-2.95l-1.674.214a21.523,21.523,0,0,1,4.76,6.042c1.1,2.187,1.8,4.938-.271,6.826a3.868,3.868,0,0,1-3.114.976,5.809,5.809,0,0,1-3.078-1.867,58.28,58.28,0,0,0-6.619-6.177c-.506-.363-1.14.342-.834.834h0Z" transform="translate(-743.184 -571.208)" fill="#343d64"/>
        </g>
        <path id="Trazado_6964" data-name="Trazado 6964" d="M771.85,587.012c3.833,2.373,7.56,4.931,11.336,7.4,1.86,1.225,3.691,2.5,5.515,3.783s3.7,2.736,5.672,3.848l-.264-2.052a10.994,10.994,0,0,1-5.5,3.171,26.011,26.011,0,0,1-6.405.826.524.524,0,0,0-.264.969,10.035,10.035,0,0,0,7.36.705,17.646,17.646,0,0,0,6.662-3.826,1.305,1.305,0,0,0,0-1.845c-3.555-2.8-7.745-4.9-11.621-7.2s-7.959-4.467-11.984-6.626a.49.49,0,0,0-.492.848h0Z" transform="translate(-699.155 -543.385)" fill="#010d3d"/>
        <path id="Trazado_6965" data-name="Trazado 6965" d="M775.223,661.889c-.043,1.347-.093,2.686-.164,4.033a22.661,22.661,0,0,1-.278,3.812,4.967,4.967,0,0,1-.5,1.468,12.277,12.277,0,0,1-.969,1.3,17.308,17.308,0,0,0-2.18,2.829l.8-.321a6.911,6.911,0,0,1-1.6-1.112c-.52-.392-1.026-.812-1.525-1.233a20.854,20.854,0,0,1-2.693-2.565l.192.727a89.858,89.858,0,0,1,2.009-9.391.876.876,0,0,0-1.689-.463,48.039,48.039,0,0,0-1.753,9.248c-.071.884.392,1.069,1.012,1.617.563.506,1.126,1,1.71,1.482s1.176.941,1.774,1.4a11.452,11.452,0,0,1,1.881,1.461.72.72,0,0,0,.855.107,9.6,9.6,0,0,0,2.779-2.586c.762-.919,1.774-1.981,1.625-3.263a17.084,17.084,0,0,1-.214-1.924v-2.3q0-2.159.036-4.318a.552.552,0,0,0-1.1,0h0Z" transform="translate(-697.212 -564.732)" fill="#010d3d"/>
        <path id="Trazado_6966" data-name="Trazado 6966" d="M842.041,640.941c-.57,3.042-1.632,5.964-2.5,8.935s-1.639,5.942-2.715,8.814a19.335,19.335,0,0,1-10.032,10.36c-5.059,2.4-10.994,2.772-16.466,1.945a19.523,19.523,0,0,1-7.98-2.722,32.5,32.5,0,0,1-5.714-5.258c-.976-1.055-1.952-2.116-2.985-3.121a8.883,8.883,0,0,0-3.548-2.423c-1.71-.492-3.441.135-5.066.656s-3.263,1.24-4.923,1.8c-1.339.456-.791,2.558.591,2.145,1.51-.449,3.057-.741,4.56-1.218,1.311-.42,3.021-1.282,4.4-.72a9.851,9.851,0,0,1,2.921,2.458c.941.962,1.845,1.959,2.765,2.943a30.757,30.757,0,0,0,6.021,5.273,21.709,21.709,0,0,0,8.422,2.786,32.345,32.345,0,0,0,17.492-1.845,22.4,22.4,0,0,0,11.158-10.11,51.531,51.531,0,0,0,3.271-9.726,65.5,65.5,0,0,0,1.81-10.759c.085-.834-1.318-1.026-1.475-.2h0Z" transform="translate(-701.373 -559.003)" fill="#010d3d"/>
        <path id="Trazado_6967" data-name="Trazado 6967" d="M848.637,641.779a80.018,80.018,0,0,0,10.595,3.691l-.805-.805a9.637,9.637,0,0,1-.591,4.083c-.435,1.425-.948,2.822-1.439,4.225-.948,2.715-1.931,5.415-2.914,8.115a44.571,44.571,0,0,1-3.228,7.367,30.412,30.412,0,0,1-4.866,6.113,32.6,32.6,0,0,1-12.12,8.115,29.4,29.4,0,0,1-16.2.463,48.284,48.284,0,0,1-8.678-2.893c-2.765-1.225-5.358-2.836-8.144-3.983-1.161-.477-1.7,1.275-.805,1.9a44.068,44.068,0,0,0,7.674,3.94,57.385,57.385,0,0,0,8.044,2.964,32.141,32.141,0,0,0,17.321.221,33.99,33.99,0,0,0,13.231-7.923,37.324,37.324,0,0,0,5.4-6.063,34.755,34.755,0,0,0,3.705-7.531c1.183-3.178,2.273-6.391,3.377-9.59.542-1.568,1.119-3.135,1.6-4.717a22.544,22.544,0,0,0,.9-5.094,1.119,1.119,0,0,0-.57-.99,82.265,82.265,0,0,0-10.809-4.018c-1.553-.52-2.159,1.86-.67,2.43h0Z" transform="translate(-707.022 -558.679)" fill="#010d3d"/>
        <path id="Trazado_6968" data-name="Trazado 6968" d="M794.549,686.355c.969,2.187,1.917,4.346,3.1,6.434a64.743,64.743,0,0,0,3.933,5.928c.634.884,1.29,1.753,1.952,2.622a9.635,9.635,0,0,1,1.632,2.636,5.286,5.286,0,0,1,0,2.807c-.221,1.112-.392,2.2-.513,3.327-.492,4.6,2.173,8.664,3.662,12.854a97.819,97.819,0,0,1,3.584,13.06c.52,2.544.955,5.1,1.354,7.667a47.064,47.064,0,0,0,1.589,7.574.835.835,0,0,0,1.632-.221c.214-4.61-.791-9.3-1.639-13.815a84.6,84.6,0,0,0-3.47-13.438,60.183,60.183,0,0,0-2.793-6.505c-.969-1.917-2.1-4.047-1.924-6.27a17.578,17.578,0,0,1,.976-3.235,8.658,8.658,0,0,0,.349-3.306c-.249-2.18-1.66-3.812-2.936-5.5q-2.394-3.174-4.524-6.527c-1.425-2.23-3.142-4.546-4.6-6.9a.805.805,0,0,0-1.389.812h0Z" transform="translate(-705.716 -571.863)" fill="#010d3d"/>
        <path id="Trazado_6969" data-name="Trazado 6969" d="M801.162,775.856a67.367,67.367,0,0,1-8.742,3.384c-.734.221-1.475.435-2.216.634l-.477.128c.342.292.356.257.057-.093l-.741-1c-1.019-1.389-1.995-2.807-2.978-4.225a1.247,1.247,0,0,0-2.123,0c-.919,1.518-1.717,3.114-2.622,4.638a7.477,7.477,0,0,1-1.183,1.881,4.537,4.537,0,0,1-2.116.577,55.135,55.135,0,0,1-10.167.72,98.155,98.155,0,0,0-9.954.335c-3.306.313-6.534.855-9.811.242-1.418-.264-2.038,1.86-.6,2.18,3.505.784,7.068.121,10.581-.214s7.218-.371,10.816-.52a65.491,65.491,0,0,0,10.631-1.161,4.284,4.284,0,0,0,2.009-.784,8.666,8.666,0,0,0,1.382-1.931c1.026-1.6,2.159-3.128,3.156-4.738h-2.123c1.154,1.653,2.3,3.313,3.406,5,.456.7.862,1.439,1.717,1.667a5.782,5.782,0,0,0,2.786-.427,60.593,60.593,0,0,0,10.588-4.1c1.475-.741.185-2.871-1.282-2.195h0Z" transform="translate(-691.98 -597.43)" fill="#010d3d"/>
        <path id="Trazado_6970" data-name="Trazado 6970" d="M748.219,766.428c.157-.449.427-.8.549-1.268.114-.435.178-.9.249-1.347.157-.962.278-1.931.4-2.9.228-1.81.427-3.62.691-5.422s.37-3.776.684-5.636.663-3.6,1.076-5.372.9-3.655,1.4-5.472,1.033-3.456,1.446-5.194a8.984,8.984,0,0,0-.121-4.988,27.785,27.785,0,0,0-2.095-4.353,34.509,34.509,0,0,1-2.159-5.508c-.313-.983-.57-1.988-.9-2.971a25.654,25.654,0,0,0-1.268-2.679.577.577,0,0,0-1.069.292,24.28,24.28,0,0,0,.157,2.487,21.783,21.783,0,0,0,.7,2.522,39.527,39.527,0,0,0,1.867,4.8c1.432,3.042,4.033,5.885,3.3,9.455a46.536,46.536,0,0,1-1.6,5.137c-.563,1.7-1,3.52-1.439,5.287s-.855,3.548-1.24,5.33-.926,3.527-1.2,5.322c-.306,1.981-.542,3.969-.777,5.964-.121,1.019-.249,2.031-.4,3.042-.071.513-.15,1.019-.214,1.532-.071.584.036,1.112,0,1.7-.078,1.183,1.61,1.275,1.959.264h0Z" transform="translate(-691.855 -579.88)" fill="#010d3d"/>
        <path id="Trazado_6971" data-name="Trazado 6971" d="M775.766,669.122c1.1,5.55,1.845,11.151,2.6,16.765q.556,4.147.9,8.315.171,2.063.271,4.14c.036.748.064,1.5.093,2.244s.171,1.5.185,2.244l1.653-.684c-3.734-4.425-6.7-9.533-9.825-14.393-.755-1.176-1.51-2.358-2.251-3.541s-1.667-2.244-2.423-3.413a40.533,40.533,0,0,1-3.84-7.709c-.228-.613-1.226-.349-.99.271a66.974,66.974,0,0,0,3.57,7.8c.656,1.24,1.119,2.544,1.867,3.741.8,1.275,1.61,2.544,2.423,3.812,3.221,4.995,6.3,10.217,10.1,14.8a.977.977,0,0,0,1.653-.684c-.007-.791.1-1.482.071-2.244s-.064-1.5-.107-2.244c-.078-1.382-.185-2.757-.306-4.14-.257-2.843-.62-5.686-1.04-8.507-.848-5.679-2.287-11.25-3.612-16.844-.15-.648-1.119-.371-.99.271Z" transform="translate(-696.416 -567.069)" fill="#010d3d"/>
        <path id="Trazado_6972" data-name="Trazado 6972" d="M774.541,682.328a6.147,6.147,0,0,0,2.779,2.622,3.8,3.8,0,0,0,2.145.4c.534-.086,1.525-.549,1.34-1.24a.377.377,0,0,0-.456-.257c-.221.036-.385.257-.577.371a1.2,1.2,0,0,1-.684.143,3.651,3.651,0,0,1-1.518-.506,5.14,5.14,0,0,1-2.095-2.088c-.335-.613-1.268-.064-.933.549h0Z" transform="translate(-699.972 -570.813)" fill="#010d3d"/>
        <path id="Trazado_6973" data-name="Trazado 6973" d="M773.19,682.065a1.289,1.289,0,0,1-.093,1.012,3.3,3.3,0,0,1-.819.983c-.256.235-.563.577-.891.591a6.255,6.255,0,0,1-.727-.064,1.794,1.794,0,0,0-.777.114.269.269,0,0,0-.064.484,2.039,2.039,0,0,0,.855.363,2.681,2.681,0,0,0,.983.064,2.946,2.946,0,0,0,1.361-.94,2.7,2.7,0,0,0,.933-3.049.447.447,0,0,0-.606-.157.455.455,0,0,0-.157.606h0Z" transform="translate(-698.599 -570.786)" fill="#010d3d"/>
        <g id="Grupo_4638" data-name="Grupo 4638" transform="matrix(0.819, -0.574, 0.574, 0.819, 61.63, 125.986)">
          <path id="Trazado_6974" data-name="Trazado 6974" d="M760.2,707.726s.428-.278.563-.37c.427-1.888.413-3.776,1.4-5.394.363-.591,1.133-1.7,1.553-2.358.071-.128.15-.256.228-.37a.467.467,0,0,0,.043-.086H764a2.369,2.369,0,0,1,.677-.663c.834-.484,1.66-.228,2.537.819.164.2.834.306.926.748a2.2,2.2,0,0,0-.62-.235,5.388,5.388,0,0,0-1.29.371c1.682,3.192-.513,5.992-1.4,8.45.029.171,1.112.549.876,1.169-.028.071-.078.114-.142.1-1.076-.178-1.617-.891-2.651-1.161-.9-.242-1.454.057-2.594-.442-.242-.107-.321-.435-.114-.563" transform="translate(-760.08 -698.248)" fill="#010d3d" fill-rule="evenodd"/>
          <path id="Trazado_6975" data-name="Trazado 6975" d="M765.832,701.248a1.042,1.042,0,0,0,0,.427c-.093,5.536-1.66,7.189-2.223,5.436-.178-.549-.6-.72-.72,1.625-.014.249.563.313.791.392.677.242.72.306,1.069.114.192-.107,2.408-4.161,1.888-6.769a8.827,8.827,0,0,0-.278-1.233.292.292,0,0,0-.527,0" transform="translate(-760.661 -699.059)" fill="#fff" fill-rule="evenodd"/>
          <path id="Trazado_6976" data-name="Trazado 6976" d="M762.9,699.353a.252.252,0,0,0,.171.278.18.18,0,0,0,.235-.157.252.252,0,0,0-.171-.278.181.181,0,0,0-.235.157" transform="translate(-757.257 -698.518)" fill="#fff"/>
        </g>
        <path id="Trazado_6977" data-name="Trazado 6977" d="M789.211,723.814l.4,1.019.192.492.1.242a3.254,3.254,0,0,0,.178.42,1.278,1.278,0,0,0,.819.613l.342.05a1.007,1.007,0,0,0,.5-.114.638.638,0,0,0,.285-.164,1.026,1.026,0,0,0,.335-.363,1.258,1.258,0,0,0,.107-1.147l-.093-.249-.192-.513-.385-1a1.011,1.011,0,0,0-.242-.456,1.205,1.205,0,0,0-.876-.5,1.048,1.048,0,0,0-.534.021,1.378,1.378,0,0,0-.8.613l-.135.321a1.344,1.344,0,0,0,0,.713h0Z" transform="translate(-704.196 -582.489)" fill="#010d3d"/>
        <path id="Trazado_6978" data-name="Trazado 6978" d="M792.933,735.986c.043.228.086.463.114.7L793,736.37a4.579,4.579,0,0,1,0,.542,3.925,3.925,0,0,0,.057.862,1.046,1.046,0,0,0,.235.449,1.008,1.008,0,0,0,.37.342l.314.135a.95.95,0,0,0,.527.021.625.625,0,0,0,.335-.093.974.974,0,0,0,.427-.271,1.346,1.346,0,0,0,.385-.933,3.531,3.531,0,0,0-.071-.542,2.013,2.013,0,0,0-.05-.221,4.088,4.088,0,0,0-.15-.413,2.909,2.909,0,0,1-.114-.427c-.036-.15-.078-.292-.128-.442a1.2,1.2,0,0,0-.527-.684,1.134,1.134,0,0,0-.883-.114,1.16,1.16,0,0,0-.684.527l-.114.271a1.119,1.119,0,0,0,0,.613h0Z" transform="translate(-705.268 -586.06)" fill="#010d3d"/>
        <path id="Trazado_6979" data-name="Trazado 6979" d="M794.973,748.074c.071.321.135.648.214.969l.114.47a1.78,1.78,0,0,0,.477.983,1.313,1.313,0,0,0,.577.335,1.266,1.266,0,0,0,.691,0,1.334,1.334,0,0,0,.912-.912,2.7,2.7,0,0,0-.249-1.575c-.107-.314-.221-.627-.335-.933a1.345,1.345,0,0,0-.57-.741.915.915,0,0,0-.463-.15.992.992,0,0,0-.5.021,1.269,1.269,0,0,0-.741.57l-.128.3a1.305,1.305,0,0,0,0,.663Z" transform="translate(-705.854 -589.499)" fill="#010d3d"/>
        <path id="Trazado_6980" data-name="Trazado 6980" d="M797.5,762.751c.093.442.164.883.221,1.325l-.05-.356c.014.086.021.178.036.264a.631.631,0,0,0,.014.121,1.765,1.765,0,0,0,.2.734l.207.264.264.207.313.135a.925.925,0,0,0,.52.021.585.585,0,0,0,.328-.093.613.613,0,0,0,.292-.171.621.621,0,0,0,.235-.235,1.048,1.048,0,0,0,.235-.449,1.519,1.519,0,0,0,.043-.563l-.021-.214q-.043-.4-.107-.791c-.043-.313-.1-.62-.157-.926a1.012,1.012,0,0,0-.242-.456,1.206,1.206,0,0,0-.876-.5,1.047,1.047,0,0,0-.534.021,1.377,1.377,0,0,0-.8.613l-.135.321a1.343,1.343,0,0,0,0,.713h0Z" transform="translate(-706.577 -593.681)" fill="#010d3d"/>
        <path id="Trazado_6981" data-name="Trazado 6981" d="M792.842,782.762c-.5,7.389-.741,14.784-1.6,22.152a108.666,108.666,0,0,1-1.689,11.129c-.819,3.669-1.739,7.139-2.829,10.645s-2.33,7.089-3.705,10.552c-.677,1.7-1.389,3.391-2.159,5.059-.371.8-.52,1.518-1.5,1.56s-1.938,0-2.907.014c-7.966.093-15.924-.057-23.876-.6-4.346-.292-8.714-.634-13.032-1.225a60,60,0,0,1-5.935-1.1,33.234,33.234,0,0,1-6.085-1.874l.5,1.225a378.06,378.06,0,0,0,14.043-41.168c1.076-3.94,2.109-7.88,3.035-11.856.385-1.653-2.159-2.365-2.551-.705a389.158,389.158,0,0,1-12.241,41.724c-1.382,3.84-2.85,7.645-4.375,11.429-.242.591.271,1.126.755,1.332a38.692,38.692,0,0,0,5.486,2.031,53.631,53.631,0,0,0,5.607,1.083c3.9.563,7.852.876,11.792,1.154q12.44.887,24.931.67a32.2,32.2,0,0,0,5.743-.306c1.845-.378,2.309-2.109,2.928-3.648,1.425-3.562,2.786-7.146,3.969-10.794s2.209-7.467,3.114-11.25,1.781-7.581,2.522-11.386a97.574,97.574,0,0,0,1.724-12.683,88.094,88.094,0,0,0,.036-13.153.852.852,0,0,0-1.7,0h0Z" transform="translate(-686.004 -599.691)" fill="#010d3d"/>
        <path id="Trazado_6982" data-name="Trazado 6982" d="M789.284,870.084a114.371,114.371,0,0,0-4.026,18.86,163.215,163.215,0,0,0-1.667,19.38c-.078,5.55,1.033,11.721,5.707,15.3a16.914,16.914,0,0,0,7.7,2.907c1.361.221,2.729.371,4.09.606a2.215,2.215,0,0,1,.484.093c-.078-.093-.064.235-.078.15a2.1,2.1,0,0,1-.2.876,3.63,3.63,0,0,1-1.475,1.51,9.157,9.157,0,0,1-5.08.919,21.8,21.8,0,0,1-9.776-2.772,8.21,8.21,0,0,1-3.47-3.078,1.077,1.077,0,0,0-1.681-.214c-1.04,1.154-2.722,3.028-4.41,1.9-1.489-1-1.475-3.021-1.04-4.553.542-1.931,1.489-3.719,2.066-5.643a32.186,32.186,0,0,0,1.176-5.935c.876-8.393-.577-16.822.135-25.23a88.869,88.869,0,0,1,2.764-14.642,1.25,1.25,0,0,0-2.408-.663c-3.164,9.027-3.5,18.782-3.071,28.237a89.461,89.461,0,0,1-.036,13.887,28.008,28.008,0,0,1-1.518,6.512c-.691,1.917-1.5,3.933-1.147,6.014a4.849,4.849,0,0,0,3.306,4.1c2.209.534,4.19-1.055,5.7-2.451l-1.681-.214c1.361,2.558,4.581,3.926,7.175,4.859a23.491,23.491,0,0,0,9.334,1.339c2.765-.164,5.522-1,6.8-3.691.534-1.126.819-2.651-.449-3.406a5.833,5.833,0,0,0-2.059-.477c-.777-.121-1.553-.242-2.33-.37-2.757-.47-5.721-1.119-7.859-3.057a13.044,13.044,0,0,1-3.833-7.2,42.1,42.1,0,0,1-.378-10.153c.114-3.377.314-6.89.613-10.331a133.466,133.466,0,0,1,3.919-22.971.669.669,0,0,0-1.29-.356h0Z" transform="translate(-699.332 -624.712)" fill="#010d3d"/>
        <path id="Trazado_6983" data-name="Trazado 6983" d="M731.493,867.9c-1.468,4.5-4.2,8.379-7.118,12.048-1.5,1.874-3.007,3.755-4.624,5.529a31.984,31.984,0,0,1-5.123,4.46c-1.853,1.34-3.712,2.508-5.515,3.84-1.674,1.24-3.755,2.672-4.8,4.51s-.755,4.418-.577,6.42a31.279,31.279,0,0,0,1.446,6.954,40.13,40.13,0,0,0,2.871,6.156c.427.826.691,1.959-.62,1.86a6.433,6.433,0,0,1-2.985-1.19c-3.726-2.579-4.9-7.5-5.707-11.678a10.322,10.322,0,0,1-.178-3.5c.2-1.268.9-2.38.5-3.691-.306-.99-1.218-1.589-1.739-2.444a4.8,4.8,0,0,1-.663-2.544c.021-2.13,1.582-3.235,3.477-3.783a39.639,39.639,0,0,0,5.892-1.881,21.736,21.736,0,0,0,10.061-10.082,51.818,51.818,0,0,1,3.919-6.79c.755-1.047,1.518-2.073,2.195-3.178a11.675,11.675,0,0,0,.855-1.546,6.243,6.243,0,0,0,.363-1.981c.071-.933-1.133-1.026-1.582-.427-1.418,1.888-2.693,3.89-4.083,5.807a49.162,49.162,0,0,0-3.791,6.491,22.474,22.474,0,0,1-3.848,5.607,18.505,18.505,0,0,1-5.408,3.812c-3.6,1.689-9.127,1.625-10.1,6.448a7.653,7.653,0,0,0,1.268,5.771c.214.306.748.72.834,1.069.107.477-.313,1.24-.442,1.7a10.466,10.466,0,0,0-.342,3.876,26.98,26.98,0,0,0,2.159,7.389,16.967,16.967,0,0,0,3.506,5.721,9.918,9.918,0,0,0,5.615,3.014,2.873,2.873,0,0,0,3.263-3.7,13.9,13.9,0,0,0-1.575-3.135,30.407,30.407,0,0,1-1.582-3.427,26.972,26.972,0,0,1-1.681-7.317,21.484,21.484,0,0,1-.086-3.384,4.653,4.653,0,0,1,1.838-3.135,45.571,45.571,0,0,1,5.721-4.382,43.991,43.991,0,0,0,6.049-4.71,68.988,68.988,0,0,0,5.515-6.527c3.306-4.168,6.391-8.6,7.9-13.758.2-.677-.826-.948-1.047-.285h0Z" transform="translate(-676.974 -623.45)" fill="#010d3d"/>
        <path id="Trazado_6984" data-name="Trazado 6984" d="M794.1,944.3c-1.1,1.546-3.669.67-5.144.285a32.273,32.273,0,0,1-4.268-1.432,29.878,29.878,0,0,1-8.009-5.066c-.869-.748-2.137.556-1.254,1.254a37.733,37.733,0,0,0,9.74,5.458,28.409,28.409,0,0,0,5.394,1.539c1.838.314,3.484.143,4.539-1.453.413-.627-.57-1.183-1-.584Z" transform="translate(-700.162 -644.516)" fill="#010d3d"/>
        <path id="Trazado_6985" data-name="Trazado 6985" d="M706.844,918.81c-1.5-.278-2.18-1.817-2.686-3.114a15.631,15.631,0,0,1-.99-5.2,16.032,16.032,0,0,1,.484-5.337c.6-1.845,1.133-3.7,1.632-5.579a1.342,1.342,0,0,0-2.586-.713,37.6,37.6,0,0,0-1,6.541,33.01,33.01,0,0,0-.2,6.363c.3,3,1.176,8.158,4.866,8.764,1.119.185,1.61-1.51.477-1.724h0Z" transform="translate(-678.966 -633.031)" fill="#010d3d"/>
        <path id="Trazado_6986" data-name="Trazado 6986" d="M893.889,641.449c-.078,1.283-.677,3.306-2.237,3.384a2.324,2.324,0,0,1-1.717-.363,1.4,1.4,0,0,1-.321-.62c-.107-.37-.285-.7-.406-1.062a.849.849,0,0,0-1.66.228.717.717,0,0,1-.456.656c-.406.164-.77-.164-1.2,0a.4.4,0,0,0-.285.378c.036.933,1.233,1.076,1.959.9a2.32,2.32,0,0,0,1.639-1.71l-1.66-.228a4.235,4.235,0,0,0,.192,1.553,3.321,3.321,0,0,0,.862,1.332,4.021,4.021,0,0,0,3.128.762,2.742,2.742,0,0,0,1.6-.648,4,4,0,0,0,.862-1.347,8.138,8.138,0,0,0,.784-3.213c.014-.705-1.04-.691-1.083,0h0Z" transform="translate(-731.924 -559.147)" fill="#010d3d"/>
        <g id="Grupo_4641" data-name="Grupo 4641" transform="translate(152.553 29.983)">
          <g id="Grupo_4639" data-name="Grupo 4639">
            <path id="Trazado_6987" data-name="Trazado 6987" d="M938.968,569.869l-49.106-1.639-5.843,76.651,58.012,1.931,5.173-67.873Z" transform="translate(-884.02 -568.23)" fill="#fff" stroke="#00b2e3" stroke-width="1.64"/>
            <path id="Trazado_6988" data-name="Trazado 6988" d="M960.861,570.53l-.691,9.056,8.906.3" transform="translate(-905.913 -568.891)" fill="none" stroke="#00b2e3" stroke-width="1.64"/>
          </g>
          <g id="Grupo_4640" data-name="Grupo 4640" transform="translate(12.996 20.1)">
            <path id="Trazado_6989" data-name="Trazado 6989" d="M925.218,601.021l-19.138-.641.3-3.94,19.138.641Z" transform="translate(-903.358 -596.44)" fill="#99e0f4"/>
            <path id="Trazado_6990" data-name="Trazado 6990" d="M939.779,614.054,905.13,612.9l.3-3.94,34.649,1.154Z" transform="translate(-903.085 -600.039)" fill="#99e0f4"/>
            <path id="Trazado_6991" data-name="Trazado 6991" d="M938.826,626.572l-34.656-1.154.3-3.947,34.656,1.161Z" transform="translate(-902.809 -603.636)" fill="#99e0f4"/>
            <path id="Trazado_6992" data-name="Trazado 6992" d="M937.869,639.092,903.22,637.93l.3-3.94,34.656,1.154Z" transform="translate(-902.536 -607.235)" fill="#99e0f4"/>
            <path id="Trazado_6993" data-name="Trazado 6993" d="M936.916,651.6,902.26,650.45l.306-3.94,34.649,1.154Z" transform="translate(-902.26 -610.835)" fill="#99e0f4"/>
          </g>
        </g>
        <g id="Grupo_4642" data-name="Grupo 4642" transform="translate(146.292 74.59)">
          <path id="Trazado_6994" data-name="Trazado 6994" d="M878.177,637.67a2.468,2.468,0,0,0,2.009,1.739c.72.107,1.867,1.3,2.052,1.339.078.014.926-1.553,1-1.546.826.556,2.2.42,3.185.427a7.58,7.58,0,0,0,3.392-.4,2.9,2.9,0,0,0,1.489-4.076,3.6,3.6,0,0,0-2.914-1.625,4.5,4.5,0,0,0-1.867-.9,6.023,6.023,0,0,0-4.617,1.076c-.3.1-.591.235-.912.378a10.356,10.356,0,0,0-1.817.862,2.5,2.5,0,0,0-1,2.715Z" transform="translate(-876.056 -631.318)" fill="#fff"/>
          <path id="Trazado_6995" data-name="Trazado 6995" d="M876.221,636.909c.463-.314.919-.627,1.411-.9s1.04-.413,1.56-.648c.941-.413,1.838-.919,2.772-1.347a5.239,5.239,0,0,1,3.028-.549,27.38,27.38,0,0,1,3.135.62,3,3,0,0,1,2.1,1.489,1.46,1.46,0,0,1-.777,2.237,9.844,9.844,0,0,1-6.078-.093.986.986,0,0,0-1.233.94c-.142,1.589-1.475,2.266-2.28,3.47a.5.5,0,0,0,.3.734c2.309.613,3.762-2.351,3.926-4.2l-1.233.941c2.33.627,5.579.876,7.674-.577s1.568-4.026-.114-5.693a7.255,7.255,0,0,0-3.441-1.9,9.243,9.243,0,0,0-4.325-.477,11.277,11.277,0,0,0-3.634,1.917,12.413,12.413,0,0,0-1.689,1.425,18.043,18.043,0,0,1-1.8,1.454c-.677.52-.05,1.681.684,1.176h0Z" transform="translate(-875.234 -630.836)" fill="#010d3d"/>
        </g>
        <path id="Trazado_6996" data-name="Trazado 6996" d="M743.259,670.84c-3.014,1.033-6.049,1.981-9,3.185a86.624,86.624,0,0,0-8.742,3.833,53.8,53.8,0,0,0-15.105,11.763,90.248,90.248,0,0,0-11.25,17.043,120.718,120.718,0,0,0-8.03,18.7,48.141,48.141,0,0,0-1.425,5.558c-.385,1.874-1.062,3.676-1.546,5.529a5.416,5.416,0,0,0-.356,2.551,3.737,3.737,0,0,0,1.461,1.86,42.044,42.044,0,0,0,4.574,3.32,1,1,0,0,0,1.354-.356c3.769-7.275,7.916-14.385,12.326-21.29,2.209-3.456,4.546-6.826,6.812-10.246a77.076,77.076,0,0,1,6.527-8.935,25.615,25.615,0,0,1,9.548-7.118c.883-.349.492-1.788-.4-1.432-6.783,2.693-11.493,8.507-15.81,14.143a200.091,200.091,0,0,0-13.929,21.282c-2.394,4.125-4.617,8.343-6.776,12.59l1.354-.356a18.313,18.313,0,0,1-3.962-2.565c-.57-.477-1.389-.955-1.3-1.76a22.4,22.4,0,0,1,.542-2.479,36.461,36.461,0,0,1,1.218-4.624c.563-1.5,1.211-3.078,1.753-4.638a125.578,125.578,0,0,1,7.667-17.7,92.541,92.541,0,0,1,10.474-16.231,51.922,51.922,0,0,1,13.922-11.4,113.9,113.9,0,0,1,18.532-8.664c.976-.349.563-1.91-.435-1.568h0Z" transform="translate(-675.038 -567.733)" fill="#010d3d"/>
        <path id="Trazado_6997" data-name="Trazado 6997" d="M746.287,706.042a42.355,42.355,0,0,0,2.059,11.763,32.86,32.86,0,0,0,2.4,5.814c.47.855.969,1.7,1.482,2.529.442.7.876,1.625,1.682,1.931a.766.766,0,0,0,.962-.734c-.014-.791-.72-1.568-1.09-2.244a25.763,25.763,0,0,1-1.161-2.408c-.784-1.852-1.568-3.7-2.252-5.586a38.02,38.02,0,0,1-2.707-11.065c-.036-.883-1.4-.891-1.382,0h0Z" transform="translate(-691.868 -577.676)" fill="#010d3d"/>
        <path id="Trazado_6998" data-name="Trazado 6998" d="M688.65,770.85c-1.653,3.228-3.356,6.526-6.063,9.006a12.873,12.873,0,0,1-1.995,1.51c-.356.221-1.924,1.3-2.309.912-.513-.513,3.064-4.061,3.477-4.517a.779.779,0,0,0-.941-1.218c-1.389.748-2.779,1.475-4.211,2.13-.656.3-1.311.591-1.974.862-.556.228-1.5.691-2.088.292-1.1-.741,1.774-2.209,2.287-2.551,1.375-.919,2.765-1.831,4.154-2.729a.729.729,0,0,0-.563-1.325c-1.332.342-2.665.7-3.99,1.047-.969.256-2.38.812-3.235.014l.121.919c.926-1.867,2.957-2.729,4.724-3.62,2.266-1.133,4.574-2.187,6.847-3.3.941-.456.114-1.881-.819-1.4-2.465,1.254-4.895,2.565-7.382,3.783-1.824.9-3.712,1.888-4.681,3.769a.765.765,0,0,0,.121.919,3.818,3.818,0,0,0,3.527.591c1.731-.363,3.449-.876,5.159-1.325l-.563-1.325c-1.917,1.282-3.855,2.536-5.793,3.783-1.19.762-2.48,2.088-1.382,3.52s3.035.848,4.467.242a57.988,57.988,0,0,0,6.056-2.957l-.94-1.218c-.876,1.026-1.774,2.031-2.672,3.042a3.682,3.682,0,0,0-1.3,2.565,1.737,1.737,0,0,0,1.646,1.682,6.329,6.329,0,0,0,2.914-1.183c4.168-2.551,6.462-7,8.6-11.222.4-.791-.784-1.489-1.2-.7h0Z" transform="translate(-669.912 -595.331)" fill="#010d3d"/>
        <path id="Trazado_6999" data-name="Trazado 6999" d="M758.945,633.432a19.023,19.023,0,0,0,6.22,2.5,25.045,25.045,0,0,0,6.968.257,37.815,37.815,0,0,0,7.125-1.468,30.328,30.328,0,0,0,3.448-1.2,5.084,5.084,0,0,0,1.4-1.026,5.4,5.4,0,0,0,1.133-1.147.334.334,0,0,0-.2-.484,4.751,4.751,0,0,0-1.311-.021,9.687,9.687,0,0,0-1.575.086,34.338,34.338,0,0,0-3.292,1.1,33.993,33.993,0,0,1-6.576,1.453,24.326,24.326,0,0,1-6.106-.086,19.457,19.457,0,0,1-6.17-1.8,1.053,1.053,0,0,0-1.062,1.817h0Z" transform="translate(-695.363 -556.239)" fill="#010d3d"/>
        <path id="Trazado_7000" data-name="Trazado 7000" d="M783.6,632.922c-.185,1.019-.4,2.031-.556,3.057-.114.7-.185,1.04-.9,1.3a6.691,6.691,0,0,1-1.439.328,30.422,30.422,0,0,1-5.75-.128,31.308,31.308,0,0,1-5.365-.755,16.9,16.9,0,0,1-2.665-.876c-.862-.37-1.553-.883-2.387-1.183-.556-.192-.876.542-.534.926a6.844,6.844,0,0,0,2.494,1.5,18.752,18.752,0,0,0,3.028.976,38.518,38.518,0,0,0,6.32.791c2.116.128,4.532.37,6.626-.413A2.326,2.326,0,0,0,784.1,637a26.832,26.832,0,0,0,.57-3.776c.1-.684-.926-1-1.054-.292h0Z" transform="translate(-696.923 -556.733)" fill="#010d3d"/>
        <path id="Trazado_7001" data-name="Trazado 7001" d="M787.376,640.561a11.427,11.427,0,0,1,.72,1.7c.093.285.171.577.242.876s.107.6.185.891c.064.235.15.634.47.62.342-.014.328-.449.306-.691a6.828,6.828,0,0,0-.513-1.774,12.72,12.72,0,0,0-.9-1.917.292.292,0,0,0-.506.292h0Z" transform="translate(-703.672 -558.915)" fill="#010d3d"/>
        <path id="Trazado_7002" data-name="Trazado 7002" d="M792.518,640.257a6.6,6.6,0,0,1,.62.349c.1.064.2.135.292.207a.4.4,0,0,1,.064.05c-.014-.014-.064-.05,0,0s.1.086.157.128a6.7,6.7,0,0,1,.513.492c.078.086.15.164.221.257a3.1,3.1,0,0,0,.271.256,2.273,2.273,0,0,0,.285.235c.107.071.228.171.356.093s.107-.214.093-.328a1.593,1.593,0,0,0-.114-.4,2.954,2.954,0,0,0-.143-.306,2.213,2.213,0,0,0-.278-.349,5.645,5.645,0,0,0-.506-.506,6.516,6.516,0,0,0-1.382-.948.453.453,0,1,0-.456.784h0Z" transform="translate(-705.096 -558.718)" fill="#010d3d"/>
        <path id="Trazado_7003" data-name="Trazado 7003" d="M780.786,641.749c.071.335.143.67.228,1,.043.164.085.328.135.484s.114.328.178.492c.078.207.413.192.406-.057,0-.171,0-.349-.007-.52s-.036-.342-.05-.52c-.036-.37-.093-.734-.15-1.1a.386.386,0,0,0-.47-.271.4.4,0,0,0-.271.47h0Z" transform="translate(-701.786 -559.241)" fill="#010d3d"/>
      </g>
      <g id="Grupo_4646" data-name="Grupo 4646" transform="translate(257.815 196.715)">
        <g id="Grupo_4644" data-name="Grupo 4644" transform="translate(0 0)">
          <path id="Trazado_7004" data-name="Trazado 7004" d="M1062.462,371.32H1016.85v72.288h53.883V379.59Z" transform="translate(-1016.85 -371.32)" fill="#fff" stroke="#00b2e3" stroke-width="2"/>
          <path id="Trazado_7005" data-name="Trazado 7005" d="M1101.73,371.32v8.539H1110" transform="translate(-1056.118 -371.32)" fill="none" stroke="#00b2e3" stroke-width="2"/>
        </g>
        <g id="Grupo_4645" data-name="Grupo 4645" transform="translate(9.183 14.294)">
          <rect id="Rectángulo_2984" data-name="Rectángulo 2984" width="8.496" height="8.496" transform="translate(0 0.785)" fill="#ccf0f9"/>
          <rect id="Rectángulo_2985" data-name="Rectángulo 2985" width="8.496" height="8.496" transform="translate(0 14.891)" fill="#ccf0f9"/>
          <rect id="Rectángulo_2986" data-name="Rectángulo 2986" width="8.496" height="8.496" transform="translate(0 29.002)" fill="#ccf0f9"/>
          <rect id="Rectángulo_2987" data-name="Rectángulo 2987" width="9.087" height="3.068" transform="translate(11.919 0.785)" fill="#99e0f4"/>
          <rect id="Rectángulo_2988" data-name="Rectángulo 2988" width="23.596" height="3.068" transform="translate(11.919 6.212)" fill="#99e0f4"/>
          <rect id="Rectángulo_2989" data-name="Rectángulo 2989" width="14.514" height="3.068" transform="translate(11.919 14.891)" fill="#99e0f4"/>
          <rect id="Rectángulo_2990" data-name="Rectángulo 2990" width="23.596" height="3.068" transform="translate(11.919 20.318)" fill="#99e0f4"/>
          <rect id="Rectángulo_2991" data-name="Rectángulo 2991" width="9.087" height="3.068" transform="translate(11.919 29.002)" fill="#99e0f4"/>
          <rect id="Rectángulo_2992" data-name="Rectángulo 2992" width="19.587" height="3.068" transform="translate(11.919 34.43)" fill="#99e0f4"/>
          <path id="Trazado_7006" data-name="Trazado 7006" d="M1037.938,405.621l-4-4,1.5-1.5,2.5,2.5,4.691-4.7,1.5,1.5Z" transform="translate(-1033.94 -397.92)" fill="#66d1ee"/>
          <path id="Trazado_7007" data-name="Trazado 7007" d="M1037.938,434.075l-4-4,1.5-1.5,2.5,2.493,4.691-4.691,1.5,1.5Z" transform="translate(-1033.94 -411.086)" fill="#66d1ee"/>
          <path id="Trazado_7008" data-name="Trazado 7008" d="M1037.938,459.585l-4-3.993,1.5-1.5,2.5,2.493,4.691-4.691,1.5,1.5Z" transform="translate(-1033.94 -422.888)" fill="#66d1ee"/>
        </g>
      </g>
      <g id="Grupo_4654" data-name="Grupo 4654" transform="translate(175.994 196.715)">
        <g id="Grupo_4647" data-name="Grupo 4647" transform="translate(0 0)">
          <path id="Trazado_7009" data-name="Trazado 7009" d="M910.2,371.32H864.59v72.288h53.877V379.59Z" transform="translate(-864.59 -371.32)" fill="#fff" stroke="#00b2e3" stroke-width="2"/>
          <path id="Trazado_7010" data-name="Trazado 7010" d="M949.46,371.32v8.539h8.27" transform="translate(-903.853 -371.32)" fill="none" stroke="#00b2e3" stroke-width="2"/>
        </g>
        <g id="Grupo_4653" data-name="Grupo 4653" transform="translate(10.844 18.587)">
          <rect id="Rectángulo_2993" data-name="Rectángulo 2993" width="17.776" height="3.719" fill="#99e0f4"/>
          <rect id="Rectángulo_2994" data-name="Rectángulo 2994" width="32.189" height="3.719" transform="translate(0 8.13)" fill="#99e0f4"/>
          <rect id="Rectángulo_2995" data-name="Rectángulo 2995" width="32.189" height="1.859" transform="translate(0 41.931)" fill="#99e0f4"/>
          <rect id="Rectángulo_2996" data-name="Rectángulo 2996" width="32.054" height="16.97" transform="translate(0 15.589)" fill="#99e0f4"/>
          <g id="Grupo_4652" data-name="Grupo 4652" transform="translate(1.65 16.884)">
            <g id="Grupo_4648" data-name="Grupo 4648">
              <rect id="Rectángulo_2997" data-name="Rectángulo 2997" width="8.765" height="2.563" fill="#fff"/>
              <rect id="Rectángulo_2998" data-name="Rectángulo 2998" width="8.765" height="2.563" transform="translate(9.925)" fill="#fff"/>
              <rect id="Rectángulo_2999" data-name="Rectángulo 2999" width="8.765" height="2.563" transform="translate(19.856)" fill="#fff"/>
            </g>
            <g id="Grupo_4649" data-name="Grupo 4649" transform="translate(0 3.837)">
              <rect id="Rectángulo_3000" data-name="Rectángulo 3000" width="8.765" height="2.563" fill="#fff"/>
              <rect id="Rectángulo_3001" data-name="Rectángulo 3001" width="8.765" height="2.563" transform="translate(9.925)" fill="#fff"/>
              <rect id="Rectángulo_3002" data-name="Rectángulo 3002" width="8.765" height="2.563" transform="translate(19.856)" fill="#fff"/>
            </g>
            <g id="Grupo_4650" data-name="Grupo 4650" transform="translate(0 7.668)">
              <rect id="Rectángulo_3003" data-name="Rectángulo 3003" width="8.765" height="2.563" fill="#fff"/>
              <rect id="Rectángulo_3004" data-name="Rectángulo 3004" width="8.765" height="2.563" transform="translate(9.925)" fill="#fff"/>
              <rect id="Rectángulo_3005" data-name="Rectángulo 3005" width="8.765" height="2.563" transform="translate(19.856)" fill="#fff"/>
            </g>
            <g id="Grupo_4651" data-name="Grupo 4651" transform="translate(0 11.505)">
              <rect id="Rectángulo_3006" data-name="Rectángulo 3006" width="8.765" height="2.563" fill="#fff"/>
              <rect id="Rectángulo_3007" data-name="Rectángulo 3007" width="8.765" height="2.563" transform="translate(9.925)" fill="#fff"/>
              <rect id="Rectángulo_3008" data-name="Rectángulo 3008" width="8.765" height="2.563" transform="translate(19.856)" fill="#fff"/>
            </g>
          </g>
        </g>
      </g>
      <g id="Grupo_4657" data-name="Grupo 4657" transform="translate(339.641 83.703)">
        <g id="Grupo_4655" data-name="Grupo 4655" transform="translate(0 0)">
          <path id="Trazado_7011" data-name="Trazado 7011" d="M1214.727,123.8H1169.12v72.293H1223V132.07Z" transform="translate(-1169.12 -123.8)" fill="#fff" stroke="#00b2e3" stroke-width="2"/>
          <path id="Trazado_7012" data-name="Trazado 7012" d="M1253.99,123.8v8.544h8.27" transform="translate(-1208.383 -123.8)" fill="none" stroke="#00b2e3" stroke-width="2"/>
        </g>
        <g id="Grupo_4656" data-name="Grupo 4656" transform="translate(9.179 14.74)">
          <rect id="Rectángulo_3009" data-name="Rectángulo 3009" width="35.515" height="3.794" transform="translate(0 25.332)" fill="#99e0f4"/>
          <rect id="Rectángulo_3010" data-name="Rectángulo 3010" width="9.662" height="3.794" fill="#ccf0f9"/>
          <rect id="Rectángulo_3011" data-name="Rectángulo 3011" width="11.559" height="3.794" transform="translate(0 8.786)" fill="#66d1ee"/>
          <rect id="Rectángulo_3012" data-name="Rectángulo 3012" width="11.559" height="3.794" transform="translate(0 17.492)" fill="#ccf0f9"/>
          <rect id="Rectángulo_3013" data-name="Rectángulo 3013" width="20.877" height="21.28" transform="translate(14.638)" fill="#66d1ee"/>
          <rect id="Rectángulo_3014" data-name="Rectángulo 3014" width="35.515" height="10.774" transform="translate(0 33.231)" fill="#99e0f4"/>
        </g>
      </g>
      <g id="Grupo_4660" data-name="Grupo 4660" transform="translate(257.815 83.703)">
        <g id="Grupo_4658" data-name="Grupo 4658" transform="translate(0 0)">
          <path id="Trazado_7013" data-name="Trazado 7013" d="M1062.462,123.8H1016.85v72.293h53.883V132.07Z" transform="translate(-1016.85 -123.8)" fill="#fff" stroke="#00b2e3" stroke-width="2"/>
          <path id="Trazado_7014" data-name="Trazado 7014" d="M1101.73,123.8v8.544H1110" transform="translate(-1056.118 -123.8)" fill="none" stroke="#00b2e3" stroke-width="2"/>
        </g>
        <g id="Grupo_4659" data-name="Grupo 4659" transform="translate(10.838 14.638)">
          <rect id="Rectángulo_3015" data-name="Rectángulo 3015" width="32.205" height="3.439" transform="translate(0 24.596)" fill="#99e0f4"/>
          <rect id="Rectángulo_3016" data-name="Rectángulo 3016" width="12.096" height="3.439" transform="translate(0 1.623)" fill="#99e0f4"/>
          <rect id="Rectángulo_3017" data-name="Rectángulo 3017" width="12.096" height="3.439" transform="translate(0 9.28)" fill="#99e0f4"/>
          <rect id="Rectángulo_3018" data-name="Rectángulo 3018" width="12.096" height="3.439" transform="translate(0 16.938)" fill="#99e0f4"/>
          <rect id="Rectángulo_3019" data-name="Rectángulo 3019" width="32.205" height="9.769" transform="translate(0 31.754)" fill="#99e0f4"/>
          <path id="Trazado_7015" data-name="Trazado 7015" d="M1079.5,160.544l-7.023,4,1.338-7.975a7.844,7.844,0,0,0-1.338-.113,8.088,8.088,0,1,0,8.088,8.087,8.873,8.873,0,0,0-1.064-4Z" transform="translate(-1049.682 -153.547)" fill="#66d1ee"/>
          <path id="Trazado_7016" data-name="Trazado 7016" d="M1090.463,155.017a8.077,8.077,0,0,0-2.01-2.338l-.011-.011c-.113-.086-.226-.172-.344-.258l-.011-.011a8,8,0,0,0-1.978-1.016h0c-.14-.048-.28-.091-.419-.134l-.027-.011c-.134-.038-.274-.075-.408-.107h-.027a4,4,0,0,0-.441-.091h0l-1.338,7.975,7.023-4Z" transform="translate(-1058.5 -151.04)" fill="#ccf0f9"/>
        </g>
      </g>
      <g id="Grupo_4663" data-name="Grupo 4663" transform="translate(175.994 83.703)">
        <g id="Grupo_4661" data-name="Grupo 4661" transform="translate(0 0)">
          <path id="Trazado_7017" data-name="Trazado 7017" d="M910.2,123.8H864.59v72.293h53.877V132.07Z" transform="translate(-864.59 -123.8)" fill="#fff" stroke="#00b2e3" stroke-width="2"/>
          <path id="Trazado_7018" data-name="Trazado 7018" d="M949.46,123.8v8.544h8.27" transform="translate(-903.853 -123.8)" fill="none" stroke="#00b2e3" stroke-width="2"/>
        </g>
        <g id="Grupo_4662" data-name="Grupo 4662" transform="translate(10.844 18.588)">
          <rect id="Rectángulo_3020" data-name="Rectángulo 3020" width="17.776" height="3.719" fill="#99e0f4"/>
          <rect id="Rectángulo_3021" data-name="Rectángulo 3021" width="32.189" height="3.719" transform="translate(0 8.415)" fill="#99e0f4"/>
          <rect id="Rectángulo_3022" data-name="Rectángulo 3022" width="32.189" height="3.719" transform="translate(0 16.825)" fill="#99e0f4"/>
          <rect id="Rectángulo_3023" data-name="Rectángulo 3023" width="32.189" height="3.719" transform="translate(0 25.235)" fill="#99e0f4"/>
          <rect id="Rectángulo_3024" data-name="Rectángulo 3024" width="32.189" height="3.719" transform="translate(0 33.645)" fill="#99e0f4"/>
        </g>
      </g>
      <g id="Grupo_4664" data-name="Grupo 4664" transform="translate(55.138 196.494)">
        <path id="Trazado_7019" data-name="Trazado 7019" d="M737.02,388.78H662l-7.652,62.905h77.661l7.362-60.482a2.2,2.2,0,0,0-2.348-2.424Z" transform="translate(-646.472 -379.177)" fill="#66d1ee"/>
        <path id="Trazado_7020" data-name="Trazado 7020" d="M668.047,375.048h0a4.14,4.14,0,0,0-4.138-4.138H643.828a4.14,4.14,0,0,0-4.138,4.138v68.37h85.539V381.636a3.218,3.218,0,0,0-3.219-3.219H671.422a3.374,3.374,0,0,1-3.375-3.375Z" transform="translate(-639.69 -370.91)" fill="#33c1e9"/>
      </g>
      <g id="Grupo_4665" data-name="Grupo 4665" transform="translate(55.138 83.488)">
        <path id="Trazado_7021" data-name="Trazado 7021" d="M737.02,141.27H662l-7.652,62.905h77.661l7.362-60.482a2.2,2.2,0,0,0-2.348-2.424Z" transform="translate(-646.472 -131.667)" fill="#66d1ee"/>
        <path id="Trazado_7022" data-name="Trazado 7022" d="M668.047,127.538h0a4.14,4.14,0,0,0-4.138-4.138H643.828a4.14,4.14,0,0,0-4.138,4.138v68.37h85.539V134.126a3.218,3.218,0,0,0-3.219-3.219H671.422a3.374,3.374,0,0,1-3.375-3.375Z" transform="translate(-639.69 -123.4)" fill="#33c1e9"/>
      </g>
      <g id="Grupo_4672" data-name="Grupo 4672" transform="translate(261.552 281.617)">
        <path id="Trazado_7023" data-name="Trazado 7023" d="M1082.791,669.865c-.705-3.612,2.408-10.851.72-14.157-2.387-3.277-8.408,3.534-8.921,6.32-3.441,11.557-3.149,23.833-4.225,35.753-.257,15.169-3.94,17.592-17.7,22.444-3.413,1.682-7.488,2.558-10.381,5.087-4.453,6.327,4.225,11.8,9.932,8.657,6.106-3.705,12.989-6.4,18.547-10.923C1084.166,709.452,1084.522,687.778,1082.791,669.865Z" transform="translate(-1016.634 -557.802)" fill="#64d8cc"/>
        <path id="Trazado_7024" data-name="Trazado 7024" d="M1070.673,836.1c-.085-.9-.492-1.7-.556-2.608-.071-.99-.142-1.966-.185-2.957l-.257-5.386a96.126,96.126,0,0,1,.05-11.1,124.944,124.944,0,0,1,3.655-20.948c1.7-6.9,3.734-13.666,5.778-20.442a7.967,7.967,0,0,1,2.444-4.311,8.1,8.1,0,0,1,4.346-1.446,77.45,77.45,0,0,1,10.367.014q6.252.235,12.512,1c2.13.256,4.246.549,6.377.891a9.2,9.2,0,0,1,3.042.705,3.213,3.213,0,0,1,1.425,1.632,1.128,1.128,0,0,1,.3.705,48.976,48.976,0,0,1-.071,5.607c-.2,1.9-.392,3.8-.6,5.693-.406,3.662-.9,7.31-1.311,10.973q-1.24,11.083-1.967,22.251c-.912,14.022-1.1,28.664,4.083,42.472a50.708,50.708,0,0,0,11.507,18.3,2.157,2.157,0,0,1,.249,3.007c-2.558,2.273-6.5,2.173-9.562.164a12.463,12.463,0,0,1-1.674-1.361,2.421,2.421,0,0,1-2.3-1.019c-3.869-5.094-5.5-11.486-7.4-17.349a138.18,138.18,0,0,1-5.137-19.758,90.931,90.931,0,0,1-.627-19.758q.534-10.1,1.4-20.143.844-9.694,2.031-19.316a78.158,78.158,0,0,1-22-.584,72.543,72.543,0,0,0-4.076,16.779,111.175,111.175,0,0,0-1.3,19.808c.264,6.826.99,13.68,1.553,20.513.549,6.755.99,13.545,2.515,20.249a86.761,86.761,0,0,0,7.538,20.656,2.117,2.117,0,0,1-.527,2.928c-2.529,1.86-6.341.955-8.757-1.176-2.643-2.323-3.712-5.843-4.745-8.992a220.891,220.891,0,0,1-6.071-21.924c-.919-4.2-1.689-8.436-2.2-12.675a1.824,1.824,0,0,1,.171-1c0-.036-.014-.064-.014-.107Z" transform="translate(-1024.822 -589.97)" fill="#fff"/>
        <path id="Trazado_7025" data-name="Trazado 7025" d="M1122.244,779.918a120.57,120.57,0,0,0-2.886,18.261c-.385,3.62-.912,7.211-1.233,10.837s-.427,6.911-.577,10.36c-.185,4.2-.378,8.415-.4,12.626-.021,4.945,1.161,9.825,2.387,14.585,1.4,5.458,3.085,10.844,4.952,16.167s3.5,10.46,7.061,14.585a14.735,14.735,0,0,0,1.361,1.389,5.058,5.058,0,0,0,1.532,1.14,6.859,6.859,0,0,0,2.223-.043c.755-.057,1.51-.121,2.259-.192a25.6,25.6,0,0,0,8.5-2.309,1.1,1.1,0,0,0,.221-1.717,38.283,38.283,0,0,1-7.011-7.581,56.174,56.174,0,0,1-5.173-8.842A55.392,55.392,0,0,1,1132,848.76a87.96,87.96,0,0,1-2.323-11.82c-.392-3.983.107-8,.349-11.977s.542-8.2.869-12.3q.983-12.269,2.43-24.489.8-6.776,1.746-13.538c.313-2.252.705-4.5.948-6.769a11.24,11.24,0,0,0-.862-6.284c-.62-1.311-2.821-.385-2.351.99a12.532,12.532,0,0,1,.349,5.607c-.228,1.874-.563,3.919-.834,5.871q-.866,6.177-1.61,12.376-1.464,12.216-2.472,24.474-.513,6.231-.9,12.469a93.346,93.346,0,0,0-.321,12.191,74.676,74.676,0,0,0,2.152,11.87,66.281,66.281,0,0,0,3.327,10.951c3.05,7.268,7.9,13.388,13.6,18.76l.221-1.717a25.128,25.128,0,0,1-11.607,2.487l.7.292c-3.292-2.743-5.087-6.626-6.541-10.566-1.717-4.646-3.206-9.391-4.56-14.15-2.088-7.332-4.482-14.906-4.339-22.6.078-4.361.249-8.721.449-13.074.143-3.085.335-6.163.449-9.248.114-3.249.085-6.5.306-9.74.42-6.2.848-12.526,2.294-18.582a.629.629,0,0,0-1.211-.335h0Z" transform="translate(-1038.51 -588.311)" fill="#010d3d"/>
        <path id="Trazado_7026" data-name="Trazado 7026" d="M1130.411,682.145c-2.772-12.8-7.766-32.084-23.762-32.355-6.405,0-14.642,1.717-17.955,7.859-3.392,7.054-1.026,15.191-.713,22.665a106.261,106.261,0,0,1-5.558,48.9c-.278,2.394-2.9,7,.713,7.638q19.312.524,38.611,1.062c1.831-.093,4.346.741,5.536-1.1,4.289-17.755,6.356-36.53,3.128-54.663Z" transform="translate(-1028.187 -556.352)" fill="#64d8cc"/>
        <path id="Trazado_7027" data-name="Trazado 7027" d="M1078.925,770.042q-1.026,2.6-1.959,5.216c-.62,1.746-1.375,3.47-1.995,5.23a94.73,94.73,0,0,0-3.32,10.695,164.965,164.965,0,0,0-3.384,22.152c-1.275,15.084-.834,30.559,3.392,45.173,1.161,4,2.543,7.937,4.068,11.806a93.693,93.693,0,0,0,5.265,11.8,1.266,1.266,0,0,0,1.076.62c1.852-.05,3.655.1,5.5.164a48.077,48.077,0,0,0,5.465-.2c.9-.071,1.76-1.1,1.133-1.974a33.381,33.381,0,0,1-4.5-8.308c-1.069-3.035-1.888-6-2.658-9.042a192.2,192.2,0,0,1-3.812-20.185c-.955-6.769-1.639-14.036-1.988-21.09a163,163,0,0,1,0-20.007c.513-7.011,1.838-13.937,4.966-20.285a1.069,1.069,0,0,0-1.845-1.076c-3.306,5.5-4.916,11.92-5.629,18.261a138.921,138.921,0,0,0-.42,20,228.143,228.143,0,0,0,5.472,42.886,61.18,61.18,0,0,0,3.2,10.346,65.85,65.85,0,0,0,4.945,9.84l1.133-1.974c-1.767.143-3.527.192-5.294.285a27.371,27.371,0,0,1-5.344-.071l.869.869c-1.3-3.5-2.964-6.876-4.368-10.338s-2.679-6.954-3.8-10.509a96.026,96.026,0,0,1-4.246-21.767,159.868,159.868,0,0,1,2.985-44.36c.834-3.983,1.724-7.952,2.551-11.934a87.872,87.872,0,0,1,3.484-11.942c.221-.606-.72-.841-.955-.264h0Z" transform="translate(-1024.275 -590.833)" fill="#010d3d"/>
        <path id="Trazado_7028" data-name="Trazado 7028" d="M1134.8,584.052a20.174,20.174,0,0,1-.7-5.622,43.582,43.582,0,0,0-.221-6.4,16.5,16.5,0,0,0-1.838-5.451,33.631,33.631,0,0,0-6.826-8.45,26.736,26.736,0,0,0-9.02-5.75c-7.809-2.822-15.718.634-21.781,5.6a85.967,85.967,0,0,0-8.536,8.208,54.865,54.865,0,0,0-7.018,9.64c-3.812,6.541-8.279,14.585-6.306,22.408.94,3.762,3.463,6.812,6.063,9.576a27.89,27.89,0,0,0,4.311,3.89,21.368,21.368,0,0,0,4.788,2.223,10.786,10.786,0,0,1,2.095,1,2.994,2.994,0,0,1,.584.449c.021.021.356.456.356.321,0,.021,3.342.748,3.342.77.449.157.741,12.219,1.218,12.341,1.339.342,4.175,3.292,5.3,2.836.563-.228,4.3-5.13,4.3-5.13s-3.577-9.5-2.615-9.825a50.667,50.667,0,0,0,7.4-2.921,32.617,32.617,0,0,0,8.343-7.346,45.776,45.776,0,0,0,3.491-4.859c.955-1.532,1.724-3.185,2.686-4.71a3.539,3.539,0,0,1,.463-.591l.078.1c.2.292.363.613.577.9,1.14,1.6,2.978,3.057,5.073,2.579,1.988-.456,2.957-2.451,3.833-4.1a11.438,11.438,0,0,0,1.617-5.664,24.481,24.481,0,0,0-1.055-6.035Z" transform="translate(-1025.55 -528.056)" fill="#fff"/>
        <path id="Trazado_7029" data-name="Trazado 7029" d="M1090.2,539.3a23.2,23.2,0,0,1-4.41-6.726,1.7,1.7,0,0,1,1.446-2.515,28.8,28.8,0,0,1,9.305.99c.848.256,1.7.57,2.544.912a21.425,21.425,0,0,1-1.867-3.185,19.71,19.71,0,0,1-1.746-4.966,1.9,1.9,0,0,1,1.425-2.187,3.991,3.991,0,0,1,2.365.456,57.23,57.23,0,0,1,9.783,4,66.879,66.879,0,0,1,8.707,6.085,42.7,42.7,0,0,1,4.04,3.655c.164.171.321.349.484.534-.085-.57-.171-1.133-.264-1.7-.093-.534-.2-1.055-.321-1.575a1.031,1.031,0,0,1,.983-1.29c1.86-.114,3.641,1.047,5.123,2.052a46.125,46.125,0,0,1,4.432,3.449,40.705,40.705,0,0,1,7.253,8.564c1.04,1.632,1.824,3.384,2.75,5.073a38.943,38.943,0,0,0,3.62,4.809,19.723,19.723,0,0,1,2.672,4.938c.342.9.656,1.831.919,2.764a7.554,7.554,0,0,1,.577,2.807c-.128,1.183-1.147,1.767-1.988,2.472q-1.208,1-2.351,2.109a45.527,45.527,0,0,0-4.767,5.109,1.093,1.093,0,0,1-1.532.2.867.867,0,0,1-1.3.306,3.969,3.969,0,0,0-5.365.969c-.513.762-1.931.777-2.138-.278-.292-1.518-.278-3.057-.591-4.574-.321-1.546-.6-3.1-.819-4.66-.228-1.539-.463-3.064-.556-4.617-.014-.228-.021-.463-.028-.691-.142.2-.285.392-.435.57-1.019,1.247-1.938,2.544-2.921,3.819a1.547,1.547,0,0,1-2.636,0,39.278,39.278,0,0,1-3.648-10.224c-.214-1.033-.392-2.038-.534-3.064-.185.855-.364,1.717-.542,2.586a15.589,15.589,0,0,1-1.432,4.76,3.108,3.108,0,0,1-4.646.862c-2.572-1.867-3.057-5.144-3.641-8.058-.342-1.717-.7-3.441-1.04-5.159-.078-.363-.143-.734-.221-1.1-.114.456-.221.912-.328,1.382a47.27,47.27,0,0,0-.791,5.75c-.142,1.425-1.767,2.9-3.213,1.838-2-1.475-2.244-3.57-2.494-5.892-.093-.9-.185-1.81-.285-2.722-.727.634-1.461,1.268-2.18,1.917a1.3,1.3,0,0,1-.085.613c-.036.086-.071.171-.107.249a2.7,2.7,0,0,1-.142.285,2.1,2.1,0,0,1-.157.221c-.164.221-.335.449-.52.67a2.1,2.1,0,0,1-.6.549,1.062,1.062,0,0,1-1.154-.078,1.2,1.2,0,0,1-.164-.164.9.9,0,0,1-.378-.185c-2.088-.627-4.731-2.095-5.372-4.311a3.169,3.169,0,0,1,1.062-3.456,4.135,4.135,0,0,1,3.648-.356,5.544,5.544,0,0,1,1.881.9.518.518,0,0,1,.029-.078c-.777-.855-1.553-1.71-2.394-2.508-1-.955-2.016-1.9-2.964-2.928Z" transform="translate(-1029.444 -519.486)" fill="#010d3d"/>
        <path id="Trazado_7030" data-name="Trazado 7030" d="M1152.5,598.853c1.1-.57,1.981.42,2.415,1.347a7.033,7.033,0,0,1,.677,3.285,11.428,11.428,0,0,1-1.981,6.092,3.965,3.965,0,0,1-4.574,1.731,3.427,3.427,0,0,1-1.981-1.788c-.192-.406-.271-.848-.427-1.261-.192-.513-.463-.983-.634-1.5a.623.623,0,0,0-1.033-.271,3.4,3.4,0,0,0-.827,3.235,6.392,6.392,0,0,0,1.874,3.021,6.513,6.513,0,0,0,7,.983,9.224,9.224,0,0,0,4.318-5.216,11.829,11.829,0,0,0,.712-7.738,5.061,5.061,0,0,0-2.544-3.306,4.129,4.129,0,0,0-3.712.157.719.719,0,0,0,.727,1.24h0Z" transform="translate(-1046.232 -541.204)" fill="#010d3d"/>
        <path id="Trazado_7031" data-name="Trazado 7031" d="M1123.3,596.273a7.8,7.8,0,0,1-.812,2.651c-.492.862-.983,1.717-1.5,2.565a36.9,36.9,0,0,1-3.32,4.475,43.45,43.45,0,0,1-8.023,7.987,20.346,20.346,0,0,1-10.281,3.976,22.85,22.85,0,0,1-11.087-2.387c-5.871-2.786-12.034-7.317-14.357-13.644-2.736-7.446,1.147-14.977,4.959-21.254,1.1-1.81,2-3.726,3.142-5.522a42.724,42.724,0,0,1,3.876-5.173,73.992,73.992,0,0,1,9.163-8.828c.691-.563-.292-1.539-.976-.976a83.868,83.868,0,0,0-8.742,8.393c-2.715,3.007-5.33,6.028-7.809,9.177a35.5,35.5,0,0,0-3.235,5.23,44.016,44.016,0,0,0-2.679,5.907,20.97,20.97,0,0,0-.9,12.276c1.874,7.218,8.108,12.583,14.428,16a28.389,28.389,0,0,0,12.027,3.648,21.433,21.433,0,0,0,11.721-3.014,34.351,34.351,0,0,0,10.267-9.277,41.584,41.584,0,0,0,3.541-5.636,18.763,18.763,0,0,0,1.76-6.413c.086-.663-1.054-.819-1.168-.157h0Z" transform="translate(-1025 -530.53)" fill="#010d3d"/>
        <path id="Trazado_7032" data-name="Trazado 7032" d="M1140.049,576.277c1.04-.848,2.066-1.724,3.163-2.494s2.33-1.56,3.413-2.437c1-.812,1.959-1.724,2.914-2.586a3.417,3.417,0,0,0,1.368-2.629,9.8,9.8,0,0,0-1.1-3.27c-.5-1.169-1.012-2.323-1.553-3.47-1-2.109-1.974-4.218-3.078-6.277a84.7,84.7,0,0,0-7.838-11.92,43.717,43.717,0,0,0-9.241-9.312,23.06,23.06,0,0,0-3.213-1.9,6.722,6.722,0,0,0-3.092-.983c-3.05.164-1.5,4.553-.876,6.156l1.012-.591a74.326,74.326,0,0,0-16.409-12.276c-1.5-.827-3.042-1.6-4.6-2.309a10.017,10.017,0,0,0-4.589-1.325,3.515,3.515,0,0,0-3.32,2.544,6.553,6.553,0,0,0,.527,4.311,21.847,21.847,0,0,0,3.021,4.646,22.593,22.593,0,0,0,3.9,4.018l.926-1.2a96.542,96.542,0,0,0-9.063-3.983,20.7,20.7,0,0,0-4.959-1.04c-1.5-.114-3.391-.214-4.118,1.4-.62,1.368-.057,3.064.527,4.346a15.633,15.633,0,0,0,2.579,3.741c2.316,2.643,4.8,5.123,7.3,7.6l1.133-1.945c-1.6-.47-3.413-.912-5.03-.257a3.632,3.632,0,0,0-2.544,2.743c-.185,1.553,1.154,2.807,2.173,3.776a13.368,13.368,0,0,0,4.125,2.779c.577.242.805-.62.392-.933-.912-.7-1.852-1.4-2.729-2.145a8.694,8.694,0,0,1-2.451-2.636,1.815,1.815,0,0,1,1.51-2.423c1.29-.171,2.565.62,3.648,1.211a1.168,1.168,0,0,0,1.411-1.824c-1.931-2.28-3.9-4.51-5.914-6.712a22.342,22.342,0,0,1-2.365-2.886,8.786,8.786,0,0,1-.791-1.432,8.2,8.2,0,0,1-.271-.805,6.137,6.137,0,0,0-.15-.834.8.8,0,0,1,.014-.228c-.228.157-.242.2-.057.135a3.625,3.625,0,0,0,.976-.107,18.844,18.844,0,0,1,1.9-.028,19.122,19.122,0,0,1,4.118.577,30,30,0,0,1,7.866,3.242.769.769,0,0,0,.926-1.2,19.5,19.5,0,0,1-4.859-6.84,11.2,11.2,0,0,1-1.1-3.662c-.014-1.211.784-1.3,1.781-1.054a44.546,44.546,0,0,1,8.016,3.114,55.92,55.92,0,0,1,7.809,4.389,65.932,65.932,0,0,1,7.887,6.391c.4.378,1.254,0,1.012-.591a8.753,8.753,0,0,1-.456-2.936c-.021-.328-.164-.328.164-.392a.686.686,0,0,1,.364.036,6.553,6.553,0,0,1,1.468.6,23.225,23.225,0,0,1,4.574,2.907,47.823,47.823,0,0,1,7.788,8.393,87.521,87.521,0,0,1,12.105,21.183c.178.463.47.962.242,1.439-.178.385-.7.72-1.012,1-.969.855-1.995,1.681-2.893,2.608-1.81,1.874-3.52,3.8-5.4,5.607-.684.656.313,1.589,1.019,1.019h0Z" transform="translate(-1028.683 -518.649)" fill="#010d3d"/>
        <path id="Trazado_7033" data-name="Trazado 7033" d="M1104.607,559.859a6.039,6.039,0,0,0,2.095-1.974l-1.432-.385a20.359,20.359,0,0,0,.157,6.576c.363,1.525,1.347,3.94,3.306,3.748s2.615-2.943,3.042-4.446a40.427,40.427,0,0,0,1.1-6.719h-1.29a38.971,38.971,0,0,0,1.617,9.833c.791,2.693,1.532,6.37,4.581,7.389s5.137-1.981,5.793-4.539a50.059,50.059,0,0,0,1.439-10.125h-2.045c.15,1.51.734,2.935.869,4.453s.228,2.886.349,4.325a20.336,20.336,0,0,0,1.439,6.733,7.358,7.358,0,0,0,1.924,2.7,2.3,2.3,0,0,0,2.85-.078,13.856,13.856,0,0,0,4.624-5.615l-1.154-.313a97.915,97.915,0,0,0,.684,17.214c.071.648.769,1.268,1.432.819.8-.542,1.489-1.225,2.287-1.767s1.61-1.04,2.437-1.525a.714.714,0,0,0-.72-1.233,33.088,33.088,0,0,0-5.159,3.035l1.589.42a55.813,55.813,0,0,1-1.311-16.958.623.623,0,0,0-1.154-.313,13.374,13.374,0,0,1-3.819,4.938c-.6.47-1.261.926-1.952.349a5.2,5.2,0,0,1-.948-1.176,9.991,9.991,0,0,1-1.2-2.757,32.59,32.59,0,0,1-.876-6.049c-.1-1.133-.271-2.287-.307-3.427-.036-1.254.257-2.515.171-3.769a1.024,1.024,0,0,0-2.045,0,47.078,47.078,0,0,1-1.211,8.279c-.413,1.717-1.361,5.322-3.883,4a5.365,5.365,0,0,1-2.045-2.957c-.5-1.247-.933-2.529-1.332-3.812a31.308,31.308,0,0,1-1.625-8.073.645.645,0,0,0-1.29,0,40.472,40.472,0,0,1-.769,5.151,19.108,19.108,0,0,1-.727,2.408c-.235.606-.591,1.788-1.225,2.109-1.539.769-2.173-3.035-2.252-3.933a25.644,25.644,0,0,1,.185-4.9c.085-.819-1.047-.955-1.432-.385a4.625,4.625,0,0,1-1.532,1.439.759.759,0,0,0,.762,1.311h0Z" transform="translate(-1034.581 -529.399)" fill="#010d3d"/>
        <path id="Trazado_7034" data-name="Trazado 7034" d="M1126.415,592.1c.014.086.036.171.043.249l-.036-.242a1.371,1.371,0,0,1,.007.342l.036-.242a.553.553,0,0,1-.05.185l.093-.221a.676.676,0,0,1-.071.121l.142-.185a.864.864,0,0,1-.114.114l.185-.143-.107.064.221-.093a.535.535,0,0,1-.114.036l.249-.036h-.1l.249.036a.088.088,0,0,1-.05-.014l.413.242-.021-.021.15.192a1.065,1.065,0,0,0-.371-.363l.193.15-.071-.071.157.2a1.141,1.141,0,0,1-.093-.157l.1.242a1.166,1.166,0,0,1-.071-.271l.036.278v-.171l-.036.285a.171.171,0,0,1,.014-.071l-.114.264a.412.412,0,0,0,.028-.043l-.178.228c.093-.121.185-.235.271-.356l-.192.249a.578.578,0,0,1,.114-.114l-.264.207c.128-.1.256-.192.385-.292l-.278.214a1.342,1.342,0,0,1,.171-.1l-.328.142a.478.478,0,0,1,.135-.036l-.37.05h.142l-.371-.05a.376.376,0,0,1,.121.029l-.335-.143a.393.393,0,0,1,.093.057l-.285-.221.057.057-.221-.285a.773.773,0,0,1,.057.1l-.142-.328s.021.071.029.107l-.05-.363v.178l.05-.363a1.759,1.759,0,0,1-.114.463l.135-.321a.929.929,0,0,1-.078.143l.207-.271a1.052,1.052,0,0,1-.093.093l.264-.207a1.558,1.558,0,0,0-.527.506.155.155,0,0,1-.036.057l.192-.249a1.3,1.3,0,0,0-.328.556c0,.021-.043.3-.043.321a.8.8,0,0,0,.107.463.959.959,0,0,0,.257.392l.014.014a.9.9,0,0,0,.143.107c.043.036.1.078.15.114a.1.1,0,0,1,.021.014l.157.064a.961.961,0,0,0,.506.114,1.456,1.456,0,0,0,.705-.192,1.592,1.592,0,0,0,.392-.3,1.268,1.268,0,0,0,.15-.192,1.281,1.281,0,0,0,.142-.2,3.091,3.091,0,0,0,.214-.47,2.51,2.51,0,0,0,.121-.37,3.193,3.193,0,0,0,.057-.456,1.668,1.668,0,0,0-.028-.271,1.69,1.69,0,0,0-.043-.264,2.323,2.323,0,0,0-.164-.385,1.742,1.742,0,0,0-.57-.57.18.18,0,0,0-.05-.029.054.054,0,0,1-.029-.014c-.114-.05-.235-.107-.356-.15-.021,0-.043-.014-.057-.014a4.007,4.007,0,0,0-.42-.057,2.189,2.189,0,0,0-.5.05.342.342,0,0,0-.121.036,1.756,1.756,0,0,0-.442.2,1.606,1.606,0,0,0-.57.606l-.086.192a1.013,1.013,0,0,0-.114.52v.114a2.355,2.355,0,0,0,.078.5,1.69,1.69,0,0,0,.378.634l-.171-.221v.014l-.1-.264c.043.121.093.228.142.349l-.107-.256c.057.15.121.3.192.442a2.1,2.1,0,0,0,.264.378,1.229,1.229,0,0,0,.349.285,1.977,1.977,0,0,0,.306.128,1.059,1.059,0,0,0,.577,0h-.5a1.3,1.3,0,0,0,.641,0,1.192,1.192,0,0,0,.37-.15,1.454,1.454,0,0,0,.549-.57,1.569,1.569,0,0,0,.142-.385,1.977,1.977,0,0,0,.043-.456,3.839,3.839,0,0,0-.114-.7.936.936,0,0,0-.413-.534.689.689,0,0,0-.335-.107.672.672,0,0,0-.356.014.914.914,0,0,0-.534.413l-.093.214a.905.905,0,0,0,0,.477h0Z" transform="translate(-1040.792 -539.207)" fill="#010d3d"/>
        <path id="Trazado_7035" data-name="Trazado 7035" d="M1099.532,576.974a1.135,1.135,0,0,1,.178.192l-.143-.178a1.025,1.025,0,0,1,.157.271l-.093-.214a.91.91,0,0,1,.057.2l-.036-.242a.776.776,0,0,1,0,.128l.036-.249a.293.293,0,0,1-.036.135l.093-.228a.839.839,0,0,1-.078.135l.15-.2s-.057.064-.093.1l.2-.157s-.064.036-.1.05l.242-.1a.767.767,0,0,1-.121.036l.278-.036h-.121l.285.036a.849.849,0,0,1-.1-.028l.264.114s-.021-.014-.036-.021l.228.178a.619.619,0,0,1-.114-.121l.185.235a1.558,1.558,0,0,1-.121-.207c-.043-.078-.085-.157-.121-.235l.128.3a1.206,1.206,0,0,1-.085-.313l.05.349v-.271l-.05.356a.644.644,0,0,1,.05-.192l-.135.328a.751.751,0,0,1,.085-.143l-.214.278a1.2,1.2,0,0,1,.157-.171l-.278.214a.519.519,0,0,1,.135-.078l-.328.135a.869.869,0,0,1,.128-.036l-.364.05h.135l-.363-.05a.574.574,0,0,1,.157.05l-.328-.135a.748.748,0,0,1,.085.05l-.271-.214.085.086-.207-.271a.61.61,0,0,1,.093.164l-.135-.314a.787.787,0,0,1,.05.185l-.05-.349a.874.874,0,0,1,0,.192l.043-.342a1.363,1.363,0,0,1-.085.335l.121-.292a.621.621,0,0,1-.036.071l-.121.292c-.014.114-.036.228-.043.349l.043-.321a.591.591,0,0,1-.014.071,1.147,1.147,0,0,0,0,.62,1.165,1.165,0,0,0,.3.513,1.206,1.206,0,0,0,.513.3,1.145,1.145,0,0,0,.62,0,1.675,1.675,0,0,0,.677-.4,2.623,2.623,0,0,0,.321-.42,1.776,1.776,0,0,0,.164-.378.35.35,0,0,0,.029-.093,2.188,2.188,0,0,0,.071-.527v-.086a4,4,0,0,0-.057-.42.254.254,0,0,0-.021-.078,2.4,2.4,0,0,0-.164-.392,1.988,1.988,0,0,0-.7-.72,1.668,1.668,0,0,0-.4-.164,2.2,2.2,0,0,0-.435-.057,1.554,1.554,0,0,0-.542.071,2.813,2.813,0,0,0-.4.171c-.028.014-.057.036-.085.05a1.885,1.885,0,0,0-.413.342,1.914,1.914,0,0,0-.42.741,2.056,2.056,0,0,0-.093.549,2.079,2.079,0,0,0,.064.556,2.006,2.006,0,0,0,.214.513,1.636,1.636,0,0,0,.15.235,4.254,4.254,0,0,0,.363.442,1.9,1.9,0,0,0,.435.321,1.55,1.55,0,0,0,.371.15,1.36,1.36,0,0,0,.677,0l-.3.043a1.805,1.805,0,0,0,.727-.192,1.164,1.164,0,0,0,.37-.3,1.675,1.675,0,0,0,.271-.392,1.713,1.713,0,0,0,.185-.677,1.437,1.437,0,0,0-.064-.492,1.827,1.827,0,0,0-.192-.456,2.368,2.368,0,0,0-.677-.705.687.687,0,0,0-.328-.107.647.647,0,0,0-.349.014.928.928,0,0,0-.456.313.821.821,0,0,0-.192.534.873.873,0,0,0,.257.62h0Z" transform="translate(-1032.997 -534.743)" fill="#010d3d"/>
        <path id="Trazado_7036" data-name="Trazado 7036" d="M1112.558,666.678l2.622,3.178.656.791a2.588,2.588,0,0,0,.62.656c.641.356,1.076-.214,1.347-.713.648-1.2,1.3-2.408,1.952-3.612l.976-1.81c.285-.527.827-1.183.705-1.8a.461.461,0,0,0-.563-.321c-.62.249-.891,1.119-1.2,1.682l-1.026,1.874c-.342.627-.684,1.247-1.019,1.874l-.527.969-.228.413-.15.278c-.107.121-.121.164-.029.128H1117c.15.043.05.021-.036-.078s-.171-.207-.249-.306l-.449-.549-.955-1.161-1.91-2.323c-.484-.584-1.311.249-.834.834h0Z" transform="translate(-1037.152 -560.158)" fill="#010d3d"/>
        <path id="Trazado_7037" data-name="Trazado 7037" d="M1106.325,665.048a9.478,9.478,0,0,1-3.171,3.677l.335-.093-.1.014.627.356c-.313-.613-.691-1.183-1.033-1.781s-.691-1.24-1.012-1.874-.613-1.233-.9-1.852-.47-1.532-1.076-1.917l.328.427-.05-.128a.741.741,0,0,0-.883-.5.72.72,0,0,0-.5.884l.05.128v-.385c-.157.755.42,1.56.734,2.223q.438.93.919,1.838a23.959,23.959,0,0,0,2.173,3.662c.292.378,1,.556,1.254,0,.064-.15.321-.292.442-.406.164-.15.321-.306.477-.47.307-.321.606-.656.884-1a11.738,11.738,0,0,0,1.439-2.266c.3-.62-.613-1.169-.934-.542h0Z" transform="translate(-1033.249 -559.676)" fill="#010d3d"/>
        <path id="Trazado_7038" data-name="Trazado 7038" d="M1091.969,786.534c2.807-.143,5.65.121,8.45.249,3.662.171,7.324.363,10.98.648q1.1.086,2.2.192a9.519,9.519,0,0,0,1.5.086.944.944,0,0,0,.249-1.845,4.838,4.838,0,0,0-1.4-.285c-.627-.071-1.233-.128-1.845-.192-1.667-.157-3.335-.285-5-.406-3.691-.271-7.389-.52-11.094-.584-1.339-.021-2.693-.071-4.04.021s-1.368,2.18,0,2.109h0Z" transform="translate(-1030.978 -595.041)" fill="#010d3d"/>
        <g id="Grupo_4666" data-name="Grupo 4666" transform="translate(41.468 290.929)">
          <path id="Trazado_7039" data-name="Trazado 7039" d="M1091.713,928.806a3.874,3.874,0,0,1,2.594,4.118,3.25,3.25,0,0,1-3.8,2.479c-.812-.157-1.568-.6-2.387-.741a6.55,6.55,0,0,0-2.415.178l-6.427,1.318a15.929,15.929,0,0,1-5.892.449,13.284,13.284,0,0,1-4.467-1.817,5.029,5.029,0,0,1-1.674-1.389,1.743,1.743,0,0,1-.135-1.966,2.17,2.17,0,0,1,1.254-.656c4.653-1.133,10.139.42,14.229-1.9a4.126,4.126,0,0,1,1.026-.492,3.724,3.724,0,0,1,1.019-.05l6.206.292" transform="translate(-1065.521 -927.358)" fill="#010d3d"/>
          <path id="Trazado_7040" data-name="Trazado 7040" d="M1090.865,929.542a2.578,2.578,0,0,1,1.525,3.185c-.776,1.6-2.451.941-3.7.513-1.9-.648-3.94.214-5.821.62-1.995.435-4,.869-6.014,1.218a9.75,9.75,0,0,1-5.885-.563,13.518,13.518,0,0,1-2.437-1.439,2.533,2.533,0,0,1-.713-.691,1.022,1.022,0,0,1-.128-.477c-.021.078-.043.007.157-.05,3.32-.948,6.9-.292,10.3-.72a14.325,14.325,0,0,0,2.793-.591,6.524,6.524,0,0,0,1.333-.584c.385-.242.719-.713,1.111-.9a3.46,3.46,0,0,1,1.411-.064c.577.007,1.147.021,1.724.05,1.261.057,2.529.128,3.79.121a.9.9,0,0,0,0-1.788c-1.261-.128-2.529-.178-3.79-.235a10.27,10.27,0,0,0-6.584.77,13.476,13.476,0,0,1-3.192.534c-2.123.128-4.254,0-6.377.178-1.938.164-5.13.385-5.365,2.893s2.337,3.783,4.254,4.653a12.544,12.544,0,0,0,6.9,1.133c2.565-.313,5.073-1,7.61-1.468a9.159,9.159,0,0,1,3.484-.3c1.154.235,2.23.876,3.47.826a4.549,4.549,0,0,0,4.368-4.047,5.149,5.149,0,0,0-3.591-5.016c-1.432-.5-2.016,1.739-.62,2.251h0Z" transform="translate(-1064.979 -926.968)" fill="#010d3d"/>
        </g>
        <g id="Grupo_4667" data-name="Grupo 4667" transform="translate(84.023 288.112)">
          <path id="Trazado_7041" data-name="Trazado 7041" d="M1148.762,924.43a6.405,6.405,0,0,1,4.1,3.185,4.112,4.112,0,0,1-.591,4.731,3.5,3.5,0,0,1-4.681-.135c-4.6,4.539-12.177,5.857-18.6,3.242-1.29-.527-2.729-1.489-2.75-2.829-.021-1.674,2.052-2.28,3.712-2.458l6.683-.705a4.015,4.015,0,0,0,1.917-.527,7.9,7.9,0,0,0,1.126-1.211c2.1-2.209,6.106-1.09,8.864-2.465" transform="translate(-1125.146 -923.422)" fill="#010d3d"/>
          <path id="Trazado_7042" data-name="Trazado 7042" d="M1148.05,925c1.845.549,3.655,2.444,3.534,4.489s-2.13,2.558-3.562,1.439a1.269,1.269,0,0,0-1.945.249c-1.7,2.23-4.895,3.391-7.552,3.9a17.054,17.054,0,0,1-8.921-.741c-.784-.278-3.078-1.112-2.665-2.33.328-.969,2.3-1.047,3.107-1.126,1.931-.2,3.869-.392,5.8-.591a7.759,7.759,0,0,0,2.38-.47,5.539,5.539,0,0,0,1.86-1.66,5.412,5.412,0,0,1,.734-.819,2.827,2.827,0,0,1,.948-.356,15.455,15.455,0,0,1,2.287-.371,13.388,13.388,0,0,0,4.517-.969c1.062-.506.135-2.052-.919-1.568a14.867,14.867,0,0,1-4.71.848,10.749,10.749,0,0,0-2.223.427,6.533,6.533,0,0,0-2.145.969c-.656.57-.912,1.275-1.824,1.461-1.1.221-2.252.264-3.363.385a30.348,30.348,0,0,0-5.736.777c-1.4.442-2.757,1.339-2.928,2.914-.192,1.724,1.2,3.05,2.615,3.783a18.163,18.163,0,0,0,10.018,1.653,18.9,18.9,0,0,0,5.607-1.468,27.1,27.1,0,0,0,4.817-2.957l-1.5-.192c2.387,2.651,6.925,1.2,7.759-2.088a5.823,5.823,0,0,0-.976-4.824,8.155,8.155,0,0,0-4.467-2.708,1.013,1.013,0,0,0-.534,1.952h0Z" transform="translate(-1124.705 -923.015)" fill="#010d3d"/>
        </g>
        <path id="Trazado_7043" data-name="Trazado 7043" d="M1102.757,582.792c-2.615,1.625-5.28,3.164-7.916,4.774-1.318.805-2.622,1.617-3.983,2.344s-2.665,1.318-3.912,2.109l-1.959,1.233a7.669,7.669,0,0,0-1.617,1.112c-1.012,1.062-.563,2.608-.2,3.855.677,2.287,1.86,5.237,4.289,6.071a.841.841,0,0,0,1.026-1.026,9.783,9.783,0,0,0-1.34-2.871,12.549,12.549,0,0,1-1.254-2.921c-.086-.285-.157-.57-.221-.862-.036-.143-.064-.292-.093-.435-.021-.221-.05-.192-.071.086.513-.285,1-.648,1.5-.962a29.174,29.174,0,0,0,3.3-2.358,65.669,65.669,0,0,1,6.484-4.5c2.166-1.439,4.4-3.014,6.648-4.475.719-.47.064-1.625-.677-1.161h0Z" transform="translate(-1028.62 -537.063)" fill="#010d3d"/>
        <path id="Trazado_7044" data-name="Trazado 7044" d="M1090.028,628.411a2.2,2.2,0,0,1,.014-.306.766.766,0,0,1,.007-.128v-.036c.007-.057,0-.043,0,.043-.014-.029.021-.114.028-.143.021-.086,0,.014-.021.036a.214.214,0,0,0,.029-.057l.085-.128c.021-.029.093-.107,0-.007l-.043.029c.05-.029.043-.021-.021,0,.107-.029-.1-.007.014,0-.128-.014-.014,0,.014.014-.107-.029-.014,0,.014.014-.05-.036-.05-.036-.007,0s.036.043.014.014c-.021-.064-.028-.078-.007,0l.043.15c.028.093.043.185.064.285.05.228.086.463.121.691l.014.085q-.021-.15,0,.021c.014.114.014.121,0,.014a.554.554,0,0,0,.014.107c.014.107.029.221.036.328s.014.221.029.328a1.685,1.685,0,0,0,.05.321,1.038,1.038,0,0,0,.242.442.762.762,0,0,0,.748.2.782.782,0,0,0,.542-.542,1.845,1.845,0,0,0-.2-1.161c-.107-.3-.228-.591-.349-.883-.1-.235-.192-.477-.313-.7a1.572,1.572,0,0,0-.157-.221h0c-.036-.05-.071-.093-.107-.135a1.174,1.174,0,0,0-.306-.257,1,1,0,0,0-.919-.028,1.135,1.135,0,0,0-.435.463,2.168,2.168,0,0,0-.185,1.126.482.482,0,0,0,.477.477.492.492,0,0,0,.477-.477h0Z" transform="translate(-1030.44 -549.714)" fill="#010d3d"/>
        <path id="Trazado_7045" data-name="Trazado 7045" d="M1101.46,642.823c.171,1.653.164,3.313.292,4.973s.285,3.32.506,4.973a4.355,4.355,0,0,0,.5,1.995,5.309,5.309,0,0,0,1.5,1.183c1.368.848,2.75,1.681,4.118,2.522a.749.749,0,0,0,.762,0,12.925,12.925,0,0,0,2.978-2.765c.442-.542.855-1.1,1.254-1.667a2.673,2.673,0,0,0,.755-1.781,10.088,10.088,0,0,0-.684-2.088c-.271-.777-.534-1.56-.8-2.337-.52-1.56-1.09-3.121-1.453-4.724-.256-1.133-2.13-.591-1.724.477,1.012,2.622,1.781,5.337,2.779,7.973a3.4,3.4,0,0,1,.321.912c.007.278-.121.4-.285.634-.356.506-.713,1-1.1,1.482a11.121,11.121,0,0,1-2.807,2.579h.762c-1.261-.8-2.594-1.539-3.8-2.415a2.249,2.249,0,0,1-.349-.285c-.135-.214-.192-.207-.192.028l.043-.3c-.021-.178-.05-.349-.071-.527-.128-.7-.228-1.389-.328-2.095q-.31-2.18-.7-4.353c-.278-1.539-.684-3.042-.919-4.6-.114-.755-1.425-.584-1.347.185h0Z" transform="translate(-1033.999 -554.151)" fill="#010d3d"/>
        <path id="Trazado_7046" data-name="Trazado 7046" d="M1089.139,680.544c.135,5.921.449,11.813.705,17.727a132.305,132.305,0,0,1-.192,17.478q-.224,2.565-.6,5.109c-.128.848-.264,1.689-.42,2.529a4.412,4.412,0,0,0-.164,2.059.292.292,0,0,0,.484.128c.791-.926.819-2.594,1.019-3.762.242-1.4.442-2.793.6-4.2.328-2.943.5-5.907.556-8.864.121-6.028-.2-12.048-.542-18.062-.192-3.391-.556-6.762-.755-10.146-.028-.435-.7-.442-.684,0h0Z" transform="translate(-1030.242 -565.097)" fill="#010d3d"/>
        <g id="Grupo_4668" data-name="Grupo 4668" transform="translate(50.876 159.793)">
          <path id="Trazado_7047" data-name="Trazado 7047" d="M1089.408,746.967c-3.007-.955-5.843-3.954-9.206-2.914-2.016.634-1.233,3.684.328,4.439,1.076.584,2.465.463,3.477,1.161a3.463,3.463,0,0,0,3.185.94c2.073.285,4.9-2.715,1.967-3.6" transform="translate(-1078.416 -743.182)" fill="#fff"/>
          <path id="Trazado_7048" data-name="Trazado 7048" d="M1089.3,746.24c-2.294-.8-4.161-2.536-6.548-3.114a4.838,4.838,0,0,0-3.534.256,2.531,2.531,0,0,0-1.026,2.351,4.04,4.04,0,0,0,1.112,2.437,6.125,6.125,0,0,0,3.106,1.218,3.359,3.359,0,0,1,.862.306c.285.157.513.413.784.591a3.955,3.955,0,0,0,1.71.613,9.146,9.146,0,0,0,1.653-.014,3.754,3.754,0,0,0,1.382-.392,3.413,3.413,0,0,0,1.867-2.08,1.861,1.861,0,0,0-1.61-2.159.507.507,0,0,0-.271.976c.542.221,1.062.513.77,1.147a2.721,2.721,0,0,1-1.446,1.254,2.4,2.4,0,0,1-.976.185,7.568,7.568,0,0,1-1.5.007,2.735,2.735,0,0,1-1.283-.6,3.912,3.912,0,0,0-1.453-.791,7.4,7.4,0,0,1-2.651-.869,2.527,2.527,0,0,1-.891-1.774,1.16,1.16,0,0,1,.784-1.318,4.3,4.3,0,0,1,2.679-.071c2.216.584,4.047,2.109,6.234,2.779.6.185.841-.727.256-.933h0Z" transform="translate(-1078.182 -742.919)" fill="#010d3d"/>
        </g>
        <g id="Grupo_4670" data-name="Grupo 4670" transform="translate(0 117.497)">
          <path id="Trazado_7049" data-name="Trazado 7049" d="M1064.941,741.7c-.392-2.536-.805-5.066-1.133-7.609q-.748-5.664-1.268-11.35a226.069,226.069,0,0,0-3.064-22.422,98.386,98.386,0,0,0-3.32-12.248.573.573,0,0,0-.542-.406q-2.49.032-4.966.078a.483.483,0,0,0-.477.591h-.036l-.043-.164c-.178-.734-.363-1.461-.542-2.195a5.823,5.823,0,0,0-.577-1.931c-.656-.926-2.351-.271-3.242-.135l-4.731.748q-9.362,1.486-18.739,2.95c-1.753.278-3.5.556-5.251.826-1.432.228-3.021.285-4.261,1.112a.636.636,0,0,0-.221.841c.1.242.185.484.278.727a3.232,3.232,0,0,0-2.5,1.033.514.514,0,0,0-.449.634q.459,1.977.94,3.94c-1.1.036-2.209.071-3.306.178a.709.709,0,0,0-.677.891,330.95,330.95,0,0,0,13,32.433c.143.321.577.242.748.007q.78,2.383,1.575,4.767c1.318,3.976,2.65,7.959,4.068,11.9a.824.824,0,0,0,.762.584c6.505.385,12.989,1.076,19.487,1.546a74.884,74.884,0,0,0,18.9-.57.778.778,0,0,0,.57-.748c-.257-2.016-.6-4.019-.976-6.006Z" transform="translate(-1006.778 -683.557)" fill="#fff"/>
          <g id="Grupo_4669" data-name="Grupo 4669" transform="translate(0.001 0.009)">
            <path id="Trazado_7050" data-name="Trazado 7050" d="M1011.091,695.834c1.653,7.146,3.491,14.236,5.607,21.261s4.368,14,6.676,20.955c1.325,3.976,2.651,7.952,4.068,11.9a.809.809,0,0,0,.748.57c6.505.385,12.989,1.083,19.487,1.546s12.647.584,18.889-.57a.761.761,0,0,0,.556-.727A192.731,192.731,0,0,0,1063.1,731.1l-4.688-19.865-2.365-10.018c-.584-2.465-1.062-5.194-4.09-5.429-1.617-.121-3.27-.021-4.888-.036-1.71-.014-3.413-.043-5.123-.078q-5.119-.107-10.239-.349-5.643-.257-11.279-.67c-1.917-.142-3.833-.321-5.75-.456a3.433,3.433,0,0,0-3.32,1.233c-.492.7.641,1.582,1.19.919.741-.891,2.487-.449,3.477-.363,1.582.135,3.171.256,4.752.37q4.756.342,9.519.584,9.523.47,19.067.527c1.133,0,3.121-.356,3.912.677.748.976.876,2.544,1.147,3.705l2.18,9.334,4.368,18.668q1.208,5.173,2.444,10.331a102.015,102.015,0,0,1,2.2,10.581l.556-.727c-6.213,1.161-12.562.983-18.832.542s-12.782-.941-19.145-1.61l.748.57c-2.159-7-4.524-13.944-6.776-20.919s-4.36-13.994-6.5-21.012c-1.218-4.011-2.437-8.009-3.57-12.048a.525.525,0,0,0-1.012.278h0Z" transform="translate(-1008.012 -686.621)" fill="#00b2e3"/>
            <path id="Trazado_7051" data-name="Trazado 7051" d="M1016.29,691.386c-.143-.492-.249-.969-.356-1.468l-.285.7c1.325-.933,3.27-.948,4.824-1.2l5.251-.826c3.677-.577,7.353-1.161,11.037-1.731l10.859-1.7c.57-.093,2.259-.648,2.722-.207.2.185.249,1.076.313,1.354.107.449.207.9.313,1.354.42,1.8.848,3.605,1.268,5.408.192.812,1.461.47,1.254-.349-.37-1.518-.755-3.028-1.126-4.546-.178-.734-.356-1.461-.542-2.187a5.937,5.937,0,0,0-.57-1.931c-.663-.933-2.351-.278-3.249-.135l-4.731.748q-9.373,1.486-18.739,2.95l-5.251.826c-1.432.228-3.021.285-4.261,1.112a.636.636,0,0,0-.221.841c.178.42.335.834.484,1.268a.518.518,0,0,0,1-.278h0Z" transform="translate(-1009.065 -683.57)" fill="#00b2e3"/>
            <path id="Trazado_7052" data-name="Trazado 7052" d="M1068.139,690.39l4.966.043-.542-.413c.955,3.662,1.6,7.389,2.308,11.1s1.3,7.51,1.8,11.279c1,7.5,1.717,15.041,2.743,22.544a89.161,89.161,0,0,0,2.351,12.554c.235.812,1.347.456,1.233-.342-.542-3.812-1.233-7.6-1.731-11.421s-.926-7.56-1.268-11.35c-.677-7.5-1.639-15.027-3.064-22.422a98.314,98.314,0,0,0-3.306-12.248.58.58,0,0,0-.542-.413l-4.966.078a.5.5,0,0,0,0,1h0Z" transform="translate(-1024.277 -685.217)" fill="#00b2e3"/>
            <path id="Trazado_7053" data-name="Trazado 7053" d="M1020.6,735.2q-6.487-16.127-12.433-32.476l-.492.862a28.011,28.011,0,0,1,3.356-.335.617.617,0,0,0,0-1.233c-1.183.036-2.365.064-3.541.185a.712.712,0,0,0-.677.891q5.7,16.534,13,32.433c.207.442.976.121.791-.335h0Z" transform="translate(-1006.779 -688.874)" fill="#00b2e3"/>
          </g>
        </g>
        <g id="Grupo_4671" data-name="Grupo 4671" transform="translate(11.191 97.74)">
          <path id="Trazado_7054" data-name="Trazado 7054" d="M1029.254,758.039c-.021-.05-.036-.1-.057-.142a3.942,3.942,0,0,0,.77-.164.977.977,0,0,0,.684-.9.954.954,0,0,0-.684-.9c-.078-.021-.15-.05-.228-.071a1.087,1.087,0,0,0-.235-.2c-.064-.036-.135-.064-.2-.1a7.086,7.086,0,0,0,1.453-.278.955.955,0,0,0-.249-1.867,7.276,7.276,0,0,1-2.465-.755c-.085-.029-.171-.05-.256-.071h.057l2.3.107c1.047.028,1.033-1.56,0-1.625l-1.468-.086a19.841,19.841,0,0,1-2.879-.463.769.769,0,0,0-.948.584,1.172,1.172,0,0,0-.356,1.29,1.69,1.69,0,0,0,.264.484,1.012,1.012,0,0,0-.591.648,1.031,1.031,0,0,0,.456,1.119,9.487,9.487,0,0,0,1.446.848,1.78,1.78,0,0,0,.363,1.5,1.922,1.922,0,0,0,.869.591v.021a2.542,2.542,0,0,0,.371,1.318.907.907,0,0,0,.085.713,2.237,2.237,0,0,0,1.788,1.354,1.521,1.521,0,0,0,.862-.235c.029-.014.057-.021.086-.036a1.327,1.327,0,0,0,.584-1.568,1.776,1.776,0,0,0-1.831-1.126Z" transform="translate(-1022.958 -683.046)" fill="#fff"/>
          <path id="Trazado_7055" data-name="Trazado 7055" d="M1089.385,749.5a1.541,1.541,0,0,0-1.432-1.09q-6.819-.192-13.637.021c-1.838.057-1.845,2.9,0,2.864.77-.014,1.539-.021,2.308-.028a.985.985,0,0,0,0,.556,27.719,27.719,0,0,0-3.577.591,1.02,1.02,0,0,0,0,1.952c.741.2,1.489.4,2.237.6-.256.071-.506.135-.762.207a1.021,1.021,0,0,0,0,1.952,11.855,11.855,0,0,0,2.038.456l.228.021a1.336,1.336,0,0,0-.47.542c-.349.784.235,1.9,1.211,1.575,1.71-.556,3.463-.292,5.223-.356a13.131,13.131,0,0,0,2.836-.342,6.694,6.694,0,0,1,2.43-.577,1.507,1.507,0,0,0,1.446-1.1,12.567,12.567,0,0,0-.093-7.845Z" transform="translate(-1036.813 -682.419)" fill="#fff"/>
          <path id="Trazado_7056" data-name="Trazado 7056" d="M1083.073,747.53c-1.674.043-3.349.107-5.023.178a38.539,38.539,0,0,0-5.2.235c-1.3.242-2.736,1.767-1.625,3.057a3.719,3.719,0,0,0,2.259.876,19.556,19.556,0,0,0,3.534.278.617.617,0,0,0,0-1.233,21.824,21.824,0,0,0-6.185.819.639.639,0,0,0-.463.606c.264,3.171,3.655,3.634,6.192,3.213.67-.107.513-1.225-.157-1.183-1,.057-4.895.306-4.118,2.13.328.77,1.311.969,2.038,1.133a14.462,14.462,0,0,0,3.32.321v-1.2c-1,.114-2.679.841-2.622,2.1.071,1.461,2.43,1.2,3.356,1.211a40.875,40.875,0,0,0,11.421-1.332.681.681,0,0,0-.363-1.311,41.205,41.205,0,0,1-7.674,1.34,31.064,31.064,0,0,1-3.733.085,6.508,6.508,0,0,1-1.753-.128c-.1-.356,1.176-.755,1.354-.777.741-.085.791-1.211,0-1.2a11.8,11.8,0,0,1-3.456-.442c-.135-.036-.435-.071-.456-.207a6.158,6.158,0,0,1,.769-.235,10.078,10.078,0,0,1,1.9-.3l-.157-1.183c-1.646.292-4.439.178-4.617-2.052l-.463.606a21.707,21.707,0,0,1,5.857-.8v-1.233a16.741,16.741,0,0,1-2.857-.228c-.478-.078-1.91-.15-2.016-.727-.214-1.176,3.477-.976,4.075-1,2.287-.121,4.567-.271,6.854-.378a.524.524,0,0,0,0-1.047h0Z" transform="translate(-1036.251 -682.191)" fill="#010d3d"/>
          <path id="Trazado_7057" data-name="Trazado 7057" d="M1140.123,685.612c-4.154-23.8-23.527-35.981-21.617-26.626,1.176,5.771,1.553,11.307,2.857,16.651,1.774,9.241,5.244,19.209,3.014,28.571-2.879,6.092-8.707,11.151-14.841,13.8-5.315,1.938-11.108,1-16.509,2.472-2.415,1.617-.862,9.833-1.076,12.8.043.6.542,1.325,1.24,1.233,24.068-1.717,50-22.059,46.933-48.913Z" transform="translate(-1042.37 -655.827)" fill="#64d8cc"/>
          <path id="Trazado_7058" data-name="Trazado 7058" d="M1094.721,755.791a55.363,55.363,0,0,0,21.361-5.337,37.225,37.225,0,0,0,8.294-4.788,50.186,50.186,0,0,0,6.227-6.32,53.046,53.046,0,0,0,4.973-6.448c.292-.477-.42-1.062-.791-.613-1.432,1.739-2.722,3.6-4.161,5.337a59.071,59.071,0,0,1-5.928,6.306,31.531,31.531,0,0,1-7.574,4.831,63.3,63.3,0,0,1-10.153,3.976,48.953,48.953,0,0,1-12.255,2c-.677.021-.684,1.076,0,1.055h0Z" transform="translate(-1043.103 -677.762)" fill="#010d3d"/>
          <path id="Trazado_7059" data-name="Trazado 7059" d="M1094.9,728.928c8.5-1.852,17.335-4.011,24.474-9.241a13.534,13.534,0,0,0,4.118-4.453,24.237,24.237,0,0,0,2.059-6.113,57.883,57.883,0,0,0,1.4-13.922,56.991,56.991,0,0,0-.734-7.709c-.207-1.3-.435-2.6-.755-3.883a12.369,12.369,0,0,0-1.332-3.819.29.29,0,0,0-.534.143,13.639,13.639,0,0,0,.527,3.014c.271,1.176.513,2.365.734,3.555a54.624,54.624,0,0,1,.748,6.719,56.755,56.755,0,0,1-.862,13.63,35.945,35.945,0,0,1-1.6,6.163,12.218,12.218,0,0,1-3.762,5.137,39.457,39.457,0,0,1-11.2,6.014,107.162,107.162,0,0,1-13.552,3.748c-.663.15-.385,1.161.278,1.019h0Z" transform="translate(-1043.116 -662.677)" fill="#010d3d"/>
          <path id="Trazado_7060" data-name="Trazado 7060" d="M1024.206,750.68c1.268.107,2.536.214,3.8.328a3.644,3.644,0,0,1,1.51.328.7.7,0,0,1,.292.285.664.664,0,0,1,.021.064c.078.107-.021.036.014-.036-.021.043-.043.086-.029.078a.965.965,0,0,1-.827.314,11.337,11.337,0,0,1-1.475-.007,10.614,10.614,0,0,1-1.389-.228,7.874,7.874,0,0,1-1.489-.427,2.817,2.817,0,0,1-.406-.256,1.727,1.727,0,0,1-.228-.228c.1.121-.043-.093-.021-.036-.071-.178.043-.064-.021-.007.014-.014.036-.057.057-.064a1.5,1.5,0,0,1,.249-.093,1.547,1.547,0,0,0,.406-.107,1.475,1.475,0,0,0,.313-.242.331.331,0,0,0,.085-.328.8.8,0,0,0-.777-.577,2.162,2.162,0,0,0-1.1.285,1.479,1.479,0,0,0-.484,2.073,3.511,3.511,0,0,0,1.439,1.254,6.652,6.652,0,0,0,2.194.705,5.187,5.187,0,0,0,3.983-.634,1.5,1.5,0,0,0,.6-1.653,1.848,1.848,0,0,0-1.2-1.2,9.042,9.042,0,0,0-2.629-.306c-.962-.05-1.924-.114-2.886-.171-.584-.036-.577.862,0,.9h0Z" transform="translate(-1022.484 -682.74)" fill="#010d3d"/>
          <path id="Trazado_7061" data-name="Trazado 7061" d="M1026.241,750.533a14.717,14.717,0,0,1,1.774.207c.292.05.584.114.876.185l.427.107a1.514,1.514,0,0,0,.527.107.515.515,0,0,0,.47-.313.5.5,0,0,0-.107-.563,2.557,2.557,0,0,0-1-.371c-.313-.078-.627-.143-.94-.2a17.548,17.548,0,0,0-2.031-.242.542.542,0,0,0,0,1.083Z" transform="translate(-1023.409 -682.743)" fill="#010d3d"/>
          <path id="Trazado_7062" data-name="Trazado 7062" d="M1024.353,753.728a1.312,1.312,0,0,0-.983,1.219,1.562,1.562,0,0,0,.9,1.233,8.033,8.033,0,0,0,3.883.862c1.14,0,2.779-.078,3.62-.969a1.175,1.175,0,0,0,.185-1.4,1.628,1.628,0,0,0-1.5-.791.625.625,0,0,0-.542.313l-.029.057a.527.527,0,0,0,0,.542.777.777,0,0,0,.57.356,1.287,1.287,0,0,1,.4.114c.014.007.171.15.121.036-.036-.071.036-.05,0-.021-.071.057-.1.1-.178.157a4.776,4.776,0,0,1-2.43.527,8.559,8.559,0,0,1-2.651-.313c-.214-.057-1.867-.627-1.083-.926.606-.235.349-1.218-.271-.983h0Z" transform="translate(-1022.739 -683.965)" fill="#010d3d"/>
          <path id="Trazado_7063" data-name="Trazado 7063" d="M1025.856,757.109a1.622,1.622,0,0,0-.342,2.081,3.2,3.2,0,0,0,1.959,1.254,7.53,7.53,0,0,0,2.494.249c.834-.057,2.266-.2,2.294-1.3a1.827,1.827,0,0,0-.734-1.3c-.192-.178-.4-.342-.606-.506a1.329,1.329,0,0,0-.9-.406c-.406.036-.848.42-.67.876a.964.964,0,0,0,.37.513c.086.064.178.114.271.178a4.866,4.866,0,0,1,.449.321,2.593,2.593,0,0,1,.406.385c-.036-.05-.028-.043.014.028l-.014-.05c.036.164.057.078.057-.256a.391.391,0,0,1,.043-.057c0,.028-.093.043-.15.057-.093.028-.192.05-.285.071a3.122,3.122,0,0,1-.463.064,7.389,7.389,0,0,1-1.19.007,5.411,5.411,0,0,1-1.026-.171,2.613,2.613,0,0,1-.812-.313,1.221,1.221,0,0,1-.335-.264q-.075-.086-.021-.021l-.064-.107c-.093-.142.029.093-.021-.057-.014-.078-.021-.071,0,.007v-.107c0,.143,0,0,.014-.043h0l.064-.107c-.05.078.1-.1.121-.121.6-.57-.3-1.461-.9-.9h0Z" transform="translate(-1023.287 -684.895)" fill="#010d3d"/>
          <path id="Trazado_7064" data-name="Trazado 7064" d="M1027.811,761.369a3.122,3.122,0,0,0,2.572,3.391,3.489,3.489,0,0,0,2.252-.185,1.092,1.092,0,0,0,.62-1.04,2.565,2.565,0,0,0-.356-1.083,3.929,3.929,0,0,0-.741-.912,6.663,6.663,0,0,0-.556-.449,2.078,2.078,0,0,0-.727-.4.679.679,0,0,0-.656,1.126,2.17,2.17,0,0,0,.47.335c.057.036.121.078.178.121l.107.078a4.747,4.747,0,0,1,.606.591c.05.057-.014-.014-.021-.021a.6.6,0,0,1,.05.071c.029.043.064.093.093.143s.064.107.093.164c.014.021.021.05.036.071.05.071-.029-.1-.007-.021a1.384,1.384,0,0,0,.086.292c.021.028,0-.043.014-.093a.246.246,0,0,1,.085-.15c-.064.064.128-.064,0,0-.021.014-.15.071-.064.036s-.086.029-.114.036l-.164.043c-.028,0-.057.014-.085.014s-.135.014-.057.007a1.4,1.4,0,0,1-.157.007H1031c-.043,0-.256-.028-.128-.007a4,4,0,0,1-.42-.093c-.071-.021-.15-.05-.221-.078s0,0,.007,0c-.036-.014-.071-.036-.107-.05a3.223,3.223,0,0,1-.3-.171c-.021-.014-.164-.121-.107-.078s-.071-.057-.093-.078a1.843,1.843,0,0,1-.556-.727c.043.093-.021-.071-.029-.1a.988.988,0,0,1-.043-.2c.021.121,0-.071,0-.121v-.086c0-.1-.029.143,0-.036a.625.625,0,1,0-1.2-.335h0Z" transform="translate(-1024.002 -685.97)" fill="#010d3d"/>
          <path id="Trazado_7065" data-name="Trazado 7065" d="M1078.612,758.188a7.776,7.776,0,0,0,3.007-.256.443.443,0,0,0,.313-.413.428.428,0,0,0-.313-.413,11.81,11.81,0,0,0-1.731-.135c-.271,0-.542.007-.812.029-.143.007-.292.021-.435.036a1.126,1.126,0,0,0-.506.121.4.4,0,0,0,.093.72.956.956,0,0,0,.449,0c.135-.014.271-.021.406-.036.257-.014.52-.021.784-.021a10.173,10.173,0,0,1,1.539.114v-.827a7.017,7.017,0,0,1-2.779.221.436.436,0,0,0-.435.435.446.446,0,0,0,.435.435h0Z" transform="translate(-1038.43 -684.905)" fill="#010d3d"/>
          <path id="Trazado_7066" data-name="Trazado 7066" d="M1079.969,761.538c.485-.05.976-.086,1.468-.1.235-.007.47-.014.705-.014h.378a.672.672,0,0,0,.549-.178.48.48,0,0,0,0-.67c-.235-.242-.62-.178-.933-.171-.235,0-.47.014-.705.028-.491.029-.976.064-1.468.121a.5.5,0,0,0-.492.492c.014.242.221.52.492.492h0Z" transform="translate(-1038.867 -685.889)" fill="#010d3d"/>
          <path id="Trazado_7067" data-name="Trazado 7067" d="M1079.33,753.151c.086-.021.171-.043.264-.057.036,0,.078-.021.114-.021h.029a4.114,4.114,0,0,1,.513-.014c.085,0,.164.007.249.014.014,0,.15.014.028,0a1.059,1.059,0,0,1,.135.021,3.022,3.022,0,0,1,.5.128l.128-.933-.855-.057a1.573,1.573,0,0,0-.485.014,1.289,1.289,0,0,0-.413.192.26.26,0,0,0-.05.406,1.371,1.371,0,0,0,.356.242,1.427,1.427,0,0,0,.577.1l.869.05a.469.469,0,0,0,.463-.413.481.481,0,0,0-.342-.52,4.315,4.315,0,0,0-2.33-.057.473.473,0,0,0-.328.57.486.486,0,0,0,.57.328h0Z" transform="translate(-1038.656 -683.509)" fill="#010d3d"/>
        </g>
        <path id="Trazado_7068" data-name="Trazado 7068" d="M1177.2,585.835a7.253,7.253,0,0,0-3.484-.9,7.675,7.675,0,0,0-1.76.214c-.727.178-1.746.606-1.9,1.439l.3-.513a1.183,1.183,0,0,0-.249,1.439,1.24,1.24,0,0,0,1.382.506l-.9-.114a2.564,2.564,0,0,0,1.974-.036c.114-.028.235-.057.356-.078a1.53,1.53,0,0,1,.178-.028c.15-.021.121-.021-.1.014a1.626,1.626,0,0,0,.363-.029c.107,0,.214-.007.321-.007s.214,0,.321.007c.064,0,.307.064.363.029-.221-.029-.256-.036-.1-.014.057.007.121.021.178.028.107.021.207.043.306.071.221.057.435.128.648.207.142.057.114.043-.085-.036a1.751,1.751,0,0,1,.164.078,3.508,3.508,0,0,1,.321.171,1.4,1.4,0,1,0,1.411-2.422h0Z" transform="translate(-1053.691 -537.705)" fill="#010d3d"/>
        <path id="Trazado_7069" data-name="Trazado 7069" d="M1177.144,581.53a9.434,9.434,0,0,1-1.09.976l.278-.214c-.271.207-.556.4-.841.577s-.563.292-.834.456a2.845,2.845,0,0,0-.591.442c-.1.107-.192.228-.285.335a7.462,7.462,0,0,0-.677.748.63.63,0,0,0,.228.869,4.071,4.071,0,0,0,1.5.278,3.248,3.248,0,0,0,1.838-.613,10.852,10.852,0,0,0,2.394-1.945,1.37,1.37,0,0,0,0-1.909,1.35,1.35,0,0,0-1.91,0h0Z" transform="translate(-1054.57 -536.614)" fill="#010d3d"/>
      </g>
    </g>
    <g id="Grupo_4674" data-name="Grupo 4674" transform="translate(689.279 299.35)">
      <line id="Línea_433" data-name="Línea 433" x2="3.074" transform="translate(0 0)" fill="none" stroke="#99e0f4" stroke-linecap="round" stroke-width="3"/>
      <line id="Línea_434" data-name="Línea 434" x2="324.021" transform="translate(9.155 0)" fill="none" stroke="#99e0f4" stroke-linecap="round" stroke-width="3" stroke-dasharray="0 0 9.89 9.89"/>
      <line id="Línea_435" data-name="Línea 435" x2="3.074" transform="translate(336.22 0)" fill="none" stroke="#99e0f4" stroke-linecap="round" stroke-width="3"/>
    </g>
  </g>
</svg>
