<svg xmlns="http://www.w3.org/2000/svg" width="240" height="154.66" viewBox="0 0 240 154.66"><g id="IICE_LandingCompliance_automatizar_tareas1" transform="translate(-69.965 -241.654)" style="mix-blend-mode: normal;isolation: isolate"><g id="a" transform="translate(69.965 241.655)"><g id="Grupo_3439" data-name="Grupo 3439"><g id="Grupo_3432" data-name="Grupo 3432" transform="translate(85.028)"><path id="Trazado_5670" data-name="Trazado 5670" d="M342.466,411.471a33.617,33.617,0,0,0-11.651-3.627,19.352,19.352,0,0,0-5.915.332,10.326,10.326,0,0,0-5.567,2.7,2.357,2.357,0,0,0-.613,2.007,1.3,1.3,0,0,0-.2.782v.028a1.573,1.573,0,0,0,.776,1.349,5.807,5.807,0,0,0,3.84.529,13.112,13.112,0,0,0,1.6-.4c.259-.079.523-.169.787-.225.073-.017.124-.028.163-.039,0,.011.022.022.067.039a23.474,23.474,0,0,1,2.806,1.439c1.13.59,2.232,1.22,3.346,1.839a2.163,2.163,0,0,0,2.935-2.935c-.028-.051-.062-.1-.09-.146a12.575,12.575,0,0,1,4.943,3.166,1.905,1.905,0,0,0,2.963-.382,3.33,3.33,0,0,0-.152-3.424,1.771,1.771,0,0,0-.039-3.025Z" transform="translate(-263.788 -314.356)" fill="#fff"/><path id="Trazado_5671" data-name="Trazado 5671" d="M339,410.848c.562.3,1.08.647,1.648.933a10.171,10.171,0,0,1,1.76,1.063,11.519,11.519,0,0,1,2.688,2.935l.3-1.136c-2.17,1.141-5-.7-7.029-1.445a15.447,15.447,0,0,0-7.709-.978c-.725.112-.782,1.2-.2,1.524a19.287,19.287,0,0,1,2.519,1.659,7.9,7.9,0,0,1,2.007,1.979c.118.2.4.675.225.911-.231.3-.967.135-1.288.09a7.064,7.064,0,0,1-2.721-1.012c-1.535-.967-2.693-2.452-4.706-2.1-1.563.276-3.211,2-4.779.894-.619-.433-1.406.41-1.023,1.023a2.548,2.548,0,0,0,2.75.978,27.518,27.518,0,0,0,3.053-1.181c1.254-.365,2.12.523,3.042,1.237a8.724,8.724,0,0,0,3.149,1.569c1.046.27,2.435.529,3.385-.129a2.1,2.1,0,0,0,.534-2.643,7.237,7.237,0,0,0-2.193-2.547,20.2,20.2,0,0,0-3.121-2.165l-.2,1.524a15.257,15.257,0,0,1,8.029,1.423c2.266.928,4.723,2.148,7.1.832a.84.84,0,0,0,.3-1.136,10.81,10.81,0,0,0-3.216-3.25,12.3,12.3,0,0,0-1.962-1.029,5.291,5.291,0,0,0-2.21-.349.292.292,0,0,0-.146.54h0Z" transform="translate(-264.696 -315.482)" fill="#010d3d"/><path id="Trazado_5672" data-name="Trazado 5672" d="M352.49,420.08c.641.529,2.041,1.1,1.85,2.148-.2,1.147-1.456-.141-1.816-.484a11.061,11.061,0,0,0-2.62-1.974,4.539,4.539,0,0,0-3.554-.309.807.807,0,0,0-.371.917.852.852,0,0,0,.782.6c.455.056.978-.073,1.417-.023a4.077,4.077,0,0,1,1.153.315,8.835,8.835,0,0,1,2.333,1.771c.815.748,1.878,1.518,3.008.939a2.1,2.1,0,0,0,.855-2.474,3.4,3.4,0,0,0-2.66-2.075c-.343-.062-.714.382-.382.652h0Z" transform="translate(-275.796 -319.378)" fill="#010d3d"/><path id="Trazado_5673" data-name="Trazado 5673" d="M329.056,409.246l.028.045a.359.359,0,0,0,.315.18c1.215-.056,2.4-.371,3.61-.495a24.558,24.558,0,0,1,3.694-.118,21.665,21.665,0,0,1,7.237,1.625c.933.382,1.366-1.158.422-1.524a22.737,22.737,0,0,0-7.653-1.535,21.207,21.207,0,0,0-3.868.259,9.841,9.841,0,0,0-3.621,1.113.359.359,0,0,0-.18.315.274.274,0,0,0,.023.135h0Z" transform="translate(-268.393 -314.212)" fill="#010d3d"/><g id="Grupo_3431" data-name="Grupo 3431" transform="translate(0 69.579)"><path id="Trazado_5674" data-name="Trazado 5674" d="M269.347,390.747c8.069-9.84,5.111-24.043-8.789-25.2-3.734-.433-7.478.023-10.593,2.289-14.535,8.266-24.274,23.762-28.71,39.6a1.766,1.766,0,0,0,1.338,2.221c-.6,4.3,27.732,2.654,31.893,2.935a1.769,1.769,0,0,0,1.647-1.265,39.6,39.6,0,0,1,5.567-11.094c2.362-3.3,5.257-6.191,7.658-9.48Z" transform="translate(-221.184 -365.399)" fill="#64d8cc"/><path id="Trazado_5675" data-name="Trazado 5675" d="M310,419.579H310s-.011-.028-.017-.045c-2.446-6.652-4.673-6.669-9.7-2.131-1.659,1.794-11.684,10.026-8.119,11.949,1.484.439,2.345,2.57,4.054,1.653,2.952-2,15.154-7.726,13.782-11.426Z" transform="translate(-251.921 -386.774)" fill="#64d8cc"/></g><path id="Trazado_5676" data-name="Trazado 5676" d="M327.386,288.923c-.495-2.4-2.378-4-3.942-5.735a19.609,19.609,0,0,1-3.07-4.858c-.832-1.777-1.484-3.627-2.17-5.454a30.219,30.219,0,0,0-2.845-6.331,13.435,13.435,0,0,0-8.637-5.685,13.252,13.252,0,0,0-10.622,2.362c-3.458,2.643-5.235,6.815-7.726,10.324-4.914,6.939-10.037,14.631-9.2,23.453a24.278,24.278,0,0,0,5.46,13.129c.731.9,1.569,1.67,2.35,2.519a1.906,1.906,0,0,1,.489,2.255c-.427,1.147-1.153,2.159-1.647,3.267A10.193,10.193,0,0,0,285,320.85a1.021,1.021,0,0,0-.692,1.046c.09,1.254.231,2.474.433,3.717.253,1.529,2.468,1.6,3.166.41a22.663,22.663,0,0,0,1.1-2.542c.366-.849.737-1.687,1.1-2.536l2.21-5.083a.114.114,0,0,0,.006-.028,18.241,18.241,0,0,0,11.87.787,19.77,19.77,0,0,0,12.859-10.942,34.217,34.217,0,0,0,2.244-9.806c.557-.039,1.125-.045,1.715-.09a9.553,9.553,0,0,0,3.554-.961,5.3,5.3,0,0,0,2.811-5.9Z" transform="translate(-246.526 -249.948)" fill="#fff"/><path id="Trazado_5677" data-name="Trazado 5677" d="M317.489,300.872c-.607,5.606-2.255,11.184-6.4,15.227a18.542,18.542,0,0,1-16.3,4.768,19.194,19.194,0,0,1-13.124-9.66c-3.025-5.482-2.851-11.746-.866-17.555a63.369,63.369,0,0,1,4.847-10.172c.911-1.642,1.8-3.295,2.817-4.875,1.141-1.777,2.44-3.441,3.565-5.229.574-.911-.883-1.76-1.439-.843-1.04,1.726-1.9,3.548-2.924,5.285-.911,1.558-1.946,3.031-2.907,4.56a57.345,57.345,0,0,0-4.9,9.486c-2.4,6.123-3.008,12.848-.18,18.938a20.64,20.64,0,0,0,13.287,11.263,21.493,21.493,0,0,0,17.948-3.413c5.285-3.981,9.289-11.167,7.574-17.909-.152-.59-.939-.4-1,.135h0Z" transform="translate(-245.962 -254.998)" fill="#010d3d"/><path id="Trazado_5678" data-name="Trazado 5678" d="M302.749,294.1l.011-.067-.2.259h0l-.231-.225.017.073.174-.422c-.4.174-.827.253-1.237.467-.495.259-.99.529-1.5.782q-1.349.675-2.733,1.276c-1.923.838-3.88,1.614-5.786,2.485-1.349.613-4.763,1.766-3.346,3.779a22.177,22.177,0,0,0,2.176,2.423c.742.77,1.462,1.484,2.255,2.165.917.787,1.844,1.569,2.795,2.317a6.328,6.328,0,0,0,2.986,1.709c.4.056.568-.45.427-.742a7.267,7.267,0,0,0-2.2-2.176c-.827-.7-1.647-1.406-2.407-2.176s-1.529-1.535-2.272-2.322c-.371-.394-.742-.793-1.1-1.2-.169-.186-.332-.377-.495-.562a2.415,2.415,0,0,0-.242-.287l-.163-.191-.219.478c.1.028.607-.337.686-.377.214-.112.427-.225.647-.332.467-.236.939-.467,1.411-.686.95-.444,1.912-.86,2.873-1.276a45.538,45.538,0,0,0,5.758-2.772c.748-.455,2.21-1.164,2.35-2.131.079-.557-.557-.984-.922-.472a.272.272,0,0,0,0,.27l.034.056a.247.247,0,0,0,.455-.124h0Z" transform="translate(-250.25 -264.424)" fill="#010d3d"/><path id="Trazado_5679" data-name="Trazado 5679" d="M328.072,299.754l.146-.073a.97.97,0,0,0-.669.669,3.153,3.153,0,0,1-.107.3l.1-.242a4.053,4.053,0,0,1-.5.855l.18-.231-.034.045-.017.022a.824.824,0,0,0-.236.365,1.374,1.374,0,0,0-.084.242,1.211,1.211,0,0,0,0,.585l.112.264a.828.828,0,0,0,.281.309,1.059,1.059,0,0,0,.517.214.517.517,0,0,0,.292,0,.839.839,0,0,0,.41-.129,1.337,1.337,0,0,0,.512-.489c.034-.056.067-.118.1-.174a4.242,4.242,0,0,0,.247-.624,3.149,3.149,0,0,0,.112-1.051.97.97,0,0,0-.208-.579.873.873,0,0,0-.5-.343h-.017l.371.214-.017-.011-.169-.129a.6.6,0,0,0-.3-.1.843.843,0,0,0-.523.1h0Z" transform="translate(-267.421 -267.043)" fill="#010d3d"/><path id="Trazado_5680" data-name="Trazado 5680" d="M300.32,289.794l-.073.073.169-.129-.017.011.2-.084a1.265,1.265,0,0,0-.472.264,1.23,1.23,0,0,0-.219.309,3.207,3.207,0,0,0-.186.292,1.848,1.848,0,0,0-.354,1.417,1.127,1.127,0,0,0,.287.495.844.844,0,0,0,.36.231.874.874,0,0,0,.433.1,1.1,1.1,0,0,0,.562-.152,2.645,2.645,0,0,0,.247-.191l.18-.231a.977.977,0,0,0,.135-.326c.011-.056.017-.112.028-.169l.062-.354c.034-.2.045-.382.062-.579,0-.056.011-.107.011-.163a.693.693,0,0,0-.09-.394.589.589,0,0,0-.079-.157l.084.2v-.022l.023.225-.017-.107a1,1,0,0,0-.107-.4.752.752,0,0,0-.377-.321.788.788,0,0,0-.41-.056.752.752,0,0,0-.45.214h0Z" transform="translate(-255.385 -262.628)" fill="#010d3d"/><path id="Trazado_5681" data-name="Trazado 5681" d="M328.733,277.385c.59-1.94.978-3.942,1.434-5.915s.888-3.925,1.327-5.887c.191-.855.247-1.917,1.023-2.452.562-.388,1.186-.843,1.2-1.6a1.488,1.488,0,0,0-.939-1.439c-.883-.382-1.8.09-2.688-.214l.186.7a4.418,4.418,0,0,0,.1-6.129.6.6,0,0,0-.838,0,20.707,20.707,0,0,0-3.008,3.807H327.6a45.768,45.768,0,0,0-9.654-9.7,40.993,40.993,0,0,0-5.842-3.6c-2.047-1.04-4.442-2.412-6.68-1.518a.8.8,0,0,0-.551.967c.287.793.574,1.586.849,2.384l1.17-.9a22.376,22.376,0,0,0-15.856-4.065.8.8,0,0,0-.68,1.186,17.488,17.488,0,0,0,5.5,5.37l.619-1.462c-3.987-1.119-8.839-2.193-12.471.461a.853.853,0,0,0-.169,1.316,32.162,32.162,0,0,0,7.6,6.4l.433-1.6a11.177,11.177,0,0,0-4.9.708,4.684,4.684,0,0,0-2.66,3.261c-.675,3.548,3.739,4.926,6.393,5.544,1.108.259,1.58-1.451.472-1.7a15.3,15.3,0,0,1-3.655-1.265c-.9-.472-1.726-1.175-1.49-2.294.545-2.558,3.818-2.547,5.842-2.53a.864.864,0,0,0,.433-1.6,31.344,31.344,0,0,1-7.287-6.1l-.169,1.316c3.261-2.429,7.613-1.349,11.2-.36a.8.8,0,0,0,.618-1.462,15.4,15.4,0,0,1-4.948-4.779l-.68,1.186a21.808,21.808,0,0,1,15.052,3.869.8.8,0,0,0,1.17-.9c-.3-.787-.579-1.586-.866-2.378l-.551.967a4.252,4.252,0,0,1,3.256.309c1,.41,1.979.9,2.935,1.406a47.546,47.546,0,0,1,5.359,3.295,42.191,42.191,0,0,1,9.148,8.912.628.628,0,0,0,1.068,0,19.388,19.388,0,0,1,2.778-3.6h-.838a3.7,3.7,0,0,1,.146,4.7.427.427,0,0,0,.186.7c.793.326,1.676-.079,2.435.242.551.236.225.422-.1.6a5.509,5.509,0,0,0-.821.574,3.385,3.385,0,0,0-1.046,1.962c-.2.917-.382,1.839-.579,2.761-.742,3.452-1.664,6.91-2.12,10.414-.084.641.922.725,1.1.146h0Z" transform="translate(-248.503 -241.655)" fill="#010d3d"/><path id="Trazado_5682" data-name="Trazado 5682" d="M301.644,270.434a16.152,16.152,0,0,0,1.26-1.822.7.7,0,0,0-1.091-.838,17.585,17.585,0,0,0-1.361,1.721l1.259.737a22.452,22.452,0,0,1,2.553-3.1l-1.13-.146a67.134,67.134,0,0,0,5.055,8.266.721.721,0,0,0,1.231,0,19.917,19.917,0,0,0,2.294-9.16l-1.288.349c1.181,2.317,2.418,4.605,3.779,6.821.635,1.035,1.3,2.047,1.985,3.053a14.463,14.463,0,0,0,2.12,2.845c1.726,1.507,3.436-.77,3.812-2.35.416-1.771.006-3.818.973-5.432l-1.479-.4a21.272,21.272,0,0,0,3.256,10.346.8.8,0,0,0,1.243.163,10.3,10.3,0,0,0,2.345-5.51H326.9q-.219,4.091-.444,8.176a21.444,21.444,0,0,0-.152,3.7c.107.866.585,1.7,1.552,1.7a.737.737,0,0,0,0-1.473c.107,0-.006-.135-.028-.259a2.268,2.268,0,0,1-.017-.478c.011-.551.062-1.108.1-1.664l.18-3.188q.186-3.256.377-6.517c.062-1.023-1.445-.973-1.563,0a8.495,8.495,0,0,1-1.9,4.391l1.243.163a19.418,19.418,0,0,1-3.042-9.548.8.8,0,0,0-1.479-.4c-.849,1.411-.843,3.064-.973,4.661a5.171,5.171,0,0,1-.495,2.1c-.141.247-.484.77-.8.737s-.742-.827-.9-1.046a80.621,80.621,0,0,1-6.944-11.285.7.7,0,0,0-1.288.349,18.536,18.536,0,0,1-2.148,8.434H309.4a66.025,66.025,0,0,1-5.044-8.271.725.725,0,0,0-1.13-.146,24.377,24.377,0,0,0-2.795,3.379c-.545.787.7,1.462,1.259.737a17.3,17.3,0,0,0,1.192-1.614l-1.265-.534a14.762,14.762,0,0,0-.742,1.923c-.107.41.444.787.748.433h0Z" transform="translate(-255.814 -252.05)" fill="#010d3d"/><path id="Trazado_5683" data-name="Trazado 5683" d="M333.395,261.416a7.608,7.608,0,0,1-1.018-.067,14.243,14.243,0,0,0,.112-2.019,17.613,17.613,0,0,0-.365-2.924c-.118-.68-1.046-.669-1.372-.18-.669,1.023-1.378,2.035-2.019,3.076a2.24,2.24,0,0,0-.27.039,1.319,1.319,0,0,0-.242.073l-.039.017c-.236-.276-.472-.551-.7-.827a47.725,47.725,0,0,0-5.128-5.37,62.673,62.673,0,0,0-5.966-4.723,36.954,36.954,0,0,0-7.512-3.908c-.838-.32-1.569.484-1.625,1.237-.011.141-.022.276-.034.416a29.973,29.973,0,0,0-12.106-2.907,1.225,1.225,0,0,0-.613,2.266c.484.287.956.585,1.417.911.09.062.174.129.264.191,0,0,.236.191.259.214.2.169.388.343.568.529.1.1.191.2.281.3,0,0,.112.141.135.163.067.09.129.18.191.276-1.231-.174-2.463-.3-3.705-.382a30.826,30.826,0,0,0-5.533.084,1.319,1.319,0,0,0-1.08.619,1.221,1.221,0,0,0,0,1.26,9.832,9.832,0,0,0,3.244,2.615c.551.3,1.108.585,1.647.894.264.152.529.309.782.478.112.073.219.152.326.225l.028.017h0c.079.062.152.124.225.191a5.631,5.631,0,0,1,.574.585,2.274,2.274,0,0,1,.129.191c.039.062.079.129.118.2a3.078,3.078,0,0,1-1,.129,10.1,10.1,0,0,0-3.824.416c-.056.006-.112.017-.169.028a2.693,2.693,0,0,0-.455,5.083c.062.084.124.169.191.253a5,5,0,0,0,1.827,1.355,5.243,5.243,0,0,0,.692.281,3.561,3.561,0,0,0,.737.079,8.344,8.344,0,0,0,1.125-.017.831.831,0,0,0,.534-1.445,35.555,35.555,0,0,0,2.789-3.458.969.969,0,0,0,.163-.782c.034-.028.073-.062.107-.084a1.017,1.017,0,0,1,.32-.174c.073-.022.146-.039.225-.056s.157-.006.039,0h.163c.157.332.315.669.472,1,.343.7.748,1.383,1.125,2.069.748,1.349,1.5,2.7,2.238,4.054a.915.915,0,0,0,1.355.236,1.151,1.151,0,0,0,1.355-.787,13.92,13.92,0,0,0,1.007-5.4c.073-.3.152-.607.231-.911h0c.073.118.135.247.208.377.186.332.388.652.585.973.382.624.759,1.248,1.141,1.872.759,1.248,1.524,2.5,2.283,3.739.86,1.406,1.693,2.834,2.587,4.223a1.181,1.181,0,0,0,1.833.236c1.2-1.327,1.417-3.048,1.619-4.751.017-.152.039-.3.056-.45.006-.039.022-.141.022-.174.017-.1.028-.191.045-.281a8.335,8.335,0,0,1,.191-.843c.281,1.04.54,2.092.8,3.132q.658,2.572,1.192,5.173a1.216,1.216,0,0,0,1.164.888,1.264,1.264,0,0,0,1.164-.888l.045-.107c.017-.045.039-.09.056-.135s.135-.32.18-.422c.1-.236.2-.472.3-.7.219-.489.45-.978.7-1.451.067-.129.141-.259.208-.382-.034.343-.067.686-.1,1.029-.124.309-.253.618-.377.928a1.332,1.332,0,0,0,.2,1.243c-.169,2.142-.3,4.279-.4,6.427a1.287,1.287,0,0,0,.292.9,1.126,1.126,0,0,0,1.681.877,6.921,6.921,0,0,1,2.778-1.226,5.909,5.909,0,0,1,1.361-.1c.551.017,1.108.022,1.659.073a1.012,1.012,0,0,0,1-1,15.541,15.541,0,0,1,.4-1.811c.141-.635.27-1.276.388-1.917.242-1.288.433-2.581.59-3.88.231-1.929.214-4.65,2.322-5.55.832-.354.366-1.642-.444-1.636Z" transform="translate(-250.044 -242.397)" fill="#010d3d"/><path id="Trazado_5684" data-name="Trazado 5684" d="M290.356,340.665a.681.681,0,0,0-.2.7c.022.141.056.281.079.422.051.259.084.529.157.787a8.272,8.272,0,0,0,.619,1.709.828.828,0,0,0,1.035.337.848.848,0,0,0,.478-.978,4.76,4.76,0,0,0-.371-.95c-.124-.264-.236-.545-.382-.8s-.3-.484-.45-.725a1.577,1.577,0,0,0-.32-.439c-.169-.129-.472-.236-.652-.062h0Z" transform="translate(-251.364 -284.951)" fill="#010d3d"/><path id="Trazado_5685" data-name="Trazado 5685" d="M346.736,306.584c.866.467,1.957-.034,2.828-.281.933-.264,1.856-.545,2.811-.731.1-.022.2-.039.3-.056.023,0,.32-.045.18-.028,0,0,.3-.028.4-.034a5.177,5.177,0,0,1,.59-.017c.1,0,.191.011.292.011l.146.011h0c.163.028.315.073.478.112.236.056.129.045.062.011.084.039.157.09.242.129.023.011.214.141.062.022a1.311,1.311,0,0,1,.2.191,1.366,1.366,0,0,1,.247.4,4.068,4.068,0,0,1,.264,2.08,5.981,5.981,0,0,1-.517,1.844,6.362,6.362,0,0,1-3.138,2.974,3.893,3.893,0,0,1-2.525.225,15.206,15.206,0,0,1-2.48-1.085.78.78,0,0,0-.939,1.22,4.694,4.694,0,0,0,2.7,1.321,11.467,11.467,0,0,0,2.974.146,6.209,6.209,0,0,0,2.974-.827,7.78,7.78,0,0,0,2.249-2.142,7.69,7.69,0,0,0,1.192-6c-.534-2.4-2.75-3.514-5.061-3.329a13.729,13.729,0,0,0-3.666.872c-1.141.427-2.958,1.113-3.138,2.491a.542.542,0,0,0,.27.478h0Z" transform="translate(-275.834 -268.39)" fill="#010d3d"/><path id="Trazado_5686" data-name="Trazado 5686" d="M291.4,353.6c-.855.1-1.2,1-1.619,1.653-.489.776-.928,1.586-1.372,2.39s-.849,1.569-1.26,2.362c-.2.382-.4.765-.6,1.147-.315.6-.624,1.175-.236,1.827a1.053,1.053,0,0,0,1.153.467c.95-.18,1.164-1.439,1.484-2.2s.675-1.546,1.006-2.322.652-1.5.984-2.238c.174-.388.332-.776.495-1.17a2.354,2.354,0,0,1,.41-.832.645.645,0,0,0-.45-1.091h0Z" transform="translate(-249.611 -290.648)" fill="#010d3d"/><path id="Trazado_5687" data-name="Trazado 5687" d="M296.005,358.473A11.765,11.765,0,0,0,294,361.161c-.6,1.006-1.175,2.035-1.687,3.087s-.967,2.075-1.366,3.149a12.444,12.444,0,0,0-.99,3.357l1.389-.377-2.783-5.707c-.388-.8-1.558-.1-1.186.7l2.682,5.763a.75.75,0,0,0,1.288,0,22.107,22.107,0,0,0,1.276-3.16c.422-1.035.843-2.03,1.3-3.019s.95-1.991,1.473-2.963a22.455,22.455,0,0,0,1.479-3c.186-.517-.517-.838-.872-.506h0Z" transform="translate(-250.125 -292.734)" fill="#010d3d"/><path id="Trazado_5688" data-name="Trazado 5688" d="M286.486,374.591a18.161,18.161,0,0,1-2.367.523,7.32,7.32,0,0,1-1.164.022,3.4,3.4,0,0,1-1.074-.039c.006,0,.067.067-.022,0-.039-.028-.034-.034-.067-.1a4.674,4.674,0,0,1-.129-.45c-.107-.4-.186-.8-.281-1.2a11.071,11.071,0,0,1-.309-2.468.717.717,0,0,0-1.434,0,16.872,16.872,0,0,0,.2,3.014,9.414,9.414,0,0,0,.382,1.456,1.753,1.753,0,0,0,.967,1.164,5,5,0,0,0,2.873-.247,9.606,9.606,0,0,0,2.688-1.046.343.343,0,0,0-.264-.624h0Z" transform="translate(-246.769 -297.915)" fill="#010d3d"/><path id="Trazado_5689" data-name="Trazado 5689" d="M306.117,407.784a13.907,13.907,0,0,0-7.647-3.436c-.253-.022-.506-.034-.759-.039a3.946,3.946,0,0,0-1.17-.337,8.73,8.73,0,0,0-3.6.607c-.624.186-1.237.337-1.844.579a18.7,18.7,0,0,1-1.878.787c.208-.056-.512.079-.422.056a3.6,3.6,0,0,0-.714.292c-.292.141-.579.3-.86.455-.112.062-.225.129-.337.191a23.435,23.435,0,0,0-9.092,5.825,2.146,2.146,0,0,0-.276.366,2.668,2.668,0,0,0-1.113,3.227c.45,1.04,1.968,1.349,3,1.361a7.2,7.2,0,0,0,3.154-.832,17.164,17.164,0,0,0,2.536-1.546c.59-.41,1.484-1.209,2.238-1.091a9.9,9.9,0,0,1,2.885,1.338,29.2,29.2,0,0,1,2.84,1.8c1.035.737,2.5-.731,1.766-1.766a13.654,13.654,0,0,0-5.3-4.56c.978-.647,1.676-.079,2.834,0a17.328,17.328,0,0,1,5.46,3.5,1.452,1.452,0,0,0,2.407-1.4,7.676,7.676,0,0,0-4.223-4.841,14.116,14.116,0,0,1,2.969-.433,5.988,5.988,0,0,1,3.07.883,8.579,8.579,0,0,1,1.31.984,2.163,2.163,0,0,0,2.131.472,1.477,1.477,0,0,0,.647-2.457Z" transform="translate(-245.268 -312.688)" fill="#fff"/><path id="Trazado_5690" data-name="Trazado 5690" d="M294.977,375.726c.191.079.382.174.579.236s.41.084.613.129c.4.084.815.169,1.226.247l1.141.214c.433.084.855.287,1.282.039.753-.439.472-1.344.259-2l-.394-1.192c-.067-.2-.146-.394-.2-.6a3.8,3.8,0,0,1-.084-.495.842.842,0,0,0-.4-.7.807.807,0,0,0-1.1,1.1,4.685,4.685,0,0,1,.439.872l.377,1.007c.112.3.242.59.326.894.006.023.039.186.034.124-.011-.1.034.163,0,.062.006-.045,0-.039-.011.023a.15.15,0,0,1,.073-.112c.084-.1.079-.067-.028-.051-.09.017.017.011-.028.017a1.072,1.072,0,0,1-.264-.039l-.534-.079-1.063-.152c-.354-.051-.737-.1-1.1-.141a3.531,3.531,0,0,0-.484-.051c-.191,0-.382.023-.574.034a.3.3,0,0,0-.079.6h0Z" transform="translate(-253.392 -298.493)" fill="#010d3d"/><path id="Trazado_5691" data-name="Trazado 5691" d="M276.544,414.026a40.265,40.265,0,0,1,5.134-4.751,31.809,31.809,0,0,1,6.028-3.441,29.554,29.554,0,0,1,6.68-1.991,11.408,11.408,0,0,1,7.7.928c1.839,1.018,4.015,3.458,2.986,5.718l1.035-.27a59.807,59.807,0,0,0-6.393-3.756,6.5,6.5,0,0,0-6.151.107.756.756,0,0,0,.18,1.361,11.99,11.99,0,0,1,3.413,2.187c.984.883,1.67,2.052,2.71,2.845.467.354,1.023-.231.917-.7-.32-1.406-1.676-2.6-2.755-3.486a15.42,15.42,0,0,0-3.885-2.277l.18,1.361c1.732-1.1,3.824-.557,5.527.326,1.895.984,3.711,2.187,5.5,3.346a.76.76,0,0,0,1.035-.27c1.136-2.26.186-4.729-1.513-6.416A10.778,10.778,0,0,0,297.2,402a25.3,25.3,0,0,0-8.086,1.692,30.382,30.382,0,0,0-7.029,3.638,26.216,26.216,0,0,0-6.433,6.022c-.377.529.45,1.141.888.686h0Z" transform="translate(-244.985 -311.839)" fill="#010d3d"/><path id="Trazado_5692" data-name="Trazado 5692" d="M308.334,418.738c.247.281.956.956.686,1.383-.225.354-1-.382-1.209-.574a16.544,16.544,0,0,0-2.868-2.328,9.388,9.388,0,0,0-3.34-1.141,17.181,17.181,0,0,0-3.6.124c-1.439.09-.748,2.266.427,1.58a5.9,5.9,0,0,1,4.122-.141,7.653,7.653,0,0,1,1.968.827,7.231,7.231,0,0,1,1.681,1.5c.827.911,2.35,2.5,3.638,1.423a1.827,1.827,0,0,0,.59-1.687,2.983,2.983,0,0,0-1.271-1.794.589.589,0,0,0-.832.832h0Z" transform="translate(-254.453 -317.974)" fill="#010d3d"/><path id="Trazado_5693" data-name="Trazado 5693" d="M289.654,417.957a10.664,10.664,0,0,1,5.73,2.71,5.324,5.324,0,0,1,.911,1.13c.2.365.371.714-.062.866-.962.332-2.294-.737-2.98-1.271-1.653-1.288-3.649-2.986-5.9-2.12a11.381,11.381,0,0,0-2.468,1.9,3.75,3.75,0,0,1-3.126.579c-1.074-.27-1.6,1.473-.478,1.732a5.837,5.837,0,0,0,5.595-1.8,2.356,2.356,0,0,1,2.66-.8,9.639,9.639,0,0,1,2.66,1.709,7.8,7.8,0,0,0,2.665,1.49,2.82,2.82,0,0,0,2.7-.41c1.456-1.468-.562-3.632-1.681-4.555a8.488,8.488,0,0,0-6.084-2.182c-.534.068-.765.888-.141,1.023h0Z" transform="translate(-247.215 -318.362)" fill="#010d3d"/><path id="Trazado_5694" data-name="Trazado 5694" d="M274.68,419.11a4.712,4.712,0,0,0-.067,1.125,3.2,3.2,0,0,0,.354,1.147,5.736,5.736,0,0,0,1.355,1.816,8.642,8.642,0,0,0,1.991,1.338c.365.18.742.337,1.119.489.174.067.349.141.523.2a.984.984,0,0,0,.849-.124.6.6,0,0,0,.208-.793c.028.073.022.056-.017-.045a.489.489,0,0,0-.152-.231.927.927,0,0,0-.394-.259c-.163-.062-.32-.112-.484-.169-.309-.112-.568-.219-.849-.349a7.825,7.825,0,0,1-1.687-1.04,5.585,5.585,0,0,1-1.2-1.366c-.163-.27-.276-.562-.427-.843a4.374,4.374,0,0,1-.371-.883c-.1-.349-.686-.4-.753,0h0Z" transform="translate(-244.566 -319.212)" fill="#010d3d"/><path id="Trazado_5695" data-name="Trazado 5695" d="M265.641,418.794a5.784,5.784,0,0,0-1.664.81c-.562.343-1.108.714-1.636,1.108-1.085.81-2.125,1.7-3.126,2.6-.984.888-1.923,1.833-2.834,2.8a29.2,29.2,0,0,0-2.688,3.087c-.545.77.658,1.676,1.3,1,.911-.962,1.715-2.03,2.615-3,.883-.95,1.8-1.861,2.733-2.761s1.895-1.754,2.868-2.609c.495-.433.984-.883,1.468-1.327a6.766,6.766,0,0,0,1.26-1.338.255.255,0,0,0-.287-.371h0Z" transform="translate(-235.353 -319.188)" fill="#010d3d"/><path id="Trazado_5696" data-name="Trazado 5696" d="M262.166,391.393a27,27,0,0,0-2.53,2.412c-.759.9-1.456,1.76-2.142,2.665q-2.125,2.8-4.037,5.747a98.117,98.117,0,0,0-6.865,12.235c-.467,1,1.035,1.878,1.49.872a101.5,101.5,0,0,1,6.528-12.286q1.839-2.918,3.885-5.7c.692-.939,1.378-1.884,2.086-2.811s1.248-1.945,1.889-2.907c.124-.186-.146-.365-.3-.231h0Z" transform="translate(-232.266 -307.177)" fill="#010d3d"/><path id="Trazado_5697" data-name="Trazado 5697" d="M282.685,429.8a4.094,4.094,0,0,0-.843,1.26c-.247.444-.523.872-.8,1.293s-.545.86-.838,1.271c-.073.1-.152.2-.225.309-.034.051-.067.107-.1.163-.124.208-.141.27-.056.186a1.509,1.509,0,0,0-.174.973.626.626,0,0,0,.607.461,1.1,1.1,0,0,0,.5-.124,2.258,2.258,0,0,0,.231-.174s.169-.141.129-.112a2.979,2.979,0,0,0,.6-.737,12.408,12.408,0,0,0,.782-1.417c.219-.489.422-1.029.6-1.558a3.075,3.075,0,0,0,.247-1.614.4.4,0,0,0-.663-.174h0Z" transform="translate(-246.763 -323.966)" fill="#010d3d"/><path id="Trazado_5698" data-name="Trazado 5698" d="M241.6,388.135c-.787.062-1.569.911-2.125,1.411a25.5,25.5,0,0,0-2.137,2.2,42.281,42.281,0,0,0-3.7,4.847,46.545,46.545,0,0,0-5.24,11.055,29.36,29.36,0,0,0-1.586,6.843.75.75,0,0,0,1.468.2c.247-.95.365-1.94.585-2.9s.467-1.917.748-2.862a43.593,43.593,0,0,1,2.069-5.572,47.622,47.622,0,0,1,6.118-10.026c.686-.866,1.428-1.676,2.137-2.525.343-.41.7-.81,1.035-1.22a2.945,2.945,0,0,0,.793-1.254.161.161,0,0,0-.152-.2h0Z" transform="translate(-223.645 -305.769)" fill="#010d3d"/><path id="Trazado_5699" data-name="Trazado 5699" d="M309.236,394.155a3.3,3.3,0,0,0-.894,1.119c-.253.433-.489.877-.731,1.316s-.472.883-.692,1.338a12.406,12.406,0,0,1-.658,1.411c-.354.534.652.99.815.343a8.575,8.575,0,0,1,.63-1.417c.208-.455.4-.888.607-1.327s.422-.872.641-1.31a3.72,3.72,0,0,0,.478-1.361.131.131,0,0,0-.2-.112Z" transform="translate(-258.391 -308.398)" fill="#010d3d"/></g><g id="Grupo_3433" data-name="Grupo 3433" transform="translate(0 109.924)"><rect id="Rectángulo_801" data-name="Rectángulo 801" width="238.971" height="44.173" transform="translate(239.486 44.735) rotate(180)" fill="#fff"/><path id="Trazado_5700" data-name="Trazado 5700" d="M309.451,437.172H80.179c-3.1,0-6.2-.051-9.295,0h-.4a.535.535,0,0,0,0,1.068H299.751c3.1,0,6.2.051,9.295,0h.4a.535.535,0,0,0,0-1.068Z" transform="translate(-69.965 -437.15)" fill="#010d3d"/></g><g id="Grupo_3435" data-name="Grupo 3435" transform="translate(120.584 63.004)"><path id="Trazado_5701" data-name="Trazado 5701" d="M284.419,405.545a17.845,17.845,0,0,0,.467-2.244.638.638,0,0,1,.6-.461c9.126.157,18.263.315,27.389.056,2.294-.062,4.588-.084,6.882-.191a1.366,1.366,0,0,1,.169-.191s.022-.023.056-.062.1-.1.141-.152a.079.079,0,0,1,.017-.022c0-.006.006-.011.017-.028.056-.079.112-.157.169-.242.27-.4.517-.832.748-1.26.669-1.22,1.276-2.474,1.872-3.734,1.338-2.828,2.581-5.707,3.829-8.58,1.271-2.929,2.643-5.814,3.975-8.71,1.647-3.593,3.278-7.2,4.785-10.858q1.088-2.64,2.114-5.308c.827-2.137,1.591-4.3,2.44-6.438.242-.6.529-1.186.753-1.8a.566.566,0,0,1,.523-.4c6.714-.579,13.45-.86,20.186-1,6.753-.141,13.506-.141,20.259-.152q2.851,0,5.707-.017c.467,0,.933.011,1.4-.017a6.958,6.958,0,0,1,.905-.023,2.678,2.678,0,0,1,1.248.377,2.558,2.558,0,0,1,.8.365,6.084,6.084,0,0,1,1.186.849.934.934,0,0,1,.146,1.108,2.457,2.457,0,0,0-.129.276c-.028.073-.062.146-.09.219-.169.41-.326.827-.489,1.243q-.734,1.923-1.445,3.857-2.117,5.735-4.172,11.5-2.437,6.764-4.869,13.534c-.753,2.086-1.5,4.183-2.272,6.258-.692,1.85-1.327,3.734-2.114,5.55-.084.191-.163.382-.247.573-.034.079-.067.157-.1.231-.017.034-.028.067-.045.1h0s-.011.034-.028.079-.039.1-.056.141a.123.123,0,0,1,.017-.045.257.257,0,0,0-.017.045l-.051.135c-.039.09-.073.174-.107.264-.073.169-.141.343-.214.512-.152.365-.309.714-.467,1.074-.056.129-.118.259-.18.388-.028.068-.062.135-.09.208a.552.552,0,0,0-.045.1.017.017,0,0,1-.006.011,1.428,1.428,0,0,1-.09.214c-.022.022-.039.051-.062.073.028-.034.034-.028.011.011l-.073.152-.169.371c-.1.2-.174.4-.281.59a.124.124,0,0,1-.017.028c-.028.067-.062.135-.09.2l-.112.242c-.051.112-.107.225-.163.337a1.631,1.631,0,0,1-.112.186.576.576,0,0,1-.337.231.781.781,0,0,1-.461.157c-1.518.034-3.031.045-4.555.107q-3.34.152-6.669.32c-5.156.264-10.312.534-15.468.77-3.537.157-7.107.422-10.65.315-3.571-.107-7.147-.079-10.717-.09-4.448-.011-8.9-.006-13.337-.028-2.21-.011-4.42-.028-6.629-.062-2.187-.034-4.38-.028-6.562-.129-3.75-.18-7.5-.231-11.251-.287-1.051-.011-2.109-.034-3.16-.045a.622.622,0,0,1-.6-.782Z" transform="translate(-284.418 -353.705)" fill="#fff"/><g id="Grupo_3434" data-name="Grupo 3434" transform="translate(0.013 0.01)"><path id="Trazado_5702" data-name="Trazado 5702" d="M320.438,440.81c-9.1.5-18.257.433-27.372.281-2.519-.045-5.044-.045-7.563-.09a.6.6,0,0,0-.574.439,20.359,20.359,0,0,1-.467,2.243.6.6,0,0,0,.568.748c8.148.079,16.289.45,24.443.506,4.459.034,8.918.034,13.377.039,4.4.006,8.811-.062,13.2.067,3.188.1,6.382-.073,9.57-.208,5.111-.219,10.217-.489,15.328-.748,4.358-.225,8.715-.427,13.079-.529a.765.765,0,0,0,0-1.529c-3.75.084-7.512.388-11.263.573-5.145.259-10.284.529-15.429.759-3.531.157-7.1.416-10.633.309-8-.247-16.02-.056-24.026-.062-9.216-.006-18.432-.231-27.648-.36l.568.748a19.092,19.092,0,0,0,.478-2.238l-.574.439c9.132.2,18.263.512,27.395.135,2.525-.1,5.032-.326,7.546-.579.585-.062.607-.967,0-.933h0Z" transform="translate(-284.441 -391.842)" fill="#010d3d"/><path id="Trazado_5703" data-name="Trazado 5703" d="M401.318,405.024c.36.124-.011-.011-.028-.073a.531.531,0,0,0,.961.124,9.4,9.4,0,0,0,.77-1.614c.529-1.136,1.051-2.328,1.546-3.514,1.535-3.689,2.9-7.49,4.268-11.268,3.064-8.491,6.078-16.992,9.188-25.466.573-1.558,1.147-3.109,1.737-4.661.191-.495.377-.99.574-1.479.039-.1.079-.186.112-.281.073-.186-.1.2.022-.056.051-.107.1-.219.152-.326a.892.892,0,0,0-.141-1.068,7.111,7.111,0,0,0-1.49-1.029c-.146-.073-.433-.169-.489-.2a4.715,4.715,0,0,0-.512-.259,3.641,3.641,0,0,0-1.327-.124c-.928.045-1.856.039-2.783.045-3.66.011-7.315.011-10.976.022-7.265.023-14.529.079-21.789.377-4.1.169-8.209.416-12.3.77a.567.567,0,0,0-.517.394c-2.834,7.709-5.921,15.333-9.334,22.806-1.439,3.154-2.952,6.275-4.335,9.452-1.2,2.744-2.384,5.494-3.632,8.215-.692,1.507-1.406,3.008-2.182,4.476-.281.523-.562,1.046-.883,1.546-.062.1-.129.2-.2.3-.034.051-.208.276-.1.135-.073.09-.377.371-.169.214-.8.6-.017,1.974.8,1.361a6.126,6.126,0,0,0,1.473-2.041c.658-1.215,1.243-2.474,1.811-3.734,1.327-2.913,2.575-5.865,3.8-8.817,2.772-6.652,6.028-13.174,8.783-19.877,1.867-4.538,3.492-9.154,5.184-13.753l-.517.394c13.231-1.136,26.523-1.153,39.793-1.2,1.85-.006,3.705-.017,5.555-.028.872-.006,1.732-.022,2.6-.051a2.111,2.111,0,0,1,1.366.309l-.231-.3a5.655,5.655,0,0,0,1.338,1.844l-.141-1.068a47.445,47.445,0,0,0-2.3,5.848c-1.406,3.812-2.783,7.641-4.161,11.465q-2.429,6.747-4.853,13.5c-.759,2.114-1.535,4.223-2.283,6.337-.641,1.811-1.366,3.61-1.934,5.443-.467,1.507-.973,3-1.462,4.493-.079.247-.163.489-.247.731s-.2.545-.2.534a4.066,4.066,0,0,1-.321.669l.962.124c-.107-.455-.315-.523-.708-.652-.641-.208-.905.787-.276,1.006h0Z" transform="translate(-311.882 -353.722)" fill="#010d3d"/></g></g><g id="Grupo_3438" data-name="Grupo 3438" transform="translate(1.179 7.506)"><g id="Grupo_3436" data-name="Grupo 3436" transform="translate(4.677 27.046)"><path id="Trazado_5704" data-name="Trazado 5704" d="M81.595,303.367c22.418.607,79.614-.63,85.715-.146a.7.7,0,0,1,.652.6c.247,8.744.467,17.515.99,26.219.09.394-.214.77-.8.8-8.024.647-46.293,1.023-57.426,1.018-8.873.084-20.417.231-29.149-.748-.843-.118-.72-1.018-.843-1.507-.169-6.624-1.051-26.484.872-26.231Z" transform="translate(-80.38 -303.105)" fill="#e0c7eb"/><path id="Trazado_5705" data-name="Trazado 5705" d="M212.075,320.679c-.174-3.284-.4-6.567-.765-9.834q-.27-2.4-.63-4.8c-.124-.827-.264-1.653-.422-2.474-.028-.146-.056-.292-.079-.444,7.158-.045,12.337-.039,13.95.09a.7.7,0,0,1,.652.6c.247,8.743.467,17.515.99,26.219.09.394-.214.77-.8.8-2.215.18-6.742.337-12.359.472-.191-3.542-.337-7.085-.529-10.627Z" transform="translate(-137.195 -303.105)" fill="#e0c7eb" opacity="0.3" style="mix-blend-mode: multiply;isolation: isolate"/><path id="Trazado_5706" data-name="Trazado 5706" d="M130.975,330.485c-.135-3.436-.377-6.871-.843-10.273.073-.585-.905-3.554-.107-3.447,9.306.034,18.617-.191,27.912-1.063a55.763,55.763,0,0,1,7.63-.079.323.323,0,0,1,.276.3c.186,4.538.36,9.092.663,13.6a.342.342,0,0,1-.326.422,70.3,70.3,0,0,1-9.975.18c-4.6.129-9.21.922-13.827,1.057a72.356,72.356,0,0,1-11.038.056c-.349-.051-.309-.517-.365-.77Z" transform="translate(-101.972 -308.542)" fill="#fff"/><path id="Trazado_5707" data-name="Trazado 5707" d="M106.089,326.295c-.112-4.251,7.771-4.914,9.334-1.282C117.121,331.007,106.3,332.739,106.089,326.295Z" transform="translate(-91.633 -311.661)" fill="#cca1dd"/></g><g id="Grupo_3437" data-name="Grupo 3437" transform="translate(13.601)"><path id="Trazado_5708" data-name="Trazado 5708" d="M183.624,255.267c-22.418.607-79.614-.63-85.715-.146a.7.7,0,0,0-.652.6c-.247,8.744-.467,17.515-.99,26.219-.09.394.214.77.8.8,8.024.647,46.293,1.023,57.426,1.018,8.873.084,20.417.231,29.149-.748.843-.118.72-1.018.843-1.507.169-6.624,1.051-26.484-.872-26.231Z" transform="translate(-96.252 -255.005)" fill="#66d1ee"/><path id="Trazado_5709" data-name="Trazado 5709" d="M109.965,272.579c.174-3.284.4-6.567.765-9.834q.27-2.4.63-4.8c.124-.827.264-1.653.422-2.474.028-.146.056-.292.079-.444-7.158-.045-12.337-.039-13.95.09a.7.7,0,0,0-.652.6c-.247,8.744-.467,17.515-.99,26.219-.09.394.214.77.8.8,2.215.18,6.742.337,12.359.472.191-3.542.337-7.085.529-10.627Z" transform="translate(-96.252 -255.005)" fill="#66d1ee" opacity="0.3" style="mix-blend-mode: multiply;isolation: isolate"/><path id="Trazado_5710" data-name="Trazado 5710" d="M174.555,282.385c.135-3.436.377-6.871.843-10.273-.073-.585.905-3.554.107-3.447-9.306.034-18.617-.191-27.912-1.063a55.758,55.758,0,0,0-7.63-.079.323.323,0,0,0-.276.3c-.186,4.538-.36,9.092-.663,13.6a.342.342,0,0,0,.326.422,70.3,70.3,0,0,0,9.975.18c4.6.129,9.21.922,13.827,1.057a72.364,72.364,0,0,0,11.038.056c.349-.051.309-.517.365-.77Z" transform="translate(-114.971 -260.442)" fill="#fff"/><path id="Trazado_5711" data-name="Trazado 5711" d="M220.683,278.195c.112-4.251-7.771-4.914-9.334-1.282C209.651,282.907,220.475,284.639,220.683,278.195Z" transform="translate(-146.553 -263.561)" fill="#00b2e3"/></g><path id="Trazado_5712" data-name="Trazado 5712" d="M104.235,316.93c-2.744-.742-5.561-1.08-8.254-2.013a15.371,15.371,0,0,1-6.579-4.251,52.31,52.31,0,0,1-5.235-7.512c-.394-.641-.742-1.327-1.158-1.945s-.922-1.209-1.338-1.839a39.319,39.319,0,0,1-2.249-4.217,65.567,65.567,0,0,1-3.559-9.272c-.034-.118-.067-.236-.112-.354-.017-.051-.028-.1-.045-.146h-.011c-.045-.112-.084-.231-.141-.349-.669-1.518-3.205-.439-2.688,1.13.051.146.1.287.152.433a5.452,5.452,0,0,1-.124,2.828,25.158,25.158,0,0,0-.815,4.015,8.721,8.721,0,0,0,1.074,4.408c.686,1.423,1.434,2.817,2.159,4.228,2.823,5.51,6.061,10.875,8.406,16.616.6,1.473,1.2,2.963,1.872,4.4a12.1,12.1,0,0,0,.843,1.49,7,7,0,0,0,1.856,2.435c.793.669,2.221-.2,1.541-1.192a13.59,13.59,0,0,1-1.293-2.53,10.744,10.744,0,0,0,5.662,3.689c1.226.292,2.53-1.091,1.737-2.26-.1-.141-.18-.292-.264-.439,1.766.8,3.531,1.614,5.28,2.452a1.573,1.573,0,0,0,1.85-.242,1.535,1.535,0,0,0,.242-1.85,21.487,21.487,0,0,0-4.054-4,4.986,4.986,0,0,1,1.023-.017,8.084,8.084,0,0,0,4.622-.63,1.7,1.7,0,0,0-.4-3.064Z" transform="translate(-72.063 -267.828)" fill="#fff"/><path id="Trazado_5713" data-name="Trazado 5713" d="M75.84,283.873a34.418,34.418,0,0,0,1.051,3.66c.439,1.153.877,2.3,1.327,3.447q1.383,3.5,3.07,6.854a61.252,61.252,0,0,0,7.124,10.987,18.447,18.447,0,0,0,3.143,3.1,18.83,18.83,0,0,0,3.975,2.21c3.329,1.451,6.888,2.407,10,4.335a5.846,5.846,0,0,1,.753.529c.067.056.18.236.259.264-.107-.034.062-.062,0,.017a2.756,2.756,0,0,1,.022-.529,1.891,1.891,0,0,1-.506.219,7.369,7.369,0,0,1-1.051.2c-1.625.186-3.458,0-4.982.686-.613.276-.455,1.108,0,1.423a19.872,19.872,0,0,1,5.2,5.24l.5-1.226a9.028,9.028,0,0,1-8.26-2.66L96.206,323.9a4.573,4.573,0,0,1,1.462,3.211l.641-.843a6.115,6.115,0,0,1-6.59-3.194c-.422-.821-1.861-.247-1.518.641l1.462,3.762.782-1.029a4.613,4.613,0,0,1-5.077-3.458c-.236-1-1.771-.574-1.535.422a6.21,6.21,0,0,0,6.612,4.656c.472-.056.99-.478.782-1.029L91.8,323.261l-1.518.641a7.836,7.836,0,0,0,8.491,4.037.88.88,0,0,0,.641-.843,6.353,6.353,0,0,0-1.946-4.476.9.9,0,0,0-1.265,1.265,10.756,10.756,0,0,0,9.964,3.008.84.84,0,0,0,.5-1.226,22.119,22.119,0,0,0-5.814-5.825v1.423a5.889,5.889,0,0,1,1.782-.292c.838-.067,1.681-.1,2.519-.2,1.007-.124,3.391-.517,2.9-2.069-.377-1.192-2.125-1.923-3.132-2.435-1.7-.866-3.475-1.591-5.252-2.289-3.1-1.215-6.1-2.452-8.434-4.9a32.018,32.018,0,0,1-2.98-3.812c-1.394-1.985-2.733-4-3.936-6.112-1.434-2.513-2.744-5.083-4.048-7.67-.652-1.288-1.282-2.592-1.9-3.9s-1.383-2.6-2.142-3.885a.22.22,0,0,0-.4.169h0Z" transform="translate(-73.71 -267.518)" fill="#010d3d"/></g><path id="Trazado_5714" data-name="Trazado 5714" d="M84.719,332.383a16.074,16.074,0,0,0-1.389-5.8,35.772,35.772,0,0,0-2.766-5.482,102.564,102.564,0,0,1-5.955-10.886c-.439-.956-.855-1.923-1.282-2.885-.281-.63-.658-2.125-1.417-2.345-.663-.191-.782.635-.669,1.091a21.806,21.806,0,0,0,1.181,3.064,76.263,76.263,0,0,0,5.572,10.981,54.078,54.078,0,0,1,3.469,6.14c.939,2.064,1.535,4.279,2.5,6.326.174.371.748.174.748-.2h0Z" transform="translate(-70.507 -269.364)" fill="#010d3d"/></g></g></g></svg>