<svg xmlns="http://www.w3.org/2000/svg" id="IICE_NormaPro2" width="145.197" height="117.699" viewBox="0 0 145.197 117.699"><path id="Trazado_6355" data-name="Trazado 6355" d="M284.212,160.64a4.492,4.492,0,0,0-.7-2.516,4.59,4.59,0,0,0-1.326-1.326,3.612,3.612,0,0,0-.385-.208,1.771,1.771,0,0,0-.128-.19,2,2,0,0,0-1.141-.584,1.605,1.605,0,0,0-.539-.044h.1a2.388,2.388,0,0,0-.712.066,2.339,2.339,0,0,0-1.247.884,4.456,4.456,0,0,0-1.052.69,4.333,4.333,0,0,0-1.3,2.379c-.071.168-.137.34-.2.513a5.306,5.306,0,0,0-.442,2.162,3.038,3.038,0,0,0,1.632,2.582,3.846,3.846,0,0,0,2.754.172,7.542,7.542,0,0,0,1.326-.562A4.143,4.143,0,0,0,283,163.532,4.342,4.342,0,0,0,284.212,160.64Z" transform="translate(-261.323 -98.959)" fill="#f5b9cd"/><path id="Trazado_6356" data-name="Trazado 6356" d="M287.082,201.225a4.863,4.863,0,0,0-4.315-.884,2.817,2.817,0,0,0-.654.093,2.511,2.511,0,0,0-1.769,1.552,2.653,2.653,0,0,0-2.175,1.428,4.39,4.39,0,0,0-.248,3.351,5.593,5.593,0,0,0,1.715,2.622,5.915,5.915,0,0,0,1.291.875,6.366,6.366,0,0,0,2.065.544l-.561-.1a11.387,11.387,0,0,0,1.22.168,5.446,5.446,0,0,0,1.326-.168,5.306,5.306,0,0,0,2.211-1.216,5.748,5.748,0,0,0,1.9-4.107A5.009,5.009,0,0,0,287.082,201.225Z" transform="translate(-262.751 -123.729)" fill="#f5b9cd"/><path id="Trazado_6357" data-name="Trazado 6357" d="M361.231,124.647c4.921,0,63.871-7.11,87.4-9.753l2.48-.084c1.269-9.068,2.29-28.739-.141-63.38-.146-2.1-1.353-16.951-3.126-16.867l-.765-.442c-29.49,1.574-58.954,7.11-87.826,13.388h0c2.653,8.79,4.28,40.371,4.174,51.089-.049,5.182-1.919,21.373-2.211,25.732" transform="translate(-308.245 -31.097)" fill="#fff"/><path id="Trazado_6358" data-name="Trazado 6358" d="M360.027,123.924c1.026,0,2.06-.1,3.095-.177,1.963-.15,3.922-.336,5.876-.522,5.96-.557,11.911-1.216,17.862-1.835,7.419-.769,14.829-1.636,22.239-2.485s14.732-1.693,22.107-2.494q4.8-.517,9.581-1.057c2.511-.283,5.045-.694,7.574-.774l1.565-.053a.924.924,0,0,0,.884-.668c.491-3.48.783-6.981.986-10.487.314-5.306.42-10.651.442-15.979,0-7.384-.226-14.772-.579-22.147-.31-6.495-.632-13-1.282-19.454-.265-2.6-.566-5.191-1.013-7.759a29.1,29.1,0,0,0-.672-3.095,4.8,4.8,0,0,0-.99-2.078,1.419,1.419,0,0,0-1.021-.442l.486.128c-.239-.128-.469-.27-.712-.393a4.166,4.166,0,0,0-2.052-.08c-1.508.088-3.02.186-4.527.3q-4.421.309-8.843.738c-5.987.57-11.96,1.287-17.915,2.109-11.955,1.636-23.791,3.736-35.592,6.057q-9.891,1.963-19.732,4.121a.968.968,0,0,0-.668,1.185,39.736,39.736,0,0,1,1.119,5.306c.389,2.427.672,4.771.937,7.247.632,5.911,1.066,11.849,1.406,17.783.314,5.4.548,10.815.668,16.226.04,1.844.088,3.692,0,5.536-.1,2.489-.314,4.97-.526,7.446-.442,5.306-1.026,10.611-1.459,15.917-.026.376-.057.747-.08,1.119-.071,1.043,1.552,1.039,1.623,0,.332-5,.995-9.979,1.486-14.962a128.884,128.884,0,0,0,.836-13.627c-.04-5.208-.261-10.412-.539-15.612-.323-6.009-.738-12.017-1.326-18a92.8,92.8,0,0,0-2.021-13.8c-.088-.358-.186-.716-.292-1.07l-.663,1.172c11.314-2.445,22.633-4.793,34.044-6.822,11.319-2.016,22.69-3.732,34.124-4.956q9.683-1.043,19.41-1.574l-.482-.146.566.314a2.229,2.229,0,0,0,.2.111,1.092,1.092,0,0,0,.482.133c.133,0-.279-.053-.15,0-.031,0-.3-.2-.168-.075s-.084-.141-.026-.035.075.119.106.181.066.128.1.19.031.066.049.1c.049.115-.075-.181-.026-.057s.133.363.195.548c.141.442.261.915.367,1.379a64.849,64.849,0,0,1,1.114,7.189c.681,5.982,1,12,1.326,18.008.411,7.675.677,15.355.752,23.04.053,5.58,0,11.159-.261,16.735-.168,3.692-.442,7.384-.884,11.053a3.725,3.725,0,0,1-.062.491c0,.031-.04.31,0,.15s-.022.133-.027.168l.884-.668c-1.035.035-2.074.04-3.095.159l-3.944.442c-3.095.358-6.137.716-9.21,1.1q-10.881,1.326-21.771,2.622c-7.485.884-14.979,1.72-22.465,2.653-6.19.769-12.42,1.521-18.636,2.211-3.457.385-6.871.884-10.288,1.07h-.442a.469.469,0,0,0,0,.933Z" transform="translate(-307.042 -29.905)" fill="#010d3d"/><path id="Trazado_6359" data-name="Trazado 6359" d="M363.829,71.373a178.7,178.7,0,0,1,17.588-4.519c3.024-.57,6.071-.959,9.117-1.353q4.443-.575,8.843-1.326c6.057-1.017,12.15-1.839,18.247-2.609s12.075-1.583,18.127-2.211c3.095-.332,6.261-.407,9.351-.884,1.3-.195,2.591-.442,3.9-.553a7.5,7.5,0,0,1,3.71.376c.318.146.6-.327.274-.473-1.967-.884-4.333-.442-6.384-.141-2.653.416-5.306.6-7.958.831-6.159.548-12.3,1.428-18.433,2.211s-12.141,1.552-18.185,2.516c-3.037.486-6.062,1.035-9.108,1.455s-6.07.774-9.095,1.26A140.837,140.837,0,0,0,363.71,71.01a.195.195,0,0,0,.106.371Z" transform="translate(-310.667 -44.028)" fill="#010d3d"/><path id="Trazado_6360" data-name="Trazado 6360" d="M547.047,41.676c.1,1.517.075,3.033.168,4.55a.256.256,0,0,0,.252.252c.982-.1,1.968-.221,2.949-.354a12.482,12.482,0,0,0,1.614-.248.3.3,0,0,0,.217-.283,19.218,19.218,0,0,0-.544-4.443.323.323,0,0,0-.305-.23c-.7.066-1.406.111-2.109.177-.411.035-.822.08-1.229.133a2.71,2.71,0,0,0-.942.212.27.27,0,0,0,.133.5,7.047,7.047,0,0,0,.862-.1c.411-.049.827-.088,1.238-.128.681-.062,1.366-.111,2.047-.177l-.3-.23a19.016,19.016,0,0,1,.561,4.28l.217-.279a12.785,12.785,0,0,1-1.534.265c-.955.146-1.914.283-2.874.4l.248.248c-.119-1.512-.119-3.033-.256-4.55C547.432,41.42,547.03,41.4,547.047,41.676Z" transform="translate(-412.975 -34.89)" fill="#010d3d"/><path id="Trazado_6361" data-name="Trazado 6361" d="M530.781,43.42c.1,1.512.08,3.033.172,4.55a.248.248,0,0,0,.248.248c.986-.1,1.967-.221,2.949-.349a12.432,12.432,0,0,0,1.618-.248.3.3,0,0,0,.212-.283,19.29,19.29,0,0,0-.544-4.448.318.318,0,0,0-.3-.23c-.7.066-1.41.111-2.113.177-.411.04-.818.08-1.229.133a2.737,2.737,0,0,0-.942.217.274.274,0,0,0,.137.5,7.073,7.073,0,0,0,.858-.1c.416-.049.827-.088,1.242-.124.681-.062,1.366-.111,2.047-.177l-.3-.23a19.511,19.511,0,0,1,.561,4.28l.212-.283a11.125,11.125,0,0,1-1.534.265c-.955.146-1.914.283-2.874.4l.252.252c-.124-1.517-.124-3.037-.261-4.55C531.17,43.16,530.768,43.155,530.781,43.42Z" transform="translate(-403.906 -35.861)" fill="#010d3d"/><path id="Trazado_6362" data-name="Trazado 6362" d="M515.616,45.04c.093,1.512.075,3.033.168,4.55a.248.248,0,0,0,.248.248c.986-.1,1.968-.221,2.949-.349a12.431,12.431,0,0,0,1.618-.248.3.3,0,0,0,.212-.283,19.29,19.29,0,0,0-.544-4.448.323.323,0,0,0-.3-.23c-.7.066-1.41.111-2.113.177-.407.04-.818.08-1.229.133a2.737,2.737,0,0,0-.942.217.274.274,0,0,0,.137.5,7.073,7.073,0,0,0,.858-.1c.416-.053.827-.093,1.242-.128.681-.062,1.366-.111,2.047-.177l-.3-.23a19.515,19.515,0,0,1,.562,4.28l.212-.283a11.177,11.177,0,0,1-1.53.265c-.959.146-1.919.283-2.878.4l.252.252c-.124-1.517-.124-3.037-.261-4.55C516,44.758,515.6,44.753,515.616,45.04Z" transform="translate(-395.444 -36.764)" fill="#010d3d"/><path id="Trazado_6363" data-name="Trazado 6363" d="M392.544,101.881a1.447,1.447,0,0,1-.053-.248.885.885,0,0,0-.256-.363.517.517,0,0,0-.623-.08,5.645,5.645,0,0,0-1.114.884c-.15.168-.287.336-.442.513h0a.954.954,0,0,0-.155.239,3.326,3.326,0,0,0-.164.411,3.267,3.267,0,0,0,.027,2.153,3.6,3.6,0,0,0,3.413,2.37,4.655,4.655,0,0,0,3.9-3.095,3.153,3.153,0,0,0-.575-3.422,3.784,3.784,0,0,0-6,.765,5.129,5.129,0,0,0-.491,2.211,4.637,4.637,0,0,0,.345,2.007,2.14,2.14,0,0,0,2.436,1.211,4.952,4.952,0,0,0,2.485-1.433,4.788,4.788,0,0,0,1.45-2.441,2.211,2.211,0,0,0-1.256-2.476,2.423,2.423,0,0,0-1.861-.181,3.634,3.634,0,0,0-1.583,1.278c-.663.884-1.326,2.494-.248,3.325a2.339,2.339,0,0,0,2.171.128,2.4,2.4,0,0,0,1.658-1.592,2.374,2.374,0,0,0-2.144-2.878c-1.561-.035-2.7,1.9-2.449,3.312.442,2.454,4.726,2.277,5.093-.128a2.9,2.9,0,0,0-.606-2.259,1.937,1.937,0,0,0-2.383-.517,2.07,2.07,0,0,0-.7,2.586,1.517,1.517,0,0,0,2.118.783,1.882,1.882,0,0,0,.721-2.273.756.756,0,0,0-1.1-.442,3.144,3.144,0,0,0-.844.637,2.772,2.772,0,0,0-.531,1.123.747.747,0,0,0,.265.783.734.734,0,0,0,.831.057c.19-.146.394-.279.588-.442a.756.756,0,0,0,0-1.287,1.15,1.15,0,0,0-1.278-.133,1.54,1.54,0,0,0-.327.305s-.088.124-.111.124c.1-.071.111-.084.044-.044.106-.035.119-.044.044,0a.721.721,0,1,0,.38,1.388,1.428,1.428,0,0,0,.712-.442.714.714,0,0,0,.08-.084c.084-.1-.141.093-.04.035a.522.522,0,0,1-.354.062q-.146-.066-.027,0l.124.084V103.11c-.195.137-.4.274-.592.42l1.1.84c.026-.088.049-.181.08-.27s.088-.217,0-.044l.084-.159c.075-.159-.088.066,0,0l.1-.1.071-.062c-.084.062-.093.071-.027,0l.371-.23-1.1-.442c.027.088.04.181.066.274s0-.172,0,0a.832.832,0,0,0,0,.106v.1s.044-.159,0-.057a.51.51,0,0,0-.022.088c0,.133.084-.124,0,0a.371.371,0,0,0-.04.071c-.049.115.1-.075.035-.044a.66.66,0,0,0-.049.057c-.111.084.044-.04.049-.035s-.119.066-.119.071c.035-.106.168-.049.08-.04a.685.685,0,0,0-.1.027c.044-.035.19,0,.1,0h-.066c.044-.027.2.035.08,0a.366.366,0,0,0-.066,0c-.084,0,.181.08.066.022l-.062-.04s.141.119.062.049,0,.027,0,.031a.517.517,0,0,1-.088-.146s.053.172,0,.022l-.026-.1c0-.049-.022-.172,0,0a1.082,1.082,0,0,1,0-.119q0-.066,0-.133c0-.044.035-.221,0-.04a.9.9,0,0,1,.053-.208c.018-.071,0,0-.022.04s.04-.071.057-.106.084-.093,0,0,0,0,.031,0-.044,0-.053.035c0,0,.115-.053.111-.066s-.19.049-.062.027h.08c.111-.049-.057.027-.075,0a.482.482,0,0,0,.111,0h.084c.088,0-.186-.049-.044,0h.084c.044,0,.124.075.168.093s0,0-.031-.027l.08.066c.027.027.172.195.119.124s.035.057.04.062.049.088.071.133.04.084.062.124-.057-.164-.022-.044l.057.172a.963.963,0,0,0,.049.186.517.517,0,0,0,0,.08c.031.159,0-.115,0-.044v.305c0,.1.049-.2,0,0a.681.681,0,0,1-.044.155c-.035.133.1-.168,0-.022l-.062.111s-.071.088-.066.1c0-.062.133-.15.049-.066l-.049.053c-.035.035-.071.062-.1.1-.1.1.164-.106,0,0-.08.049-.159.1-.243.141l-.071.031c-.075.044.172-.057.088-.035s-.088.031-.137.044a2.037,2.037,0,0,1-.283.071h-.062c-.128.031.177,0,.084,0h-.442c-.04,0-.221-.027-.066,0s-.027,0-.057,0a2.147,2.147,0,0,1-.279-.071s-.1-.053-.115-.044.181.088.08.031l-.057-.027-.115-.066-.053-.035c-.084-.049-.026-.071.057.049a1.112,1.112,0,0,0-.181-.172c-.093-.093.1.168,0,0l-.071-.128c-.084-.133.035.141,0,.04a.514.514,0,0,1-.035-.133.259.259,0,0,1,0-.062c-.027-.093.044-.049,0,.088a1.122,1.122,0,0,0,0-.172.777.777,0,0,0,0-.141c.035.066-.035.177,0,.084v-.075c.027-.133.08-.256.119-.389s-.084.172,0,.027a.547.547,0,0,0,.044-.088,2.227,2.227,0,0,1,.106-.2c.044-.075.093-.146.142-.221s.111-.133,0,0l.084-.1c.049-.053.106-.1.155-.15s0-.044-.049.031a.4.4,0,0,1,.071-.049c.053-.031.111-.057.159-.093s-.155.049-.071.031a1.068,1.068,0,0,0,.111-.035h.071c.106-.035.027.057-.075,0h.115c-.009,0,.133.031.172.044l.08.027c.088,0-.177-.093-.066-.027l.124.071c.026,0,.088.075.119.08-.1,0-.128-.119-.053-.04s.044.04.066.062l.111.119c.111.111-.093-.15,0,0a1.38,1.38,0,0,0,.159.287c-.084-.062-.057-.159-.035-.075l.027.084a.614.614,0,0,0,.04.155c.035.115,0-.2,0,0v.177c0,.186.049-.15,0,0a.682.682,0,0,1-.044.155c-.013.049.093-.159,0,0,0,.022-.08.168-.1.164s.128-.133.04-.053l-.053.057c-.022,0-.186.164-.088.088s-.088.053-.124.075a1.857,1.857,0,0,1-.23.115c.155-.071-.022,0-.084.027a2.116,2.116,0,0,1-.261.075l-.234.049c-.084,0-.031.04.057,0a.677.677,0,0,1-.133,0h-.164c-.19,0,.146.049,0,0l-.137-.04c-.084,0,.057-.08.1.044a.8.8,0,0,1-.075-.044c-.088-.057.155.146.049.035s.071.146.031.053-.084-.177-.022-.027,0,0,0-.053v.044a1.18,1.18,0,0,0,0-.124c0-.031.022-.212,0-.057s0-.049,0-.084a2.208,2.208,0,0,1,.084-.292c0-.035.088-.221.031-.088s.04-.075.053-.106a5.612,5.612,0,0,1,.385-.623c.053-.08-.1.119-.04.053l.066-.084.111-.119a2.8,2.8,0,0,1,.256-.256c.022,0,.186-.15.075-.066s.049-.031.08-.053.186-.106.283-.159-.186.057,0,0a.567.567,0,0,0,.142-.04c.159-.049-.137,0-.035,0h.053c-.009,0,.066,0,.088.022l.172.04a2.135,2.135,0,0,0,.309.106c-.155,0-.128-.062-.027,0l.124.066.115.071.049.031c.1.062-.141-.128-.062-.044s.106.106.159.155-.106-.172-.031-.04a.852.852,0,0,1,.066.106c0,.027.027.057.044.084s-.066-.208-.027-.053a1.866,1.866,0,0,0,.053.225c-.031-.062,0-.217,0-.08a.785.785,0,0,1,0,.1,1.248,1.248,0,0,1,0,.128c0,.1-.066.177,0-.044-.049.15-.062.314-.119.442a.693.693,0,0,0-.044.124c0-.08.08-.172,0-.044a2.268,2.268,0,0,0-.128.261,5.573,5.573,0,0,1-.309.482l-.04.053c-.066.088.035,0,.044-.062,0,.027-.062.08-.08.1s-.133.155-.2.225a5.594,5.594,0,0,1-.442.442l-.23.195c-.084.071.159-.115.022,0l-.133.093a5.666,5.666,0,0,1-.491.305l-.234.115c-.168.08.1-.035.027,0l-.137.053a1.962,1.962,0,0,1-.23.066l-.119.031h-.34c-.1,0-.022-.066.1,0a.77.77,0,0,0-.2-.049c-.124-.031-.035-.08.057.031a.507.507,0,0,0-.111-.053l-.08-.053c-.128-.066.124.115.053.044a2.116,2.116,0,0,0-.172-.172c.035.027.1.15.026.031l-.062-.1-.062-.119c-.093-.172.044.137,0,0a4.678,4.678,0,0,1-.159-.641v-.663a3.743,3.743,0,0,1,.022-.491.681.681,0,0,1,.022-.208.973.973,0,1,0,.022-.1c.027-.137.062-.274.1-.411a.661.661,0,0,1,.057-.172c.018-.057.031-.08.035-.08-.049.111-.057.128-.027.057v-.04c.057-.111.111-.221.177-.323l.088-.133c.111-.164-.1.106.026-.035a3.042,3.042,0,0,1,.234-.243c.035-.035.075-.062.115-.1s-.057.049-.066.049a.627.627,0,0,0,.088-.062c.084-.057.172-.111.261-.159l.146-.071c.066-.035.049,0-.08.031a.442.442,0,0,0,.1-.035c.093-.035.19-.066.287-.093l.155-.031h0a4.369,4.369,0,0,1,.637,0h.142c.1,0-.2-.035,0,0l.323.071c.1.027.19.057.283.093l.084.031c.084.027-.164-.075-.084-.035l.159.075a2.818,2.818,0,0,1,.252.141l.128.084c.168.119-.1-.093,0,0s.146.124.212.19a.578.578,0,0,1,.088.1.38.38,0,0,1,.058.062c.08.093-.04-.031-.049-.057a2.177,2.177,0,0,0,.164.248l.062.119c.084.164-.053-.159,0,0,.031.1.066.195.088.3a.736.736,0,0,0,.022.137c-.057-.133,0-.168,0-.093a.873.873,0,0,1,0,.106,2.857,2.857,0,0,1,0,.336c0,.181.027-.106,0,0s-.022.133-.04.2a2.747,2.747,0,0,1-.111.371c0,.062-.053.23,0,.031a1.216,1.216,0,0,1-.1.217,3.987,3.987,0,0,1-.221.376c-.044.071-.088.141-.137.208l-.066.088c-.111.159.106-.119-.04.057a4.924,4.924,0,0,1-.385.442l-.208.195-.093.075c.133-.111,0,0-.04.027a2.908,2.908,0,0,1-.407.243c-.04,0-.287.119-.088.049-.08.027-.159.057-.239.08a1.105,1.105,0,0,1-.385.088h-.062a2.482,2.482,0,0,1-.256,0h-.124a.332.332,0,0,1-.088,0c-.141-.035-.279-.075-.416-.119s.133.075-.049,0l-.159-.084-.172-.1c-.031,0-.221-.159-.124-.084s-.075-.066-.1-.084l-.128-.124-.133-.146a.8.8,0,0,0-.057-.071c-.044-.049.1.146,0,0a2.592,2.592,0,0,1-.195-.323c0-.031-.084-.124-.075-.159,0,.071.053.146,0,.035a1,1,0,0,1-.035-.106c-.044-.128-.066-.261-.1-.389s-.035-.027,0,.057a.274.274,0,0,1,0-.088V104.2c0-.071-.04-.071,0,.031a.582.582,0,0,1,0-.093c.035-.146.075-.283.119-.442s0,0,0,.031c.027-.057.057-.119.08-.181s.066-.186.1-.283c-.057.146.022-.044.044-.084a1.776,1.776,0,0,1,.115-.2s.106-.141.057-.08.035-.044.044-.053l.239-.287a4.028,4.028,0,0,1,.367-.371l-.226.137c-.088.031-.265-.119-.1.027a.765.765,0,0,0,.208.146.314.314,0,0,0,.442-.442Z" transform="translate(-325.158 -67.909)" fill="#ef8aab"/><path id="Trazado_6364" data-name="Trazado 6364" d="M396.455,145.242a1.525,1.525,0,0,0-.884-.92l.225.133c-.327-.38-1.026-.128-1.371.1-.093.066-.186.137-.274.212s-.071.071,0,0a1.615,1.615,0,0,0-.2.186,4.654,4.654,0,0,0-.4.531,2.8,2.8,0,0,0-.292,2.609c.522,1.079,1.83,1.11,2.839.836,1.251-.336,2.591-1.1,2.679-2.538a3.028,3.028,0,0,0-1.6-2.6,3.121,3.121,0,0,0-3.254-.071,4.386,4.386,0,0,0-1.769,3.842,3.254,3.254,0,0,0,1.919,2.834,3.979,3.979,0,0,0,3.427-.08,3.444,3.444,0,0,0,1.769-3.117,2.762,2.762,0,0,0-1.592-2.834,3.325,3.325,0,0,0-2.768.442,3.816,3.816,0,0,0-1.835,2.264,2.8,2.8,0,0,0,1.326,2.945,2.653,2.653,0,0,0,2.922.239,3.59,3.59,0,0,0,1.49-2.255,3.683,3.683,0,0,0-.3-2.7,2.439,2.439,0,0,0-2.679-1.035,5.394,5.394,0,0,0-1.826.76,3.617,3.617,0,0,0-1.326,1.326,2.6,2.6,0,0,0,.482,2.958c1.406,1.609,4.275,1.95,5.527,0a4.329,4.329,0,0,0,.592-1.945,3.886,3.886,0,0,0-.177-1.769,2.653,2.653,0,0,0-2.33-1.724,4.519,4.519,0,0,0-2.688.712,3.6,3.6,0,0,0-1.72,2.175,2.879,2.879,0,0,0,1.26,2.852,3.749,3.749,0,0,0,3.9.5c2.162-.977,3.435-4.262,1.384-6a4.647,4.647,0,0,0-3.771-.986,2.962,2.962,0,0,0-2.065,1.693,4.951,4.951,0,0,0,.752,5.146,2.211,2.211,0,0,0,2.339.606,3.665,3.665,0,0,0,2.348-3.152c.049-1.472-1.105-3.223-2.741-3a2.542,2.542,0,0,0-1.769,1.393,1.639,1.639,0,0,0,1.91,2.507,2.8,2.8,0,0,0,2.211-1.074,1.2,1.2,0,0,0-.115-1.349,3.029,3.029,0,0,0-1.384-.884.725.725,0,0,0-.725.195c-.5.6-1.017,1.547-.442,2.281.606.8,1.609.279,2.149-.3a.769.769,0,0,0,.119-.884,1.278,1.278,0,0,0-1.066-.831,1.11,1.11,0,0,0-.442.08c-.111.04-.212.093-.318.137.195-.08-.057,0-.093.027a.745.745,0,1,0,.393,1.437,3.973,3.973,0,0,0,.4-.155l.119-.053c.088-.04-.168.053-.027,0s-.057,0-.08,0a.486.486,0,0,1-.27-.1c-.084-.049.022.062-.04-.035.044.071.084.146.124.225l.115-.884a1.04,1.04,0,0,1-.38.305c.084-.031.088-.04,0,0a.349.349,0,0,1,.212,0,.442.442,0,0,1,.283.248c.027.066.031.066,0,0v.044h0l.027-.1h0a1.6,1.6,0,0,1,.075-.15,1.767,1.767,0,0,1,.164-.239l-.725.195c.044,0,.256.111.057,0l.15.071a2.112,2.112,0,0,1,.279.15.59.59,0,0,0,.1.071c.009,0-.15-.137-.044-.031l.071.066c.115.1-.1-.15-.035-.044s-.044-.186,0-.022,0-.177,0-.115c0,.137.035-.164.022-.1-.044.181.057-.141.022-.044a.266.266,0,0,1-.04.057c.031-.04.146-.146.044-.062l-.057.053c-.075.093.146-.1.071-.053l-.172.111c-.057.031-.124.053-.181.088s.19-.071.057-.027l-.124.044a3.152,3.152,0,0,1-.442.115h-.111c-.093.022.217,0,.044,0a2.165,2.165,0,0,1-.243,0h-.323c-.159,0,.159.04.057,0a.642.642,0,0,0-.181-.04l-.1-.035c-.093,0,.186.106.066.031l-.08-.049c-.106-.044.071.062.071.057s-.044-.027-.057-.049c-.071-.124.111.159.044.057s.049.164,0,0,0,.1,0,.084a.4.4,0,0,0,0-.1c0-.146.027.053,0,.08a.492.492,0,0,0,.031-.115.8.8,0,0,1,.035-.111c.04-.133-.088.164,0,0a2.934,2.934,0,0,1,.146-.256l.106-.159h0c-.053.066.057-.066.071-.08s.1-.1.155-.15-.1.066,0,0l.071-.044c.071-.044.208-.084.053-.04a1.324,1.324,0,0,0,.19-.053c-.111.057-.133,0-.057,0h.15c.093,0-.142-.044-.057,0l.159.04h-.044l.106.053c.053.027.1.062.146.088s.08.084-.027-.027c.022.027.053.044.075.071a1.77,1.77,0,0,1,.128.128l.053.057c.111.111-.035-.075,0,0s.146.239.208.358-.026-.106.027.057c.027.084.053.164.075.248s0,.137.04.2,0-.044,0-.053a1.082,1.082,0,0,1,0,.119q0,.119,0,.239a.673.673,0,0,0,0,.093c0,.088.031-.128,0,0a.907.907,0,0,1-.049.217l-.027.181c0,.022-.053.146,0,.062s0,0,0,.031l-.062.119c-.044.08-.1.159-.146.234s-.035.044,0,0a.54.54,0,0,1-.066.075l-.111.128-.256.256-.111.1c-.141.119.075-.049,0,0s-.15.106-.23.15a.758.758,0,0,1-.1.057l-.062.031c-.093.053.08-.044.088-.035a1.714,1.714,0,0,0-.23.075h-.1c-.137.035.168,0,.071,0a1.769,1.769,0,0,0-.217,0c-.146,0,.142.035.071,0H395.4l-.088-.027c-.146-.035,0-.022.057.027-.031-.035-.137-.062-.177-.088l-.08-.053c-.124-.075,0,0,.031.027-.088-.106-.208-.2-.3-.3s.106.155.027.031a1.072,1.072,0,0,0-.062-.088c-.044-.071-.088-.141-.128-.212s-.071-.133-.1-.2a.584.584,0,0,1-.057-.119s.08.2,0,.022a4.519,4.519,0,0,1-.155-.491,2.392,2.392,0,0,1-.057-.256l-.027-.119c0-.035-.031-.23,0-.075s0,0,0-.044a1.4,1.4,0,0,1,0-.141v-.814c0-.035.027-.186,0-.04s0,0,0-.04a2.168,2.168,0,0,1,.057-.27,2.267,2.267,0,0,1,.066-.248l.04-.111c.049-.146.022-.044,0,0a4.106,4.106,0,0,1,.234-.442.359.359,0,0,0,.066-.093c0,.106-.111.128,0,.027a2.393,2.393,0,0,1,.181-.186l.084-.071s-.155.106-.035.027a2.355,2.355,0,0,1,.225-.137l.106-.053c.137-.071-.146.04-.035,0a2.281,2.281,0,0,1,.27-.084l.146-.031c.155-.031-.057,0-.027,0h.323a2.345,2.345,0,0,1,.305,0h.221a5.2,5.2,0,0,1,.853.239c.128.049-.1-.049.066.031l.177.088c.128.071.243.15.363.23-.119-.08-.035-.027.022.027a1.526,1.526,0,0,1,.124.115l.128.137c.075.08-.08-.119.022.031a3.179,3.179,0,0,1,.168.287c.057.1-.035-.119,0,0s.044.119.062.181a1.357,1.357,0,0,1,.035.146c.009.049.044.2,0,.071s0,.057,0,.088v.172a.976.976,0,0,1,0,.323s.04-.195,0-.066a.388.388,0,0,0,0,.062.732.732,0,0,1-.044.195c-.018.062-.057.2-.093.3s-.115.217,0,.027c-.031.053-.053.111-.08.168s-.106.2-.168.3l-.088.133c-.053.075-.124.155-.022.035a4.565,4.565,0,0,1-.5.517c-.066.057-.124.1,0,0l-.15.111a3.308,3.308,0,0,1-.3.181l-.141.071c-.177.088.08-.022-.035,0s-.23.08-.354.111l-.159.035h-.548c-.186,0,.141.031-.044,0a3.428,3.428,0,0,1-.367-.093,1.521,1.521,0,0,1-.2-.071c.141.053,0,0-.049-.022a4.423,4.423,0,0,1-.4-.23l-.172-.124c.128.093-.04-.031-.066-.053s-.172-.155-.252-.239-.075-.084-.115-.128c-.111-.115.071.111,0,0s-.115-.168-.164-.261a.867.867,0,0,0-.057-.111c-.022-.031.057.172,0,.031a1.216,1.216,0,0,1-.071-.256c-.04-.164,0,.124,0,.035v-.111a2.156,2.156,0,0,0,0-.239c.031.168-.027.159,0,.044l.027-.106a.13.13,0,0,1,.035-.106c.044-.141,0-.04,0,0,.084-.146.159-.287.252-.442s-.119.137,0,0c.027-.031.049-.062.08-.093a2.788,2.788,0,0,1,.195-.2l.186-.168c.137-.115-.088.062,0,0l.119-.084a3.985,3.985,0,0,1,.5-.3l.234-.111c.027,0-.168.066,0,0l.159-.057a3.853,3.853,0,0,1,.548-.146h.124c.15-.031-.164,0-.04,0h.283a2.156,2.156,0,0,1,.239,0h.133s-.208-.04-.1,0h.066l.239.057.106.04c.164.053-.137-.075,0,0a1.7,1.7,0,0,1,.195.111s.071.062.093.062c-.106,0-.133-.119-.075-.057l.062.053s.177.155.168.177-.119-.177-.026-.027c.026.044.057.084.084.133s.035.075.057.111c.075.133-.049-.141,0-.027a1.827,1.827,0,0,1,.093.305c.027.106.022.1.031.141.035.186.027,0,0,0,.044.022.027.336.027.385v.57a.337.337,0,0,1-.022.146,3.829,3.829,0,0,1-.084.376.69.69,0,0,1-.062.2c-.022.066-.088.225-.04.119s-.031.057-.044.084-.053.106-.084.159l-.084.128c0,.022-.035.044-.049.071s.124-.137.027-.04-.124.141-.195.2l-.057.053c-.075.08.044-.075.062-.044l-.128.088c-.075.049-.155.084-.23.128s.172-.062,0,0l-.142.044c-.088.027-.181.044-.27.062-.168.035.15,0,.031,0h-.482a.548.548,0,0,0-.1,0,3.417,3.417,0,0,1-.579-.159c-.027,0-.186-.066-.053,0s-.022,0-.057-.027-.186-.093-.274-.146a2.809,2.809,0,0,1-.243-.155l-.111-.08s.155.128.062.049l-.057-.049c-.146-.124-.265-.274-.4-.411h0c-.022-.04-.053-.075-.075-.115a2.6,2.6,0,0,0-.124-.23c-.049-.071.062.177,0,.035a.492.492,0,0,0-.044-.128c-.013-.044-.022-.075-.031-.115a.161.161,0,0,1,0-.066c-.027-.106.049,0,0,.084a.831.831,0,0,0,0-.234V147.2c0-.093.057.035,0,.1,0,0,0-.115.027-.137s.022-.093.035-.137,0-.031,0-.049c.027-.088.035,0,0,0s-.049.088,0,0,.022-.044.035-.066a1.1,1.1,0,0,1,.08-.137c.027-.044.062-.088.093-.133-.075.111-.062.071,0,0a3.74,3.74,0,0,1,.265-.265l.137-.111c-.155.128.027,0,.066-.044.119-.08.243-.159.371-.23s.274-.146.411-.208c.035,0,.208-.093.119-.057l.159-.057c.106-.04.217-.071.327-.1s.265-.1.345-.071h.27c.177,0,0,.044-.027,0,.027.031.195.04.243.057s.08.04.1.035c-.124,0-.159-.08-.093-.04l.066.035.093.053c.119.066,0,.071-.031-.031,0,.04.137.124.172.159s.088.133,0,0h0s.084.137.119.208.071.155,0,.022,0,0,0,.027a2.511,2.511,0,0,1,.071.243l.027.128v.212a4.052,4.052,0,0,1,0,.517c0,.164.027,0,0-.044a.522.522,0,0,1-.022.137,1.173,1.173,0,0,1-.062.274c-.022.088-.044.159-.071.234a.5.5,0,0,1-.04.115.39.39,0,0,1-.022.066c-.044.128,0-.062.027-.066a2.9,2.9,0,0,0-.234.442l-.075.111c0,.027-.106.146,0,.027s0,0-.027.027a1.108,1.108,0,0,1-.1.106l-.159.15c-.111.1.133-.084.04-.031l-.115.08a.5.5,0,0,0-.2.106c0-.04.2-.066.049-.027l-.133.04a.746.746,0,0,0-.106.022h-.155a1.21,1.21,0,0,0-.124,0c-.1-.022-.186-.057-.283-.088s.159.08,0,0l-.133-.066c-.115-.066-.225-.141-.336-.212s.066.062-.031-.022l-.128-.111a3.4,3.4,0,0,1-.363-.057c-.115-.124.066.106,0,0a1.386,1.386,0,0,1-.088-.133l-.066-.115a.442.442,0,0,0-.031-.066c-.04-.057.057.181.027.062s-.053-.159-.071-.239v-.066c-.027-.084.071,0,0,.1a.515.515,0,0,0,0-.137c0-.044.031-.2,0-.234.044.066-.035.195,0,.031a.211.211,0,0,1,.031-.133l.04-.128c0-.031.071-.172,0-.04s0,0,.022-.04l.075-.137c.044-.08.093-.155.141-.23s-.035.04,0,0,.062-.08.1-.115a4.52,4.52,0,0,1,.416-.407c.115-.1-.04.027,0,0l.106-.08c.084-.057.168-.115.256-.164s.164-.093.248-.137l.119-.053c.1-.053-.172.062,0,0a3.539,3.539,0,0,1,.535-.155c.027,0,.106,0,.119-.022-.044.053-.19,0-.1,0h.433c.177,0-.146-.035-.035,0l.243.062c.137.035-.057-.035-.044-.022a.99.99,0,0,0,.1.049l.106.062c.137.08-.088-.093-.022,0a1.588,1.588,0,0,0,.172.172s-.1-.155-.027-.031c.027.044.053.08.075.124s.044.088.071.133-.053-.168,0,0,.066.217.093.327,0,.106.026.159c-.049-.217,0,0,0,.044v.4a2.6,2.6,0,0,1-.026.442c-.027.155.031-.137,0,.031a.907.907,0,0,1-.049.217c-.018.071-.075.212-.106.318.057-.2,0-.027,0,.031a1.764,1.764,0,0,1-.088.155l-.1.146c-.062.111.115-.124,0,0s-.141.159-.221.234-.088.071-.128.111c.093-.088.08-.057,0,0a2.8,2.8,0,0,1-.292.172,1.236,1.236,0,0,1-.133.066c-.093.049.164-.057,0,0a3.1,3.1,0,0,1-.327.1c-.057,0-.234.084-.292.057s.2,0,.071,0h-.252a2.278,2.278,0,0,1-.3,0h-.168c-.057,0,.172.035,0,0s-.42-.124-.632-.177c-.071,0,.084.035.084.035l-.075-.035-.133-.066c-.1-.053-.19-.115-.283-.177s.093.088,0,0l-.124-.111c-.084-.075-.15-.164-.23-.243.084.084.066.093,0,0l-.15-.15c0-.044-.044-.088-.071-.133a.5.5,0,0,1-.035-.08c-.013-.027.053.159,0,.035a1.386,1.386,0,0,1-.093-.305c-.022-.106-.027-.124-.04-.186s0-.115,0,.053v-.1a2.864,2.864,0,0,1,0-.389v-.164a.336.336,0,0,1,.022-.146c.027-.141.062-.283.1-.442a2.038,2.038,0,0,1,.084-.27l.035-.093s.071-.186.031-.093.053-.111.066-.137.071-.141.111-.212l.1-.168c.027-.04.186-.239.053-.084.075-.088.15-.177.234-.261l.137-.124c.075-.066-.124.08.031,0,.084-.053.177-.1.261-.15s-.155.049,0,0l.159-.049.155-.035c.155-.035-.035,0,0,0h.46c.128,0-.177-.04,0,0s.208.044.309.075l.133.044.075.031c.1.035-.057-.031-.066-.031s.243.119.287.15a2.646,2.646,0,0,1,.234.15c.155.106-.066-.066,0,0l.119.1c.071.066.141.137.208.208a1.24,1.24,0,0,1,.084.106s-.111-.164-.044-.062l.04.062a2.143,2.143,0,0,1,.146.239s.062.1.053.115-.062-.186-.031-.08a.473.473,0,0,0,.031.084,1.685,1.685,0,0,0,.062.256c-.031,0,0-.221,0-.044v.141a.542.542,0,0,0,0,.119c-.049-.044.044-.2,0-.027a.158.158,0,0,1-.035.119c-.035.04-.022.044-.027.066s.093-.159.027-.057a2.4,2.4,0,0,0-.141.225c.093-.172.04-.049,0,0a1.653,1.653,0,0,1-.124.124c-.022.022-.155.128-.066.057s-.08.057-.1.071a3.125,3.125,0,0,1-.354.2c-.031,0-.252.106-.1.044l-.212.084c-.15.053-.305.1-.442.146l-.385.084c-.133.031.164,0,0,0h-.172a1.661,1.661,0,0,0-.292,0c.04-.035.181.04.035,0a.848.848,0,0,1-.141-.04c-.133-.027.049.027.044,0a.442.442,0,0,0-.093-.044.53.53,0,0,0-.093-.057c.04,0,.15.146.04.027a.642.642,0,0,0-.075-.08c-.062-.053.093.159.044.049,0-.027-.035-.053-.049-.08-.093-.141.044,0,0,.049a1.525,1.525,0,0,0-.057-.195c-.04-.128,0,0,0,.062,0-.071-.022-.146-.027-.221v-.137c0-.075.027-.292,0-.155s0-.022,0-.049l.027-.111a1.3,1.3,0,0,1,.071-.248v-.111a1.109,1.109,0,0,0,.04-.111c0-.053.093-.177,0,0l.053-.119c.035-.071.071-.141.111-.212a1.048,1.048,0,0,0,.057-.093c.044-.071.035-.128,0,0,0-.044.2-.261.1-.133s0,0,.027-.031l.137-.141c.066-.062.071-.044,0,0a.78.78,0,0,0,.075-.053c.071-.04.226-.075.057-.04l.164-.049c-.115.044-.106,0-.027,0a.65.65,0,0,0,.407-.181l-.358.15a1.061,1.061,0,0,1,.168,0c.062,0-.1-.04,0,0l.088.027c.093.027-.053-.031.022,0l.093.049a1.1,1.1,0,0,1,.168.124c.19.164.6,0,.478-.279Z" transform="translate(-326.597 -91.868)" fill="#ef8aab"/><path id="Trazado_6365" data-name="Trazado 6365" d="M398.338,189.163a1.454,1.454,0,0,0-.071-.195c-.022-.04-.088-.195-.057-.08a.6.6,0,0,0-.557-.442h-.217a1.83,1.83,0,0,0-.221,0,2.139,2.139,0,0,0-.623.124,3.042,3.042,0,0,0-1.026.632,2.308,2.308,0,0,0-.694,2.25c.407,1.517,2.069,1.91,3.427,1.592a3.563,3.563,0,0,0,2.816-2.476,2.626,2.626,0,0,0-.911-2.684,3.294,3.294,0,0,0-2.326-.442,6.4,6.4,0,0,0-2.6.924,4.174,4.174,0,0,0-1.769,2.021,2.653,2.653,0,0,0,.575,2.622,5.067,5.067,0,0,0,3.175,1.733,3.648,3.648,0,0,0,2.821-1c1.326-1.185,2.171-3.6,1.03-5.164a3.037,3.037,0,0,0-2.9-1.088,3.82,3.82,0,0,0-2.233.99,3.731,3.731,0,0,0-1.167,2.056,2.852,2.852,0,0,0,.707,2.454,2.6,2.6,0,0,0,2.3.831,2.94,2.94,0,0,0,2.392-3.25,2.507,2.507,0,0,0-1.406-1.83,1.8,1.8,0,0,0-2.308.531,2.012,2.012,0,0,0,.349,2.365,2.441,2.441,0,0,0,1.884.774,1.543,1.543,0,0,0,1.41-1.715,1.941,1.941,0,0,0-1.587-1.738,1.994,1.994,0,0,0-2.211.982,1.486,1.486,0,0,0,.924,2.056,1.95,1.95,0,0,0,2.211-.836.743.743,0,0,0-.19-.964.752.752,0,0,0-.982.062,1.464,1.464,0,0,0-.345.544l-.062.181c-.049.146-.133.177.084-.088l1.273.526v-.248h0a.663.663,0,0,1-.4.371c-.208.066-.172,0-.084,0a1.371,1.371,0,0,0,.712-.146.738.738,0,0,0,.265-1,.756.756,0,0,0-1-.261c.031,0,.208-.1.23-.062h-.137a.915.915,0,0,0-.539.119,1.3,1.3,0,0,0-.5,1.234.743.743,0,0,0,.442.681.73.73,0,0,0,.814-.155,1.6,1.6,0,0,0,.283-.508,1.388,1.388,0,0,1,.057-.177s-.164.19,0,.049l-1.172-.884c.066-.1-.062.062-.088.088a.475.475,0,0,1-.071.062c.035-.027.106-.057,0,0s-.146.04-.031,0l-.106.031c-.093.031,0,0,.04,0a.886.886,0,0,0-.186,0h.075l-.1-.027h0c.128.04.022,0,0,0s-.172-.115-.044,0a.82.82,0,0,1-.062-.062s.093.128.049.062c-.084-.137,0,.115,0,0v.088s.035-.08.027-.093-.08.168,0,.035h0c-.057.093.084-.08.106-.1-.088.084-.027.031.031,0s.133-.057-.027,0l.106-.035c.031,0,.225-.04.115-.031s.1,0,.124,0c.137,0-.111-.035.022,0s.142.044.212.057c-.124-.027-.035,0,.044.027s.155.141.049.022c.035.04.08.08.115.115-.111-.106,0,0,.035.071s-.035-.128,0-.053a.44.44,0,0,0,.035.106c.031.062,0-.031,0-.053v.119c0,.04-.04.155,0,.04-.031.08-.08.212,0,.062l-.031.057c-.057.08.093-.119.035-.049s.093-.053,0,0,.146-.062.027,0l-.084.022c0-.022.186,0,.066,0h-.115a.71.71,0,0,0-.093-.022l-.146-.04-.093-.035c.044,0,.115.066.035,0s-.208-.119-.31-.186c.1.066.053.044,0,0s-.088-.1-.137-.15c.088.088.049.057,0-.027s.035.146-.022-.044c-.022-.066-.04-.137-.057-.208s0-.133,0,0v-.119h0v-.035c0-.035-.071.128,0,0s-.066.075,0,0,.111-.084-.04.027l.08-.049c-.128.057-.062.031.031,0a.4.4,0,0,1,.071,0h.119c-.168,0,0,0,.08.035s.106.04.027,0,.031,0,.049.031l.168.1c.093.066-.075-.071,0,0l.08.071c.04.04.172.212.088.088a1.471,1.471,0,0,1,.111.177s.088.181.049.088.031.093.035.119,0,.23,0,.066v.345c0,.111.035-.133,0-.04a.51.51,0,0,0,0,.08,1.555,1.555,0,0,1-.062.2l-.027.075c-.031.1.066-.111,0-.027a.491.491,0,0,0-.075.141c-.027.044-.066.106-.1.164s-.084.106,0-.022l-.071.084a3.391,3.391,0,0,1-.252.252c-.137.119.066-.035-.044.031l-.186.115c-.027,0-.2.1-.106.053l-.084.031-.181.044h-.349s.141.031.066,0a1.336,1.336,0,0,0-.19-.049l-.08-.027c-.08-.027.111.066,0,0l-.186-.111-.08-.053s.093.075.022,0l-.19-.177-.071-.08c-.053-.057.044.075-.031-.035l-.119-.195a.825.825,0,0,0-.044-.088s.044.115,0,.035a1.877,1.877,0,0,1-.066-.208c0-.062-.035-.27-.026-.106v-.4c0-.133-.031.119,0,0a.693.693,0,0,1,0-.093,1.636,1.636,0,0,1,.062-.243c0-.031.08-.217.049-.146s.044-.088.057-.115a3.533,3.533,0,0,1,.252-.411s.071-.093.022-.031.031-.035.044-.049l.133-.146.164-.159c.035-.027.221-.172.1-.088a3.643,3.643,0,0,1,.354-.221l.2-.1c-.133.062.071,0,.119-.035a3.806,3.806,0,0,1,.389-.084c.106-.022-.141,0-.035,0h.774c.049-.027.208.04.261.053a1.55,1.55,0,0,0,.27.084c-.035,0-.168-.084-.044,0l.111.057.1.062.04.031c.119.071-.057-.049-.057-.049s.142.124.159.141l.075.084c.111.119-.066-.115,0-.022a1.446,1.446,0,0,1,.111.177.9.9,0,0,1,.049.1c.018.035-.062-.19,0-.031a3.149,3.149,0,0,1,.119.442c.035.146,0-.186,0-.062a1.082,1.082,0,0,0,0,.119v.464a.533.533,0,0,0-.027.146,3.9,3.9,0,0,1-.133.508c-.027.08-.057.159-.088.239-.053.146.066-.133,0,0l-.066.141a3.87,3.87,0,0,1-.274.473c-.044.071-.1.137-.146.212s.106-.128,0,0l-.1.119a4.558,4.558,0,0,1-.394.38c-.115.1.031,0,.031-.022s-.1.071-.111.08a2.885,2.885,0,0,1-.248.155l-.221.115c-.137.071.137-.044,0,0l-.146.053a2.185,2.185,0,0,1-.243.066,1.254,1.254,0,0,1-.137.027c-.172.035.1,0,0,0s-.5.075-.575,0c.027.031.177.031.027,0l-.15-.031c-.111-.027-.221-.057-.327-.093l-.133-.049c-.119-.04.133.062-.027,0a2.172,2.172,0,0,1-.354-.186,4.442,4.442,0,0,1-.65-.442c-.115-.08.1.084,0,0l-.124-.106a2.992,2.992,0,0,1-.243-.23c-.062-.062-.115-.141-.177-.2s.093.137,0,0l-.084-.119c-.04-.066-.071-.137-.111-.2s.049.15,0,.04a.524.524,0,0,0-.044-.124c-.013-.044-.031-.128-.049-.195-.035-.142,0,.177,0,.062a1.18,1.18,0,0,0,0-.124c0-.062,0-.128,0-.195,0-.137-.04.177,0,.066a.883.883,0,0,0,.027-.115,1.325,1.325,0,0,1,.053-.19s.044-.08.035-.1c0,.049-.088.181,0,.035s.146-.252.23-.376,0,.035-.035.044.057-.066.071-.088a2.492,2.492,0,0,1,.172-.186c.057-.057.243-.221.367-.327s-.137.1-.035.027l.1-.071c.075-.053.15-.106.23-.155a5.042,5.042,0,0,1,.442-.256l.217-.106a.521.521,0,0,0,.124-.053l-.093.04.088-.035c.164-.062.327-.119.5-.168a5.116,5.116,0,0,1,.5-.119c.049,0,.3-.044.146-.027s0,0,.044,0h.137a4.139,4.139,0,0,1,.469,0c.049,0,.283.031.124,0s.08,0,.133.027l.2.053.1.035c.133.044-.075-.035-.057-.027l.177.093.08.053c.119.071-.062-.053-.049-.04l.142.128.066.075c.066.066-.106-.164-.04-.049s.066.115.1.172,0,.084,0-.057a.4.4,0,0,0,.035.1,2.035,2.035,0,0,1,.057.221c.022.1-.031.119,0-.049a.585.585,0,0,0,0,.124q0,.133,0,.265v.141c0,.044-.027.2,0,.071s0,.044,0,.075a.912.912,0,0,1-.044.146c-.044.159.062-.093,0,0a1.459,1.459,0,0,0-.08.141c-.027.044-.066.088-.093.137.057-.115.049-.062,0,0a3.279,3.279,0,0,1-.248.248c-.062.053-.146.115-.031.031l-.15.106a3.468,3.468,0,0,1-.323.195l-.168.088-.075.031c-.088.049.124-.044.027,0a3.068,3.068,0,0,1-.358.124,3.688,3.688,0,0,1-.367.088H397.1c-.119,0,.1.027-.027,0l-.168-.035-.159-.044a.418.418,0,0,0-.066-.027c-.093-.022.119.075.044,0a1.436,1.436,0,0,0-.142-.075c-.031,0-.164-.124-.08-.053s-.049-.044-.066-.066-.133-.164-.066-.071-.044-.071-.053-.088-.1-.19-.057-.1-.035-.1-.044-.133-.044-.23-.035-.146,0-.08,0-.106v-.1a1.114,1.114,0,0,1,.062-.19c-.053.124.022,0,.049-.066s.106-.15.062-.1.027-.031.044-.044l.08-.088c.049-.049.1-.093.155-.137-.093.075.049-.031.08-.053a3.679,3.679,0,0,1,.336-.195c.027,0,.119-.04,0,0l.084-.031.186-.075c-.031,0-.111.031,0,0l.159-.049h.106a.566.566,0,0,0,.5-.287l.022-.04-.172.172a.8.8,0,0,1,.234-.124.15.15,0,0,0,.1-.181Z" transform="translate(-327.283 -116.601)" fill="#ef8aab"/><path id="Trazado_6366" data-name="Trazado 6366" d="M420.176,91.7a19.153,19.153,0,0,0,3.979-.119c1.234-.146,2.454-.279,3.674-.513,2.525-.486,5-1.132,7.485-1.8,4.97-1.326,9.944-2.75,15.094-3.192,1.512-.128,3.007-.394,4.51-.628.721-.115,1.446-.217,2.18-.283a12.331,12.331,0,0,0,2.29-.212.588.588,0,0,0,0-1.123,4.762,4.762,0,0,0-1.985-.1c-.681.053-1.357.141-2.038.234-1.326.186-2.617.442-3.935.6-2.613.318-5.2.575-7.777,1.127-5.058,1.079-9.979,2.706-15.033,3.855-1.366.314-2.759.65-4.143.884-1.455.234-2.931.376-4.386.623-.4.071-.261.628.088.663Z" transform="translate(-342.051 -58.735)" fill="#f5b9cd"/><path id="Trazado_6367" data-name="Trazado 6367" d="M424.676,102.076a6.541,6.541,0,0,0,3.369.031c1.207-.164,2.4-.4,3.586-.663,2.326-.513,4.629-1.136,6.968-1.609,4.8-.968,9.674-1.521,14.533-2.109,1.123-.137,2.25-.261,3.373-.442a7.924,7.924,0,0,0,3.3-.844.584.584,0,0,0-.292-1.079,5.747,5.747,0,0,0-1.366.225c-.517.115-1.043.2-1.565.287-1.008.155-2.021.261-3.033.376-2.33.261-4.651.553-6.972.858-2.441.323-4.863.654-7.3,1.158-2.343.491-4.638,1.154-6.95,1.769-1.278.34-2.564.646-3.86.884-.676.128-1.357.225-2.034.336a6.313,6.313,0,0,0-1.808.442c-.177.08-.1.305.044.363Z" transform="translate(-344.663 -65.26)" fill="#f5b9cd"/><path id="Trazado_6368" data-name="Trazado 6368" d="M426.935,114.919c.508.442,1.424.217,2.047.15.822-.088,1.636-.212,2.449-.358,1.627-.3,3.236-.668,4.864-.99,2.949-.592,6.084-.557,8.9-1.707.694-.279.389-1.419-.31-1.132-2.772,1.15-5.823,1.057-8.7,1.769-1.556.38-3.095.827-4.673,1.145-.831.168-1.671.314-2.516.416-.619.075-1.578-.044-2.047.416a.212.212,0,0,0,0,.3Z" transform="translate(-345.976 -73.894)" fill="#f5b9cd"/><path id="Trazado_6369" data-name="Trazado 6369" d="M421.26,130.894a.477.477,0,0,0,.119.217,1.376,1.376,0,0,0,.124.1c.1.075.106.137.053,0a.345.345,0,0,0,.305.172,10.926,10.926,0,0,0,2.547-.141c1.3-.168,2.586-.4,3.873-.615,3.024-.5,6.009-1.088,9-1.769,7.773-1.746,15.634-3.095,23.469-4.545a78.6,78.6,0,0,1,9.121-1.446c1.508-.106,3.02-.2,4.523-.376a12.043,12.043,0,0,0,4.147-1.008c.345-.172.08-.619-.243-.57-1.406.2-2.785.517-4.2.654s-2.75.168-4.13.252a70.243,70.243,0,0,0-8.356,1.18c-5.858,1.07-11.717,2.166-17.579,3.223-2.41.442-4.784.973-7.171,1.521-1.53.354-3.064.69-4.594,1.048s-3.095.787-4.642,1.11a41.22,41.22,0,0,1-4.271.73,11.407,11.407,0,0,1-1.326.071,1,1,0,0,0-.323.04l-.071.053q-.155.177.093-.053c-.027,0-.071.035-.093,0s-.128.022-.172,0-.2.04-.181.137Z" transform="translate(-342.839 -79.515)" fill="#f5b9cd"/><path id="Trazado_6370" data-name="Trazado 6370" d="M423.754,147.721a1.958,1.958,0,0,0-.668-.155.27.27,0,0,0-.071.531,12.322,12.322,0,0,0,3.8.181c1.326-.075,2.653-.243,3.979-.442,2.679-.411,5.332-.995,8.016-1.326,3.281-.442,6.6-.464,9.86-1.048a19.051,19.051,0,0,0,2.237-.5c.491-.15,1.238-.5.986-1.136a.3.3,0,0,0-.358-.2h-.04a1.185,1.185,0,0,0-.442.137c-.2.115-.411.221-.623.323a7.583,7.583,0,0,1-1.875.5c-1.769.336-3.537.517-5.306.716-1.419.164-2.847.279-4.262.442-2.41.292-4.788.8-7.18,1.2-1.5.252-3.011.478-4.532.6-1.4.115-2.781.04-4.183.044l.071.531a2.052,2.052,0,0,0,.615-.305.044.044,0,0,0,0-.071Z" transform="translate(-343.706 -92.177)" fill="#f5b9cd"/><path id="Trazado_6371" data-name="Trazado 6371" d="M425.552,176.162a.442.442,0,0,0-.354.172.314.314,0,0,0,.111.442,1.229,1.229,0,0,0,.668.084,12.335,12.335,0,0,0,1.282-.119c1.2-.15,2.392-.389,3.577-.641,3.281-.685,6.561-1.326,9.868-1.853,6.72-1.083,13.485-1.906,20.2-3.007,3.754-.615,7.485-1.353,11.226-2.038.464-.088.363-.884-.115-.836-3.312.4-6.583,1.189-9.873,1.769s-6.517,1.03-9.78,1.5c-6.57.937-13.176,1.769-19.675,3.152-1.623.336-3.232.743-4.863,1.012l-1.4.23c-.208.035-.442.066-.632.111a1.242,1.242,0,0,0-.212.053c-.111.04-.195,0-.031.035l.217.38c-.128.141-.15.186-.062.133.243-.128.146-.584-.15-.544Z" transform="translate(-345.008 -105.987)" fill="#f5b9cd"/><path id="Trazado_6372" data-name="Trazado 6372" d="M426.989,186.074c-.287.084-.566.195-.853.3a.27.27,0,0,0,.075.531,19.077,19.077,0,0,0,3.8-.7c1.349-.265,2.7-.508,4.054-.738,2.653-.442,5.306-.849,7.958-1.242,5.359-.8,10.722-1.539,16.01-2.732,1.4-.318,2.794-.676,4.2-.977a35.843,35.843,0,0,1,4.51-.623.442.442,0,1,0,0-.884,33.978,33.978,0,0,0-7.715,1.326c-2.609.619-5.239,1.141-7.883,1.6-5.372.933-10.775,1.676-16.147,2.586-1.53.261-3.055.535-4.576.84-.756.15-1.512.305-2.268.473a9.421,9.421,0,0,0-2.082.592l.327.442c.221-.181.442-.349.685-.513.111-.08.049-.274-.1-.234Z" transform="translate(-345.446 -111.92)" fill="#f5b9cd"/><path id="Trazado_6373" data-name="Trazado 6373" d="M427.827,198.084c4.174-.8,8.4-1.384,12.57-2.118,1.769-.31,3.537-.442,5.306-.712.849-.124,1.7-.27,2.538-.473.632-.155,1.8-.309,2.158-.911a.442.442,0,0,0-.252-.628,1.976,1.976,0,0,0-1.1.234c-.407.137-.822.248-1.242.345-.84.2-1.693.34-2.551.464-1.733.248-3.48.411-5.2.73-1.994.367-3.948.884-5.951,1.2-2.158.358-4.333.672-6.46,1.194C427.2,197.513,427.384,198.168,427.827,198.084Z" transform="translate(-346.257 -119.862)" fill="#f5b9cd"/><path id="Trazado_6374" data-name="Trazado 6374" d="M297.16,159.117c4.709,1.433,63.154,12,86.4,16.425l2.392.646c3.886-8.29,10.66-26.8,18.53-60.612.478-2.047,3.7-16.6,1.976-17.035l-.6-.646c-28.65-7.18-58.437-10.563-87.879-13.065h0c-.035,9.188-7.795,39.841-11.053,50.054-1.574,4.934-8.126,19.861-9.683,23.942" transform="translate(-273.608 -59.386)" fill="#fff"/><path id="Trazado_6375" data-name="Trazado 6375" d="M296.121,158.4c.982.305,2,.513,3,.738,1.919.442,3.847.831,5.77,1.234,5.863,1.22,11.743,2.343,17.615,3.506,7.317,1.45,14.657,2.8,21.987,4.174s14.59,2.719,21.855,4.125c3.152.606,6.309,1.216,9.47,1.808,2.48.469,5.023.822,7.463,1.49l1.512.411a.915.915,0,0,0,1.026-.42c1.486-3.157,2.785-6.407,4.006-9.678,1.857-4.961,3.537-10,5.085-15.033,2.184-7.074,4.147-14.215,5.987-21.382,1.623-6.318,3.236-12.654,4.523-19.056.513-2.547.977-5.111,1.326-7.689a29.3,29.3,0,0,0,.27-3.166,4.726,4.726,0,0,0-.349-2.3,1.428,1.428,0,0,0-.853-.707l.442.243c-.195-.2-.376-.416-.579-.6a4.294,4.294,0,0,0-1.9-.632q-2.167-.539-4.351-1.043-4.364-1.008-8.75-1.914c-5.863-1.211-11.752-2.281-17.659-3.245-11.849-1.928-23.774-3.413-35.716-4.647Q327.208,83.566,317.1,82.73a.955.955,0,0,0-.951.951c0,.8-.062,1.6-.133,2.392-.088.955-.217,2-.332,2.8-.349,2.463-.791,4.917-1.264,7.362-1.141,5.849-2.476,11.659-3.9,17.447-1.291,5.248-2.653,10.483-4.134,15.678-.508,1.8-1.017,3.59-1.636,5.35-.822,2.33-1.769,4.625-2.679,6.915-2,4.943-4.107,9.842-6.084,14.794-.137.349-.274.694-.407,1.043-.376.977,1.194,1.4,1.565.442,1.769-4.656,3.869-9.205,5.8-13.8a128.67,128.67,0,0,0,4.824-12.822c1.5-5,2.821-10.045,4.09-15.1,1.463-5.849,2.839-11.725,4.037-17.637a97.075,97.075,0,0,0,2.122-13.755c0-.371.031-.743.035-1.114l-.99.946c11.5.977,22.991,2.082,34.464,3.5s22.876,3.135,34.208,5.345q9.524,1.857,18.945,4.2l-.42-.248.442.469c.049.053.1.115.155.164a1.291,1.291,0,0,0,.442.248c.124.044-.252-.119-.133-.057-.084-.044-.3-.332-.155-.1-.075-.128-.057-.2,0-.04a.885.885,0,0,0,.049.208c.018.071.044.287,0,.111s0,.106,0,.141a5.225,5.225,0,0,0,.022.588c0,.478-.022.959-.057,1.437a64.779,64.779,0,0,1-1.061,7.185c-1.11,5.911-2.569,11.756-4.032,17.588-1.87,7.481-3.882,14.922-6.084,22.31-1.592,5.341-3.285,10.651-5.173,15.895q-1.048,2.909-2.211,5.792c-.164.407-.332.818-.5,1.225-.08.19-.155.38-.234.566l-.115.279c0,.044-.04.088-.057.137s.062-.146,0,0q-.442,1.043-.906,2.078c-.137.305-.279.606-.416.906l1.026-.416c-1-.27-1.99-.57-3.011-.76l-3.9-.73q-4.563-.84-9.126-1.662-10.8-1.923-21.576-3.9c-7.415-1.357-14.825-2.763-22.248-4.081q-9.238-1.645-18.455-3.373c-3.382-.641-6.8-1.18-10.169-2q-.225-.053-.442-.119a.469.469,0,0,0-.248.884Z" transform="translate(-272.692 -58.214)" fill="#010d3d"/><path id="Trazado_6376" data-name="Trazado 6376" d="M341.37,109.341a176.839,176.839,0,0,1,18.362.884c3.095.358,6.15.884,9.214,1.424s6.071.955,9.121,1.371c6.15.836,12.269,1.866,18.38,2.94s12.141,2.043,18.167,3.259c2.94.6,5.858,1.4,8.843,1.822,1.211.172,2.432.327,3.621.61a7.043,7.043,0,0,1,3.095,1.384c.265.234.654-.155.389-.389-1.508-1.326-3.714-1.658-5.637-1.945-1.026-.15-2.06-.265-3.095-.469-1.424-.287-2.834-.628-4.253-.937-6.1-1.326-12.274-2.308-18.419-3.4s-12.38-2.158-18.6-3.042c-3.095-.442-6.19-.8-9.285-1.326s-6.106-1.057-9.174-1.49a141.231,141.231,0,0,0-20.78-1.1.195.195,0,0,0,0,.385Z" transform="translate(-298.151 -72.83)" fill="#010d3d"/><path id="Trazado_6377" data-name="Trazado 6377" d="M528.711,119.071c-.354,1.477-.822,2.923-1.18,4.421a.252.252,0,0,0,.177.305c.977.2,1.959.371,2.94.535a12.14,12.14,0,0,0,1.6.234.3.3,0,0,0,.283-.212,19.255,19.255,0,0,0,.783-4.421.314.314,0,0,0-.23-.3c-.69-.146-1.38-.309-2.069-.442-.407-.084-.809-.164-1.216-.234a2.733,2.733,0,0,0-.964-.066c-.274.053-.239.442,0,.522a7.071,7.071,0,0,0,.853.159c.411.075.818.159,1.22.243.672.141,1.326.3,2.012.442l-.23-.3a19.375,19.375,0,0,1-.725,4.253l.283-.212a12.205,12.205,0,0,1-1.552-.2c-.955-.141-1.91-.3-2.856-.469l.172.309c.332-1.486.778-2.936,1.092-4.421C529.162,118.929,528.772,118.814,528.711,119.071Z" transform="translate(-402.119 -78.378)" fill="#010d3d"/><path id="Trazado_6378" data-name="Trazado 6378" d="M512.64,115.933c-.354,1.477-.818,2.927-1.18,4.421a.256.256,0,0,0,.177.309q1.468.292,2.94.535a12.251,12.251,0,0,0,1.6.234.3.3,0,0,0,.283-.217,19.268,19.268,0,0,0,.787-4.421.323.323,0,0,0-.23-.305c-.694-.141-1.38-.31-2.074-.442-.4-.084-.809-.168-1.216-.234a2.6,2.6,0,0,0-.959-.066c-.279.053-.243.442,0,.522a7.761,7.761,0,0,0,.849.159c.411.071.818.155,1.225.243.668.141,1.326.3,2.007.442l-.23-.3a19.376,19.376,0,0,1-.725,4.253l.283-.217a10.8,10.8,0,0,1-1.552-.2c-.955-.141-1.906-.292-2.856-.442l.177.305c.327-1.481.774-2.936,1.092-4.421C513.091,115.787,512.7,115.677,512.64,115.933Z" transform="translate(-393.154 -76.624)" fill="#010d3d"/><path id="Trazado_6379" data-name="Trazado 6379" d="M497.685,112.982c-.354,1.477-.818,2.923-1.176,4.421a.248.248,0,0,0,.172.305c.977.2,1.959.371,2.94.539a13.038,13.038,0,0,0,1.6.23.3.3,0,0,0,.283-.212,19.266,19.266,0,0,0,.787-4.421.318.318,0,0,0-.23-.3c-.694-.146-1.379-.309-2.074-.442-.4-.084-.809-.164-1.216-.234a2.808,2.808,0,0,0-.959-.066c-.279.053-.243.442,0,.522a6.842,6.842,0,0,0,.849.159c.411.075.818.159,1.225.243.668.141,1.326.3,2.007.442l-.23-.3a19.458,19.458,0,0,1-.725,4.258l.283-.217a12.208,12.208,0,0,1-1.552-.2q-1.433-.212-2.856-.469l.177.309c.327-1.481.774-2.936,1.092-4.421C498.136,112.837,497.746,112.726,497.685,112.982Z" transform="translate(-384.812 -74.982)" fill="#010d3d"/><path id="Trazado_6380" data-name="Trazado 6380" d="M463.758,217.533c-4.735-.752-9.36-1.914-14.007-3.06-2.6-.672-5.438-.818-8.025-1.326-.747-.155-1.72-.04-1.959.849a72.117,72.117,0,0,0-4.863,10.169c-1.7,3.851-3.639,6.438-4.581,10.611-.924,2.927,12.875,4.24,15.669,5.107,3.935,1.22,9.957,3.692,13.078-.256,2.812-4.771,3.908-10.342,5.96-15.453C466.234,221.68,467.689,218.3,463.758,217.533Zm.349,2.52Zm.049.111a.125.125,0,0,0-.035-.088c-.035-.027.04.049.049.088Z" transform="translate(-347.87 -130.937)" fill="#f9d0dd"/><path id="Trazado_6381" data-name="Trazado 6381" d="M397.216,206.61c1.2-4.722-3.453-5.226-6.915-5.633-5.469-.6-10.585-3.214-16.125-3.188-5.155.442-6.053,5.818-7.565,9.563a42.445,42.445,0,0,1-2.7,6.057,13.638,13.638,0,0,0-2.06,6.3c1.326,2.759,12.26,3.06,15.475,3.86C395.187,228.363,390.562,224.2,397.216,206.61Zm-1.326-2.578h0c-.027-.022-.018-.057-.009,0Z" transform="translate(-309.696 -122.402)" fill="#f9d0dd"/><path id="Trazado_6382" data-name="Trazado 6382" d="M407.55,171h0Z" transform="translate(-335.146 -107.457)" fill="#f9d0dd"/><path id="Trazado_6383" data-name="Trazado 6383" d="M452.007,133.818c-5.367-2.52-19.525-4.545-25.745-5.169-9.232-1.066-18.2-3.922-27.457-4.762-.769-.08-4.7-.491-4.939-.04-2.007,3.86-2.967,8.149-4.55,12.658-2.6,7.415,1.99,7.362,7.7,8.051,8.233.99,16.359,2.777,24.627,3.537,5.354.3,10.518,1.446,15.842,2.432,3.692.685,6.23,1.052,9.908,1.813C448.068,149.2,452.241,136.868,452.007,133.818Zm-61.514,7.167ZM390.493,140.985Zm.027,0,.1.066a.309.309,0,0,1-.088-.053Z" transform="translate(-324.602 -81.037)" fill="#f5b9cd"/><path id="Trazado_6384" data-name="Trazado 6384" d="M338.066,143.88c2.122-6.566,4.068-13.176,5.889-19.83,2.007-6.712,3.639-9.59-4.749-11.6-3.382-.234-11.3-2.445-13.114,1.158-.884,1.914-.884,4.068-1.256,6.1-.685,3.294-1.83,6.468-2.8,9.687-1.941,8.644-4.032,17.526-7.357,25.94-.615,2.794-8.4,13.109-5.306,14.537,3.82,1.406,7.905,1.685,11.8,2.794,2.118.637,4.806,1.326,6.588-.42C332.5,163.454,334.582,153.258,338.066,143.88Z" transform="translate(-280.018 -74.302)" fill="#fce8ee"/><path id="Trazado_6385" data-name="Trazado 6385" d="M389.989,175.385c-1.41-.513-2.012,1.769-.442,1.87,3.272.332,6.42,1.4,9.683,1.769,6.552.884,13.158,1.3,19.675,2.441,6.729,1.1,13.361,3.095,20.214,3.281a1,1,0,0,0,0-2.007c-6.353-.15-12.508-1.959-18.738-3.029C410.287,177.967,400.025,177.49,389.989,175.385Z" transform="translate(-324.628 -109.862)" fill="#f9d0dd"/><path id="Trazado_6386" data-name="Trazado 6386" d="M387.537,190.062c9.081,3.236,19.224,2.6,28.575,4.735.5.2.884-.367.791-.791-.827-2.33-5.695-1.561-7.768-2.127-4.749-.442-9.488-.977-14.21-1.707C393.961,190.283,385.874,187.9,387.537,190.062Z" transform="translate(-323.9 -117.583)" fill="#f9d0dd"/><path id="Trazado_6387" data-name="Trazado 6387" d="M245.683,117.051c4.921.15,64.079-4.93,87.68-6.769h2.48c1.583-9.02,3.272-28.659,2.025-63.349-.075-2.1-.778-16.987-2.551-16.96l-.752-.442c-29.5.557-59.158,5.071-88.228,10.377h0c2.365,8.878,2.9,40.491,2.427,51.2-.225,5.173-2.653,21.293-3.095,25.644" transform="translate(-244.883 -28.536)" fill="#fff"/><path id="Trazado_6388" data-name="Trazado 6388" d="M244.69,116.261c1.026.04,2.065-.027,3.095-.071,1.967-.084,3.931-.2,5.894-.318,5.973-.358,11.938-.814,17.92-1.225,7.441-.517,14.878-1.132,22.31-1.729s14.781-1.185,22.173-1.738q4.81-.349,9.616-.73c2.516-.195,5.062-.522,7.591-.517h1.565a.92.92,0,0,0,.884-.667c.61-3.458,1.013-6.955,1.326-10.448.491-5.306.783-10.633.964-15.957.256-7.384.283-14.772.181-22.155-.088-6.5-.19-13.012-.623-19.5-.172-2.6-.394-5.2-.752-7.79a28.5,28.5,0,0,0-.57-3.095,4.656,4.656,0,0,0-.928-2.1,1.424,1.424,0,0,0-1.017-.464l.486.128c-.234-.137-.442-.287-.7-.416a4.338,4.338,0,0,0-2.056-.133q-2.277.053-4.55.141-4.421.159-8.882.442-9,.562-17.977,1.494C288.7,30.659,276.833,32.343,265,34.28q-9.966,1.631-19.9,3.453a.968.968,0,0,0-.663,1.176c.2.769.358,1.552.5,2.334.177,1.008.309,1.941.42,2.83.305,2.467.522,4.947.7,7.428.442,5.929.659,11.876.8,17.818.124,5.412.177,10.828.111,16.24,0,1.844-.04,3.7-.177,5.536-.181,2.48-.477,4.952-.778,7.419-.637,5.306-1.388,10.576-2,15.868-.044.371-.084.743-.124,1.119a.814.814,0,0,0,1.623,0c.508-4.983,1.326-9.944,2-14.909A128.5,128.5,0,0,0,248.8,87c.137-5.208.093-10.417,0-15.625-.115-6.013-.327-12.03-.716-18.039a97.216,97.216,0,0,0-1.552-13.856c-.08-.358-.164-.721-.256-1.079l-.668,1.172c11.341-2.06,22.708-3.979,34.12-5.633s22.933-2.967,34.464-3.807q9.683-.7,19.392-.884l-.482-.128.557.332c.062.04.128.084.195.119a1.185,1.185,0,0,0,.482.128c.137,0-.283-.053-.15,0-.1-.027-.358-.256-.177-.066.08.084-.115-.225-.031-.031.026.062.071.124.1.186s.119.261.053.1.035.106.049.137c.062.186.124.367.172.557.133.442.23.924.323,1.388a66.217,66.217,0,0,1,.862,7.224c.477,6,.592,12.03.712,18.048.146,7.68.15,15.364-.035,23.048-.137,5.575-.38,11.155-.831,16.717-.168,2.074-.363,4.143-.6,6.212l-.159,1.326-.08.61-.04.3c0,.137.022-.159,0-.022l-.026.177c-.1.752-.212,1.5-.332,2.246-.053.332-.106.659-.164.986l.884-.668c-1.035,0-2.069-.031-3.095.053l-3.953.318q-4.625.38-9.241.783-10.921.968-21.846,1.879c-7.516.628-15.033,1.207-22.549,1.879q-9.347.836-18.7,1.574c-3.431.265-6.871.641-10.315.721h-.464a.469.469,0,0,0,0,.933Z" transform="translate(-243.89 -27.282)" fill="#010d3d"/><path id="Trazado_6389" data-name="Trazado 6389" d="M250.967,63.791a178.378,178.378,0,0,1,17.845-3.935c3.073-.464,6.19-.747,9.285-1.043,3.024-.287,6.031-.65,9.042-1.043,6.044-.791,12.11-1.4,18.176-1.954s12.123-1.172,18.194-1.6c3.095-.217,6.212-.181,9.285-.548,1.287-.15,2.569-.345,3.864-.407a7.445,7.445,0,0,1,3.626.513c.314.155.592-.318.274-.478-1.928-.951-4.306-.6-6.358-.349-2.626.323-5.253.411-7.9.553-6.137.332-12.26,1-18.384,1.547s-12.358,1.15-18.517,1.923c-3.051.38-6.093.827-9.152,1.141s-6.19.57-9.241.964a144.149,144.149,0,0,0-20.126,4.351.195.195,0,0,0,.1.371Z" transform="translate(-247.726 -41.442)" fill="#010d3d"/><path id="Trazado_6390" data-name="Trazado 6390" d="M435.589,36.845c.044,1.517-.027,3.037,0,4.554a.252.252,0,0,0,.248.252c.982-.066,1.954-.155,2.931-.248a12.983,12.983,0,0,0,1.654-.2.3.3,0,0,0,.217-.283,19.1,19.1,0,0,0-.4-4.461.309.309,0,0,0-.3-.23c-.7.04-1.41.062-2.113.1-.411.027-.822.053-1.234.093a2.75,2.75,0,0,0-.946.186c-.256.124-.119.5.133.5a7.516,7.516,0,0,0,.884-.071c.407-.035.809-.062,1.216-.084.685-.035,1.371-.062,2.052-.106l-.3-.23a19.728,19.728,0,0,1,.416,4.3l.212-.283a11.987,11.987,0,0,1-1.592.221c-.946.106-1.888.208-2.839.287l.252.252c-.066-1.517,0-3.037-.1-4.554A.2.2,0,1,0,435.589,36.845Z" transform="translate(-350.788 -32.274)" fill="#010d3d"/><path id="Trazado_6391" data-name="Trazado 6391" d="M419.264,38.035c.049,1.517-.026,3.037,0,4.554a.252.252,0,0,0,.252.248c.977-.062,1.954-.15,2.927-.248a12.212,12.212,0,0,0,1.658-.2.287.287,0,0,0,.212-.279,19.152,19.152,0,0,0-.393-4.466.318.318,0,0,0-.3-.225c-.707.04-1.41.057-2.118.1-.411.027-.822.053-1.234.093a2.653,2.653,0,0,0-.946.186c-.252.124-.115.5.137.5a7.671,7.671,0,0,0,.884-.071c.4-.035.809-.062,1.211-.084.685-.035,1.371-.062,2.056-.106l-.3-.23a19.677,19.677,0,0,1,.411,4.3l.217-.283a11.443,11.443,0,0,1-1.6.217c-.942.111-1.888.212-2.834.292l.248.252c-.066-1.517,0-3.037-.1-4.554a.208.208,0,0,0-.389,0Z" transform="translate(-341.682 -32.938)" fill="#010d3d"/><path id="Trazado_6392" data-name="Trazado 6392" d="M404.068,39.09c.044,1.517-.027,3.037,0,4.554a.256.256,0,0,0,.252.252c.977-.066,1.95-.155,2.927-.248a12.98,12.98,0,0,0,1.654-.2.3.3,0,0,0,.217-.283,18.861,18.861,0,0,0-.385-4.457.31.31,0,0,0-.3-.23c-.7.04-1.41.062-2.113.1-.411.027-.822.053-1.234.093a2.75,2.75,0,0,0-.946.186c-.256.124-.115.5.133.5a7.516,7.516,0,0,0,.884-.071c.407-.035.809-.057,1.216-.084.685-.035,1.371-.062,2.052-.106l-.3-.23a19.732,19.732,0,0,1,.416,4.3l.212-.283a11.987,11.987,0,0,1-1.592.221q-1.415.168-2.834.292l.248.248c-.066-1.517,0-3.037-.1-4.554C404.466,38.829,404.059,38.825,404.068,39.09Z" transform="translate(-333.211 -33.529)" fill="#010d3d"/><path id="Trazado_6393" data-name="Trazado 6393" d="M312.129,84.453c.181-1.052.035-18.26-1.388-19.476-.752-.646-4.744-.234-10.779.544-11.65,1.5-16.766.6-28.3,3.223-3.347.5-9.479,1.552-10.125,2.892-.513,1.066-.256,16.213.646,18.287.416.959,1.937.522,8.675-.208,11.31-1.229,22.664-1.861,34.018-2.9C310.772,86.271,311.877,85.912,312.129,84.453Z" transform="translate(-253.591 -48.133)" fill="#f2a1bc"/><path id="Trazado_6394" data-name="Trazado 6394" d="M271.486,133.916c-.027,0-.124-.1-.027,0l.128.3h0a.761.761,0,0,0-.208-.513.844.844,0,0,0-.513-.212h-.022l.367.1-.057-.035.159.124a.884.884,0,0,0-.884-.212,1.85,1.85,0,0,0-.336.137,1.326,1.326,0,0,0-.4.305,1.812,1.812,0,0,0-.442.928,2.012,2.012,0,0,0-.031.539,2.118,2.118,0,0,0,.208.769,2.308,2.308,0,0,0,.615.756l-.164-.212a1.358,1.358,0,0,0,.884.672,1.685,1.685,0,0,0,.628.066,2.609,2.609,0,0,0,1.211-.4,3.418,3.418,0,0,0,.915-.884,2.247,2.247,0,0,0,.186-.336,2.982,2.982,0,0,0,.221-.6,2.844,2.844,0,0,0,.066-.641,2.238,2.238,0,0,0-.106-.641,2.49,2.49,0,0,0-.367-.685,2.732,2.732,0,0,0-.579-.548,2.1,2.1,0,0,0-1.114-.363,2.052,2.052,0,0,0-.57.062,2.114,2.114,0,0,0-.517.208,2.565,2.565,0,0,0-.442.323,1.537,1.537,0,0,0-.208.208,3.144,3.144,0,0,0-.579,1,1.2,1.2,0,0,0-.075.274,2.475,2.475,0,0,0-.062.57,2.158,2.158,0,0,0,.305,1.079,2.078,2.078,0,0,0,.844.778,2.821,2.821,0,0,0,1.247.292,2.432,2.432,0,0,0,1.123-.3,2.343,2.343,0,0,0,.791-.738,2.211,2.211,0,0,0,.371-1.587,1.742,1.742,0,0,0-.442-.99,1.623,1.623,0,0,0-1.119-.486,1.2,1.2,0,0,0-1.264,1.326l.239-.575a.933.933,0,0,0-.248.416.774.774,0,0,0,.535.942,1.189,1.189,0,0,0,.5,0l-.915-.371a1.211,1.211,0,0,0,1.083.65h.1l-.31-.044.106.031-.283-.119a.521.521,0,0,1,.084.049l-.239-.181a.568.568,0,0,1,.075.071l-.186-.239a.635.635,0,0,1,.066.119l-.119-.283a.618.618,0,0,1,.049.177l-.04-.314a1.324,1.324,0,0,1,0,.265l.04-.314a1.109,1.109,0,0,1-.084.309l.119-.283a1.135,1.135,0,0,1-.159.274l.186-.239a1.207,1.207,0,0,1-.212.212l.239-.186a1.126,1.126,0,0,1-.234.137l.283-.119a1.325,1.325,0,0,1-.287.075l.314-.04a1.659,1.659,0,0,1-.363,0l.314.04a1.522,1.522,0,0,1-.416-.111l.283.119a1.124,1.124,0,0,1-.243-.141l.239.186a.831.831,0,0,1-.15-.155l.186.243a.886.886,0,0,1-.115-.195l.119.283a.792.792,0,0,1-.066-.248l.04.314a1.277,1.277,0,0,1,0-.318l-.044.314a1.585,1.585,0,0,1,.106-.376l-.119.283a1.71,1.71,0,0,1,.221-.38l-.186.239A1.877,1.877,0,0,1,272,134.6l-.239.186a1.155,1.155,0,0,1,.274-.164l-.283.119a.986.986,0,0,1,.248-.071l-.314.044a.964.964,0,0,1,.225,0l-.314-.044a1.426,1.426,0,0,1,.225.062l-.283-.119a1.256,1.256,0,0,1,.248.146l-.239-.186a1.281,1.281,0,0,1,.234.23l-.186-.239a1.1,1.1,0,0,1,.142.239l-.115-.279a1.175,1.175,0,0,1,.075.279l-.04-.314a1.46,1.46,0,0,1,0,.34l.044-.309a1.77,1.77,0,0,1-.111.407l.115-.279a2.03,2.03,0,0,1-.243.442l.181-.239a1.985,1.985,0,0,1-.345.349l.234-.181a1.906,1.906,0,0,1-.367.217l.279-.119a1.225,1.225,0,0,1-.332.088l.31-.04a1.4,1.4,0,0,1-.385,0l.3.044a1.618,1.618,0,0,0-.7,0l-.119.027h.553a.672.672,0,0,1-.124-.04l.243.1a1,1,0,0,1-.181-.093l.2.15a1.119,1.119,0,0,1-.217-.217l.15.195a1.326,1.326,0,0,1-.137-.23l.1.221a1.1,1.1,0,0,1-.08-.292l.031.243a1.2,1.2,0,0,1,0-.252l-.031.239a1.055,1.055,0,0,1,.071-.256l-.088.212a1,1,0,0,1,.119-.212l-.133.177a1.234,1.234,0,0,1,.168-.172l-.172.137a1.064,1.064,0,0,1,.159-.1l-.195.084a.884.884,0,0,0,.385-.221.924.924,0,0,0,.221-.389l-.08.19a.182.182,0,0,1,.031-.049l-.442.332a.822.822,0,0,0,.34-.195.725.725,0,0,0,.195-.389l-.3.3c.027,0,.133-.027.027,0a.389.389,0,0,0,.354-.27.385.385,0,0,0-.168-.416Z" transform="translate(-259.272 -85.883)" fill="#ef8aab"/><path id="Trazado_6395" data-name="Trazado 6395" d="M273.422,156.545c-.053-.066-.1-.141-.159-.2a.937.937,0,0,0-.42-.279,1.189,1.189,0,0,0-.783-.022,2.254,2.254,0,0,0-.548.243,1.985,1.985,0,0,0-.477.336,2.268,2.268,0,0,0-.584,1.079,3.441,3.441,0,0,0-.066.676,4.7,4.7,0,0,0,.093.707,1.105,1.105,0,0,0,.791.791,3.886,3.886,0,0,0,1.658.062,2.6,2.6,0,0,0,1.026-.393,2.653,2.653,0,0,0,.853-.884,2.811,2.811,0,0,0,.332-1.176,2.445,2.445,0,0,0-.106-.911,2.627,2.627,0,0,0-.566-1,2.211,2.211,0,0,0-2.18-.606,3.321,3.321,0,0,0-1.238.69,4.823,4.823,0,0,0-.836.884,1.906,1.906,0,0,0-.2,2.078,2.1,2.1,0,0,0,1.424.946,3.944,3.944,0,0,0,1.671-.035,2.158,2.158,0,0,0,1.4-.968,1.627,1.627,0,0,0,.146-1.242,2.18,2.18,0,0,0-.588-.933,1.167,1.167,0,0,0-.632-.367,2.548,2.548,0,0,0-.363-.049,1.092,1.092,0,0,0-.814.34l.407-.239a1.659,1.659,0,0,0-.279.111.809.809,0,0,0-.4.7.481.481,0,0,0,0,.08l.128-.464a1.119,1.119,0,0,0-.106.92,1.407,1.407,0,0,0,.349.61,2.271,2.271,0,0,1,.172.186l-.186-.239a.884.884,0,0,1,.119.195l-.119-.283a.6.6,0,0,1,.04.146l-.04-.314a.444.444,0,0,1,0,.111l.04-.318a.44.44,0,0,1-.027.111l.119-.283a.443.443,0,0,1-.066.106l.186-.239a.733.733,0,0,1-.119.115l.239-.186a1.123,1.123,0,0,1-.243.141l.283-.119a2.144,2.144,0,0,1-.526.137l.318-.044a2.609,2.609,0,0,1-.694,0l.314.044a1.936,1.936,0,0,1-.442-.115l.283.119a1.245,1.245,0,0,1-.221-.128l.239.186a.942.942,0,0,1-.115-.115l.186.239a.487.487,0,0,1-.066-.115l.119.283a.443.443,0,0,1-.035-.128l.04.314a.891.891,0,0,1,0-.155l-.04.314a.856.856,0,0,1,.057-.208l-.119.283a1.538,1.538,0,0,1,.212-.345l-.186.239a4.02,4.02,0,0,1,.694-.676l-.239.186a2.255,2.255,0,0,1,.473-.287l-.283.119a1.327,1.327,0,0,1,.345-.093l-.314.04a1.375,1.375,0,0,1,.27,0l-.314-.04a.938.938,0,0,1,.243.062l-.283-.119a1.269,1.269,0,0,1,.212.124l-.239-.186a1.235,1.235,0,0,1,.2.2l-.181-.239a1.525,1.525,0,0,1,.172.3l-.119-.279a1.479,1.479,0,0,1,.106.394l-.044-.314a1.6,1.6,0,0,1,0,.411l.044-.314a1.494,1.494,0,0,1-.106.389l.119-.283a1.453,1.453,0,0,1-.181.31l.186-.239a1.407,1.407,0,0,1-.243.243l.234-.181a1.472,1.472,0,0,1-.354.2l.279-.115a2.052,2.052,0,0,1-.508.133l.31-.04a4.945,4.945,0,0,1-.99,0l1.092.831a2.789,2.789,0,0,1-.08-.371l.04.3a1.925,1.925,0,0,1,0-.5l-.04.292a4.336,4.336,0,0,1,.057-.442l-.035.287a1.414,1.414,0,0,1,.1-.363l-.1.243c.071-.164.146-.332.217-.5l-.1.23a.12.12,0,0,1,.027-.044l-.15.19a1.67,1.67,0,0,1,.234-.234l-.181.141c.071-.053.146-.1.221-.146a1.738,1.738,0,0,0,.323-.3l-.318.186h.031l-.186.022a1.471,1.471,0,0,0,.239-.031l-.181.027h-.066l-.274-.159h0a.628.628,0,0,0,.982-.76Z" transform="translate(-259.595 -98.467)" fill="#ef8aab"/><path id="Trazado_6396" data-name="Trazado 6396" d="M273.342,179.026c.1.075.124.1.08.057a1.034,1.034,0,0,0-.137-.106l-.066-.049a.809.809,0,0,0-.659-.119,1.233,1.233,0,0,0-.566.442,2.259,2.259,0,0,0-.5.951,2.343,2.343,0,0,0,0,1.066,2.042,2.042,0,0,0,.5.911l-.146-.19a1.99,1.99,0,0,0,.318.376,2.082,2.082,0,0,0,.685.38,2.171,2.171,0,0,0,.951.106,2.317,2.317,0,0,0,1.017-.34,2.653,2.653,0,0,0,.738-.716,2.41,2.41,0,0,0-.177-3.015,2.474,2.474,0,0,0-3.418.146,3.069,3.069,0,0,0-.769,1.326,2.547,2.547,0,0,0,0,1.477,2.029,2.029,0,0,0,.535.884,1.994,1.994,0,0,0,.933.5,3.038,3.038,0,0,0,1.247,0,2.927,2.927,0,0,0,.623-.225,1.72,1.72,0,0,0,.517-.349,1.2,1.2,0,0,0,.186-1.428l-.027-.053.124.442h0l-.884.884h.057l-.256-.035h0a.99.99,0,0,0,.982-.261,2.654,2.654,0,0,0,.349-.416,1.9,1.9,0,0,0,.208-.486,1.813,1.813,0,0,0,0-1.105,2.171,2.171,0,0,0-.712-.995,1.3,1.3,0,0,0-1.189-.3,1.216,1.216,0,0,0-.539.305,1.1,1.1,0,0,0-.31.747,1.128,1.128,0,0,0,.155.571l-.111-.261a2.763,2.763,0,0,0,.133.323,1.22,1.22,0,0,0,.442.442,1.554,1.554,0,0,1,.141.093l-.234-.181a.681.681,0,0,1,.159.159l-.181-.239a1,1,0,0,1,.124.208l-.119-.279a.938.938,0,0,1,.071.248l-.04-.309a2.8,2.8,0,0,0,.066.442l-.04-.305a1.212,1.212,0,0,1,0,.283l.04-.292c-.022.146-.035.292-.057.442l.04-.283a1.27,1.27,0,0,1-.04.177l.1-.243h0a1.123,1.123,0,0,0-.119.646,1.092,1.092,0,0,0,.279.579h0l-.248-.442v.044l-.031-.243v.022l.884-.884h0l.442.124-.071-.044a1.18,1.18,0,0,0-1.189,0c-.106.053-.2.124-.309.168l.283-.119a2.118,2.118,0,0,1-.464.124l.318-.044a1.771,1.771,0,0,1-.407,0l.314.04a1.325,1.325,0,0,1-.261-.066l.283.119a1.15,1.15,0,0,1-.177-.1l.239.181a.783.783,0,0,1-.15-.146l.186.239a.777.777,0,0,1-.106-.186l.119.283a1.029,1.029,0,0,1-.075-.283l.04.314a1.492,1.492,0,0,1,0-.371l-.044.314a2,2,0,0,1,.133-.482l-.115.279a1.946,1.946,0,0,1,.234-.407l-.181.239a1.636,1.636,0,0,1,.3-.305l-.239.186a1.327,1.327,0,0,1,.3-.172l-.283.115a1.423,1.423,0,0,1,.358-.093l-.314.04a1.636,1.636,0,0,1,.416,0l-.31-.04a1.013,1.013,0,0,1,.274.075l-.279-.119a.982.982,0,0,1,.186.111l-.234-.181a1.117,1.117,0,0,1,.164.159l-.181-.234a1.267,1.267,0,0,1,.124.212l-.115-.274a1.159,1.159,0,0,1,.08.3l-.04-.31a1.454,1.454,0,0,1,0,.367l.044-.305a1.68,1.68,0,0,1-.106.38l.115-.274a1.569,1.569,0,0,1-.181.314l.177-.23a1.44,1.44,0,0,1-.23.234l.23-.177a1.943,1.943,0,0,1-.292.172l.265-.115a2.1,2.1,0,0,1-.544.141l.287-.04a1.668,1.668,0,0,1-.442,0l.274.035a1.449,1.449,0,0,1-.363-.088l.225.093-.08-.044.19.146a.964.964,0,0,1-.146-.155l.141.186a.982.982,0,0,1-.124-.221l.088.217a1.207,1.207,0,0,1-.08-.3l.031.234a1.867,1.867,0,0,1,0-.385l-.031.23a2.6,2.6,0,0,1,.186-.632l-.08.19a2.428,2.428,0,0,0,.212-.464l-.19.323c.1-.084-.146.088-.027.022s-.049.062-.2.044a.579.579,0,0,0,.553-.442.592.592,0,0,0-.265-.646Z" transform="translate(-260.319 -111.451)" fill="#ef8aab"/><path id="Trazado_6397" data-name="Trazado 6397" d="M272.159,198.994a2.319,2.319,0,0,0-.243-.1c-.08-.027.19.093.066.022a.884.884,0,0,0-.548-.119l-.239.035h-.15a1.3,1.3,0,0,0-.57.3l.195-.15a1.9,1.9,0,0,0-.535.544,1.694,1.694,0,0,0-.212.743,1.72,1.72,0,0,0,.464,1.247l-.164-.212a2.1,2.1,0,0,0,.345.393,3.737,3.737,0,0,0,.5.363,2.352,2.352,0,0,0,.933.225,2.511,2.511,0,0,0,.442,0,2.6,2.6,0,0,0,1.154-.332,1.972,1.972,0,0,0,.725-.738,2.047,2.047,0,0,0-.053-2.038,2.485,2.485,0,0,0-1.658-1.119,3.1,3.1,0,0,0-2.312.442,2.918,2.918,0,0,0-1.238,1.769,2.83,2.83,0,0,0,0,1.234,2.7,2.7,0,0,0,.592,1.1,2.542,2.542,0,0,0,.884.659,2.971,2.971,0,0,0,1.326.305,3.029,3.029,0,0,0,2.427-1.278,2.171,2.171,0,0,0,.38-1.278,1.735,1.735,0,0,0-1.167-1.715,1.079,1.079,0,0,0-1.353,1.03.339.339,0,0,1,0,.066l.04-.3a1.384,1.384,0,0,0,0,.672,2.893,2.893,0,0,0,.164.38l-.115-.279a1.506,1.506,0,0,1,.093.363l-.044-.314a1.011,1.011,0,0,1,0,.283l.044-.314a1.515,1.515,0,0,1-.08.265l.119-.283a1.62,1.62,0,0,1-.159.265l.186-.239a1.662,1.662,0,0,1-.283.274l.243-.186a2.088,2.088,0,0,1-.385.225l.283-.119a2.1,2.1,0,0,1-.513.137l.314-.04a2.12,2.12,0,0,1-.473,0l.318.044a2.087,2.087,0,0,1-.442-.115l.283.119a2.037,2.037,0,0,1-.42-.252l.239.186a1.742,1.742,0,0,1-.283-.287l.186.239a1.325,1.325,0,0,1-.172-.3l.119.283a1.393,1.393,0,0,1-.1-.376l.04.314a1.6,1.6,0,0,1,0-.385l-.044.314a1.849,1.849,0,0,1,.111-.407l-.119.283a1.809,1.809,0,0,1,.234-.4l-.186.243a1.893,1.893,0,0,1,.31-.314l-.239.186a1.981,1.981,0,0,1,.4-.23l-.283.119a1.932,1.932,0,0,1,.5-.137l-.314.044a2.164,2.164,0,0,1,.535,0l-.314-.04a1.491,1.491,0,0,1,.411.111l-.279-.119a1.357,1.357,0,0,1,.3.172l-.239-.181a1.154,1.154,0,0,1,.208.208l-.181-.239a1.166,1.166,0,0,1,.128.217l-.119-.279a.937.937,0,0,1,.071.248l-.044-.31a.817.817,0,0,1,0,.208l.044-.314a1.054,1.054,0,0,1-.053.2l.115-.279a.844.844,0,0,1-.106.181l.181-.239a.883.883,0,0,1-.141.146l.234-.181a1.585,1.585,0,0,1-.239.137l.279-.119a1.541,1.541,0,0,1-.34.088l.305-.04a2.21,2.21,0,0,1-.592,0l.31.044a5.473,5.473,0,0,0-.7-.093l.3.04a1.054,1.054,0,0,1-.23-.066l.256.106a.881.881,0,0,1-.2-.115l.212.164-.08-.084.164.208a.8.8,0,0,1-.088-.146l.106.243a.62.62,0,0,1-.044-.155l.035.27a1.239,1.239,0,0,1,0-.181l-.035.265a1.2,1.2,0,0,1,.075-.274l-.1.23a.93.93,0,0,1,.066-.133l-.146.195a1,1,0,0,0,.261-.442l-.1.225.071-.128c.057-.1-.172.2-.075.1s.111-.049-.088.062l.057-.04a.827.827,0,0,0,.283-.283c.031-.062,0-.027-.088.106.066-.066,0,.035-.084.053.04,0,.2-.084-.049,0a.668.668,0,0,0,.442-.531.628.628,0,0,0-.305-.637Z" transform="translate(-259.149 -122.519)" fill="#ef8aab"/><path id="Trazado_6398" data-name="Trazado 6398" d="M292.166,127.471c.765.579,2.149.234,3.024.15,1.181-.111,2.357-.256,3.537-.42,2.264-.309,4.514-.721,6.76-1.136,4.47-.822,8.936-1.733,13.459-2.211,1.207-.124,2.418-.221,3.63-.27s2.578.066,3.824-.106c1.008-.141.928-1.769,0-1.968a15.033,15.033,0,0,0-3.568-.093c-1.154.044-2.3.128-3.449.243-2.427.239-4.837.6-7.242,1.017-4.749.818-9.471,1.808-14.241,2.511-1.3.19-2.609.349-3.922.469-.65.057-1.636,0-2.025.646a.822.822,0,0,0,.212,1.167Z" transform="translate(-270.616 -79.761)" fill="#f5b9cd"/><path id="Trazado_6399" data-name="Trazado 6399" d="M291.779,153.234a19.336,19.336,0,0,0,2.264-.08c1.614-.141,3.21-.442,4.806-.73,3.378-.61,6.8-.827,10.2-1.18a43.044,43.044,0,0,0,6.42-.982.853.853,0,1,0-.455-1.645c-1.8.27-3.586.637-5.4.858s-3.692.442-5.544.637a33.256,33.256,0,0,0-4.656.8c-1.517.385-3.064.7-4.607.99a18.478,18.478,0,0,1-2.467.327,10.242,10.242,0,0,1-1.105,0,2.534,2.534,0,0,0-1.11.075.305.305,0,0,0-.133.5A2.636,2.636,0,0,0,291.779,153.234Z" transform="translate(-269.561 -94.957)" fill="#f5b9cd"/><path id="Trazado_6400" data-name="Trazado 6400" d="M292.358,178.639a24.384,24.384,0,0,1,5.1-.477c1.738,0,3.458-.066,5.191-.2.831-.062,1.662-.137,2.489-.234.942-.115,2.268-.071,2.83-.946a1.074,1.074,0,0,0-.371-1.428,1.894,1.894,0,0,0-1.543-.133c-.363.057-.725.106-1.092.15-.769.093-1.539.168-2.312.234-1.68.146-3.356.234-5.023.526-1.574.279-3.152.531-4.722.844-.787.155-1.57.34-2.339.566a7.176,7.176,0,0,0-2.025.791.553.553,0,0,0-.442.539c.049,1.026,1.264.592,1.853.42C290.74,179.045,291.54,178.807,292.358,178.639Z" transform="translate(-268.553 -109.755)" fill="#f5b9cd"/><path id="Trazado_6401" data-name="Trazado 6401" d="M359.134,168.111c-.712-1.662-5.92-.407-7-.168-1.247.274-2.485.579-3.732.836-.584.119-1.185.234-1.738.292-.69.08-1.552,0-2.069.526a.982.982,0,0,0,0,1.357c.526.557,1.379.442,2.069.38s1.273-.15,1.9-.256c1.26-.217,2.494-.526,3.736-.814a26.618,26.618,0,0,1,3.418-.628,10.214,10.214,0,0,1,1.561-.027c.38.022.327.084.721.084a1.348,1.348,0,0,0,.734-.225.911.911,0,0,0,.4-1.357Z" transform="translate(-299.919 -105.373)" fill="#f5b9cd"/><path id="Trazado_6402" data-name="Trazado 6402" d="M327.6,193.885a4.8,4.8,0,0,0-2.971-.248c-1.083.128-2.153.323-3.223.526-2.383.442-4.793.774-7.194,1.127-2.609.385-5.226.65-7.839.99s-5.146.8-7.715,1.211c-1.375.221-2.755.442-4.134.628-.394.053-3.214.265-2.812,1.07.217.442.672.407,1.105.42a17.683,17.683,0,0,0,1.813-.075c1.211-.093,2.423-.2,3.634-.305,2.525-.217,5.049-.4,7.569-.654,5.089-.5,10.191-1.008,15.227-1.932,1.1-.2,2.211-.442,3.316-.6.884-.124,2.007-.062,2.967-.2S328.333,194.309,327.6,193.885Z" transform="translate(-270.546 -120.022)" fill="#f5b9cd"/><path id="Trazado_6403" data-name="Trazado 6403" d="M412.405,61.467c-1.928-5-8.613-1.883-12.49-1.366-3.369.336-7.238.137-10.169,1.941-.738.769-.778,2.127-.884,3.095-.641,6.468-.195,12.959-.292,19.454-.619,9.073-.531,18.34-.619,27.5-2.732,12.981,2.494,9.656,12.473,8.79,1.769-.279,3.462-.778,5.217-1.043,1.172-.367,3.011.486,3.537-.942,1.432-3.475,1.211-7.335,1.22-11,.416-8.361,1.136-16.708,1.008-25.091C411.167,75.664,412.807,68.506,412.405,61.467ZM389.666,119.3h0v-.022h0v.022h.022Zm.044.049h.022Zm.031,0h.04c0,.04,0,.062-.04.013Z" transform="translate(-323.854 -44.791)" fill="#f9d0dd"/></svg>