<svg xmlns="http://www.w3.org/2000/svg" width="500" height="302.09" viewBox="0 0 500 302.09"><g id="IICE_LandingCompliance_Etapa2" transform="translate(-195.478 -257.902)" style="mix-blend-mode: normal;isolation: isolate"><g id="a" transform="translate(195.478 257.902)"><g id="Grupo_3376" data-name="Grupo 3376" transform="translate(0 6.053)"><g id="Grupo_3367" data-name="Grupo 3367" transform="translate(10.874 153.65)"><path id="Trazado_4822" data-name="Trazado 4822" d="M251.553,728.708c-.606-17.425.63-61.87.147-66.611a.628.628,0,0,0-.6-.507c-8.772-.194-17.575-.361-26.308-.769a.652.652,0,0,0-.8.626c-.65,6.235-1.027,35.975-1.019,44.628-.087,6.9-.234,15.867.753,22.653.119.654,1.019.559,1.51.658,6.647.131,26.573.816,26.319-.678Z" transform="translate(-222.911 -660.808)" fill="#99e0f4"/><path id="Trazado_4823" data-name="Trazado 4823" d="M252.4,726.206c-1-10.175.063-20.5-.614-30.683-4.261-.5-9.247.325-13.719.167a.34.34,0,0,0-.4.313,53.3,53.3,0,0,0,.309,8.6c0,7.119-.987,14.432.115,21.488.067.3.523.23.777.262,3.385-.127,6.77-.158,10.139.008.571-.1,3.536.531,3.393-.151Z" transform="translate(-231.758 -681.664)" fill="#fff"/><path id="Trazado_4824" data-name="Trazado 4824" d="M252.531,790.27c4.265.1,4.931-6.746,1.288-8.1C247.807,780.7,246.067,790.092,252.531,790.27Z" transform="translate(-238.314 -733.972)" fill="#00b2e3"/></g><g id="Grupo_3368" data-name="Grupo 3368" transform="translate(39.845 154.438)"><path id="Trazado_4825" data-name="Trazado 4825" d="M324.643,730.7c-.606-17.425.63-61.87.147-66.611a.628.628,0,0,0-.6-.507c-8.772-.194-17.575-.361-26.307-.769a.652.652,0,0,0-.8.626c-.65,6.235-1.027,35.975-1.019,44.628-.087,6.9-.234,15.867.753,22.653.119.654,1.019.559,1.51.658,6.647.131,26.573.816,26.319-.678Z" transform="translate(-296.001 -662.798)" fill="#f2a1bc"/><path id="Trazado_4826" data-name="Trazado 4826" d="M325.5,728.2c-1-10.175.063-20.5-.614-30.683-4.261-.5-9.247.325-13.719.167a.34.34,0,0,0-.4.313,53.3,53.3,0,0,0,.309,8.6c0,7.119-.987,14.432.115,21.488.067.3.523.23.777.261,3.385-.127,6.77-.159,10.139.008.571-.1,3.536.531,3.393-.151Z" transform="translate(-304.854 -683.654)" fill="#fff"/><path id="Trazado_4827" data-name="Trazado 4827" d="M325.631,792.26c4.265.1,4.931-6.746,1.288-8.1C320.907,782.691,319.167,792.082,325.631,792.26Z" transform="translate(-311.41 -735.962)" fill="#ef8aab"/></g><g id="Grupo_3369" data-name="Grupo 3369" transform="translate(68.717 154.438)"><path id="Trazado_4828" data-name="Trazado 4828" d="M397.483,730.7c-.606-17.425.63-61.87.147-66.611a.628.628,0,0,0-.6-.507c-8.772-.194-17.575-.361-26.307-.769a.652.652,0,0,0-.8.626c-.65,6.235-1.027,35.975-1.019,44.628-.087,6.9-.234,15.867.753,22.653.119.654,1.019.559,1.51.658,6.647.131,26.573.816,26.319-.678Z" transform="translate(-368.841 -662.798)" fill="#c1efeb"/><path id="Trazado_4829" data-name="Trazado 4829" d="M398.337,728.2c-1-10.175.063-20.5-.614-30.683-4.261-.5-9.247.325-13.719.167a.34.34,0,0,0-.4.313,53.3,53.3,0,0,0,.309,8.6c0,7.119-.987,14.432.115,21.488.067.3.523.23.777.261,3.385-.127,6.77-.159,10.139.008.571-.1,3.536.531,3.393-.151Z" transform="translate(-377.694 -683.654)" fill="#fff"/><path id="Trazado_4830" data-name="Trazado 4830" d="M398.471,792.26c4.265.1,4.931-6.746,1.288-8.1C393.747,782.691,392.007,792.082,398.471,792.26Z" transform="translate(-384.25 -735.962)" fill="#64d8cc"/></g><g id="Grupo_3370" data-name="Grupo 3370" transform="translate(1.864 221.85)"><path id="Trazado_4831" data-name="Trazado 4831" d="M288.178,833.13c-22.578.61-80.175-.634-86.319-.147a.708.708,0,0,0-.658.6c-.25,8.8-.468,17.643-.995,26.4-.091.4.214.777.813.8,8.082.65,46.618,1.031,57.831,1.023,8.938.087,20.56.234,29.356-.753.848-.119.725-1.023.852-1.514.166-6.671,1.058-26.672-.876-26.415Z" transform="translate(-200.186 -832.867)" fill="#83e0d6"/><path id="Trazado_4832" data-name="Trazado 4832" d="M213.986,850.566c.178-3.306.4-6.612.773-9.905q.274-2.42.634-4.828.19-1.249.424-2.489c.028-.147.056-.293.079-.444-7.21-.048-12.422-.04-14.048.087a.708.708,0,0,0-.658.6c-.25,8.8-.468,17.643-.995,26.4-.091.4.214.777.813.8,2.232.178,6.79.337,12.45.476.19-3.567.337-7.135.531-10.7Z" transform="translate(-200.18 -832.87)" fill="#83e0d6" opacity="0.3" style="mix-blend-mode: multiply;isolation: isolate"/><path id="Trazado_4833" data-name="Trazado 4833" d="M297.063,865.684c.135-3.46.377-6.917.848-10.345-.075-.591.912-3.579.107-3.468-9.37.036-18.749-.19-28.111-1.07a56.514,56.514,0,0,0-7.686-.079.325.325,0,0,0-.277.305c-.19,4.57-.365,9.156-.666,13.7a.349.349,0,0,0,.329.428,70.817,70.817,0,0,0,10.048.182c4.634.127,9.275.931,13.925,1.066a73.8,73.8,0,0,0,11.114.06C297.048,866.41,297,865.938,297.063,865.684Z" transform="translate(-237.056 -843.585)" fill="#fff"/><path id="Trazado_4834" data-name="Trazado 4834" d="M373.941,864.456c.115-4.281-7.828-4.947-9.4-1.292C362.835,869.2,373.731,870.944,373.941,864.456Z" transform="translate(-299.284 -849.721)" fill="#64d8cc"/></g><g id="Grupo_3371" data-name="Grupo 3371" transform="translate(0 125.808)"><path id="Trazado_4835" data-name="Trazado 4835" d="M196.707,590.83c22.578.61,80.175-.634,86.319-.147a.707.707,0,0,1,.658.6c.25,8.8.468,17.643.995,26.4.091.4-.214.777-.813.8-8.082.65-46.618,1.031-57.831,1.023-8.938.087-20.56.234-29.356-.753-.848-.119-.725-1.023-.852-1.514-.167-6.671-1.058-26.672.876-26.415Z" transform="translate(-195.477 -590.567)" fill="#e0c7eb"/><path id="Trazado_4836" data-name="Trazado 4836" d="M382.82,608.266c-.178-3.306-.4-6.612-.773-9.905q-.273-2.42-.634-4.828-.19-1.249-.424-2.489c-.028-.147-.055-.293-.079-.444,7.21-.048,12.422-.04,14.048.087a.708.708,0,0,1,.658.6c.25,8.8.468,17.643.995,26.4.091.4-.214.777-.813.8-2.232.178-6.79.337-12.45.476-.19-3.567-.337-7.135-.531-10.7Z" transform="translate(-307.409 -590.57)" fill="#e0c7eb" opacity="0.3" style="mix-blend-mode: multiply;isolation: isolate"/><path id="Trazado_4837" data-name="Trazado 4837" d="M267.242,623.384c-.135-3.46-.377-6.917-.848-10.345.075-.591-.912-3.579-.107-3.468,9.37.036,18.749-.19,28.111-1.07a56.523,56.523,0,0,1,7.686-.079.324.324,0,0,1,.277.305c.19,4.57.365,9.156.666,13.7a.349.349,0,0,1-.329.428,70.808,70.808,0,0,1-10.048.182c-4.634.127-9.275.932-13.925,1.066a73.826,73.826,0,0,1-11.114.059c-.353-.052-.309-.523-.369-.777Z" transform="translate(-238.028 -601.285)" fill="#fff"/><path id="Trazado_4838" data-name="Trazado 4838" d="M232.218,622.156c-.115-4.281,7.828-4.947,9.4-1.292C243.325,626.9,232.428,628.644,232.218,622.156Z" transform="translate(-217.654 -607.421)" fill="#cca1dd"/></g><g id="Grupo_3372" data-name="Grupo 3372" transform="translate(8.995 98.569)"><path id="Trazado_4839" data-name="Trazado 4839" d="M306.158,522.11c-22.578.61-80.175-.634-86.319-.147a.708.708,0,0,0-.658.6c-.25,8.8-.468,17.643-.995,26.4-.091.4.214.777.813.8,8.082.65,46.618,1.031,57.831,1.023,8.938.087,20.56.234,29.356-.753.848-.119.725-1.023.852-1.514.166-6.671,1.058-26.672-.876-26.415Z" transform="translate(-218.17 -521.847)" fill="#83e0d6"/><path id="Trazado_4840" data-name="Trazado 4840" d="M231.976,539.546c.178-3.306.4-6.612.773-9.905q.273-2.42.634-4.828.19-1.249.424-2.489c.028-.147.056-.293.079-.444-7.21-.047-12.422-.04-14.048.087a.708.708,0,0,0-.658.6c-.25,8.8-.468,17.643-.995,26.4-.091.4.214.777.813.8,2.232.178,6.79.337,12.45.476.19-3.567.337-7.135.531-10.7Z" transform="translate(-218.17 -521.85)" fill="#83e0d6" opacity="0.3" style="mix-blend-mode: multiply;isolation: isolate"/><path id="Trazado_4841" data-name="Trazado 4841" d="M315.043,554.664c.135-3.46.377-6.917.848-10.345-.075-.591.912-3.579.107-3.468-9.37.036-18.749-.19-28.111-1.07a56.513,56.513,0,0,0-7.686-.079.324.324,0,0,0-.277.305c-.19,4.57-.365,9.156-.666,13.7a.349.349,0,0,0,.329.428,70.8,70.8,0,0,0,10.048.182c4.634.127,9.275.932,13.925,1.066a73.818,73.818,0,0,0,11.114.059C315.028,555.39,314.984,554.918,315.043,554.664Z" transform="translate(-255.04 -532.565)" fill="#fff"/><path id="Trazado_4842" data-name="Trazado 4842" d="M391.921,553.446c.115-4.281-7.828-4.947-9.4-1.292C380.815,558.186,391.711,559.934,391.921,553.446Z" transform="translate(-317.268 -538.707)" fill="#64d8cc"/></g><g id="Grupo_3373" data-name="Grupo 3373" transform="translate(0 71.845)"><path id="Trazado_4843" data-name="Trazado 4843" d="M196.707,454.69c22.578.61,80.175-.634,86.319-.147a.708.708,0,0,1,.658.6c.25,8.8.468,17.643.995,26.4.091.4-.214.777-.813.8-8.082.65-46.618,1.031-57.831,1.023-8.938.087-20.56.234-29.356-.753-.848-.119-.725-1.023-.852-1.514-.167-6.671-1.058-26.672.876-26.415Z" transform="translate(-195.477 -454.427)" fill="#66d1ee"/><path id="Trazado_4844" data-name="Trazado 4844" d="M382.82,472.126c-.178-3.306-.4-6.612-.773-9.905q-.273-2.42-.634-4.828-.19-1.249-.424-2.489c-.028-.147-.055-.293-.079-.444,7.21-.048,12.422-.04,14.048.087a.708.708,0,0,1,.658.6c.25,8.8.468,17.643.995,26.4.091.4-.214.777-.813.8-2.232.178-6.79.337-12.45.476-.19-3.567-.337-7.135-.531-10.7Z" transform="translate(-307.409 -454.43)" fill="#83e0d6" opacity="0.3" style="mix-blend-mode: multiply;isolation: isolate"/><path id="Trazado_4845" data-name="Trazado 4845" d="M267.242,487.244c-.135-3.46-.377-6.917-.848-10.345.075-.591-.912-3.579-.107-3.468,9.37.036,18.749-.19,28.111-1.07a56.553,56.553,0,0,1,7.686-.079.325.325,0,0,1,.277.305c.19,4.57.365,9.156.666,13.7a.349.349,0,0,1-.329.428,70.826,70.826,0,0,1-10.048.182c-4.634.127-9.275.932-13.925,1.066a73.818,73.818,0,0,1-11.114.059C267.257,487.97,267.3,487.5,267.242,487.244Z" transform="translate(-238.028 -465.145)" fill="#fff"/><path id="Trazado_4846" data-name="Trazado 4846" d="M232.218,486.026c-.115-4.281,7.828-4.947,9.4-1.292C243.325,490.766,232.428,492.514,232.218,486.026Z" transform="translate(-217.654 -471.287)" fill="#00b2e3"/></g><g id="Grupo_3374" data-name="Grupo 3374" transform="translate(15.953)"><path id="Trazado_4847" data-name="Trazado 4847" d="M262.672,345.36c3.992-17.013,16.874-59.742,17.655-64.451a.608.608,0,0,0-.448-.634c-8.443-2.287-16.921-4.554-25.265-7.036a.668.668,0,0,0-.939.416c-2.267,5.882-10.448,34.58-12.72,42.959-1.895,6.655-4.4,15.3-5.228,22.11-.055.662.84.785,1.288,1,6.4,1.716,25.511,7.147,25.653,5.64Z" transform="translate(-235.724 -273.173)" fill="#f2a1bc"/><path id="Trazado_4848" data-name="Trazado 4848" d="M278.611,343.156c1.7-10.088,5.45-19.827,7.472-29.851-3.992-1.5-9.037-1.9-13.322-3.123a.351.351,0,0,0-.472.206,53.3,53.3,0,0,0-1.962,8.4c-1.867,6.893-4.749,13.734-5.537,20.83-.012.305.448.349.682.436,3.31.69,6.6,1.467,9.814,2.43.579.036,3.286,1.36,3.322.666Z" transform="translate(-253.269 -295.497)" fill="#fff"/><path id="Trazado_4849" data-name="Trazado 4849" d="M271.451,405.906c4.1,1.118,6.544-5.351,3.373-7.531C269.39,395.513,265.236,404.186,271.451,405.906Z" transform="translate(-255.415 -348.401)" fill="#ef8aab"/></g><g id="Grupo_3375" data-name="Grupo 3375" transform="translate(60.156 3.046)"><path id="Trazado_4850" data-name="Trazado 4850" d="M375.883,348.758c-.606-17.425.63-61.87.147-66.611a.628.628,0,0,0-.6-.507c-8.772-.194-17.575-.361-26.307-.769a.652.652,0,0,0-.8.626c-.65,6.235-1.027,35.975-1.019,44.628-.087,6.9-.234,15.867.753,22.653.119.654,1.019.559,1.51.658,6.647.131,26.573.817,26.319-.678Z" transform="translate(-347.241 -280.858)" fill="#d6b4e4"/><path id="Trazado_4851" data-name="Trazado 4851" d="M376.727,346.246c-1-10.175.063-20.5-.614-30.684-4.261-.5-9.247.325-13.719.166a.34.34,0,0,0-.4.313,53.307,53.307,0,0,0,.309,8.6c0,7.119-.987,14.432.115,21.488.067.3.523.23.777.262,3.385-.127,6.77-.159,10.139.008.571-.1,3.536.531,3.393-.151Z" transform="translate(-356.088 -301.708)" fill="#fff"/><path id="Trazado_4852" data-name="Trazado 4852" d="M376.861,410.32c4.265.1,4.931-6.746,1.288-8.1C372.137,400.751,370.4,410.142,376.861,410.32Z" transform="translate(-362.644 -354.022)" fill="#cca1dd"/></g></g><g id="Grupo_3377" data-name="Grupo 3377" transform="translate(83.249 9.204)"><path id="Trazado_4853" data-name="Trazado 4853" d="M475.859,302.41c-.717-35.381-44.779-21.69-48.3,5.01-1.574,9.917,2.426,19.748.733,29.685-1.661,13.754-13.461,25.828-9.228,40.2,3.559,13.643,19.744,19.589,30.628,10,11.317-9.624,12.03-25.753,14.892-39.317,2.553-13.857,8.558-26.95,9.977-41.029C476.751,307.643,475.689,303.623,475.859,302.41Z" transform="translate(-413.138 -281.122)" fill="#010d3d"/><path id="Trazado_4854" data-name="Trazado 4854" d="M553.254,559.033a38.958,38.958,0,0,1-3.579-4.087c-1.1-1.4-2.16-2.838-3.187-4.3q-3.246-4.632-6.508-9.255a1.568,1.568,0,1,0-2.707,1.581c.258.5.515,1,.777,1.506-.119-.163-.234-.325-.353-.484a1.133,1.133,0,0,0-1.5-.392,1.063,1.063,0,0,0-.488.638c-.028,0-.059,0-.091-.008h-.032c-.036,0-.067-.012-.107-.012v.016a.877.877,0,0,0-.741.547c-.206.523.1.912.349,1.344l.69,1.193c.46.8.912,1.593,1.364,2.394s.927,1.586,1.391,2.378c.48.816.908,1.677,1.419,2.473,1.95,3.056,3.956,6.076,5.985,9.077a1.533,1.533,0,0,0,2.378.305,9.489,9.489,0,0,1,4.34-2.636,1.368,1.368,0,0,0,.6-2.267Z" transform="translate(-483.47 -437.754)" fill="#fff"/><path id="Trazado_4855" data-name="Trazado 4855" d="M457.01,654.223c1.942-10.262-35.785-9.434-42.5-8.661-1.13-.912-1.157,2.374-1.344,2.985-1.4,11.63,3.678,23.18,5.835,34.667a265.52,265.52,0,0,1,2.188,47.137c-1.272,16.117-7.813,26.042-12.311,41.192-.2.638.5,1.122,1.106,1.34,3.865,1.4,5.617,2.6,9.37,2.477.587.123,1.36.412,1.788-.055a1.821,1.821,0,0,0,1.76-.793,43.511,43.511,0,0,0,5.4-13.219c7.717-30.925,9.62-63.559,7.389-96.1,1,.412,3.678.262,4.7.285,6.362,49.056,10.869,59.516-3.464,107.117a1.154,1.154,0,0,0,1.106,1.34q5.625-.172,11.253-.353c.6.119,1.36.42,1.811-.056.666.008,1.593.02,1.732-.793,2.093-15.526,5.64-30.719,7.087-46.388,2.382-23.731.369-48.084-2.909-72.125Z" transform="translate(-407.519 -500.854)" fill="#010d3d"/><path id="Trazado_4856" data-name="Trazado 4856" d="M543.473,534.563a12.183,12.183,0,0,0,1.467,2.418c.547.821,1.1,1.637,1.653,2.458,1.122,1.665,2.287,3.306,3.437,4.951,1.134,1.621,2.271,3.234,3.4,4.86,1.074,1.546,2.109,3.123,3.234,4.63a10.238,10.238,0,0,0,4.166,3.575c.872.361,1.475-1.094.642-1.526a10.71,10.71,0,0,1-3.369-2.957c-1.134-1.4-2.176-2.882-3.254-4.324-2.311-3.1-4.594-6.219-6.909-9.311-.634-.848-1.288-1.681-1.93-2.525-.325-.424-.654-.844-.983-1.264a7.359,7.359,0,0,0-1.094-1.253c-.19-.151-.563-.02-.46.266h0Z" transform="translate(-488.774 -433.904)" fill="#010d3d"/><path id="Trazado_4857" data-name="Trazado 4857" d="M530.957,548.9a25.37,25.37,0,0,0,2.366,4.717c.868,1.538,1.744,3.076,2.688,4.574s1.962,3.016,2.993,4.491a48.9,48.9,0,0,0,2.965,3.968,10.923,10.923,0,0,0,1.895,1.76c.706.507,1.685,1.189,2.438.575a.685.685,0,0,0,.178-.67c-.087-.42-.388-.563-.741-.725a6.607,6.607,0,0,1-.983-.555,8.748,8.748,0,0,1-1.479-1.36c-1.062-1.181-1.986-2.5-2.925-3.777q-3.038-4.126-5.87-8.415c-.531-.8-1.05-1.613-1.57-2.426a19.59,19.59,0,0,0-1.613-2.354.205.205,0,0,0-.341.2Z" transform="translate(-481.225 -442.605)" fill="#010d3d"/><path id="Trazado_4858" data-name="Trazado 4858" d="M635.47,556.938c-2.018-7.563-3.821-15.185-5.165-22.9-.531-1.221-.587-8.336-2.077-7.559-18.15,6.358-44.9,14.182-63.634,18.566a105.4,105.4,0,0,0-14.959,4.978.751.751,0,0,0-.341.844c2.644,9.989,5.319,20.005,7.725,30.018a.744.744,0,0,0,.92.7c6.778-1.3,13.1-4,19.609-6.338,9.069-2.83,18.6-4.21,27.715-7.032,7.289-2.148,23.18-6.033,30.006-9.354.65-.349.258-1.336.2-1.922Z" transform="translate(-492.284 -429.19)" fill="#83e0d6"/><path id="Trazado_4859" data-name="Trazado 4859" d="M737.591,556.938c-2.018-7.563-3.821-15.185-5.165-22.9-.531-1.221-.587-8.332-2.077-7.559-3.662,1.284-7.674,2.624-11.9,3.987.48,1.209.892,2.442,1.253,3.69,1.915,6.631,2.5,13.532,3.381,20.35a87.567,87.567,0,0,0,1.526,8.871,93.865,93.865,0,0,0,12.779-4.519C738.039,558.512,737.646,557.525,737.591,556.938Z" transform="translate(-594.405 -429.191)" fill="#83e0d6" opacity="0.3" style="mix-blend-mode: multiply;isolation: isolate"/><path id="Trazado_4860" data-name="Trazado 4860" d="M619.385,590.493c-.991-3.94-1.875-7.908-2.537-11.911-.262-.642-.289-4.3-1.019-3.94a243.9,243.9,0,0,1-27.116,7.067,48.1,48.1,0,0,0-7.345,2.172.373.373,0,0,0-.166.424c1.3,5.2,2.612,10.429,3.793,15.637a.39.39,0,0,0,.452.384,60.409,60.409,0,0,0,9.628-2.751c4.455-1.221,9.132-1.681,13.608-2.9a62.244,62.244,0,0,0,10.6-3.207c.321-.163.127-.682.1-.983Z" transform="translate(-511.552 -458.282)" fill="#fff"/><path id="Trazado_4861" data-name="Trazado 4861" d="M469.272,480.476c1.264-5.755-1.494-11.289-3.155-16.648-1.53-4.677-.749-10.508-3.948-14.733-3.952-5.216-11.7-7.25-17.671-5.7-6.941,1.609-12.422,7.048-15.217,13.461-5.086,11.1-3.742,23.632-6.612,35.274-2.763,11.071-8.978,21.4-9.01,33.062.063,1.506-.1,3.294.82,4.475a41.878,41.878,0,0,0,8.907,3.7,53.963,53.963,0,0,0,36.53-1.225,1,1,0,0,0,.717-.947c-.832-6.342-1.375-15.138-1.538-21.535.016-5.969,1.546-9.874,3.227-15.693C463.9,489.109,468.158,485.538,469.272,480.476Z" transform="translate(-410.427 -378.767)" fill="#ef8aab"/><path id="Trazado_4862" data-name="Trazado 4862" d="M512.514,337.119c-1.181-2.343-3.52-3.865-5.185-5.831a38.411,38.411,0,0,1-4.416-7.052c-.642-1.217-1.221-2.446-1.752-3.718-.277-.658-.547-1.324-.813-1.986a8.309,8.309,0,0,0-.955-2.045c-.313-.416-1.209-.519-1.3.17q-.012.089-.024.19h0a.041.041,0,0,1,0,.012,2.808,2.808,0,0,1-.083.5,4.911,4.911,0,0,1-.345.674c-.25.472-.507.939-.781,1.4a30.53,30.53,0,0,1-1.776,2.668,34.244,34.244,0,0,1-3.888,4.34,61.208,61.208,0,0,0,.012-11.079c-.044-.527-.884-.737-.995-.135a44.514,44.514,0,0,1-7.04,16.569q-1.017,1.516-2.156,2.945a29.136,29.136,0,0,0-3-8.879.622.622,0,0,0-1.126.147q-.351,2.045-.86,4.039a50.553,50.553,0,0,1-3.028,8.53,7.42,7.42,0,0,0-3.238-1.411,3.709,3.709,0,0,0-3.345,1.221,3.936,3.936,0,0,0-.48,3.5,4.827,4.827,0,0,0,2.6,2.985,13.735,13.735,0,0,0,2.021.856,15.875,15.875,0,0,1,1.744.6,2.037,2.037,0,0,1,1.058,1.28,16.122,16.122,0,0,0,.821,1.831,17.524,17.524,0,0,0,4.749,5.442.9.9,0,0,0-.321.468.928.928,0,0,0,.63,1.114q1.5.589,2.989,1.177c.25.115.5.226.741.349a28.524,28.524,0,0,1,2.906,1.681q-1.171,2.705-2.319,5.418c-.773,1.827-1.895,3.94-1.106,5.95a.855.855,0,0,0,1.027.583.339.339,0,0,0,.067-.024,9.824,9.824,0,0,1,.868,2.271c.167.686,1.054.559,1.272,0,1.078-2.763,2.16-5.518,3.44-8.193.3-.626.6-1.245.916-1.863a9.715,9.715,0,0,1,.979-1.8,1.634,1.634,0,0,1,1.479-.472c.6.016,1.2.044,1.8.055a31.628,31.628,0,0,0,3.468-.02,28.931,28.931,0,0,0,3.69-.535,15.317,15.317,0,0,0,6.243-2.83c4.075-3.2,5.157-8.661,5.732-13.532a13.212,13.212,0,0,0-.908-7.555Z" transform="translate(-441.865 -301.485)" fill="#fff"/><path id="Trazado_4863" data-name="Trazado 4863" d="M536.709,575.711a12.588,12.588,0,0,0-.5-1.225,5.283,5.283,0,0,0-1.744-3.544,11.667,11.667,0,0,0-3.8-2.168c-.289-.25-.579-.5-.88-.733q1.623-1.29,3.238-2.581a.884.884,0,0,0,0-1.241c-1.724-1.689-3.635.844-5.256,1.352a12.2,12.2,0,0,1-5.747,0c-4.515-.844-9.176-1.847-13.116-4.313a33.518,33.518,0,0,1-8.819-8.633,119.072,119.072,0,0,1-7.428-11.574,84.666,84.666,0,0,1-6.889-14.694,1.276,1.276,0,0,0-1.855-.757,21.763,21.763,0,0,1-5.387,2.779,1.174,1.174,0,0,0-.4,2.085c.032.135.067.266.1.392.151.587.289,1.173.444,1.76a42.354,42.354,0,0,0,2.493,6.79,62.928,62.928,0,0,0,7.345,12.157A69.385,69.385,0,0,0,510,570.245c2.561,1.415,5.3,2.541,7.626,4.34.884.686,1.764,1.423,2.68,2.093a.966.966,0,0,0,.143,1.221,4.787,4.787,0,0,0,4.911.991,1.124,1.124,0,0,0,.8-1.046,1.11,1.11,0,0,0-.226-.658,2.716,2.716,0,0,0,.167-.3,13.51,13.51,0,0,1,3.2,1.241.717.717,0,0,0,.591.571c.424.067.852.139,1.276.206a.91.91,0,0,0,1.134-.86.787.787,0,0,1,.182-.642.9.9,0,0,0,0-1.261c-.6-.559-1.2-1.114-1.8-1.669a1.4,1.4,0,0,1-.02-.285c0-.02.016-.123.016-.139h0c.012-.075-.012-.016.024-.067.111-.155.313-.2.6-.123a3.1,3.1,0,0,1,1.153.729,4.749,4.749,0,0,0,2.295,1.3c.111.17.226.341.333.511.515.828,1.978.305,1.633-.686Z" transform="translate(-449.056 -428.577)" fill="#fff"/><path id="Trazado_4864" data-name="Trazado 4864" d="M471.419,336.7a3.886,3.886,0,0,0-3.238-2.156,4.337,4.337,0,0,0-4.083,1.146,5.161,5.161,0,0,0-.8,5.125,7.15,7.15,0,0,0,4.063,3.88c.924.384,1.974.464,2.866.9a3.867,3.867,0,0,1,1.522,2.14,21.012,21.012,0,0,0,2.893,4.61,23.806,23.806,0,0,0,19.07,8.562,21.252,21.252,0,0,0,10.77-3.532,20.9,20.9,0,0,0,4.328-3.813,19.577,19.577,0,0,0,3.773-16.826,15.074,15.074,0,0,0-2.58-5.339,50.35,50.35,0,0,0-4.5-4.788,22.578,22.578,0,0,1-3.873-5.216,42.772,42.772,0,0,1-2.557-6.013c-.357-1.011-.694-2.033-1.031-3.052a.834.834,0,0,0-1.593,0,10.762,10.762,0,0,0-.392,1.661c-.044.238-.063.5-.127.729a4.472,4.472,0,0,1-.357.781,27.984,27.984,0,0,1-1.661,2.9,26.345,26.345,0,0,1-4.447,5.165l.709.412a21.12,21.12,0,0,0-.769-12.3.38.38,0,0,0-.725,0,70.319,70.319,0,0,1-7.266,16.6q-1.308,2.218-2.767,4.34l1.086.293a19.322,19.322,0,0,0-3.778-11.138.557.557,0,0,0-1,.131c-1.225,4.864-2.672,9.664-4.265,14.416-.23.686.856.983,1.082.3,1.566-4.76,2.957-9.576,4.245-14.42l-1,.131a19.21,19.21,0,0,1,3.559,10.583.588.588,0,0,0,1.086.293,73.475,73.475,0,0,0,8.169-16.335c.579-1.645,1.082-3.318,1.581-4.986h-.725a21.5,21.5,0,0,1,.678,11.871.427.427,0,0,0,.709.412,28.559,28.559,0,0,0,4.511-5.28,26.906,26.906,0,0,0,1.7-2.973,11.25,11.25,0,0,1,.92-1.53,6.472,6.472,0,0,0,.836-1.621h-1.593c1.245,3.92,2.521,7.9,4.82,11.356a29.436,29.436,0,0,0,4.134,4.745,25.114,25.114,0,0,1,3.928,4.451,15.884,15.884,0,0,1,2.283,10.6,15.22,15.22,0,0,1-1.744,5.323,19.653,19.653,0,0,1-3.238,4.13,19.742,19.742,0,0,1-18.947,5.1,22.487,22.487,0,0,1-8.764-4.388,20.722,20.722,0,0,1-3.421-3.528,25.347,25.347,0,0,1-2.525-4.4,4.231,4.231,0,0,0-1.855-2.093,22.233,22.233,0,0,0-2.878-.781,5.61,5.61,0,0,1-3.738-3.238c-.464-1.375-.262-3.369,1.118-4.178a4.577,4.577,0,0,1,3.853-.02,2.452,2.452,0,0,1,1.336,1.1c.167.333.737.1.61-.258h0Z" transform="translate(-440.182 -299.407)" fill="#010d3d"/><path id="Trazado_4865" data-name="Trazado 4865" d="M519.142,357.911c-.008.091-.008.1,0,.012a.5.5,0,0,0-.024.242c0,.083.02.166.032.254a4.361,4.361,0,0,0,.1.6c.083.317.174.634.266.951s.178.634.266.951a4.043,4.043,0,0,0,.4,1.11,1.05,1.05,0,0,0,1.153.472,1.033,1.033,0,0,0,.749-.987,3.784,3.784,0,0,0-.341-1.134c-.131-.317-.266-.638-.4-.955s-.258-.61-.388-.92a3.793,3.793,0,0,0-.674-1.066.671.671,0,0,0-.733-.139.683.683,0,0,0-.412.614h0Z" transform="translate(-474.083 -327.073)" fill="#010d3d"/><path id="Trazado_4866" data-name="Trazado 4866" d="M553.648,346.47a2.824,2.824,0,0,0,.052.448c.012.044.087.254.02.059.032.087.02.194.048.285.071.234.159.46.238.69.155.452.3.916.484,1.356a.892.892,0,0,0,.242.412l.19.147a.9.9,0,0,0,.832.048.94.94,0,0,0,.448-1.328,1.919,1.919,0,0,0-.293-.452l.143.186c-.123-.178-.218-.384-.329-.571l-.321-.547c-.107-.182-.206-.369-.321-.547a.735.735,0,0,0-.131-.163.667.667,0,0,0-.055-.048c.055.071.059.079.016.016l-.028-.044a2.44,2.44,0,0,0-.3-.337.536.536,0,0,0-.595-.111.544.544,0,0,0-.337.5h0Z" transform="translate(-494.926 -320.239)" fill="#010d3d"/><path id="Trazado_4867" data-name="Trazado 4867" d="M544.8,350.6c-.186.571.246,1.177.507,1.653a14.042,14.042,0,0,0,1,1.586,18.218,18.218,0,0,0,2.339,2.66,21.314,21.314,0,0,0,6.31,3.651l-.412-1.015a32.9,32.9,0,0,1-2.275,3.873,8.151,8.151,0,0,1-1.312,1.427,4.24,4.24,0,0,0-1.4,1.589.4.4,0,0,0,.182.452c1.6.737,3.226-1.094,4.035-2.271a20.381,20.381,0,0,0,2.033-4.539.7.7,0,0,0-.484-.852,11.4,11.4,0,0,1-1.685-.575,14.661,14.661,0,0,1-1.471-.844,16.535,16.535,0,0,1-2.576-2.029,21.556,21.556,0,0,1-2.228-2.43c-.353-.452-.714-.9-1.062-1.352-.317-.42-.646-1.046-1.213-1.15a.241.241,0,0,0-.289.167h0Z" transform="translate(-489.559 -322.956)" fill="#010d3d"/><path id="Trazado_4868" data-name="Trazado 4868" d="M523.552,394.737a5.641,5.641,0,0,0,2.366,1.134c.852.289,1.7.63,2.568.848a34.478,34.478,0,0,0,5.474.848c1.122.1,1.13-1.681,0-1.76a46.618,46.618,0,0,1-5.129-.69c-.864-.155-1.724-.254-2.58-.468a7.161,7.161,0,0,0-2.473-.468.327.327,0,0,0-.23.551h0Z" transform="translate(-476.702 -349.356)" fill="#010d3d"/><path id="Trazado_4869" data-name="Trazado 4869" d="M532.136,396.275a12.458,12.458,0,0,0-.575,1.677,8.2,8.2,0,0,1-.84,1.554,7.053,7.053,0,0,1-2.723,2.37c-1.926.955-4.99.832-5.482-1.712a9.276,9.276,0,0,1-.075-2.608,9.66,9.66,0,0,1,.222-1.348c.1-.444.282-.868.353-1.308a.611.611,0,0,0-.591-.773.591.591,0,0,0-.527.3,7.412,7.412,0,0,0-.686,2.676,11.53,11.53,0,0,0-.012,2.79,3.949,3.949,0,0,0,2.394,3.413c2.731,1.15,5.882-.226,7.634-2.426a7.4,7.4,0,0,0,1.189-2.109,3.924,3.924,0,0,0,.273-2.426.307.307,0,0,0-.555-.071h0Z" transform="translate(-475.293 -349.332)" fill="#010d3d"/><path id="Trazado_4870" data-name="Trazado 4870" d="M522.943,403.64a5.869,5.869,0,0,0,1.986,1.082,21.393,21.393,0,0,0,2.192.761,20.231,20.231,0,0,0,2.259.515,6.024,6.024,0,0,0,1.161.1,1.973,1.973,0,0,0,.551-.056,1.175,1.175,0,0,0,.333-.242.23.23,0,0,0,0-.321,1.458,1.458,0,0,0-.88-.452c-.329-.075-.662-.123-.995-.178a21.287,21.287,0,0,1-2.125-.452,20.929,20.929,0,0,1-2.065-.67,11.087,11.087,0,0,0-2.018-.761.4.4,0,0,0-.388.67h0Z" transform="translate(-476.326 -354.669)" fill="#010d3d"/><path id="Trazado_4871" data-name="Trazado 4871" d="M513.143,352.862l.111-.059h-.238l.107.079a.592.592,0,0,0,.61,0,15.88,15.88,0,0,0,1.55-1.122l.706-.547a2.1,2.1,0,0,0,.682-.749.644.644,0,0,0-.048-.7.63.63,0,0,0-.666-.226,2.281,2.281,0,0,0-.947.567l-.694.6A15.4,15.4,0,0,0,513,351.935a.63.63,0,0,0-.1.733l.028.055.036-.285-.083.1a.213.213,0,0,0,.258.333h0Z" transform="translate(-470.288 -322.405)" fill="#010d3d"/><path id="Trazado_4872" data-name="Trazado 4872" d="M545.584,334.347h.392c-.1-.012-.071,0,.1.016h.147c.206,0,.412.008.618.028.047,0,.1.012.147.016s.032,0-.044,0a.788.788,0,0,1,.1.016l.289.048a1.7,1.7,0,0,0,.864.075.64.64,0,0,0,.424-.424.624.624,0,0,0-.155-.591,1.263,1.263,0,0,0-.836-.305,4.878,4.878,0,0,0-.761-.052,5,5,0,0,0-.642.044,3.909,3.909,0,0,0-.765.182.485.485,0,0,0,.131.951h0Z" transform="translate(-489.771 -312.538)" fill="#010d3d"/><path id="Trazado_4873" data-name="Trazado 4873" d="M507.14,427.5c-1.054,1.574-1.922,3.286-2.913,4.907s-1.994,3.258-3.04,4.852a1.092,1.092,0,0,0,.167,1.3,22.288,22.288,0,0,1,4.122,5.5l.959-.741a13.236,13.236,0,0,1-3.5-5.9l-.959.737c2.37,1.661,3.437,4.523,4.392,7.135a.637.637,0,0,0,1.245-.17,22.853,22.853,0,0,1,6.338-14.86c.626-.65-.373-1.645-.991-.991a24.59,24.59,0,0,0-6.616,15.847l1.245-.17c-1.062-2.949-2.267-6.076-4.955-7.928a.659.659,0,0,0-.959.737,16.133,16.133,0,0,0,1.566,3.441,23.352,23.352,0,0,0,2.327,2.973.614.614,0,0,0,1.019-.595,19.144,19.144,0,0,0-3.718-6.552l.166,1.3a42.439,42.439,0,0,0,2.85-5.07,27.688,27.688,0,0,0,2.069-5.426.451.451,0,0,0-.82-.345h0Z" transform="translate(-463.171 -369.344)" fill="#010d3d"/><path id="Trazado_4874" data-name="Trazado 4874" d="M498.765,455.374a14.224,14.224,0,0,1-3.536.674c-.3,0-.6-.024-.9-.024-.135,0-.353.044-.476-.036s-.139-.329-.167-.464c-.059-.285-.1-.575-.155-.86a22.6,22.6,0,0,1-.392-3.425,7.45,7.45,0,0,1,.071-1.653c.087-.464.436-1.046.206-1.494a.232.232,0,0,0-.262-.107c-.559.186-.654,1.027-.777,1.526a12.1,12.1,0,0,0-.349,2.025,20.139,20.139,0,0,0,.23,4.055,1.989,1.989,0,0,0,.84,1.625,2.511,2.511,0,0,0,1.843.131,12.926,12.926,0,0,0,4.007-1.538.238.238,0,0,0-.182-.432h0Z" transform="translate(-457.714 -381.839)" fill="#010d3d"/><path id="Trazado_4875" data-name="Trazado 4875" d="M516.726,457.315a8.817,8.817,0,0,0,1.074.123c.369.024.725.02,1.086.044a20.745,20.745,0,0,1,2.1.258c.436.071.955-.278.781-.781q-.862-2.455-1.8-4.883a.615.615,0,0,0-.571-.436h-.036l.349.147a.835.835,0,0,1-.127-.139.419.419,0,0,0-.709.293,1.575,1.575,0,0,1,0,.194l.143-.349-.036.028a.574.574,0,0,0-.151.575q.862,2.45,1.72,4.907l.61-.8a17.944,17.944,0,0,0-2.212-.127c-.361,0-.725,0-1.086.032-.182.016-.361.048-.543.071a3.29,3.29,0,0,0-.587.159c-.305.1-.373.618,0,.686h0Z" transform="translate(-472.483 -383.978)" fill="#010d3d"/><path id="Trazado_4876" data-name="Trazado 4876" d="M497.308,524.649a8.317,8.317,0,0,0,.84,2.937c.3.761.614,1.514.939,2.263.543,1.237,1.149,2.442,1.788,3.635,1.954,3.655,3.778,7.4,5.862,10.976,4.475,7.69,10.1,15.138,18.332,19.05a23.964,23.964,0,0,0,14.234,2.275.928.928,0,0,0,.642-1.134.941.941,0,0,0-1.134-.642c-8.363,1.359-16.525-3.139-22.153-9.006a62.8,62.8,0,0,1-7.856-10.46c-2.216-3.563-4.36-7.17-6.473-10.8-.753-1.288-1.451-2.608-2.113-3.948-.38-.773-.741-1.554-1.1-2.335a10.009,10.009,0,0,0-1.6-2.909.126.126,0,0,0-.214.087h0Z" transform="translate(-460.914 -428.041)" fill="#010d3d"/><path id="Trazado_4877" data-name="Trazado 4877" d="M526.326,571.6a12.521,12.521,0,0,1,7.04-1.562l-.606-1.058a6.514,6.514,0,0,1-3.845,3.567c-.5.166-.828.9-.341,1.288,1.578,1.253,3.238,2.43,4.764,3.742a8.229,8.229,0,0,1,1.534,1.637,2.032,2.032,0,0,1,.4,1.847.881.881,0,0,1-.9.44c.143.012-.186-.036-.222-.044-.135-.032-.269-.071-.4-.115a8.057,8.057,0,0,1-.8-.293c-1.13-.472-2.188-1.1-3.278-1.653a.887.887,0,0,0-1.2,1.2,14.677,14.677,0,0,0,1.772,2.184,6.2,6.2,0,0,1,.694.892c.016.028.135.234.1.163,0-.008-.008.091.032.063-.008.008.012-.067.008-.067-.06.1.107-.2.111-.174.052-.04.04-.032-.036.016l-.127.06a2.845,2.845,0,0,1-.321.119,5.293,5.293,0,0,1-.82.2,5.074,5.074,0,0,1-4.344-1.431.867.867,0,0,0-1.356,1.046,1.465,1.465,0,0,1,.1,1.459l.595-.595a6.827,6.827,0,0,1-5.684-1.415,29.463,29.463,0,0,1-2.2-2.513,7.591,7.591,0,0,0-3.06-1.724,26,26,0,0,1-6.346-3.647c-1.978-1.455-3.789-2.858-5.64-4.344a81.033,81.033,0,0,1-10.357-9.628,51.988,51.988,0,0,1-4.3-5.593c-1.28-1.926-2.418-3.952-3.548-5.969-1.253-2.232-2.521-4.463-3.666-6.75q-.928-1.849-1.792-3.73c-.618-1.34-1.371-2.6-1.954-3.964-.178-.42-.919-.115-.745.313.531,1.3.92,2.668,1.482,3.952.535,1.221,1.094,2.43,1.665,3.631,1.062,2.224,2.125,4.443,3.318,6.6,1.221,2.208,2.457,4.432,3.845,6.54a54.791,54.791,0,0,0,4.57,5.977,86.3,86.3,0,0,0,11.059,10.464c2.022,1.625,4.083,3.215,6.219,4.685a27.816,27.816,0,0,0,3.476,2.085c1.169.579,2.477.892,3.607,1.542s1.736,1.93,2.648,2.846a8.576,8.576,0,0,0,7.273,2.39,1.619,1.619,0,0,0,.963-.325,2.063,2.063,0,0,0,.42-1.165,3.084,3.084,0,0,0-.448-1.99l-1.356,1.046a6.62,6.62,0,0,0,3.734,1.9,5.854,5.854,0,0,0,4.194-.721c1.954-1.514-1.55-4.091-2.243-5.319l-1.205,1.2c.995.508,1.982,1.039,3.009,1.486a5.237,5.237,0,0,0,3.361.67,2.551,2.551,0,0,0,1.776-2.973,6.5,6.5,0,0,0-2.43-3.591c-1.582-1.375-3.322-2.616-4.986-3.888l-.186,1.411a7.881,7.881,0,0,0,4.721-4.515c.182-.448-.269-.872-.678-.892a11.627,11.627,0,0,0-7.523,2.144.478.478,0,0,0,.484.824h0Z" transform="translate(-447.781 -434.407)" fill="#010d3d"/><path id="Trazado_4878" data-name="Trazado 4878" d="M472.37,504.428a20.843,20.843,0,0,1,4.784-3.013c1.732-.812,3.528-1.471,5.252-2.307a8.925,8.925,0,0,0,2.458-1.455c.932-.928.428-2.014.06-3.072-.757-2.16-1.506-4.3-2.45-6.386-.527-1.165-1.138-2.287-1.665-3.456s-1.05-2.422-1.613-3.615c-.194-.408-.809-.052-.61.357.492,1,1.007,1.99,1.447,3.016s.741,2.089,1.122,3.139c.733,2.025,1.344,4.11,1.982,6.172.159.511.313,1.019.444,1.538.111.436.25.761-.123,1.09a10.075,10.075,0,0,1-2.164,1.213c-1.633.817-3.306,1.558-4.927,2.4a16.169,16.169,0,0,0-4.867,3.5.623.623,0,0,0,.88.88h0Z" transform="translate(-445.235 -401.74)" fill="#010d3d"/><path id="Trazado_4879" data-name="Trazado 4879" d="M467.559,528.734c-.27-1.09-.69-2.148-1.023-3.223-.163-.523-.317-1.046-.452-1.578-.067-.266-.131-.531-.2-.8a1.552,1.552,0,0,0-.186-.452c-.079-.127-.186-.234-.258-.365a.333.333,0,0,0-.614.166c-.016.143-.071.281-.091.424a1.414,1.414,0,0,0,.04.531c.055.27.123.535.194.8.151.547.313,1.09.5,1.625a12.079,12.079,0,0,0,1.514,3.108.316.316,0,0,0,.575-.242h0Z" transform="translate(-441.249 -426.616)" fill="#010d3d"/><path id="Trazado_4880" data-name="Trazado 4880" d="M584.448,660.321l.194-.048a.074.074,0,0,0,0-.143l-.194-.047a.127.127,0,0,0-.123.032.123.123,0,0,0-.036.087.133.133,0,0,0,.036.087.127.127,0,0,0,.123.032Z" transform="translate(-513.423 -509.869)" fill="#010d3d"/><path id="Trazado_4881" data-name="Trazado 4881" d="M692.476,578.33c-1.272-4.859-9.053-3.274-9.366,1.312C683.435,586.947,694.375,585.711,692.476,578.33Z" transform="translate(-573.073 -458.732)" fill="#64d8cc"/><path id="Trazado_4882" data-name="Trazado 4882" d="M539.028,476.158c.353,1.578.864,3.115,1.34,4.657l.69,2.232a7.494,7.494,0,0,0,.86,2.224.159.159,0,0,0,.293-.079,7.391,7.391,0,0,0-.579-2.307l-.725-2.22c-.5-1.538-.975-3.092-1.6-4.586a.146.146,0,0,0-.281.075h0Z" transform="translate(-486.096 -398.743)" fill="#010d3d"/><path id="Trazado_4883" data-name="Trazado 4883" d="M456.871,847.6s-.008-.02,0-.012,0-.012,0-.012-.008-.028-.012-.04,0-.028-.008-.04v-.131a.388.388,0,0,0,.016-.044c0-.012.008-.028.012-.04s-.008.016,0,0l.008-.02s.012-.024.02-.036l.012-.016s.012-.02.008-.012h0a.088.088,0,0,1,.016-.02s.008-.012.012-.016.008-.012.012-.016l0,0c.02-.02.04-.04.063-.059a.062.062,0,0,0,0-.087.067.067,0,0,0-.087-.016.419.419,0,0,0-.17.127.585.585,0,0,0-.059.6.09.09,0,0,0,.123.032.094.094,0,0,0,.032-.123h0Z" transform="translate(-436.379 -622.679)" fill="#010d3d"/><path id="Trazado_4884" data-name="Trazado 4884" d="M479.511,964.161a.592.592,0,0,0,.464-.159.49.49,0,0,0,.21-.519l-.024-.111a.474.474,0,0,0-.785-.206,6.566,6.566,0,0,0-2.576,4.685c-.02,2.1,1.677,3.48,3.6,3.88a7.084,7.084,0,0,0,3.159-.04c.963-.238,1.8-.876,2.818-.765,1.074.115,2.148.4,3.207.6,1.1.214,2.2.416,3.31.587,4.079.626,8.4.84,12.311-.709a6.371,6.371,0,0,0,2.565-1.431c.769-.939-.079-1.974-.781-2.644a11.03,11.03,0,0,0-4.824-2.557c-2.37-.634-4.84-.547-7.262-.8a6.151,6.151,0,0,1-2.913-.932,4.532,4.532,0,0,1-1.49-2.129.664.664,0,0,0-1.268,0c-.591,1.724.84,3.385,2.3,4.138a13.716,13.716,0,0,0,5.668,1,20.885,20.885,0,0,1,5.6.789,8.908,8.908,0,0,1,2.172,1.062,6.134,6.134,0,0,1,.912.753c.127.127.238.286.373.4s.071.285.155-.012-.067-.1-.21-.016c-3.2,1.847-7.111,1.962-10.7,1.585-2.014-.214-4-.61-5.985-1.015-1.011-.206-2.025-.472-3.052-.595a5.328,5.328,0,0,0-2.763.6c-1.49.6-4.217.614-5.006-1.114-.82-1.792.476-3.33,1.411-4.757l-.86-.111c.036.091.087.178.123.262a.21.21,0,0,0,.083.083c.079.04.059.063-.055.063-.028.067.04.127.1.131h0Z" transform="translate(-448.539 -691.173)" fill="#010d3d"/><path id="Trazado_4885" data-name="Trazado 4885" d="M407.825,963.466c-2.1.567-2.767,3.266-2.033,5.105a5.714,5.714,0,0,0,5.775,3.3l-.983-.983c.369,2.989,2.858,4.8,5.482,5.843a22.891,22.891,0,0,0,10.048,1.367,20.32,20.32,0,0,0,5.086-.943,3.481,3.481,0,0,0,1.8-1.221,2.491,2.491,0,0,0,.238-2.212c-.559-1.621-2.156-2.3-3.706-2.644-1.8-.4-3.6-.781-5.4-1.169a10.822,10.822,0,0,1-4.578-1.7,6.176,6.176,0,0,1-1.538-1.946,24.829,24.829,0,0,0-1.2-2.382.8.8,0,0,0-1.463.614,8.914,8.914,0,0,0,1.788,3.861,7.761,7.761,0,0,0,3.571,2.557,29.975,29.975,0,0,0,4.245,1.062c1.57.333,3.171.606,4.721,1.023a2.906,2.906,0,0,1,1.609.88c.273.353.436.785.067,1.114a3.585,3.585,0,0,1-1.554.591,19.31,19.31,0,0,1-2.323.428,24.414,24.414,0,0,1-9.4-.741c-2.3-.65-5.181-1.986-5.561-4.638a.977.977,0,0,0-.947-.721,4.333,4.333,0,0,1-4.15-1.811,2.842,2.842,0,0,1,.717-3.885.41.41,0,0,0-.313-.745h0Z" transform="translate(-405.503 -692.991)" fill="#010d3d"/></g><g id="Grupo_3378" data-name="Grupo 3378" transform="translate(225.727 7.416)"><path id="Trazado_4886" data-name="Trazado 4886" d="M945.843,780.949c-1.744-6.956-7.361-11.883-12.05-16.965a104.527,104.527,0,0,1-8.732-10.821c-3.865-5.827-8.657-11.352-10.817-18.095a127.567,127.567,0,0,1-3.207-21.793c-1.142-15.6,6.584-30.656,4.023-46.237-.353-1.292-1.887-.844-2.874-.706q-4.608.535-9.224,1.074-8.633,1.011-17.262,2.021c-1.629.472-4.289-.269-5.2,1.407-6.584,21.4-15.7,42.781-15.451,65.533.535,14.82,4.245,29.427,8.95,43.431.357,1.49,1.724,2.961,1.562,4.36-1.542,5.216-6.108,8.486-10.682,10.71-17.159,8.344,11.075,11.261,18.154-2.065,2.576,8.534,11.194,4.344,7.69-3.318-2.382-8.744-6.184-17.167-7.753-26.093-1.431-8.011-5-15.49-6.235-23.553-1.994-11.978,4.741-23.271,7.844-34.552q3.431-10.316,6.889-20.623c3.44.048,6.9.218,10.322.071a189.714,189.714,0,0,0-1.9,33.561c.285,10.98-.361,23.255,7.285,32.11a185.951,185.951,0,0,1,19.466,25.352c2.18,5.652,1.364,12.981-6.794,19.926-2.838,2.414-1.617,7.277,8.062,2.957,5.252-2.343,10.6-10.571,10.781-16.073,2.584,2.469,8.942,4.237,7.155-1.617Zm-1.823,1.685c.024-.056.059-.008,0,0Z" transform="translate(-821.981 -511.743)" fill="#010d3d"/><path id="Trazado_4887" data-name="Trazado 4887" d="M915.68,750.089c.92-.48,1.847-.947,2.771-1.419,2.957-1.5,5.894-3.076,8.693-4.867a37.075,37.075,0,0,1-4.352-8.744,127.572,127.572,0,0,1-3.207-21.793c-1.142-15.6,6.584-30.656,4.023-46.237-.353-1.292-1.887-.844-2.874-.706q-4.608.535-9.224,1.074-8.633,1.011-17.262,2.022c-1.629.472-4.289-.27-5.2,1.407-6.584,21.4-15.7,42.781-15.451,65.533a119.555,119.555,0,0,0,2.053,17.766c.293-.059.591-.119.884-.186a44.875,44.875,0,0,0,9.41-3.647c.567-.281,1.13-.579,1.693-.872a67.375,67.375,0,0,1-2.354-9.584c-1.994-11.978,4.741-23.271,7.844-34.552q3.43-10.316,6.889-20.623c3.441.048,6.9.218,10.322.071a189.725,189.725,0,0,0-1.9,33.561c.281,10.885-.345,23.041,7.091,31.877.052-.024.1-.052.155-.075Z" transform="translate(-830.528 -511.737)" fill="#00b2e3"/><path id="Trazado_4888" data-name="Trazado 4888" d="M880.1,347.526a16.445,16.445,0,0,0-3.615-7.519,37.283,37.283,0,0,0-5.3-5.22,13.331,13.331,0,0,0,7.781-10.163,11.723,11.723,0,0,0-1.348-7.452,12.922,12.922,0,0,0-5.343-5.062,11.944,11.944,0,0,0-4.063-1.276,10.425,10.425,0,0,0-1.99-.016c-.075.008-.155.016-.238.02a21.008,21.008,0,0,0,2.469-14.42c-.88-4.844-4.241-10.52-9.917-9.9a13.283,13.283,0,0,0-6.548,3.009,14.857,14.857,0,0,0,.551-5.486,7.765,7.765,0,0,0-2.687-5.125,5.428,5.428,0,0,0-2.6-1.138,7.336,7.336,0,0,0-3.583.42,21.551,21.551,0,0,0-5.747,3.06,9.953,9.953,0,0,0-2.247,2.319c-.051-.222-.1-.444-.159-.666a11.97,11.97,0,0,0-1.149-3.207,5.5,5.5,0,0,0-4.844-3.084,9.531,9.531,0,0,0-3.357,1.05,18.483,18.483,0,0,0-2.759,1.55,11.329,11.329,0,0,0-4.107,4.673,8.914,8.914,0,0,0-.737,4.1,7.651,7.651,0,0,0-7.063,1.364c-3.215,2.652-3.813,7.19-3.187,11.067a28.463,28.463,0,0,0,.935,3.845c.206.666.44,1.316.69,1.966a1.241,1.241,0,0,0,.686.8c.21.1.408.23.614.345a.016.016,0,0,0,.024-.008,7.216,7.216,0,0,0,.452-.955l1.066.444c-.111.266-.222.531-.337.8-.424.975-.769,1.974-1.142,2.973s-.852,1.93-1.225,2.921c-.714,1.914-1.4,3.829-2.041,5.771a37.251,37.251,0,0,0-1.344,5.759c-.63,3.912-1.13,7.813-.4,11.753a32.089,32.089,0,0,0,2.366,7.067c2.037,4.566,5.189,9.208,9.917,11.281a12.064,12.064,0,0,0,8.879.369,14.707,14.707,0,0,0,2.66-1.249c.107.44.258.876.4,1.288.289.86.61,1.708.955,2.549.174.424.353.848.539,1.268-.285.139-.567.3-.832.456a10.034,10.034,0,0,0-2.14,1.712,19.68,19.68,0,0,0-3.219,4.812c-1.891,3.817-3.1,7.927-5,11.745a57.939,57.939,0,0,1-3.655,6.326,54.449,54.449,0,0,1-4.42,5.91c-3.143,3.559-6.881,6.9-11.816,7.365-5.7.539-11.206-2.041-16.2-4.483a19.54,19.54,0,0,0-6.318-6.35c-1.047-.658-2.481-1.641-3.785-1.2a1.675,1.675,0,0,0-1.138,1.566,2.3,2.3,0,0,0,.912,1.625,18.223,18.223,0,0,1,1.764,1.387,3.452,3.452,0,0,1,.65,1.031,29.282,29.282,0,0,0-6.481-.028c-1.724.194-4.289.452-4.788,2.509a.723.723,0,0,0,.329.809,20.167,20.167,0,0,0,4.891,1.423c-.587.1-1.177.182-1.752.317a5.706,5.706,0,0,0-3.639,2.236c-.42.662-.694,1.657.1,2.172.674.436,1.613.147,2.343.052,1.245-.166,2.485-.325,3.73-.48l-1.542,1.233c-.824.65-2.144,1.784-1.383,2.965a1.564,1.564,0,0,0,1.546.6,17.17,17.17,0,0,0,2.053-.329,1.441,1.441,0,0,0,.277,1.911,1.791,1.791,0,0,0,1.617.388,4.742,4.742,0,0,0,1.249-.484,16.679,16.679,0,0,0,1.471-.828,12.154,12.154,0,0,0,1.336-1.09.394.394,0,0,0,.135-.254,21.4,21.4,0,0,0,2.164,1.264c.3.174.606.353.908.531-1.2.163-2.414.266-3.607.42a29.174,29.174,0,0,0-3.635.519,7.835,7.835,0,0,0-.8.254,4.183,4.183,0,0,0-1.566.963c-.377.4-.9,1.173-.618,1.736.65,1.328,2.675,1.13,3.877,1.169,1.5.048,3,.1,4.5.147a11.426,11.426,0,0,1-2.39.666,10.5,10.5,0,0,0-3.884,1.316c-.9.6-2.616,2.469-1.237,3.441a4.509,4.509,0,0,0,2.331.48,11.314,11.314,0,0,0,2.556-.238,15.528,15.528,0,0,0,1.895-.511c-.4.353-.813.7-1.217,1.054-.828.717-2.37,2.236-1.185,3.357.626.591,1.443.333,2.148.067a21.226,21.226,0,0,0,2.2-.959c.412-.206.809-.432,1.2-.662a13.322,13.322,0,0,0-.527,1.375.7.7,0,0,0,.848.848,9.653,9.653,0,0,0,5.006-3.219,28.877,28.877,0,0,0,3.421-5.145c.563.182,1.13.349,1.708.491,1.28.321,2.565.6,3.861.856,2.5.488,5.014.912,7.539,1.233-.024.384-.052.773-.067,1.157a.882.882,0,0,0,.63.828,9.434,9.434,0,0,0,7.246.155.631.631,0,0,0,.3-.369,22.549,22.549,0,0,0,3.4-1.451,46.664,46.664,0,0,0,4.225-2.394,52.657,52.657,0,0,0,4.38-3.159c.024-.25.052-.5.075-.753s.024-.515.06-.769c.012-.083,0-.206.036-.258v-.008c-.044-.04-.028-.056-.012-.052a.2.2,0,0,1,.178-.242c.345-.04.46.71.5.92.024.143.044.281.067.424.067-.056.135-.107.2-.163-.028.305-.055.614-.071.924v.056c.059.428.115.852.166,1.28a42.515,42.515,0,0,1,.321,5.359,55.058,55.058,0,0,1-.587,6.6,77.923,77.923,0,0,1-1.649,9.259c-.365,1.439-.809,2.846-1.316,4.245-.269.749-.543,1.5-.789,2.259-.036.115-.071.234-.1.353a.882.882,0,0,0,.622.182c.424-.044.852-.139,1.272-.163.388-.02.785,0,1.173,0,.816,0,1.633-.032,2.446-.016q2.4.042,4.792.087c.817.012,1.629.028,2.446.044a7.15,7.15,0,0,0,1.3-.052c.935-.868,1.673-1.934,2.529-2.882a.685.685,0,0,1,1.066.139,11.159,11.159,0,0,1,1.118,3.032c.055.008.111.012.166.02a.085.085,0,0,1,0-.032c.051.02.1.032.154.048.967.119,1.934.218,2.905.305.8.044,1.589.091,2.386.135,1.938.111,3.881.143,5.823.186,1.229.024,2.461.04,3.694.059.686-.04,1.375-.1,2.061-.17,1.185-.131,2.362-.3,3.548-.432a3.91,3.91,0,0,0,.464-.079l.19-.048a.215.215,0,0,0,.071-.04l.008-.008a.015.015,0,0,0,.012,0h0c.032-.056.059-.107.087-.159a.042.042,0,0,1,.012-.02c0-.008.008-.02.012-.04.028-.075.052-.151.075-.226.048-.151.087-.305.127-.456.139-.519.277-1.038.412-1.562.349-1.336.654-2.683.927-4.039a70.39,70.39,0,0,0,1.062-7.884c.234-2.759.456-5.518.579-8.284s.182-5.545.222-8.32c.04-2.8.111-5.617-.055-8.411-.059-1.007-.159-2.01-.266-3.012h0c-.2-.88-.349-1.772-.5-2.66-.515-3.064-1.019-6.132-1.542-9.2-.262-1.522-.511-3.048-.809-4.566-.155-.8-.305-1.6-.468-2.394a11.634,11.634,0,0,1-.281-1.823c-.016-.04-.028-.083-.044-.123l.044.02c0-.111-.012-.218,0-.329a.277.277,0,0,1,.511-.139,5.229,5.229,0,0,1,.5.872,6.6,6.6,0,0,0,6.647-2.39,7.5,7.5,0,0,0,1.748-4.241,9.948,9.948,0,0,0-.987-4.9,14.051,14.051,0,0,0-1.7-2.786,13.621,13.621,0,0,0,11.336-7.488,14.068,14.068,0,0,0,1.225-8.328Zm-64.031,55.231a13.649,13.649,0,0,1-5.05,3.591,15.246,15.246,0,0,1-3.464.888l-.016-.1a14.111,14.111,0,0,0,2.933-1.447c1.007-.567,1.994-1.157,2.969-1.768.939-.587,1.922-1.149,2.8-1.819.361-.274.713-.547,1.07-.817-.4.5-.813,1-1.245,1.471Z" transform="translate(-764.958 -276.611)" fill="#fff"/><path id="Trazado_4889" data-name="Trazado 4889" d="M982.569,398.89a.2.2,0,0,1-.079.044l-.059.024A.908.908,0,0,1,982.569,398.89Z" transform="translate(-896.227 -350.421)" fill="#fff"/><path id="Trazado_4890" data-name="Trazado 4890" d="M983.9,398.16a.152.152,0,0,1-.048.048A.482.482,0,0,0,983.9,398.16Z" transform="translate(-897.085 -349.981)" fill="#fff"/><path id="Trazado_4891" data-name="Trazado 4891" d="M977.138,399.27s-.032-.012-.048-.02l.016,0,.02.008S977.134,399.266,977.138,399.27Z" transform="translate(-893.004 -350.639)" fill="#fff"/><path id="Trazado_4892" data-name="Trazado 4892" d="M877.328,340.43a22.587,22.587,0,0,0-1.3,2.771c-.408.967-.793,1.942-1.209,2.9-.424.975-.769,1.978-1.142,2.973s-.852,1.934-1.225,2.925c-.713,1.911-1.407,3.829-2.041,5.767a37.26,37.26,0,0,0-1.344,5.759c-.63,3.912-1.13,7.813-.4,11.753a31.888,31.888,0,0,0,2.37,7.067c2.037,4.566,5.189,9.208,9.917,11.281a12.084,12.084,0,0,0,8.879.373c3.353-1.169,5.962-3.54,8.312-6.116a63.411,63.411,0,0,0,6.564-8.471,55.6,55.6,0,0,0,4.883-9.58c.329-.828.642-1.669.935-2.513a1.166,1.166,0,0,0-.809-1.423,1.181,1.181,0,0,0-1.423.809,62.838,62.838,0,0,1-4.158,9.267,57.593,57.593,0,0,1-5.589,8.534c-1.062,1.332-2.2,2.608-3.381,3.833a16.191,16.191,0,0,1-3.742,2.985,9.849,9.849,0,0,1-4.427,1.375,11.619,11.619,0,0,1-3.877-.507,13.287,13.287,0,0,1-5.783-3.8,25.138,25.138,0,0,1-3.972-5.906,34.394,34.394,0,0,1-2.239-5.66,22.85,22.85,0,0,1-.357-10.805,50.446,50.446,0,0,1,1.629-5.561c.559-1.823,1.15-3.635,1.7-5.458.293-.967.607-1.942.856-2.925.242-.955.44-1.914.721-2.858.583-1.942,1.126-3.908,1.566-5.886.1-.452.206-.892.341-1.332a7.614,7.614,0,0,0,.23-1.435c.032-.273-.373-.345-.5-.135h0Z" transform="translate(-827.343 -315.062)" fill="#010d3d"/><path id="Trazado_4893" data-name="Trazado 4893" d="M970.227,383.5a2.185,2.185,0,0,0,.864-.583,6.321,6.321,0,0,1,1.019-.694,5.218,5.218,0,0,1,2.045-.6,1.876,1.876,0,0,1,1.8.5,2.159,2.159,0,0,1,.317.666,4.2,4.2,0,0,1,.111.491c-.036-.19,0,.04.008.091a2.161,2.161,0,0,1,0,.392c.032-.329-.04.345-.052.456s-.024.23-.036.341c0,.059-.04.254,0-.008a7.078,7.078,0,0,1-.27,1.1c-.024.071-.052.143-.079.214-.123.349.139-.238-.04.083-.071.131-.135.266-.214.4-.048.083-.377.531-.155.262a5.267,5.267,0,0,1-.373.416c-.079.079-.167.151-.25.226-.17.159.04-.016.036-.028.008.048-.412.262-.444.277a1.159,1.159,0,0,0-.186.091c.127-.127.246-.1.083-.036a6.057,6.057,0,0,1-.591.194c-.044.012-.408.075-.408.083l.206-.028c-.067.008-.139.012-.206.016s-.139,0-.206.008-.5-.052-.515-.028c.016-.024.4.079.111.008-.1-.024-.2-.044-.3-.067-.067-.02-.131-.036-.194-.059-.357-.119,0-.008,0,.008,0,0-.317-.166-.357-.19a3.273,3.273,0,0,0-1.312-.587,1.373,1.373,0,0,0-1.53,1,1.938,1.938,0,0,0,.694,1.879,5.452,5.452,0,0,0,4.9.939,5.755,5.755,0,0,0,3.694-3.488,6.387,6.387,0,0,0,.032-4.757,3.707,3.707,0,0,0-1.7-2.14,4.516,4.516,0,0,0-2.878-.135,6.961,6.961,0,0,0-2.4,1.114,6.488,6.488,0,0,0-1,.86,1.578,1.578,0,0,0-.563,1.05.274.274,0,0,0,.345.262h0Z" transform="translate(-888.159 -339.046)" fill="#010d3d"/><path id="Trazado_4894" data-name="Trazado 4894" d="M928.983,468.668a6.675,6.675,0,0,0,.527,2.6c.289.86.61,1.708.955,2.549a50.576,50.576,0,0,0,2.351,4.986c.579,1.066,2.192.119,1.625-.951-.836-1.578-1.653-3.175-2.406-4.8-.369-.793-.729-1.593-1.086-2.394a7.938,7.938,0,0,0-1.268-2.283.413.413,0,0,0-.7.289h0Z" transform="translate(-863.959 -392.295)" fill="#010d3d"/><path id="Trazado_4895" data-name="Trazado 4895" d="M875.317,503.395c-.745.943-1.411,1.978-2.069,2.985s-1.264,1.994-1.883,3c-1.268,2.057-2.414,4.206-3.627,6.294s-2.458,4.174-3.658,6.275-2.565,4.106-3.817,6.18-2.632,4.071-4.015,6.049a51.678,51.678,0,0,1-4.091,5.4,13.563,13.563,0,0,1-5.05,3.587,16.989,16.989,0,0,1-6.124,1.078c-5.268.008-10.3-2.014-15.122-3.916a.885.885,0,0,0-1.082.614.9.9,0,0,0,.614,1.082c4.523,1.788,9.132,3.583,14.044,3.853a17.433,17.433,0,0,0,12.26-3.666,27.532,27.532,0,0,0,4.427-5.137q2.14-2.973,4.214-6c1.4-2.021,2.794-4.035,4.134-6.1,1.352-2.085,2.751-4.142,4.023-6.279q2.146-3.6,4.13-7.3c.65-1.209,1.185-2.469,1.752-3.722.281-.622.515-1.257.757-1.895.262-.69.559-1.348.761-2.061.087-.309-.353-.614-.575-.333h0Z" transform="translate(-801.045 -413.433)" fill="#010d3d"/><path id="Trazado_4896" data-name="Trazado 4896" d="M798.956,591.185c-1.732-2.307-4.467-3.151-7.17-3.73-1.53-.329-3.318-.571-4.535.658a2.392,2.392,0,0,0,.186,3.682,18.333,18.333,0,0,0,2.315,1.372c.888.511,1.764,1.062,2.691,1.5l.17-1.3c-1.815.388-3.718.515-5.561.749a18.849,18.849,0,0,0-4.435.777,4.167,4.167,0,0,0-1.562.963c-.381.4-.9,1.169-.622,1.736.65,1.328,2.675,1.13,3.877,1.169l6.39.206-.444-1.07a6.531,6.531,0,0,1-3.833,1.677,10.479,10.479,0,0,0-3.884,1.316c-.9.6-2.616,2.469-1.237,3.44a4.47,4.47,0,0,0,2.331.48,11.319,11.319,0,0,0,2.557-.238,29.252,29.252,0,0,0,5.652-2.01l-.813-1.054q-2.081,1.807-4.166,3.607c-.828.717-2.366,2.235-1.181,3.357.622.591,1.443.333,2.148.067a22.6,22.6,0,0,0,2.2-.963A22,22,0,0,0,794.1,604.9l-.963-.963a12.3,12.3,0,0,0-2.43,4.356.7.7,0,0,0,.848.848,9.642,9.642,0,0,0,5-3.219,28.9,28.9,0,0,0,3.464-5.22c.468-.864-.86-1.641-1.32-.769-1.689,3.2-3.674,6.976-7.515,7.88l.848.848A10.61,10.61,0,0,1,794.1,604.9a.681.681,0,0,0-.963-.963,19.842,19.842,0,0,1-3.115,2.1q-.827.452-1.693.828c-.313.135-.63.258-.947.377-.115.044-.682.3-.765.218.1.1.079-.079.123-.178a1.917,1.917,0,0,1,.38-.543c.472-.488,1.027-.912,1.538-1.36l3.326-2.921c.611-.535-.166-1.359-.813-1.054a22.813,22.813,0,0,1-5.5,1.946,8.834,8.834,0,0,1-2.834.087c-.167-.024-.507-.17-.662-.131-.119-.071-.139-.04-.055.091a.977.977,0,0,1,.1-.254,2.543,2.543,0,0,1,.6-.817c1.086-1.027,2.7-1.264,4.1-1.554a7.411,7.411,0,0,0,4.233-1.99.635.635,0,0,0-.444-1.07l-5.212-.166c-.84-.028-1.681-.044-2.525-.083-.488-.02-1.165-.036-1.447-.5l.063.484c.4-1.593,2.7-1.7,4.011-1.859l3.508-.416c1.229-.147,2.466-.357,3.7-.4a.72.72,0,0,0,.361-1.328c-1.423-1.023-3.028-1.784-4.459-2.794-.44-.309-.7-.67-.337-1.153a1.892,1.892,0,0,1,1.788-.535,24.554,24.554,0,0,1,4.3.924,7.319,7.319,0,0,1,3.6,2.01c.436.472,1.312-.17.912-.7h0Z" transform="translate(-774.251 -464.083)" fill="#010d3d"/><path id="Trazado_4897" data-name="Trazado 4897" d="M825.686,618.4c.254.563.856.729,1.411.916.642.214,1.288.4,1.946.567q1.921.476,3.861.856c2.6.507,5.212.947,7.836,1.272.9.111,1.13-1.478.218-1.605-2.584-.357-5.165-.737-7.729-1.213q-1.9-.351-3.8-.721c-.638-.123-1.272-.23-1.911-.325s-1.284-.266-1.8.139a.094.094,0,0,0-.032.119h0Z" transform="translate(-801.607 -482.701)" fill="#010d3d"/><path id="Trazado_4898" data-name="Trazado 4898" d="M863.979,607.2c-.69.123-.658,1.249-.713,1.776-.087.844-.139,1.693-.19,2.537-.107,1.689-.242,3.381-.317,5.074a.882.882,0,0,0,.63.828,9.434,9.434,0,0,0,7.246.159.648.648,0,0,0,.333-.579v-.048l-.155.361.1-.107a.436.436,0,0,0-.19-.721l-.135-.028.305.234-.016-.036a.648.648,0,0,0-.579-.333,11.515,11.515,0,0,1-6.247-.476l.424.741c.071-1.57.1-3.139.139-4.709q.036-1.177.048-2.354c0-.361.008-.725-.012-1.086a3.434,3.434,0,0,0-.06-.884.52.52,0,0,0-.614-.349h0Z" transform="translate(-823.99 -476.157)" fill="#010d3d"/><path id="Trazado_4899" data-name="Trazado 4899" d="M882.014,607.358a10.207,10.207,0,0,0-.052,2.029c.024.721.036,1.443.04,2.16,0,1.443-.016,2.886-.135,4.325-.04.484.765.5.765,0,0-1.443.024-2.882-.008-4.325-.016-.721-.04-1.443-.075-2.16a8.283,8.283,0,0,0-.261-2.029c-.036-.123-.246-.143-.27,0h0Z" transform="translate(-835.525 -476.197)" fill="#010d3d"/><path id="Trazado_4900" data-name="Trazado 4900" d="M879.59,577.542a18.556,18.556,0,0,0,4.606-1.764,46.608,46.608,0,0,0,4.225-2.39,54.275,54.275,0,0,0,7.745-6.065,54.406,54.406,0,0,0,13.6-20.869c.317-.876.606-1.764.872-2.656.127-.424.258-.848.361-1.276a1.808,1.808,0,0,0-.111-1.371.369.369,0,0,0-.5-.131,1.621,1.621,0,0,0-.67.844c-.139.392-.238.8-.357,1.2q-.345,1.165-.745,2.311c-.511,1.467-1.094,2.913-1.744,4.324a50.869,50.869,0,0,1-4.844,8.324,54.881,54.881,0,0,1-13.445,13.318c-1.475,1.015-2.989,1.978-4.55,2.85-1.578.88-3.234,1.637-4.753,2.62a.4.4,0,0,0,.309.733h0Z" transform="translate(-833.846 -436.183)" fill="#010d3d"/><path id="Trazado_4901" data-name="Trazado 4901" d="M952.366,482.813a29.075,29.075,0,0,1,3.6,1.344c1.137.567,2.275,1.1,3.361,1.76a25.316,25.316,0,0,1,5.518,4.61,37.2,37.2,0,0,1,7.4,13.766c3.6,11.138,4.094,22.958,3.591,34.568-.143,3.294-.369,6.588-.634,9.874q-.2,2.42-.412,4.836a22.763,22.763,0,0,0-.155,5.006.631.631,0,0,0,1.233.166,20.829,20.829,0,0,0,.769-4.614c.147-1.486.293-2.973.428-4.459.273-2.977.523-5.958.706-8.942a135.211,135.211,0,0,0,.059-18.011,80.509,80.509,0,0,0-3.179-17.766,40.145,40.145,0,0,0-7.579-14.7,27.924,27.924,0,0,0-6.37-5.446,19.266,19.266,0,0,0-8.2-3c-.6-.056-.65.828-.135,1h0Z" transform="translate(-877.868 -400.47)" fill="#010d3d"/><path id="Trazado_4902" data-name="Trazado 4902" d="M910.472,607.082c-.266,2.073-.3,4.158-.444,6.243q-.22,3.2-.543,6.385a118.118,118.118,0,0,1-1.99,12.688c-.492,2.311-1.173,4.59-1.609,6.913a.817.817,0,0,0,.781,1.023c3.373-.242,6.8-.289,10.187-.3.42,0,.84,0,1.26,0a3.9,3.9,0,0,0,1.03-.04,5.618,5.618,0,0,0,1.427-.868,5.533,5.533,0,0,0,1.459-1.423l1.665-2.152-.991-.262q.44,2.289.892,4.574c.151.769,1.328.444,1.173-.325q-.458-2.283-.92-4.566c-.115-.559-.809-.507-1.086-.143l-1.466,1.934c-.242.317-.468.662-.737.951a3.988,3.988,0,0,1-.658.488c-.4.281-.781.709-1.3.7-.809-.016-1.613-.036-2.422-.036a80.964,80.964,0,0,1-9.513-.159l.781,1.023a40.208,40.208,0,0,0,1.629-6.164q.678-3.187,1.169-6.409a108.919,108.919,0,0,0,1.2-13.041,38.734,38.734,0,0,0-.266-7.143c-.067-.436-.658-.266-.7.1h0Z" transform="translate(-850.014 -475.87)" fill="#010d3d"/><path id="Trazado_4903" data-name="Trazado 4903" d="M951.177,677.742a11.924,11.924,0,0,0,3.12.369c1.054.071,2.113.155,3.167.242,2.172.178,4.356.305,6.532.428s4.257.222,6.39.254a4.561,4.561,0,0,0,1.355-.055,2.114,2.114,0,0,0,1.007-.829c.2-.269.369-.559.563-.832a1.692,1.692,0,0,1,.174-.182,2.867,2.867,0,0,0,.531-.646,7.562,7.562,0,0,0,.555-1.677l.523-1.9c.167-.6.329-1.2.492-1.8a5.645,5.645,0,0,0,.186-.995,1.556,1.556,0,0,0-.341-.947.505.505,0,0,0-.682-.178,2.693,2.693,0,0,0-.567.333,1.955,1.955,0,0,0-.353.729,15.737,15.737,0,0,0-.511,1.76c-.277,1.047-.551,2.093-.832,3.139a1.457,1.457,0,0,1-.416.82,4.362,4.362,0,0,0-.638.848c-.087.135-.166.277-.266.4a2.028,2.028,0,0,1-.131.163c-.04-.048.5-.036.214-.079a2.511,2.511,0,0,0-.345,0h-.785c-4.071-.008-8.134-.266-12.2-.412-1.146-.044-2.295-.06-3.444-.079a11.19,11.19,0,0,0-3.3.155.5.5,0,0,0,0,.959h0Z" transform="translate(-877.148 -513.42)" fill="#010d3d"/><path id="Trazado_4904" data-name="Trazado 4904" d="M861.311,484.974a13.063,13.063,0,0,0-1.348.321,6.914,6.914,0,0,0-1.344.682,8.9,8.9,0,0,0-2.037,1.712,17.625,17.625,0,0,0-2.814,4.681c-.789,1.835-1.427,3.726-2.109,5.6a57.107,57.107,0,0,1-6.374,12.541,54.756,54.756,0,0,1-4.34,5.751c-3.115,3.508-6.833,6.782-11.705,7.238-5.743.543-11.293-2.085-16.311-4.542-.8-.388-1.5.8-.7,1.193,4.614,2.247,9.541,4.57,14.761,4.737a15.641,15.641,0,0,0,7.147-1.447,20.786,20.786,0,0,0,5.7-4.075,55.8,55.8,0,0,0,9.017-11.547,57.9,57.9,0,0,0,3.393-6.806c.789-1.879,1.447-3.809,2.164-5.72a25.185,25.185,0,0,1,2.731-5.6,12.453,12.453,0,0,1,1.922-2.137,7.876,7.876,0,0,1,1.15-.856,13.256,13.256,0,0,1,1.459-.872c.5-.226.131-.963-.361-.856h0Z" transform="translate(-793.278 -402.377)" fill="#010d3d"/><path id="Trazado_4905" data-name="Trazado 4905" d="M852.059,585c-.3.079-.384.353-.424.63-.055.385-.115.769-.159,1.157-.079.745-.147,1.49-.222,2.232s-.127,1.49-.186,2.232l-.091,1.118c-.032.412-.123.832.222,1.138a.492.492,0,0,0,.579.075c.4-.258.4-.614.424-1.05l.071-1.118c.051-.824.111-1.649.147-2.473.036-.8.091-1.594.1-2.394,0-.281.17-1.712-.464-1.546h0Z" transform="translate(-816.858 -462.753)" fill="#010d3d"/><path id="Trazado_4906" data-name="Trazado 4906" d="M868.1,579.75c-.024,1.74.052,3.476.186,5.212q.1,1.255.226,2.5c.044.408.1.817.174,1.221a3.916,3.916,0,0,0,.3,1.134.1.1,0,0,0,.186-.024,4.186,4.186,0,0,0,.008-1.177c-.02-.384-.056-.769-.1-1.153-.1-.864-.19-1.732-.269-2.6-.155-1.7-.285-3.409-.428-5.113a.141.141,0,0,0-.281,0h0Z" transform="translate(-827.215 -459.513)" fill="#010d3d"/><path id="Trazado_4907" data-name="Trazado 4907" d="M871.7,594.263a14.11,14.11,0,0,0,2.933-1.447c1-.563,1.99-1.157,2.969-1.768.939-.587,1.922-1.15,2.8-1.819.456-.345.9-.7,1.36-1.035a4.311,4.311,0,0,0,1.173-1.078.333.333,0,0,0-.373-.484,4.642,4.642,0,0,0-1.379.757c-.468.321-.943.595-1.423.888-.955.579-1.859,1.26-2.8,1.863-.916.591-1.843,1.161-2.775,1.732a19.476,19.476,0,0,0-2.822,1.819.347.347,0,0,0,.333.575h0Z" transform="translate(-829.127 -463.741)" fill="#010d3d"/><path id="Trazado_4908" data-name="Trazado 4908" d="M911.212,531.627a27.211,27.211,0,0,1-2.842,8.966,17.847,17.847,0,0,0-1.665,4.039,6.552,6.552,0,0,0-.163,2.061c.083.813.238,1.59,1.074,1.9a.505.505,0,0,0,.61-.349c.258-.682-.143-1.379-.155-2.085a6.226,6.226,0,0,1,.277-1.827,29,29,0,0,1,1.633-3.944,20.283,20.283,0,0,0,1.482-4.237,24.769,24.769,0,0,0,.5-4.523c.008-.5-.7-.468-.753,0h0Z" transform="translate(-850.406 -430.326)" fill="#010d3d"/><path id="Trazado_4909" data-name="Trazado 4909" d="M938.245,471.089a24.18,24.18,0,0,0-.3,8.641.558.558,0,0,0,1.011.131c.666-1.467,1.288-2.949,1.9-4.435s1.09-3.02,1.748-4.471c.63-1.4,1.439-2.965,1.213-4.539a11.8,11.8,0,0,0-.634-2.228c-.27-.773-.539-1.55-.812-2.323q-.951-2.693-1.911-5.383c-.38-1.078-2.117-.6-1.72.476q1.052,2.872,2.1,5.74c.361.971.741,1.938,1.082,2.921a4.244,4.244,0,0,1,.186,2.584,56.744,56.744,0,0,1-1.784,5.6c-.714,1.859-1.494,3.69-2.323,5.5l1.011.131a25.021,25.021,0,0,1,.067-8.118c.1-.543-.721-.781-.836-.23h0Z" transform="translate(-869.221 -384.818)" fill="#010d3d"/><path id="Trazado_4910" data-name="Trazado 4910" d="M939.619,495.477a1.676,1.676,0,0,0,1.47,1.153c.646.075,1.637-.028,2-.65.1-.174.143-.353.258-.519.091-.131.2-.25.285-.392.19-.317.349-.658.531-.979.337-.591.666-1.193.951-1.815a25.539,25.539,0,0,0,1.447-4.075,8,8,0,0,0,.48-4.039.118.118,0,0,0-.214-.028,13.226,13.226,0,0,0-.9,3.3A24.684,24.684,0,0,1,944.76,491a8.892,8.892,0,0,1-1.831,3.123,1.833,1.833,0,0,1-.595.42,3.073,3.073,0,0,0-.551.127c-.127.063-.238.155-.369.214a1.987,1.987,0,0,1-1.268.067.433.433,0,0,0-.527.527h0Z" transform="translate(-870.374 -401.841)" fill="#010d3d"/><path id="Trazado_4911" data-name="Trazado 4911" d="M930.639,496.483a18.233,18.233,0,0,1-2.339,1.264,10.99,10.99,0,0,1-2.553.7l.793.606a42.52,42.52,0,0,1,2.283-10.036c.273-.749-.92-1.07-1.193-.329a38.3,38.3,0,0,0-2.343,10.365.635.635,0,0,0,.793.607,7.814,7.814,0,0,0,4.963-2.767c.182-.25-.167-.547-.408-.408h0Z" transform="translate(-861.734 -404.373)" fill="#010d3d"/><path id="Trazado_4912" data-name="Trazado 4912" d="M784.723,559.211a19.562,19.562,0,0,0-6.322-6.354c-1.043-.658-2.481-1.641-3.785-1.2a1.676,1.676,0,0,0-1.138,1.566,2.279,2.279,0,0,0,.916,1.621,18.754,18.754,0,0,1,1.764,1.387,3.757,3.757,0,0,1,.927,2.077l.892-.892a29.429,29.429,0,0,0-7.65-.182c-1.728.19-4.289.452-4.792,2.505a.728.728,0,0,0,.329.809,19.723,19.723,0,0,0,8.328,1.657l-.345-1.272c-1.435.975-3.207.971-4.844,1.356a5.7,5.7,0,0,0-3.643,2.236c-.416.662-.694,1.657.1,2.172.674.436,1.617.151,2.343.052,2.045-.273,4.087-.531,6.136-.769l-.5-1.213c-1.157.9-2.3,1.823-3.448,2.735-.82.654-2.144,1.788-1.383,2.965a1.556,1.556,0,0,0,1.546.6,17.992,17.992,0,0,0,2.061-.329,20.576,20.576,0,0,0,4.043-1.308l-.777-1.332c-.932.7-1.875,1.372-2.787,2.1a1.54,1.54,0,0,0-.21,2.454c.864.769,1.97.388,2.87-.1.491-.262,1.007-.515,1.471-.824a12.264,12.264,0,0,0,1.336-1.09c.341-.305-.024-.832-.428-.733a9.9,9.9,0,0,0-2.109.7l-1.011.5a2.708,2.708,0,0,1-.919.365.123.123,0,0,1-.1-.024c-.055-.063-.063-.059-.032.008a.138.138,0,0,1-.012.163,1.579,1.579,0,0,1,.147-.139c.266-.234.563-.44.844-.658.634-.492,1.249-1.007,1.879-1.51a.759.759,0,0,0,.06-1.011.781.781,0,0,0-.995-.2,17.631,17.631,0,0,1-2.949,1.082,14.51,14.51,0,0,1-1.589.337c-.262.044-.527.083-.793.107a1.285,1.285,0,0,0-.277.02c-.091.032-.063-.036-.044.067-.028-.159.432-.579.583-.709.436-.369.9-.717,1.344-1.078.9-.717,1.8-1.427,2.683-2.156a.713.713,0,0,0,.111-.86.743.743,0,0,0-.8-.325c-1.661.246-3.322.487-4.99.706a18.409,18.409,0,0,1-2.366.3.6.6,0,0,1-.206-.016c.083.135.131.131.143-.016.083-.075.131-.262.194-.357a2.715,2.715,0,0,1,.555-.61,7.057,7.057,0,0,1,3.413-1.209,9.8,9.8,0,0,0,4.047-1.268.689.689,0,0,0-.345-1.272,17.518,17.518,0,0,1-7.607-1.53l.329.809a1.782,1.782,0,0,1,1.383-1.1,13.808,13.808,0,0,1,2.79-.428,27.87,27.87,0,0,1,6.5.214.741.741,0,0,0,.892-.892,5.507,5.507,0,0,0-2.414-3.726c-.131-.1-1.153-.825-.975-1.011.25-.262,1.149.277,1.371.4a24.435,24.435,0,0,1,7.507,6.2c.345.424,1.027-.123.749-.579h0Z" transform="translate(-764.954 -442.57)" fill="#010d3d"/><path id="Trazado_4913" data-name="Trazado 4913" d="M794.841,570.15a5.368,5.368,0,0,0-1.038,3.472,6.1,6.1,0,0,0,.4,1.8,4.232,4.232,0,0,0,.432.856,1.359,1.359,0,0,0,.717.555.284.284,0,0,0,.353-.269,1.739,1.739,0,0,0-.214-.733c-.123-.246-.262-.48-.365-.729a5.177,5.177,0,0,1-.369-1.526,5.552,5.552,0,0,1,.579-3.139.285.285,0,0,0-.491-.289h0Z" transform="translate(-782.36 -453.719)" fill="#010d3d"/><path id="Trazado_4914" data-name="Trazado 4914" d="M889.342,335.746c.115-.222.266-.4.4-.618.424-.7-.7-1.352-1.09-.638a5.374,5.374,0,0,0,3.809,7.694,7.266,7.266,0,0,0,5.137-1.264,24.435,24.435,0,0,0,4.313-3.532l-1.732-.456c.23,1.53.424,3.092.761,4.6a6.168,6.168,0,0,0,1.911,3.516c2.295,1.863,5.577,1.066,7.559-.852a7.45,7.45,0,0,0,2.263-4.15c.063-.5-.666-.753-.983-.408a18.727,18.727,0,0,0-1.371,1.918,9.154,9.154,0,0,1-1.419,1.562,4.3,4.3,0,0,1-3.6,1.066,3.259,3.259,0,0,1-2.378-2.652,37.367,37.367,0,0,1-.7-4.879,1.051,1.051,0,0,0-1.768-.733,22.882,22.882,0,0,1-3.433,2.8,6.6,6.6,0,0,1-3.754,1.451,3.989,3.989,0,0,1-2.862-1.506,4.123,4.123,0,0,1-.595-3.69l-1.154.151c.083.19.19.361.262.559a.239.239,0,0,0,.432.055h0Z" transform="translate(-839.257 -311.362)" fill="#010d3d"/><path id="Trazado_4915" data-name="Trazado 4915" d="M948.48,348.318a12.987,12.987,0,0,0-.706,2.3,18.139,18.139,0,0,0-.262,2.315,21,21,0,0,0,.341,4.856,7.457,7.457,0,0,0,1.4,3.575,3,3,0,0,0,3.722.654,16.44,16.44,0,0,0,4.2-3.064l-1.685-1.3a17.765,17.765,0,0,0-1.051,2.846,9.162,9.162,0,0,0-.428,2.751,2.371,2.371,0,0,0,1.447,2.263,1.625,1.625,0,0,0,2-.856c.234-.5-.309-1.3-.872-.872a.11.11,0,0,1-.127.063h.392a.658.658,0,0,1-.365-.139c-.024-.016-.214-.166-.178-.123.067.083-.051-.091-.055-.1a3.715,3.715,0,0,1,.059-1.237,14.7,14.7,0,0,1,1.038-3.516,1.087,1.087,0,0,0-.277-1.383,1.074,1.074,0,0,0-1.407.083A18.855,18.855,0,0,1,953.886,359a8.989,8.989,0,0,1-2.01,1.3c-1.062.42-1.689-.721-2-1.661a18.419,18.419,0,0,1-.8-4.955c-.04-.868-.016-1.732.028-2.6s.075-1.78.167-2.656c.047-.476-.63-.492-.777-.107h0Z" transform="translate(-875.135 -319.731)" fill="#010d3d"/><path id="Trazado_4916" data-name="Trazado 4916" d="M876.929,307.4a7.215,7.215,0,0,0,.452-.955,3.848,3.848,0,0,0-.341-1.748c-.293-1.031-.614-2.053-.848-3.1a14.792,14.792,0,0,1-.333-5.64c.488-2.9,2.3-5.934,5.466-6.231a4.317,4.317,0,0,1,4.007,1.57,1.059,1.059,0,0,0,1.4.083,1.073,1.073,0,0,0,.273-1.375c-1.768-3.175.143-6.814,2.747-8.831a14.529,14.529,0,0,1,4.76-2.477,3.377,3.377,0,0,1,3.833,1.855c1.181,1.942,1.09,4.313,1.863,6.4a.957.957,0,0,0,1.038.678.937.937,0,0,0,.821-.927c-.357-3.552,3.9-5.712,6.6-6.933,1.851-.836,4.011-1.4,5.8-.131a6.329,6.329,0,0,1,2.4,4.253c.369,2.584-.527,5.181-1.324,7.6-.254.761.721,1.165,1.245.725,1.95-1.645,4.126-3.318,6.663-3.892a5.976,5.976,0,0,1,5.942,2.065,12.924,12.924,0,0,1,2.644,6.069,18.758,18.758,0,0,1,.02,7.083,21.1,21.1,0,0,1-3.112,7.527,1.072,1.072,0,1,0,1.851,1.082,20.617,20.617,0,0,0,3.314-15.685c-.88-4.844-4.241-10.524-9.921-9.9-3.286.357-6.061,2.477-8.455,4.6l1.245.725c.761-2.513,1.538-5.149,1.217-7.8a7.765,7.765,0,0,0-2.687-5.125,6.223,6.223,0,0,0-6.183-.717,21.465,21.465,0,0,0-5.743,3.06,7.961,7.961,0,0,0-3.409,5.407l1.859-.25c-.313-1.161-.579-2.327-.856-3.5a12.119,12.119,0,0,0-1.153-3.207,5.487,5.487,0,0,0-4.844-3.084,9.5,9.5,0,0,0-3.357,1.05,17.781,17.781,0,0,0-2.759,1.554,11.279,11.279,0,0,0-4.106,4.673,7.881,7.881,0,0,0,.2,7.151l1.677-1.292c-2.386-2.866-6.972-2.624-9.676-.4-3.219,2.652-3.813,7.19-3.191,11.067a28.466,28.466,0,0,0,.939,3.845c.206.666.44,1.316.69,1.966a1.229,1.229,0,0,0,.686.8c.21.1.408.23.61.345a.019.019,0,0,0,.024-.008h0Z" transform="translate(-830.63 -276.641)" fill="#010d3d"/><path id="Trazado_4917" data-name="Trazado 4917" d="M1009.408,364.171c.559.008,1.1.028,1.653.016a9.231,9.231,0,0,1,1.6.1,12.3,12.3,0,0,1,3.139.864,11.54,11.54,0,0,1,4.967,4.162,9.494,9.494,0,0,1,1.51,6.294,11.509,11.509,0,0,1-2.561,5.8,10.968,10.968,0,0,1-6.124,3.865,1.153,1.153,0,0,0-.507,1.914c3.841,3.044,8.217,6.453,9.672,11.356a11.579,11.579,0,0,1-4.642,12.835,11.347,11.347,0,0,1-7.749,1.827,1.11,1.11,0,0,0-1.07,1.839c1.811,1.914,3.508,4.265,3.639,7a5.169,5.169,0,0,1-.808,3.2,5.439,5.439,0,0,1-2.267,1.95s-.182.079-.087.04c.075-.032-.21.075-.21.075-.139.048-.277.087-.416.123a1.968,1.968,0,0,1-.71.1,3.224,3.224,0,0,1-1.435-.277,1.2,1.2,0,0,0-1.6.42,1.186,1.186,0,0,0,.42,1.6c2.644,1.451,5.882.254,7.705-1.958a7.541,7.541,0,0,0,1.748-4.237,9.964,9.964,0,0,0-.987-4.907,15.136,15.136,0,0,0-3.433-4.681l-.777,1.879a13.8,13.8,0,0,0,13.841-7.472,14.069,14.069,0,0,0,1.225-8.328,16.482,16.482,0,0,0-3.615-7.519,44.336,44.336,0,0,0-6.822-6.477l-.507,1.915A13.15,13.15,0,0,0,1024,376.665a11.745,11.745,0,0,0-1.348-7.452,12.9,12.9,0,0,0-5.343-5.062,11.944,11.944,0,0,0-4.063-1.276,10.424,10.424,0,0,0-1.99-.016,5.59,5.59,0,0,0-1.094.147,6.15,6.15,0,0,0-.955.44.392.392,0,0,0,.2.725h0Z" transform="translate(-909.998 -328.648)" fill="#010d3d"/><path id="Trazado_4918" data-name="Trazado 4918" d="M893.079,372.347a10.437,10.437,0,0,0-1.617,1.847c-.5.63-.983,1.268-1.467,1.907-1,1.316-2.065,2.592-3.024,3.94-1.914,2.7-3.674,5.5-5.688,8.118a.944.944,0,0,0,.147,1.138,8.928,8.928,0,0,0,4.507,2.68c1.36.361,1.942-1.784.579-2.1a9.394,9.394,0,0,1-3.758-1.907l.147,1.138a77.339,77.339,0,0,1,5.248-8.375c.927-1.36,1.776-2.771,2.715-4.118.472-.674.951-1.344,1.423-2.018a10.883,10.883,0,0,0,1.252-1.978c.123-.289-.281-.416-.468-.27h0Z" transform="translate(-835.09 -334.362)" fill="#010d3d"/><path id="Trazado_4919" data-name="Trazado 4919" d="M897.649,429.861a9.584,9.584,0,0,0,5.121-1.34,12.57,12.57,0,0,0,2.16-1.482c.622-.527,1.7-1.344,1.609-2.236-.036-.313-.266-.682-.638-.638a1.37,1.37,0,0,0-.67.194,2.864,2.864,0,0,0-.46.444c-.273.293-.555.579-.852.844a11.28,11.28,0,0,1-1.942,1.379,18.086,18.086,0,0,1-4.5,1.566.647.647,0,0,0,.17,1.264h0Z" transform="translate(-844.671 -365.676)" fill="#010d3d"/><path id="Trazado_4920" data-name="Trazado 4920" d="M888.053,375.654c-.19.234-.377.476-.547.725a5.023,5.023,0,0,0-.365.591,3.01,3.01,0,0,0-.46,2.03,1.027,1.027,0,0,0,.848.733,1.046,1.046,0,0,0,1.019-.488,2.31,2.31,0,0,0,.19-.428,1.949,1.949,0,0,0,.1-.48l-.04.289c.063-.468.206-.916.266-1.383l-.036.258a3.039,3.039,0,0,1,.151-.523c.028-.075.056-.155.083-.23.016-.048.036-.091.052-.135.055-.143-.071.17,0,.012a.85.85,0,0,0,.079-.614.867.867,0,0,0-.285-.416.793.793,0,0,0-1.05.063h0Z" transform="translate(-838.4 -336.258)" fill="#010d3d"/><path id="Trazado_4921" data-name="Trazado 4921" d="M926.462,383.151c-.028.024-.055.044-.083.067.107-.091.079-.067-.087.063a1.257,1.257,0,0,0-.19.238c-.024.032-.218.333-.21.337l.071-.087c-.06.075-.115.147-.171.222-.032.048-.055.1-.083.147-.063.115-.123.226-.178.345a4.3,4.3,0,0,0-.285.908,5.72,5.72,0,0,0-.107.634c-.008.056-.016.115-.02.17a1.316,1.316,0,0,0,.2.654l-.107-.254c.024.087.047.178.071.266a1,1,0,0,0,.947.721,1.027,1.027,0,0,0,.947-.721c.028-.087.055-.178.087-.266l-.107.254a1.526,1.526,0,0,0,.218-.8c0-.123,0-.25.008-.373.008-.238.047-.472.059-.71,0-.055.036-.69.024-.694q-.024.178-.012.083c0-.028.008-.055.012-.087.008-.055.02-.115.028-.17a1.648,1.648,0,0,0,.036-.309c-.032-.222-.036-.258-.016-.107a.875.875,0,0,0,0-.1.623.623,0,0,0-.38-.567.648.648,0,0,0-.678.127h0Z" transform="translate(-861.632 -340.811)" fill="#010d3d"/></g><g id="Grupo_3382" data-name="Grupo 3382" transform="translate(393.956 0)"><g id="Grupo_3379" data-name="Grupo 3379" transform="translate(11.934 166.716)"><path id="Trazado_4922" data-name="Trazado 4922" d="M1328,728.56c-.051.115-.024.159.008.151,0-.02,0-.071.008-.115A.155.155,0,0,1,1328,728.56Z" transform="translate(-1284.965 -708.718)" fill="#fff"/><path id="Trazado_4923" data-name="Trazado 4923" d="M1282.908,791.211q-6.659-12.48-13.322-24.96l-6.612-12.379a54.564,54.564,0,0,1-2.981-5.771,6.936,6.936,0,0,1,.214-5.593c.817-1.962,1.954-3.952,2.941-5.89q1.581-3.1,3.163-6.211,3.217-6.314,6.433-12.625c2.141-4.209,4.321-8.4,6.41-12.64.995-2.018,2.077-4.019,2.953-6.1.923-2.184,1.371-4.447.337-6.683A11.67,11.67,0,0,1,1281.3,690a.215.215,0,0,1-.008-.044q-.012-.143-.012-.285c0-.1,0-.21.012-.313,0-.008.012-.083.02-.127a9.339,9.339,0,0,1,.321-1.229c.547-1.74,1.209-3.694.1-5.375-1.086-1.653-3.223-2.477-5.022-3.092a20.282,20.282,0,0,0-5.415-1c-7.737-.4-15.181,3.219-20.739,8.391-5.894,5.49-10.028,12.553-14.107,19.411l-7.159,12.046c-2.394,4.023-4.737,8.086-7.21,12.058a15.418,15.418,0,0,0-2.509,5.954c-.329,2.378.262,4.768.725,7.1.932,4.63,1.907,9.252,2.894,13.873q1.469,6.867,2.937,13.742c.5,2.307,1.026,4.606,1.542,6.909s.995,4.618,1.593,6.9c.179.682.329,1.391.507,2.089a3.3,3.3,0,0,0,.5,2.973,6.34,6.34,0,0,0,.706.868c.063.214.131.432.2.646a1.023,1.023,0,0,0,1.451.515,4.966,4.966,0,0,0,.987.321,9.729,9.729,0,0,0,4.769-.464,21.151,21.151,0,0,1,4.626-1.11,1.448,1.448,0,0,0,1.407-1.411c.5-7.087-1.554-14.075-3.338-20.857-1.847-7.02-3.758-14.024-5.664-21.028q-.8-2.913-1.589-5.827c-.163-.6-.317-1.209-.488-1.808.178-.131.345-.281.5-.4a12.282,12.282,0,0,0,1.728-1.669,30.852,30.852,0,0,0,2.9-3.857,27.589,27.589,0,0,0,3.559-8.819c.194-.932.357-1.859.563-2.775.491-.725.983-1.443,1.467-2.172q4.893-7.361,9.719-14.765,2.485-3.817,4.939-7.658a12.381,12.381,0,0,0,3.128.642.95.95,0,0,0,.523-.115c.036.016.072.028.1.04.008,0,.012.008.024.016l0,0a.2.2,0,0,0,.016.052c0-.008,0-.012.008-.02a.152.152,0,0,1,.008.024v.036s0,.008,0,.008c.048.055.016.1-.012.107l0,0a6.83,6.83,0,0,1-.539,1.169q-.743,1.362-1.471,2.735-1.51,2.842-2.973,5.7-5.821,11.457-10.595,23.4c-.781,1.942-1.574,3.885-2.263,5.859a11.065,11.065,0,0,0-.5,6.358,26.325,26.325,0,0,0,2.6,5.874l3.1,5.886,18.772,35.619c.5.955,1,1.914,1.51,2.866a4.469,4.469,0,0,0,2.1,2.16,4.659,4.659,0,0,0,3.484-.3c1.015-.369,2.029-.733,3.044-1.1,1.046-.381,2.1-.757,3.147-1.138a1.642,1.642,0,0,0,.963-2.374Zm-9.469,1.891a.223.223,0,0,1,.036.024.052.052,0,0,1,.012.016A.273.273,0,0,1,1273.438,793.1Z" transform="translate(-1219.479 -678.503)" fill="#fff"/></g><path id="Trazado_4924" data-name="Trazado 4924" d="M1347.155,704.814c-.955,1.776-1.546,3.746-2.374,5.585-.856,1.9-1.593,3.849-2.382,5.775-1.522,3.718-3.139,7.4-4.891,11.011-1.772,3.659-3.686,7.246-5.664,10.8-1.007,1.807-2.041,3.6-3.068,5.4-.507.888-1,1.788-1.467,2.7a27.319,27.319,0,0,0-1.4,2.913,58.488,58.488,0,0,0-2.24,6.31,39.93,39.93,0,0,0-1.312,6.814c-.06.864,1.371,1.074,1.526.206.357-1.974.654-3.944,1.193-5.878a37.2,37.2,0,0,1,2.093-5.64,118.135,118.135,0,0,1,6.172-10.67,162.42,162.42,0,0,0,10.781-21.785c.864-2.113,1.708-4.245,2.382-6.429.333-1.074.642-2.16.955-3.242a24.143,24.143,0,0,0,.832-3.377c.087-.646-.777-1.169-1.146-.484h0Z" transform="translate(-1269.644 -527.476)" fill="#010d3d"/><path id="Trazado_4925" data-name="Trazado 4925" d="M1294.338,776.515c2.925,6.326,6.314,12.43,9.553,18.6q4.84,9.216,9.584,18.483c1.78,3.48,3.468,7.008,5.244,10.488l.388-1.479a50.151,50.151,0,0,1-5.264,2.374c-.892.345-1.788.674-2.7.979a8.072,8.072,0,0,1-2.489.646c-.741,0-1.13-.595-1.5-1.157-.555-.844-1.1-1.7-1.645-2.553q-1.6-2.521-3.143-5.074c-4.1-6.77-7.943-13.7-11.614-20.711q-2.765-5.28-5.422-10.619c-1.78-3.555-3.587-7.016-5.212-10.6a9.819,9.819,0,0,1-1.07-5.383,24.5,24.5,0,0,1,1.617-5.387c1.383-3.7,2.874-7.369,4.42-11.011,3.115-7.345,6.469-14.606,10.163-21.678.452-.868.912-1.732,1.371-2.6.579-1.086-1.082-2.057-1.649-.963-3.786,7.281-7.365,14.662-10.631,22.189q-2.479,5.714-4.741,11.515c-1.451,3.722-3.286,7.539-2.334,11.618a27.392,27.392,0,0,0,2.4,5.644q1.338,2.735,2.692,5.466,2.705,5.47,5.494,10.9c3.758,7.285,7.678,14.488,11.915,21.5q1.564,2.592,3.2,5.145.844,1.32,1.7,2.628a11.819,11.819,0,0,0,1.677,2.291c1.633,1.506,3.694.745,5.533.127,1.922-.642,3.809-1.383,5.664-2.2.892-.392,1.776-.809,2.66-1.225a1.107,1.107,0,0,0,.388-1.479c-1.439-3.147-3-6.243-4.527-9.351s-3.068-6.219-4.669-9.3q-4.81-9.245-9.913-18.336c-.947-1.685-1.994-3.318-3.009-4.963-.527-.852-.995-1.736-1.55-2.569s-1.122-1.661-1.688-2.489a.517.517,0,0,0-.892.523h0Z" transform="translate(-1242.271 -541.905)" fill="#010d3d"/><path id="Trazado_4926" data-name="Trazado 4926" d="M1320.159,727.644c-.036-.056-.079-.107-.111-.163l.052.194a.651.651,0,0,0-.147-.353c-.02-.028-.044-.051-.067-.079s-.067-.091-.016-.016a2.048,2.048,0,0,0-.353-.341l.135.234a1.175,1.175,0,0,0-.139-.293,1.219,1.219,0,0,0-.238-.21l-.032-.024c-.056-.04-.044-.032.032.024a1.772,1.772,0,0,1-.2-.155c-.075-.052-.151-.1-.226-.151a.364.364,0,0,0-.052-.032c.135.107.115.091-.067-.052-.036-.02-.075-.036-.111-.052a4.242,4.242,0,0,0-.658-.25c-.079-.02-.163-.04-.242-.055a1.853,1.853,0,0,0-.3-.044.957.957,0,0,0-.475.135.784.784,0,0,0-.159,1.221.947.947,0,0,0,.416.246,2.275,2.275,0,0,0,.341.044l-.214-.028c.151.02.305.052.456.079a2.908,2.908,0,0,0,.606.111l-.194-.028c.135.028.269.067.4.1.06.016.119.028.178.048a.893.893,0,0,0,.1.036l.162.024c.182-.02.218-.028.107-.02l-.266-.071c.135.059.262.131.4.19.063.028.075.032.04.016h0l.091.047a.624.624,0,0,0,.313.091l-.194-.052c.063.028.119.063.178.1.273.163.65-.174.456-.456h0Z" transform="translate(-1266.149 -540.353)" fill="#010d3d"/><path id="Trazado_4927" data-name="Trazado 4927" d="M1279.5,728.258c-3.742,5.422-7.186,11.047-10.567,16.7s-6.707,11.328-10.052,17c-.824,1.4-1.653,2.79-2.469,4.194a15.588,15.588,0,0,0-1.815,4.055,10.178,10.178,0,0,0,.127,4.772c.365,1.574.844,3.123,1.268,4.685q2.563,9.412,4.82,18.907,1.26,5.3,2.418,10.623.577,2.657,1.15,5.315c.381,1.772.706,3.556,1.173,5.3a1.13,1.13,0,0,0,1.371.777,1.145,1.145,0,0,0,.777-1.372c-.436-3.195-1.213-6.378-1.9-9.525q-1.023-4.655-2.125-9.291-2.224-9.394-4.756-18.709-.613-2.265-1.249-4.523a21.8,21.8,0,0,1-1.05-4.542c-.174-2.9,1.784-5.462,3.179-7.844,3.29-5.625,6.6-11.237,9.854-16.882,3.651-6.334,7.281-12.684,10.516-19.244a.386.386,0,0,0-.666-.388h0Z" transform="translate(-1228.607 -541.711)" fill="#010d3d"/><path id="Trazado_4928" data-name="Trazado 4928" d="M1243.261,884.123c-1.2.373-2.343.939-3.54,1.356a38.045,38.045,0,0,1-3.837,1.142,28.2,28.2,0,0,1-7.991.678l.991.753c-1.3-6.8-2.747-13.572-4.158-20.346s-2.834-13.584-4.372-20.346q-1.308-5.749-2.691-11.483c-.281-1.165-2.065-.674-1.8.5q2.331,10.149,4.578,20.322,2.247,10.155,4.257,20.354c.761,3.845,1.463,7.7,2.2,11.55a1.037,1.037,0,0,0,.991.753,28,28,0,0,0,8.514-.836,20.748,20.748,0,0,0,3.908-1.419,11.658,11.658,0,0,0,3.377-2.235.448.448,0,0,0-.432-.741h0Z" transform="translate(-1205.349 -606.379)" fill="#010d3d"/><path id="Trazado_4929" data-name="Trazado 4929" d="M1216.635,748.52a15.1,15.1,0,0,1-.206-3.219,13.48,13.48,0,0,1,.721-3.02,50.345,50.345,0,0,1,2.783-5.9c1.994-3.9,4.15-7.694,6.35-11.479a252.975,252.975,0,0,1,14.5-22.062q4.358-5.969,9.1-11.649a1.266,1.266,0,0,0,0-1.74,1.243,1.243,0,0,0-1.74,0,234.041,234.041,0,0,0-16.2,21.88,218.866,218.866,0,0,0-13.176,23.541,60.888,60.888,0,0,0-3.076,6.826,9.8,9.8,0,0,0-.654,3.69,8.979,8.979,0,0,0,.277,1.772,3.462,3.462,0,0,0,.836,1.566.289.289,0,0,0,.488-.2Z" transform="translate(-1204.855 -518.178)" fill="#010d3d"/><path id="Trazado_4930" data-name="Trazado 4930" d="M1234.044,963.622c-.8-2.422-10.718,1.93-12.633,2.481.178-.416-.353-.908-.832-.666a50.743,50.743,0,0,1-5.771,2.3c-3.841,1.605-11.614-.757-14.329,2.644-1.134,1.681-.155,3.936,1.585,5.149,3.968,2.4,10.916.92,15.062.543a19.057,19.057,0,0,0,8.09-3.159c1.034-.709,1.891-1.982,3.29-2.1,5.593,1.875,7.884-2.925,5.541-7.2Z" transform="translate(-1195.783 -683.451)" fill="#010d3d"/><path id="Trazado_4931" data-name="Trazado 4931" d="M1338.905,973.293c-4.915-3.508-11.4-1.451-14.809,2.2-3.936,2.24-8,4.356-12.807,4.836-3.924.083-11.574,2.7-6.366,7.488a12.152,12.152,0,0,0,7.892,2.909c4.848.024,9.224-1.8,13.473-3.456,2.168-.84,3.694-2.58,5.716-3.559,2.287-.067,4.74,1.5,6.909.27,4.475-1.879,4.233-8.039-.012-10.686Z" transform="translate(-1258.061 -688.636)" fill="#010d3d"/><path id="Trazado_4932" data-name="Trazado 4932" d="M1342.625,467.662a8.663,8.663,0,0,0-1.926-4.907,7.89,7.89,0,0,0-5.093-2.331,21.807,21.807,0,0,0-5.45-.02,12.16,12.16,0,0,0-4.9,1.459c-.1.059-.19.127-.285.194a.763.763,0,0,0-.725.056c-.5.289-.947.706-1.447,1.015a14.249,14.249,0,0,1-1.562.817,22.675,22.675,0,0,1-2.985.943,2.479,2.479,0,0,0-.281-.694,4.24,4.24,0,0,0-1.189-1.245,6.422,6.422,0,0,0-1.419-.71,5.266,5.266,0,0,0-1.855-.468c-2.858-.091-5.133,1.748-6.611,4.051a34.943,34.943,0,0,0-3.639,9.037c-1.031,3.508-1.815,7.079-2.644,10.639q-2.474,10.619-5.565,21.079t-6.687,20.754q-3.585,10.25-7.614,20.338-.506,1.272-1.023,2.553a1.184,1.184,0,0,0,.824,1.451q1.486.2,2.965.408c-.709,1.209-1.431,2.418-2.152,3.619a1.188,1.188,0,0,0,.7,1.728c9.763,3.139,20.1,1.316,30.14,1.776a43.251,43.251,0,0,1,8.32,1.114,1.217,1.217,0,0,0,1.34-.547,125.264,125.264,0,0,0,8.32-18.673,174.066,174.066,0,0,0,5.6-19.6c1.51-6.623,2.715-13.318,3.757-20.033.555-3.544,1.11-7.1,1.415-10.678a43.479,43.479,0,0,0-.008-7.4q.321-1.689.6-3.381c.377-2.275.7-4.562.924-6.857a26.226,26.226,0,0,0,.143-5.49Z" transform="translate(-1243.881 -380.039)" fill="#64d8cc"/><path id="Trazado_4933" data-name="Trazado 4933" d="M1342.858,495.167c-.25.69-.515,1.364-.733,2.065s-.444,1.391-.674,2.085q-.7,2.081-1.47,4.13c-.523,1.375-1.09,2.743-1.689,4.091q-.428.957-.88,1.9a3.251,3.251,0,0,0-.551,1.895.263.263,0,0,0,.38.155,3.212,3.212,0,0,0,1.185-1.669q.469-.987.907-1.994.886-2.028,1.617-4.114.725-2.063,1.276-4.182c.182-.706.349-1.419.5-2.133a19.915,19.915,0,0,0,.309-2.208c.012-.107-.143-.111-.174-.024h0Z" transform="translate(-1278.388 -401.083)" fill="#010d3d"/><path id="Trazado_4934" data-name="Trazado 4934" d="M1355.408,331.54a3.533,3.533,0,0,0-1.062-2.576,3.6,3.6,0,0,0-3.587-.408q-2.9.85-5.779,1.736c-.1-1.114-.234-2.228-.269-3.341-.056-1.792-.063-3.587-.044-5.383a.867.867,0,0,0-1.3-.745c-.163.107-.325.21-.488.317q-.838-1.492-1.669-2.989c-.587-1.058-1.237-2.085-1.871-3.123a1.025,1.025,0,0,0-2-.349,9.706,9.706,0,0,1-1.031,2.458c-.242.412-.7,1.332-1.257,1.379s-1.161-.852-1.471-1.217q-.886-1.04-1.712-2.129a58.93,58.93,0,0,1-5.823-9.462,1.009,1.009,0,0,0-1.827.238,48.88,48.88,0,0,1-1.593,5.165q-.47,1.32-1,2.612c-.055.127-.127.266-.194.4,0,0,0,0,0-.008-.939-1.506-1.788-3.064-2.572-4.653-.392-.8-.765-1.6-1.13-2.406a14.251,14.251,0,0,0-1.181-2.465.72.72,0,0,0-1.229,0c-.139.226-.273.456-.412.678a.618.618,0,0,0-.376.262c-1.9,2.7-3.54,5.549-5.181,8.407-1.483,2.588-2.953,5.185-4.325,7.832-2.723,5.264-5.22,10.821-6.33,16.672a27.3,27.3,0,0,0-.313,9.493,19.226,19.226,0,0,0,3.559,7.932,40.239,40.239,0,0,0,5.64,6.417,15.8,15.8,0,0,0,7.88,4.035,28.283,28.283,0,0,0,16.184-2.188c-.246.793-.468,1.593-.686,2.39-.392,1.427-.761,2.862-1.2,4.277a12.179,12.179,0,0,0-.4,1.475.69.69,0,0,0-.345.2c-.789.872.008,2.267.718,2.937a1.039,1.039,0,0,0,1.431,0c1.205-.959,2.446-1.926,3.579-2.969a3.992,3.992,0,0,0,1.039-1.907c.226-.749.456-1.494.682-2.243q1.368-4.483,2.723-8.966a1.026,1.026,0,0,0-.095-.864c.008-.008.012-.016.02-.024.274-.357.559-.7.836-1.054a14.73,14.73,0,0,0,1.566-2.4,36.281,36.281,0,0,0,2.216-5.189,33.9,33.9,0,0,0,1.768-9.473,10.4,10.4,0,0,0,7.9-3.773,7.9,7.9,0,0,0,2.026-5.014Z" transform="translate(-1254.998 -285.878)" fill="#fff"/><g id="Grupo_3381" data-name="Grupo 3381" transform="translate(0 96.852)"><path id="Trazado_4935" data-name="Trazado 4935" d="M1255.95,565.413c-.087-4.063-.151-8.13-.234-12.2-.162-7.979-.384-15.974-.947-23.937a156.6,156.6,0,0,0-3.21-23.477q-.327-1.439-.686-2.866a.945.945,0,0,0-.908-.69c-7.975.6-15.954,1.221-23.909,2.041a203.564,203.564,0,0,0-23.247,3.567,80.236,80.236,0,0,0-12.609,3.619.736.736,0,0,0-.23.02.851.851,0,0,0-.583,1.023c1.53,9.684,3.131,19.351,4.9,29s3.69,19.244,5.688,28.832q1.683,8.056,3.444,16.1a1.15,1.15,0,0,0,1.09.832A180.367,180.367,0,0,0,1230.67,586a47.989,47.989,0,0,0,6.647-1.2,37.264,37.264,0,0,0,9.858-2.228,36.779,36.779,0,0,0,4.626-2.228,23.919,23.919,0,0,0,2.093-1.387,5.122,5.122,0,0,0,1.688-1.784,6.2,6.2,0,0,0,.428-2.549c.048-1.011.087-2,.067-3.016q-.059-3.1-.127-6.2Z" transform="translate(-1189.372 -502.245)" fill="#99e0f4"/><path id="Trazado_4936" data-name="Trazado 4936" d="M1233.268,589.722c-.274-3.187-.69-6.358-1.181-9.517-.88-5.668-2.045-11.289-3.076-16.929-.912-4.99-1.585-9.989-2.049-15.043-.46-5.018-.832-10.052-1.53-15.046a70.447,70.447,0,0,0-3.116-13.877,48.718,48.718,0,0,1-8.1,1.423c-5.383.559-10.789.729-16.164,1.383-2.806.341-5.577.876-8.344,1.451,1.494,9.43,3.056,18.848,4.776,28.242,1.76,9.636,3.69,19.244,5.688,28.832q1.682,8.056,3.444,16.1a1.15,1.15,0,0,0,1.09.832,180.345,180.345,0,0,0,26.165-1.272c.92-.115,1.847-.238,2.775-.388-.111-2.065-.2-4.13-.376-6.191Z" transform="translate(-1189.576 -512.546)" fill="#66d1ee" opacity="0.3" style="mix-blend-mode: multiply;isolation: isolate"/><g id="Grupo_3380" data-name="Grupo 3380" transform="translate(51.44 64.371)"><path id="Trazado_4937" data-name="Trazado 4937" d="M1325.561,664.987a3.176,3.176,0,0,0-2.386-.206c-2.7.749-4.868,3.841-3.71,6.588a4.012,4.012,0,0,0,1.53,1.776,2.481,2.481,0,0,0,1.185.345,1.285,1.285,0,0,0,.745-.147.84.84,0,0,0,.178-.147.916.916,0,0,0,.079-.059.759.759,0,0,0,.294-.452,1.48,1.48,0,0,0,1.01-.725c.369-.67.733-1.34,1.1-2.014a9.786,9.786,0,0,0,1.078-2.216,2.445,2.445,0,0,0-1.1-2.743Z" transform="translate(-1319.146 -664.643)" fill="#00b2e3"/><path id="Trazado_4938" data-name="Trazado 4938" d="M1331.8,672.56s.024.008.032.012h.012l-.02-.012h-.024Z" transform="translate(-1326.784 -669.422)" fill="#00b2e3"/></g><path id="Trazado_4939" data-name="Trazado 4939" d="M1314.353,566.81c-.345-4.939-.9-9.874-1.657-14.769-.333-1.336-.071-3.131-1.32-4.011-1.605-.86-8.419,2.2-10.433,2.89a.947.947,0,0,0-.638,1.13c1.863,9.311,2.077,18.867,3.769,28.214.634,1.855.42,9.794,3.167,8.938a27.978,27.978,0,0,1,6.445-1.613,1.057,1.057,0,0,0,1.026-1.031C1314.821,579.962,1314.828,573.394,1314.353,566.81Z" transform="translate(-1256.32 -529.79)" fill="#fff"/></g><path id="Trazado_4940" data-name="Trazado 4940" d="M1341.791,345.056c-.178,1.7-.476,3.4-.789,5.082a25.866,25.866,0,0,1-1.463,4.975,28.157,28.157,0,0,1-2.323,4.435,21.8,21.8,0,0,1-22.772,9.739,23.2,23.2,0,0,1-15.918-11.527,22.876,22.876,0,0,1-2.922-9.616,29.914,29.914,0,0,1,1.661-11.539,72.549,72.549,0,0,1,5.109-11.039c.959-1.78,1.915-3.591,2.961-5.323.583-.963,1.165-1.922,1.78-2.87s1.352-1.863,2-2.814c.626-.924,1.253-1.847,1.847-2.79.694-1.1-1.07-2.133-1.744-1.019-1.221,2.025-2.224,4.162-3.421,6.2-1.13,1.926-2.4,3.758-3.591,5.644a69.741,69.741,0,0,0-5.882,11.325,34.662,34.662,0,0,0-2.652,12.165,25.155,25.155,0,0,0,18.214,24.567,26.029,26.029,0,0,0,21.757-3.94,24.7,24.7,0,0,0,7.242-8.336,21.073,21.073,0,0,0,2.588-10.758,14.455,14.455,0,0,0-.476-2.723c-.182-.714-1.138-.488-1.2.162h0Z" transform="translate(-1252.329 -289.513)" fill="#010d3d"/><path id="Trazado_4941" data-name="Trazado 4941" d="M1328.995,347.74l-.381.166-.123-.3v.059l.23-.4a4.214,4.214,0,0,1-.61.143,6.62,6.62,0,0,0-.908.444c-.555.289-1.1.591-1.661.872-1.07.535-2.148,1.05-3.246,1.526-2.228.967-4.483,1.879-6.7,2.866-1.122.5-2.228,1.027-3.3,1.621a3.513,3.513,0,0,0-1.4,1.118,1.842,1.842,0,0,0,.27,2.2,41.485,41.485,0,0,0,5.284,5.434c1.082.92,2.164,1.843,3.282,2.723q.832.654,1.685,1.292a7.721,7.721,0,0,0,.884.583,2.991,2.991,0,0,0,1.118.258c.492.063.686-.543.515-.9a2.721,2.721,0,0,0-.563-.892c-.214-.2-.44-.392-.67-.575q-.832-.66-1.645-1.348c-.991-.84-1.962-1.7-2.874-2.632s-1.835-1.843-2.727-2.79c-.448-.472-.884-.955-1.316-1.443-.194-.222-.389-.444-.583-.67l-.289-.337c-.059-.067-.317-.341-.258-.309l-.1.793c-.083.04-.063.02.071-.055.091-.048.178-.1.266-.151.3-.167.6-.325.908-.48q.838-.428,1.689-.832c1.161-.555,2.339-1.07,3.52-1.578a63.574,63.574,0,0,0,6.877-3.238c.587-.341,1.173-.7,1.728-1.094s1.364-.908,1.566-1.633c.127-.464-.178-1.074-.721-.979-.353.063-.594.456-.309.741.171.166.531.055.5-.21h0Z" transform="translate(-1262.571 -311.801)" fill="#010d3d"/><path id="Trazado_4942" data-name="Trazado 4942" d="M1379.524,357.611l.174-.091a1.147,1.147,0,0,0-.511.3,1.2,1.2,0,0,0-.3.511c-.035.123-.079.242-.127.361l.123-.293a4.906,4.906,0,0,1-.607,1.035l.214-.277-.044.055-.02.028a1.045,1.045,0,0,0-.285.444,1.692,1.692,0,0,0-.1.289,1.434,1.434,0,0,0,0,.71l.135.317a.972.972,0,0,0,.345.373,1.326,1.326,0,0,0,.983.262.977.977,0,0,0,.5-.159,1.63,1.63,0,0,0,.622-.595c.04-.071.079-.143.115-.214a5.669,5.669,0,0,0,.3-.757,3.792,3.792,0,0,0,.139-1.268,1.2,1.2,0,0,0-.25-.706,1.055,1.055,0,0,0-.6-.416h-.024l.452.258-.02-.016-.2-.155a.778.778,0,0,0-.369-.119.991.991,0,0,0-.634.119h0Z" transform="translate(-1303.23 -318.005)" fill="#010d3d"/><path id="Trazado_4943" data-name="Trazado 4943" d="M1332,340.477l-.087.087.206-.159-.02.016.246-.1a1.578,1.578,0,0,0-.575.321,1.822,1.822,0,0,0-.27.373,4.08,4.08,0,0,0-.226.357,2.224,2.224,0,0,0-.428,1.712,1.365,1.365,0,0,0,.349.6,1.049,1.049,0,0,0,.436.281,1.034,1.034,0,0,0,.523.115,1.35,1.35,0,0,0,.686-.186,3.335,3.335,0,0,0,.3-.23l.214-.277a1.316,1.316,0,0,0,.167-.392c.016-.067.024-.139.036-.206l.071-.424a6.97,6.97,0,0,0,.072-.7c0-.063.012-.131.016-.2a.909.909,0,0,0-.107-.48.939.939,0,0,0-.095-.19l.1.246-.012-.028.036.27-.016-.131a1.252,1.252,0,0,0-.131-.48.972.972,0,0,0-1.5-.19h0Z" transform="translate(-1274.729 -307.582)" fill="#010d3d"/><path id="Trazado_4944" data-name="Trazado 4944" d="M1358.442,301.165c.559-1.847.951-3.73,1.379-5.609q.577-2.515,1.15-5.034c.408-1.823.706-3.71,1.249-5.5a2.428,2.428,0,0,1,1.241-1.4,2.189,2.189,0,0,0,1.022-1.835,1.875,1.875,0,0,0-1.4-1.673c-.991-.313-2.026.21-2.993-.155l.226.848a5.277,5.277,0,0,0,1.585-3.643,5.533,5.533,0,0,0-1.467-3.777.725.725,0,0,0-1.011,0,24.513,24.513,0,0,0-3.643,4.61h1.292a54.407,54.407,0,0,0-8.748-9.414,51.338,51.338,0,0,0-10.694-7.028c-2.2-1.07-4.935-2.533-7.4-1.5a.972.972,0,0,0-.666,1.169c.345.959.694,1.922,1.027,2.886l1.415-1.09a27.009,27.009,0,0,0-19.2-4.923.967.967,0,0,0-.825,1.435,20.9,20.9,0,0,0,6.663,6.5l.749-1.772c-4.8-1.348-10.734-2.676-15.1.559a1.034,1.034,0,0,0-.206,1.59,38.781,38.781,0,0,0,9.2,7.749l.523-1.934c-2.989-.04-6.271.135-8.221,2.731a4.769,4.769,0,0,0-.927,3.789,4.931,4.931,0,0,0,2.608,3.127,19.373,19.373,0,0,0,5.121,1.871c1.344.309,1.915-1.764.571-2.065a17.053,17.053,0,0,1-4.685-1.677c-1.035-.587-1.815-1.478-1.538-2.636.737-3.08,4.566-3.088,7.075-3.06a1.046,1.046,0,0,0,.523-1.934,37.551,37.551,0,0,1-8.819-7.388l-.206,1.589c3.916-2.957,9.24-1.633,13.56-.436a.974.974,0,0,0,.749-1.772,18.457,18.457,0,0,1-5.993-5.787l-.824,1.435a26.314,26.314,0,0,1,18.225,4.681.972.972,0,0,0,1.415-1.09c-.361-.955-.706-1.918-1.05-2.878l-.666,1.169c1.931-.813,4.075.392,5.8,1.225a57.682,57.682,0,0,1,5.331,2.953,50.245,50.245,0,0,1,9.457,7.563,51.668,51.668,0,0,1,4.463,5.121.76.76,0,0,0,1.292,0,22.789,22.789,0,0,1,3.361-4.352h-1.011a4.459,4.459,0,0,1,.174,5.692.511.511,0,0,0,.1.8,6.563,6.563,0,0,0,2.533.226,1.438,1.438,0,0,1,.828.273c.1.083.182.345.214.071a.477.477,0,0,1-.171.273,5.524,5.524,0,0,1-.674.373,7.86,7.86,0,0,0-.884.638,3.883,3.883,0,0,0-1.118,2.093c-.789,3.353-1.447,6.746-2.168,10.116-.432,2-.88,3.991-1.146,6.025-.1.777,1.114.88,1.328.178h0Z" transform="translate(-1258.445 -257.902)" fill="#010d3d"/><path id="Trazado_4945" data-name="Trazado 4945" d="M1334.2,304.788a8.261,8.261,0,0,0,.824-1.035c.23-.38.452-.789.7-1.173a.844.844,0,0,0-1.32-1.019c-.6.65-1.114,1.379-1.649,2.081l1.526.892a26.155,26.155,0,0,1,3.092-3.75l-1.372-.178a80.446,80.446,0,0,0,6.12,10.009.877.877,0,0,0,1.494,0,23.923,23.923,0,0,0,2.775-11.087l-1.558.42a106.988,106.988,0,0,0,7.139,12.185c.65.943,1.288,1.918,2.018,2.806a2.24,2.24,0,0,0,2.882.721c1.613-.888,2.137-2.79,2.339-4.483.206-1.744.008-3.69.963-5.248l-1.788-.484a25.526,25.526,0,0,0,3.944,12.526.97.97,0,0,0,1.506.194,12.291,12.291,0,0,0,2.838-6.671h-1.891q-.256,4.768-.515,9.533l-.131,2.358c-.04.71-.135,1.443-.1,2.156.048,1.1.606,2.454,1.915,2.386a.892.892,0,0,0,0-1.784c-.3,0,.1.071.1.071.028-.008-.032.04-.04-.052-.008-.107-.1-.325-.111-.444a9.926,9.926,0,0,1,.059-1.645l.238-4.225q.238-4.18.484-8.356a.955.955,0,0,0-.948-.947.971.971,0,0,0-.947.947,10.151,10.151,0,0,1-2.3,5.311l1.506.194a23.39,23.39,0,0,1-3.682-11.558.967.967,0,0,0-1.788-.484,9.888,9.888,0,0,0-1.11,4.63c-.087,1.284-.079,2.834-.884,3.888-.131.17-.428.555-.666.575s-.488-.365-.615-.527c-.65-.817-1.24-1.693-1.835-2.549-1.233-1.768-2.41-3.579-3.532-5.418-1.28-2.1-2.5-4.249-3.6-6.453a.842.842,0,0,0-1.558.42,22.3,22.3,0,0,1-2.6,10.215h1.494a78.91,78.91,0,0,1-6.1-10.016.884.884,0,0,0-1.371-.178,29.058,29.058,0,0,0-3.381,4.091.892.892,0,0,0,.317,1.209.906.906,0,0,0,1.209-.317c.5-.642,1.011-1.272,1.443-1.954l-1.534-.646c-.163.388-.353.757-.531,1.138a7.306,7.306,0,0,0-.365,1.193c-.131.5.539.951.9.527h0Z" transform="translate(-1275.848 -282.524)" fill="#010d3d"/><path id="Trazado_4946" data-name="Trazado 4946" d="M1415.572,365.913a30.713,30.713,0,0,1,5.609-1.4,3.739,3.739,0,0,1,2.291.167,2.586,2.586,0,0,1,1.173,1.685,6.681,6.681,0,0,1-3.726,7.543,7.044,7.044,0,0,1-4.963.214,1.147,1.147,0,0,0-1.284.523,2.318,2.318,0,0,0-.115.273,1.162,1.162,0,0,0,.8,1.4,8.625,8.625,0,0,0,10.282-4.17,8.836,8.836,0,0,0,.793-5.811,4.93,4.93,0,0,0-1.332-2.557,3.973,3.973,0,0,0-2.771-1.015,10.963,10.963,0,0,0-3.544.721,31.171,31.171,0,0,0-3.607,1.455c-.531.262-.158,1.173.408.967h0Z" transform="translate(-1325.27 -321.203)" fill="#010d3d"/><path id="Trazado_4947" data-name="Trazado 4947" d="M1397.891,430.8a9.339,9.339,0,0,0-1.146,1.823c-.357.662-.694,1.364-1,2.049-.626,1.387-1.229,2.79-1.831,4.186s-1.2,2.862-1.752,4.313q-.392,1.029-.769,2.065a9.317,9.317,0,0,0-.706,2.37c-.083,1.1,1.423,1.332,1.95.527a9.722,9.722,0,0,0,.836-2.228q.363-1.088.729-2.176.719-2.123,1.431-4.253c.472-1.419.975-2.822,1.478-4.233.254-.714.507-1.443.725-2.164a10.094,10.094,0,0,0,.5-2.1.262.262,0,0,0-.444-.182h0Z" transform="translate(-1310.887 -362.22)" fill="#010d3d"/><path id="Trazado_4948" data-name="Trazado 4948" d="M1375.839,456.3c-.606-.075-1.07.935-1.292,1.371-.313.614-.591,1.245-.872,1.871-.575,1.284-1.141,2.572-1.685,3.873a1.136,1.136,0,0,0,.793,1.4,1.167,1.167,0,0,0,1.4-.793c.44-1.161.852-2.327,1.26-3.5a15.441,15.441,0,0,0,.975-3.6.631.631,0,0,0-.309-.539.56.56,0,0,0-.261-.079h0Z" transform="translate(-1299.568 -377.659)" fill="#010d3d"/><path id="Trazado_4949" data-name="Trazado 4949" d="M1372.288,473.236a11.819,11.819,0,0,0,.3,3.048,25.092,25.092,0,0,0,.626,3.032.613.613,0,0,0,.892.365,36.187,36.187,0,0,0,3.492-2.973c.531-.515,1.042-1.046,1.542-1.594.523-.579.987-1.229,1.55-1.768.67-.638-.531-1.605-1.015-.781a10.641,10.641,0,0,1-1.344,1.645c-.5.547-1.011,1.082-1.538,1.6a33.876,33.876,0,0,1-3.3,2.826l.892.365c-.277-.967-.579-1.926-.809-2.905s-.281-2.006-.595-2.945a.355.355,0,0,0-.693.1h0Z" transform="translate(-1299.768 -387.286)" fill="#010d3d"/><path id="Trazado_4950" data-name="Trazado 4950" d="M1381.1,472.363c-1.019.9-2.1,1.756-3.159,2.6a27.405,27.405,0,0,1-3.346,2.247l.975.258a5.685,5.685,0,0,1-.975-1.99,8.735,8.735,0,0,1-.147-2.208.658.658,0,0,0-1.288-.174,5.447,5.447,0,0,0,.063,2.7,6.674,6.674,0,0,0,1.11,2.394.733.733,0,0,0,.975.258,26.007,26.007,0,0,0,3.551-2.461,15.923,15.923,0,0,0,1.546-1.423,17,17,0,0,0,1.336-1.7c.293-.4-.317-.8-.65-.5h0Z" transform="translate(-1300.225 -387.293)" fill="#010d3d"/><path id="Trazado_4951" data-name="Trazado 4951" d="M1345.489,640.406a5.187,5.187,0,0,0-1.708-.206c.059-.087.123-.174.182-.262.888-1.26-1.078-2.739-2.121-1.637-.317.337-.63.682-.939,1.027a.912.912,0,0,0-.293.226q-2.955,3.585-5.8,7.27c-.932,1.2-1.776,2.485-2.644,3.738-.325.468-.67.936-.975,1.419a1.222,1.222,0,0,0-1.221.293,1.271,1.271,0,0,0-.222,1.451h0v.262c-.02.028-.024.036-.024.04l-.079.067a.857.857,0,0,0-.273.674.881.881,0,0,0,.761,1.467l.174.115.5.329c.357.242.7.5,1.046.753.67.492,1.364.912,2.077,1.34,1.447.86,2.9,1.7,4.368,2.513a1.324,1.324,0,0,0,1.582-.2,50.113,50.113,0,0,0,6.627-10.187c.456-.943.88-1.9,1.28-2.866a10.925,10.925,0,0,0,.908-3.06,4.291,4.291,0,0,0-3.195-4.554Z" transform="translate(-1273.738 -487.287)" fill="#64d8cc"/><path id="Trazado_4952" data-name="Trazado 4952" d="M1329.445,684.085l-.155-.329-.075-.162a.31.31,0,0,1-.032-.083c0-.04,0-.071-.043-.091a.058.058,0,0,0-.083.032c0,.02-.008.04,0,.059s.024.024.036.036a.174.174,0,0,1,.047.071l.091.163.178.321s.032,0,.024-.016h0Z" transform="translate(-1273.687 -514.75)" fill="#010d3d"/><path id="Trazado_4953" data-name="Trazado 4953" d="M1324.859,689.026c-1.276-1.062-2.624-2.041-4-2.973-1.328-.9-2.81-2.085-4.439-2.307-1.748-.234-3.413.733-4.749,1.685a39.363,39.363,0,0,0-3.952,3.155c-.579.539.024,1.716.813,1.4.725-.293,1.447-.6,2.164-.92a1.394,1.394,0,0,0,.293.781,1.466,1.466,0,0,0,1.863.373c.448-.218.9-.408,1.355-.579a51.349,51.349,0,0,1-4.289,3.377,1.5,1.5,0,0,0-.606,1.855,1.463,1.463,0,0,0,1.752.86c1.641-.682,3.282-1.367,4.927-2.041a2.246,2.246,0,0,0,1.569,1.451,1.57,1.57,0,0,0,1.7-.694c.091-.147.182-.293.281-.432l.008-.012c.056-.067.115-.131.178-.194a.353.353,0,0,0,.044-.04c.012-.008.032-.02.059-.039.052,0,.1-.008.02-.012h0a5.288,5.288,0,0,0,2.152-.273,5.48,5.48,0,0,0,3.048-2.862,1.317,1.317,0,0,0-.2-1.558Z" transform="translate(-1260.671 -514.93)" fill="#fff"/><path id="Trazado_4954" data-name="Trazado 4954" d="M1327.177,680.844c.115.167.119.357.234.519a2.886,2.886,0,0,0,.61.5c.416.325.844.634,1.276.939q1.332.951,2.711,1.835,1.338.862,2.715,1.661a27.331,27.331,0,0,0,2.945,1.629c.658.277,1.225-.591.579-.987-.9-.551-1.887-.975-2.81-1.494q-1.427-.8-2.81-1.677c-.9-.563-1.784-1.149-2.656-1.752-.424-.293-.84-.594-1.261-.892a4.831,4.831,0,0,0-.666-.472c-.2-.1-.412-.04-.622-.115a.212.212,0,0,0-.238.305h0Z" transform="translate(-1272.542 -513.007)" fill="#010d3d"/><path id="Trazado_4955" data-name="Trazado 4955" d="M1327.005,573.379a96.084,96.084,0,0,0,9.247-12.347c2.763-4.265,5.383-8.657,7.714-13.176a138.671,138.671,0,0,0,11.047-28.686c.725-2.79,1.419-5.593,2.026-8.415q.446-2.075.832-4.162a34.292,34.292,0,0,0,.646-4.392.691.691,0,0,0-1.352-.182c-.341,1.253-.527,2.541-.769,3.817-.23,1.221-.48,2.442-.741,3.659q-.8,3.734-1.8,7.42c-1.32,4.907-3.02,9.747-4.812,14.5-1.768,4.681-3.77,9.275-5.954,13.774A152.186,152.186,0,0,1,1335.8,558.6c-3,4.856-6.322,9.485-9.573,14.174-.321.464.4,1.019.781.6h0Z" transform="translate(-1271.933 -404.964)" fill="#010d3d"/><path id="Trazado_4956" data-name="Trazado 4956" d="M1355.169,639.681a6.872,6.872,0,0,0,1.558-1.4c.484-.5.955-1.031,1.419-1.562.939-1.09,1.823-2.208,2.723-3.33a64.828,64.828,0,0,0,4.84-7.21,67.3,67.3,0,0,0,4.039-7.642q1.754-4.013,3.242-8.126c.547-1.51,1.106-3.024,1.506-4.586a5.656,5.656,0,0,0,.222-1.114,2.736,2.736,0,0,0-.04-.48,1.814,1.814,0,0,1,.072-.618c.174-.832.535-1.609.658-2.458a.1.1,0,0,0-.2-.055c-.262.666-.369,1.36-.567,2.041a2.606,2.606,0,0,1-.44.963,2.708,2.708,0,0,0-.5.8c-.547,1.336-.995,2.711-1.494,4.063a71.914,71.914,0,0,1-3.433,7.824,136.93,136.93,0,0,1-8.609,14.773c-.888,1.3-1.788,2.6-2.687,3.893-.464.67-.951,1.32-1.423,1.982a8.862,8.862,0,0,0-1.253,1.954c-.079.214.19.381.369.282h0Z" transform="translate(-1289.224 -465.022)" fill="#010d3d"/><path id="Trazado_4957" data-name="Trazado 4957" d="M1313.718,683.653a1.443,1.443,0,0,0-.5-.234,3.027,3.027,0,0,0-.733.052,12.661,12.661,0,0,0-1.494.317,10.433,10.433,0,0,0-2.91,1.28,14.969,14.969,0,0,0-4.495,4.443.963.963,0,0,0,.82,1.435,17.731,17.731,0,0,0,8.982-1.661l-.935-1.6a55.568,55.568,0,0,0-6.921,6.279.966.966,0,0,0-.147,1.13c.785,1.4,2.521,1.209,3.825.813a25.219,25.219,0,0,0,4.828-2.045l-1.383-1.062a2.566,2.566,0,0,0,2.144,3.139c1.629.293,2.985-.84,4.075-1.891l-.674.278a5.773,5.773,0,0,0,3.813-1.3,3.851,3.851,0,0,0,1.7-3.508c-.107-.63-.912-.563-1.213-.159a11.129,11.129,0,0,1-1.669,2.18,3.825,3.825,0,0,1-2.343.892,1.293,1.293,0,0,0-.955.273c-.2.171-.38.369-.579.543a3.6,3.6,0,0,1-1.157.753,1.079,1.079,0,0,1-1.07-.107c-.254-.186-.337-.345-.254-.595a.951.951,0,0,0-1.383-1.062,22.447,22.447,0,0,1-3.69,1.649,8.561,8.561,0,0,1-1.53.44,1.846,1.846,0,0,1-.626,0c-.159-.04-.174-.044-.246-.167l-.147,1.13a52.987,52.987,0,0,1,6.536-6,.926.926,0,0,0-.935-1.6,16.032,16.032,0,0,1-8.046,1.356l.82,1.435a13.854,13.854,0,0,1,3.821-3.893c.757-.511,1.542-.995,2.347-1.431.424-.23.852-.44,1.3-.626a6.117,6.117,0,0,0,.634-.293c.2-.111.262-.254.408-.424a.1.1,0,0,0-.02-.155h0Z" transform="translate(-1258.226 -514.749)" fill="#010d3d"/><path id="Trazado_4958" data-name="Trazado 4958" d="M1380.906,472.217c-.055.714.749,1.447,1.157,1.97a13.1,13.1,0,0,0,1.641,1.97c.757.642,1.506-.02,2.1-.527.654-.563,1.3-1.146,1.922-1.74a25.15,25.15,0,0,0,3.433-3.71c.844-1.221,1.479-2.529.82-4a4.286,4.286,0,0,0-1.625-1.788,6.213,6.213,0,0,0-2.469-.983c-.551-.067-.678.737-.266.987.725.444,1.586.591,2.307,1.07a2.684,2.684,0,0,1,1.241,1.7,2.841,2.841,0,0,1-.82,2.172c-.567.634-1.185,1.229-1.78,1.839a51.922,51.922,0,0,1-3.936,3.651l-.21.174c.131.107.155.115.063.024-.067-.182-.4-.412-.531-.555-.309-.325-.622-.642-.943-.955s-.642-.622-.979-.92a1.549,1.549,0,0,0-.967-.531.145.145,0,0,0-.143.143h0Z" transform="translate(-1304.984 -381.951)" fill="#010d3d"/><path id="Trazado_4959" data-name="Trazado 4959" d="M1363.755,474.007a3.9,3.9,0,0,0-1.475.178c-.559.131-1.11.273-1.661.432-1.078.305-2.152.622-3.226.939l.733.559a6.893,6.893,0,0,1,.947-4.646,4.338,4.338,0,0,1,1.578-1.367c.622-.321,1.411-.305,1.982-.729a.258.258,0,0,0,.052-.4c-.65-.65-1.712-.281-2.43.044a5.42,5.42,0,0,0-2.041,1.657,7.429,7.429,0,0,0-1.249,5.45c.044.341.337.7.733.559q1.587-.565,3.179-1.114c.523-.178,1.038-.365,1.554-.559a4.056,4.056,0,0,0,1.4-.69.186.186,0,0,0-.083-.309h0Z" transform="translate(-1290.489 -385.093)" fill="#010d3d"/><path id="Trazado_4960" data-name="Trazado 4960" d="M1365.869,282.712a9.031,9.031,0,0,1-1.233-.083,18.716,18.716,0,0,0,.139-2.446,21.672,21.672,0,0,0-.44-3.54c-.142-.824-1.268-.813-1.657-.218-.809,1.237-1.665,2.461-2.442,3.726a1.84,1.84,0,0,0-.329.052,1.885,1.885,0,0,0-.289.087l-.051.02c-.285-.337-.575-.67-.852-1a59.048,59.048,0,0,0-6.207-6.5,74.824,74.824,0,0,0-7.222-5.716,44.845,44.845,0,0,0-9.093-4.733c-1.015-.388-1.9.587-1.966,1.5-.012.167-.024.333-.04.5a36.342,36.342,0,0,0-14.658-3.52,1.486,1.486,0,0,0-.745,2.747c.583.349,1.157.71,1.712,1.106.107.075.214.155.321.234,0,0,.285.23.317.258.238.2.472.412.69.638.115.119.23.238.337.361,0,0,.139.17.167.2.079.107.158.218.23.333-1.486-.214-2.981-.361-4.487-.46a37.82,37.82,0,0,0-6.7.1,1.58,1.58,0,0,0-1.3.749,1.485,1.485,0,0,0,0,1.526A11.951,11.951,0,0,0,1314,271.8c.666.365,1.34.706,2,1.082.321.182.638.373.947.575.135.087.266.182.4.273.016.012.024.016.036.024h0c.091.075.182.151.273.23a7.826,7.826,0,0,1,.694.71c.052.075.107.151.155.23s.095.155.143.234a3.789,3.789,0,0,1-1.213.159,12.184,12.184,0,0,0-4.626.5,1.2,1.2,0,0,0-.2.036,3.258,3.258,0,0,0-.547,6.152c.075.1.151.206.23.3a6.143,6.143,0,0,0,2.216,1.645,6.23,6.23,0,0,0,.84.341,3.963,3.963,0,0,0,.892.091,9.737,9.737,0,0,0,1.36-.024,1,1,0,0,0,.646-1.748,43.556,43.556,0,0,0,3.377-4.186,1.174,1.174,0,0,0,.2-.947c.044-.036.087-.071.131-.1a1.309,1.309,0,0,1,.388-.21c.087-.028.178-.044.27-.063s.194-.012.044,0h.194c.19.4.38.809.571,1.205.416.852.9,1.677,1.364,2.509q1.356,2.456,2.711,4.911a1.106,1.106,0,0,0,1.641.289,1.392,1.392,0,0,0,1.641-.955,16.828,16.828,0,0,0,1.217-6.536c.091-.369.182-.733.281-1.1h0c.087.147.166.3.25.452.222.4.468.789.71,1.181l1.383,2.263q1.385,2.265,2.766,4.531c1.043,1.7,2.053,3.433,3.135,5.109a1.429,1.429,0,0,0,2.22.285c1.451-1.605,1.712-3.69,1.962-5.751.024-.182.044-.365.068-.547.008-.048.024-.174.028-.21.016-.115.036-.23.056-.345a10.117,10.117,0,0,1,.234-1.023c.341,1.26.65,2.533.975,3.793q.8,3.116,1.447,6.263a1.478,1.478,0,0,0,1.411,1.074,1.537,1.537,0,0,0,1.411-1.074c.032-.071.048-.111.056-.131.024-.055.047-.107.067-.162s.163-.384.218-.511c.123-.285.246-.571.369-.852.265-.595.547-1.185.852-1.76.083-.159.17-.313.254-.464q-.06.624-.119,1.249c-.151.377-.305.749-.46,1.122a1.624,1.624,0,0,0,.238,1.506c-.2,2.588-.369,5.185-.484,7.781a1.543,1.543,0,0,0,.353,1.086,1.361,1.361,0,0,0,2.034,1.062,8.44,8.44,0,0,1,3.361-1.482,7.169,7.169,0,0,1,1.645-.119c.67.02,1.34.028,2.01.083a1.228,1.228,0,0,0,1.205-1.2,18.135,18.135,0,0,1,.487-2.188q.255-1.159.472-2.323c.289-1.558.523-3.127.714-4.7.281-2.335.258-5.632,2.814-6.719,1.011-.428.444-1.99-.535-1.982Z" transform="translate(-1262.098 -259.675)" fill="#010d3d"/><path id="Trazado_4961" data-name="Trazado 4961" d="M1313.046,409.014a11.88,11.88,0,0,0,3.793,2.3,18.816,18.816,0,0,0,4.364,1.3,16.811,16.811,0,0,0,8.974-1.031,19.18,19.18,0,0,0,2.4-1.173,8.8,8.8,0,0,0,2.164-1.558.986.986,0,0,0-1.189-1.542c-.6.329-1.126.817-1.708,1.185a17.287,17.287,0,0,1-1.819,1.007,17.582,17.582,0,0,1-3.861,1.276,17.058,17.058,0,0,1-8.312-.27,25.492,25.492,0,0,1-4.4-2.01c-.321-.163-.682.246-.4.515h0Z" transform="translate(-1263.963 -348.008)" fill="#010d3d"/></g></g></g></svg>