<svg xmlns="http://www.w3.org/2000/svg" width="430" height="269.375" viewBox="0 0 430 269.375">
  <g id="IICE_LandingCompliancePenal_Nivel2_1" transform="translate(-574.669 -294.59)">
    <g id="Grupo_4713" data-name="Grupo 4713" transform="translate(682.831 302.926)">
      <path id="Trazado_7592" data-name="Trazado 7592" d="M920.588,438.877a15,15,0,0,0,5.048-5.8,21.406,21.406,0,0,0,1.482-13.177c-1.259-7.438-5.187-14.665-11.311-19.172a20.458,20.458,0,0,0-4.9-2.652,23.578,23.578,0,0,0-4.886-1.131c-1.165-.178-2.925-.368-3.672-1.276-.256-.312-.139-1.036.1-1.644.418-1.059,1.014-2.05,1.515-3.07a11.165,11.165,0,0,0,1.516-5.967A8.235,8.235,0,0,0,902.819,380c-1.187-1.17-2.641-2.19-3.471-3.666a9.869,9.869,0,0,1-.875-4.875,36.236,36.236,0,0,0-.234-6.458,9.377,9.377,0,0,0-1.075-2.981,30.585,30.585,0,0,0-1.855-2.463,1.882,1.882,0,0,1-.463-1.939,4.339,4.339,0,0,1,2.218-1.861,34.227,34.227,0,0,0,4.859-2.19.718.718,0,0,0,1.025.29,18.207,18.207,0,0,0,7.232-10.079,22.536,22.536,0,0,0-.2-12.57,16.124,16.124,0,0,0-2.842-5.783,16.54,16.54,0,0,0-4.9-4.006,20.473,20.473,0,0,0-12.28-2.128,18.517,18.517,0,0,0-9.985,4.5c-2.764-7.689-10.369-13.211-18.442-14.119-9.388-1.053-17.584,5.2-20.9,13.712a21.4,21.4,0,0,0-1.415,9.366,17.215,17.215,0,0,0-9-4.329c-5.159-.618-10.38,1.984-13.645,5.895-6.318,7.555-7.032,18.766-3.6,27.736a30.772,30.772,0,0,0,7.839,11.717,21.8,21.8,0,0,0-3.761,26.421,21.8,21.8,0,0,0,4.034,5.154,23.258,23.258,0,0,0-8.592,17.233,22.1,22.1,0,0,0,9.968,18.832,22.32,22.32,0,0,0,8.725,3.527,31.637,31.637,0,0,0-5.7,17.779c-.022,3.432.4,7.271,2.329,10.207a9.279,9.279,0,0,0,9.4,3.967,12.887,12.887,0,0,0,5.349-2.184,35.107,35.107,0,0,0-1.064,8.079c-.056,3.845.663,7.934,3.176,10.971,3.081,3.728,7.979,3.438,12.2,2.128a33.663,33.663,0,0,0,10.882-5.817,32.84,32.84,0,0,0,7.839-9.015,18.857,18.857,0,0,0,13.122,3.31,18.443,18.443,0,0,0,12.9-8.018,18.041,18.041,0,0,0,2.6-5.867c5.678,1.872,12-.942,16.091-5.1,5.059-5.126,8.079-13.339,5.2-20.281a14,14,0,0,0-4.92-6.218Z" transform="translate(-787.453 -309.552)" fill="#00b2e3"/>
      <path id="Trazado_7593" data-name="Trazado 7593" d="M990.395,484.636a1.555,1.555,0,0,0-1.549-.412c-.641.262-1.293.529-1.945.791a1.562,1.562,0,0,0-1.371-.24,70.014,70.014,0,0,1-12.13,2.14A82.189,82.189,0,0,1,961,486.9a107.964,107.964,0,0,1-24.193-4.786,100.9,100.9,0,0,1-13.177-5.243,1.544,1.544,0,0,0-1.638.117,41.363,41.363,0,0,0-4.374-4.062,24.3,24.3,0,0,0-13.74-4.87,31.41,31.41,0,0,0-9.2,1.332,1.77,1.77,0,0,0-.128-.4c-1.293-2.819-2.624-5.6-4.039-8.352,1.521-.485,3.037-1,4.535-1.56h0a11.336,11.336,0,0,1,3.772-3.677,12.329,12.329,0,0,0,3.126-3.85,34.432,34.432,0,0,0,2.357-4.374c.641-1.51,1.131-3.087,1.621-4.647,1.07-3.427,2.3-6.764,2.619-10.363.579-6.441-.836-12.765-2.574-18.933-1.883-1.415-3.817-2.758-5.633-4.257a25.565,25.565,0,0,1-3.95-3.928,24.712,24.712,0,0,1-2.886-4.914c-1.889-4.106-3.037-8.575-4.385-12.882q-2.307-7.363-4.613-14.721a1.584,1.584,0,0,0-1.081-1.1.674.674,0,0,0-1.153-.228c-.111.128-.2.262-.306.39a1.508,1.508,0,0,0-.791,1.086c-.318.479-.619.964-.914,1.454s-.579.986-.869,1.482a10.094,10.094,0,0,1-3.254,3.861,5.726,5.726,0,0,1-4.914.111,7.584,7.584,0,0,1-3.811-3.655,15.011,15.011,0,0,1-1.276-6.725c-.017-1.1-1.755-1.421-1.984-.267a59.823,59.823,0,0,1-2.4,8.792,37.373,37.373,0,0,1-2.229,4.987,31.144,31.144,0,0,1-1.85,3c-.234.334-.563.914-1.031.864-.4-.039-.836-.54-1.092-.819-1.359-1.476-1.638-3.6-2.084-5.471-.273-1.176-1.828-.775-1.945.262a27.132,27.132,0,0,1-4.959,12.208,20.59,20.59,0,0,1-4.407,4.786,4.137,4.137,0,0,1-2.936.953,4.473,4.473,0,0,1-2.491-1.438c-1.772-1.828-2.552-4.407-4.179-6.368-.607-.73-1.694.067-1.5.875a188.411,188.411,0,0,1,3.984,22.17c.123,1.064.24,2.134.34,3.2a10.754,10.754,0,0,1-1.2-2.368,7.4,7.4,0,0,0-2.7-3.655c-2.975-1.878-6.9-.7-9.177,1.7a11.012,11.012,0,0,0-2.669,9.784,15.758,15.758,0,0,0,2.167,5.3,15.064,15.064,0,0,0,3.727,4.3c3.243,2.323,6.848.284,9.377-2.212.061.189.128.379.2.574.3.886.607,1.777.942,2.652q.944,2.474,2.034,4.892a34.208,34.208,0,0,0,5.577,8.92c2.457,2.719,4.786,8.09,7.867,10.04,3.215,2.028,6.235,2.842,9.667,4.474,3.772,1.794,8.8,1.014,12.988,1.226.841,1.839,1.783,3.616,2.552,5.494q1.245,3.051,2.491,6.1c-.24.072-.479.15-.719.223a46.307,46.307,0,0,0-7.795,2.725,15.816,15.816,0,0,0-5.165,4.5,23.773,23.773,0,0,0-2.97,6.151c-.814,2.173-1.543,4.385-2.535,6.486a38.361,38.361,0,0,1-3.41,5.9,37.79,37.79,0,0,1-22.164,14.977,38.659,38.659,0,0,1-28.4-4.847q-1.563-.961-3.042-2.045a.72.72,0,0,0-.8-.045,9.435,9.435,0,0,0-.975-1.716c-.44-.546-.908-1.081-1.382-1.6a39.356,39.356,0,0,0-6.318-5.5c-4.446-3.131-10.051-5.923-15.573-5.973a1.241,1.241,0,0,0-1.047.607c-.067-.039-.128-.078-.189-.117a.688.688,0,0,0-.7,1.187,11.632,11.632,0,0,1,4.43,4.8q-3.051.142-6.112.267a.735.735,0,0,0-.513,1.237,17.381,17.381,0,0,0,5.984,3.744q-2.457.986-4.914,1.983c-.479.189-.819.858-.34,1.265a14.291,14.291,0,0,0,8.335,3.365c-.357.429-.708.858-1.064,1.293a.809.809,0,0,0,.156,1.242,8.791,8.791,0,0,0,4.352,1.471,13.517,13.517,0,0,1,4.925,1.348c2.847,1.566,4.959,4.184,7.121,6.547a33.4,33.4,0,0,0,7.544,6.3,39.591,39.591,0,0,0,9.478,3.945,65.025,65.025,0,0,0,10.118,1.9,57.932,57.932,0,0,0,11.456.418,25.37,25.37,0,0,0,10.659-3.126,40.143,40.143,0,0,0,8.486-6.976,189.689,189.689,0,0,0,16.208-18.821,37.221,37.221,0,0,1,1.2,6.224c.284,2.814.15,5.644.412,8.458a18.888,18.888,0,0,0,2.5,7.622,55.781,55.781,0,0,1,3.521,6.987c3.939,10.174,3.794,21.312,2.1,31.937-1.048,6.591-2.635,13.11-4.151,19.607a1.228,1.228,0,0,0,.847,1.5c7.962,1.3,15.891,2.747,23.825,4.184,3.41.618,7.121,1.359,10.453,0a8.1,8.1,0,0,0,4.156-3.61c4.2,6.43,14.325,4.608,20.989,3.9q3.811-.4,7.617-.808c.251-.028.5-.05.758-.072a20.464,20.464,0,0,0,5.366-.819,4.885,4.885,0,0,0,3.042-4.129,30.8,30.8,0,0,0,.312-6.9c-.552-9.322-4.073-18.443-7.762-26.934-1.9-4.379-3.945-8.714-6.207-12.921-1.1-2.034-2.268-4.023-3.4-6.034a20.437,20.437,0,0,1-2.479-6.006c-.507-2.613,0-5.332.351-7.934a36.187,36.187,0,0,0,.329-7.644,33.5,33.5,0,0,0-2.5-10.324c9.266,3.17,19.117,4.162,28.917,3.911a81.5,81.5,0,0,0,16.041-1.566c4.747-1.086,9.433-3.365,12.08-7.622,2.491-4,3.215-9.957-.279-13.634Z" transform="translate(-770.937 -335.532)" fill="#fff"/>
      <path id="Trazado_7594" data-name="Trazado 7594" d="M989.814,595.535a45.472,45.472,0,0,0-.217-5.226c-.3-3.427-.769-6.853-1.254-10.258Q986.9,569.78,984.6,559.659a105.25,105.25,0,0,0-3-11.461,1.223,1.223,0,0,0-2.39.323,20.357,20.357,0,0,1-.184,2.914,8.394,8.394,0,0,1-.981,2.513,4.979,4.979,0,0,1-3.527,2.624,11.264,11.264,0,0,1-2.635,0c-1.075-.078-2.14-.156-3.215-.212-2.067-.117-4.134-.267-6.2-.429a1.1,1.1,0,0,0-.234.017c-.056-.139-.117-.279-.178-.412-.345-.758-1.677-.212-1.359.574s.657,1.543.93,2.329c.3.864.513,1.738.841,2.6q.953,2.507,2.023,4.959c1.4,3.243,2.87,6.463,4.43,9.633a90.277,90.277,0,0,0,11.06,17.64,35.964,35.964,0,0,0,4.173,4.118c1.482,1.3,2.858,2.713,4.352,3.995.518.446,1.527.195,1.471-.607A51.33,51.33,0,0,1,989.814,595.535Z" transform="translate(-853.754 -414.85)" fill="#f9d0dd"/>
      <g id="Grupo_4712" data-name="Grupo 4712" transform="translate(101.221 170.623) rotate(-43)">
        <path id="Trazado_7595" data-name="Trazado 7595" d="M957.964,618.188l.9-.624c1-2.836,1.36-5.616,3.12-8.134.646-.925,1.984-2.663,2.73-3.688.134-.206.267-.4.407-.574.034-.05.061-.095.084-.134h.017a4.82,4.82,0,0,1,1.114-1.07c1.315-.836,2.468-.568,3.527.847.2.268,1.148.334,1.2.969a2.551,2.551,0,0,0-.858-.262,9.533,9.533,0,0,0-1.95.73c1.811,4.457-1.956,8.886-3.739,12.625.011.251,1.5.652,1.042,1.593a.252.252,0,0,1-.234.167c-1.527-.117-2.173-1.081-3.622-1.343-1.259-.228-2.134.284-3.689-.29a.46.46,0,0,1-.056-.813" transform="translate(-957.74 -603.494)" fill="#010d3d" fill-rule="evenodd"/>
        <path id="Trazado_7596" data-name="Trazado 7596" d="M969.5,609.138a1.573,1.573,0,0,0-.084.63c-1.248,8.162-3.861,10.814-4.324,8.307-.145-.786-.724-.981-1.371,2.5-.067.373.758.385,1.075.468.931.256.986.351,1.532.022.306-.184,4.341-6.463,4.107-10.224a10.871,10.871,0,0,0-.162-1.777c-.033-.156-.468-.424-.769.072" transform="translate(-960.46 -605.865)" fill="#fff" fill-rule="evenodd"/>
        <path id="Trazado_7597" data-name="Trazado 7597" d="M962.689,605.457a.292.292,0,0,0,.189.384.339.339,0,0,0,.373-.262.292.292,0,0,0-.189-.384.339.339,0,0,0-.373.262" transform="translate(-952.692 -604.245)" fill="#fff"/>
      </g>
      <path id="Trazado_7598" data-name="Trazado 7598" d="M866.806,444.561c-.284-.34-.6-.669-.869-1.02s-.418-.708-.691-1.042a5.815,5.815,0,0,0-2.368-1.627,6.263,6.263,0,0,0-5.115.334c-3.538,1.744-4.742,5.767-4.764,9.444s.574,7.639,2.585,10.759c1.783,2.775,4.909,4.976,8.313,4.859s7.132-3.042,6.235-6.714a.463.463,0,0,0-.886,0,5.983,5.983,0,0,1-4.964,4.4c-2.535.234-4.942-1.426-6.3-3.466a15.64,15.64,0,0,1-2.123-8.391c-.056-2.7.251-5.767,2.463-7.617a4.027,4.027,0,0,1,3.259-.986,7.163,7.163,0,0,1,2,.975,6.043,6.043,0,0,1,.908.513,11.654,11.654,0,0,1,.931.958c.875.93,2.167-.429,1.382-1.382Z" transform="translate(-806.082 -367.527)" fill="#010d3d"/>
      <path id="Trazado_7599" data-name="Trazado 7599" d="M975.308,390.78a35.865,35.865,0,0,1-.836-4.675,41.354,41.354,0,0,0-1.1-4.853c-.407-1.6-.858-3.07-1.287-4.608a20.056,20.056,0,0,0-.7-2.218c-.346-.836-.891-1.521-1.187-2.368a.923.923,0,0,0-1.777.49,50,50,0,0,0,2.741,10.1,40.308,40.308,0,0,1,1.488,4.92,49.034,49.034,0,0,0,1.3,5.226c.357,1.081,2.268.981,2.112-.284a14.517,14.517,0,0,0-.54-2.613,22.453,22.453,0,0,0-.958-2.468c-.7-1.61-1.343-3.271-1.905-4.937a46.865,46.865,0,0,1-2.429-10.2l-1.811.245c.162.841.039,1.66.162,2.507a18.526,18.526,0,0,0,.535,2.262c.446,1.577.869,3.165,1.376,4.725a42.494,42.494,0,0,0,1.638,4.558c.318.691.708,1.332,1.014,2.023.362.819.685,1.633.992,2.474a.61.61,0,0,0,1.176-.323h0Z" transform="translate(-857.189 -336.942)" fill="#010d3d"/>
      <path id="Trazado_7600" data-name="Trazado 7600" d="M953,429.612c1.816,1.722,3.477,3.566,5.254,5.327s3.365,3.427,5.076,5.109,3.259,3.2,4.892,4.8a29.97,29.97,0,0,1,4.346,4.825l.585-2.234c-3.538,1.922-7.578,1.9-11.495,2.062a.7.7,0,0,0-.351,1.3c4,2.814,9.489,1.7,13.495-.541a1.64,1.64,0,0,0,.585-2.234c-.741-.964-1.421-1.95-2.234-2.864-.713-.8-1.465-1.566-2.229-2.318-1.688-1.644-3.482-3.2-5.288-4.714-1.917-1.6-3.817-3.237-5.705-4.875s-3.872-3.165-5.728-4.853c-.808-.73-2,.446-1.2,1.2h0Z" transform="translate(-850.249 -362.078)" fill="#010d3d"/>
      <path id="Trazado_7601" data-name="Trazado 7601" d="M930.146,486.5a11.417,11.417,0,0,0,4.6,3.6,23.1,23.1,0,0,0,5.616,1.867,24.843,24.843,0,0,0,11.946-.925A32.9,32.9,0,0,0,955.6,489.8c1.137-.5,2.552-.942,3.009-2.19a1.362,1.362,0,0,0-.947-1.666c-1.27-.262-2.479.724-3.6,1.231a25.554,25.554,0,0,1-3.1,1.159,26.393,26.393,0,0,1-6.742,1.192,22.111,22.111,0,0,1-6.658-.579c-2.162-.579-4.58-1.454-5.951-3.3-.641-.858-2.1-.056-1.465.858h0Z" transform="translate(-840.175 -387.37)" fill="#010d3d"/>
      <path id="Trazado_7602" data-name="Trazado 7602" d="M934.226,490.5c2.023,3.2,4.859,6.368,8.458,7.75a7.507,7.507,0,0,0,5.956-.2A9.614,9.614,0,0,0,951,496.472c.7-.63,1.716-1.521,1.716-2.546l-.15.563a5.758,5.758,0,0,1,.63-.836.987.987,0,0,0-1.192-1.543,11.709,11.709,0,0,0-1.231.774.943.943,0,0,0,.953,1.627,12.316,12.316,0,0,0,1.276-.7l-1.192-1.543a4.837,4.837,0,0,1-.763.708l.563-.15c-.942.039-1.582.808-2.279,1.354a12.18,12.18,0,0,1-1.855,1.254,4.916,4.916,0,0,1-4.257-.017,16,16,0,0,1-7.555-5.744c-.591-.88-2.011-.072-1.432.836h0Z" transform="translate(-841.994 -389.144)" fill="#010d3d"/>
      <path id="Trazado_7603" data-name="Trazado 7603" d="M917.517,431.2c.167.708.3,1.421.4,2.134l-.061-.446c.072.546.128,1.092.162,1.638a1.755,1.755,0,0,0,.49,1.181,1.668,1.668,0,0,0,2.362,0,1.639,1.639,0,0,0,.49-1.181,25.14,25.14,0,0,0-.618-4.223,1.69,1.69,0,0,0-2.056-1.17,1.709,1.709,0,0,0-1.17,2.056h0Z" transform="translate(-834.628 -362.474)" fill="#010d3d"/>
      <path id="Trazado_7604" data-name="Trazado 7604" d="M965.415,413.851c.106,1.059.245,2.112.429,3.159q.117.685.267,1.371a4.548,4.548,0,0,0,.507,1.688,1.671,1.671,0,0,0,1.627.78,1.66,1.66,0,0,0,1.359-1.17,2.523,2.523,0,0,0,.011-.981l-.05-.2c-.045-.184-.089-.368-.128-.552-.078-.351-.156-.708-.228-1.064-.139-.708-.256-1.426-.357-2.14l.061.446c-.061-.446-.112-.892-.156-1.337a1.816,1.816,0,0,0-.49-1.181,1.714,1.714,0,0,0-1.181-.49,1.691,1.691,0,0,0-1.672,1.672h0Z" transform="translate(-855.86 -354.998)" fill="#010d3d"/>
      <path id="Trazado_7605" data-name="Trazado 7605" d="M954.093,539.964c1.449,2.736,2.953,5.427,4.5,8.112.691,1.2,1.315,2.836,2.619,3.488a6.686,6.686,0,0,0,2.318.5c.8.089,1.555.151,2.329.206,1.51.106,3.026.156,4.535.15s3.488.228,4.368-1.332a13.094,13.094,0,0,0,.791-2.039c.273-.758.546-1.516.813-2.273.535-1.5,1.153-3.031.206-4.519-.892-1.4-2.017-2.686-3.014-4.006-1.087-1.437-2.134-2.92-3.276-4.312-.9-1.1-2.7.323-1.961,1.51,1.4,2.245,2.959,4.4,4.435,6.6.351.518.713,1.031,1.047,1.555a5.466,5.466,0,0,1,.334.613c-.156-.34.017-.234-.095,0-.072.15-.111.323-.173.479-.446,1.17-.925,2.329-1.415,3.482-.123.284-.24.579-.368.864-.022.045-.184.379-.184.373-.15-.206.93-.184.518-.368a3.212,3.212,0,0,0-.919.028c-.368.005-.735.011-1.1.011-1.332,0-2.663-.033-3.989-.111-.641-.039-1.282-.089-1.922-.145a5.148,5.148,0,0,1-1.694-.2,3.907,3.907,0,0,1-.518-.808l-.953-1.655c-1.5-2.6-3.025-5.176-4.613-7.728a1.514,1.514,0,0,0-2.613,1.527h0Z" transform="translate(-850.762 -408.739)" fill="#010d3d"/>
      <path id="Trazado_7606" data-name="Trazado 7606" d="M891.691,555.971c-1.928.535-3.867.986-5.772,1.582s-3.705,1.148-5.549,1.75a4.413,4.413,0,0,0-2.167,1.315,8.013,8.013,0,0,0-1.192,2.624l-1.906,5.616c-.6,1.761-1.187,3.532-1.85,5.271-.34.886-.457,1.833-.78,2.713a18.086,18.086,0,0,1-1.075,2.218,32.787,32.787,0,0,1-5.187,7.126,36.513,36.513,0,0,1-14.7,9.5,34.868,34.868,0,0,1-18.208,1.131,35.286,35.286,0,0,1-9.717-3.5,37.441,37.441,0,0,1-8.385-6.335,1.612,1.612,0,0,0-2.507.323c-2.218,3.867-4.391,7.778-6.38,11.773-.518,1.042-1.131,2.112-.786,3.315a6.635,6.635,0,0,0,1.644,2.39c1.148,1.282,2.385,2.513,3.644,3.689a45.33,45.33,0,0,0,17.941,9.884,53.094,53.094,0,0,0,21.746,1.984,25.462,25.462,0,0,0,6.118-1.5,39.075,39.075,0,0,0,5.717-2.9,79.179,79.179,0,0,0,9.266-6.575,68.907,68.907,0,0,0,8.971-8.787,50.1,50.1,0,0,0,3.755-5.282c.579-.892,1.12-1.811,1.666-2.725a13.837,13.837,0,0,0,1.187-2.9.513.513,0,0,0-.853-.5,21.04,21.04,0,0,0-1.761,2.034c-.507.741-1.031,1.51-1.582,2.245-1.047,1.382-2.2,2.652-3.315,3.967a100.49,100.49,0,0,1-7.3,7.867,70.359,70.359,0,0,1-8.28,6.7,35.015,35.015,0,0,1-10.269,5.377,36.228,36.228,0,0,1-11.417.947,53.791,53.791,0,0,1-9.75-1.32,47.6,47.6,0,0,1-9.277-3.131,39.361,39.361,0,0,1-8.062-5.054,33.056,33.056,0,0,1-4.034-3.711,22.624,22.624,0,0,1-1.543-2.011c-.24-.34-.468-.691-.7-1.036a4.093,4.093,0,0,1-.351-.524c.061.128-.1.379.095-.078.908-2.117,2.095-4.162,3.159-6.212s2.307-4.235,3.527-6.313l-2.507.323a38.908,38.908,0,0,0,16.871,9.522,38,38,0,0,0,19.2.418A39.092,39.092,0,0,0,871.51,583.7a40.471,40.471,0,0,0,2.413-3.895,22.992,22.992,0,0,1,1.231-2.323,12.213,12.213,0,0,0,1.4-2.719c.8-2.073,1.5-4.184,2.206-6.291l1.025-3.065.513-1.532a4.247,4.247,0,0,1,.4-1.075c.145-.2.206-.178.462-.279.574-.212,1.17-.373,1.75-.557l3.115-.992c2.173-.7,4.279-1.515,6.424-2.284,1.672-.6,1.02-3.187-.747-2.7h0Z" transform="translate(-785.017 -418.651)" fill="#010d3d"/>
      <path id="Trazado_7607" data-name="Trazado 7607" d="M945.885,593.567c.791,3.12,1.371,6.3,1.889,9.472a40.6,40.6,0,0,1,.412,4.786c.072,1.616.2,3.187.279,4.781.162,3.209.5,6.4.585,9.617.039,1.549.011,3.109.167,4.652a7.211,7.211,0,0,0,.162,1.2c.106.379.318.7.44,1.059.273.763.529,1.527.875,2.262,1.209,2.574,3.109,4.742,4.2,7.383a28.505,28.505,0,0,1,1.917,8.319,104.321,104.321,0,0,1-.379,18.56c-.312,3.544-.763,7.082-1.354,10.592q-.46,2.725-.964,5.449c-.334,1.816-.708,3.694-.875,5.555a1.261,1.261,0,0,0,1.1,1.248,1.288,1.288,0,0,0,1.393-.908,32.1,32.1,0,0,0,1.237-4.691c.318-1.577.624-3.271.864-4.92.474-3.243.875-6.5,1.17-9.767a130.109,130.109,0,0,0,.563-19.039,38.6,38.6,0,0,0-1.382-8.737,35.1,35.1,0,0,0-3.805-7.867,12.5,12.5,0,0,1-1.733-3.817,4.266,4.266,0,0,1-.017-1,11.146,11.146,0,0,0-.095-1.137c-.067-.769-.084-1.538-.1-2.307-.056-3.243-.2-6.48-.5-9.711a51.753,51.753,0,0,0-.9-5.555c-.362-1.744-.953-3.415-1.332-5.154-.78-3.577-1.8-7.082-2.892-10.575a.471.471,0,0,0-.908.251h0Z" transform="translate(-847.212 -435.063)" fill="#010d3d"/>
      <path id="Trazado_7608" data-name="Trazado 7608" d="M992.418,546.832a56.091,56.091,0,0,1,10.141.334,43.9,43.9,0,0,1,4.669.624,8.317,8.317,0,0,1,3.806,2c1.142,1,2.1,1.945,3.243,2.819a33.9,33.9,0,0,0,3.828,2.5c2.725,1.538,5.577,2.864,8.386,4.24,5.922,2.914,11.728,6.2,18.253,7.555a65.328,65.328,0,0,0,18.871.724c7.605-.652,15.155-2.19,22.66-3.544a1.531,1.531,0,0,0,1.058-1.861,1.556,1.556,0,0,0-1.861-1.059c-12.859,1.967-25.647,6.079-38.768,3.861a40.421,40.421,0,0,1-9.065-2.624c-3.059-1.293-6.029-2.808-9.015-4.257-5.421-2.63-11.472-4.953-15.662-9.444a11.2,11.2,0,0,0-3.939-2.908,29.375,29.375,0,0,0-5.115-1.482,42.6,42.6,0,0,0-11.478-.568,1.586,1.586,0,0,0-1.549,1.549,1.564,1.564,0,0,0,1.549,1.549h0Z" transform="translate(-867.14 -413.195)" fill="#010d3d"/>
      <path id="Trazado_7609" data-name="Trazado 7609" d="M1044.918,579.461a54.192,54.192,0,0,0,3.4,9.979c1.382,3.232,3,6.134,4.2,9.327a30.721,30.721,0,0,1,2.29,9.773c.117,3.666-1.075,7.182-1.3,10.82s.975,7.065,2.557,10.336,3.254,6.43,4.858,9.656a154.655,154.655,0,0,1,8.659,20.042,79.661,79.661,0,0,1,2.986,11.74,56.567,56.567,0,0,1,.685,5.811c.139,2.134-.067,4.318.412,6.408a1.393,1.393,0,0,0,2.663,0,15.451,15.451,0,0,0,.318-5.616c-.1-1.878-.3-3.789-.568-5.672a73.884,73.884,0,0,0-2.318-10.536,134.392,134.392,0,0,0-8.3-20.526c-1.627-3.349-3.315-6.664-5-9.985-1.5-2.959-3.321-6.073-3.594-9.45-.3-3.627.93-7.16,1.22-10.754a23.378,23.378,0,0,0-1.588-10.4,87.393,87.393,0,0,0-5.238-10.653,46.129,46.129,0,0,1-4.842-10.714.778.778,0,0,0-1.5.412h0Z" transform="translate(-891.063 -428.646)" fill="#010d3d"/>
      <path id="Trazado_7610" data-name="Trazado 7610" d="M960.014,764.841a56.832,56.832,0,0,0,8.14,2.151c2.881.641,5.767,1.254,8.675,1.777s5.817.942,8.748,1.2a32,32,0,0,0,4.318.212,15.523,15.523,0,0,0,2.089-.256,21.926,21.926,0,0,1,2.234-.49c.407-.033.813-.072,1.22-.111a1.92,1.92,0,0,0,.986-.206,2.4,2.4,0,0,0,.5-.825c.167-.306.34-.607.529-.9a9.414,9.414,0,0,1,2.814-3.193l-1.532-.624a44.051,44.051,0,0,0,2.2,4.223,3.97,3.97,0,0,0,1.426,1.716,5.917,5.917,0,0,0,2.518.54,79.746,79.746,0,0,0,9.856.268c3.287-.106,6.68-.385,10.007-.73,1.644-.173,3.282-.357,4.925-.546a30.567,30.567,0,0,0,4.5-.646,5.171,5.171,0,0,0,3.51-2.674,3.207,3.207,0,0,0-.847-4.151c-.713-.518-1.911.357-1.56,1.2a1.876,1.876,0,0,1-.3,2.039,4.381,4.381,0,0,1-2.764,1.109c-2.741.412-5.522.663-8.285.936a102.349,102.349,0,0,1-17.133.507c-.774-.056-1.549-.123-2.323-.212a1.494,1.494,0,0,1-1.248-.691c-.975-1.254-1.688-2.714-2.747-3.9a1.053,1.053,0,0,0-1.638.212c-.663.891-1.454,1.671-2.084,2.6a13.909,13.909,0,0,0-1.482,2.981l.708-.541c-.54.045-1.081.056-1.621.061a7.7,7.7,0,0,1-1.855-.273,24.585,24.585,0,0,0-3.549-.479c-2.3-.15-4.586-.318-6.864-.641-4.63-.646-9.21-1.61-13.773-2.619a56.982,56.982,0,0,1-7.5-1.933,1.523,1.523,0,0,0-1.861,1.059,1.547,1.547,0,0,0,1.059,1.861h0Z" transform="translate(-852.978 -509.651)" fill="#010d3d"/>
      <path id="Trazado_7611" data-name="Trazado 7611" d="M958.424,553.4c1.828,7.3,5.026,14.186,8.2,20.978a47.981,47.981,0,0,0,2.686,5.109,46.3,46.3,0,0,0,3.182,4.391c2.452,3.081,4.942,6.129,7.416,9.193s5.015,6.759,8.268,9.3a.847.847,0,0,0,1.426-.591c.112-3.806-.033-7.661-.251-11.461s-.529-7.628-.981-11.422a224.222,224.222,0,0,0-3.722-22.159,28.646,28.646,0,0,0-4.045-10.252c-.6-.852-2.006-.05-1.41.825a26.307,26.307,0,0,1,3.6,8.948c.813,3.482,1.41,7.031,2.028,10.553a220.363,220.363,0,0,1,2.881,22.276c.145,2.089.24,4.179.3,6.274s-.017,4.274-.061,6.419l1.259-.719c-2.858-2.2-5.031-5.276-7.3-8.046l-7.31-8.9c-1.148-1.4-2.3-2.8-3.332-4.285a38.956,38.956,0,0,1-2.864-4.97c-1.621-3.271-3.142-6.6-4.6-9.946a79.73,79.73,0,0,1-4.212-11.834.592.592,0,0,0-1.142.312h0Z" transform="translate(-852.758 -414.314)" fill="#010d3d"/>
      <path id="Trazado_7612" data-name="Trazado 7612" d="M982.721,565.371c.234,2.413.535,5.165-.669,7.388a5.758,5.758,0,0,1-1.978,2.19,13.6,13.6,0,0,1-2.819.858.4.4,0,0,0-.178.663c.947.825,2.284.451,3.3-.078a6.469,6.469,0,0,0,2.641-2.608c1.41-2.6.953-5.744.568-8.536-.067-.49-.919-.379-.875.117h0Z" transform="translate(-860.975 -422.641)" fill="#010d3d"/>
      <path id="Trazado_7613" data-name="Trazado 7613" d="M987.787,568.578c.964,1.928,2.067,4.067,4.056,5.115a5.436,5.436,0,0,0,2.9.646,3.351,3.351,0,0,0,1.4-.423,1.91,1.91,0,0,0,.9-1.137.36.36,0,0,0-.435-.435,9.728,9.728,0,0,0-1.087.39,5.757,5.757,0,0,1-1.142.262,3.834,3.834,0,0,1-2.245-.524c-1.655-.936-2.591-2.814-3.443-4.435-.318-.607-1.22-.072-.919.535h0Z" transform="translate(-865.741 -423.898)" fill="#010d3d"/>
      <path id="Trazado_7614" data-name="Trazado 7614" d="M1013.523,662.58l.635,3.064a1.715,1.715,0,0,0,.763,1,1.692,1.692,0,0,0,1.281.167,1.71,1.71,0,0,0,1-.763,1.826,1.826,0,0,0,.167-1.282l-.624-3.07a1.672,1.672,0,0,0-2.056-1.165,1.707,1.707,0,0,0-1,.769,1.841,1.841,0,0,0-.167,1.287h0Z" transform="translate(-877.146 -464.946)" fill="#010d3d"/>
      <path id="Trazado_7615" data-name="Trazado 7615" d="M1019.26,686.774l1.014,4.223a1.673,1.673,0,1,0,3.226-.886l-1.014-4.223a1.673,1.673,0,0,0-3.226.886Z" transform="translate(-879.685 -475.656)" fill="#010d3d"/>
      <path id="Trazado_7616" data-name="Trazado 7616" d="M1023.217,715.393l1.081,4.19a1.693,1.693,0,0,0,2.056,1.17,1.723,1.723,0,0,0,1.17-2.056l-1.081-4.19a1.693,1.693,0,0,0-2.056-1.17,1.723,1.723,0,0,0-1.17,2.056Z" transform="translate(-881.436 -488.329)" fill="#010d3d"/>
      <path id="Trazado_7617" data-name="Trazado 7617" d="M1026.61,743.054a8.923,8.923,0,0,1,.318,1.426l-.061-.446c.028.217.05.429.067.646a3.547,3.547,0,0,0,.1,1.036l.167.4a1.255,1.255,0,0,0,.423.463,1.566,1.566,0,0,0,1,.357,1.988,1.988,0,0,0,.836-.223,1.834,1.834,0,0,0,.758-.986,2.633,2.633,0,0,0,.061-1.086c-.028-.368-.078-.73-.128-1.092a8.866,8.866,0,0,0-.312-1.371,1.746,1.746,0,0,0-.769-1,1.663,1.663,0,0,0-1.287-.167,1.707,1.707,0,0,0-1,.769,1.725,1.725,0,0,0-.167,1.287h0Z" transform="translate(-882.94 -500.584)" fill="#010d3d"/>
      <path id="Trazado_7618" data-name="Trazado 7618" d="M1060.616,608.892c14.325,3.131,29.6,6.5,44.156,2.836a42.74,42.74,0,0,0,10.882-4.363,1.3,1.3,0,0,0-1.315-2.245c-12.275,7.188-27.14,7.026-40.752,4.781-4.218-.7-8.4-1.554-12.592-2.413-.914-.19-1.309,1.209-.39,1.41h0Z" transform="translate(-897.784 -440.353)" fill="#010d3d"/>
      <path id="Trazado_7619" data-name="Trazado 7619" d="M895.432,422.557c1.783-.685,3.6-1.27,5.382-1.95s3.655-1.41,5.483-2.117,3.572-1.382,5.36-2.067,3.722-1.2,5.555-1.872l-2.117-1.2a35.337,35.337,0,0,1,2.128,11.461c.039,3.36-.507,6.853-2.752,9.422a11.334,11.334,0,0,1-3.7,2.825,16.223,16.223,0,0,1-1.844.613,12.74,12.74,0,0,1-2.089.618,6.824,6.824,0,0,1-4.034-.585,7.16,7.16,0,0,1-3.1-3.521,32.418,32.418,0,0,1-1.677-5.633c-.585-2.307-1.075-4.63-1.633-6.942-.2-.825-1.621-.674-1.521.206a41.372,41.372,0,0,0,3.833,13.968,8.991,8.991,0,0,0,4.346,4.53,5.775,5.775,0,0,0,2.792.423,3.111,3.111,0,0,0,2.4-1.432.521.521,0,0,0-.579-.758,4.918,4.918,0,0,1-4.569-.39,10.339,10.339,0,0,1-3.081-4.3,39.545,39.545,0,0,1-3.588-12.046l-1.521.206c.552,2.218,1.176,4.413,1.7,6.636a45.916,45.916,0,0,0,1.555,5.705,10.172,10.172,0,0,0,2.919,4.329,8.463,8.463,0,0,0,2.1,1.281,11.9,11.9,0,0,0,2.312.847,10.52,10.52,0,0,0,5.327-.039,14.143,14.143,0,0,0,4.981-2.92,15.52,15.52,0,0,0,4.87-10.909,35.19,35.19,0,0,0-2.268-14.52,1.746,1.746,0,0,0-2.117-1.2c-1.839.708-3.6,1.6-5.432,2.323s-3.649,1.432-5.477,2.156-3.555,1.432-5.327,2.173c-1.872.786-3.688,1.677-5.555,2.485-1.231.529-.345,2.674.919,2.184h0Z" transform="translate(-824.199 -354.532)" fill="#343d64"/>
      <path id="Trazado_7620" data-name="Trazado 7620" d="M940.329,419.854a7.708,7.708,0,0,1,1.387-3.02,12.859,12.859,0,0,1,1.248-1.12,4.613,4.613,0,0,1,1.237-.908c.112-.061.223-.117.34-.173-.223.106.2-.072.206-.078a6.525,6.525,0,0,1,.735-.206q.226-.05.451-.084c-.223.033.028,0,.122,0,.279-.017.557-.006.836,0s-.061-.022.112,0c.123.022.245.045.368.072q.217.05.435.117c.022.006.457.184.178.056a4.133,4.133,0,0,1,.652.362,1.683,1.683,0,0,0,.624.334c.145.033,1.209-.017.657.022.669-.05,1.465-.591,1.371-1.371a1.908,1.908,0,0,0-.925-1.649,5.371,5.371,0,0,0-.786-.429,7.346,7.346,0,0,0-2.385-.613,7.622,7.622,0,0,0-4.234.9,6.575,6.575,0,0,0-3.014,3.193,17.8,17.8,0,0,0-1.387,4.1c-.195,1.142,1.471,1.655,1.772.49Z" transform="translate(-843.963 -354.538)" fill="#343d64"/>
      <path id="Trazado_7621" data-name="Trazado 7621" d="M956.525,396.368c0,1.2.095,2.4.078,3.6a30.76,30.76,0,0,0,.072,3.583,49.03,49.03,0,0,0,1.348,7.277,18.021,18.021,0,0,0,2.5,6.357,8.557,8.557,0,0,0,4.675,3.2,10.878,10.878,0,0,0,10.43-2.964c2.964-3,4.246-7.26,4.485-11.389a31.612,31.612,0,0,0-.669-8c-.268-1.337-.6-2.658-.975-3.967a8.963,8.963,0,0,0-.825-1.967,12.662,12.662,0,0,1-.713-1.839,1.451,1.451,0,0,0-1.376-1.047c-3.494.446-7.037.5-10.419,1.6a21.263,21.263,0,0,0-2.429,1.048,11.37,11.37,0,0,0-2.2,1.449,19.542,19.542,0,0,1-2.089,1.209,5.358,5.358,0,0,0-1.928,1.922c-.5.825.463,1.543,1.22,1.22a9.246,9.246,0,0,0,2.067-1.248,5.329,5.329,0,0,1,1.917-1.12c1.526-.373,3.064-.763,4.58-1.2a53.983,53.983,0,0,1,9.283-2.023l-1.376-1.047c.156.5.318,1,.457,1.51s.095,1.053.212,1.582c.251,1.109.635,2.2.9,3.31a31.714,31.714,0,0,1,.9,6.134,16.449,16.449,0,0,1-2.491,10.213,7.6,7.6,0,0,1-7.316,3.4c.279.039-.106-.022-.173-.039-.15-.033-.3-.061-.446-.1-.178-.045-.351-.095-.524-.156.006,0-.546-.212-.256-.084a4.575,4.575,0,0,1-1.7-1.176c-1.232-1.309-1.672-3.259-2.128-4.942-.635-2.323-1.092-4.675-1.538-7.043-.229-1.22-.518-2.413-.752-3.627a26.807,26.807,0,0,1-.346-3.633,1.224,1.224,0,0,0-2.446,0h0Z" transform="translate(-851.851 -344.825)" fill="#343d64"/>
      <path id="Trazado_7622" data-name="Trazado 7622" d="M883.58,429.866q-6.962,2.357-13.679,5.371a1.764,1.764,0,0,0-.63,2.4,1.8,1.8,0,0,0,2.4.63q6.293-2.816,12.843-5.02a1.8,1.8,0,0,0,1.226-2.156,1.772,1.772,0,0,0-2.156-1.226h0Z" transform="translate(-813.189 -362.795)" fill="#343d64"/>
      <path id="Trazado_7623" data-name="Trazado 7623" d="M802.266,606.38a25.259,25.259,0,0,0-4.234-3.232,8.893,8.893,0,0,0-5.321-1.376c-1.911.245-3.895,1.281-4.179,3.293.011-.084-.061.373-.067.457a3.511,3.511,0,0,0,.006.485,3.441,3.441,0,0,0,.457,1.415,4.158,4.158,0,0,0,1.816,1.56,22.308,22.308,0,0,0,3.065.858,6.8,6.8,0,0,1,1.326.568,4.508,4.508,0,0,0,1.192.6l-.54-.412q-.008-.226,0-.033v.195q.008.267.033.535a8.754,8.754,0,0,0,.167,1.07,7.227,7.227,0,0,0,.724,1.961c.54.975,1.644,1.933,2.691,1.059a.42.42,0,0,0-.184-.7c-1.75-.646-1.6-3.02-1.738-4.491a1.382,1.382,0,0,0-.563-1.153,7.435,7.435,0,0,0-1.075-.63,13.827,13.827,0,0,0-2.713-.936,3.439,3.439,0,0,1-1.967-.942c-.206-.273-.095-.357-.134-.568-.034-.173.022.05-.072.117a1.222,1.222,0,0,0,.173-.167c.156-.167.284-.345.451-.507.986-.942,2.819-1,4.212-.819a7.7,7.7,0,0,1,2.691,1.109,21.663,21.663,0,0,1,2.674,1.811c.786.607,1.905-.446,1.12-1.12h0Z" transform="translate(-777.503 -438.933)" fill="#010d3d"/>
      <path id="Trazado_7624" data-name="Trazado 7624" d="M797.8,600.071c-.908-.958-1.878-1.85-2.858-2.736s-1.844-1.861-2.836-2.7a26.736,26.736,0,0,0-7.037-3.973,31.227,31.227,0,0,0-7.511-2.1,7.515,7.515,0,0,0-3.867.05,2.786,2.786,0,0,0-2.017,2.557c.022,1.515,1.382,2.357,2.446,3.193,1.415,1.114,2.836,2.218,4.2,3.4l.847-1.454c-3.025-1.22-6.708-1.61-9.756-.189a1.209,1.209,0,0,0-.557,1.376,8.971,8.971,0,0,0,3.377,4.062,11.538,11.538,0,0,0,2.585,1.181c1.025.34,2,.841,3.014,1.231l.362-2.658a12.69,12.69,0,0,0-6.107,1.036c-.93.407-2.062.925-2.39,1.978a2.415,2.415,0,0,0,1.031,2.518,11.2,11.2,0,0,0,4.469,2.5,44.648,44.648,0,0,0,5.115,1.371v-2.83a2.882,2.882,0,0,0-2.245,2.758,3.578,3.578,0,0,0,1.761,3.193,8.987,8.987,0,0,0,3.828,1.1c.769.1,1.532.212,2.3.323a3.911,3.911,0,0,0,2.407-.412.536.536,0,0,0,.106-.836,3.658,3.658,0,0,0-1.387-.869,10.865,10.865,0,0,0-1.805-.34,29.34,29.34,0,0,1-2.959-.518c-.613-.161-1.326-.407-1.426-1a1.556,1.556,0,0,1,.128-.613c-.067.223.156-.15-.017.039-.128.078-.111.072.033-.017-.128.067-.111.078.061.028a1.46,1.46,0,0,0,1.053-1.61,1.479,1.479,0,0,0-1.443-1.27,18.788,18.788,0,0,1-5.059-.5,10.063,10.063,0,0,1-2.14-.986c-.412-.262-1.594-.986-1.549-1.521l-.162.591c.128-.3.975-.574,1.287-.7a10.21,10.21,0,0,1,1.61-.513,10.517,10.517,0,0,1,3.493-.189,1.363,1.363,0,0,0,1.354-1.354,1.377,1.377,0,0,0-1.354-1.354,15.836,15.836,0,0,1-2.413-.184,7.99,7.99,0,0,1-2.24-.964,4.052,4.052,0,0,1-2.284-2.992l-.891,1.176c.7-.139,1.376-.368,2.084-.49a18.79,18.79,0,0,1,2.05-.212,14.156,14.156,0,0,1,4.223.345.873.873,0,0,0,.669-1.588c-1.1-.813-2.162-1.677-3.226-2.541-.49-.4-.975-.8-1.465-1.192-.346-.284-.975-.691-1.036-1.181-.011-.078-.128.084,0-.022a.854.854,0,0,1,.368-.084c-.039,0,.318.022.4.022.117.006.24.017.357.028.323.033-.345-.061.189.022,1.059.167,2.117.345,3.17.552a41.057,41.057,0,0,1,6.5,1.917c2.112.8,3.934,1.816,5.884,2.775a22.087,22.087,0,0,1,3.382,1.8,27.443,27.443,0,0,1,2.947,2.524.67.67,0,0,0,.947-.947h0Z" transform="translate(-768.795 -433.003)" fill="#010d3d"/>
      <path id="Trazado_7625" data-name="Trazado 7625" d="M931.236,373.586c.518,2.769.969,5.549,1.543,8.307s.88,5.421,1.683,8.051c.4,1.293.68,2.619,1.148,3.889.5,1.36,1.092,2.686,1.727,3.989a39.745,39.745,0,0,0,4.43,7.059c1.828,2.335,4.023,4.324,6.045,6.486a24.1,24.1,0,0,1,4.669,7.037,33.953,33.953,0,0,1,2.229,16.515c-1.02,10.815-6.981,21-16.816,25.975a26.4,26.4,0,0,1-7.316,2.424,47.389,47.389,0,0,1-9.444.468c-5.728-.139-11.656-.852-16.882-3.354a31.226,31.226,0,0,1-11.907-10.458,67.057,67.057,0,0,1-4.352-7.633c-.724-1.4-1.493-2.758-2.128-4.2s-1.086-2.869-1.789-4.212a28.513,28.513,0,0,1-1.75-4.285.7.7,0,0,0-1.343.373,45.026,45.026,0,0,1,1.12,4.742,31.16,31.16,0,0,0,1.4,4.652c.513,1.51,1,3.2,1.677,4.719a44.842,44.842,0,0,0,2.184,4.2,38.983,38.983,0,0,0,11.439,12.787c5.109,3.516,11.194,5.087,17.295,5.694a73.006,73.006,0,0,0,9.433.3,34.61,34.61,0,0,0,9.377-1.426c11.2-3.538,19.3-13.3,22.1-24.532a40.906,40.906,0,0,0,.373-18.242,30.484,30.484,0,0,0-3.087-8.385,34.281,34.281,0,0,0-5.75-7.221,45.01,45.01,0,0,1-5.644-6.536,45.774,45.774,0,0,1-3.967-7.36c-.546-1.254-1.215-2.479-1.677-3.761-.49-1.36-1.014-2.708-1.5-4.067-.964-2.7-1.644-5.46-2.39-8.229-.362-1.348-.624-2.73-.908-4.1-.167-.791-1.348-.451-1.2.334h0Z" transform="translate(-818.461 -337.561)" fill="#010d3d"/>
    </g>
    <g id="Grupo_4716" data-name="Grupo 4716" transform="translate(574.669 294.59)">
      <g id="Grupo_4714" data-name="Grupo 4714">
        <path id="Trazado_7626" data-name="Trazado 7626" d="M845.21,714.938c-3.789-.763-7.706-1.621-10.943-3.833a34,34,0,0,0-4.48-3.009c-.24-.111-.485-.212-.73-.307q2.39-.978,4.853-1.794a1.94,1.94,0,0,0,.847-3.2c-2.964-2.875-7.271-2.452-10.993-1.677a17.622,17.622,0,0,0-6.056,2.279,7.429,7.429,0,0,1-2.2,1.114c-.05-.011-.6.067-.463.067-.117.005-.228.011-.34.005.078-.017-.19-.1-.078,0a.93.93,0,0,0-.128-.078c-.078-.078-.089-.084-.028,0a1.728,1.728,0,0,0-2.3-.6,1.622,1.622,0,0,0-.607.635,2.082,2.082,0,0,0-.641.056,19.043,19.043,0,0,0-8.486,4.647,3.279,3.279,0,0,0-1.109,2.5,2.956,2.956,0,0,0,1.755,2.468,8.163,8.163,0,0,0,1.059.418c.011.006.34.134.373.139.084.039.167.078.251.123a6.911,6.911,0,0,1,.847.524.836.836,0,0,0,.067.056c.151.134.3.262.446.407a6.2,6.2,0,0,1,1.716,2.9,3.739,3.739,0,0,1,.111,1.621,15.62,15.62,0,0,0-.184,2.546c.162,1.995,1.376,3.2,2.914,4.3q2.089,1.5,4.279,2.83c1.627.992,3.867,2.541,5.627.891a2.982,2.982,0,0,0,.964-2.273,41.028,41.028,0,0,1,5.527.624c1.677.334,3.588.869,4.7-.88a5.439,5.439,0,0,0,.618-1.95c.05-.245.1-.49.145-.735,1.66-.228,3.315-.5,4.948-.864a4.079,4.079,0,0,0,2.842-1.516,3.715,3.715,0,0,0,.245-3.115,6.7,6.7,0,0,0-.54-1.27,10.685,10.685,0,0,0,5.566-.914,1.727,1.727,0,0,0-.407-3.126Zm-39.621.446c-.061-.05-.134-.117,0,0Z" transform="translate(-675.042 -474.356)" fill="#fff"/>
        <path id="Trazado_7627" data-name="Trazado 7627" d="M809.137,702.162c4.129,2.619,8.8.067,12.921-1.1a9.215,9.215,0,0,1,6.792.44,13.2,13.2,0,0,1,2.881,1.688,2.476,2.476,0,0,1,.4.435c.262.373.006-.028.123.017-.011,0,.061-.017-.011-.039a2.509,2.509,0,0,0-.362.095c-.307.067-.618.117-.919.184a30.266,30.266,0,0,0-7.851,2.825,1.273,1.273,0,0,0,.3,2.3c3.627,1.2,7.232,2.413,10.8,3.778a50.872,50.872,0,0,1,4.9,1.945c1.17.6,2.351,1.5,2.273,2.908l1.209-1.588a14.775,14.775,0,0,1-8.642.719,32.238,32.238,0,0,1-4.608-1.326c-.736-.267-1.465-.552-2.19-.841a10.71,10.71,0,0,0-2.674-.891,1.817,1.817,0,0,0-1.805,1.594,1.86,1.86,0,0,0,1.315,2.017,5.158,5.158,0,0,0,1.683.373l-.713-.195c2.318,1.164,4.859,1.549,7.321,2.3,1.978.6,4.012,1.488,4.987,3.416l.5-1.922a11.341,11.341,0,0,1-7.617,1.566,21.43,21.43,0,0,1-4.335-.986c-.8-.256-1.588-.535-2.368-.83a11.1,11.1,0,0,0-2.6-.814,1.792,1.792,0,0,0-1.805,1.594,1.814,1.814,0,0,0,1.315,2.017,6.222,6.222,0,0,1,1.638.312c.529.24,1.036.591,1.538.88q1.421.811,2.831,1.632c.474.273.942.546,1.415.819a3.628,3.628,0,0,1,.563.345c.306.256.078.2.173.039-.022.045.072-.524.111-.412a2.5,2.5,0,0,1-.312.072,6.521,6.521,0,0,1-1.276-.056,39.558,39.558,0,0,1-11.912-3.059,1.568,1.568,0,0,0-1.989.4,1.539,1.539,0,0,0,.122,2.028l6.135,5.5.864-2.089a14.613,14.613,0,0,1-6.246-1.332,18.033,18.033,0,0,1-5.382-3.571,11.36,11.36,0,0,1-1.984-2.452,6.567,6.567,0,0,1-.708-2.942,8.987,8.987,0,0,0-.964-3.8,9.678,9.678,0,0,0-1.939-2.368c-.791-.724-1.655-1.348-2.485-2.023a13.092,13.092,0,0,0-1.482-1.192,15.093,15.093,0,0,1-1.382-.83c-1.209-.88-3.243.607-2.647,2.034a12.2,12.2,0,0,0,.708,1.493,5.715,5.715,0,0,0,1.6,1.7c.78.591,1.582,1.159,2.379,1.722.273.189-.256-.212,0,0,.072.061.145.117.217.173q.284.234.552.485c.178.167.345.334.507.518.061.067.117.134.173.206.156.178-.156-.273.039.067.117.206.24.412.362.618.045.072.145.357.011,0,.044.117.083.24.122.362a16.1,16.1,0,0,1,.4,2.117,10.945,10.945,0,0,0,3.928,6.38,20.021,20.021,0,0,0,6.313,3.8,24.247,24.247,0,0,0,7.9,1.281,1.236,1.236,0,0,0,.864-2.089l-5.678-5.956-1.872,2.424a31.925,31.925,0,0,0,7.544,2.574,36.206,36.206,0,0,0,4.162.546,13.49,13.49,0,0,0,3.577,0,2.6,2.6,0,0,0,2.2-1.956c.267-1.437-.847-2.357-1.961-2.992-1.181-.674-2.374-1.337-3.56-2-.635-.357-1.27-.708-1.906-1.059a5.285,5.285,0,0,1-1.471-1.41l-2.229,2.886a10.771,10.771,0,0,0,2.663,1.025c.864.29,1.677.54,2.524.769a24.5,24.5,0,0,0,5.388.88,13.5,13.5,0,0,0,8.982-2.825,1.405,1.405,0,0,0,.217-1.7,11,11,0,0,0-5.895-4.374c-2.357-.852-5.087-1.176-7.416-2.357l.507.507c-.323-.479-.747-.869-1.114-1.32l-2.223,2.886a10.848,10.848,0,0,0,2.6,1.092c.83.312,1.627.6,2.452.864a29.93,29.93,0,0,0,5.015,1.226,17.4,17.4,0,0,0,10.241-1.254,1.615,1.615,0,0,0,.813-1.421,5.844,5.844,0,0,0-2.8-4.758,22.015,22.015,0,0,0-5.661-2.162c-2.011-.63-4.056-1.192-6.034-1.911l-6.1-2.217.3,2.3a36.71,36.71,0,0,1,7.444-2.808c1.125-.284,2.323-.6,2.6-1.911.256-1.242-.713-2.318-1.649-2.97a14.048,14.048,0,0,0-7.227-2.725c-2.7-.095-5.215,1.02-7.7,1.911-2.452.88-5.388,1.644-7.773.184-1.025-.624-1.945.964-.936,1.6h0Z" transform="translate(-672.205 -473.447)" fill="#010d3d"/>
        <path id="Trazado_7628" data-name="Trazado 7628" d="M662.263,661.737c1.822-28.327,11.4-75.347,9.483-101.339-.914-27.731-27.563-34.433-47.4-21.067-30.338,20.8-43.972,69.218-47.571,104.281-1.131,7.171-4.346,23.574.446,23.9C594.343,668.663,656.006,673.3,662.263,661.737Z" transform="translate(-574.669 -400.026)" fill="#64d8cc"/>
        <path id="Trazado_7629" data-name="Trazado 7629" d="M700,553.72a10.215,10.215,0,0,0,1.566,3.3,3.406,3.406,0,0,0,.524.568C701.365,556.311,700.663,555.024,700,553.72Z" transform="translate(-630.169 -409.339)" fill="#fff"/>
        <path id="Trazado_7630" data-name="Trazado 7630" d="M731.073,392.019c-1.159-4.1-2.736-8.046-4.151-12.057-.7-1.984-1.354-3.978-1.906-6.012q-.418-1.546-.73-3.115c-.1-.479-.184-.964-.262-1.449-.028-.162-.05-.318-.078-.485,0-.006-.011-.095-.017-.156s-.022-.156-.022-.162c-.017-.162-.033-.323-.05-.49a32.3,32.3,0,0,0-.886-6.212,9.869,9.869,0,0,0-4.273-5.561c-3.973-2.518-8.948-3.209-13.545-3.538a75.794,75.794,0,0,0-26.767,3.048,81.82,81.82,0,0,0-12.759,5.031,36.747,36.747,0,0,0-10.079,6.753,14.592,14.592,0,0,0-4.547,11.3c.184,2.468.8,4.246.6,6.653-.006.022-.028.15-.05.267l-.05.05c-.362.379-.758.719-1.109,1.1a15.923,15.923,0,0,0-1.894,2.507,16.216,16.216,0,0,0-1.9,11.723,12.273,12.273,0,0,0,2.758,5.672,7.254,7.254,0,0,0,6.753,1.984,11.9,11.9,0,0,0,2.619-.791,47.064,47.064,0,0,0,18.03,27.965,42.427,42.427,0,0,0,7.254,4.313c-.089.384-.184.774-.3,1.153-.139.457-.3.9-.474,1.348,0,.006-.033.089-.056.15s-.056.139-.061.145c-.111.256-.234.513-.351.769-.919,1.917-2.045,3.722-3.115,5.555a28,28,0,0,0-3.672,9.087.118.118,0,0,0-.039.017c.084.156.161.318.245.479a.732.732,0,0,1,.106.15c1.906,3.321,3.454,6.825,5.315,10.168.613,1.1,1.265,2.184,1.967,3.232a1.2,1.2,0,0,0,.217-.97,20.592,20.592,0,0,1-.217-6.814,27.294,27.294,0,0,1,.864-3.215c.067-.251.151-.5.24-.747q.075-.226.167-.451c.217-.479.457-.947.708-1.41a22.955,22.955,0,0,1,1.738-2.68c.05-.072.106-.139.156-.212h0l.017-.022s.022-.033.045-.061c.15-.2.306-.39.468-.579.334-.418.674-.83,1.02-1.242q2.39-2.883,4.836-5.733c.8-.942,1.6-1.883,2.4-2.836.3-.362.613-.713.936-1.059.156-.167.323-.34.5-.5.089-.078.173-.15.262-.234l.017-.011a.159.159,0,0,0,.034-.022c.206-.134.407-.251.618-.362.039-.011.3-.128.39-.156.223-.061.451-.117.68-.162a.827.827,0,0,0,.123-.017c.095,0,.251-.011.273-.011a12.214,12.214,0,0,1,1.566.033c.245.017.5.045.741.078,0,0,.089.006.156.017.089.011.273.039.3.039a23.774,23.774,0,0,0,6.937.318,16.583,16.583,0,0,0,5.884-2.095c8.034-4.6,11.166-13.762,13.874-22.059a59.891,59.891,0,0,0,3.148-14.258,38.579,38.579,0,0,0-1.6-13.166Z" transform="translate(-606.359 -320.283)" fill="#fff"/>
        <path id="Trazado_7631" data-name="Trazado 7631" d="M720.062,503.2a.39.39,0,0,0,.072.028l.056.028c-.05-.022-.1-.039-.15-.061A.033.033,0,0,0,720.062,503.2Z" transform="translate(-639.043 -386.963)" fill="#fff"/>
        <path id="Trazado_7632" data-name="Trazado 7632" d="M735.942,315.278a3.6,3.6,0,0,0-.758-1.75,2.542,2.542,0,0,0-1.805-1.109,1.173,1.173,0,0,0-.747.234,8.941,8.941,0,0,0-4.062-2.708c-3.226-1.137-6.842-.613-10.04.34-1.153.34-2.284.752-3.4,1.181q2.073-2.875,4.151-5.745c1.2-1.672,2.24-3.31,1.855-5.455a4.885,4.885,0,0,0-2.725-3.371c-2.92-1.41-6.029-.825-9.049-.095a79.033,79.033,0,0,0-10.263,3.271q-2.466.978-4.859,2.112a3.074,3.074,0,0,0-3.973-1.889,2.115,2.115,0,0,0-1.655-.117A124.475,124.475,0,0,0,654.3,319.312a118.522,118.522,0,0,0-14.13,13.088,10.535,10.535,0,0,0-2.936,4.87,13.089,13.089,0,0,0,.524,5.861,51.542,51.542,0,0,0,3.159,9.361,20.279,20.279,0,0,0,2.591,4.084c.022.2.056.39.089.568A9.047,9.047,0,0,0,644.71,360a2.365,2.365,0,0,0,3.181.919l.318-.162a.688.688,0,0,1,.067.05,23.346,23.346,0,0,0,5.031,2.307,19.02,19.02,0,0,0,2.591.669,10.329,10.329,0,0,0,1.036.15,2.213,2.213,0,0,0,.117.468,2.1,2.1,0,0,0,1.972,1.521,1.018,1.018,0,0,0,.9-.49,1.6,1.6,0,0,0,1.616-1.1c.184-.54.507-1.1.663-1.688,3.048-1.538,3.872-5.249,4.491-8.413.156-.825.306-1.649.451-2.479.234-.54.468-1.081.708-1.616q1.254-2.833,2.513-5.661c.078-.178.162-.362.24-.546.741,2.908,1.677,6.731,5.371,6.736,3.287,0,5.132-3.46,6.658-5.845,1.716-2.7,3.443-5.4,5.171-8.1.886-1.4,1.783-2.791,2.674-4.19.178,1.07.284,1.984.373,3.209a41.87,41.87,0,0,1,.067,4.58c-.033.763-.089,1.527-.162,2.29a9.772,9.772,0,0,0-.1,1.137c.006.429.089.852.072,1.276a2.193,2.193,0,0,0,3.705,1.532c2.719-2.791,4.374-6.486,6.63-9.628,1.114-1.566,2.284-3.1,3.527-4.558.167-.2.34-.4.507-.607.173,3.427.346,6.853.485,10.28a2.309,2.309,0,0,0,2.006,2.262,2.345,2.345,0,0,0,2.53-1.649,37.389,37.389,0,0,1,1.527-3.728c.641-1.22,1.3-2.435,1.894-3.672.507-1.059,1.02-2.123,1.527-3.187.44,1.114.88,2.24,1.332,3.354l.5,1.254c.089.279.178.557.262.836a4.28,4.28,0,0,0,1.159,2c.184.273.379.54.568.808a2.974,2.974,0,0,0,.8,1.159,2.468,2.468,0,0,0,3.733-.156h.017a4.146,4.146,0,0,0,3.739-2.413.426.426,0,0,1,.033-.072l.039-.017a4.462,4.462,0,0,0,1.984-4.964,4.714,4.714,0,0,0-2.34-2.964,6.044,6.044,0,0,1,.579-2.819,22.781,22.781,0,0,1,1.822-3.181,18.493,18.493,0,0,1,2.073-2.552c.836-.875,1.789-1.616,2.647-2.463,1.2-1.187,2.262-2.83,1.9-4.591Z" transform="translate(-602.308 -295.23)" fill="#010d3d"/>
        <path id="Trazado_7633" data-name="Trazado 7633" d="M658.972,414.962a2.625,2.625,0,0,0-.8-1.989,7.256,7.256,0,0,0-1.889-1.309,9.123,9.123,0,0,0-4.736-.641,9.651,9.651,0,0,0-4.664,1.655,11.609,11.609,0,0,0-3.4,3.9c-3.365,6.324-1.382,15.835,5.756,18.576,3.41,1.309,9.193.646,10.38-3.427a1.735,1.735,0,0,0-2.518-1.939c-.262.145-.54.245-.8.4l-.412.323c.151-.111.173-.128.05-.045s-.251.173-.384.251c-.262.156-.535.3-.8.44-.078.039-.368.139,0,0-.173.061-.351.123-.524.178a8.555,8.555,0,0,1-.908.206c.435-.072.022-.011-.089,0-.156.011-.312.017-.468.022-.318,0-.63-.017-.942-.045.089.006.407.078,0,0-.184-.039-.373-.072-.557-.117-.307-.078-.6-.178-.9-.284.373.139-.011-.006-.1-.056-.139-.067-.279-.145-.412-.223s-.284-.173-.423-.262c-.067-.045-.423-.306-.156-.095a8.213,8.213,0,0,1-.83-.758,8.031,8.031,0,0,1-.607-.691c.245.312-.151-.228-.156-.24-.078-.111-.15-.228-.223-.345-.178-.3-.346-.6-.5-.9-.061-.123-.117-.251-.178-.373.145.318-.111-.3-.139-.368a13.457,13.457,0,0,1-.535-1.906c-.033-.173-.061-.34-.089-.513-.061-.384.033.479-.022-.178-.033-.379-.061-.758-.061-1.137a9.612,9.612,0,0,1,.6-3.75,8.028,8.028,0,0,1,4.53-5,6.271,6.271,0,0,1,3.594-.173,8.749,8.749,0,0,1,1.75.552,6.919,6.919,0,0,0,1.059.524c.3.089.613.117.919.2a.471.471,0,0,0,.591-.451h0Z" transform="translate(-604.435 -346.118)" fill="#010d3d"/>
        <path id="Trazado_7634" data-name="Trazado 7634" d="M668.225,416.371a50.939,50.939,0,0,1,3.332,11.745l3.388-.936c-.68-3.783-1.794-7.527-2.725-11.26l-3.532.975c2.418,9.645,5.293,20.248,13,27.1a40.206,40.206,0,0,0,13.528,7.611c5.3,1.878,11.054,3.349,16.7,3.3,9.784-.089,18.621-5.589,24.438-13.216,6.38-8.369,8.558-19.351,7.929-29.681-.7-11.489-4.474-22.387-8.971-32.89-.563-1.321-1.12-2.641-1.688-3.962a1.7,1.7,0,0,0-2.307-.607,1.731,1.731,0,0,0-.607,2.307c4.29,9.84,8.341,20.209,9.645,30.934,1.181,9.756.111,20.259-4.992,28.834a31.839,31.839,0,0,1-8.6,9.478,27.263,27.263,0,0,1-11.662,4.859c-.2.033-.217.033-.535.067-.273.028-.552.056-.825.078-.652.05-1.3.072-1.956.072a29.374,29.374,0,0,1-4.017-.273,54.5,54.5,0,0,1-8.04-1.828,44.28,44.28,0,0,1-12.865-5.856,28.124,28.124,0,0,1-9.054-10.441,62.321,62.321,0,0,1-4.7-13.322c-.3-1.181-.591-2.368-.891-3.549-.574-2.284-4.106-1.32-3.533.975.931,3.727,1.7,7.555,2.87,11.216.685,2.139,3.989,1.259,3.388-.936a39.967,39.967,0,0,0-5.037-11.522c-.54-.813-2.095-.312-1.683.708h0Z" transform="translate(-616.067 -329.903)" fill="#010d3d"/>
        <path id="Trazado_7635" data-name="Trazado 7635" d="M734.444,368.664a13.449,13.449,0,0,0-.368-2.83,15.87,15.87,0,0,0-1.064-2.669,26.35,26.35,0,0,0-2.9-4.9,1.42,1.42,0,0,0-2.557.334c-1.265,4.808-2.9,10.514-7.789,12.815l1.956,1.12-.708-13.779a1.277,1.277,0,0,0-2.357-.641q-2.265,3.243-4.53,6.48l-2.223,3.181c-.7,1-1.348,2.062-2.123,3-.641.786-2.569,2.881-3.688,1.905-.607-.529-.513-1.61-.474-2.329.067-1.209.2-2.418.3-3.622l.741-8.826c.111-1.3-1.733-1.627-2.34-.635q-4.028,6.569-8.073,13.116L694.2,373.7a13.293,13.293,0,0,1-1.8,2.591c-1.259,1.243-2.992.719-4.123-.435-1.621-1.649-1.66-4.3-1.789-6.452a1.215,1.215,0,0,0-2.374-.323c-1.822,5.343-3.772,10.642-6.034,15.818q-.861,1.972-1.75,3.928a10.578,10.578,0,0,1-1.549,3.014c-1.382,1.4-2.747-1.945-3.014-2.864a1.136,1.136,0,0,0-2.19.6c.513,1.7,1.488,3.661,3.165,4.474,2.028.986,3.761-.44,4.6-2.234,2.134-4.569,4.028-9.266,5.934-13.935q1.655-4.053,3.17-8.163l-2.374-.323c.084,2.457.245,5.193,1.688,7.282a6.114,6.114,0,0,0,5.661,2.786c2.613-.368,3.9-2.842,5.148-4.87l4.658-7.561q2.624-4.254,5.249-8.5l-2.34-.635-.78,8.826c-.117,1.337-.3,2.686-.334,4.034a5.037,5.037,0,0,0,.992,3.438c1.672,1.995,4.268,1.2,6.017-.2a12.479,12.479,0,0,0,2.34-2.591c.88-1.248,1.755-2.5,2.635-3.744q2.917-4.145,5.828-8.285l-2.357-.641.641,13.779a1.318,1.318,0,0,0,1.956,1.12c5.494-2.557,7.605-8.92,9.177-14.314l-2.557.334a49.09,49.09,0,0,1,2.936,4.6c.429.774.763,1.6,1.2,2.374s.964,1.555,1.46,2.329a.627.627,0,0,0,1.159-.312h0Z" transform="translate(-616.673 -322.09)" fill="#010d3d"/>
        <path id="Trazado_7636" data-name="Trazado 7636" d="M644.246,360.9c-1.137-3.421-2.357-6.831-3.438-10.269-.262-.836-.412-1.711-.7-2.541-.323-.919-.63-1.839-.947-2.758-.568-1.666-1.142-3.332-1.738-4.987-.457-1.265-1.365-2.986-.8-4.335a12.633,12.633,0,0,1,2.6-3.17q3.009-3.243,6.274-6.229a108.523,108.523,0,0,1,29.224-19.055,106.323,106.323,0,0,1,18.571-6.224l-2.145-1.22a3.948,3.948,0,0,1-1.215,3.878c-1.432,1.326.446,3.828,2.106,2.73,4.909-3.243,10.035-6.541,15.8-8.012a18.715,18.715,0,0,1,8.146-.39c.307.061.607.123.9.212.123.039.574.212.49.173a6.03,6.03,0,0,1,.63.357c-.139-.111.262.262.228.223-.139-.162.05.067.084.145l.039.072c-.067-.145-.072-.117-.011.078,0,.006-.011-.134-.017-.089a1.794,1.794,0,0,1-.312.669c-.462.741-1.014,1.438-1.527,2.145l-6.558,9.076a1.747,1.747,0,0,0,.273,2.106,1.779,1.779,0,0,0,2.106.273,21.27,21.27,0,0,1,16.275-1.939,14.944,14.944,0,0,1,1.588.535,7.281,7.281,0,0,1,1.488.886c.123.106.234.212.345.329.039.039.29.34.145.145.067.089.334.591.245.373-.011-.028.123.513.089.284s0,.34,0,.312c.006-.089.084-.251-.033.145-.111.362.022.039-.15.379a20.639,20.639,0,0,1-2.608,3.421q-1.5,1.814-3.1,3.538a87.284,87.284,0,0,1-7.784,7.271c-1.594,1.337.117,3.967,1.984,3.41.479-.139.958-.279,1.443-.39.212-.05.424-.095.635-.139.139-.028.284-.05.423-.078-.184.017-.15.017.1-.011a11.762,11.762,0,0,1,1.254-.033c.245.022.273.022.072,0a2.5,2.5,0,0,1,.3.061c.072.017.674.206.373.084a3.744,3.744,0,0,1,.529.29q.3.209.067.05c.067.061.128.123.189.184s.117.128.173.2c-.134-.173-.139-.167-.011.022.022.045.267.546.106.139.078.189.117.384.178.574a1.883,1.883,0,0,1,.05.256c-.028-.234-.028-.234-.011,0,0,.178.011.357,0,.535,0,.117-.017.24-.028.357.028-.189.028-.217,0-.072a6.232,6.232,0,0,1-.329,1.142c.145-.351-.072.128-.111.2a6.46,6.46,0,0,1-.384.624c.184-.267-.089.106-.151.167q-.209.226-.435.435a2.694,2.694,0,0,1-.44.362c-.178.123-.357.24-.54.351a10.37,10.37,0,0,1-2.307,1.042c-1.042.351-1.833.825-2.9,1.092-2.117.529-1.22,3.805.9,3.271.83-.206,1.922-.206,2.83-.5a19.814,19.814,0,0,0,2.8-1.142,9.23,9.23,0,0,0,4.1-3.889,7.793,7.793,0,0,0,.7-5.444,5.891,5.891,0,0,0-4-4.1c-2.162-.68-4.552-.156-6.669.435l1.984,3.41a69.457,69.457,0,0,0,7.572-7.3c1.187-1.321,2.335-2.686,3.427-4.084a19.045,19.045,0,0,0,2.992-4.535c1.354-3.477-1.594-6.212-4.535-7.41a22.8,22.8,0,0,0-9.639-1.471,24.9,24.9,0,0,0-10.965,3.232l2.379,2.379,6.435-8.987c1.02-1.426,2.463-2.964,2.351-4.842a4.369,4.369,0,0,0-2.63-3.549c-2.9-1.4-6.508-1.315-9.617-.869a32.621,32.621,0,0,0-9.349,3.048,83.4,83.4,0,0,0-9.845,5.784l2.106,2.73a7.49,7.49,0,0,0,2.117-7.266,1.78,1.78,0,0,0-2.145-1.22,110.67,110.67,0,0,0-33.609,14.124,113.048,113.048,0,0,0-14.748,11.1q-3.385,3.017-6.513,6.307c-1.042,1.1-2.106,2.2-3.042,3.388a6.293,6.293,0,0,0-1.36,5.343,30.567,30.567,0,0,0,2.006,5.622c.808,2.011,1.527,4.1,2.474,6.045,1.816,3.728,3.248,7.667,4.831,11.5a.99.99,0,0,0,1.181.669.963.963,0,0,0,.669-1.181h0Z" transform="translate(-600.468 -294.59)" fill="#010d3d"/>
        <path id="Trazado_7637" data-name="Trazado 7637" d="M631.747,368.265c-.072-.123-.156-.24-.234-.362l.173.635a1.282,1.282,0,0,0-.39-.981c-.112-.106-.084-.067.072.117a1.462,1.462,0,0,0-.529-.529c-.134-.089-.1-.061.106.095a2.5,2.5,0,0,0-.379-.3,3.084,3.084,0,0,0-.624-.262,6.938,6.938,0,0,0-1.337-.345,6.439,6.439,0,0,0-1.789-.095,9.591,9.591,0,0,0-1.131.189,3.018,3.018,0,0,0-.747.279,2.713,2.713,0,0,0-.847.841,1.892,1.892,0,0,0-.1,1.783,1.833,1.833,0,0,0,1.3,1.159,2.539,2.539,0,0,0,1.493-.106c.189-.078.373-.167.563-.245l-.49.206a7.939,7.939,0,0,1,1.917-.518l-.479.067c.658-.084,1.321.067,1.961-.061l-.412.056c.072-.006.139,0,.206,0,.167,0,.334-.061.5-.072l-.212.039.357-.05a1.281,1.281,0,0,0,.613-.373l-.552.323c-.111.022-.251.028-.056.006l.2-.017a.994.994,0,0,0,.847-1.477h0Z" transform="translate(-596.433 -326.304)" fill="#010d3d"/>
        <path id="Trazado_7638" data-name="Trazado 7638" d="M632.781,360.945l-.061-.111c-.028-.045-.028-.05,0-.006l-.078.613.028-.045a1.041,1.041,0,0,0,0-1.064c-.134-.212-.267-.429-.4-.641l.173.646a1.807,1.807,0,0,0-.29-.964l.145.345a7,7,0,0,0-1.543-2.273,10.527,10.527,0,0,0-.73-.763c-.19-.156-.39-.306-.579-.451a1.708,1.708,0,0,0-.769-.407c-.089-.022-.184-.033-.273-.05a1.843,1.843,0,0,0-1.716.451,1.749,1.749,0,0,0-.451,1.716c.028.095.056.189.089.284a2.463,2.463,0,0,0,.563.925c.139.15.29.3.44.429.4.345.853.641,1.276.953a6.7,6.7,0,0,0,1,.6,5.232,5.232,0,0,0,.836.357c.078.022.145.056.223.078a1.721,1.721,0,0,0,.841,0l-.986-.128.708.334a1.054,1.054,0,0,0,1.064,0l.067-.05-.4.106c-.145,0,.072.056.089.067a.653.653,0,0,0,.735-.953h0Z" transform="translate(-597.472 -321.664)" fill="#010d3d"/>
        <path id="Trazado_7639" data-name="Trazado 7639" d="M717.855,417.433a2.307,2.307,0,1,0-2.307-2.307,2.33,2.33,0,0,0,2.307,2.307Z" transform="translate(-637.053 -346.945)" fill="#010d3d"/>
        <path id="Trazado_7640" data-name="Trazado 7640" d="M777.047,408.467l.033-.022.017-.011s.44-.334.462-.357a1.23,1.23,0,0,0,.178-.234,1.6,1.6,0,0,0,.184-.24c.028-.039.05-.078.078-.117l-.368.479h0l.373-.485.24-.568a1.827,1.827,0,0,0,.045-.947,1.182,1.182,0,0,0-.162-.6,1.166,1.166,0,0,0-.306-.524,1.186,1.186,0,0,0-.423-.423,1.219,1.219,0,0,0-.524-.306,1.779,1.779,0,0,0-.914-.206l-.63.084-.568.24-.479.373-.373.479-.24.568a1.827,1.827,0,0,0-.045.947,1.182,1.182,0,0,0,.162.6,1.752,1.752,0,0,0,.49.763h0l-.368-.474c.028.039.05.078.078.117h0l.357.468h0l.457.357.017.011.033.028a2.167,2.167,0,0,0,2.184,0h0Z" transform="translate(-662.754 -342.998)" fill="#010d3d"/>
        <path id="Trazado_7641" data-name="Trazado 7641" d="M754.354,409.772c.435.546.813,1.125,1.281,1.649s.964.992,1.449,1.482c.908.914,1.861,1.783,2.8,2.663q2.875,2.691,5.784,5.349l11.723,10.737v-1.744a65.48,65.48,0,0,1-9.349,6.045c-1.627.886-3.287,1.7-4.976,2.457s-3.521,1.376-5.249,2.145c-1.516.674-.429,3.076,1.114,2.641a38.378,38.378,0,0,0,5.488-2.229c1.772-.819,3.471-1.7,5.143-2.658a74.946,74.946,0,0,0,9.578-6.653,1.237,1.237,0,0,0,0-1.744l-11.929-10.726q-2.984-2.683-6-5.332c-.969-.852-1.933-1.716-2.936-2.535a38.147,38.147,0,0,0-3.3-2.351c-.529-.34-.964.384-.624.808h0Z" transform="translate(-654.185 -345.201)" fill="#010d3d"/>
        <path id="Trazado_7642" data-name="Trazado 7642" d="M727.022,472.718a3.72,3.72,0,0,0,.178,1.075,9.851,9.851,0,0,0,.474,1.042,8,8,0,0,0,1.343,1.744,12.416,12.416,0,0,0,3.51,2.429,18.11,18.11,0,0,0,4.246,1.382,22.714,22.714,0,0,0,2.374.329,6.789,6.789,0,0,0,2.351-.045,1.261,1.261,0,0,0,0-2.413,12.22,12.22,0,0,0-2.167-.15,17.421,17.421,0,0,1-1.783-.189,16.62,16.62,0,0,1-3.688-1.02,10.761,10.761,0,0,1-3.048-1.883,12.3,12.3,0,0,1-1.309-1.382c-.162-.2-.323-.407-.468-.618-.217-.318-.474-.552-.708-.847a.774.774,0,0,0-1.309.54h0Z" transform="translate(-642.13 -373.129)" fill="#010d3d"/>
        <path id="Trazado_7643" data-name="Trazado 7643" d="M706.674,506.109a5.347,5.347,0,0,0-1.566,1.828c-.446.663-.88,1.3-1.326,1.95-.947,1.371-1.783,2.808-2.635,4.24-1.683,2.814-3.3,5.666-4.942,8.508-1.064,1.844,1.805,3.521,2.853,1.666,1.61-2.858,3.243-5.706,4.808-8.586.774-1.421,1.566-2.836,2.251-4.3.334-.713.669-1.432,1.009-2.14a5.747,5.747,0,0,0,.847-2.418.876.876,0,0,0-1.3-.747h0Z" transform="translate(-628.385 -388.205)" fill="#010d3d"/>
        <path id="Trazado_7644" data-name="Trazado 7644" d="M696.007,524.7a40.879,40.879,0,0,0,.624,4.123,14.9,14.9,0,0,0,1.633,3.945l2.452-1.894a11.644,11.644,0,0,1-2.435-6.051l-2.507.68c1.4,3.137,2.585,6.341,4.2,9.388a29.08,29.08,0,0,0,6.151,8.146,1.322,1.322,0,0,0,2.229-.925c-.078-2.931-.178-5.856-.267-8.787l-.128-4.117c-.039-1.276-.346-2.719.379-3.845,1.521-2.351,3.293-4.569,4.914-6.848s3.388-4.775,5.042-7.188a1.661,1.661,0,0,0-.591-2.251,1.681,1.681,0,0,0-2.251.591q-3.9,5.708-7.633,11.534c-.6.936-1.215,1.861-1.805,2.808a5.508,5.508,0,0,0-.791,3.282c.067,2.29.162,4.574.24,6.864.095,2.652.178,5.31.279,7.962l2.229-.925a27.253,27.253,0,0,1-5.889-7.661,55.843,55.843,0,0,1-3.85-9.06c-.451-1.382-2.7-1.226-2.641.357a16.577,16.577,0,0,0,2.669,7.945,1.561,1.561,0,0,0,2.7-1.571c-.529-1.215-1.164-2.418-1.805-3.572a38.294,38.294,0,0,1-1.883-3.454c-.34-.791-1.376-.167-1.27.535h0Z" transform="translate(-628.215 -389.471)" fill="#010d3d"/>
        <path id="Trazado_7645" data-name="Trazado 7645" d="M695.069,546.855a4.531,4.531,0,0,0-2.167.853c-.769.412-1.527.852-2.29,1.281-1.532.858-3.12,1.582-4.664,2.424l2.145.875c-.507-2.084-1.265-4.084-1.566-6.224a12.132,12.132,0,0,1,.657-6.1c.524-1.415-1.761-2.374-2.44-1.031a12.875,12.875,0,0,0-1.053,7.009,28.933,28.933,0,0,0,1.582,7.115c.29.78,1.326,1.493,2.145.875,1.449-1.092,2.8-2.284,4.262-3.36.691-.513,1.393-1.008,2.073-1.538.618-.479,1.4-.919,1.688-1.677.1-.256-.151-.49-.384-.507h0Z" transform="translate(-622.909 -402.508)" fill="#010d3d"/>
        <path id="Trazado_7646" data-name="Trazado 7646" d="M717.2,546.805a3.2,3.2,0,0,0,1.855.568c.641.044,1.276.028,1.917.022,1.276-.011,2.552-.056,3.828-.089a1.251,1.251,0,0,0,1.192-1.566,17.726,17.726,0,0,0-1.527-3.95,18.962,18.962,0,0,0-1.008-1.722,8.348,8.348,0,0,0-1.3-1.828,1.252,1.252,0,0,0-1.621-.095,1.219,1.219,0,0,0-.318,1.594,6.543,6.543,0,0,0,.758.953,4.026,4.026,0,0,1,.424.585,17.787,17.787,0,0,1,.953,1.677q.2.4.384.819c.061.134.067.156.028.067.033.078.067.156.095.24.061.162.123.323.178.479.217.607.39,1.226.557,1.844l1.192-1.566c-1.3.084-2.6.156-3.906.262-.685.056-1.365.112-2.045.217a3.614,3.614,0,0,0-.908.223,2.661,2.661,0,0,0-.836.54.468.468,0,0,0,.095.73h0Z" transform="translate(-637.675 -402.33)" fill="#010d3d"/>
        <path id="Trazado_7647" data-name="Trazado 7647" d="M749.506,638.459c-33.336-11.74-59.066-38.334-75.631-68.95-4.58-11.478-14.258-6.6-16.214,3.371-.936,5.354.061,10.748,1.571,15.9,9.929,26.928,36.551,51.817,62.56,63.312a134.552,134.552,0,0,0,12.715,4.825c2.942,1.426,6.173,1.109,8.246-1.61,2.691-1.984,10.687-14.643,6.753-16.843Z" transform="translate(-611.259 -413.388)" fill="#64d8cc"/>
        <path id="Trazado_7648" data-name="Trazado 7648" d="M720.651,618.472c-2.151-3.053-4.948-5.589-7.477-8.324-.6-.646-1.242-1.282-1.788-1.972-.635-.791-1.192-1.638-1.861-2.4q-1.872-2.139-3.672-4.34a196.136,196.136,0,0,1-13.144-18.142c-1.137-1.761-2.223-3.555-3.287-5.36-.529-.9-1.031-1.822-1.56-2.725a12.138,12.138,0,0,0-1.945-2.719.739.739,0,0,0-1.226.713,10.772,10.772,0,0,0,1.025,2.7c.4.858.919,1.7,1.393,2.546q1.4,2.474,2.87,4.9c1.995,3.282,4.039,6.486,6.274,9.611s4.6,6.1,7,9.037c1.17,1.438,2.379,2.842,3.6,4.229a27.147,27.147,0,0,0,1.894,2.028c.741.691,1.471,1.365,2.173,2.095,2.886,3.014,5.817,6.279,9.427,8.424.184.106.435-.117.306-.306h0Z" transform="translate(-623.384 -417.555)" fill="#010d3d"/>
        <path id="Trazado_7649" data-name="Trazado 7649" d="M660.82,613.979a38.657,38.657,0,0,0,2.68,6.547c1.031,2.123,2.19,4.229,3.388,6.274a126.136,126.136,0,0,0,7.945,11.94,119.319,119.319,0,0,0,9.188,11.032,100.8,100.8,0,0,0,10.531,9.767,34.6,34.6,0,0,0,3.3,2.4c1.164.713,2.257,1.5,3.343,2.29s2.212,1.571,3.332,2.335a10.1,10.1,0,0,0,1.688.919,20.371,20.371,0,0,0,1.878.853c.507.162.8-.485.49-.836a14.588,14.588,0,0,0-1.231-1.12,14.908,14.908,0,0,0-1.443-1.27q-1.437-1.011-2.842-2.062c-1.867-1.393-3.5-3.009-5.248-4.535-3.549-3.092-7.071-6.24-10.4-9.567a145.118,145.118,0,0,1-18-21.524c-1.477-2.19-2.931-4.4-4.3-6.658s-2.7-4.63-4.274-6.792c-.005-.006-.022,0-.017.006h0Z" transform="translate(-612.819 -436.017)" fill="#010d3d"/>
        <path id="Trazado_7650" data-name="Trazado 7650" d="M743.659,588.926l.312-.312s-.017-.067-.039-.039l-.312.312s.017.067.039.039Z" transform="translate(-649.484 -424.771)" fill="#010d3d"/>
      </g>
      <g id="Grupo_4715" data-name="Grupo 4715" transform="translate(220.838 22.584)">
        <path id="Trazado_7651" data-name="Trazado 7651" d="M1019.766,709.5q-.034-2.491-.156-4.981c-.084-1.783-.19-3.822-2.1-4.63-1.46-.618-3.438-.251-4.976-.106-1.683.15-3.36.379-5.015.685a49.915,49.915,0,0,0-8.787,2.457c-2.764,1.047-5.483,2.19-8.3,3.1-5.772,1.883-12.046,3.538-16.47,7.945a2.262,2.262,0,0,0,0,3.165,2.207,2.207,0,0,0,2.3.5,1.923,1.923,0,0,0,2.022.513c.229-.078.451-.156.674-.228a3.293,3.293,0,0,0-.54,3.031,3.87,3.87,0,0,0,2.7,2.368,4.96,4.96,0,0,0,3.2-.223q.518-.209,1.02-.435c.162-.073.184-.084.173-.084a1.4,1.4,0,0,0,.151-.05,4.6,4.6,0,0,1,.73-.217h.011c-.039.011-.022.017.045.017h.006l.011.011.011.006h0l.011.011a.406.406,0,0,0,.028.033c.033.028.056.061.089.089h0c.006.056.145.44.128.323l.017.05h0a.08.08,0,0,1-.011.022,2.206,2.206,0,0,0-.875,1.738,2.267,2.267,0,0,0,1.1,1.917c1.867,1.187,4.017.557,6.012.128.15-.033.312-.067.468-.089.022,0,.134-.006.24-.011a2.284,2.284,0,0,0,1.042,2.725c3.07,1.449,6.335.535,9.372-.535a51.129,51.129,0,0,0,8.229-3.733c1.242-.7,2.452-1.465,3.622-2.279,1.365-.947,2.836-1.878,3.393-3.533a17.578,17.578,0,0,0,.4-4.992c.039-1.566.045-3.137.028-4.708Z" transform="translate(-972.04 -496.495)" fill="#fff"/>
        <path id="Trazado_7652" data-name="Trazado 7652" d="M1021.807,698.227c-2.769.7-5.627.791-8.436,1.287a22.87,22.87,0,0,0-6.942,2.24,11.452,11.452,0,0,0-5.009,4.7,4.566,4.566,0,0,0-.34,3.549,3.807,3.807,0,0,0,3.354,2.329,14,14,0,0,0,4.569-.54,21.1,21.1,0,0,0,4.435-1.672l-2.713-1.56a5.854,5.854,0,0,0,1.989,4.507c1.3,1.1,3.711,2.039,5.349,1.081a1.7,1.7,0,0,0,.435-2.591c-.685-.73-1.621-.49-2.368-.652a2.05,2.05,0,0,1-.8-.329,2.261,2.261,0,0,1-.5-.457,2.345,2.345,0,0,1-.49-1.56,1.825,1.825,0,0,0-2.714-1.56,16.461,16.461,0,0,1-5.939,1.811,7.475,7.475,0,0,1-1.454.061c.123.011-.245-.095-.145-.039.117.067,0-.156.017-.028a1.4,1.4,0,0,1,.072-.68,3.449,3.449,0,0,1,.485-1.025c2.106-3.22,6.2-4.524,9.756-5.327,2.624-.591,5.265-1.159,7.851-1.894a.864.864,0,0,0-.457-1.666h0Z" transform="translate(-984.233 -495.896)" fill="#010d3d"/>
        <path id="Trazado_7653" data-name="Trazado 7653" d="M990.55,707.778c-4.747,1.477-9.778,2.892-13.985,5.622a28.464,28.464,0,0,0-3.1,2.307,6.908,6.908,0,0,0-2.318,3.115,3.051,3.051,0,0,0,1.248,3.443,4.757,4.757,0,0,0,3.454.4,38.47,38.47,0,0,0,4.541-1.4l4.953-1.649-1.2-2.847A52.217,52.217,0,0,0,977.34,721a7.248,7.248,0,0,0-2.769,2.9,3.242,3.242,0,0,0,.83,3.488c2.134,2.045,5.338.9,7.773.123,2.613-.841,5.154-1.9,7.689-2.959l-1.883-3.232c-1.972,1.538-3.878,3.187-5.789,4.8a4.1,4.1,0,0,0-1.677,2.892,3.5,3.5,0,0,0,1.855,3.081c2.2,1.276,4.931-.084,7.07-.869,1.215-.446,2.424-.914,3.655-1.321s2.48-.752,3.689-1.215l-2.162-3.711L991.626,729c-1.421,1.432-3.143,3.321-1.989,5.471a4.12,4.12,0,0,0,4.151,1.861,45.407,45.407,0,0,0,5.549-1.2,63.618,63.618,0,0,0,10.23-2.864,38.54,38.54,0,0,0,9.054-5.432,46.762,46.762,0,0,0,4.14-3.572,9.756,9.756,0,0,0,1.176-1.32c.307-.44.462-.786.735-1.164a6.184,6.184,0,0,0,1.076-2.574.95.95,0,0,0-1.153-1.153,5.544,5.544,0,0,0-1.995.7c-.318.206-.719.5-.969.652a11.3,11.3,0,0,0-1.259.791c-1.114.9-2.128,1.911-3.209,2.842-.54.463-1.086.919-1.644,1.365-.123.1-.245.2-.373.3-.6.474.173-.128-.184.145s-.7.518-1.047.769c-1.148.819-2.346,1.577-3.566,2.279a31.017,31.017,0,0,1-8.252,3.187c-1.6.418-3.221.8-4.831,1.2-.808.2-1.621.39-2.435.579l-1.1.251c-.368.083-.011,0,.067,0-.173.011-.34.022-.513.022-.111,0-.228-.005-.34-.017.6.067.006-.078-.061-.061.117-.022.524.351.4.217q-.309-.318.3.552a.793.793,0,0,1,.006.379,1.642,1.642,0,0,1-.173.368c-.017-.039.334-.34.362-.368.351-.334.7-.674,1.031-1.02l3.961-4.051a2.221,2.221,0,0,0-2.162-3.711c-1.95.763-3.828,1.716-5.772,2.507-1.059.429-2.112.858-3.159,1.309a7.58,7.58,0,0,1-2.184.769.561.561,0,0,1-.279-.028c-.117-.033-.123-.039-.011,0,.078.078.072.078-.011-.011-.061-.234.045.078.045.106s-.05.318-.045.345q-.134.125,0-.017a1.95,1.95,0,0,1,.212-.217c.123-.117.251-.223.384-.329.373-.307.747-.607,1.126-.908,1.6-1.293,3.254-2.541,4.814-3.884a1.922,1.922,0,0,0,.15-2.541,1.964,1.964,0,0,0-2.5-.5c-1.939.942-3.884,1.906-5.878,2.725q-1.521.627-3.076,1.142c-.708.234-1.917.735-2.563.423a.753.753,0,0,1-.329-.306c.017.078-.017.078-.034.128a.921.921,0,0,1,.284-.379,16.356,16.356,0,0,1,2.262-1.688,63.5,63.5,0,0,1,5.689-3.6c1.527-.83.49-3.421-1.2-2.847-2.518.852-5.037,1.694-7.544,2.585a10.125,10.125,0,0,1-2.6.741,1.194,1.194,0,0,1-.468-.028c-.111-.028-.173-.1-.084,0-.173-.189-.095-.39.033-.663a8.575,8.575,0,0,1,2.067-2.351,19.216,19.216,0,0,1,2.474-1.922A38.848,38.848,0,0,1,984,711.912a70.762,70.762,0,0,1,7.009-2.574c.981-.323.568-1.866-.429-1.56h0Z" transform="translate(-971.023 -500.126)" fill="#010d3d"/>
        <path id="Trazado_7654" data-name="Trazado 7654" d="M1255.353,630.888c-.307-18.013-7.1-35.163-17.217-49.878-10.882-19.523-28.344-34.021-48.14-43.972-8.09-4.212-16.983-7.349-26.221-6.068-8.324,1.231-18.041,4.652-20.666,13.528-3.449,12.431,1.46,25.251,5.288,37.019,5.449,18.058,11.478,37.52,12,56.91,0,1.02,1.905,28.21,3,28.193,21.936-.385,81.537,1.137,90.429.384,3.672-.15,1.215-33.263,1.521-36.116Z" transform="translate(-1046.709 -421.72)" fill="#010d3d"/>
        <path id="Trazado_7655" data-name="Trazado 7655" d="M1269.638,653.171c-.88-5.143-1.95-10.241-3.042-15.345a164.673,164.673,0,0,0-9.583-29.753c-1.12-2.641-2.3-5.265-3.521-7.862a53.064,53.064,0,0,0-4.184-7.834c-.279-.4-1-.173-.836.351.769,2.452,1.878,4.809,2.88,7.176s1.945,4.73,2.858,7.121c1.839,4.814,3.56,9.689,5.165,14.587a244.485,244.485,0,0,1,8.107,29.881c1.1,5.733,1.867,11.522,2.964,17.245.106.552.986.418.969-.134a108.337,108.337,0,0,0-1.777-15.445Z" transform="translate(-1093.874 -448.951)" fill="#fff"/>
        <path id="Trazado_7656" data-name="Trazado 7656" d="M1157.147,386.564c-.234-3.337-1.515-6.714-5-7.761a16.036,16.036,0,0,0-5.36-.323c-.774.05-1.549.117-2.318.2,1.493-6.931,2.591-14.024,1.109-21.05-1.471-6.937-5.622-13.183-12.163-16.23-6.474-3.009-13.935-3.326-20.961-3.059a29.324,29.324,0,0,0-11.862,2.6,42.96,42.96,0,0,0-9.221,6.77,33.267,33.267,0,0,0-7.633,8.764,30.763,30.763,0,0,0-3.254,11c-.463,3.61-.518,7.238-.669,10.865q-.259,6.218-.969,12.414a176.466,176.466,0,0,1-4.619,23.981,49.457,49.457,0,0,0-2.034,11.862,20.028,20.028,0,0,0,.83,6.107,28.326,28.326,0,0,0,2.541,5.41c.936,1.677,1.66,3.6,3.031,4.992,1.465,1.493,3.588,2.156,5.549,2.736a40.474,40.474,0,0,0,11.784,1.56c8.09-.078,16.047-2.128,23.724-4.541.691-.223,1.387-.44,2.078-.669a48.228,48.228,0,0,0,4.4,7.121c.936,1.259,1.917,2.485,2.959,3.661a29.406,29.406,0,0,0,3.427,3.126,2.39,2.39,0,0,0,1.382.557,3.591,3.591,0,0,0,4.608-1.137c1.126-1.766.256-3.594-.563-5.271-.747-1.5-1.538-3-2.351-4.469a47.273,47.273,0,0,0-4.909-8.447c.156-.178.312-.362.463-.563a28.348,28.348,0,0,0,2.474-4.324c.775-1.5,1.5-3.037,2.179-4.58a90.867,90.867,0,0,0,6.279-20.192q.769-4.2,1.159-8.452a10.8,10.8,0,0,0,11.779-4.485,13.075,13.075,0,0,0,2.145-8.174Z" transform="translate(-1015.821 -336.514)" fill="#fff"/>
        <path id="Trazado_7657" data-name="Trazado 7657" d="M1196.037,543.932c.524-6.786-8.224-7.823-13.272-8.686a31.119,31.119,0,0,0-18.175,4.084c-3.371.034,3.232,12.614,3.544,14.888,5.054,13.277,10.776,26.31,16.877,39.147q3.51,7.246,7.271,14.392a1.3,1.3,0,0,0,2.4-.646q.7-10.514,1.142-21.039c.513-14.041.529-28.087.223-42.139Z" transform="translate(-1056.316 -423.684)" fill="#fff"/>
        <path id="Trazado_7658" data-name="Trazado 7658" d="M1199.71,581.234q-1.237-2.223-2.446-4.463-.618-1.153-1.231-2.318a14.12,14.12,0,0,0-.942-1.738,23.641,23.641,0,0,1-1.566-2.329,6.219,6.219,0,0,1-.981-2.691c-.039-1.906,1.855-3.393,2.936-4.753a4.574,4.574,0,0,0,1.187-2.552,3.276,3.276,0,0,0-.619-1.9,17.2,17.2,0,0,0-4.363-4.346,27.165,27.165,0,0,0-4.6-2.775,3.872,3.872,0,0,1-1.682.841.809.809,0,0,1-.513-.1c-.791,1.488-1.594,2.981-2.245,4.535s-1.5,3.527-1.176,5.249a4.267,4.267,0,0,0,2.981,3.232c1.705.669,3.482,1.1,5.16,1.85a.754.754,0,0,1,.379.663q.017,4.822.29,9.639c.318,5.728.869,11.444,1.555,17.139q.334,2.733.713,5.455c.111.228.217.457.323.691q3.51,7.246,7.271,14.392a1.3,1.3,0,0,0,2.4-.646q.7-10.514,1.142-21.039c.056-1.594.106-3.193.156-4.786q-2.089-3.6-4.129-7.243Z" transform="translate(-1064.184 -430.882)" fill="#00b2e3"/>
        <path id="Trazado_7659" data-name="Trazado 7659" d="M1094.412,347.146a8.486,8.486,0,0,0-2.346.518c-.7.334-1.387.719-2.056,1.12a27.571,27.571,0,0,0-3.711,2.7,29.882,29.882,0,0,0-6,7.071,34,34,0,0,0-3.761,9.216,53.14,53.14,0,0,0-1.4,10.9c-.167,3.677-.156,7.316-.34,10.976s-.518,7.466-1.031,11.166-1.2,7.544-2.062,11.272-2.006,7.427-2.925,11.166c-1.66,6.725-2.362,14.509,1.644,20.6,3.343,5.087,9.188,7.594,15.016,8.53a68.2,68.2,0,0,0,9.227.741,81.242,81.242,0,0,0,11.288-.435,44.687,44.687,0,0,0,19.345-6.7,30.263,30.263,0,0,0,7.148-6.463,37.375,37.375,0,0,0,5.209-9.544,88.828,88.828,0,0,0,3.349-10.391c.485-1.861.914-3.733,1.215-5.633.145-.914.3-1.844.357-2.769s-.056-1.9.039-2.853c.178-1.822.3-3.649.345-5.483.034-1.426-2.061-1.376-2.184,0-.162,1.805-.351,3.616-.607,5.41-.122.858-.485,1.66-.691,2.5-.217.886-.373,1.794-.563,2.686a106.569,106.569,0,0,1-2.6,10.419c-1.984,6.246-4.53,12.4-9.494,16.882a30.42,30.42,0,0,1-7.4,4.864,35.343,35.343,0,0,1-9.043,2.741,75.052,75.052,0,0,1-20.264.786c-.34-.033-.68-.078-1.02-.117a1.845,1.845,0,0,1-.306-.039c-.134-.022-.268-.039-.407-.061-.741-.111-1.482-.245-2.218-.39a33.207,33.207,0,0,1-4.017-1.036c-.6-.2-1.181-.429-1.772-.657s.34.162-.245-.1c-.117-.056-.24-.106-.357-.162-.357-.162-.7-.334-1.047-.518a17.826,17.826,0,0,1-1.655-1l-.318-.217c-.017-.011-.518-.39-.212-.15-.279-.217-.546-.446-.808-.68a16.6,16.6,0,0,1-1.348-1.382,9.156,9.156,0,0,1-1.109-1.532,13.851,13.851,0,0,1-1.677-4.2,23.047,23.047,0,0,1,0-9.283c.646-3.6,1.75-7.1,2.675-10.636s1.694-7.171,2.368-10.792a141.751,141.751,0,0,0,2.206-21.975c.095-3.443.111-6.892.412-10.324a39.479,39.479,0,0,1,1.822-9.884,27,27,0,0,1,10.542-13.261c.591-.4,1.226-.719,1.817-1.109a7.209,7.209,0,0,0,.741-.691c.279-.24.557-.474.847-.708.579-.468-.078-1.192-.646-1.109h0Z" transform="translate(-1013.73 -340.439)" fill="#010d3d"/>
        <path id="Trazado_7660" data-name="Trazado 7660" d="M1090.561,357.1a31.757,31.757,0,0,1,2.686-3.627c.986-1.008,1.777-2.2,2.775-3.2a40.5,40.5,0,0,1,23.123-11.812,37.793,37.793,0,0,1,19.016,2.468,26.583,26.583,0,0,1,7.873,4.7,17.818,17.818,0,0,1,4.853,7.917,48.994,48.994,0,0,1,2.134,11.578,64.384,64.384,0,0,1-.513,12.2c-.2,1.61,2.524,1.978,2.842.384a51.847,51.847,0,0,0-.919-23.006,24.1,24.1,0,0,0-4.63-9.606,24.551,24.551,0,0,0-8.057-5.9c-12.208-5.978-27.235-5.421-38.674,2.05a38.223,38.223,0,0,0-4.106,3.232,31.6,31.6,0,0,0-3.638,3.583,32.847,32.847,0,0,0-3.07,4.112c-.446.752-.836,1.566-1.265,2.34a15.812,15.812,0,0,0-1.07,2.318c-.15.407.429.574.646.273h0Z" transform="translate(-1023.662 -335.122)" fill="#010d3d"/>
        <path id="Trazado_7661" data-name="Trazado 7661" d="M1200.833,410.624a5.213,5.213,0,0,1,6.118-.529c2.2,1.237,3.337,3.772,3.722,6.162s.229,5.728-1.315,7.834a13.1,13.1,0,0,1-3.226,2.758,9.344,9.344,0,0,1-3.716,1.683,8.658,8.658,0,0,1-3.917-.379,5.991,5.991,0,0,1-1.761-.774,4.967,4.967,0,0,0-2-1.008.764.764,0,0,0-.947.719c.033,1.716,1.844,2.713,3.159,3.471a9.521,9.521,0,0,0,4.792,1.114,10.385,10.385,0,0,0,5.109-1.449,18.642,18.642,0,0,0,4.452-3.46c2.535-2.819,2.914-6.853,2.4-10.469-.457-3.187-1.995-6.591-4.992-8.107s-6.937-1.543-9.171,1.142c-.741.891.429,2.123,1.293,1.293h0Z" transform="translate(-1069.67 -367.021)" fill="#010d3d"/>
        <path id="Trazado_7662" data-name="Trazado 7662" d="M1094.911,427.131l-.017.011-.418.323-.039.033a.584.584,0,0,0-.089.078c-.022.028-.045.05-.067.078l-.034.039c-.067.078-.128.162-.189.24a1.761,1.761,0,0,0-.412.78c-.022.078-.039.162-.061.24l-.034.134a1.57,1.57,0,0,0-.044.323,1.143,1.143,0,0,0,0,.613,1.172,1.172,0,0,0,.156.579,1.154,1.154,0,0,0,.128.3,2.562,2.562,0,0,0,1.365,1.047l.607.084a2.268,2.268,0,0,0,1.153-.312l.017-.011.468-.362a1.761,1.761,0,0,0,.479-.741.723.723,0,0,0,.117-.29.938.938,0,0,0,.022-.123,4.262,4.262,0,0,0,.128-.852.693.693,0,0,0-.039-.318,1.215,1.215,0,0,0-.045-.318c0-.017-.011-.033-.011-.056l-.034-.117V428.5l-.228-.518a.153.153,0,0,0-.022-.039c-.011-.017-.017-.033-.028-.05a.708.708,0,0,0-.167-.223c-.056-.078-.111-.15-.173-.223l-.418-.323a1.51,1.51,0,0,0-.763-.245,1.01,1.01,0,0,0-.546,0,1.509,1.509,0,0,0-.763.245h0Z" transform="translate(-1025.243 -375.738)" fill="#010d3d"/>
        <path id="Trazado_7663" data-name="Trazado 7663" d="M1153.882,422.053s-.457.189-.485.206l-.407.312a1.482,1.482,0,0,0-.412.646c-.05.117-.095.234-.145.357l.206-.49a4.88,4.88,0,0,0-.251.613c-.011.05-.028.1-.039.15a2.869,2.869,0,0,1-.111.306l.223-.529c-.106.24-.206.474-.29.713a1.375,1.375,0,0,1-.084.212l.229-.54a2.258,2.258,0,0,1-.128.262c-.011.017-.022.039-.033.056l-.017.028-.234.546-.083.613a2.627,2.627,0,0,0,.083.624c0,.017.011.039.011.056a1.638,1.638,0,0,0,.4.758,1.671,1.671,0,0,0,.624.574l.535.223a2.256,2.256,0,0,0,1.187,0,4.324,4.324,0,0,0,.613-.256,2.337,2.337,0,0,0,.825-.825c.083-.189.161-.384.245-.579a1.819,1.819,0,0,0,.084-.245c.022-.084.045-.167.061-.251a4.128,4.128,0,0,0,.106-.819,2,2,0,0,0-.022-.256,7.786,7.786,0,0,0-.117-.791,2.442,2.442,0,0,0-.3-.691,2.074,2.074,0,0,0-.752-.769,1.975,1.975,0,0,0-1.543-.206h0Z" transform="translate(-1051.084 -373.586)" fill="#010d3d"/>
        <path id="Trazado_7664" data-name="Trazado 7664" d="M1141.482,485.557a15.416,15.416,0,0,0,5.717-1.633,25.01,25.01,0,0,0,5.1-3.053,25.811,25.811,0,0,0,7.472-9.093,1.3,1.3,0,0,0-.457-1.738,1.281,1.281,0,0,0-1.738.457,23.639,23.639,0,0,1-6.742,8.4,25.227,25.227,0,0,1-4.474,2.786c-1.666.813-3.449,1.2-5.148,1.9-.981.4-.964,2,.267,1.978Z" transform="translate(-1046.078 -394.795)" fill="#010d3d"/>
        <path id="Trazado_7665" data-name="Trazado 7665" d="M1160.526,523.2c1.727,2.747,3.633,5.377,5.471,8.046.931,1.354,1.934,2.669,2.992,3.934a11,11,0,0,0,1.516,1.582,3.387,3.387,0,0,0,2.853.663,17.255,17.255,0,0,0,4.435-1.393c1.237-.568,3-1.343,3.365-2.792a3.2,3.2,0,0,0-.5-2.251c-.357-.691-.708-1.326-1.075-1.984q-1.137-2.022-2.362-3.989-1.362-2.173-2.864-4.257c-.485-.68-.986-1.343-1.493-2.006a12.036,12.036,0,0,0-1.844-2.223,1.515,1.515,0,0,0-1.961-.117,1.5,1.5,0,0,0-.384,1.928,12.937,12.937,0,0,0,1.516,1.85q.685.811,1.354,1.638,1.371,1.722,2.613,3.532c.83,1.209,1.627,2.435,2.357,3.7.356.618.7,1.237,1.036,1.861a7.456,7.456,0,0,1,.931,1.922v-.735c.05-.24.29-.189.011-.084a4.37,4.37,0,0,0-.579.34,14.3,14.3,0,0,1-1.3.663,13.949,13.949,0,0,1-2.608.841,9.689,9.689,0,0,1-1.2.19c0-.412.507.635.128,0a4.8,4.8,0,0,0-.34-.418c-.674-.819-1.415-1.571-2.14-2.346-1.41-1.516-2.908-2.936-4.3-4.469s-2.78-3.165-4.162-4.758c-.691-.791-2.006.234-1.449,1.12h0Z" transform="translate(-1054.888 -415.265)" fill="#010d3d"/>
        <path id="Trazado_7666" data-name="Trazado 7666" d="M1093.046,426.265a30.616,30.616,0,0,0,.58-4.151c.061-.724.106-1.443.167-2.167a7.835,7.835,0,0,0,.106-1.61c-.189-1.415-1.56-1.477-2.7-1.387-1.4.117-2.814.251-4.218.4A167.849,167.849,0,0,0,1070.091,420a1.164,1.164,0,0,0-.83,1.086c-.825,7.321-.8,18.387,7.879,21.022a8.136,8.136,0,0,0,3.042.351,8.02,8.02,0,0,0,1.5-.251,1.878,1.878,0,0,0,1.281-1.32.953.953,0,0,0-.652-1.148,2.384,2.384,0,0,0-1.722-.039,4.62,4.62,0,0,1-1.176.106,6.445,6.445,0,0,1-2.552-.607,8.66,8.66,0,0,1-4.09-4.073c-2.151-4.257-1.828-9.455-1.248-14.041l-.83,1.087c4.937-1.07,9.923-1.967,14.927-2.669,1.22-.173,2.446-.323,3.672-.462.635-.072,1.271-.145,1.906-.212.273-.028.563-.028.83-.072a1,1,0,0,1,.223.011c-.106-.145-.139-.117-.089.084a3.076,3.076,0,0,0,.017.814v1.081c0,.63-.005,1.265,0,1.894a30.087,30.087,0,0,0,.24,3.611c.045.323.563.3.63,0h0Z" transform="translate(-1014.375 -371.345)" fill="#00b2e3"/>
        <path id="Trazado_7667" data-name="Trazado 7667" d="M1135.9,413.286a22.086,22.086,0,0,0-.964,7.3c-.022,1.248-.045,2.5-.022,3.75.022,1.153-.084,2.312,0,3.466a13.046,13.046,0,0,0,1.811,6.257,9.451,9.451,0,0,0,4.078,3.393,12.026,12.026,0,0,0,10.725-.6,17.221,17.221,0,0,0,7.26-9.3c1.839-5.1,1.6-10.642,1.359-15.969a1.325,1.325,0,0,0-1.287-1.287c-.451-.039-.9.061-1.348.045s-.9-.045-1.348-.061c-.947-.033-1.889-.072-2.836-.045a53.893,53.893,0,0,0-5.522.485c-3.711.5-7.371,1.332-11.021,2.156-1.649.373-.953,2.931.7,2.541,3.532-.836,7.071-1.66,10.659-2.223,1.722-.267,3.449-.462,5.187-.563.9-.05,1.8-.1,2.7-.095a10.874,10.874,0,0,1,1.348.056c.5.056.981.223,1.488.284l-1.287-1.287c.245,7.527.513,16.866-6.028,22.064a9.57,9.57,0,0,1-8.519,1.811,7.441,7.441,0,0,1-3.622-2.206,9.354,9.354,0,0,1-1.939-4.964c-.34-2.385-.652-4.764-.8-7.165a68.176,68.176,0,0,1,.245-7.695c.028-.613-.813-.646-1.009-.134h0Z" transform="translate(-1043.583 -368.379)" fill="#00b2e3"/>
        <path id="Trazado_7668" data-name="Trazado 7668" d="M1104.85,418.763a73.862,73.862,0,0,1-3.087,6.842c-.54,1.109-1.22,2.156-1.85,3.22s-1.309,2.112-2.039,3.12c-1.376,1.906-3.17,3.493-4.68,5.288-.407.485-.8.986-1.181,1.488a12.463,12.463,0,0,0-1.075,1.438,13.112,13.112,0,0,0-1.5,3.588,11.829,11.829,0,0,0,.429,6.987,11.272,11.272,0,0,0,2.078,3.259,10.636,10.636,0,0,0,2.507,2.312,16.1,16.1,0,0,0,13.612,1.332,16.5,16.5,0,0,0,6.229-4.2,18.99,18.99,0,0,0,2.29-3,4.941,4.941,0,0,0,1.02-3.622.693.693,0,0,0-1.014-.412,4.105,4.105,0,0,0-1.042.992c-.3.424-.54.9-.8,1.36a16.091,16.091,0,0,1-1.683,2.424,14.543,14.543,0,0,1-4.652,3.672,12.041,12.041,0,0,1-6,1.2,8.865,8.865,0,0,1-5.282-2.223,10.1,10.1,0,0,1-1.789-2.067c-.111-.173-.212-.345-.306-.529-.061-.123-.117-.245-.173-.373.039.084.128.351-.011-.039-.067-.189-.128-.379-.189-.568-.089-.256-.2-.5-.3-.747.123.312.039.078-.028-.1a10.156,10.156,0,0,1-.373-1.259c-.061-.262-.106-.529-.15-.791.083.5-.011-.234-.022-.379a11.861,11.861,0,0,1,.017-1.41c.028-.474-.067.267.022-.184.061-.312.128-.613.217-.919.072-.251.156-.5.24-.741,0-.011.134-.351.05-.134-.095.24.084-.178.106-.228.24-.5.518-.981.758-1.482a15.834,15.834,0,0,1,1.733-2.563c1.309-1.694,2.725-3.694,3.956-5.605.691-1.075,1.337-2.184,1.928-3.321a40.392,40.392,0,0,0,1.6-3.789,29.088,29.088,0,0,0,1.677-7.661c.078-.747-1-.78-1.226-.167h0Z" transform="translate(-1023.309 -371.973)" fill="#010d3d"/>
        <path id="Trazado_7669" data-name="Trazado 7669" d="M1110.976,423.981a11.3,11.3,0,0,0,3.31-1.22,10.508,10.508,0,0,1,3.415-1.014,6.637,6.637,0,0,1,3.171.513c1.125.5,2.084,1.287,3.226,1.738,1.242.5,2.167-1.332,1.27-2.184a11.218,11.218,0,0,0-3.627-2.067,6.92,6.92,0,0,0-4.028-.418,12.862,12.862,0,0,0-3.46,1.688c-.607.357-1.215.719-1.822,1.075a6.424,6.424,0,0,0-1.739,1.215c-.2.234-.089.7.279.669h0Z" transform="translate(-1032.828 -372.349)" fill="#00b2e3"/>
        <path id="Trazado_7670" data-name="Trazado 7670" d="M1177.7,415.052c2.568.423,5.276-.039,7.85-.329s5.243-.591,7.85-1c.925-.145.529-1.543-.384-1.4-2.569.39-5.154.663-7.739.942s-5.215.407-7.577,1.354c-.178.072-.245.39,0,.435Z" transform="translate(-1062.475 -369.304)" fill="#00b2e3"/>
        <path id="Trazado_7671" data-name="Trazado 7671" d="M1089.378,366.92a37.59,37.59,0,0,0,14.425-12.754h-1.733a32.436,32.436,0,0,0,12.9,14.693,1.058,1.058,0,0,0,1.538-.624,32.874,32.874,0,0,0-1.493-15.35l-2.073.875c3.2,5.744,6.586,11.389,10.224,16.866q1.354,2.039,2.752,4.051c.786,1.131,1.571,2.5,2.869,3.1a2.748,2.748,0,0,0,3.321-.724,6.437,6.437,0,0,0,1.125-3.644,33.57,33.57,0,0,0-1.014-11l-2.223.613c1.822,4.463,3.722,8.9,5.767,13.261.485,1.042.969,2.089,1.493,3.109a5.419,5.419,0,0,0,1.749,2.112c1.822,1.187,3.6-.117,4.385-1.822a13.565,13.565,0,0,0,1.126-3.477,36.149,36.149,0,0,0,.262-3.85c.05-.942-1.41-.936-1.465,0-.106,1.722-.279,3.438-.245,5.165s.134,3.438.312,5.154a60.4,60.4,0,0,0,1.939,10.146,1.061,1.061,0,0,0,1.3.736,13.009,13.009,0,0,0,4.987-3.611,10.644,10.644,0,0,0,2.485-5.733c.145-1.2-1.816-1.432-2.089-.284a10.764,10.764,0,0,1-5.945,7.594l1.3.735a67.4,67.4,0,0,1-2-9.851c-.2-1.621-.34-3.254-.418-4.886-.078-1.722-.217-3.443-.156-5.165h-1.465a12.233,12.233,0,0,1-.8,3.56,15.961,15.961,0,0,1-1.293,3.159c-.39.657-.769.825-1.3.212a11.107,11.107,0,0,1-1.427-2.719c-2.156-4.691-4.279-9.4-6.268-14.163-.552-1.326-2.619-.869-2.223.613a31.615,31.615,0,0,1,1.092,8.547c-.011.892.017,5.739-1.911,3.805a22.316,22.316,0,0,1-2.34-3.22q-1.237-1.8-2.44-3.627-2.4-3.652-4.663-7.388-2.533-4.2-4.831-8.519a1.139,1.139,0,0,0-2.073.875,35.776,35.776,0,0,1,1.627,14.47l1.571-.9a29.4,29.4,0,0,1-12.23-13.9c-.323-.747-1.36-.552-1.733,0a47.692,47.692,0,0,1-5.956,7.054,42.356,42.356,0,0,1-7.3,5.744.561.561,0,0,0,.563.969h0Z" transform="translate(-1023.065 -342.628)" fill="#010d3d"/>
        <path id="Trazado_7672" data-name="Trazado 7672" d="M1118.057,602.479a.019.019,0,0,0-.006.011,1.835,1.835,0,0,0-.078-.273c-.852-2.44-1.02-5.31-1.594-7.917v.028c-2.591-12.893-5.338-25.769-7.878-38.673-.981-3.7-1.254-8.363-4.157-11.1-1.042-.635-2.529-.836-3.337-.039-1.4,1.376-6.157,5.639-6.6,9.829-2.635,14.787-5.048,30.227-12.091,43.632a49.431,49.431,0,0,1-35.325,27c-2.936.936-7.149.813-8.335,4.028.412,7.26,2.385,14.375,3.733,21.5.825,2.284-.574,6.09,2.123,7.188,10.553,2.73,26.845-8.642,36.45-13.411,13.823-8.14,34.851-24.388,37.932-40.685-.089-.613-.836-.5-.841-1.109Z" transform="translate(-1000.974 -427.616)" fill="#010d3d"/>
        <path id="Trazado_7673" data-name="Trazado 7673" d="M1180.7,550.734a25.875,25.875,0,0,0-3.488,5.962q-.719,1.638-1.354,3.31a16.107,16.107,0,0,0-1.025,3.348l1.666-.68c-.5-.267-.981-.535-1.493-.752-.947-.4-1.75,1.075-1,1.716.424.362.891.669,1.348.992a1.156,1.156,0,0,0,1.555-.407,30.491,30.491,0,0,0,1.226-3.354q.543-1.6,1.17-3.17c.841-2.112,1.75-4.19,2.451-6.352.184-.574-.652-1.109-1.053-.613h0Z" transform="translate(-1060.776 -430.514)" fill="#010d3d"/>
        <path id="Trazado_7674" data-name="Trazado 7674" d="M1190.505,549.377c-.083.763.83,1.683,1.248,2.279.5.708,1.036,1.387,1.588,2.05a36.006,36.006,0,0,0,3.945,3.984c.685.6,1.393,1.181,2.112,1.75a6.976,6.976,0,0,0,2.234,1.51c1.042.267,1.733-.568,2.379-1.231a7.02,7.02,0,0,0,1.85-2.485.743.743,0,0,0-.908-.908,5.193,5.193,0,0,0-1.772,1.226c-.262.245-.518.5-.775.758-.184.189-.446.557-.68.6h.568a4.555,4.555,0,0,1-1.471-.93c-.513-.368-1.014-.752-1.5-1.148-1.02-.83-2.006-1.7-2.948-2.619s-1.816-1.783-2.685-2.713c-.435-.463-.869-.919-1.3-1.393-.379-.423-.73-1.059-1.315-1.176a.469.469,0,0,0-.579.44h0Z" transform="translate(-1068.213 -429.797)" fill="#010d3d"/>
        <path id="Trazado_7675" data-name="Trazado 7675" d="M1165.86,645.5c-.033-.685-.117-1.365-.173-2.05-.111-1.27-.245-2.535-.418-3.8q-.5-3.727-1.047-7.444c-.741-5-1.521-10.007-2.5-14.971-.279-1.4-.557-2.791-.847-4.184-.3-1.454-.8-2.819-1.209-4.24-.022-.078-.156-.067-.145.022.139,1.2.15,2.4.329,3.588.19,1.265.435,2.524.641,3.783q.627,3.786,1.265,7.566,1.262,7.488,2.3,15c.195,1.41.379,2.819.618,4.223.111.674.223,1.348.334,2.028.128.78.39,1.493.574,2.262a.111.111,0,0,0,.217-.028c0-.585.095-1.17.067-1.755Z" transform="translate(-1054.494 -456.294)" fill="#fff"/>
      </g>
    </g>
  </g>
</svg>
