<svg xmlns="http://www.w3.org/2000/svg" width="145.874" height="135.342" viewBox="0 0 145.874 135.342"><g id="IICE_LandingCompliance_regalo" transform="translate(0)" style="mix-blend-mode: normal;isolation: isolate"><g id="a" transform="translate(0 0)"><g id="Grupo_3517" data-name="Grupo 3517"><g id="Grupo_3515" data-name="Grupo 3515" transform="translate(0 1.28)"><path id="Trazado_6414" data-name="Trazado 6414" d="M406.741,382.813c-.966-21.262-4.684-42.341-4.862-63.663A1.165,1.165,0,0,0,400.734,318a69.472,69.472,0,0,1-10.378-1.214c-19.706-2.969-39.045-7.955-58.766-10.829a45.511,45.511,0,0,0-4.9-.392,1.336,1.336,0,0,0-1.393,1.105c-2.592,1-5.2,1.958-7.811,2.919-10.036,3.7-20.1,7.33-30.069,11.206-8.331,3.207-16.792,6.032-25.074,9.367a1.771,1.771,0,0,0-1.194,2.1c4.47,22.908,9.724,45.652,15.572,68.243a1.76,1.76,0,0,0,1.249,1.244q31.254,5.91,62.5,11.816c12.405,1.983,18.482,5.957,30.2-1.472q13.642-6.788,26.8-14.492c7.548-4.243,10.388-5.249,9.273-14.79Z" transform="translate(-261.101 -282.357)" fill="#66d1ee"/><path id="Trazado_6415" data-name="Trazado 6415" d="M403.27,306.35a.066.066,0,0,1,.025,0A.045.045,0,0,0,403.27,306.35Z" transform="translate(-332.806 -282.751)" fill="#ef8aab"/><path id="Trazado_6416" data-name="Trazado 6416" d="M403.179,306.342c-.069-.01-.089-.01,0,0Z" transform="translate(-332.73 -282.743)" fill="#ef8aab"/><path id="Trazado_6417" data-name="Trazado 6417" d="M401.885,333.615a87.38,87.38,0,0,0-8.877,4.188c-4.476,2.513-8.654,5.432-12.9,8.292-7.742,5.214-16.38,8.911-24.231,13.932a11.56,11.56,0,0,1-2.493,1.66,1.165,1.165,0,0,1-.922.055,11.114,11.114,0,0,1-1.978.738,14.117,14.117,0,0,1-5.888.079c-2.156-.332-4.277-.848-6.4-1.338-7.762-1.8-15.677-3.083-23.532-4.362s-15.741-2.334-23.671-2.984c-1.968-.159-3.935-.258-5.893-.54a52.914,52.914,0,0,1-5.69-1.18c-3.489-.907-6.954-2-10.359-3.2-2.052-.719-4.158-1.413-6.161-2.265-.6-.253-1.185-.535-1.779-.8a2.287,2.287,0,0,0,.035.51c4.471,22.908,9.724,45.652,15.573,68.243a1.76,1.76,0,0,0,1.249,1.244q31.254,5.91,62.5,11.816c12.406,1.983,18.482,5.957,30.2-1.472q13.642-6.788,26.8-14.492c7.548-4.243,10.388-5.249,9.273-14.789-.961-21.158-4.644-42.128-4.857-63.341Z" transform="translate(-261.102 -296.5)" fill="#33c1e9"/><path id="Trazado_6418" data-name="Trazado 6418" d="M356.362,421.26c-1.437-7.479-2.954-14.958-3.8-22.536-.283-2.562-.416-5.135-.748-7.687-.01-.084-.02-.164-.035-.248v-.02c-.02-.114-.035-.223-.05-.337-.035-.253-.069-.506-.1-.763-.084-.58-.164-1.165-.248-1.745-.174-1.254-.352-2.508-.52-3.762a44.619,44.619,0,0,1-.322-7.092c.02-.679.02-1.417.089-2.141-.055.015-.1.035-.154.05a14.116,14.116,0,0,1-5.888.079c-2.156-.332-4.277-.848-6.4-1.338-7.761-1.8-15.677-3.083-23.532-4.361s-15.741-2.334-23.671-2.984c-1.968-.159-3.935-.258-5.893-.54a52.913,52.913,0,0,1-5.69-1.18c-3.489-.907-6.954-2-10.359-3.2-2.052-.719-4.158-1.413-6.161-2.265-.6-.253-1.185-.535-1.779-.8a2.289,2.289,0,0,0,.035.51c4.471,22.908,9.724,45.652,15.573,68.243a1.76,1.76,0,0,0,1.249,1.244q31.254,5.91,62.5,11.816c8.52,1.358,14.056,3.663,20.484,2.562-1.745-7.127-3.207-14.314-4.589-21.515Z" transform="translate(-261.097 -308.999)" fill="#00b2e3"/><path id="Trazado_6419" data-name="Trazado 6419" d="M413.522,370.942c-.03-2.1,0-4.2.064-6.294.055-1.755.164-3.5.1-5.259-.124-3.172-.53-6.329-.625-9.506-.04-1.254-.04-2.513.035-3.767-.52-4.936-.833-9.863-1.036-14.819-.183-4.53-.243-9.065-.421-13.6-.114-2.825-.05-5.655-.292-8.475a11.055,11.055,0,0,0-.6-3.331,1.426,1.426,0,0,1-.173-.282c-.035-.03-.074-.06-.064-.06-.064-.035-.149-.079-.173-.089s-.074-.035-.1-.05c-.045-.015-.094-.035-.139-.05-.119-.04-.233-.079-.357-.114-.287-.084-.58-.149-.872-.208-2.691-.545-5.452-.382-8.158-.753-4.778-.664-9.412-2.057-14.254-2.315-.882-.05-1.413-1.363-.486-1.809a33.609,33.609,0,0,0,5.308-3.514,15.668,15.668,0,0,0,2.007-1.561,14.183,14.183,0,0,0,1.328-1.645c.833-1.17,1.7-2.334,2.562-3.489-.8-.154-1.591-.312-2.384-.471a10.874,10.874,0,0,0,.813-1.492,2.91,2.91,0,0,0,.352-2.017,2.2,2.2,0,0,0-1.631-1.472c-.882-.228-1.809-.347-2.706-.516s-1.779-.342-2.676-.481a2.618,2.618,0,0,0-3.018,1.551c-.064.129-.124.258-.183.387a1.815,1.815,0,0,0-.659,1.4c-.1.213-.193.421-.287.629-.382-.074-.763-.154-1.14-.228a20.28,20.28,0,0,1-4.406,5.036c-2.463,2.072-5.66,4.029-9,3.891-.743-.03-1.3-1.026-.654-1.576a20.05,20.05,0,0,0,2.577-2.731c.753-1.046,1.541-2.057,2.324-3.083a8.762,8.762,0,0,0,1.839-2,34.964,34.964,0,0,0,2.612-5.224c.887-1.948,1.735-3.92,2.463-5.938a33.644,33.644,0,0,0,1.571-5.972,20.378,20.378,0,0,0,.2-6.626c-.431-2.414-2.885-2.87-4.9-3.365a31.655,31.655,0,0,0-6.1-.907,18.221,18.221,0,0,0-11.266,2.949,23.468,23.468,0,0,0-7.395,8.951,25.854,25.854,0,0,0-2.8,11.266c0,.119.01.238.01.352a1.44,1.44,0,0,0-.436.778c-.218.084-.441.169-.664.253a13.905,13.905,0,0,0-1.4-2.959,16.256,16.256,0,0,0-3.98-4.272,19.636,19.636,0,0,0-11.33-3.678,26.76,26.76,0,0,0-12.093,2.359,12.128,12.128,0,0,0-6.869,9.02,16.4,16.4,0,0,0,2.577,11.816c-1.373.525-2.746,1.051-4.119,1.586-.58.223-1.16.441-1.74.659.362.045.729.084,1.1.134a25.555,25.555,0,0,1,6.3,1.353,11.246,11.246,0,0,1,4.654,3.757,13.857,13.857,0,0,0,2.091,2.25,9.156,9.156,0,0,0,3.271,1.581c2.453.659,5.07.312,7.573.7a.743.743,0,0,1,.173,1.343,100.905,100.905,0,0,1-10.111,4.6c-1.755.639-3.519,1.239-5.3,1.784-1.383.426-2.766.877-4.183,1.175a43.539,43.539,0,0,1,1.066,4.5,111.51,111.51,0,0,1,1.3,11.7c.084,1.17.188,2.334.283,3.5,1.571,7.553,2.676,15.191,4.039,22.784.421,2.354.808,4.728,1.348,7.058.525,2.24,1.11,4.466,1.636,6.7a65.934,65.934,0,0,1,1.19,7.023c.124.981.218,1.968.273,2.959l14.477,2.736c-.907-4.262-1.794-8.535-2.6-12.817-.848-4.485-1.591-8.991-2.181-13.516-.6-4.614-.917-9.258-1.447-13.878a102.6,102.6,0,0,0-1.893-12.093c-.763-3.192-1.68-6.547-1.556-9.853a7.123,7.123,0,0,1,.892-3.474,8.9,8.9,0,0,1,2.1-2.255,31.041,31.041,0,0,1,7.008-3.97,63.787,63.787,0,0,1,14.616-4.421.448.448,0,0,1,.535.54,32.592,32.592,0,0,1,2.82,2.037c1.274.952,2.567,1.888,3.891,2.766.263.173.525.342.8.491.04.02.208.089.243.109.2.069.411.134.62.193a17.507,17.507,0,0,0,3.569.709,14.712,14.712,0,0,0,6.284-.942c1.913-.7,3.653-1.829,5.591-2.463a28.7,28.7,0,0,1,4.966-1.076,26.478,26.478,0,0,1,5.67-.278,7.526,7.526,0,0,1,4.352,1.388,6.886,6.886,0,0,1,1.839,3.737,30.925,30.925,0,0,1,.624,5.358c.084,1.725.084,3.45.134,5.169.055,2.062.223,4.124.4,6.18.243,2.86.53,5.724.932,8.569s.966,5.635,1.4,8.46c.872,5.675,1.393,11.4,1.933,17.109.511,5.447,1.016,10.9,1.829,16.311q4.275-2.26,8.5-4.624c-.089-2.666-.169-5.338-.208-8ZM340.244,293.62c-1.769-.525-3.529-1.076-5.293-1.606a1.044,1.044,0,0,1-.466.218c-1.65.312-3.42-.59-4.832-1.541-.743.273-1.482.545-2.225.823-.059-.124-.119-.248-.173-.372h0a.049.049,0,0,0-.01-.03.291.291,0,0,1-.02-.04.11.11,0,0,0,.015.025c-.035-.074-.1-.233-.129-.3-.079-.2-.149-.411-.218-.625a18.345,18.345,0,0,1-.54-2.25h0a1.548,1.548,0,0,0-.025-.218c-.015-.164-.03-.332-.04-.5-.03-.411-.04-.828-.03-1.239,0-.362.03-.719.064-1.076,0-.079.015-.159.025-.238.04-.208.069-.416.109-.625a18.973,18.973,0,0,1,.649-2.2c.035-.069.064-.144.1-.213.084-.173.168-.347.258-.515.183-.342.377-.674.59-1,.1-.144.2-.287.3-.426.01,0,.238-.273.287-.317s.119-.114.178-.173l.074-.055.114-.069c.045-.01.144-.045.223-.069.015,0,.268-.035.352-.04.025,0,.139,0,.183,0,.064.015.129.025.188.04a5.564,5.564,0,0,1,.694.2l.154.064c.079.04.307.159.317.159a9.634,9.634,0,0,1,.986.615c.069.045.292.218.322.233.144.124.292.243.436.372a17.015,17.015,0,0,1,1.7,1.74c.248.292.491.585.729.887.015.02.089.109.129.164.025.03.045.06.05.064.144.188.287.377.426.57.5.664.981,1.343,1.482,2.012.347.466.7.932,1.066,1.388-.169.065-.337.124-.51.188a1.836,1.836,0,0,1,.134.144,15.821,15.821,0,0,1,1.591,2.354,18.5,18.5,0,0,0,1.318,2.225c.421.545.059,1.482-.724,1.249Zm28.741-13.387c-.476,1.3-1.011,2.587-1.452,3.905-.273-.05-.54-.1-.813-.149-.114.322-.238.644-.377.957a16.156,16.156,0,0,1-1.452,2.587.79.79,0,0,1-.862.352.769.769,0,0,1-.56-.734,1.909,1.909,0,0,1,.015-.238,2.763,2.763,0,0,0,.223-.813s.01-.074.015-.139.04-.258.04-.282c.02-.114.04-.228.055-.342a10.624,10.624,0,0,1,.471-1.1c.1-.2.2-.411.292-.624-.139-.025-.278-.045-.416-.069.208-.947.446-1.883.734-2.81a25.1,25.1,0,0,1,2.121-5c.481-.862,1.006-1.7,1.566-2.513a9.007,9.007,0,0,1,.644-.877.321.321,0,0,1,.04-.045c.084.134.173.273.248.411l.119.253h.005a.107.107,0,0,0,.015.05,10.428,10.428,0,0,1,.317,1.17.292.292,0,0,0,.02.1c0,.074.015.149.02.223.025.258.035.51.035.768,0,.421-.025.838-.064,1.254-.005.074-.01.109-.01.129s-.01.05-.025.124c-.045.258-.089.51-.149.768a21.132,21.132,0,0,1-.813,2.681Z" transform="translate(-286.105 -258.735)" fill="#fff"/></g><g id="Grupo_3516" data-name="Grupo 3516" transform="translate(24.57 1.28)" opacity="0.3" style="mix-blend-mode: multiply;isolation: isolate"><path id="Trazado_6420" data-name="Trazado 6420" d="M403.27,306.35a.066.066,0,0,1,.025,0A.045.045,0,0,0,403.27,306.35Z" transform="translate(-357.375 -282.751)" fill="#ef8aab"/><path id="Trazado_6421" data-name="Trazado 6421" d="M403.179,306.342c-.069-.01-.089-.01,0,0Z" transform="translate(-357.299 -282.743)" fill="#ef8aab"/><path id="Trazado_6422" data-name="Trazado 6422" d="M501.176,411.976c.054-1.754.164-3.5.1-5.259-.124-3.172-.53-6.329-.624-9.506-.04-1.254-.04-2.513.035-3.767-.52-4.936-.833-9.863-1.036-14.819-.183-4.53-.243-9.065-.421-13.6-.114-2.825-.05-5.655-.292-8.475a11.057,11.057,0,0,0-.6-3.331,1.428,1.428,0,0,1-.173-.283c-.035-.03-.074-.059-.064-.059-.065-.035-.149-.079-.174-.089s-.074-.035-.1-.05c-.045-.015-.094-.035-.139-.05-.119-.04-.233-.079-.357-.114-.015,0-.03-.01-.045-.01-1.526,1.021-3.048,2.062-4.58,3.093-2.7,1.819-5.516,3.455-8.361,5.026a8.469,8.469,0,0,1,1.229,3.058,30.937,30.937,0,0,1,.625,5.358c.084,1.725.084,3.45.134,5.169.055,2.062.223,4.124.4,6.18.243,2.86.53,5.724.932,8.569s.966,5.635,1.4,8.46c.872,5.675,1.393,11.4,1.933,17.109.51,5.447,1.016,10.9,1.829,16.311q4.275-2.26,8.5-4.624c-.089-2.666-.169-5.338-.208-8-.03-2.1,0-4.2.064-6.294Z" transform="translate(-398.265 -306.063)" fill="#fff"/><path id="Trazado_6423" data-name="Trazado 6423" d="M318.075,299.324a11.246,11.246,0,0,1,4.654,3.757,13.853,13.853,0,0,0,2.092,2.25,9.154,9.154,0,0,0,3.271,1.581c2.453.659,5.07.312,7.573.7a.743.743,0,0,1,.173,1.343,100.893,100.893,0,0,1-10.111,4.6c-1.1.4-2.206.778-3.311,1.145q7.152.736,14.269,1.789a37.049,37.049,0,0,1,5.487-2.875,63.786,63.786,0,0,1,14.616-4.421.448.448,0,0,1,.535.54,32.577,32.577,0,0,1,2.82,2.037c1.274.952,2.567,1.888,3.891,2.766.263.173.525.342.8.491.04.02.208.089.243.109.2.069.411.134.62.193a17.5,17.5,0,0,0,3.569.709,14.712,14.712,0,0,0,6.284-.942c1.913-.7,3.653-1.829,5.591-2.463a28.7,28.7,0,0,1,4.966-1.076,26.478,26.478,0,0,1,5.67-.278,11.519,11.519,0,0,1,2.572.446c3.762-2.106,7.474-4.252,11.033-6.706l.52-.357c-1.735-.124-3.484-.144-5.209-.382-4.778-.664-9.412-2.057-14.254-2.315-.882-.05-1.413-1.363-.486-1.809a33.612,33.612,0,0,0,5.308-3.514,15.666,15.666,0,0,0,2.007-1.561,14.178,14.178,0,0,0,1.328-1.646c.833-1.17,1.7-2.334,2.562-3.489-.8-.154-1.591-.312-2.384-.471a10.884,10.884,0,0,0,.813-1.492,2.91,2.91,0,0,0,.352-2.017,2.2,2.2,0,0,0-1.631-1.472c-.882-.228-1.809-.347-2.706-.515s-1.779-.342-2.676-.481a2.618,2.618,0,0,0-3.018,1.551c-.064.129-.124.258-.183.387a1.815,1.815,0,0,0-.659,1.4c-.1.213-.193.421-.287.629-.382-.074-.763-.154-1.14-.228a20.282,20.282,0,0,1-4.406,5.036c-2.463,2.072-5.66,4.029-9,3.891-.743-.03-1.3-1.026-.654-1.576a20.043,20.043,0,0,0,2.577-2.731c.753-1.046,1.541-2.057,2.324-3.083a8.762,8.762,0,0,0,1.839-2,34.955,34.955,0,0,0,2.612-5.224c.887-1.948,1.735-3.92,2.463-5.938a33.644,33.644,0,0,0,1.571-5.972,20.379,20.379,0,0,0,.2-6.626c-.431-2.414-2.885-2.87-4.9-3.365a31.656,31.656,0,0,0-6.1-.907,18.221,18.221,0,0,0-11.266,2.949,23.468,23.468,0,0,0-7.395,8.951,25.854,25.854,0,0,0-2.8,11.266c0,.119.01.238.01.352a1.441,1.441,0,0,0-.436.778c-.218.084-.441.169-.664.253a13.9,13.9,0,0,0-1.4-2.959,16.255,16.255,0,0,0-3.98-4.272,19.636,19.636,0,0,0-11.33-3.678,26.76,26.76,0,0,0-12.093,2.359,12.128,12.128,0,0,0-6.869,9.02,16.4,16.4,0,0,0,2.577,11.816c-1.373.525-2.746,1.051-4.119,1.586-.58.223-1.16.441-1.74.659.362.045.729.084,1.1.134a25.552,25.552,0,0,1,6.3,1.353Zm45.4-12.41a2.762,2.762,0,0,0,.223-.813s.01-.074.015-.139.04-.258.04-.283c.02-.114.04-.228.055-.342a10.64,10.64,0,0,1,.471-1.1c.1-.2.2-.411.292-.624-.139-.025-.278-.045-.416-.069.208-.947.446-1.883.734-2.81a25.1,25.1,0,0,1,2.121-5c.481-.862,1.006-1.7,1.566-2.513a9,9,0,0,1,.644-.877.323.323,0,0,1,.04-.045c.084.134.173.273.248.411l.119.253h0a.106.106,0,0,0,.015.05,10.443,10.443,0,0,1,.317,1.17.292.292,0,0,0,.02.1c0,.074.015.149.02.223.025.258.035.51.035.768,0,.421-.025.838-.064,1.254,0,.074-.01.109-.01.129s-.01.05-.025.124c-.045.258-.089.51-.149.768a21.137,21.137,0,0,1-.813,2.681c-.476,1.3-1.011,2.587-1.452,3.906-.273-.05-.54-.1-.813-.149-.114.322-.238.644-.377.957a16.151,16.151,0,0,1-1.452,2.587.79.79,0,0,1-.862.352.769.769,0,0,1-.56-.734,1.915,1.915,0,0,1,.015-.238Zm-37.167-2.022c0-.079.015-.159.025-.238.04-.208.069-.416.109-.625a18.96,18.96,0,0,1,.649-2.2c.035-.069.064-.144.1-.213.084-.173.168-.347.258-.515.183-.342.377-.674.59-1,.1-.144.2-.287.3-.426.01,0,.238-.273.287-.317s.119-.114.178-.173l.074-.055.114-.069c.045-.01.144-.045.223-.069.015,0,.268-.035.352-.04.025,0,.139,0,.183,0,.064.015.129.025.188.04a5.549,5.549,0,0,1,.694.2l.154.064c.079.04.307.159.317.159a9.642,9.642,0,0,1,.986.615c.069.045.292.218.322.233.144.124.292.243.436.372a17.009,17.009,0,0,1,1.7,1.74c.248.292.491.585.729.887.015.02.089.109.129.164.025.03.045.06.05.064.144.188.287.377.426.57.5.664.981,1.343,1.482,2.012.347.466.7.932,1.066,1.388-.169.064-.337.124-.511.188a1.836,1.836,0,0,1,.134.144,15.821,15.821,0,0,1,1.591,2.354,18.5,18.5,0,0,0,1.318,2.225c.421.545.059,1.482-.724,1.249-1.769-.525-3.529-1.076-5.293-1.606a1.044,1.044,0,0,1-.466.218c-1.65.312-3.42-.59-4.832-1.541-.743.273-1.482.545-2.225.823-.059-.124-.119-.248-.173-.372h0a.049.049,0,0,0-.01-.03.294.294,0,0,1-.02-.04.107.107,0,0,0,.015.025c-.035-.074-.1-.233-.129-.3-.079-.2-.149-.411-.218-.625a18.358,18.358,0,0,1-.54-2.25h0a1.544,1.544,0,0,0-.025-.218c-.015-.164-.03-.332-.04-.5-.03-.411-.04-.828-.03-1.239,0-.362.03-.719.064-1.076Z" transform="translate(-310.67 -258.735)" fill="#fff"/><path id="Trazado_6424" data-name="Trazado 6424" d="M342.741,417.666c-.6-4.614-.917-9.258-1.447-13.878A102.593,102.593,0,0,0,339.4,391.7c-.763-3.192-1.68-6.547-1.556-9.853a7.123,7.123,0,0,1,.892-3.474,7.681,7.681,0,0,1,1.318-1.571c-5.635-.838-11.29-1.536-16.965-2.037-.392.1-.783.2-1.18.283a43.553,43.553,0,0,1,1.066,4.5,111.512,111.512,0,0,1,1.3,11.7c.084,1.17.188,2.334.283,3.5,1.571,7.553,2.676,15.191,4.039,22.784.421,2.354.808,4.728,1.348,7.058.525,2.24,1.11,4.466,1.636,6.7a65.94,65.94,0,0,1,1.189,7.023c.124.981.218,1.968.273,2.959L347.524,444c-.907-4.262-1.794-8.535-2.6-12.817-.848-4.485-1.591-8.991-2.181-13.516Z" transform="translate(-316.339 -317.255)" fill="#fff"/></g><path id="Trazado_6425" data-name="Trazado 6425" d="M357.6,317.72c-2.275.287-4.525.729-6.785,1.13l-3.474.615c-1.12.2-2.25.3-3.375.466a32.591,32.591,0,0,1-6.765.481c-.525-.035-1.021-.183-1.541-.268a16.451,16.451,0,0,1-1.631-.352,17.108,17.108,0,0,1-2.731-.991,32.917,32.917,0,0,1-9.4-6.587,21.845,21.845,0,0,1-5.348-8.862,12.489,12.489,0,0,1,.669-9.144,10.393,10.393,0,0,1,2.87-3.658,14.015,14.015,0,0,1,5.224-2.354c4.109-1.09,8.584-1.824,12.807-.991a20.582,20.582,0,0,1,9.521,4.743c5.962,5.194,8.857,13.04,9.734,20.737.114,1,.2,2,.258,3a1.511,1.511,0,0,0,1.477,1.477,1.49,1.49,0,0,0,1.477-1.477c-.872-8.554-3.568-17.163-9.813-23.344a25.542,25.542,0,0,0-9.724-6.121c-4.352-1.457-8.857-1.11-13.312-.372-3.985.664-8.113,1.725-10.79,4.991a17.211,17.211,0,0,0-2.552,15.35,20.869,20.869,0,0,0,2.909,5.293,31.9,31.9,0,0,0,9.144,8.014,26.353,26.353,0,0,0,6.215,2.8,18.849,18.849,0,0,0,7.048.446c1.259-.124,2.513-.322,3.752-.56s2.334-.58,3.514-.843c2.409-.545,4.832-1.006,7.251-1.512,1.189-.248,2.374-.5,3.549-.8.7-.183.58-1.4-.178-1.3h0Z" transform="translate(-287.578 -270.81)" fill="#010d3d"/><path id="Trazado_6426" data-name="Trazado 6426" d="M402.324,340.427c.169.084.283.238.446.327a1.921,1.921,0,0,0,.748.149,8.122,8.122,0,0,0,1.422-.129,14.743,14.743,0,0,0,2.954-.709c.441-.154.877-.327,1.3-.51A1.484,1.484,0,0,0,410,339a3.837,3.837,0,0,0,.268-.7,8.588,8.588,0,0,0,.431-2.528c.055-3.306-1.983-6.577-5.4-7.162-1.779-.3-4.307-.05-5.011,1.908-.263.729.515,1.284,1.16,1.16a9.208,9.208,0,0,0,1.551-.53c.114-.04.233-.074.352-.1.05-.015.411-.084.312-.069s.273-.025.327-.025q.186-.007.372,0a4.169,4.169,0,0,1,2.567.976,5.9,5.9,0,0,1,1.2,6.285l.471-.615a21.174,21.174,0,0,1-3.157,1.214c-.54.159-1.08.327-1.631.461a5.281,5.281,0,0,0-.823.258c-.322.139-.392.357-.659.555a.2.2,0,0,0,0,.342h0Z" transform="translate(-331.274 -292.645)" fill="#010d3d"/><path id="Trazado_6427" data-name="Trazado 6427" d="M371.108,317.271c-1.809-.059-3.628.109-5.442.089a52.28,52.28,0,0,1-5.432-.307,23.881,23.881,0,0,1-9.2-2.84c-4.773-2.771-8.768-8.217-7.221-13.972a7.535,7.535,0,0,1,2.741-4.178,7.616,7.616,0,0,1,4.7-1.343.793.793,0,0,0,.208-1.551c-3.385-1-7.023,1.294-8.7,4.153a11.894,11.894,0,0,0-.654,10.071c2.458,6.5,9.1,10.433,15.756,11.31a38.815,38.815,0,0,0,6.656.337,43.823,43.823,0,0,0,6.736-.629c.664-.134.481-1.12-.154-1.14h0Z" transform="translate(-301.55 -274.703)" fill="#010d3d"/><path id="Trazado_6428" data-name="Trazado 6428" d="M349.85,299.57c-.416.57.486,1.15.828,1.472.59.555,1.17,1.115,1.73,1.7a31.534,31.534,0,0,1,3.137,3.846,32.846,32.846,0,0,1,4.307,8.862q.409,1.3.7,2.627a28.546,28.546,0,0,0,.545,2.86.853.853,0,0,0,1.665-.223,10.4,10.4,0,0,0-.406-2.632c-.183-.833-.406-1.7-.659-2.538a31.752,31.752,0,0,0-1.953-4.892,33.348,33.348,0,0,0-5.972-8.45,24.438,24.438,0,0,0-2.136-1.983c-.362-.292-1.313-1.3-1.784-.654h0Z" transform="translate(-305.808 -277.942)" fill="#010d3d"/><path id="Trazado_6429" data-name="Trazado 6429" d="M392.493,277.483c.154-1.17.3-2.359.535-3.519a18.8,18.8,0,0,1,1.09-3.38,20.669,20.669,0,0,1,3.628-5.715,18.553,18.553,0,0,1,11.806-6.349,31.864,31.864,0,0,1,9.461.813c1.1.223,2.691.352,3.435,1.318s.595,2.389.585,3.489a37.844,37.844,0,0,1-3.4,15.1,40.7,40.7,0,0,1-4.451,7.568,36.429,36.429,0,0,1-2.855,3.375c-1.016,1.066-2.181,2.052-3.212,3.137-.714.748.218,2.087,1.14,1.477a27.056,27.056,0,0,0,6.076-6.116,41.825,41.825,0,0,0,4.5-7.162,41.369,41.369,0,0,0,4.252-16.5,13.1,13.1,0,0,0-.233-4.287,4.6,4.6,0,0,0-3.053-3,27.249,27.249,0,0,0-4.664-1.026,35.027,35.027,0,0,0-5.184-.545,20.06,20.06,0,0,0-14.532,5.908,20.944,20.944,0,0,0-4.763,7.216,14.852,14.852,0,0,0-1.041,8.317c.114.545.828.342.892-.119h0Z" transform="translate(-326.811 -256.153)" fill="#010d3d"/><path id="Trazado_6430" data-name="Trazado 6430" d="M414.559,302.438a14.833,14.833,0,0,0,.5-3.569c.149-1.234.362-2.458.615-3.678a40.131,40.131,0,0,1,2.106-6.964c1.616-3.945,3.564-8.074,6.765-11a11.417,11.417,0,0,1,2.577-1.789,11.844,11.844,0,0,1,3.142-.942l-1.427-.808a10.932,10.932,0,0,0,.709,1.6.563.563,0,0,0,1.076,0,11.8,11.8,0,0,0,.5-1.913,1.168,1.168,0,0,0-1.16-1.16c-4.535.139-8.193,3.95-10.468,7.509a39.745,39.745,0,0,0-5.115,14.061c-.263,1.422-.466,2.86-.6,4.3a11.085,11.085,0,0,0,.015,4.352.4.4,0,0,0,.763,0h0Z" transform="translate(-337.993 -264.256)" fill="#010d3d"/><path id="Trazado_6431" data-name="Trazado 6431" d="M420.881,288.314c-.213,1.636-.441,3.291-.813,4.9a29.181,29.181,0,0,1-1.611,4.738,23.271,23.271,0,0,1-2.374,4.277,21.2,21.2,0,0,1-1.462,1.864,5.691,5.691,0,0,0-1.6,2.156.985.985,0,0,0,1.2,1.2,4.447,4.447,0,0,0,2.191-1.844,26.61,26.61,0,0,0,1.591-2.141,25.727,25.727,0,0,0,2.478-4.817,21.2,21.2,0,0,0,1.219-5.219,15.163,15.163,0,0,0-.178-5.2c-.084-.392-.595-.248-.639.084h0Z" transform="translate(-337.709 -272.208)" fill="#010d3d"/><path id="Trazado_6432" data-name="Trazado 6432" d="M417.706,320.9a23.685,23.685,0,0,0,11.7-2.359,26.223,26.223,0,0,0,9.427-7.648,24.21,24.21,0,0,0,3.375-5.967l-1.829,1.041,5.784,1.343c.8.188,1.621.342,2.4.6a2.465,2.465,0,0,1,.565.233,3.471,3.471,0,0,1,.411.248c-.218-.164.292.352.114.1.178.248.144.183.129.461a3.359,3.359,0,0,1-.377,1.09,22.313,22.313,0,0,1-1.031,2.032,23.827,23.827,0,0,1-2.473,3.593,24.119,24.119,0,0,1-15.766,8.54,25.871,25.871,0,0,1-5.809-.035,22.594,22.594,0,0,1-2.572-.476c-.491-.119-.971-.263-1.467-.357a4.383,4.383,0,0,0-1.685.059,1.045,1.045,0,0,0-.456,1.73,3.289,3.289,0,0,0,1.269.962,9.551,9.551,0,0,0,1.338.426,24.686,24.686,0,0,0,2.751.525,27.482,27.482,0,0,0,5.883.213,26.736,26.736,0,0,0,18.68-9.551A27.574,27.574,0,0,0,451,313.5c.9-1.606,2.166-3.7,1.636-5.6s-2.5-2.706-4.233-3.117c-2.4-.575-4.817-1.12-7.226-1.68a1.532,1.532,0,0,0-1.829,1.041,25.081,25.081,0,0,1-15.473,14.319,27.118,27.118,0,0,1-6.161,1.14.65.65,0,0,0,0,1.3h0Z" transform="translate(-339.772 -279.81)" fill="#010d3d"/><path id="Trazado_6433" data-name="Trazado 6433" d="M402.273,349.589a3.981,3.981,0,0,0,.169,2.984,11.341,11.341,0,0,0,1.4,2.766,15.9,15.9,0,0,0,4.966,4.347,25.355,25.355,0,0,0,6.364,2.691,12.526,12.526,0,0,0,4.292.312,6.01,6.01,0,0,0,2.022-.729c.659-.327,1.3-.7,1.923-1.09a43.5,43.5,0,0,0,7.4-5.779,1.38,1.38,0,0,0-.966-2.329,16.669,16.669,0,0,1-5.962-1.457,17.58,17.58,0,0,1-2.785-1.591c-.877-.615-1.7-1.363-2.622-1.968a1.289,1.289,0,0,0-1.75,1.75c1.284,2.057,3.663,3.479,5.853,4.436a18.237,18.237,0,0,0,7.261,1.561l-.966-2.329a36.133,36.133,0,0,1-5.6,4.872,25.241,25.241,0,0,1-3.2,1.973,7.874,7.874,0,0,1-.729.312c-.287.1-.575.307-.852.4a4.508,4.508,0,0,1-1.908-.03,20.733,20.733,0,0,1-6.066-2.161,16.845,16.845,0,0,1-4.659-3.464,11.885,11.885,0,0,1-1.824-2.528,20.73,20.73,0,0,0-1.214-2.934.329.329,0,0,0-.56,0h0Z" transform="translate(-332.185 -302.253)" fill="#010d3d"/><path id="Trazado_6434" data-name="Trazado 6434" d="M377.385,356.522a23.717,23.717,0,0,0-4.411,1.422c-1.452.545-2.815,1.1-4.223,1.65-2.855,1.13-5.675,2.344-8.5,3.534l-4.188,1.759a17.213,17.213,0,0,0-3.668,1.72,3.928,3.928,0,0,0-1.655,3.524c.059,1.462.352,2.989.54,4.471q2.364,18.356,4.8,36.7,1.375,10.364,2.984,20.7c.213,1.368,2.607,1.061,2.443-.332-1.422-12-3.182-23.973-4.9-35.938q-1.264-8.825-2.557-17.639l-.664-4.53-.307-2.082c-.084-.575-.367-1.427.055-1.933a2.833,2.833,0,0,1,.927-.6c.535-.283,1.1-.515,1.65-.758l4.049-1.779c3.073-1.348,6.171-2.652,9.214-4.064,1.482-.689,2.974-1.358,4.446-2.072a26.749,26.749,0,0,0,4.515-2.434.725.725,0,0,0-.555-1.318h0Z" transform="translate(-306.306 -306.767)" fill="#010d3d"/><path id="Trazado_6435" data-name="Trazado 6435" d="M332.017,427.468a3.08,3.08,0,0,0,.258-1.294c-.02-.486-.079-.981-.139-1.467-.124-1.056-.283-2.111-.426-3.162q-.409-3-.857-6.007l-1.824-12.108c-1.2-7.989-2.374-15.984-3.613-23.973-.694-4.475-1.338-8.966-2.1-13.436l-.9,1.591q5.635-2.3,11.28-4.56c3.777-1.512,7.593-2.964,11.335-4.565,1.189-.505.337-2.547-.887-2.1-3.762,1.378-7.474,2.914-11.206,4.376s-7.469,2.919-11.211,4.357a1.344,1.344,0,0,0-.9,1.591c1.194,8.064,2.6,16.1,3.945,24.137l3.975,23.869c.367,2.191.729,4.381,1.125,6.567.208,1.13.406,2.265.62,3.4.1.56.218,1.13.367,1.68a3.206,3.206,0,0,0,.694,1.224c.139.183.4.049.466-.124h0Z" transform="translate(-291.211 -306.676)" fill="#010d3d"/><path id="Trazado_6436" data-name="Trazado 6436" d="M455.468,363.435a19,19,0,0,0,3.93.669c1.323.164,2.671.327,4,.491,2.666.327,5.338.615,8.009.912l-1.036-1.036c.654,9.134,1.408,18.259,2.156,27.383q1.115,13.627,2.27,27.254c.436,5.135.758,10.294,1.378,15.409a1.1,1.1,0,0,0,1.071,1.071,1.082,1.082,0,0,0,1.071-1.071c-.243-4.57-.738-9.129-1.135-13.684s-.783-9.124-1.175-13.689q-1.16-13.627-2.27-27.254c-.421-5.14-.838-10.279-1.289-15.419a1.076,1.076,0,0,0-1.036-1.036c-2.627-.253-5.259-.515-7.885-.743-1.294-.109-2.587-.223-3.881-.332a19.262,19.262,0,0,0-4-.154.632.632,0,0,0-.168,1.234h0Z" transform="translate(-358.914 -309.612)" fill="#010d3d"/><path id="Trazado_6437" data-name="Trazado 6437" d="M487.359,420.593c.04-2.384-.164-4.778-.278-7.162s-.228-4.773-.332-7.162c-.213-4.733-.406-9.466-.644-14.195q-.721-14.244-1.323-28.489-.171-3.948-.292-7.9c-.04-1.358-.074-2.716-.124-4.074s-.04-2.731-.2-4.074A1.1,1.1,0,0,0,482.8,346.5a20.252,20.252,0,0,1-3.336.094c-1.046-.01-2.092-.03-3.137-.069-2.215-.074-4.421-.233-6.626-.451a119.61,119.61,0,0,1-12.975-2.007c-1.313-.277-1.873,1.755-.555,2.017A126.146,126.146,0,0,0,469.581,348c2.245.2,4.5.327,6.745.421,1.125.045,2.255.074,3.38.089a32.051,32.051,0,0,1,3.38.1l-1.076-1.076a60.583,60.583,0,0,0,.015,7.162c.069,2.364.154,4.773.248,7.157.193,4.778.5,9.541.823,14.309.639,9.506,1.427,19,2.225,28.5q.335,4.015.664,8.024c.218,2.676.327,5.353.714,7.99.055.387.654.278.664-.089h0Z" transform="translate(-359.11 -300.48)" fill="#010d3d"/><path id="Trazado_6438" data-name="Trazado 6438" d="M319.269,339.547a47.133,47.133,0,0,1-10.2-2.151c-1.1-.382-1.6,1.408-.481,1.75a27.771,27.771,0,0,0,10.681,1.264.429.429,0,0,0,0-.857h0Z" transform="translate(-284.733 -297.103)" fill="#010d3d"/><path id="Trazado_6439" data-name="Trazado 6439" d="M345.19,323.784v.03a.88.88,0,0,0,.634.838c2.166.724,4.391,1.2,6.607,1.75,1.155.283,2.3.585,3.459.843a16.647,16.647,0,0,0,3.078.52c.867.03,1.308-1.323.461-1.71a32.855,32.855,0,0,0-6.438-1.7c-2.131-.481-4.446-1.061-6.711-1.378a.9.9,0,0,0-.981.4,1.043,1.043,0,0,0-.119.406h0Z" transform="translate(-303.506 -289.85)" fill="#010d3d"/></g></g></g></svg>