<svg xmlns="http://www.w3.org/2000/svg" width="280.395" height="286.034" viewBox="0 0 280.395 286.034"><g id="IICE_LandingCompliance_Bitacora" transform="translate(-0.001)"><path id="Trazado_5588" data-name="Trazado 5588" d="M461.273,582.189c-4.753-31.491-21-60.924-44.466-82.351-25.733-23.479-57.853-38.331-89.98-17-24.079,18.349-18.2,36.838-8.731,61.252a180.121,180.121,0,0,1,6.945,31.889,104.454,104.454,0,0,1-.733,12.94c-.181,1.522,1.417,2.729,2.771,2.771q18.855.586,37.71.642t37.717-.412q10.595-.262,21.19-.691a2.789,2.789,0,0,0,2.652-3.476,326.2,326.2,0,0,0-21-65.949c21.246,16.925,32.769,36.5,34.821,63.827.607,2.575-.977,6.917,2.268,7.991a34.514,34.514,0,0,0,9.555.307C460.129,593.272,463.472,590.669,461.273,582.189Z" transform="translate(-181.537 -321.45)" fill="#64d8cc"></path><path id="Trazado_5589" data-name="Trazado 5589" d="M328.511,335.517c-3.727-6.128-9.632-6.247-14.943-2.024a1.413,1.413,0,0,1-1.445.028c-16.618-16.841-40.746-18.161-62.906-20.708-3.015-.091-6.282-1.591-9.108-.1-6.121,6.931-1.947,5.039-11.216,8.389a8.793,8.793,0,0,0-4.027,8.508c-.1,4.481-.572,9-.384,13.477,1.054,5.884,2.778,11.279,2.771,17.428,1.312,14.769,3.818,27.415,10.525,40.509.53,3.127,4.181,8.382,7.182,11.7,13.924,15.411,40.809,22,56.611,6.763,6.575,12.731,10.246,14.05,11.865,29.167,2.631,4.662,7.587-3.567,9.178-5.8,6.707-9.1.537-18.342-3.511-27.129-3.846-6.728-6.672-8.794-1.947-16.339,6.184-12.074,9.9-25.6,7.307-39.022C332.307,354.927,334.171,343.243,328.511,335.517Z" transform="translate(-155.736 -272.974)" fill="#fff"></path><path id="Trazado_5590" data-name="Trazado 5590" d="M336.084,639.9a.087.087,0,0,0,0-.175.087.087,0,0,0,0,.175Z" transform="translate(-189.433 -371.949)" fill="#64d8cc"></path><path id="Trazado_5591" data-name="Trazado 5591" d="M224.313,359.55c-.028,1.954-.091,3.909-.084,5.856s-.035,3.86.1,5.772c.265,3.818.67,7.587,1.228,11.377a127.62,127.62,0,0,0,4.523,20.436A68.737,68.737,0,0,0,238.593,421a53.3,53.3,0,0,0,14.168,14.106,65.059,65.059,0,0,0,21.1,8.962,28.51,28.51,0,0,0,9.248.893,20.775,20.775,0,0,0,4.627-.789c1.57-.516,2.366-.872,3.951-1.535,12.354-5.165,21.895-16.206,28.12-27.785a66.993,66.993,0,0,0,6.952-19.152,39.887,39.887,0,0,0,.789-9.715,46.38,46.38,0,0,0-1.235-8.759,24.113,24.113,0,0,0-1.319-4.111,1.959,1.959,0,0,0-2.659-.7,1.99,1.99,0,0,0-.7,2.659c.133.3.3.586.44.879.063.14.4.914.279.621l.181.44c-.077-.181-.07-.174.007.028.063.154.119.314.174.475.119.314.23.635.321.956.188.656.328,1.326.454,2,.063.342.126.684.174,1.026.028.175.056.342.077.517-.042-.307.021.174.028.23a39.962,39.962,0,0,1-.119,8.759c-.1.928-.119,1.1-.258,1.968-.119.775-.258,1.542-.412,2.3q-.471,2.356-1.145,4.655a67.283,67.283,0,0,1-3.35,9.038,72.133,72.133,0,0,1-10.574,16.862,47.909,47.909,0,0,1-14.21,11.809,24.71,24.71,0,0,1-3.7,1.605,14.515,14.515,0,0,1-1.85.572c-.342.07-.691.126-1.04.181-.091.014-.677.1-.126.021-.37.056-.712.112-1.075.188-.614.133-1.235.237-1.864.335.572-.084-.454.049-.614.063-.4.035-.8.063-1.187.084a24.7,24.7,0,0,1-4-.154c-.349-.042.537.1-.014,0l-.51-.084c-.342-.063-.677-.126-1.019-.2-.984-.216-1.961-.468-2.931-.726-1.905-.51-3.8-1.089-5.66-1.745s-3.259-1.221-4.837-1.947-3.155-1.529-4.676-2.4c-1.452-.83-2.869-1.731-4.237-2.7-.335-.237-.663-.475-.991-.719-.161-.119-.328-.244-.489-.37-.537-.4.342.279-.181-.14-.628-.5-1.249-1.005-1.85-1.536a52.23,52.23,0,0,1-6.463-6.8c-.4-.5.272.37-.112-.147-.119-.154-.23-.307-.349-.461-.23-.307-.461-.621-.684-.935-.447-.628-.886-1.27-1.305-1.919q-1.267-1.958-2.373-4.013c-.74-1.368-1.445-2.792-2.094-4.223q-.251-.544-.482-1.089c-.077-.181-.161-.363-.237-.551.174.412.035.084,0,0-.328-.8-.656-1.612-.963-2.422a115.833,115.833,0,0,1-5.179-19.466c-.663-3.5-1.207-7.035-1.7-10.567.063.454-.07-.489-.063-.454-.035-.223-.091-.447-.133-.663-.084-.447-.161-.893-.237-1.34-.188-1.11-.307-1.857-.475-2.931-.272-1.773-.733-3.539-1.1-5.29s-.747-3.567-1.11-5.346c-.174-.859-1.487-.635-1.5.2h0Z" transform="translate(-155.673 -287.096)" fill="#010d3d"></path><path id="Trazado_5592" data-name="Trazado 5592" d="M348.755,342.768c.572-.454,1.228-.852,1.829-1.27a8.2,8.2,0,0,1,1.961-1.1,13.852,13.852,0,0,1,4.327-.907,9.885,9.885,0,0,1,9.548,6.477,14.7,14.7,0,0,1,.586,5.563,20.515,20.515,0,0,1-3.232,9.995,12.329,12.329,0,0,1-3.483,3.552,7.593,7.593,0,0,1-2.024.97,7.964,7.964,0,0,0-2.722.984,1.579,1.579,0,0,0,0,2.673c1.745,1.326,4.46.209,6.142-.719a15.011,15.011,0,0,0,4.341-3.713,24.6,24.6,0,0,0,5.081-12.347c.579-4.46-.077-8.962-3.008-12.563a13.707,13.707,0,0,0-10.078-4.969,12.238,12.238,0,0,0-6.337,1.654,15.952,15.952,0,0,0-2.555,1.933,7.091,7.091,0,0,0-1.815,2.659.92.92,0,0,0,1.438,1.11h0Z" transform="translate(-192.822 -280.023)" fill="#010d3d"></path><path id="Trazado_5593" data-name="Trazado 5593" d="M335.036,466.593a16.9,16.9,0,0,0,.7,2.576c.349.733.782,1.431,1.187,2.136q1.256,2.188,2.513,4.383c.838,1.466,1.675,2.924,2.457,4.418a38.581,38.581,0,0,1,2.436,4.467,1.888,1.888,0,1,0,3.155-1.836,37.435,37.435,0,0,1-2.813-4.257c-.984-1.438-1.905-2.917-2.834-4.39s-1.857-2.952-2.778-4.425a23.335,23.335,0,0,0-1.347-2.038,4.214,4.214,0,0,0-.935-.768,10.79,10.79,0,0,1-.8-.8.56.56,0,0,0-.928.544h0Z" transform="translate(-189.139 -319.445)" fill="#010d3d"></path><path id="Trazado_5594" data-name="Trazado 5594" d="M350.61,449.073a4.15,4.15,0,0,0,.51,2.5c.468,1.068.928,2.143,1.438,3.2.963,2,1.843,4.027,2.827,6.016,1.989,4,4.16,7.929,6.372,11.809.37.656.824,1.145.614,1.878a19.431,19.431,0,0,1-1.068,2.589,57.311,57.311,0,0,1-2.652,5.172c-.991,1.724-1.982,3.448-3.12,5.074-.5.712-1.012,1.417-1.542,2.1-.279.363-.572.719-.865,1.075-.154.2-.307.391-.475.579a3.655,3.655,0,0,1-.272.3c.649.237.886.237.7,0a6.3,6.3,0,0,0-.789-1.312c-.23-.433-.454-.872-.642-1.319a13.915,13.915,0,0,1-.914-3.029,15.961,15.961,0,0,1,.174-6.275c.419-1.85-2.5-2.61-2.82-.775a21.883,21.883,0,0,0,1.738,13.017,5.212,5.212,0,0,0,1.8,2.471c1.27.761,2.555.167,3.5-.789A45.312,45.312,0,0,0,359.439,488a53.822,53.822,0,0,0,6.554-11.956,4.843,4.843,0,0,0,.223-3.413,22.079,22.079,0,0,0-1.864-3.58c-1.263-2.219-2.589-4.4-3.888-6.61-1.473-2.5-2.973-5-4.683-7.349-.824-1.131-1.556-2.317-2.359-3.462-.7-1.005-1.375-2.261-2.562-2.7a.214.214,0,0,0-.258.146h0Z" transform="translate(-192.987 -314.313)" fill="#010d3d"></path><path id="Trazado_5595" data-name="Trazado 5595" d="M343.709,496.943c-1.766.551-3.469,1.277-5.242,1.8a31.562,31.562,0,0,1-5.472,1.11l1.152,1.152c-.174-5.528-.558-11.481,3.211-16,.921-1.1-.572-2.673-1.605-1.605-4.369,4.509-4.369,11.76-3.908,17.609a1.174,1.174,0,0,0,1.452,1.11c3.8-.6,7.936-1.738,11.014-4.132.5-.391-.042-1.214-.607-1.04h0Z" transform="translate(-188.118 -324.62)" fill="#010d3d"></path><path id="Trazado_5596" data-name="Trazado 5596" d="M361.318,497.923a7.748,7.748,0,0,0,3.587,2.094,20.325,20.325,0,0,0,3.95.984,26.1,26.1,0,0,0,8.529-.056,1.314,1.314,0,0,0,.942-.942c1.228-5.311,2.408-11.663-1.089-16.4a1.456,1.456,0,0,0-1.926-.5,1.413,1.413,0,0,0-.5,1.926c3.078,4.111,1.954,9.632.914,14.266l.942-.942a24.94,24.94,0,0,1-7.622.272,31.926,31.926,0,0,1-3.692-.719,15.386,15.386,0,0,0-3.7-.775.477.477,0,0,0-.335.8h0Z" transform="translate(-197.044 -324.581)" fill="#010d3d"></path><path id="Trazado_5597" data-name="Trazado 5597" d="M225.73,355.552a14.3,14.3,0,0,0,.321-2.429,23.629,23.629,0,0,1,.042-2.722,47.773,47.773,0,0,0,0-5.29c-.049-3.587.3-7.175.244-10.755l-2.164,1.242A92.7,92.7,0,0,0,236.088,342a56.254,56.254,0,0,0,12.954,3.769,1.082,1.082,0,0,0,1.312-1.312,39.583,39.583,0,0,0-10.064-18.223l-1.668,2.157a65.261,65.261,0,0,0,21.239,10.776,49.36,49.36,0,0,0,11.544,2.254c1.808.084,3.7-.51,4.481-2.275s.07-3.713-.782-5.3c-2.415-4.488-5.172-8.829-7.761-13.212l-2.24,1.731a48.161,48.161,0,0,0,24.666,14.022,1.426,1.426,0,0,0,1.717-.977,14.906,14.906,0,0,0-1.968-12.612l-2.213,1.7L308.647,343.7a1.4,1.4,0,0,0,1.919,0,4.963,4.963,0,0,0,.74-6.5,1.375,1.375,0,0,0-1.822-.475,1.341,1.341,0,0,0-.475,1.822,2.367,2.367,0,0,1-.363,3.245h1.919l-21.274-19.263c-1.124-1.019-3.162.328-2.213,1.7a12.187,12.187,0,0,1,1.7,10.448l1.717-.977a45.408,45.408,0,0,1-23.388-13.345,1.433,1.433,0,0,0-2.24,1.731q3.151,5.339,6.323,10.672c.8,1.354,2.017,2.876,2.227,4.488s-1.536,1.48-2.645,1.375a58.43,58.43,0,0,1-20.234-5.967,61.915,61.915,0,0,1-10.26-6.414,1.415,1.415,0,0,0-1.94,0,1.388,1.388,0,0,0,0,1.94,36.8,36.8,0,0,1,9.946,16.848l1.312-1.312c-8.438-1.382-17.26-4.579-23.7-10.372a1.449,1.449,0,0,0-2.4.635,51.231,51.231,0,0,0-.293,11.139,25.183,25.183,0,0,0,.614,5.423c.244.879.426,1.738.586,2.631a10.029,10.029,0,0,0,.942,2.429.208.208,0,0,0,.377-.049h0Z" transform="translate(-155.317 -275.351)" fill="#010d3d"></path><path id="Trazado_5598" data-name="Trazado 5598" d="M303.959,313.5a120.342,120.342,0,0,0-.593-26.327,94.152,94.152,0,0,0-2-12.4,7.9,7.9,0,0,0-3.239-4.837,23.823,23.823,0,0,0-5.6-2.2c-8.312-2.792-16.667-5.528-25.133-7.824-8.117-2.2-16.555-3.853-24.994-3.86-8.648-.007-17.686,2.073-24.924,6.945a2.21,2.21,0,0,0-.782,2.994c2.219,2.994,4.383,6.037,6.742,8.92l1.291-3.12c-2.478-.063-4.942-.279-7.426-.223a67.365,67.365,0,0,0-7.587.621,63.321,63.321,0,0,0-14.085,3.629,53.944,53.944,0,0,0-13.177,6.938,11.07,11.07,0,0,0-4.237,5.493,5.774,5.774,0,0,0,2.45,6.358,20.023,20.023,0,0,0,3.532,1.8q2.146.953,4.334,1.808c2.834,1.11,5.716,2.087,8.627,2.973V297.9a111.411,111.411,0,0,0-13.868,4.62c-2.247.921-4.474,1.9-6.658,2.959a20.644,20.644,0,0,0-4.983,3.162c-3.029,2.729-3.832,7.021-1.11,10.26,2.429,2.89,6.477,3.874,10.044,4.376a59.646,59.646,0,0,0,17.051-.077l-1.466-3.483c-2.331,1.138-4.823,2.45-6.177,4.774a6.6,6.6,0,0,0,.042,6.966c1.766,2.457,5.1,2.631,7.866,2.729a30.653,30.653,0,0,0,9.255-1.082c2.359-.649,1.368-4.243-1.012-3.657a29.816,29.816,0,0,1-6.938.893,29.452,29.452,0,0,1-3.594-.2,4.166,4.166,0,0,1-2.226-.7,1.82,1.82,0,0,1-.468-1.5,3.51,3.51,0,0,1,.691-1.864c1.082-1.459,2.9-2.282,4.481-3.064a1.9,1.9,0,0,0,.782-2.38,1.944,1.944,0,0,0-2.247-1.1,55.12,55.12,0,0,1-13.219.384c-3.12-.279-6.8-.691-9.29-2.617a5.591,5.591,0,0,1-1.138-1.186,2.875,2.875,0,0,1-.516-1.556,4.469,4.469,0,0,1,1.745-3.35,17.89,17.89,0,0,1,4.23-2.631q2.858-1.413,5.793-2.652a107.365,107.365,0,0,1,13.84-4.711,1.723,1.723,0,0,0,0-3.294,91.429,91.429,0,0,1-13.554-5.242c-1.326-.635-3.183-1.494-2.834-3.2s1.975-3.071,3.287-3.992a59.192,59.192,0,0,1,24.512-9.667,58.178,58.178,0,0,1,7.217-.684,37.178,37.178,0,0,1,7.531.265,1.855,1.855,0,0,0,2.066-2.687c-1.822-3.043-3.867-5.96-5.835-8.913l-.782,2.994a43.707,43.707,0,0,1,20.2-6.316,62.916,62.916,0,0,1,11.579.2,95.925,95.925,0,0,1,11.837,2.254c8.089,2,16.046,4.572,23.961,7.154q3.026.984,6.037,2c1.4.468,3.1.831,3.943,2.157.921,1.445,1.1,3.42,1.438,5.06.4,1.989.768,3.978,1.1,5.981.768,4.641,1.4,9.332,1.745,14.022s.565,9.471.782,14.2a.831.831,0,0,0,1.661,0h0Z" transform="translate(-138.952 -256.06)" fill="#010d3d"></path><path id="Trazado_5599" data-name="Trazado 5599" d="M355.32,276a10.369,10.369,0,0,0,.733-1.857l.412-1.7c.133-.544.244-1.1.363-1.64a9,9,0,0,0,.37-2.213,2.359,2.359,0,0,0-2.045-2.31,2.257,2.257,0,0,0-1.5.279,2.633,2.633,0,0,0-1.082,1.41,8.545,8.545,0,0,0-.286,2.157c-.056.558-.112,1.11-.154,1.668s-.077,1.11-.119,1.668a6.953,6.953,0,0,0-.042.768c.007.161.209,1.026.084.607-.014-.168-.007-.161.007.021l.035.279a1.8,1.8,0,0,0,1.27,1.668,1.744,1.744,0,0,0,1.954-.8h0Z" transform="translate(-194.256 -259.142)" fill="#010d3d"></path><path id="Trazado_5600" data-name="Trazado 5600" d="M354.483,281.184l.077.056a1.342,1.342,0,0,0,1.389,0c.356-.23.719-.419,1.054-.684.272-.223.544-.461.817-.677l-.363.279a11.478,11.478,0,0,0,1.445-1.214c.356-.321.712-.642,1.061-.977.837-.8,1.9-1.577,1.9-2.862a2,2,0,0,0-2.143-1.989,2.582,2.582,0,0,0-1.159.328,6.8,6.8,0,0,0-.586.454,2.7,2.7,0,0,0-.37.377c-.7.817-1.34,1.668-1.975,2.541-.314.426-.586.865-.879,1.305a4.664,4.664,0,0,0-.53.949.821.821,0,0,0-.049.14c-.077.209.209-.412.049-.133-.056.1-.1.2-.16.293a1.357,1.357,0,0,0,0,1.389,1.791,1.791,0,0,0,.419.44h0Z" transform="translate(-194.829 -261.209)" fill="#010d3d"></path><path id="Trazado_5601" data-name="Trazado 5601" d="M263.144,379.984c-.209,2.464-.349,4.927-.468,7.4s-.363,4.816-.44,7.231c-.161,4.816-.37,9.632-.4,14.448a130.326,130.326,0,0,0,.593,14.154q.178,1.717.419,3.434a9.18,9.18,0,0,0,.712,3.245,2.7,2.7,0,0,0,2.6,1.354,7.721,7.721,0,0,0,3.245-1.459l7.091-4.313c2.359-1.438,4.837-2.687,7.245-4.048,2.324-1.312.119-5.039-2.08-3.559-.956.642-1.926,1.27-2.883,1.919s-1.843,1.4-2.827,2.017c-1.85,1.173-3.713,2.324-5.57,3.49l-2.931,1.836c-.4.251-.852.475-1.228.754-.021.014-.314.126-.314.133l.447.244a.34.34,0,0,0-.049-.244,8.478,8.478,0,0,0-.272-1.549c-.07-.447-.14-.886-.2-1.333-.161-1.138-.293-2.282-.4-3.427-.872-8.815-.461-17.735-.279-26.578.049-2.464-.049-4.934-.042-7.4s.007-5.158-.07-7.747a.95.95,0,0,0-1.9,0Z" transform="translate(-167.032 -293.215)" fill="#010d3d"></path><path id="Trazado_5602" data-name="Trazado 5602" d="M242.374,400.869a2,2,0,0,0,1.047-.237,2.108,2.108,0,0,0,.872-.558,1.977,1.977,0,0,0,.558-.872,2.064,2.064,0,0,0,.237-1.047l-.1-.719a2.715,2.715,0,0,0-.7-1.2l-.551-.426a2.7,2.7,0,0,0-1.368-.37,2,2,0,0,0-1.047.237,2.107,2.107,0,0,0-.872.558,1.976,1.976,0,0,0-.558.872,2.064,2.064,0,0,0-.237,1.047l.1.719a2.716,2.716,0,0,0,.7,1.2l.551.426a2.7,2.7,0,0,0,1.368.37Z" transform="translate(-160.333 -298.159)" fill="#010d3d"></path><path id="Trazado_5603" data-name="Trazado 5603" d="M296.482,386.075a.413.413,0,0,0-.042-.028l.489.377a.4.4,0,0,1-.056-.056l.377.489s-.035-.056-.049-.084l.251.586s-.021-.07-.028-.1l.091.663v-.091l-.349,1.284h0l-.4.51.014-.014c.077-.091,0,0,.209-.272a1.772,1.772,0,0,0,.468-.893c.014-.07.091-.635.091-.705v-.07l-.091.7a.731.731,0,0,1,.042-.167l-.265.635a.655.655,0,0,1,.07-.119l-.419.544a.761.761,0,0,1,.077-.077l-.544.426s.056-.035.084-.049l-.649.272h.014l.649-.279.551-.426s.419-.53.433-.558v-.014l.021-.021v-.014s.272-.628.279-.649a2.676,2.676,0,0,0-.684-2.6,2.657,2.657,0,0,0-1.187-.691.053.053,0,0,1-.028-.007h-.028c-.244-.042-.482-.077-.726-.1a2.164,2.164,0,0,0-.733.1,2.024,2.024,0,0,0-.928.489,2.7,2.7,0,0,0-.293.23c-.16.161-.551.719-.454.579a.623.623,0,0,0-.056.091,4.33,4.33,0,0,0-.3.74,4.58,4.58,0,0,0-.1.817v.056c.014.126.035.272.049.377s.028.251.049.377a.518.518,0,0,0,.028.112,2.6,2.6,0,0,0,.677,1.159l.272.209a1.978,1.978,0,0,0,.886.468c.007,0,.021.007.028.007l-.607-.258h0l-.516-.4s.056.056.084.077a2.8,2.8,0,0,0,1.919.8h.056a5.535,5.535,0,0,0,.684-.091l.565-.237.482-.37.37-.482a1.748,1.748,0,0,0,.279-.886,1.226,1.226,0,0,0,0-.635,1.207,1.207,0,0,0-.161-.6,1.172,1.172,0,0,0-.307-.523,1.833,1.833,0,0,0-.67-.614h0Z" transform="translate(-176.228 -294.846)" fill="#010d3d"></path><path id="Trazado_5604" data-name="Trazado 5604" d="M329.364,432.872a4.031,4.031,0,0,0,1.521-.279c.489-.23,1.005-.517,1.494-.8a20.592,20.592,0,0,0,2.6-1.85,21.6,21.6,0,0,0,4.418-5.1,24.943,24.943,0,0,0,2.813-6.023,19.25,19.25,0,0,0,1.089-6.707,1.592,1.592,0,0,0-3.183,0,30.638,30.638,0,0,1-.914,5.737,23.71,23.71,0,0,1-2.436,5.451,27.489,27.489,0,0,1-3.615,4.627c-.684.726-1.417,1.4-2.164,2.045-.391.335-.817.628-1.207.963a6.752,6.752,0,0,0-.893,1.089.558.558,0,0,0,.482.838h0Z" transform="translate(472.325 548.623) rotate(180)" fill="#010d3d"></path><path id="Trazado_5605" data-name="Trazado 5605" d="M427.845,528.995c.621.544,1.1,1.2,1.717,1.745.572.516,1.193,1,1.794,1.48,1.291,1.026,2.562,2.08,3.811,3.148s2.415,2.108,3.594,3.19a40.133,40.133,0,0,0,3.587,3.217c.44.314,1.1-.321.761-.761a25.234,25.234,0,0,0-3.42-3.378c-1.187-1.061-2.478-2.177-3.741-3.238q-1.853-1.539-3.748-3.015c-.614-.475-1.242-.956-1.891-1.382-.726-.475-1.542-.775-2.282-1.228-.133-.084-.293.112-.175.223h0Z" transform="translate(-217.164 -338.427)" fill="#010d3d"></path><g id="Grupo_3426" data-name="Grupo 3426" transform="translate(0.001 179.765)"><path id="Trazado_5606" data-name="Trazado 5606" d="M307.186,521.4a12.059,12.059,0,0,0-4.578-6.693,6.953,6.953,0,0,0-8.117.489c-3.943,2.987-6.212,7.405-7.5,12.1a106.653,106.653,0,0,0-2.478,15.069c-.335,2.694-.649,5.388-.97,8.082q-.241,1.989-.482,3.964c-.084.635-.161,1.263-.244,1.9-.1.761-.133,1-.216,1.633a157.384,157.384,0,0,1-2.89,15.913q-.942,3.916-2.213,7.733c-.433,1.305-.9,2.589-1.4,3.867-.112.3-.23.593-.349.886a.608.608,0,0,0-.049.119c-.035.077-.07.16-.112.237-.23.516-.482,1.019-.754,1.515-.251.468-.523.921-.817,1.368-.167.258-.349.516-.53.768l-.167.23c-.028.035-.077.1-.126.154a14.832,14.832,0,0,1-1.054,1.145c-.181.181-.363.349-.551.516-.091.077-.189.154-.279.23-.014.014-.021.014-.035.028-.4.265-.824.481-1.221.733h-.021c-.091.035-.188.07-.279.1-.23.077-.475.112-.7.182a1.114,1.114,0,0,1-.216,0h-.377c-.1-.021-.412-.07-.489-.091-.119-.035-.523-.2-.523-.188q-.293-.157-.586-.335c-.091-.056-.133-.077-.154-.091s-.049-.049-.133-.126a14.117,14.117,0,0,1-1.305-1.361c-.056-.07-.307-.391-.314-.4l-.419-.565c-.426-.579-.844-1.166-1.263-1.752-1.766-2.443-3.476-5-5.43-7.3-.921-1.082-1.85-2.143-2.8-3.2a5.324,5.324,0,0,0-1.766-1.459c-.412-.2-.81-.412-1.214-.635a2.566,2.566,0,0,0-2.436-1.549c-5.046.377-8.934,4.641-9.674,9.548-.845,5.632,1.556,11.007,3.783,16.046,3.378,7.642,8.292,15.927,16.632,18.789,9.688,3.322,18.824-3.225,24.533-10.532a89.813,89.813,0,0,0,13.868-26.7,169.657,169.657,0,0,0,6.658-29.111c.768-5.088,1.41-10.2,2.01-15.313.621-5.27,1.368-10.783-.244-15.955Z" transform="translate(-160.368 -513.622)" fill="#64d8cc"></path><path id="Trazado_5607" data-name="Trazado 5607" d="M223.305,584.237a48.244,48.244,0,0,0-1.689-6.379,45.594,45.594,0,0,0-2.694-6.77,20.616,20.616,0,0,0-10.434-10.106,21.429,21.429,0,0,0-8.682-1.431,35.245,35.245,0,0,0-3.587.286,10.938,10.938,0,0,0-1.159-5.346,8.413,8.413,0,0,0-2.338-3.232,16.866,16.866,0,0,0-3.441-2.268c-6.03-2.9-12.793-1.926-19.117-.642-5.681,1.151-11.649,2.4-16.353,6A24.212,24.212,0,0,0,145.163,568a31.742,31.742,0,0,0,.991,17.337,46.961,46.961,0,0,0,8.689,15.529c3.671,4.313,8.724,7.419,14.489,7.315a40.371,40.371,0,0,0,11.307-.021,36.19,36.19,0,0,0,7.929-2.045,41.833,41.833,0,0,0,4.2-1.871,15.826,15.826,0,0,0,3.706-2.359,4.89,4.89,0,0,0,1.054-1.473.309.309,0,0,1,.112.014c.14.021.279.042.412.07.112.021.223.049.335.07a2.632,2.632,0,0,0,.907.056,9.963,9.963,0,0,0,4.09,1.438,13.3,13.3,0,0,0,1.9.056,2.414,2.414,0,0,0,1.829,1.7c.251.042.5.056.74.077v.028c.342.014.691,0,1.033-.014a8.108,8.108,0,0,0,1.556-.209,11.314,11.314,0,0,0,8.669-8.438c.007-.042.056-.286.1-.5.4-.2,1.04-.482,1.138-.544a6.724,6.724,0,0,0,2.534-3.022,12.3,12.3,0,0,0,.426-6.958Z" transform="translate(-131.557 -523.733)" fill="#fff"></path><g id="Grupo_3425" data-name="Grupo 3425" transform="translate(0 11.942)"><path id="Trazado_5608" data-name="Trazado 5608" d="M244.194,591.174c.516-2.9-.293-6-.984-8.815a61.37,61.37,0,0,0-2.506-7.971c-2-5.046-5.123-9.967-10.295-12.179a24.215,24.215,0,0,0-8.62-1.675,38.36,38.36,0,0,0-7.852.321c-2.331.4-4.7,1.312-6.037,3.371a6.868,6.868,0,0,0-.133,7.2c1.619,2.743,4.439,4.446,7.308,5.612a25.422,25.422,0,0,0,10.085,1.808l-1.759-2.31a36.787,36.787,0,0,0-.8,10.916c.342,3.643,1.235,6.945,3.636,9.562,1.626,1.773,4.258-.872,2.638-2.638-1.724-1.871-2.4-4.781-2.6-7.44a34.771,34.771,0,0,1,.642-9.429,1.85,1.85,0,0,0-1.759-2.31,24.637,24.637,0,0,1-7.545-.935,13.253,13.253,0,0,1-6.093-3.218c-1.1-1.145-2.073-3.155-.831-4.39a5.52,5.52,0,0,1,1.724-1,10.485,10.485,0,0,1,1.291-.377c.223-.049.454-.1.677-.133.112-.021.23-.042.349-.056-.23.028.042,0,.126,0a51.243,51.243,0,0,1,6.631-.042,20.887,20.887,0,0,1,7.021,1.312c4.027,1.626,6.149,5.214,8.089,9.045,1.214,2.394,2.317,4.837,3.476,7.259a37.406,37.406,0,0,1,1.682,4.1c.475,1.4.747,2.966,1.173,4.432.168.579,1.145.663,1.263,0h0Z" transform="translate(-150.414 -539.716)" fill="#010d3d"></path><path id="Trazado_5609" data-name="Trazado 5609" d="M204.635,586.05c-1.18,2.15-2.513,4.222-3.825,6.289a31.26,31.26,0,0,1-3.776,4.885,24.209,24.209,0,0,1-4.662,3.741,27.923,27.923,0,0,1-6.1,2.806,43.957,43.957,0,0,1-7.238,1.885c-.119.021-.879.133-.447.077-.335.042-.67.084-1.005.112-.628.063-1.263.1-1.891.126a32.7,32.7,0,0,1-3.79-.091l-.879-.084-.377-.042c-.433-.056.377.056-.049-.007-.621-.1-1.242-.2-1.857-.328a29.457,29.457,0,0,1-3.622-.97,17.6,17.6,0,0,1-3.036-1.284,27.538,27.538,0,0,1-3.169-1.919c-.237-.161-.468-.335-.7-.5s-.028-.021.014.014c-.133-.1-.258-.209-.391-.314-.482-.4-.942-.817-1.389-1.249a21.77,21.77,0,0,1-2.541-2.938,30.77,30.77,0,0,1-3.8-7.454,45.134,45.134,0,0,1-2.917-18.342,26.945,26.945,0,0,1,5.625-15.083,20.854,20.854,0,0,1,5.849-5,24.742,24.742,0,0,1,8.313-2.7,44.03,44.03,0,0,1,15.334.2c4.348.872,8.634,2.569,11.544,5.975a13.555,13.555,0,0,1,1.724,2.694,1.877,1.877,0,1,0,3.238-1.9c-4.955-9.862-17.728-11.607-27.59-11.035-6.463.37-12.828,1.885-17.882,6.135a28.266,28.266,0,0,0-8.822,14.629,37.8,37.8,0,0,0-1.068,10.323,57.518,57.518,0,0,0,1.145,10.42c1.347,6.226,3.755,12.375,8.054,17.169,7.482,8.348,20.436,10.881,30.926,7.559a37.733,37.733,0,0,0,7.489-3.462,36.558,36.558,0,0,0,5.9-4.32,32.448,32.448,0,0,0,8.1-11.439c.517-1.235.949-2.512,1.4-3.776.384-1.075-1.291-1.759-1.836-.775h0Z" transform="translate(-131.27 -534.592)" fill="#010d3d"></path><path id="Trazado_5610" data-name="Trazado 5610" d="M180.889,546.561a24.443,24.443,0,0,0-2.813-.489,21.573,21.573,0,0,0-3.078.035,23.149,23.149,0,0,0-5.8,1.18,27.781,27.781,0,0,0-10.281,6.309,25.956,25.956,0,0,0-7.866,21.532,28.217,28.217,0,0,0,11.474,19.912c3.916,2.806,8.641,4.285,13.3,5.332,5,1.124,10.309,1.745,15.327.4a24.045,24.045,0,0,0,10.965-6.219,40.261,40.261,0,0,0,6.9-10.4,1.463,1.463,0,0,0-2.527-1.473c-1.787,2.924-3.336,6.016-5.57,8.641a19.918,19.918,0,0,1-7.489,5.458,24.268,24.268,0,0,1-13.345,1.375,42.7,42.7,0,0,1-13.624-4.132,25.129,25.129,0,0,1-12.109-16.43,23.535,23.535,0,0,1,4.558-20.15,27.54,27.54,0,0,1,9.688-7.433,31.46,31.46,0,0,1,5.793-1.968,23.285,23.285,0,0,1,3.183-.537,29.25,29.25,0,0,1,3.218-.258c.384.007.489-.614.091-.684h0Z" transform="translate(-133.523 -535.354)" fill="#010d3d"></path><path id="Trazado_5611" data-name="Trazado 5611" d="M220.235,622.056c.091.126,0,.293.028.447a1.114,1.114,0,0,0,.265.565l-.1-.8c-.4,1.3,1.061,2.673,2,3.329a12,12,0,0,0,3.643,1.738,13.142,13.142,0,0,0,7.929-.224c2.317-.809,4.886-2.087,6.337-4.139.663-.935,1.089-2.052,1.717-3.022a10.378,10.378,0,0,0,1.5-3.211c.251-1.124-1.312-1.857-1.857-.782a26.434,26.434,0,0,1-1.375,2.694,5.509,5.509,0,0,1-2.2,1.773c-1.8,1.005-3.232,2.129-5.27,2.554a15.119,15.119,0,0,1-5.688-.125,22.4,22.4,0,0,1-3.078-.872c-.872-.328-2.317-.859-3.19-.328h1.047a2.319,2.319,0,0,0-.6-.23,5,5,0,0,1-.509.042c-.349-.223-.865.237-.6.6h0Z" transform="translate(-154.443 -556.318)" fill="#010d3d"></path><path id="Trazado_5612" data-name="Trazado 5612" d="M252.9,592.353a11.915,11.915,0,0,1,1.3,6.212,11.5,11.5,0,0,1-1.584,5.772,25.207,25.207,0,0,1-1.57,2.331,11.373,11.373,0,0,1-.8.97c-.133.14-.272.272-.412.405a.776.776,0,0,1-.223.174,1.739,1.739,0,0,1-1.452.412c-.223-.014-.824-.14-1.193-.188a13.072,13.072,0,0,0-1.48-.007c-.677,0-1.312.865-.845,1.479a4.755,4.755,0,0,0,1.431,1.459,4.409,4.409,0,0,0,1.563.5,5.469,5.469,0,0,0,3.322-.5c2.024-.991,3.315-3.1,4.4-4.976a11.808,11.808,0,0,0,.056-11.272,18.584,18.584,0,0,0-2.192-3c-.14-.175-.419.049-.307.237h0Z" transform="translate(-161.79 -549.256)" fill="#010d3d"></path><path id="Trazado_5613" data-name="Trazado 5613" d="M146.64,550.2c.5-1.005-.286-1.829-.852-2.624-.7-1-1.452-1.968-2.192-2.938a16.064,16.064,0,0,0-2.038-2.464,3.339,3.339,0,0,0-3.636-.412c-1.836.81-3.2,2.408-5.081,3.183-1.152.468-2.9.67-3.7-.531-.914-1.368.384-3.6,1.117-4.788a12.477,12.477,0,0,1,3.49-3.664,13.544,13.544,0,0,1,4.725-2.087,11.3,11.3,0,0,1,2.373-.272c.789-.007,1.836-.07,2.408.565,1.1,1.2.447,3.587-.112,4.872a8.884,8.884,0,0,1-1.633,2.5c-.677.726-1.563,1.34-2.31,2.052a1.329,1.329,0,0,0,1.284,2.205c2.136-.642,3.825-2.673,4.83-4.592a10.363,10.363,0,0,0,1.2-6.519c-.977-5.207-7.559-4.286-11.2-2.771a15.9,15.9,0,0,0-8.794,8.878c-.879,2.289-.747,4.872,1.34,6.435a6.721,6.721,0,0,0,6.163.914,13.437,13.437,0,0,0,3.664-2.115,6.657,6.657,0,0,1,1.7-1.166c.23-.077.049-.014-.077-.077.293.147.586.614.81.852,1.068,1.152,2.157,2.282,3.287,3.364a8.01,8.01,0,0,0,1.738,1.521c.447.216,1.228.223,1.494-.307h0Z" transform="translate(-126.005 -530.732)" fill="#010d3d"></path><path id="Trazado_5614" data-name="Trazado 5614" d="M168.812,569.685a18.06,18.06,0,0,1-3.978-5.807l-.482,1.186a22.912,22.912,0,0,1,7.747-.126c.642.1,1.431-.572.949-1.235a21.621,21.621,0,0,0-5.13-5.081c-1.068-.754-2.164,1.061-1.033,1.773a19.453,19.453,0,0,1,4.837,4.327l.593-1.438a26.531,26.531,0,0,0-8.4.223.815.815,0,0,0-.482,1.187,15.01,15.01,0,0,0,4.9,5.612c.363.258.8-.314.475-.614h0Z" transform="translate(-137.282 -539.102)" fill="#010d3d"></path><path id="Trazado_5615" data-name="Trazado 5615" d="M190.069,576.109c-3.9-1.989-7.915-3.769-11.865-5.653a1.072,1.072,0,0,0-1.452,1.452c.007,0,.014.021.021.035a1.327,1.327,0,0,0,.126.649c1.738,3.566,3.336,7.21,5.144,10.741,1.368,2.673,3.476,5.4,6.777,5.4A6.163,6.163,0,0,0,195,582.893c.167-3.238-2.282-5.437-4.935-6.784Z" transform="translate(-141.3 -542.693)" fill="#ef8aab"></path></g><path id="Trazado_5616" data-name="Trazado 5616" d="M324.456,578.6a60.545,60.545,0,0,0-.691-8.983c-.384-2.966-.858-5.946-1.312-8.913-.893-5.933-2.157-11.8-3.587-17.623q-.6-2.45-1.193-4.893a28.615,28.615,0,0,0-1.459-5.088,1.641,1.641,0,0,0-2.059-.677,1.688,1.688,0,0,0-.956,1.94,28.744,28.744,0,0,0,1.235,4.188c.447,1.445.886,2.89,1.284,4.348q1.173,4.292,2.2,8.62c1.375,5.765,2.729,11.53,3.8,17.358.6,3.273,1.1,6.609,1.982,9.82a.382.382,0,0,0,.747-.1h0Z" transform="translate(-182.539 -519.264)" fill="#010d3d"></path></g><path id="Trazado_5617" data-name="Trazado 5617" d="M303.317,301.892c-.635-8.173-.412-16.423-1.57-24.547-.272-2.945-1.221-6-4.376-6.728-9.827-2.757-19.571-5.793-29.307-8.864-9.339-3.253-19.27-5.737-29.1-3.2a111.649,111.649,0,0,0-15.7,4.941c-3.636,1.647-.509,6.77.3,9.45-15.132,1.549-31.631,4.341-42.435,15.99-.984,1.082-1.075,3.315.516,4.006q7.454,3.371,15.125,6.191c-7.231,4-14.364,8.264-22.062,11.293-.81.307-1.654.614-1.912,1.542-.747,3.483,1.961,7.81,5.667,7.789a28.475,28.475,0,0,0,14.071,2.561c1.612.07,3.483-.977,4.976-.3-1.794,1.661-7.056,5.381-5.744,8.368,1.4,3.406,10.379,2.771,14.531,1.34,5.318.028.684-13.8,3.56-16.995,3.176,2.582,18.133,11.523,21.434,9.283.907,1.752,3.636.53,3.141-1.326a43.729,43.729,0,0,0-4.62-10.958c5.165,2.589,24.561,10.546,29.167,7.489a1.955,1.955,0,0,0,0-1.87q-2.869-6.637-5.919-13.205c2.673,2.317,5.758,3.6,8.669,5.36,2.185,1.445,9.834,5.821,13.422,5.821-.789,0,.307-2.8-.035-3.539-.649-1.745-.579-3.853-1.054-5.681,4.369,4.153,9.311,7.65,13.582,11.9a15.053,15.053,0,0,0,6.358,4.355c2.22.349,2.4-2.136.991-3.343,8.494-10.337,10.176,1.207,8.326-17.135Z" transform="translate(-140.097 -256.497)" fill="#010d3d"></path></g></svg>