<svg xmlns="http://www.w3.org/2000/svg" id="IICE_LandingCompliance_medalla" width="115.733" height="156.145" viewBox="0 0 115.733 156.145"><g id="Grupo_3513" data-name="Grupo 3513" transform="translate(48.147 56.243)"><path id="Trazado_6404" data-name="Trazado 6404" d="M391.651,351.489q11.81-.888,23.631-1.8a2.306,2.306,0,0,1,1.4.381,1.013,1.013,0,0,1,.843.752c.01.03.02.07.03.11a2.764,2.764,0,0,1,.481,1.515c0,.06-.02.12-.02.181a291.625,291.625,0,0,0,10.16,32.146,167.682,167.682,0,0,0,16.289,30.933q2.708,4.047,5.657,7.954c.973,1.294,1.976,2.558,2.979,3.832,1.093,1.394,1.966,2.929,3.029,4.323a2.213,2.213,0,0,1-1.9,3.32c-5.386-.642-10.632-1.856-15.336-4.664a29.029,29.029,0,0,1-6.881-5.757c.09.331.171.652.261.973.642,2.427,1.284,4.855,2.056,7.252a87.269,87.269,0,0,0,5.888,13.811,1.91,1.91,0,0,1-2.588,2.6c-11.755-6.1-20.13-17-26.56-28.285-3.42-6.008-6.429-12.257-9.388-18.506a158.522,158.522,0,0,1-8.846-22.006,84.624,84.624,0,0,1-3.942-26.319,2.827,2.827,0,0,1,2.748-2.748Z" transform="translate(-388.886 -349.688)" fill="#ef8aab"/><path id="Trazado_6405" data-name="Trazado 6405" d="M436.3,425.473c.09.331.171.652.261.973.642,2.427,1.284,4.855,2.056,7.252q1.279,3.889,2.919,7.638a87.659,87.659,0,0,1-5.326-7.839c-6.956-11.138-13.872-22.2-19.789-33.942q-5.679-11.261-10.416-22.944c-1.254-3.837-2.513-7.668-3.836-11.484-1.384-3.987-2.648-8.029-4.248-11.936-.145-.356-.3-.707-.451-1.063q6.108-.459,12.217-.928c1.464,4.589,3.1,9.072,4.378,13.265,3.506,11.51,7.161,22.683,12.773,33.38a273.8,273.8,0,0,0,18.1,28.892,83.371,83.371,0,0,0,5.983,7.723,30.979,30.979,0,0,1-7.733-3.23,29.027,29.027,0,0,1-6.881-5.757Z" transform="translate(-393.165 -350.442)" fill="#f9d0dd"/></g><g id="Grupo_3514" data-name="Grupo 3514" transform="translate(0 56.243)"><path id="Trazado_6406" data-name="Trazado 6406" d="M357.7,351.489q-11.81-.888-23.631-1.8a2.306,2.306,0,0,0-1.4.381,1.013,1.013,0,0,0-.842.752c-.01.03-.02.07-.03.11a2.764,2.764,0,0,0-.481,1.515c0,.06.02.12.02.181a291.631,291.631,0,0,1-10.16,32.146,167.678,167.678,0,0,1-16.289,30.933q-2.708,4.047-5.657,7.954c-.973,1.294-1.976,2.558-2.979,3.832-1.093,1.394-1.966,2.929-3.029,4.323a2.213,2.213,0,0,0,1.9,3.32c5.386-.642,10.632-1.856,15.336-4.664a29.028,29.028,0,0,0,6.881-5.757c-.09.331-.171.652-.261.973-.642,2.427-1.284,4.855-2.056,7.252a87.271,87.271,0,0,1-5.888,13.811,1.91,1.91,0,0,0,2.588,2.6c11.755-6.1,20.13-17,26.56-28.285,3.42-6.008,6.429-12.257,9.388-18.506a158.515,158.515,0,0,0,8.847-22.006,84.625,84.625,0,0,0,3.942-26.319,2.827,2.827,0,0,0-2.748-2.748Z" transform="translate(-292.88 -349.688)" fill="#ef8aab"/><path id="Trazado_6407" data-name="Trazado 6407" d="M327.094,425.473c-.09.331-.171.652-.261.973-.642,2.427-1.284,4.855-2.056,7.252q-1.279,3.889-2.919,7.638a87.672,87.672,0,0,0,5.326-7.839c6.961-11.138,13.872-22.2,19.789-33.942q5.68-11.261,10.416-22.944c1.254-3.837,2.513-7.668,3.836-11.484,1.384-3.987,2.648-8.029,4.248-11.936.145-.356.3-.707.451-1.063q-6.108-.459-12.217-.928c-1.464,4.589-3.1,9.072-4.378,13.265-3.506,11.51-7.161,22.683-12.773,33.38a273.79,273.79,0,0,1-18.1,28.892,83.39,83.39,0,0,1-5.983,7.723,30.979,30.979,0,0,0,7.733-3.23,29.027,29.027,0,0,0,6.881-5.757Z" transform="translate(-302.645 -350.442)" fill="#f9d0dd"/></g><path id="Trazado_6408" data-name="Trazado 6408" d="M403.323,278.425a44.869,44.869,0,0,0-3.029-5.747,10.973,10.973,0,0,1-1.063-6.168c.241-4.273.471-8.766-2.608-12.177a8.187,8.187,0,0,0-6-2.5c-1.033-.04-2.086.12-3.119.01a3.653,3.653,0,0,1-.8-.15,2.869,2.869,0,0,1-.421-.241c-.04-.02-.05-.03-.07-.04-.02-.03-.06-.07-.13-.15s-.15-.161-.221-.241a.576.576,0,0,0-.04-.07,7.267,7.267,0,0,1-.481-.863.392.392,0,0,1-.03-.04c-.05-.14-.1-.281-.15-.411q-.2-.572-.361-1.143c-.371-1.364-.622-2.758-1.113-4.082-1.244-3.34-4.012-5.787-7.793-5.045a12.433,12.433,0,0,0-4.594,2.387c-1.194.853-2.578,1.886-3.761,1.9a5.157,5.157,0,0,1-1.635-.4,17.189,17.189,0,0,1-2.187-1.234,18.358,18.358,0,0,0-4.734-2.367c-4.072-1.093-7.061,1.294-9.258,4.443-.441.622-.843,1.274-1.314,1.876a15.4,15.4,0,0,1-1.214,1.214,2.7,2.7,0,0,1-1.685.4,17.315,17.315,0,0,1-2.588-.381c-2.237-.411-4.524-.6-6.59.522a7.58,7.58,0,0,0-3.43,4.333,28.875,28.875,0,0,0-.943,4.734c-.271,1.555-.532,2.748-1.434,3.571a7.9,7.9,0,0,1-1.515.913c-.652.311-1.023.431-1.835.762a12.691,12.691,0,0,0-4.564,2.638,6.8,6.8,0,0,0-1.735,6.128c.391,2.026,1.836,3.912,2.608,5.517.431.893,1.735,2.668.471,3.44a1.212,1.212,0,0,0-.592.853,14.475,14.475,0,0,0-2.076,4.213,11.643,11.643,0,0,0,.06,8.566c1.224,2.6,3.791,3.641,6.459,4.112a13.231,13.231,0,0,1,2.708.612,3.532,3.532,0,0,0,.421.271c.01.02.08.1.14.171-.16-.13.15.491.05.08.06.241.14.481.181.722,0,.07.03.371.03.431-.01.261,0,.512,0,.772-.02.532-.06,1.053-.1,1.585a16.152,16.152,0,0,0,.04,3.41,6.239,6.239,0,0,0,5.105,5.486,11.915,11.915,0,0,0,4.413-.281,11.8,11.8,0,0,1,3.39-.491,5.333,5.333,0,0,1,4.293,3.21c.582,1.414.913,2.859,2.016,3.992a6.374,6.374,0,0,0,5.105,1.585,9.971,9.971,0,0,0,4.955-1.394,4.921,4.921,0,0,0,.893-.792,14.724,14.724,0,0,1,4.383,1.013,20.939,20.939,0,0,0,6.068,1.334,9.253,9.253,0,0,0,5.637-1.525c1.886-1.364,2.7-3.32,3.3-5.5a6.063,6.063,0,0,1,.722-1.886,2.791,2.791,0,0,1,.3-.291c.02,0,.211-.12.241-.13l.14-.07a4.976,4.976,0,0,1,.632-.181,8.266,8.266,0,0,1,1.805-.15c.893-.01,1.8.04,2.7.04,3.591.03,7.452-.822,9.147-4.373,1.525-3.2.612-6.75.06-10.07a9.008,9.008,0,0,1-.211-1.7,9.766,9.766,0,0,1-.03-1.083c.01-.14.02-.271.03-.4v-.12a.766.766,0,0,0,.05-.16c.05-.16.08-.321.14-.481a.272.272,0,0,1,.03-.08c.05-.08.14-.241.171-.281.05-.06.07-.08.07-.09a6.722,6.722,0,0,1,2.116-1.254,8.112,8.112,0,0,0,4.634-4.7,9.791,9.791,0,0,0-.261-6.309Z" transform="translate(-306.648 -238.384)" fill="#fff"/><path id="Trazado_6409" data-name="Trazado 6409" d="M400.375,279.218c-8.756-28.169-52.8-21.414-58.646,5.366-6.078,20.1,16.575,37.332,35.306,32.728,16.329-3.405,27.7-22.006,23.34-38.094Z" transform="translate(-316.729 -249.257)" fill="#010d3d"/><path id="Trazado_6410" data-name="Trazado 6410" d="M377.922,303a32.412,32.412,0,0,0,.983,5.085l1.369,4.679c.928,3.164,1.946,6.294,3.014,9.408a2.722,2.722,0,0,0,2.232,1.926,2.792,2.792,0,0,0,2.678-1.284q.91-1.249,1.846-2.477c.306-.4.04-.055-.015.02.07-.085.135-.176.206-.261.16-.2.316-.406.476-.607.341-.431.687-.863,1.038-1.289q1.986-2.437,4.107-4.759a117.8,117.8,0,0,1,8.867-8.756q2.686-2.377,5.517-4.579a2.729,2.729,0,0,0,0-3.852,2.81,2.81,0,0,0-3.852,0,113,113,0,0,0-18.114,17.693q-2.445,3-4.709,6.153l4.91.642c-1.088-3.119-2.232-6.219-3.46-9.288l-1.825-4.554a26.51,26.51,0,0,0-1.108-2.573c-.381-.727-.812-1.419-1.239-2.121a1.6,1.6,0,0,0-1.77-.722,1.559,1.559,0,0,0-1.148,1.51h0Z" transform="translate(-335.269 -266.425)" fill="#fff"/><path id="Trazado_6411" data-name="Trazado 6411" d="M369.367,241.777a6.546,6.546,0,0,1-2.7.145,8.013,8.013,0,0,1-2.713-.878c-1.73-.868-3.215-2.131-5.025-2.854a7.351,7.351,0,0,0-4.895-.4,9.153,9.153,0,0,0-3.345,1.921c-2.041,1.745-3.6,4.087-5.893,5.522a6.793,6.793,0,0,1-4.524.868,10.251,10.251,0,0,0-5.486.7,9.429,9.429,0,0,0-3.937,3.285,14.387,14.387,0,0,0-1.75,5.176,7.181,7.181,0,0,1-2.327,4.2c-.582.486-1.2.933-1.81,1.394a22.231,22.231,0,0,1-2.061,1.264,8.909,8.909,0,0,0-3.506,3.445,9.012,9.012,0,0,0-.918,5.231,11.466,11.466,0,0,0,.792,2.623c.346.853.832,1.645,1.179,2.5a6.357,6.357,0,0,1-.236,5.035,26.3,26.3,0,0,0-1.971,5.165,12.207,12.207,0,0,0,.226,4.895,9.7,9.7,0,0,0,6.715,6.916c1.264.391,3.094.747,3.375,2.3a10.662,10.662,0,0,1-.2,2.844,6.954,6.954,0,0,0,.221,2.643,7.834,7.834,0,0,0,2.944,4.132,7.473,7.473,0,0,0,5.045,1.3c1.79-.135,3.746-.752,5.642-.607a4.365,4.365,0,0,1,3.35,2.237c1.61,2.487,2.743,5.792,6.058,6.389,3.786.682,6.986-2.377,10.712-1.906a61.588,61.588,0,0,1,5.973,1.58c1.856.426,3.636.968,5.547.461a6.581,6.581,0,0,0,3.837-3.159,22.384,22.384,0,0,1,2.543-4.087,7.729,7.729,0,0,1,3.646-1.956c1.454-.4,2.929-.762,4.4-1.083,2.848-.627,5.933-1.59,7.387-4.358a12.441,12.441,0,0,0,.988-2.427,11.129,11.129,0,0,0,.311-2.728c.03-2.066-.446-4.1-.421-6.163a7.821,7.821,0,0,1,.15-1.409c.075-.4.055-.8.11-1.2a3.081,3.081,0,0,1,1.489-2.3c.045-.025.005-.09-.04-.065a7.646,7.646,0,0,0-1.033.517,9.14,9.14,0,0,0-.873.752,4.259,4.259,0,0,0-1.4,2.006,15.877,15.877,0,0,0,.241,6.224,14,14,0,0,1-.045,5.346,5.586,5.586,0,0,1-3.029,3.46c-2.663,1.349-5.742.978-8.551,1.735a10.409,10.409,0,0,0-3.912,1.881,11.584,11.584,0,0,0-2.713,3.786c-.727,1.379-1.53,2.914-3.064,3.531a7.016,7.016,0,0,1-5.321-.416c-1.8-.853-3.651-1.976-5.647-2.267a11.626,11.626,0,0,0-5.7.822c-1.545.552-3.26,1.374-4.94,1.2a4.222,4.222,0,0,1-2.954-2.1c-1.67-2.487-2.854-5.692-6.169-6.3-3.385-.627-7.172,1.715-10.281-.326a5.537,5.537,0,0,1-2.387-3.656c-.3-1.82.612-3.651-.015-5.456s-2.151-2.553-3.761-3.154a10.815,10.815,0,0,1-3.9-2.031,10.334,10.334,0,0,1-2.467-3.6,6.606,6.606,0,0,1-.13-4.478c.547-1.775,1.58-3.355,2.232-5.09a7.65,7.65,0,0,0,.125-5.321,16.269,16.269,0,0,0-1.168-2.593,12.429,12.429,0,0,1-1.159-2.327,5.577,5.577,0,0,1,.772-4.985,10.033,10.033,0,0,1,3.711-2.833c.717-.381,1.535-.542,2.267-.888a9.1,9.1,0,0,0,1.961-1.309,7.427,7.427,0,0,0,2.392-4.709c.3-1.73.4-3.5,1.354-5.03a6.914,6.914,0,0,1,3.786-2.954c1.961-.607,3.922.03,5.913-.206,2.733-.321,4.734-2.307,6.51-4.233,1.62-1.755,3.485-4.2,6.033-4.514,1.9-.231,3.45.747,5.02,1.655a23.3,23.3,0,0,0,4.945,2.518,7.079,7.079,0,0,0,2.628.316,4,4,0,0,0,2.1-1.113.27.27,0,0,0-.261-.446h0Z" transform="translate(-305.445 -237.538)" fill="#010d3d"/><path id="Trazado_6412" data-name="Trazado 6412" d="M440.461,295.421a4.734,4.734,0,0,1,1.5-4.448c1.033-1.113,2.187-2.066,3.32-3.069,2.237-1.981,3.867-4.544,3.144-7.628-.657-2.788-2.693-4.975-3.7-7.613-1.229-3.215.12-6.495-.075-9.789-.3-4.995-3.19-10.532-8.42-11.745-1.545-.361-3.215-.05-4.724-.547a4.41,4.41,0,0,1-2.452-2.723c-.527-1.244-.853-2.558-1.409-3.791a10.907,10.907,0,0,0-2.618-3.591c-2.482-2.242-5.792-3.064-8.857-1.5-1.489.757-2.768,2.006-4.363,2.548-1.254.426-3.054.677-4.017-.406-.331-.371-.913.105-.677.522a3.869,3.869,0,0,0,3.114,1.891,7.008,7.008,0,0,0,3.892-1.249,17.085,17.085,0,0,1,4.007-2.282,5.431,5.431,0,0,1,3.957.441,8.8,8.8,0,0,1,3.124,2.7,13.7,13.7,0,0,1,1.71,3.686,12.027,12.027,0,0,0,1.74,3.631,5.263,5.263,0,0,0,3.776,1.961,17.706,17.706,0,0,1,4.283.552,8.546,8.546,0,0,1,2.979,1.911,12.429,12.429,0,0,1,3.465,6.831c.532,3.27-.812,6.479-.291,9.734.451,2.824,2.352,5.055,3.405,7.638a5.84,5.84,0,0,1,.291,4.263,10.3,10.3,0,0,1-2.969,3.681,13.9,13.9,0,0,0-3.33,3.907,5.685,5.685,0,0,0-.3,4.689c.12.281.562.08.486-.206h0Z" transform="translate(-349.798 -237.852)" fill="#010d3d"/><path id="Trazado_6413" data-name="Trazado 6413" d="M365.664,262.354a8.872,8.872,0,0,0-1.941-.271,11.32,11.32,0,0,0-2.031.416,25.1,25.1,0,0,0-4,1.379,28.124,28.124,0,0,0-7.006,4.423,32.463,32.463,0,0,0-9.463,13.831,22.439,22.439,0,0,0-1.359,10.491,28.015,28.015,0,0,0,3.475,9.368,35.849,35.849,0,0,0,12.252,13.159,29.1,29.1,0,0,0,18.455,4.258,25.827,25.827,0,0,0,15.943-8.034,42.613,42.613,0,0,0,9.032-15.13,33.084,33.084,0,0,0,2.312-10.366,20.43,20.43,0,0,0-2.417-9.9,44.285,44.285,0,0,0-2.548-4.343,38.353,38.353,0,0,0-2.914-4.032,17.112,17.112,0,0,0-8.38-5.145,42.885,42.885,0,0,0-20.918-.767,22.631,22.631,0,0,0-4.94,1.69c-.712.336-.181,1.339.507,1.2a79.015,79.015,0,0,1,9.915-1.625,42.549,42.549,0,0,1,9.89.411,28.377,28.377,0,0,1,9.142,2.773c2.808,1.56,4.564,4.2,6.259,6.84a28.581,28.581,0,0,1,3.967,8.405,20.059,20.059,0,0,1-.441,10.07,45.54,45.54,0,0,1-7.442,15.466,24.44,24.44,0,0,1-30.567,8.295,32.016,32.016,0,0,1-12.879-10.7,36.706,36.706,0,0,1-4.243-7.623A18.555,18.555,0,0,1,342,287.213c1.5-10.622,9.724-20.341,20.085-23.25.577-.161,1.164-.271,1.745-.421a16.152,16.152,0,0,0,1.826-.787c.165-.065.221-.351,0-.391h0Z" transform="translate(-316.22 -249.108)" fill="#010d3d"/></svg>