<svg xmlns="http://www.w3.org/2000/svg" width="368.182" height="518.36" viewBox="0 0 368.182 518.36"><g id="IICE_LandingCompliancePenal_Nivel1_3" transform="translate(0 0.806)"><g id="Grupo_4741" data-name="Grupo 4741" transform="translate(0 0)"><g id="Grupo_4711" data-name="Grupo 4711" transform="translate(0 207.328)"><g id="Grupo_4703" data-name="Grupo 4703" transform="translate(23.15 239.203)"><path id="Trazado_6601" data-name="Trazado 6601" d="M702.636,891.863a6.469,6.469,0,0,1,1.747-3.616,9.654,9.654,0,0,1,3.235-1.79,17.326,17.326,0,0,0,4.479-2.243c.029-.029.122-.086.3-.237.137-.122.28-.237.417-.374.3-.266.59-.554.87-.841a16.221,16.221,0,0,0,1.423-1.74,33.764,33.764,0,0,0,2.61-4.428c1.589-3.134,2.933-6.4,4.7-9.44,1.927-3.336,4.479-6.427,8.03-8.088a1.6,1.6,0,0,1,2.157.561,7.228,7.228,0,0,1,.539,1.567.734.734,0,0,1,1.294.618,47.452,47.452,0,0,1-3.853,10.834,53.669,53.669,0,0,1-6.427,9.583,51.275,51.275,0,0,1-8.253,8.124c-2.754,2.085-6.3,3.767-8.124,6.837-1.244,2.092-.352,4.486-.115,6.722a5.864,5.864,0,0,1-1.984,5.5,1,1,0,0,1-1.467-.6c-.151-.64-.381-1.251-.554-1.876-.208-.726-.323-1.481-.546-2.2a12.794,12.794,0,0,1-.539-1.855c-.129-.8-.223-1.6-.309-2.394a30.415,30.415,0,0,1,.381-8.62Z" transform="translate(-702.114 -858.877)" fill="#fff"/><path id="Trazado_6602" data-name="Trazado 6602" d="M777.665,914.227c.331-3.257.654-6.5.863-9.756.216-3.206.5-6.405.6-9.619.022-.69.05-1.395.079-2.092a2.692,2.692,0,0,1-.266-.913,53.43,53.43,0,0,1-.115-10.4,20.344,20.344,0,0,1,.316-2.8c.079-.331.18-.647.281-.97,0-.036-.014-.065-.014-.1a18.974,18.974,0,0,1,1.1-7c.144-.525.281-1.042.439-1.56a28.413,28.413,0,0,1,1.524-4.083,5.736,5.736,0,0,1,1.955-2.552c2.006-1.28,4.544.093,5.457,2.063,1.208,2.6-.072,5.679-.7,8.268a157.522,157.522,0,0,0-3.278,17.707,122.044,122.044,0,0,0-1.222,17.887c.086,3.81.82,7.93,2.883,11.15a29.14,29.14,0,0,0,2.394,2.761h0a3.977,3.977,0,0,0,.374.223,2.316,2.316,0,0,1,.575.5c.223.151.431.3.668.439a.866.866,0,0,1-.388,1.6,1.856,1.856,0,0,1-2.351,1.308,29.466,29.466,0,0,1-7.656-4.04,23.41,23.41,0,0,1-3.336-2.732c-.762-.827-.546-1.776-.439-2.782.094-.841.187-1.682.266-2.516Z" transform="translate(-723.245 -859.723)" fill="#fff"/></g><path id="Trazado_6603" data-name="Trazado 6603" d="M774.975,940.481a.806.806,0,0,1,1.157-.475,55.673,55.673,0,0,0,9.332,4.99,20.665,20.665,0,0,0,4.946,1.265,16.434,16.434,0,0,0,1.97.1,10.821,10.821,0,0,1,3.789-.223.8.8,0,0,1,.661.611c1.366.122,2.739.237,4.105.345.007-.029.022-.057.029-.086.367-.964,1.912-.575,1.574.431a.959.959,0,0,0-.036.1.8.8,0,0,1,.015.776,4.577,4.577,0,0,1-1.172,1.517,1.46,1.46,0,0,1-.74.712,16.831,16.831,0,0,1-11.8.108,18.263,18.263,0,0,1-5.047-2.926c-.891-.7-2.171-2.041-3.443-2.286a3.019,3.019,0,0,1-2.689,1.905,3.368,3.368,0,0,1-3-2.243,6.023,6.023,0,0,1,.345-4.637Z" transform="translate(-699.253 -642.446)" fill="#010d3d"/><path id="Trazado_6604" data-name="Trazado 6604" d="M698.686,909.846a4.114,4.114,0,0,0-.417-1.114c-.913-1.647-1.761-3.135-1.093-5.076.51-1.5,1.675-3.918,3.616-3.422a1.136,1.136,0,0,1,.784,1.381,18.68,18.68,0,0,0-.625,4.285,39.527,39.527,0,0,0-.094,4.126,26.825,26.825,0,0,0,1.122,7.815,5.21,5.21,0,0,0,1.423,2.315,10.707,10.707,0,0,0,1.812.964.732.732,0,0,1,.97.589,18.919,18.919,0,0,0,1.8,4.644c.539,1.028,1.747,2.667,1.071,3.875-1.453,2.6-5.744-2.631-6.665-3.767a17.46,17.46,0,0,1-2.315-3.932,14.388,14.388,0,0,1-1.416-4.486c-.05-.7.079-1.409.079-2.107,0-.755-.079-1.5-.057-2.264.014-.453.057-.906.086-1.359-.036-.6-.065-1.193-.086-1.783-.007-.23,0-.46,0-.69Z" transform="translate(-677.508 -631.28)" fill="#010d3d"/><path id="Trazado_6605" data-name="Trazado 6605" d="M727.858,837.2a356.12,356.12,0,0,0,16.355-50c.245-3.02,2.365-12.293,4.91-11.992,4.63-.043,45.8-2.631,46.55-.374,0,2.006-1.323,11.733-1.409,13.739a112.875,112.875,0,0,1-12.912,53.379,2.042,2.042,0,0,1-2.257.92c-3.149-.877-6.3-.316-9.49-.036-5.061.2-43.358.28-41.755-5.643Z" transform="translate(-686.184 -595.789)" fill="#010d3d"/><g id="Grupo_4704" data-name="Grupo 4704" transform="translate(7.173)"><path id="Trazado_6606" data-name="Trazado 6606" d="M759.6,566.073c3.674-2.818,4.227-8.145,3.645-12.739-.424-3.357-1.409-6.873-3.932-9.116s-6.981-2.567-9.051.115c.884-6.859-3.163-14.494-9.863-16.219-5.162-1.33-10.805,1.042-14.328,5.04s-5.162,9.36-5.643,14.666c-3.35-4.285-9.748-5.6-14.774-3.523s-8.534,7.1-9.4,12.466A22.142,22.142,0,0,0,700,572.256a10.405,10.405,0,0,0-13.142-.575c-2.9,2.293-4.335,6-5,9.64a22.67,22.67,0,0,0,1.337,13.739c2.006,4.227,6.025,7.642,10.669,8.16-6.442,2.768-10.913,9.979-9.8,16.9s8.268,12.516,15.169,11.265c-4.8,3.293-6.679,10.424-3.688,15.421s10.64,6.592,15.1,2.854c-2.991,3.113-2.185,8.462.482,11.855a14.31,14.31,0,0,0,24.105-2.545c.726,2.89,3.76,4.773,6.737,4.931s5.859-1.078,8.4-2.638a16.048,16.048,0,0,0,6.506-6.665c1.3-2.868,1.114-6.578-1.093-8.821a7.491,7.491,0,0,0,8.009-1.718,12.865,12.865,0,0,0,3.5-7.779,20.667,20.667,0,0,0-9.935-19.957c4.781-1.4,7.326-6.75,7.793-11.711a25.827,25.827,0,0,0-14.17-25.033,17.741,17.741,0,0,0,8.246-13.8" transform="translate(-680.307 -526.597)" fill="#00b2e3"/><path id="Trazado_6607" data-name="Trazado 6607" d="M759.539,566.244c4-2.926,5.025-8.426,4.537-13.106-.525-5-2.38-10.92-7.923-12.229a7.086,7.086,0,0,0-7.218,2.063l2.185.906c.748-6.578-2.7-14-8.972-16.664-7.268-3.091-15.3.927-19.346,7.2a29.111,29.111,0,0,0-4.1,12.94l2.2-.913c-4.069-5.112-11.776-6.233-17.441-3.278-6.168,3.214-9.511,10.316-9.144,17.1a22.662,22.662,0,0,0,4.227,12.114l1.848-1.424a12.325,12.325,0,0,0-9.677-2.574,11.573,11.573,0,0,0-8.167,6.2,24.693,24.693,0,0,0-2.66,11.567,20.16,20.16,0,0,0,3.321,11.56,14.781,14.781,0,0,0,10.209,6.355l-.661-2.444A18,18,0,0,0,682.6,615.547a14.992,14.992,0,0,0,7.009,14.781,13.337,13.337,0,0,0,9.518,1.812l-.978-2.315a13.667,13.667,0,0,0-5.435,13.724,11.53,11.53,0,0,0,10.6,8.95,9.65,9.65,0,0,0,7.7-2.487l-1.826-1.409a10.391,10.391,0,0,0-1.7,7.793,12.985,12.985,0,0,0,4.22,7.47,15.355,15.355,0,0,0,16.988,2.38,15.842,15.842,0,0,0,7.189-7.1l-2.322-.3A8.061,8.061,0,0,0,738.712,664a11.488,11.488,0,0,0,8.1-.223,23.333,23.333,0,0,0,7.376-4.558,12.76,12.76,0,0,0,4.105-6.7,9.037,9.037,0,0,0-2.056-8.1l-1.532,1.984a8.613,8.613,0,0,0,8.268-.877,12.523,12.523,0,0,0,4.853-7.786,21.888,21.888,0,0,0-10.237-23.02l-.316,2.409c6.24-1.941,8.8-8.943,8.843-14.939A27.345,27.345,0,0,0,759.6,584.6a25.622,25.622,0,0,0-8.411-6.578V580.2a19.131,19.131,0,0,0,6.211-6.369,18.807,18.807,0,0,0,2.466-8.512c.094-1.373-2.042-1.366-2.135,0a16.977,16.977,0,0,1-2.48,7.254,16.732,16.732,0,0,1-5.342,5.45,1.269,1.269,0,0,0,0,2.178c9.878,4.838,16.528,17.542,12.481,28.289-1.021,2.711-2.962,5.22-5.809,6.1a1.334,1.334,0,0,0-.316,2.408,19.343,19.343,0,0,1,8.57,10.892c1.416,4.536,1.46,10.424-1.776,14.17-1.661,1.927-4.572,3.221-7.067,2.149a1.269,1.269,0,0,0-1.531,1.984,6.735,6.735,0,0,1,1.05,6.88c-.949,2.631-3.214,4.644-5.485,6.139-2.487,1.639-5.421,3.142-8.483,3.02a5.82,5.82,0,0,1-5.514-4.076,1.284,1.284,0,0,0-2.322-.3,13.267,13.267,0,0,1-12.157,7.319c-5.1-.194-10.151-3.278-11.762-8.1a9.163,9.163,0,0,1-.475-3.911A4.73,4.73,0,0,1,711.034,650a1.166,1.166,0,0,0-1.409-1.826,9.784,9.784,0,0,1-10.841.18c-3.566-2.294-4.579-6.715-3.4-10.633A10.617,10.617,0,0,1,699.438,632a1.273,1.273,0,0,0-.978-2.315c-4.731.748-9.684-2.149-12.143-6.1a12.1,12.1,0,0,1-1.811-7.153,13.8,13.8,0,0,1,2.66-6.988,15.65,15.65,0,0,1,6.607-5.435,1.37,1.37,0,0,0,.963-1.265,1.312,1.312,0,0,0-.963-1.265c-6.851-.949-11.064-7.045-11.683-13.623-.568-5.974.748-15.141,7.427-17.3a8.945,8.945,0,0,1,9.216,2.056,1.181,1.181,0,0,0,1.848-1.423,25.945,25.945,0,0,1-3.537-9.4,17.13,17.13,0,0,1,1.193-9.116c2.308-5.2,7.311-8.915,13.134-8.426a11.082,11.082,0,0,1,7.707,4.019c.777.963,2.114.072,2.2-.913.625-6.823,3.365-14.019,9.741-17.369a12.208,12.208,0,0,1,9.339-1.035,11.742,11.742,0,0,1,6.276,5.385,15.208,15.208,0,0,1,1.912,9.533,1.291,1.291,0,0,0,2.186.906,4.849,4.849,0,0,1,5.931-.9c2.416,1.172,3.71,3.868,4.378,6.341,1.287,4.774,1.783,11.352-2.372,14.9-.611.517.208,1.6.863,1.122h0Z" transform="translate(-679.89 -526.149)" fill="#00b2e3"/></g><path id="Trazado_6608" data-name="Trazado 6608" d="M761.718,676.25a1.934,1.934,0,0,0,.288.683,1.889,1.889,0,0,0,.841.7c.23.424.453.855.683,1.279.683,1.28,1.359,2.552,2.035,3.832,1.359,2.552,2.739,5.1,4.17,7.613a100.769,100.769,0,0,0,9.662,14.321,2.114,2.114,0,0,0,2.1.855,2.028,2.028,0,0,0,1.617-1.567,39.736,39.736,0,0,0-.388-8.21q-.442-3.8-1.107-7.556a137.043,137.043,0,0,0-3.077-13.487,17.772,17.772,0,0,0-.625-2.034,2.156,2.156,0,0,0,.575-1.539,2.105,2.105,0,0,0-2.171-1.927c-3.386-.072-6.24,1.568-9.181,3a2.115,2.115,0,0,0-1.38-.525,10.69,10.69,0,0,0-3.9.762,2.054,2.054,0,0,0-.144,3.8Z" transform="translate(-695.377 -566.363)" fill="#f5b9cd"/><path id="Trazado_6609" data-name="Trazado 6609" d="M836.7,625.505a16.575,16.575,0,0,0-6.485-4.623,15.578,15.578,0,0,0-8.03-.762,1.984,1.984,0,0,0-1.625,1.129c-.13.093-.259.187-.381.295-1.725,1.452-2.689,3.9-3.393,5.967a25.3,25.3,0,0,0-1.229,6.851,1.412,1.412,0,0,0,.316.942,5.422,5.422,0,0,0-.7.439,1.8,1.8,0,0,0-1.639,1.272c-1.833,5.874-2.423,12.193-5.076,17.8a20.132,20.132,0,0,1-10.173,9.828,33.432,33.432,0,0,1-14.515,2.609,30.214,30.214,0,0,1-8.066-1.186,20.025,20.025,0,0,1-7.2-4.508c-2.466-2.142-4.9-4.321-7.354-6.477-1.2-1.064-2.322-1.912-4.019-1.639a48.909,48.909,0,0,0-4.831,1.294,1.269,1.269,0,0,0-.777,1.582,87.661,87.661,0,0,1,3.717,18.915,124.418,124.418,0,0,1,.583,14.076q-4.465-6-8.49-12.3-2.686-4.227-5.169-8.57c-.834-1.481-1.654-2.955-2.459-4.45s-2.063-2.732-2.811-4.256c-.208-.446-.748-.892-1.272-.633-2.215,1.078-4.472,2.142-6.578,3.429a2.8,2.8,0,0,0-.812.223l-8.519,3.731a35.645,35.645,0,0,0-7.369,4,31.992,31.992,0,0,0-6,6.226c-1.718,2.243-3.4,4.558-4.9,6.952a50.723,50.723,0,0,0-3.767,8.174,50.4,50.4,0,0,1-3.911,7.455,58.025,58.025,0,0,0-6.391,15.737c-.8,3.069-1.51,6.168-2.372,9.224-.129.446-.266.884-.4,1.33a90.32,90.32,0,0,0-11.474,6.025c-.834.539-.611,2.214.561,2.063,1.61-.2,3.221-.424,4.831-.654a42.862,42.862,0,0,1-4.831,4.141,1.11,1.11,0,0,0,.848,2.02,30.922,30.922,0,0,0,5.457-1.51c-.151.194-.3.388-.453.575a2.406,2.406,0,0,0-.352.6c-.18.216-.36.424-.539.64-1.265,1.481.733,3.6,2.078,2.394a10.535,10.535,0,0,0,3.544-3.508c.273-.417,2.682-1.488,3.135-2.387a13.548,13.548,0,0,1,1.445-2.257c.158-.388.317-.777.482-1.165.28-.647.6-1.287.863-1.934.288-.7.525-1.409.784-2.121a1.066,1.066,0,0,1,.539-.6,227.66,227.66,0,0,1,12.365-21.8c1.575-2.387,3.2-4.745,4.831-7.089a64.286,64.286,0,0,1,4.457-6.125,25.417,25.417,0,0,1,3.681-3.243c1.725-3.034,4.637-5.464,7.276-7.549,1.071-.848,2.926-.719,3.278.863.87,3.94,1.215,7.994,2.4,11.869a21.321,21.321,0,0,0,2.085,4.7,13.017,13.017,0,0,1,1.6,4,21.235,21.235,0,0,1-.374,9.094c-1.273,5.55-3.882,10.676-5.392,16.147-.122,1.272-.316,2.552-.388,3.818-.122,2.192-.144,4.407-.374,6.592a1.576,1.576,0,0,0,1.6,1.869A26.7,26.7,0,0,1,731.3,741c.913.043,1.84.151,2.753.122,1.754-.051,3.523-.187,5.284-.288l9.375-.5c2.8-.151,5.773-.108,8.469-1.035a8.637,8.637,0,0,0,5-4.709,13.436,13.436,0,0,1,2.286-3.825c.237.33.489.647.733.978.453.626.791,1.337,1.187,2.013a31.436,31.436,0,0,0,2.861,3.889.931.931,0,0,0,1.035.352c3.185-1.114,6.384-2.186,9.554-3.35a.854.854,0,0,0,.582-.654,42.27,42.27,0,0,0-1.258-14.235q-2.9-12.7-6.708-25.177a15.047,15.047,0,0,1-.669-3.062,18.743,18.743,0,0,1,.273-3.041c.2-2.121-.755-3.767-1.733-5.564q-2.8-5.123-5.608-10.259a5.654,5.654,0,0,1,3.25,1.481,30.1,30.1,0,0,0,4.579,3.156c3.077,1.531,6.556,1.977,9.928,2.373,3.839.453,7.75.913,11.6.194a23.973,23.973,0,0,0,10.8-5.586.937.937,0,0,0,1.186.194,25.88,25.88,0,0,0,5.938-5.184,45.627,45.627,0,0,0,6.894-12.682c2.171-5.514,3.983-11.186,5.938-16.779a1.4,1.4,0,0,0-1.071-1.653,1.369,1.369,0,0,0-.805.072c-.022-.036-.05-.079-.072-.115a1.588,1.588,0,0,0,.654-.668c.137-.259.28-.518.41-.777a4.245,4.245,0,0,1,.92-1.006,1.727,1.727,0,0,0,1.553.8,4.5,4.5,0,0,0,1.481-.316,2.442,2.442,0,0,0,1.021.065,2.856,2.856,0,0,0,2.825,1.754,3.15,3.15,0,0,0,2.7-3.774c-.216-1.567-1.136-3.005-1.021-4.637.065-.906.711-2.085,1.776-1.862,1.129.23,2.351-1.208,1.5-2.2Zm-7.484,6.37a3.069,3.069,0,0,1,.9-2.329,9.929,9.929,0,0,0,.094,2.768A4.392,4.392,0,0,0,829.219,631.875Z" transform="translate(-670.677 -552.506)" fill="#fff"/><path id="Trazado_6610" data-name="Trazado 6610" d="M870.761,635.272a52.267,52.267,0,0,1,1.9-6.118,17,17,0,0,1,2.789-4.982,10.1,10.1,0,0,1,4.407-3.214,8.406,8.406,0,0,1,2.631-.5,8.977,8.977,0,0,1,1.459.079,2.707,2.707,0,0,0,1.33.072.644.644,0,0,0,.381-.942c-.554-.805-1.776-.949-2.689-1.021a9.152,9.152,0,0,0-3.149.345,11.225,11.225,0,0,0-5.306,3.415,17.072,17.072,0,0,0-3.149,5.385,38.619,38.619,0,0,0-1.639,7.2c-.122.676.877.978,1.043.288h0Z" transform="translate(-726.073 -552.143)" fill="#010d3d"/><path id="Trazado_6611" data-name="Trazado 6611" d="M723.661,601.311c2.085-1.424,4.594-.381,6.556.7a16.583,16.583,0,0,1,2.006,1.294l.913.331c.115.043.863.4.963.288a3.212,3.212,0,0,0-.043-.438,11.219,11.219,0,0,0-1.28-3.494,24.537,24.537,0,0,0-3.372-4.608c2.265-1.158,2.416-3.652,1.8-5.91a.772.772,0,0,0,.158-.388c2.832.014,5.6-.424,7.045-3.257a11.38,11.38,0,0,0,.963-6.513,5.2,5.2,0,0,0,1.955,1.618c3.4,1.567,5.8-1.883,6.693-4.68a19.712,19.712,0,0,0,.963-6.65,14.024,14.024,0,0,0,2.466,2.588,4.989,4.989,0,0,0,4.824,1.05,7.941,7.941,0,0,0,4.127-4.371,12.035,12.035,0,0,0,.927-5.873,53.338,53.338,0,0,1,2.689,4.709,1.137,1.137,0,0,0,.431.5,63.68,63.68,0,0,0,6.017,8.893,29.084,29.084,0,0,0,5.45,5.219c1.941,1.395,4.083,2.48,6.089,3.781a15.1,15.1,0,0,1,4.953,4.838,19.862,19.862,0,0,1,2.243,7.922,30.584,30.584,0,0,1-2.581,15.91,29.851,29.851,0,0,1-9.238,11.28,9.687,9.687,0,0,1-1.92,1.352.759.759,0,0,1-.539.072A16.615,16.615,0,0,1,773.6,628.6a16.424,16.424,0,0,1-5.083,2.559,18.442,18.442,0,0,1-2.725.546,4.167,4.167,0,0,0-2.185.719.989.989,0,0,1,.2.316c.676,1.919.324,3.853.158,5.78.093.719.18,1.423.244,2.135a5.944,5.944,0,0,1-.345,3.149c-.539,1.129-1.315,2.171-1.97,3.25a1.055,1.055,0,0,1-1.215.366,14.511,14.511,0,0,1-4.055-1.934,4.863,4.863,0,0,1-1.79-4.163,44.459,44.459,0,0,1,1.036-8.641,36.553,36.553,0,0,1-12.639-6.3,55.809,55.809,0,0,1-6.082-5.866c-1-1.05-1.948-2.149-2.869-3.278-.467-.575-1.014-1.172-1.524-1.783a5.1,5.1,0,0,1-2.437.813c-2.265.108-3.94-1.064-5.414-2.7a12.718,12.718,0,0,1-3.185-5.888c-.431-2.185-.014-5.018,1.963-6.37Z" transform="translate(-684.431 -536.507)" fill="#fff"/><path id="Trazado_6612" data-name="Trazado 6612" d="M764.586,562.479c.863,1.912,1.7,3.781,2.725,5.615s2.078,3.609,3.249,5.327a35.564,35.564,0,0,0,8.519,9.051A29.922,29.922,0,0,0,785,585.326a12.787,12.787,0,0,1,5.5,4.5,18.849,18.849,0,0,1,2.7,6.032,14.344,14.344,0,0,1,.468,2.969,31.4,31.4,0,0,1-.266,3.48,29.6,29.6,0,0,1-3.544,12.164,34.716,34.716,0,0,1-8.282,9.813c-6.42,5.284-15.169,8.462-23.466,6.492a26.552,26.552,0,0,1-11.337-6.082,37.813,37.813,0,0,1-4.673-4.975c-1.4-1.79-2.53-3.731-3.8-5.593a1.225,1.225,0,0,0-2.113,1.236,33.181,33.181,0,0,0,7.685,10.324,31.529,31.529,0,0,0,10.467,6.744c8.541,3.257,18.045,1.251,25.558-3.609,7.57-4.9,13.839-12.811,15.543-21.8a15.837,15.837,0,0,0,.072-6.7c-.554-2.135-.992-4.306-1.747-6.391a23.48,23.48,0,0,0-3.113-5.758,14.933,14.933,0,0,0-2.243-2.61,37.759,37.759,0,0,0-3.12-2.207c-1.042-.733-2.315-1.272-3.357-2.078-.942-.733-1.941-1.395-2.854-2.171a32.821,32.821,0,0,1-4.9-5.19,55.365,55.365,0,0,1-3.94-6.032c-.618-1.071-1.208-2.15-1.783-3.242s-1.28-2.186-1.905-3.3c-.734-1.3-2.552-.158-1.963,1.15h0Z" transform="translate(-688.505 -535.878)" fill="#010d3d"/><path id="Trazado_6613" data-name="Trazado 6613" d="M731.585,628.135a2.14,2.14,0,0,1-1.876,1.919,4.942,4.942,0,0,1-3.523-.7,12.072,12.072,0,0,1-2.84-3.077,11.706,11.706,0,0,1-1.869-3.523,4.509,4.509,0,0,1,.223-3.393,5.217,5.217,0,0,1,2.092-2.049,3.975,3.975,0,0,1,3.437.058c.633.273,1.143.747,1.776,1.007a8.678,8.678,0,0,0,1.646.489.387.387,0,0,0,.482-.367c-.18-2.955-3.595-4.436-6.233-4.191a5.233,5.233,0,0,0-4.86,4.9,10.952,10.952,0,0,0,1.582,7.175,22.094,22.094,0,0,0,2.538,3.293,10.422,10.422,0,0,0,3.293,2.545,4.729,4.729,0,0,0,4.544-.259,4.286,4.286,0,0,0,2.013-3.839,1.212,1.212,0,0,0-2.423,0h0Z" transform="translate(-683.98 -550.922)" fill="#010d3d"/><path id="Trazado_6614" data-name="Trazado 6614" d="M782.906,585.672l.683.87.331.424.173.216.043.05a1.222,1.222,0,0,0,.173.158.837.837,0,0,0,.316.187.682.682,0,0,0,.338.093.473.473,0,0,0,.2.022l.345-.043a.959.959,0,0,0,.446-.238.625.625,0,0,0,.237-.237,1.033,1.033,0,0,0,.237-.446,3.132,3.132,0,0,0,.05-.374l-.05-.352a1.706,1.706,0,0,0-.144-.331,2.487,2.487,0,0,0-.273-.345l-.194-.194-.4-.4-.784-.791a1.267,1.267,0,0,0-.87-.36.978.978,0,0,0-.475.108.955.955,0,0,0-.4.252,1.237,1.237,0,0,0-.359.87l.043.323a1.207,1.207,0,0,0,.316.539h0Z" transform="translate(-701.569 -542.292)" fill="#010d3d"/><path id="Trazado_6615" data-name="Trazado 6615" d="M761.518,600.256a10.508,10.508,0,0,1,1.287,1.309.522.522,0,0,0,.086.093c.05.043.107.086.158.122a.88.88,0,0,0,.317.187,1.866,1.866,0,0,0,.23.086,1.241,1.241,0,0,0,.7,0,1.282,1.282,0,0,0,.539-.317c.029-.036.172-.216.194-.252a.861.861,0,0,0,.151-.474,1.229,1.229,0,0,0,.022-.194,1.487,1.487,0,0,0-.029-.252.927.927,0,0,0-.1-.367,1.163,1.163,0,0,0-.1-.216,4.694,4.694,0,0,0-.489-.589c-.108-.115-.216-.223-.323-.338-.252-.245-.51-.475-.776-.7a1.47,1.47,0,0,0-.935-.388,1.046,1.046,0,0,0-.51.115.926.926,0,0,0-.424.273,1.341,1.341,0,0,0-.388.935,1.262,1.262,0,0,0,.388.935h0Z" transform="translate(-695.552 -546.337)" fill="#010d3d"/><g id="Grupo_4705" data-name="Grupo 4705" transform="translate(43.708 32.394)"><path id="Trazado_6616" data-name="Trazado 6616" d="M748.674,595.3c.5,3.681,3.063,6.909,5.945,9.1a8.876,8.876,0,0,0,5.09,2.071,7.575,7.575,0,0,0,4.752-1.682c3.142-2.451,3.674-6.442,2.811-10.129a15.7,15.7,0,0,0-2.365-5.155c-.5-.733-1.021-1.452-1.589-2.142-.475-.575-1.028-1.265-1.855-1.172a4.717,4.717,0,0,0-1.581.726c-.51.281-1.021.561-1.531.848-1.114.632-2.178,1.352-3.257,2.049q-3.235,2.092-6.413,4.277c-1.129.776-.079,2.624,1.086,1.855,3.063-2.02,6.2-4,9.137-6.2.669-.5,1.323-1.021,1.977-1.539a3.022,3.022,0,0,1,.539-.431l.093-.158.173.252a5.7,5.7,0,0,1,.812,1.107,19.389,19.389,0,0,1,2.329,4.184c1.1,2.825,1.172,6.284-.812,8.764a5.783,5.783,0,0,1-3.458,2.1,5.581,5.581,0,0,1-4.019-1.157c-2.969-2-4.63-4.953-6.384-7.958-.367-.633-1.6-.417-1.488.4h0Z" transform="translate(-735.625 -575.416)" fill="#343d64"/><path id="Trazado_6617" data-name="Trazado 6617" d="M744.053,599.735a5.381,5.381,0,0,0-1.862,1.215c-.583.5-1.172,1.006-1.718,1.545-1.158,1.136-2.272,2.329-3.408,3.494s-2.214,2.257-3.321,3.394a18.912,18.912,0,0,0-1.582,1.725c-.474.618-1.258,1.208-1.43,1.984a.807.807,0,0,0,.978.978c.748-.158,1.3-.891,1.9-1.344a18.53,18.53,0,0,0,1.732-1.567c1.158-1.143,2.293-2.308,3.422-3.48s2.214-2.264,3.264-3.451c.51-.582.992-1.186,1.46-1.8a5.747,5.747,0,0,0,1.193-2.063.507.507,0,0,0-.618-.618h0Z" transform="translate(-730.709 -579.222)" fill="#343d64"/><path id="Trazado_6618" data-name="Trazado 6618" d="M769.327,587.666a6.907,6.907,0,0,1,.338-.647c.057-.108.122-.215.187-.323.021-.029.079-.137.107-.151l-.065.086s.05-.065.079-.094a3.1,3.1,0,0,1,.259-.273c.022-.021.129-.129.144-.122l-.093.072c.05-.036.1-.072.151-.115s.1-.079.151-.115h0l.079-.057a3.524,3.524,0,0,1,.323-.2c.1-.058.208-.108.309-.158a1.838,1.838,0,0,0,.172-.079c-.2.144-.1.043-.014.014a3.04,3.04,0,0,1,.359-.108,1.947,1.947,0,0,0,.367-.079c-.2.079-.165.022-.029.007a1.6,1.6,0,0,0,.187-.014c.122,0,.252,0,.374.007.1.007.23.079-.036-.007.05.014.108.014.151.029a1.562,1.562,0,0,0,.834.036,1.046,1.046,0,0,0,.453-1.725,2,2,0,0,0-1.409-.438,4.9,4.9,0,0,0-1.028.086,4.478,4.478,0,0,0-1.733.69A4,4,0,0,0,768,587.321a.74.74,0,0,0,.525.69.708.708,0,0,0,.805-.331h0Z" transform="translate(-741.188 -574.581)" fill="#343d64"/><path id="Trazado_6619" data-name="Trazado 6619" d="M774.468,579.758a30.038,30.038,0,0,0,2.588,3.364c.9,1.071,1.883,2.257,2.89,3.321,1.732,1.819,3.8,3.286,6.434,2.955a6.44,6.44,0,0,0,5.234-4.306c.9-2.488.043-5.018-1.107-7.261a17.9,17.9,0,0,0-5.5-6.463,1.1,1.1,0,0,0-1.474.388,6.493,6.493,0,0,1-2.689,1.546,23.93,23.93,0,0,0-3.307,1.768,19.225,19.225,0,0,0-2.876,2.15c-.841.812-.8,2.495.576,2.739,1.517.266,2.157-2.056.64-2.315l.532.482v.64c-.158.4.007.093.23-.094.172-.144.352-.287.532-.431.4-.309.805-.6,1.222-.892.8-.546,1.632-1.064,2.48-1.539,1.6-.9,3.372-1.459,4.515-2.976l-1.689.216a21.714,21.714,0,0,1,4.8,6.1c1.115,2.207,1.812,4.982-.273,6.887a3.9,3.9,0,0,1-3.141.985,5.862,5.862,0,0,1-3.106-1.884A58.834,58.834,0,0,0,775.3,578.9c-.51-.367-1.15.345-.841.841h0Z" transform="translate(-742.906 -571.208)" fill="#343d64"/></g><path id="Trazado_6620" data-name="Trazado 6620" d="M771.852,587.02c3.868,2.394,7.627,4.975,11.438,7.47,1.876,1.236,3.724,2.523,5.564,3.817s3.731,2.761,5.723,3.882l-.266-2.071a11.094,11.094,0,0,1-5.55,3.2,26.248,26.248,0,0,1-6.463.834.529.529,0,0,0-.266.978,10.127,10.127,0,0,0,7.426.712,17.806,17.806,0,0,0,6.722-3.861,1.317,1.317,0,0,0,0-1.862c-3.587-2.825-7.815-4.946-11.726-7.268s-8.03-4.508-12.092-6.686a.5.5,0,0,0-.5.855h0Z" transform="translate(-698.502 -543)" fill="#010d3d"/><path id="Trazado_6621" data-name="Trazado 6621" d="M775.316,661.9c-.043,1.359-.093,2.71-.165,4.069a22.843,22.843,0,0,1-.281,3.846,5.023,5.023,0,0,1-.5,1.481,12.424,12.424,0,0,1-.978,1.308,17.469,17.469,0,0,0-2.2,2.854l.805-.323a6.958,6.958,0,0,1-1.61-1.122c-.525-.4-1.035-.819-1.539-1.244a21.035,21.035,0,0,1-2.718-2.588l.194.733a90.756,90.756,0,0,1,2.027-9.475.884.884,0,0,0-1.7-.467,48.456,48.456,0,0,0-1.769,9.331c-.072.892.4,1.078,1.021,1.632.568.51,1.135,1.013,1.725,1.5s1.186.949,1.79,1.416a11.552,11.552,0,0,1,1.9,1.474.726.726,0,0,0,.863.108,9.689,9.689,0,0,0,2.8-2.61c.769-.927,1.79-2,1.639-3.293a17.317,17.317,0,0,1-.215-1.941v-2.322q0-2.179.036-4.357a.557.557,0,0,0-1.114,0h0Z" transform="translate(-696.603 -563.871)" fill="#010d3d"/><path id="Trazado_6622" data-name="Trazado 6622" d="M842.605,640.946c-.575,3.07-1.646,6.018-2.524,9.016s-1.653,6-2.739,8.893a19.51,19.51,0,0,1-10.122,10.453c-5.1,2.423-11.093,2.8-16.615,1.963a19.7,19.7,0,0,1-8.052-2.746,32.8,32.8,0,0,1-5.766-5.305c-.985-1.064-1.97-2.135-3.012-3.149a8.961,8.961,0,0,0-3.58-2.445c-1.725-.5-3.472.137-5.111.661s-3.293,1.251-4.968,1.819c-1.352.46-.8,2.581.6,2.164,1.524-.453,3.084-.748,4.6-1.23,1.323-.424,3.048-1.294,4.436-.726a9.939,9.939,0,0,1,2.948,2.48c.949.971,1.862,1.977,2.789,2.969a31.033,31.033,0,0,0,6.075,5.32,21.9,21.9,0,0,0,8.5,2.811,32.639,32.639,0,0,0,17.649-1.862,22.605,22.605,0,0,0,11.258-10.2,51.991,51.991,0,0,0,3.3-9.813,66.115,66.115,0,0,0,1.826-10.856c.086-.841-1.33-1.035-1.488-.2h0Z" transform="translate(-700.671 -558.27)" fill="#010d3d"/><path id="Trazado_6623" data-name="Trazado 6623" d="M849.084,641.8a80.728,80.728,0,0,0,10.69,3.724l-.812-.812a9.722,9.722,0,0,1-.6,4.119c-.439,1.438-.956,2.847-1.452,4.263-.956,2.739-1.948,5.464-2.941,8.189a44.96,44.96,0,0,1-3.257,7.434,30.678,30.678,0,0,1-4.91,6.169,32.9,32.9,0,0,1-12.229,8.188,29.668,29.668,0,0,1-16.348.467,48.712,48.712,0,0,1-8.756-2.919c-2.789-1.237-5.406-2.861-8.217-4.019-1.172-.482-1.718,1.287-.812,1.92a44.486,44.486,0,0,0,7.743,3.976,57.9,57.9,0,0,0,8.117,2.991,32.43,32.43,0,0,0,17.477.223,34.294,34.294,0,0,0,13.35-7.994,37.651,37.651,0,0,0,5.45-6.118,35.07,35.07,0,0,0,3.738-7.6c1.193-3.207,2.293-6.449,3.408-9.677.546-1.582,1.128-3.163,1.617-4.759a22.75,22.75,0,0,0,.913-5.14,1.13,1.13,0,0,0-.575-1,83.02,83.02,0,0,0-10.906-4.055c-1.568-.525-2.179,1.876-.676,2.452h0Z" transform="translate(-706.193 -557.953)" fill="#010d3d"/><path id="Trazado_6624" data-name="Trazado 6624" d="M794.55,686.366c.978,2.207,1.934,4.385,3.127,6.492a65.32,65.32,0,0,0,3.968,5.982c.64.891,1.3,1.768,1.97,2.645a9.725,9.725,0,0,1,1.647,2.66,5.339,5.339,0,0,1,0,2.833c-.223,1.121-.4,2.221-.518,3.357-.5,4.637,2.193,8.742,3.7,12.969a98.717,98.717,0,0,1,3.616,13.178c.525,2.567.963,5.147,1.366,7.735a47.506,47.506,0,0,0,1.6,7.642.843.843,0,0,0,1.646-.223c.216-4.651-.8-9.382-1.654-13.94a85.323,85.323,0,0,0-3.5-13.559,60.743,60.743,0,0,0-2.818-6.564c-.978-1.934-2.121-4.083-1.941-6.327a17.741,17.741,0,0,1,.985-3.264,8.733,8.733,0,0,0,.352-3.336c-.252-2.2-1.675-3.846-2.962-5.55q-2.416-3.2-4.565-6.585c-1.438-2.25-3.171-4.587-4.637-6.959a.813.813,0,0,0-1.4.819h0Z" transform="translate(-704.917 -570.843)" fill="#010d3d"/><path id="Trazado_6625" data-name="Trazado 6625" d="M801.653,775.872a67.954,67.954,0,0,1-8.821,3.415c-.741.223-1.488.439-2.236.64l-.482.13c.345.295.359.259.058-.094l-.748-1.014c-1.028-1.4-2.013-2.832-3.005-4.263a1.257,1.257,0,0,0-2.142,0c-.928,1.531-1.733,3.141-2.646,4.68a7.547,7.547,0,0,1-1.194,1.9,4.576,4.576,0,0,1-2.135.582,55.6,55.6,0,0,1-10.259.726A99.066,99.066,0,0,0,758,782.91c-3.336.316-6.592.862-9.9.244-1.43-.266-2.056,1.876-.6,2.2,3.537.791,7.132.122,10.676-.216s7.283-.374,10.913-.525a66.048,66.048,0,0,0,10.726-1.172,4.326,4.326,0,0,0,2.028-.791,8.766,8.766,0,0,0,1.395-1.948c1.035-1.611,2.178-3.156,3.184-4.781h-2.142c1.165,1.668,2.322,3.343,3.437,5.047.46.7.87,1.452,1.732,1.682a5.835,5.835,0,0,0,2.811-.431,61.176,61.176,0,0,0,10.683-4.134c1.488-.748.187-2.9-1.294-2.214h0Z" transform="translate(-691.487 -595.84)" fill="#010d3d"/><path id="Trazado_6626" data-name="Trazado 6626" d="M748.237,766.908c.158-.453.431-.8.554-1.28.115-.439.18-.906.251-1.359.158-.971.281-1.948.4-2.926.23-1.826.431-3.652.7-5.471s.374-3.81.69-5.687.669-3.631,1.086-5.421.906-3.688,1.416-5.521,1.042-3.487,1.459-5.241a9.068,9.068,0,0,0-.122-5.033,28.045,28.045,0,0,0-2.114-4.393,34.846,34.846,0,0,1-2.178-5.557c-.316-.992-.575-2.006-.906-3a25.893,25.893,0,0,0-1.279-2.7.583.583,0,0,0-1.078.295,24.5,24.5,0,0,0,.158,2.509,21.932,21.932,0,0,0,.7,2.545,39.856,39.856,0,0,0,1.884,4.838c1.445,3.07,4.069,5.939,3.328,9.54a46.965,46.965,0,0,1-1.61,5.183c-.568,1.711-1.007,3.552-1.452,5.335s-.863,3.58-1.251,5.378-.935,3.559-1.215,5.37c-.309,2-.546,4-.784,6.017-.122,1.028-.252,2.049-.4,3.07-.072.518-.151,1.028-.216,1.546-.072.59.036,1.121,0,1.711-.079,1.194,1.625,1.287,1.977.266h0Z" transform="translate(-691.365 -578.681)" fill="#010d3d"/><path id="Trazado_6627" data-name="Trazado 6627" d="M775.889,669.127c1.114,5.6,1.862,11.251,2.624,16.916q.561,4.184.906,8.39.172,2.081.273,4.177c.036.755.065,1.51.094,2.265s.173,1.517.187,2.265l1.668-.69c-3.767-4.465-6.765-9.619-9.914-14.522-.762-1.186-1.524-2.38-2.272-3.573s-1.682-2.265-2.444-3.443a40.915,40.915,0,0,1-3.875-7.779c-.23-.618-1.236-.352-1,.273a67.468,67.468,0,0,0,3.6,7.872c.661,1.251,1.128,2.566,1.883,3.774.805,1.287,1.625,2.567,2.444,3.846,3.25,5.04,6.355,10.309,10.194,14.932a.986.986,0,0,0,1.668-.69c-.007-.8.1-1.5.072-2.265s-.065-1.51-.108-2.265c-.079-1.395-.187-2.782-.309-4.177-.259-2.868-.625-5.737-1.05-8.584-.856-5.73-2.308-11.352-3.645-17-.151-.654-1.129-.374-1,.273Z" transform="translate(-695.824 -566.156)" fill="#010d3d"/><path id="Trazado_6628" data-name="Trazado 6628" d="M774.542,682.335a6.2,6.2,0,0,0,2.8,2.646,3.838,3.838,0,0,0,2.164.4c.539-.086,1.539-.554,1.351-1.251a.38.38,0,0,0-.46-.259c-.223.036-.388.259-.582.374a1.213,1.213,0,0,1-.69.144,3.683,3.683,0,0,1-1.532-.511,5.189,5.189,0,0,1-2.114-2.106c-.338-.619-1.28-.065-.942.554h0Z" transform="translate(-699.301 -569.817)" fill="#010d3d"/><path id="Trazado_6629" data-name="Trazado 6629" d="M773.221,682.071a1.3,1.3,0,0,1-.093,1.021,3.335,3.335,0,0,1-.827.992c-.259.237-.568.582-.9.6a6.257,6.257,0,0,1-.733-.065,1.812,1.812,0,0,0-.784.115.272.272,0,0,0-.065.489,2.062,2.062,0,0,0,.863.366,2.7,2.7,0,0,0,.992.065,2.97,2.97,0,0,0,1.373-.949,2.723,2.723,0,0,0,.942-3.077.451.451,0,0,0-.611-.158.459.459,0,0,0-.158.611h0Z" transform="translate(-697.959 -569.79)" fill="#010d3d"/><g id="Grupo_4706" data-name="Grupo 4706" transform="matrix(0.719, -0.695, 0.695, 0.719, 61.877, 128.199)"><path id="Trazado_6630" data-name="Trazado 6630" d="M760.2,707.812s.431-.28.568-.374c.431-1.905.417-3.81,1.416-5.442.367-.6,1.143-1.718,1.568-2.38.072-.13.151-.259.23-.374a.447.447,0,0,0,.043-.086h.007a2.388,2.388,0,0,1,.683-.668c.841-.489,1.675-.23,2.56.827.165.2.841.309.934.755a2.211,2.211,0,0,0-.625-.237,5.444,5.444,0,0,0-1.3.374c1.7,3.221-.518,6.046-1.416,8.527.029.172,1.122.554.884,1.179-.029.072-.079.115-.144.1-1.086-.18-1.632-.9-2.675-1.172-.906-.244-1.467.058-2.617-.445-.244-.108-.323-.439-.115-.568" transform="translate(-760.08 -698.248)" fill="#010d3d" fill-rule="evenodd"/><path id="Trazado_6631" data-name="Trazado 6631" d="M765.859,701.249a1.057,1.057,0,0,0,0,.432c-.093,5.586-1.675,7.254-2.243,5.486-.18-.554-.6-.727-.726,1.639-.015.251.568.316.8.4.683.245.726.309,1.079.115.194-.108,2.43-4.2,1.905-6.83a8.957,8.957,0,0,0-.28-1.244.3.3,0,0,0-.532,0" transform="translate(-760.642 -699.041)" fill="#fff" fill-rule="evenodd"/><path id="Trazado_6632" data-name="Trazado 6632" d="M762.9,699.355a.254.254,0,0,0,.173.281.182.182,0,0,0,.237-.158.254.254,0,0,0-.173-.28.182.182,0,0,0-.237.158" transform="translate(-757.207 -698.512)" fill="#fff"/></g><path id="Trazado_6633" data-name="Trazado 6633" d="M789.211,723.829l.4,1.028.194.5.1.244a3.281,3.281,0,0,0,.18.424,1.288,1.288,0,0,0,.827.618l.345.05a1.017,1.017,0,0,0,.5-.115.641.641,0,0,0,.288-.166,1.035,1.035,0,0,0,.338-.366,1.271,1.271,0,0,0,.108-1.158l-.094-.251-.194-.518-.388-1.014a1.021,1.021,0,0,0-.244-.46,1.216,1.216,0,0,0-.884-.5,1.059,1.059,0,0,0-.539.021,1.391,1.391,0,0,0-.806.618l-.136.323a1.355,1.355,0,0,0,0,.719h0Z" transform="translate(-703.431 -581.232)" fill="#010d3d"/><path id="Trazado_6634" data-name="Trazado 6634" d="M792.933,736c.043.23.086.467.115.7l-.043-.316a4.717,4.717,0,0,1,0,.546,3.937,3.937,0,0,0,.057.87,1.055,1.055,0,0,0,.237.453,1.019,1.019,0,0,0,.374.345l.316.136a.957.957,0,0,0,.532.022.63.63,0,0,0,.338-.094.979.979,0,0,0,.431-.273,1.356,1.356,0,0,0,.388-.942,3.57,3.57,0,0,0-.072-.546,2.038,2.038,0,0,0-.051-.223,4.008,4.008,0,0,0-.151-.417,2.926,2.926,0,0,1-.115-.431c-.036-.151-.079-.295-.129-.446a1.214,1.214,0,0,0-.532-.69,1.145,1.145,0,0,0-.891-.115,1.171,1.171,0,0,0-.691.532l-.115.273a1.128,1.128,0,0,0,0,.619h0Z" transform="translate(-704.479 -584.724)" fill="#010d3d"/><path id="Trazado_6635" data-name="Trazado 6635" d="M794.973,748.088c.072.324.137.654.216.978l.115.475a1.8,1.8,0,0,0,.482.992,1.325,1.325,0,0,0,.583.338,1.275,1.275,0,0,0,.7,0,1.346,1.346,0,0,0,.92-.92,2.723,2.723,0,0,0-.251-1.589c-.108-.316-.223-.632-.338-.942a1.356,1.356,0,0,0-.575-.748.924.924,0,0,0-.467-.151,1,1,0,0,0-.5.022,1.28,1.28,0,0,0-.748.575l-.129.3a1.315,1.315,0,0,0,0,.669h0Z" transform="translate(-705.052 -588.086)" fill="#010d3d"/><path id="Trazado_6636" data-name="Trazado 6636" d="M797.505,762.767c.093.446.165.892.223,1.337l-.05-.359c.014.087.022.18.036.266a.636.636,0,0,0,.014.122,1.781,1.781,0,0,0,.2.74l.208.266.266.208.316.137a.931.931,0,0,0,.525.021.588.588,0,0,0,.331-.093,1.324,1.324,0,0,0,.532-.41,1.056,1.056,0,0,0,.237-.453,1.53,1.53,0,0,0,.043-.568c-.007-.072-.014-.144-.022-.216q-.043-.4-.108-.8c-.043-.316-.1-.625-.158-.934a1.027,1.027,0,0,0-.244-.46,1.219,1.219,0,0,0-.884-.5,1.055,1.055,0,0,0-.539.022,1.39,1.39,0,0,0-.805.618l-.137.324a1.356,1.356,0,0,0,0,.719h0Z" transform="translate(-705.759 -592.174)" fill="#010d3d"/><path id="Trazado_6637" data-name="Trazado 6637" d="M793.445,782.769c-.5,7.455-.748,14.917-1.61,22.351a109.549,109.549,0,0,1-1.7,11.229c-.827,3.7-1.754,7.2-2.854,10.741s-2.351,7.153-3.738,10.647c-.683,1.718-1.4,3.422-2.179,5.1-.374.805-.525,1.531-1.51,1.575s-1.955,0-2.933.014c-8.037.094-16.068-.058-24.091-.6-4.385-.295-8.792-.64-13.149-1.237a60.609,60.609,0,0,1-5.989-1.114,33.545,33.545,0,0,1-6.139-1.891l.5,1.237a381.522,381.522,0,0,0,14.17-41.539c1.086-3.976,2.128-7.951,3.062-11.963.388-1.668-2.178-2.387-2.573-.712a392.679,392.679,0,0,1-12.351,42.1c-1.394,3.875-2.875,7.714-4.414,11.531-.245.6.273,1.136.762,1.344a39.026,39.026,0,0,0,5.536,2.049,54.133,54.133,0,0,0,5.658,1.093c3.94.568,7.923.884,11.9,1.164q12.553.895,25.155.676a32.468,32.468,0,0,0,5.794-.309c1.862-.381,2.329-2.128,2.955-3.681,1.438-3.594,2.811-7.211,4-10.892s2.229-7.534,3.142-11.352,1.8-7.649,2.545-11.488a98.324,98.324,0,0,0,1.74-12.8,88.842,88.842,0,0,0,.036-13.271.86.86,0,0,0-1.718,0h0Z" transform="translate(-685.645 -598.05)" fill="#010d3d"/><path id="Trazado_6638" data-name="Trazado 6638" d="M789.437,870.094a115.371,115.371,0,0,0-4.062,19.03,164.69,164.69,0,0,0-1.682,19.555c-.079,5.6,1.042,11.826,5.758,15.435a17.068,17.068,0,0,0,7.771,2.933c1.373.223,2.753.374,4.127.611a2.241,2.241,0,0,1,.489.093c-.079-.093-.065.237-.079.151a2.122,2.122,0,0,1-.2.885,3.662,3.662,0,0,1-1.488,1.524,9.24,9.24,0,0,1-5.126.927,21.993,21.993,0,0,1-9.864-2.8,8.285,8.285,0,0,1-3.5-3.106,1.087,1.087,0,0,0-1.7-.216c-1.05,1.164-2.746,3.055-4.45,1.912-1.5-1.014-1.488-3.048-1.05-4.594.546-1.948,1.5-3.753,2.085-5.694a32.454,32.454,0,0,0,1.186-5.989c.884-8.469-.582-16.974.137-25.457a89.683,89.683,0,0,1,2.789-14.774,1.261,1.261,0,0,0-2.43-.669c-3.192,9.108-3.53,18.951-3.1,28.491a90.306,90.306,0,0,1-.036,14.012,28.263,28.263,0,0,1-1.531,6.571c-.7,1.934-1.51,3.969-1.157,6.068a4.892,4.892,0,0,0,3.336,4.134c2.229.539,4.228-1.064,5.751-2.473l-1.7-.216c1.373,2.581,4.622,3.961,7.239,4.9a23.7,23.7,0,0,0,9.418,1.352c2.79-.165,5.572-1.014,6.859-3.724.539-1.136.827-2.674-.453-3.436a5.886,5.886,0,0,0-2.078-.482c-.784-.122-1.567-.244-2.351-.374-2.782-.474-5.773-1.129-7.93-3.084a13.161,13.161,0,0,1-3.868-7.268,42.469,42.469,0,0,1-.381-10.245c.115-3.408.316-6.952.618-10.424a134.682,134.682,0,0,1,3.954-23.178.675.675,0,0,0-1.3-.36h0Z" transform="translate(-698.675 -622.513)" fill="#010d3d"/><path id="Trazado_6639" data-name="Trazado 6639" d="M731.826,867.933c-1.481,4.536-4.242,8.454-7.182,12.157-1.51,1.891-3.034,3.789-4.666,5.579a32.272,32.272,0,0,1-5.169,4.5c-1.869,1.351-3.746,2.531-5.564,3.875-1.69,1.251-3.789,2.7-4.846,4.551s-.762,4.457-.582,6.478a31.536,31.536,0,0,0,1.459,7.017,40.476,40.476,0,0,0,2.9,6.211c.431.834.7,1.977-.625,1.876a6.488,6.488,0,0,1-3.012-1.2c-3.76-2.6-4.946-7.57-5.759-11.783a10.4,10.4,0,0,1-.18-3.53c.2-1.28.913-2.4.5-3.724-.309-1-1.229-1.6-1.754-2.466a4.843,4.843,0,0,1-.669-2.567c.021-2.15,1.6-3.264,3.508-3.818a40,40,0,0,0,5.946-1.9,21.931,21.931,0,0,0,10.151-10.173,52.24,52.24,0,0,1,3.954-6.851c.762-1.057,1.531-2.092,2.214-3.206a11.734,11.734,0,0,0,.863-1.56,6.29,6.29,0,0,0,.367-2c.072-.942-1.143-1.035-1.6-.431-1.431,1.905-2.717,3.925-4.119,5.859a49.581,49.581,0,0,0-3.825,6.549,22.667,22.667,0,0,1-3.882,5.658,18.672,18.672,0,0,1-5.456,3.846c-3.631,1.7-9.209,1.639-10.194,6.506a7.723,7.723,0,0,0,1.28,5.823c.216.309.755.726.841,1.078.108.481-.316,1.251-.446,1.711a10.565,10.565,0,0,0-.345,3.911,27.216,27.216,0,0,0,2.178,7.455,17.118,17.118,0,0,0,3.537,5.773,10.009,10.009,0,0,0,5.665,3.041,2.9,2.9,0,0,0,3.293-3.731,14.034,14.034,0,0,0-1.589-3.163,30.64,30.64,0,0,1-1.6-3.458,27.2,27.2,0,0,1-1.7-7.383,21.7,21.7,0,0,1-.086-3.415,4.7,4.7,0,0,1,1.855-3.163,46.011,46.011,0,0,1,5.773-4.421,44.377,44.377,0,0,0,6.1-4.752,69.651,69.651,0,0,0,5.564-6.585c3.336-4.206,6.448-8.677,7.973-13.882.2-.683-.834-.956-1.057-.288h0Z" transform="translate(-676.816 -621.279)" fill="#010d3d"/><path id="Trazado_6640" data-name="Trazado 6640" d="M794.275,944.36c-1.114,1.56-3.7.676-5.19.287a32.566,32.566,0,0,1-4.307-1.445,30.15,30.15,0,0,1-8.081-5.111c-.877-.755-2.157.561-1.265,1.265a38.05,38.05,0,0,0,9.827,5.507,28.633,28.633,0,0,0,5.442,1.553c1.855.317,3.515.144,4.579-1.466.417-.633-.575-1.193-1.006-.589Z" transform="translate(-699.487 -641.876)" fill="#010d3d"/><path id="Trazado_6641" data-name="Trazado 6641" d="M706.893,919c-1.517-.281-2.2-1.833-2.71-3.142a15.77,15.77,0,0,1-1-5.248,16.174,16.174,0,0,1,.489-5.385c.6-1.862,1.143-3.738,1.646-5.629a1.354,1.354,0,0,0-2.61-.719,37.991,37.991,0,0,0-1.013,6.6,33.321,33.321,0,0,0-.2,6.42c.3,3.027,1.186,8.232,4.91,8.842,1.129.187,1.625-1.524.482-1.74h0Z" transform="translate(-678.764 -630.647)" fill="#010d3d"/><path id="Trazado_6642" data-name="Trazado 6642" d="M893.964,641.453c-.079,1.294-.683,3.336-2.257,3.415a2.345,2.345,0,0,1-1.733-.366,1.412,1.412,0,0,1-.323-.626c-.108-.374-.288-.7-.41-1.071a.857.857,0,0,0-1.675.23.723.723,0,0,1-.46.662c-.41.165-.776-.165-1.208,0a.408.408,0,0,0-.288.381c.036.942,1.244,1.086,1.977.906a2.341,2.341,0,0,0,1.654-1.725l-1.675-.23a4.269,4.269,0,0,0,.194,1.567,3.352,3.352,0,0,0,.87,1.345,4.058,4.058,0,0,0,3.156.769,2.765,2.765,0,0,0,1.617-.654,4.029,4.029,0,0,0,.87-1.359,8.208,8.208,0,0,0,.791-3.242c.014-.712-1.05-.7-1.093,0h0Z" transform="translate(-730.541 -558.411)" fill="#010d3d"/><g id="Grupo_4709" data-name="Grupo 4709" transform="translate(153.926 30.252)"><g id="Grupo_4707" data-name="Grupo 4707"><path id="Trazado_6643" data-name="Trazado 6643" d="M939.463,569.883l-49.548-1.653-5.9,77.341,58.535,1.948,5.219-68.484Z" transform="translate(-884.02 -568.23)" fill="#fff" stroke="#00b2e3" stroke-width="1.64"/><path id="Trazado_6644" data-name="Trazado 6644" d="M960.867,570.53l-.7,9.137,8.987.3" transform="translate(-905.424 -568.876)" fill="none" stroke="#00b2e3" stroke-width="1.64"/></g><g id="Grupo_4708" data-name="Grupo 4708" transform="translate(13.113 20.281)"><path id="Trazado_6645" data-name="Trazado 6645" d="M925.39,601.063l-19.31-.647.3-3.976,19.31.647Z" transform="translate(-903.334 -596.44)" fill="#99e0f4"/><path id="Trazado_6646" data-name="Trazado 6646" d="M940.091,614.1l-34.961-1.165.3-3.976,34.961,1.164Z" transform="translate(-903.067 -599.959)" fill="#99e0f4"/><path id="Trazado_6647" data-name="Trazado 6647" d="M939.138,626.618l-34.968-1.165.3-3.983,34.968,1.172Z" transform="translate(-902.797 -603.475)" fill="#99e0f4"/><path id="Trazado_6648" data-name="Trazado 6648" d="M938.181,639.137l-34.961-1.172.3-3.976,34.968,1.164Z" transform="translate(-902.53 -606.995)" fill="#99e0f4"/><path id="Trazado_6649" data-name="Trazado 6649" d="M937.229,651.65l-34.969-1.165.309-3.976,34.961,1.165Z" transform="translate(-902.26 -610.514)" fill="#99e0f4"/></g></g><g id="Grupo_4710" data-name="Grupo 4710" transform="translate(147.609 75.261)"><path id="Trazado_6650" data-name="Trazado 6650" d="M878.177,637.716a2.491,2.491,0,0,0,2.028,1.754c.726.108,1.883,1.316,2.07,1.351.079.015.935-1.567,1.014-1.56.834.561,2.222.424,3.214.431a7.65,7.65,0,0,0,3.422-.4,2.923,2.923,0,0,0,1.5-4.112,3.629,3.629,0,0,0-2.94-1.639,4.538,4.538,0,0,0-1.883-.906,6.078,6.078,0,0,0-4.659,1.086c-.3.1-.6.237-.92.381a10.467,10.467,0,0,0-1.833.87,2.523,2.523,0,0,0-1.007,2.739Z" transform="translate(-876.038 -631.308)" fill="#fff"/><path id="Trazado_6651" data-name="Trazado 6651" d="M876.23,636.964c.467-.316.928-.633,1.423-.906s1.05-.417,1.574-.654c.949-.417,1.855-.927,2.8-1.359a5.287,5.287,0,0,1,3.055-.554,27.709,27.709,0,0,1,3.163.626,3.026,3.026,0,0,1,2.121,1.5,1.473,1.473,0,0,1-.784,2.257,9.932,9.932,0,0,1-6.132-.093,1,1,0,0,0-1.244.949c-.144,1.6-1.488,2.286-2.3,3.5a.508.508,0,0,0,.3.741c2.329.618,3.8-2.372,3.961-4.242l-1.244.949c2.351.633,5.629.884,7.743-.582s1.582-4.061-.115-5.744a7.321,7.321,0,0,0-3.473-1.919,9.329,9.329,0,0,0-4.364-.482,11.376,11.376,0,0,0-3.667,1.934,12.5,12.5,0,0,0-1.7,1.438,18.194,18.194,0,0,1-1.819,1.466c-.683.525-.05,1.7.69,1.186h0Z" transform="translate(-875.234 -630.836)" fill="#010d3d"/></g><path id="Trazado_6652" data-name="Trazado 6652" d="M743.759,670.841c-3.041,1.042-6.1,2-9.08,3.214a87.333,87.333,0,0,0-8.821,3.868,54.289,54.289,0,0,0-15.241,11.869,91.045,91.045,0,0,0-11.352,17.2,121.821,121.821,0,0,0-8.1,18.872,48.565,48.565,0,0,0-1.438,5.607c-.388,1.891-1.071,3.71-1.56,5.579a5.465,5.465,0,0,0-.359,2.574,3.775,3.775,0,0,0,1.474,1.876,42.558,42.558,0,0,0,4.615,3.35,1,1,0,0,0,1.366-.36c3.8-7.34,7.987-14.515,12.437-21.481,2.228-3.487,4.586-6.887,6.873-10.338a77.76,77.76,0,0,1,6.585-9.015,25.852,25.852,0,0,1,9.634-7.182c.891-.352.5-1.8-.4-1.445-6.844,2.718-11.6,8.584-15.953,14.271a201.823,201.823,0,0,0-14.055,21.474c-2.416,4.163-4.659,8.419-6.837,12.7l1.366-.359a18.473,18.473,0,0,1-4-2.588c-.576-.482-1.4-.963-1.309-1.775a22.59,22.59,0,0,1,.547-2.5,36.845,36.845,0,0,1,1.229-4.666c.568-1.516,1.222-3.106,1.769-4.68a126.71,126.71,0,0,1,7.736-17.858,93.379,93.379,0,0,1,10.568-16.377,52.388,52.388,0,0,1,14.048-11.5,114.87,114.87,0,0,1,18.7-8.742c.985-.352.568-1.927-.439-1.582h0Z" transform="translate(-674.924 -566.806)" fill="#010d3d"/><path id="Trazado_6653" data-name="Trazado 6653" d="M746.287,706.047a42.742,42.742,0,0,0,2.078,11.87,33.165,33.165,0,0,0,2.423,5.866c.474.863.978,1.718,1.5,2.552.445.7.884,1.639,1.7,1.948a.773.773,0,0,0,.97-.74c-.014-.8-.726-1.582-1.1-2.265a25.937,25.937,0,0,1-1.172-2.43c-.791-1.869-1.581-3.731-2.272-5.636-1.294-3.566-2.566-7.354-2.732-11.165-.036-.891-1.416-.9-1.394,0h0Z" transform="translate(-691.378 -576.527)" fill="#010d3d"/><path id="Trazado_6654" data-name="Trazado 6654" d="M688.818,770.886c-1.668,3.257-3.386,6.585-6.118,9.087a13,13,0,0,1-2.013,1.524c-.36.223-1.941,1.309-2.329.92-.518-.518,3.091-4.1,3.508-4.558a.786.786,0,0,0-.949-1.229c-1.4.755-2.8,1.488-4.249,2.149-.661.3-1.323.6-1.991.87-.561.23-1.51.7-2.107.295-1.114-.748,1.79-2.229,2.308-2.574,1.388-.927,2.789-1.848,4.191-2.753a.735.735,0,0,0-.568-1.337c-1.344.345-2.689.7-4.026,1.057-.977.259-2.4.819-3.264.014l.122.927c.934-1.884,2.983-2.753,4.766-3.652,2.286-1.143,4.616-2.207,6.909-3.328.949-.46.115-1.9-.827-1.416-2.487,1.265-4.939,2.588-7.448,3.818-1.84.906-3.746,1.905-4.723,3.8a.771.771,0,0,0,.122.927,3.852,3.852,0,0,0,3.559.6c1.747-.367,3.48-.884,5.205-1.337l-.568-1.337c-1.934,1.294-3.889,2.559-5.844,3.818-1.2.769-2.5,2.106-1.395,3.551s3.063.855,4.508.244a58.5,58.5,0,0,0,6.111-2.983l-.949-1.229c-.884,1.035-1.79,2.049-2.7,3.07a3.714,3.714,0,0,0-1.316,2.588,1.753,1.753,0,0,0,1.661,1.7,6.389,6.389,0,0,0,2.94-1.194c4.206-2.574,6.521-7.067,8.677-11.323.4-.8-.791-1.5-1.208-.7h0Z" transform="translate(-669.912 -593.788)" fill="#010d3d"/><path id="Trazado_6655" data-name="Trazado 6655" d="M758.95,633.455a19.181,19.181,0,0,0,6.276,2.523,25.257,25.257,0,0,0,7.031.259,38.147,38.147,0,0,0,7.189-1.481,30.665,30.665,0,0,0,3.48-1.208,5.136,5.136,0,0,0,1.416-1.035,5.447,5.447,0,0,0,1.143-1.157.337.337,0,0,0-.2-.489,4.784,4.784,0,0,0-1.323-.021,9.717,9.717,0,0,0-1.589.086,34.717,34.717,0,0,0-3.321,1.114,34.31,34.31,0,0,1-6.636,1.467,24.578,24.578,0,0,1-6.161-.087,19.633,19.633,0,0,1-6.226-1.812,1.062,1.062,0,0,0-1.071,1.833h0Z" transform="translate(-694.795 -555.567)" fill="#010d3d"/><path id="Trazado_6656" data-name="Trazado 6656" d="M783.782,632.925c-.187,1.028-.4,2.049-.561,3.084-.115.7-.187,1.049-.913,1.308a6.733,6.733,0,0,1-1.452.331,30.667,30.667,0,0,1-5.8-.13,31.542,31.542,0,0,1-5.414-.762,17.037,17.037,0,0,1-2.689-.884c-.87-.374-1.567-.891-2.409-1.193-.561-.194-.884.546-.539.935a6.909,6.909,0,0,0,2.516,1.51,18.9,18.9,0,0,0,3.055.985,38.832,38.832,0,0,0,6.377.8c2.135.13,4.572.374,6.686-.417a2.346,2.346,0,0,0,1.646-1.452,27.021,27.021,0,0,0,.575-3.81c.1-.69-.934-1.006-1.064-.295h0Z" transform="translate(-696.32 -556.051)" fill="#010d3d"/><path id="Trazado_6657" data-name="Trazado 6657" d="M787.376,640.565a11.522,11.522,0,0,1,.726,1.711c.094.288.173.582.245.884s.108.6.187.9c.065.237.151.64.475.625.345-.015.331-.453.309-.7a6.888,6.888,0,0,0-.518-1.79,12.819,12.819,0,0,0-.913-1.934.3.3,0,0,0-.511.295h0Z" transform="translate(-702.919 -558.184)" fill="#010d3d"/><path id="Trazado_6658" data-name="Trazado 6658" d="M792.521,640.265a6.657,6.657,0,0,1,.625.352c.1.065.2.137.295.208a.4.4,0,0,1,.065.051c-.014-.014-.065-.051,0,0s.1.086.158.129a6.737,6.737,0,0,1,.518.5c.079.086.151.165.223.259a3.146,3.146,0,0,0,.273.259,2.313,2.313,0,0,0,.288.237c.108.072.23.173.36.094s.108-.216.093-.331a1.606,1.606,0,0,0-.115-.4,2.968,2.968,0,0,0-.144-.309,2.23,2.23,0,0,0-.281-.352,5.642,5.642,0,0,0-.51-.51,6.574,6.574,0,0,0-1.395-.956.458.458,0,1,0-.46.791h0Z" transform="translate(-704.311 -557.991)" fill="#010d3d"/><path id="Trazado_6659" data-name="Trazado 6659" d="M780.786,641.753c.072.338.144.676.23,1.014.043.165.086.331.137.489s.115.331.18.5c.079.209.417.194.41-.057,0-.172,0-.352-.007-.525s-.036-.345-.05-.525c-.036-.374-.093-.74-.151-1.107a.389.389,0,0,0-.474-.273.4.4,0,0,0-.273.474h0Z" transform="translate(-701.074 -558.502)" fill="#010d3d"/></g><g id="Grupo_4714" data-name="Grupo 4714" transform="translate(220.533 108.161)"><g id="Grupo_4712" data-name="Grupo 4712" transform="translate(0 0)"><path id="Trazado_6660" data-name="Trazado 6660" d="M1058.109,371.32H1016.85v65.389h48.74V378.8Z" transform="translate(-1016.85 -371.32)" fill="#fff" stroke="#00b2e3" stroke-width="2"/><path id="Trazado_6661" data-name="Trazado 6661" d="M1101.73,371.32v7.724h7.481" transform="translate(-1060.47 -371.32)" fill="none" stroke="#00b2e3" stroke-width="2"/></g><g id="Grupo_4713" data-name="Grupo 4713" transform="translate(8.307 12.93)"><rect id="Rectángulo_3126" data-name="Rectángulo 3126" width="7.685" height="7.685" transform="translate(0 0.71)" fill="#ccf0f9"/><rect id="Rectángulo_3127" data-name="Rectángulo 3127" width="7.685" height="7.685" transform="translate(0 13.47)" fill="#ccf0f9"/><rect id="Rectángulo_3128" data-name="Rectángulo 3128" width="7.685" height="7.685" transform="translate(0 26.234)" fill="#ccf0f9"/><rect id="Rectángulo_3129" data-name="Rectángulo 3129" width="8.22" height="2.776" transform="translate(10.782 0.71)" fill="#99e0f4"/><rect id="Rectángulo_3130" data-name="Rectángulo 3130" width="21.344" height="2.776" transform="translate(10.782 5.619)" fill="#99e0f4"/><rect id="Rectángulo_3131" data-name="Rectángulo 3131" width="13.129" height="2.776" transform="translate(10.782 13.47)" fill="#99e0f4"/><rect id="Rectángulo_3132" data-name="Rectángulo 3132" width="21.344" height="2.776" transform="translate(10.782 18.379)" fill="#99e0f4"/><rect id="Rectángulo_3133" data-name="Rectángulo 3133" width="8.22" height="2.776" transform="translate(10.782 26.234)" fill="#99e0f4"/><rect id="Rectángulo_3134" data-name="Rectángulo 3134" width="17.718" height="2.776" transform="translate(10.782 31.144)" fill="#99e0f4"/><path id="Trazado_6662" data-name="Trazado 6662" d="M1037.556,404.886l-3.617-3.617,1.356-1.361,2.26,2.26,4.244-4.248,1.356,1.361Z" transform="translate(-1033.94 -397.92)" fill="#66d1ee"/><path id="Trazado_6663" data-name="Trazado 6663" d="M1037.556,433.341l-3.617-3.617,1.356-1.356,2.26,2.255,4.244-4.244,1.356,1.356Z" transform="translate(-1033.94 -412.546)" fill="#66d1ee"/><path id="Trazado_6664" data-name="Trazado 6664" d="M1037.556,458.851l-3.617-3.612,1.356-1.361,2.26,2.255,4.244-4.244,1.356,1.361Z" transform="translate(-1033.94 -425.656)" fill="#66d1ee"/></g></g><g id="Grupo_4722" data-name="Grupo 4722" transform="translate(146.521 108.161)"><g id="Grupo_4715" data-name="Grupo 4715" transform="translate(0 0)"><path id="Trazado_6665" data-name="Trazado 6665" d="M905.845,371.32H864.59v65.389h48.736V378.8Z" transform="translate(-864.59 -371.32)" fill="#fff" stroke="#00b2e3" stroke-width="2"/><path id="Trazado_6666" data-name="Trazado 6666" d="M949.46,371.32v7.724h7.481" transform="translate(-908.206 -371.32)" fill="none" stroke="#00b2e3" stroke-width="2"/></g><g id="Grupo_4721" data-name="Grupo 4721" transform="translate(9.809 16.814)"><rect id="Rectángulo_3135" data-name="Rectángulo 3135" width="16.08" height="3.364" fill="#99e0f4"/><rect id="Rectángulo_3136" data-name="Rectángulo 3136" width="29.117" height="3.364" transform="translate(0 7.355)" fill="#99e0f4"/><rect id="Rectángulo_3137" data-name="Rectángulo 3137" width="29.117" height="1.682" transform="translate(0 37.93)" fill="#99e0f4"/><rect id="Rectángulo_3138" data-name="Rectángulo 3138" width="28.995" height="15.351" transform="translate(0 14.102)" fill="#99e0f4"/><g id="Grupo_4720" data-name="Grupo 4720" transform="translate(1.492 15.273)"><g id="Grupo_4716" data-name="Grupo 4716"><rect id="Rectángulo_3139" data-name="Rectángulo 3139" width="7.928" height="2.319" fill="#fff"/><rect id="Rectángulo_3140" data-name="Rectángulo 3140" width="7.928" height="2.319" transform="translate(8.978)" fill="#fff"/><rect id="Rectángulo_3141" data-name="Rectángulo 3141" width="7.928" height="2.319" transform="translate(17.961)" fill="#fff"/></g><g id="Grupo_4717" data-name="Grupo 4717" transform="translate(0 3.471)"><rect id="Rectángulo_3142" data-name="Rectángulo 3142" width="7.928" height="2.319" fill="#fff"/><rect id="Rectángulo_3143" data-name="Rectángulo 3143" width="7.928" height="2.319" transform="translate(8.978)" fill="#fff"/><rect id="Rectángulo_3144" data-name="Rectángulo 3144" width="7.928" height="2.319" transform="translate(17.961)" fill="#fff"/></g><g id="Grupo_4718" data-name="Grupo 4718" transform="translate(0 6.937)"><rect id="Rectángulo_3145" data-name="Rectángulo 3145" width="7.928" height="2.319" fill="#fff"/><rect id="Rectángulo_3146" data-name="Rectángulo 3146" width="7.928" height="2.319" transform="translate(8.978)" fill="#fff"/><rect id="Rectángulo_3147" data-name="Rectángulo 3147" width="7.928" height="2.319" transform="translate(17.961)" fill="#fff"/></g><g id="Grupo_4719" data-name="Grupo 4719" transform="translate(0 10.407)"><rect id="Rectángulo_3148" data-name="Rectángulo 3148" width="7.928" height="2.319" fill="#fff"/><rect id="Rectángulo_3149" data-name="Rectángulo 3149" width="7.928" height="2.319" transform="translate(8.978)" fill="#fff"/><rect id="Rectángulo_3150" data-name="Rectángulo 3150" width="7.928" height="2.319" transform="translate(17.961)" fill="#fff"/></g></g></g></g><g id="Grupo_4725" data-name="Grupo 4725" transform="translate(294.55 0.194)"><g id="Grupo_4723" data-name="Grupo 4723" transform="translate(0 0)"><path id="Trazado_6667" data-name="Trazado 6667" d="M1210.375,123.8H1169.12v65.394h48.736V131.281Z" transform="translate(-1169.12 -123.8)" fill="#fff" stroke="#00b2e3" stroke-width="2"/><path id="Trazado_6668" data-name="Trazado 6668" d="M1253.99,123.8v7.729h7.481" transform="translate(-1212.735 -123.8)" fill="none" stroke="#00b2e3" stroke-width="2"/></g><g id="Grupo_4724" data-name="Grupo 4724" transform="translate(8.302 13.333)"><rect id="Rectángulo_3151" data-name="Rectángulo 3151" width="32.126" height="3.432" transform="translate(0 22.914)" fill="#99e0f4"/><rect id="Rectángulo_3152" data-name="Rectángulo 3152" width="8.74" height="3.432" fill="#ccf0f9"/><rect id="Rectángulo_3153" data-name="Rectángulo 3153" width="10.456" height="3.432" transform="translate(0 7.948)" fill="#66d1ee"/><rect id="Rectángulo_3154" data-name="Rectángulo 3154" width="10.456" height="3.432" transform="translate(0 15.822)" fill="#ccf0f9"/><rect id="Rectángulo_3155" data-name="Rectángulo 3155" width="18.885" height="19.249" transform="translate(13.241)" fill="#66d1ee"/><rect id="Rectángulo_3156" data-name="Rectángulo 3156" width="32.126" height="9.746" transform="translate(0 30.06)" fill="#99e0f4"/></g></g><g id="Grupo_4728" data-name="Grupo 4728" transform="translate(220.533 0.194)"><g id="Grupo_4726" data-name="Grupo 4726" transform="translate(0 0)"><path id="Trazado_6669" data-name="Trazado 6669" d="M1058.109,123.8H1016.85v65.394h48.74V131.281Z" transform="translate(-1016.85 -123.8)" fill="#fff" stroke="#00b2e3" stroke-width="2"/><path id="Trazado_6670" data-name="Trazado 6670" d="M1101.73,123.8v7.729h7.481" transform="translate(-1060.47 -123.8)" fill="none" stroke="#00b2e3" stroke-width="2"/></g><g id="Grupo_4727" data-name="Grupo 4727" transform="translate(9.805 13.241)"><rect id="Rectángulo_3157" data-name="Rectángulo 3157" width="29.132" height="3.111" transform="translate(0 22.248)" fill="#99e0f4"/><rect id="Rectángulo_3158" data-name="Rectángulo 3158" width="10.942" height="3.111" transform="translate(0 1.468)" fill="#99e0f4"/><rect id="Rectángulo_3159" data-name="Rectángulo 3159" width="10.942" height="3.111" transform="translate(0 8.395)" fill="#99e0f4"/><rect id="Rectángulo_3160" data-name="Rectángulo 3160" width="10.942" height="3.111" transform="translate(0 15.322)" fill="#99e0f4"/><rect id="Rectángulo_3161" data-name="Rectángulo 3161" width="29.132" height="8.837" transform="translate(0 28.723)" fill="#99e0f4"/><path id="Trazado_6671" data-name="Trazado 6671" d="M1078.059,160.154l-6.354,3.621,1.21-7.214a7.09,7.09,0,0,0-1.21-.1,7.316,7.316,0,1,0,7.316,7.316,8.042,8.042,0,0,0-.962-3.621Z" transform="translate(-1051.086 -153.825)" fill="#66d1ee"/><path id="Trazado_6672" data-name="Trazado 6672" d="M1089.793,154.637a7.3,7.3,0,0,0-1.818-2.115l-.01-.01c-.1-.078-.2-.156-.311-.233l-.009-.01a7.25,7.25,0,0,0-1.789-.919h0c-.126-.044-.253-.083-.379-.122l-.024-.01c-.121-.034-.247-.068-.369-.1h-.025a3.619,3.619,0,0,0-.4-.083h0l-1.21,7.214,6.353-3.621Z" transform="translate(-1060.881 -151.04)" fill="#ccf0f9"/></g></g><g id="Grupo_4731" data-name="Grupo 4731" transform="translate(146.521 0.194)"><g id="Grupo_4729" data-name="Grupo 4729" transform="translate(0 0)"><path id="Trazado_6673" data-name="Trazado 6673" d="M905.845,123.8H864.59v65.394h48.736V131.281Z" transform="translate(-864.59 -123.8)" fill="#fff" stroke="#00b2e3" stroke-width="2"/><path id="Trazado_6674" data-name="Trazado 6674" d="M949.46,123.8v7.729h7.481" transform="translate(-908.206 -123.8)" fill="none" stroke="#00b2e3" stroke-width="2"/></g><g id="Grupo_4730" data-name="Grupo 4730" transform="translate(9.809 16.814)"><rect id="Rectángulo_3162" data-name="Rectángulo 3162" width="16.08" height="3.364" fill="#99e0f4"/><rect id="Rectángulo_3163" data-name="Rectángulo 3163" width="29.117" height="3.364" transform="translate(0 7.612)" fill="#99e0f4"/><rect id="Rectángulo_3164" data-name="Rectángulo 3164" width="29.117" height="3.364" transform="translate(0 15.22)" fill="#99e0f4"/><rect id="Rectángulo_3165" data-name="Rectángulo 3165" width="29.117" height="3.364" transform="translate(0 22.827)" fill="#99e0f4"/><rect id="Rectángulo_3166" data-name="Rectángulo 3166" width="29.117" height="3.364" transform="translate(0 30.434)" fill="#99e0f4"/></g></g><g id="Grupo_4732" data-name="Grupo 4732" transform="translate(37.198 107.962)"><path id="Trazado_6675" data-name="Trazado 6675" d="M729.13,388.78H661.272l-6.922,56.9H724.6l6.66-54.71a1.992,1.992,0,0,0-2.124-2.192Z" transform="translate(-647.224 -380.093)" fill="#66d1ee"/><path id="Trazado_6676" data-name="Trazado 6676" d="M665.341,374.653h0a3.745,3.745,0,0,0-3.743-3.743H643.433a3.744,3.744,0,0,0-3.743,3.743V436.5h77.376V380.612a2.911,2.911,0,0,0-2.912-2.912H668.394a3.052,3.052,0,0,1-3.053-3.053Z" transform="translate(-639.69 -370.91)" fill="#33c1e9"/></g><g id="Grupo_4733" data-name="Grupo 4733" transform="translate(37.198 0)"><path id="Trazado_6677" data-name="Trazado 6677" d="M729.13,141.27H661.272l-6.922,56.9H724.6l6.66-54.71a1.992,1.992,0,0,0-2.124-2.192Z" transform="translate(-647.224 -132.584)" fill="#66d1ee"/><path id="Trazado_6678" data-name="Trazado 6678" d="M665.341,127.143h0A3.745,3.745,0,0,0,661.6,123.4H643.433a3.744,3.744,0,0,0-3.743,3.743v61.845h77.376V133.1a2.911,2.911,0,0,0-2.912-2.912H668.394a3.052,3.052,0,0,1-3.053-3.053Z" transform="translate(-639.69 -123.4)" fill="#33c1e9"/></g><g id="Grupo_4740" data-name="Grupo 4740" transform="translate(242.179 201.936)"><path id="Trazado_6679" data-name="Trazado 6679" d="M1083.166,670c-.712-3.645,2.43-10.949.726-14.285-2.408-3.307-8.483,3.566-9,6.377-3.472,11.661-3.178,24.048-4.263,36.075-.259,15.306-3.975,17.75-17.858,22.646-3.444,1.7-7.556,2.581-10.475,5.133-4.493,6.384,4.263,11.905,10.021,8.735,6.161-3.738,13.106-6.456,18.714-11.021C1084.554,709.944,1084.914,688.074,1083.166,670Z" transform="translate(-1016.414 -556.929)" fill="#64d8cc"/><path id="Trazado_6680" data-name="Trazado 6680" d="M1070.683,836.722c-.086-.906-.5-1.711-.561-2.631-.072-1-.144-1.984-.187-2.983q-.129-2.718-.259-5.435a97.116,97.116,0,0,1,.051-11.2,126.032,126.032,0,0,1,3.688-21.136c1.711-6.959,3.767-13.789,5.83-20.626a8.039,8.039,0,0,1,2.466-4.349,8.176,8.176,0,0,1,4.385-1.46,78.194,78.194,0,0,1,10.46.014q6.309.237,12.624,1.014c2.149.258,4.284.554,6.434.9a9.284,9.284,0,0,1,3.07.711,3.247,3.247,0,0,1,1.438,1.646,1.138,1.138,0,0,1,.3.712,49.3,49.3,0,0,1-.072,5.658c-.2,1.92-.395,3.832-.6,5.744-.41,3.7-.914,7.376-1.323,11.072q-1.251,11.183-1.984,22.452c-.92,14.148-1.107,28.922,4.119,42.855a51.174,51.174,0,0,0,11.611,18.462c.8.791,1.115,2.257.251,3.034-2.581,2.294-6.556,2.193-9.647.166a12.529,12.529,0,0,1-1.69-1.373,2.442,2.442,0,0,1-2.322-1.028c-3.9-5.14-5.55-11.589-7.462-17.505a139.461,139.461,0,0,1-5.183-19.936,91.727,91.727,0,0,1-.632-19.936q.539-10.191,1.409-20.324.852-9.781,2.049-19.49a78.859,78.859,0,0,1-22.2-.589,73.226,73.226,0,0,0-4.112,16.93,112.256,112.256,0,0,0-1.308,19.986c.266,6.887,1,13.8,1.567,20.7.554,6.815,1,13.667,2.538,20.432a87.513,87.513,0,0,0,7.606,20.841A2.137,2.137,0,0,1,1092.5,883c-2.553,1.876-6.4.964-8.836-1.186-2.667-2.344-3.746-5.9-4.788-9.073a223.154,223.154,0,0,1-6.125-22.121c-.927-4.242-1.7-8.512-2.221-12.79a1.849,1.849,0,0,1,.172-1.006c0-.036-.014-.065-.014-.108Z" transform="translate(-1024.42 -588.379)" fill="#fff"/><path id="Trazado_6681" data-name="Trazado 6681" d="M1122.291,780.089a121.589,121.589,0,0,0-2.912,18.426c-.388,3.652-.92,7.276-1.244,10.935s-.431,6.973-.582,10.453c-.187,4.242-.381,8.491-.4,12.739-.021,4.989,1.172,9.914,2.408,14.716,1.416,5.507,3.113,10.942,5,16.312s3.53,10.554,7.124,14.716a14.886,14.886,0,0,0,1.373,1.4,5.107,5.107,0,0,0,1.546,1.15,6.921,6.921,0,0,0,2.243-.043c.762-.058,1.524-.122,2.279-.194a25.824,25.824,0,0,0,8.576-2.329,1.107,1.107,0,0,0,.223-1.733,38.634,38.634,0,0,1-7.074-7.649,56.717,56.717,0,0,1-5.219-8.922,55.959,55.959,0,0,1-3.494-10.518,88.77,88.77,0,0,1-2.344-11.927c-.4-4.019.108-8.073.352-12.085s.547-8.275.877-12.409q.992-12.379,2.452-24.709.809-6.837,1.761-13.659c.316-2.272.712-4.543.956-6.83a11.351,11.351,0,0,0-.87-6.341c-.626-1.323-2.848-.388-2.373,1a12.646,12.646,0,0,1,.353,5.658c-.23,1.891-.568,3.954-.841,5.924q-.874,6.233-1.625,12.488-1.478,12.326-2.495,24.695-.518,6.287-.914,12.581a94.365,94.365,0,0,0-.323,12.3,75.383,75.383,0,0,0,2.171,11.977,66.9,66.9,0,0,0,3.358,11.05c3.077,7.333,7.973,13.508,13.724,18.929l.223-1.733a25.353,25.353,0,0,1-11.711,2.509l.7.295c-3.321-2.768-5.133-6.686-6.6-10.661-1.733-4.688-3.235-9.476-4.6-14.278-2.107-7.4-4.522-15.04-4.378-22.8.078-4.4.251-8.8.453-13.192.143-3.113.338-6.219.453-9.331.115-3.279.086-6.557.309-9.828.424-6.255.856-12.639,2.315-18.749a.634.634,0,0,0-1.222-.338h0Z" transform="translate(-1037.801 -586.757)" fill="#010d3d"/><path id="Trazado_6682" data-name="Trazado 6682" d="M1130.854,682.436c-2.8-12.919-7.836-32.373-23.976-32.646-6.463,0-14.774,1.733-18.116,7.93-3.422,7.117-1.036,15.327-.719,22.869a107.221,107.221,0,0,1-5.608,49.339c-.281,2.416-2.926,7.067.719,7.707q19.486.529,38.958,1.071c1.847-.094,4.385.748,5.586-1.114,4.327-17.915,6.413-36.859,3.156-55.155Z" transform="translate(-1027.709 -555.511)" fill="#64d8cc"/><path id="Trazado_6683" data-name="Trazado 6683" d="M1079.026,770.045q-1.035,2.621-1.977,5.263c-.626,1.761-1.388,3.5-2.013,5.277a95.7,95.7,0,0,0-3.35,10.791,166.491,166.491,0,0,0-3.415,22.351c-1.287,15.22-.841,30.834,3.422,45.579,1.172,4.04,2.567,8.009,4.105,11.912a94.5,94.5,0,0,0,5.313,11.905,1.278,1.278,0,0,0,1.086.626c1.869-.05,3.688.1,5.55.165a48.422,48.422,0,0,0,5.514-.2c.906-.072,1.776-1.107,1.143-1.992a33.67,33.67,0,0,1-4.536-8.382c-1.078-3.063-1.906-6.053-2.682-9.123a194.08,194.08,0,0,1-3.847-20.367c-.963-6.83-1.653-14.163-2.005-21.28a164.405,164.405,0,0,1,0-20.187c.518-7.074,1.855-14.062,5.011-20.468a1.078,1.078,0,0,0-1.862-1.086c-3.336,5.55-4.96,12.028-5.679,18.426a140.143,140.143,0,0,0-.424,20.18,230.146,230.146,0,0,0,5.521,43.272,61.821,61.821,0,0,0,3.228,10.439,66.514,66.514,0,0,0,4.99,9.928l1.143-1.992c-1.783.144-3.559.194-5.342.288a27.609,27.609,0,0,1-5.392-.072l.877.877c-1.315-3.53-2.991-6.937-4.407-10.431s-2.7-7.017-3.831-10.6a96.893,96.893,0,0,1-4.285-21.963,161.314,161.314,0,0,1,3.012-44.76c.841-4.019,1.74-8.023,2.574-12.042a88.606,88.606,0,0,1,3.516-12.049c.223-.611-.727-.848-.964-.266h0Z" transform="translate(-1023.884 -589.223)" fill="#010d3d"/><path id="Trazado_6684" data-name="Trazado 6684" d="M1135.364,584.346a20.366,20.366,0,0,1-.7-5.672,44.008,44.008,0,0,0-.223-6.456,16.67,16.67,0,0,0-1.855-5.5,33.938,33.938,0,0,0-6.887-8.526,26.981,26.981,0,0,0-9.1-5.8c-7.879-2.847-15.859.64-21.977,5.651a86.774,86.774,0,0,0-8.613,8.282,55.352,55.352,0,0,0-7.081,9.727c-3.846,6.6-8.354,14.716-6.363,22.61.949,3.8,3.494,6.873,6.119,9.662a28.148,28.148,0,0,0,4.349,3.925,21.565,21.565,0,0,0,4.832,2.243,10.887,10.887,0,0,1,2.114,1.007,3.011,3.011,0,0,1,.59.453c.022.021.359.46.359.324,0,.021,3.372.755,3.372.776.453.158.747,12.329,1.229,12.452,1.351.345,4.212,3.321,5.349,2.861.568-.23,4.335-5.176,4.335-5.176s-3.609-9.584-2.639-9.914a51.082,51.082,0,0,0,7.462-2.947,32.9,32.9,0,0,0,8.418-7.412,46.1,46.1,0,0,0,3.523-4.9c.963-1.546,1.74-3.213,2.71-4.752a3.593,3.593,0,0,1,.467-.6c.029.036.05.065.079.1.2.295.367.618.582.913,1.151,1.618,3.005,3.084,5.119,2.6,2.006-.46,2.984-2.473,3.868-4.134a11.535,11.535,0,0,0,1.632-5.716,24.675,24.675,0,0,0-1.064-6.089Z" transform="translate(-1025.131 -527.846)" fill="#fff"/><path id="Trazado_6685" data-name="Trazado 6685" d="M1090.242,539.461a23.423,23.423,0,0,1-4.45-6.786,1.716,1.716,0,0,1,1.46-2.538,29.052,29.052,0,0,1,9.389,1c.855.259,1.718.575,2.567.92a21.606,21.606,0,0,1-1.884-3.213,19.913,19.913,0,0,1-1.761-5.011,1.913,1.913,0,0,1,1.438-2.207,4.029,4.029,0,0,1,2.387.46,57.739,57.739,0,0,1,9.871,4.041,67.478,67.478,0,0,1,8.785,6.139,43.025,43.025,0,0,1,4.076,3.688c.166.172.324.352.49.539-.087-.575-.173-1.143-.266-1.718-.094-.539-.2-1.064-.324-1.589a1.04,1.04,0,0,1,.992-1.3c1.876-.115,3.674,1.057,5.169,2.07a46.6,46.6,0,0,1,4.471,3.48,41.079,41.079,0,0,1,7.319,8.641c1.05,1.646,1.841,3.415,2.775,5.119a39.337,39.337,0,0,0,3.652,4.853,19.887,19.887,0,0,1,2.7,4.982c.345.913.662,1.848.928,2.789a7.639,7.639,0,0,1,.583,2.832c-.13,1.194-1.158,1.783-2.006,2.495q-1.219,1.014-2.372,2.128a45.864,45.864,0,0,0-4.81,5.154,1.1,1.1,0,0,1-1.546.2.875.875,0,0,1-1.308.309,4.005,4.005,0,0,0-5.414.978c-.518.769-1.948.784-2.157-.28-.295-1.531-.28-3.084-.6-4.615-.324-1.56-.6-3.127-.827-4.7-.23-1.553-.467-3.091-.561-4.659-.014-.23-.021-.467-.028-.7-.144.2-.287.4-.439.575-1.027,1.258-1.955,2.567-2.948,3.854a1.56,1.56,0,0,1-2.659,0,39.61,39.61,0,0,1-3.681-10.317c-.216-1.042-.4-2.056-.539-3.091-.187.863-.367,1.732-.547,2.609a15.731,15.731,0,0,1-1.445,4.8,3.136,3.136,0,0,1-4.687.87c-2.6-1.883-3.085-5.19-3.674-8.131-.345-1.733-.7-3.472-1.05-5.205-.079-.367-.143-.74-.223-1.107-.115.46-.223.92-.33,1.395a47.582,47.582,0,0,0-.8,5.8c-.144,1.438-1.783,2.926-3.242,1.855-2.02-1.488-2.265-3.6-2.516-5.946-.094-.913-.187-1.826-.288-2.746-.733.64-1.474,1.28-2.2,1.934a1.308,1.308,0,0,1-.086.618c-.036.086-.072.173-.108.252a2.691,2.691,0,0,1-.144.288,2.168,2.168,0,0,1-.158.223c-.165.223-.337.453-.524.676a2.111,2.111,0,0,1-.6.554,1.072,1.072,0,0,1-1.165-.079,1.191,1.191,0,0,1-.165-.165.9.9,0,0,1-.381-.187c-2.107-.633-4.774-2.114-5.421-4.349a3.2,3.2,0,0,1,1.071-3.487,4.173,4.173,0,0,1,3.681-.36,5.6,5.6,0,0,1,1.9.913.538.538,0,0,1,.029-.079c-.784-.863-1.567-1.726-2.415-2.531-1.014-.963-2.035-1.919-2.991-2.955Z" transform="translate(-1028.938 -519.468)" fill="#010d3d"/><path id="Trazado_6686" data-name="Trazado 6686" d="M1152.58,598.868c1.107-.575,2,.424,2.437,1.359a7.1,7.1,0,0,1,.683,3.314,11.535,11.535,0,0,1-2,6.147,4,4,0,0,1-4.616,1.747,3.458,3.458,0,0,1-2-1.8c-.194-.409-.273-.855-.431-1.272-.194-.517-.467-.992-.64-1.517a.629.629,0,0,0-1.042-.273,3.434,3.434,0,0,0-.834,3.264,6.448,6.448,0,0,0,1.891,3.048,6.571,6.571,0,0,0,7.06.992,9.305,9.305,0,0,0,4.356-5.262,11.933,11.933,0,0,0,.719-7.808,5.106,5.106,0,0,0-2.566-3.336,4.165,4.165,0,0,0-3.745.159.725.725,0,0,0,.733,1.251h0Z" transform="translate(-1045.352 -540.7)" fill="#010d3d"/><path id="Trazado_6687" data-name="Trazado 6687" d="M1123.777,596.6a7.86,7.86,0,0,1-.82,2.674c-.5.87-.992,1.733-1.516,2.588a37.274,37.274,0,0,1-3.35,4.515,43.828,43.828,0,0,1-8.1,8.059,20.529,20.529,0,0,1-10.374,4.011,23.055,23.055,0,0,1-11.187-2.408c-5.924-2.811-12.143-7.383-14.486-13.767-2.761-7.513,1.157-15.112,5-21.445,1.114-1.826,2.02-3.76,3.17-5.572a43.085,43.085,0,0,1,3.911-5.22,74.674,74.674,0,0,1,9.245-8.907c.7-.568-.295-1.553-.985-.985a84.572,84.572,0,0,0-8.821,8.469c-2.739,3.034-5.378,6.082-7.88,9.26a35.812,35.812,0,0,0-3.264,5.277,44.443,44.443,0,0,0-2.7,5.96,21.161,21.161,0,0,0-.913,12.387c1.891,7.283,8.181,12.7,14.558,16.14a28.642,28.642,0,0,0,12.136,3.681,21.627,21.627,0,0,0,11.826-3.041,34.663,34.663,0,0,0,10.359-9.36,41.953,41.953,0,0,0,3.573-5.687,18.926,18.926,0,0,0,1.776-6.47c.086-.669-1.064-.827-1.179-.158h0Z" transform="translate(-1024.594 -530.265)" fill="#010d3d"/><path id="Trazado_6688" data-name="Trazado 6688" d="M1140.563,576.8c1.05-.855,2.085-1.74,3.192-2.516s2.351-1.574,3.444-2.458c1.014-.82,1.977-1.74,2.94-2.61a3.448,3.448,0,0,0,1.38-2.653,9.893,9.893,0,0,0-1.107-3.3c-.5-1.179-1.021-2.344-1.567-3.5-1.006-2.128-1.992-4.256-3.106-6.333a85.466,85.466,0,0,0-7.908-12.027,44.1,44.1,0,0,0-9.325-9.4,23.2,23.2,0,0,0-3.242-1.912,6.778,6.778,0,0,0-3.12-.992c-3.077.166-1.51,4.594-.884,6.211l1.021-.6a75,75,0,0,0-16.557-12.387c-1.516-.834-3.07-1.61-4.644-2.329a10.112,10.112,0,0,0-4.63-1.337,3.548,3.548,0,0,0-3.35,2.567,6.615,6.615,0,0,0,.532,4.349,22.038,22.038,0,0,0,3.048,4.687,22.78,22.78,0,0,0,3.933,4.055l.934-1.215a97.431,97.431,0,0,0-9.144-4.019,20.882,20.882,0,0,0-5-1.05c-1.509-.115-3.422-.216-4.156,1.409-.625,1.38-.058,3.092.532,4.386a15.783,15.783,0,0,0,2.6,3.774c2.337,2.667,4.846,5.169,7.362,7.663l1.143-1.963c-1.618-.474-3.444-.92-5.076-.259a3.665,3.665,0,0,0-2.567,2.768c-.187,1.567,1.165,2.833,2.193,3.81a13.49,13.49,0,0,0,4.162,2.8c.583.244.813-.625.4-.942-.92-.7-1.869-1.416-2.753-2.164a8.769,8.769,0,0,1-2.473-2.66,1.831,1.831,0,0,1,1.524-2.444c1.3-.173,2.588.626,3.681,1.222a1.179,1.179,0,0,0,1.423-1.84c-1.948-2.3-3.932-4.551-5.966-6.772a22.512,22.512,0,0,1-2.388-2.912,8.875,8.875,0,0,1-.8-1.445,8.447,8.447,0,0,1-.273-.812,6.242,6.242,0,0,0-.151-.841.817.817,0,0,1,.014-.23c-.23.158-.245.2-.058.137a3.654,3.654,0,0,0,.985-.108,18.964,18.964,0,0,1,1.92-.029,19.284,19.284,0,0,1,4.155.583,30.255,30.255,0,0,1,7.937,3.271.776.776,0,0,0,.935-1.215,19.658,19.658,0,0,1-4.9-6.9,11.3,11.3,0,0,1-1.108-3.7c-.014-1.222.791-1.316,1.8-1.064a44.967,44.967,0,0,1,8.088,3.141,56.452,56.452,0,0,1,7.879,4.428,66.5,66.5,0,0,1,7.959,6.449c.4.381,1.265,0,1.021-.6a8.815,8.815,0,0,1-.46-2.962c-.022-.331-.165-.331.165-.4a.691.691,0,0,1,.366.036,6.617,6.617,0,0,1,1.482.6,23.446,23.446,0,0,1,4.615,2.933,48.256,48.256,0,0,1,7.858,8.469,88.3,88.3,0,0,1,12.214,21.373c.18.468.475.971.245,1.453-.179.388-.7.726-1.021,1.006-.978.863-2.013,1.7-2.919,2.631-1.826,1.891-3.551,3.832-5.449,5.658-.691.661.316,1.6,1.027,1.028h0Z" transform="translate(-1028.194 -518.649)" fill="#010d3d"/><path id="Trazado_6689" data-name="Trazado 6689" d="M1104.617,559.893a6.094,6.094,0,0,0,2.114-1.992l-1.445-.388a20.55,20.55,0,0,0,.158,6.636c.367,1.538,1.359,3.975,3.336,3.781s2.638-2.969,3.07-4.486a40.78,40.78,0,0,0,1.115-6.78h-1.3a39.329,39.329,0,0,0,1.632,9.921c.8,2.718,1.546,6.427,4.623,7.455s5.183-2,5.844-4.579a50.464,50.464,0,0,0,1.452-10.216h-2.063c.151,1.524.74,2.962.877,4.493s.23,2.912.353,4.364a20.5,20.5,0,0,0,1.452,6.794,7.412,7.412,0,0,0,1.941,2.725,2.324,2.324,0,0,0,2.875-.079,13.985,13.985,0,0,0,4.666-5.665l-1.165-.316a98.78,98.78,0,0,0,.691,17.369c.072.654.776,1.28,1.445.827.805-.546,1.5-1.236,2.308-1.783s1.625-1.05,2.459-1.539a.72.72,0,0,0-.726-1.244,33.37,33.37,0,0,0-5.2,3.063l1.6.424a56.3,56.3,0,0,1-1.323-17.11.629.629,0,0,0-1.165-.316,13.493,13.493,0,0,1-3.853,4.982c-.6.474-1.272.934-1.97.352a5.232,5.232,0,0,1-.956-1.186,10.076,10.076,0,0,1-1.208-2.782,32.868,32.868,0,0,1-.885-6.1c-.1-1.143-.273-2.308-.309-3.458-.036-1.265.258-2.538.172-3.8a1.033,1.033,0,0,0-2.063,0,47.479,47.479,0,0,1-1.222,8.354c-.417,1.733-1.373,5.37-3.918,4.033a5.411,5.411,0,0,1-2.063-2.984c-.5-1.258-.942-2.552-1.345-3.846a31.565,31.565,0,0,1-1.639-8.145.651.651,0,0,0-1.3,0,40.819,40.819,0,0,1-.777,5.2,19.165,19.165,0,0,1-.733,2.43c-.237.611-.6,1.8-1.237,2.128-1.553.776-2.193-3.063-2.272-3.969a25.852,25.852,0,0,1,.187-4.946c.086-.827-1.057-.964-1.445-.388a4.663,4.663,0,0,1-1.546,1.452.766.766,0,0,0,.769,1.323h0Z" transform="translate(-1033.96 -529.159)" fill="#010d3d"/><path id="Trazado_6690" data-name="Trazado 6690" d="M1126.427,592.114c.015.086.036.172.043.251l-.036-.245a1.41,1.41,0,0,1,.007.345l.036-.244a.567.567,0,0,1-.051.187l.094-.223a.674.674,0,0,1-.072.122l.144-.187a.861.861,0,0,1-.115.115l.186-.144-.108.065.223-.094a.52.52,0,0,1-.115.036l.252-.036h-.1l.252.036a.091.091,0,0,1-.051-.014l.417.244-.021-.022.151.194a1.077,1.077,0,0,0-.374-.367l.194.151-.071-.072.158.2a1.1,1.1,0,0,1-.094-.158l.1.245a1.165,1.165,0,0,1-.072-.273l.036.28v-.172l-.036.288a.17.17,0,0,1,.015-.072l-.115.266a.413.413,0,0,0,.029-.043l-.18.23c.094-.122.187-.237.273-.359l-.194.252a.57.57,0,0,1,.115-.115l-.266.208c.13-.1.259-.194.389-.295l-.281.216a1.357,1.357,0,0,1,.172-.1l-.331.144a.484.484,0,0,1,.137-.036l-.373.05h.143l-.374-.05a.383.383,0,0,1,.122.029l-.338-.144a.4.4,0,0,1,.094.058l-.288-.223.058.057-.223-.288a.771.771,0,0,1,.058.1l-.144-.331s.022.072.029.108l-.05-.367v.179l.05-.366a1.76,1.76,0,0,1-.115.467l.137-.323a.953.953,0,0,1-.079.143l.209-.273a1.025,1.025,0,0,1-.094.093l.266-.208a1.573,1.573,0,0,0-.532.51.152.152,0,0,1-.035.057l.194-.251a1.311,1.311,0,0,0-.331.561c0,.021-.043.3-.043.324a.807.807,0,0,0,.108.467.965.965,0,0,0,.259.4l.015.014a.915.915,0,0,0,.143.108c.043.036.1.079.151.115a.107.107,0,0,1,.022.014l.158.064a.967.967,0,0,0,.511.115,1.472,1.472,0,0,0,.712-.194,1.608,1.608,0,0,0,.4-.3,1.3,1.3,0,0,0,.15-.194,1.268,1.268,0,0,0,.144-.2,3.153,3.153,0,0,0,.216-.475,2.55,2.55,0,0,0,.122-.374,3.193,3.193,0,0,0,.057-.46,1.644,1.644,0,0,0-.029-.273,1.715,1.715,0,0,0-.043-.266,2.33,2.33,0,0,0-.165-.388,1.76,1.76,0,0,0-.575-.575.179.179,0,0,0-.051-.029.057.057,0,0,1-.029-.014c-.115-.051-.237-.108-.359-.151-.022,0-.044-.015-.058-.015a4.022,4.022,0,0,0-.424-.057,2.192,2.192,0,0,0-.5.05.337.337,0,0,0-.123.036,1.774,1.774,0,0,0-.446.2,1.612,1.612,0,0,0-.575.611l-.087.194a1.027,1.027,0,0,0-.115.525v.115a2.393,2.393,0,0,0,.08.5,1.706,1.706,0,0,0,.38.64l-.172-.223v.014l-.1-.266c.043.122.094.23.144.352l-.108-.259c.058.151.122.3.194.446a2.123,2.123,0,0,0,.266.381,1.233,1.233,0,0,0,.353.288,1.945,1.945,0,0,0,.309.13,1.068,1.068,0,0,0,.582,0h-.5a1.315,1.315,0,0,0,.647,0,1.2,1.2,0,0,0,.374-.151,1.462,1.462,0,0,0,.553-.575,1.577,1.577,0,0,0,.144-.388,1.985,1.985,0,0,0,.043-.46,3.848,3.848,0,0,0-.115-.7.943.943,0,0,0-.417-.539.694.694,0,0,0-.338-.108.677.677,0,0,0-.359.014.921.921,0,0,0-.539.417l-.094.216a.913.913,0,0,0,0,.482h0Z" transform="translate(-1040.032 -538.749)" fill="#010d3d"/><path id="Trazado_6691" data-name="Trazado 6691" d="M1099.546,576.994a1.167,1.167,0,0,1,.18.194l-.144-.18a1.048,1.048,0,0,1,.158.273l-.094-.216a.935.935,0,0,1,.058.2l-.036-.244a.76.76,0,0,1,0,.129l.036-.251a.3.3,0,0,1-.036.136l.094-.23a.823.823,0,0,1-.079.137l.151-.2s-.058.065-.094.1l.2-.158s-.065.036-.1.05l.245-.1a.794.794,0,0,1-.122.036l.281-.036h-.122l.288.036a.885.885,0,0,1-.1-.029l.266.115s-.022-.014-.036-.022l.23.18a.621.621,0,0,1-.115-.122l.187.237a1.6,1.6,0,0,1-.122-.208c-.043-.079-.086-.158-.122-.237l.13.3a1.221,1.221,0,0,1-.086-.316l.051.352v-.273l-.051.359a.635.635,0,0,1,.051-.194l-.137.331a.749.749,0,0,1,.086-.144l-.216.28a1.227,1.227,0,0,1,.159-.172l-.281.216a.526.526,0,0,1,.137-.079l-.331.137a.866.866,0,0,1,.129-.036l-.366.05h.136l-.366-.05a.576.576,0,0,1,.158.05l-.331-.137a.754.754,0,0,1,.087.05l-.273-.215.087.086-.209-.273a.606.606,0,0,1,.093.165l-.136-.316a.816.816,0,0,1,.05.187l-.05-.352a.891.891,0,0,1,0,.194l.043-.345a1.35,1.35,0,0,1-.087.338l.123-.295a.689.689,0,0,1-.036.072l-.123.295c-.014.115-.036.23-.043.352l.043-.323a.563.563,0,0,1-.014.072,1.161,1.161,0,0,0,0,.626,1.181,1.181,0,0,0,.3.518,1.214,1.214,0,0,0,.518.3,1.154,1.154,0,0,0,.625,0,1.689,1.689,0,0,0,.683-.4,2.656,2.656,0,0,0,.324-.424,1.808,1.808,0,0,0,.165-.381.358.358,0,0,0,.029-.094,2.2,2.2,0,0,0,.072-.532v-.086a4.239,4.239,0,0,0-.057-.424.249.249,0,0,0-.022-.079,2.392,2.392,0,0,0-.165-.4,2.006,2.006,0,0,0-.7-.726,1.683,1.683,0,0,0-.4-.165,2.214,2.214,0,0,0-.438-.058,1.568,1.568,0,0,0-.546.072,2.827,2.827,0,0,0-.4.173c-.029.014-.057.036-.086.05a1.894,1.894,0,0,0-.417.345,1.931,1.931,0,0,0-.424.748,2.088,2.088,0,0,0-.094.554,2.13,2.13,0,0,0,.065.561,2.039,2.039,0,0,0,.216.518,1.623,1.623,0,0,0,.151.237,4.249,4.249,0,0,0,.366.446,1.922,1.922,0,0,0,.439.324,1.575,1.575,0,0,0,.374.151,1.37,1.37,0,0,0,.682,0l-.3.043a1.831,1.831,0,0,0,.734-.194,1.184,1.184,0,0,0,.374-.3,1.678,1.678,0,0,0,.273-.4,1.736,1.736,0,0,0,.187-.683,1.464,1.464,0,0,0-.065-.5,1.834,1.834,0,0,0-.195-.46,2.389,2.389,0,0,0-.683-.712.69.69,0,0,0-.331-.108.648.648,0,0,0-.352.015.933.933,0,0,0-.46.316.828.828,0,0,0-.194.539.879.879,0,0,0,.259.625h0Z" transform="translate(-1032.412 -534.384)" fill="#010d3d"/><path id="Trazado_6692" data-name="Trazado 6692" d="M1112.559,666.711l2.645,3.207.661.8a2.622,2.622,0,0,0,.625.662c.647.359,1.086-.216,1.359-.719.654-1.215,1.315-2.43,1.969-3.645l.985-1.826c.288-.532.834-1.193.712-1.812a.466.466,0,0,0-.569-.323c-.625.252-.9,1.129-1.208,1.7l-1.035,1.891c-.345.633-.69,1.258-1.028,1.891l-.532.978-.23.417-.151.281c-.108.122-.122.165-.029.129h.309c.151.043.05.022-.036-.079s-.172-.209-.251-.309l-.453-.554-.964-1.172-1.926-2.344c-.489-.59-1.323.251-.841.841h0Z" transform="translate(-1036.475 -559.232)" fill="#010d3d"/><path id="Trazado_6693" data-name="Trazado 6693" d="M1106.392,665.081a9.556,9.556,0,0,1-3.2,3.71l.338-.094-.1.015.633.359c-.316-.618-.7-1.193-1.042-1.8s-.7-1.251-1.021-1.891-.618-1.244-.906-1.869-.475-1.546-1.086-1.934l.331.431-.05-.129a.748.748,0,0,0-.892-.5.727.727,0,0,0-.5.892l.051.129v-.388c-.158.762.424,1.574.74,2.243q.443.938.928,1.855a24.137,24.137,0,0,0,2.193,3.7c.295.381,1.007.561,1.266,0,.064-.151.323-.295.446-.41.165-.151.323-.309.481-.474.309-.323.611-.661.892-1.014a11.819,11.819,0,0,0,1.452-2.286c.3-.625-.618-1.179-.942-.546h0Z" transform="translate(-1032.658 -558.76)" fill="#010d3d"/><path id="Trazado_6694" data-name="Trazado 6694" d="M1091.979,786.554c2.832-.144,5.7.122,8.526.252,3.7.173,7.391.366,11.079.654q1.11.086,2.221.194a9.618,9.618,0,0,0,1.51.086.953.953,0,0,0,.252-1.862,4.888,4.888,0,0,0-1.41-.288c-.633-.072-1.244-.13-1.862-.194-1.682-.158-3.364-.287-5.046-.409-3.724-.273-7.456-.525-11.194-.59-1.352-.022-2.718-.072-4.076.022s-1.381,2.2,0,2.128h0Z" transform="translate(-1030.437 -593.337)" fill="#010d3d"/><g id="Grupo_4734" data-name="Grupo 4734" transform="translate(41.842 293.547)"><path id="Trazado_6695" data-name="Trazado 6695" d="M1091.937,928.81a3.909,3.909,0,0,1,2.617,4.155,3.28,3.28,0,0,1-3.832,2.5c-.819-.158-1.582-.6-2.408-.748a6.614,6.614,0,0,0-2.437.18l-6.485,1.33a16.075,16.075,0,0,1-5.946.453,13.413,13.413,0,0,1-4.508-1.833,5.082,5.082,0,0,1-1.689-1.4,1.759,1.759,0,0,1-.136-1.984,2.189,2.189,0,0,1,1.265-.662c4.695-1.143,10.23.424,14.357-1.919a4.148,4.148,0,0,1,1.035-.5,3.751,3.751,0,0,1,1.028-.05l6.262.295" transform="translate(-1065.508 -927.349)" fill="#010d3d"/><path id="Trazado_6696" data-name="Trazado 6696" d="M1091.1,929.565a2.6,2.6,0,0,1,1.539,3.214c-.783,1.61-2.473.949-3.738.517-1.92-.654-3.976.216-5.874.626-2.013.438-4.033.877-6.067,1.229a9.839,9.839,0,0,1-5.938-.568,13.642,13.642,0,0,1-2.458-1.452,2.555,2.555,0,0,1-.719-.7,1.037,1.037,0,0,1-.13-.482c-.021.079-.043.007.158-.05,3.35-.956,6.959-.295,10.388-.726a14.45,14.45,0,0,0,2.818-.6,6.591,6.591,0,0,0,1.345-.59c.388-.244.726-.719,1.122-.906a3.486,3.486,0,0,1,1.423-.065c.583.007,1.158.022,1.74.05,1.273.058,2.552.129,3.825.123a.9.9,0,0,0,0-1.8c-1.272-.129-2.552-.179-3.825-.237a10.363,10.363,0,0,0-6.643.776,13.6,13.6,0,0,1-3.22.539c-2.143.129-4.292,0-6.435.18-1.955.165-5.176.388-5.413,2.919s2.358,3.817,4.292,4.694a12.654,12.654,0,0,0,6.967,1.143c2.588-.316,5.119-1.006,7.678-1.481a9.242,9.242,0,0,1,3.515-.3c1.165.237,2.25.884,3.5.834a4.591,4.591,0,0,0,4.407-4.084,5.2,5.2,0,0,0-3.623-5.061c-1.445-.5-2.035,1.754-.625,2.272h0Z" transform="translate(-1064.979 -926.968)" fill="#010d3d"/></g><g id="Grupo_4735" data-name="Grupo 4735" transform="translate(84.78 290.705)"><path id="Trazado_6697" data-name="Trazado 6697" d="M1148.965,924.43a6.463,6.463,0,0,1,4.134,3.214,4.149,4.149,0,0,1-.6,4.774,3.527,3.527,0,0,1-4.723-.137c-4.637,4.579-12.286,5.91-18.764,3.271-1.3-.532-2.753-1.5-2.774-2.854-.022-1.689,2.07-2.3,3.745-2.48l6.743-.712a4.05,4.05,0,0,0,1.935-.532,8,8,0,0,0,1.135-1.222c2.121-2.229,6.161-1.1,8.943-2.488" transform="translate(-1125.136 -923.412)" fill="#010d3d"/><path id="Trazado_6698" data-name="Trazado 6698" d="M1148.26,925.017c1.862.553,3.688,2.466,3.566,4.529s-2.15,2.581-3.595,1.452a1.281,1.281,0,0,0-1.962.251c-1.711,2.25-4.939,3.422-7.621,3.933a17.208,17.208,0,0,1-9-.748c-.791-.281-3.106-1.121-2.688-2.351.33-.978,2.321-1.057,3.134-1.136,1.948-.2,3.9-.4,5.852-.6a7.831,7.831,0,0,0,2.4-.474,5.588,5.588,0,0,0,1.876-1.675,5.431,5.431,0,0,1,.74-.827,2.856,2.856,0,0,1,.956-.359,15.538,15.538,0,0,1,2.308-.374,13.506,13.506,0,0,0,4.557-.978c1.071-.51.137-2.07-.927-1.582a14.993,14.993,0,0,1-4.752.855,10.854,10.854,0,0,0-2.243.432,6.6,6.6,0,0,0-2.164.978c-.661.575-.92,1.287-1.84,1.474-1.107.223-2.272.266-3.394.388a30.654,30.654,0,0,0-5.787.783c-1.416.446-2.782,1.352-2.955,2.941-.194,1.74,1.214,3.077,2.638,3.817a18.327,18.327,0,0,0,10.108,1.668,19.075,19.075,0,0,0,5.658-1.481,27.333,27.333,0,0,0,4.86-2.984l-1.51-.194c2.408,2.675,6.988,1.215,7.829-2.106a5.875,5.875,0,0,0-.985-4.867,8.231,8.231,0,0,0-4.508-2.732,1.022,1.022,0,0,0-.539,1.97h0Z" transform="translate(-1124.705 -923.015)" fill="#010d3d"/></g><path id="Trazado_6699" data-name="Trazado 6699" d="M1102.938,582.793c-2.638,1.639-5.328,3.192-7.987,4.817-1.33.812-2.646,1.632-4.019,2.365s-2.689,1.33-3.946,2.128l-1.978,1.244a7.716,7.716,0,0,0-1.631,1.122c-1.021,1.071-.568,2.631-.2,3.889.683,2.308,1.877,5.284,4.328,6.125a.849.849,0,0,0,1.036-1.036,9.878,9.878,0,0,0-1.352-2.9,12.653,12.653,0,0,1-1.265-2.947c-.087-.288-.159-.575-.223-.87-.036-.144-.064-.3-.094-.438-.021-.223-.05-.194-.072.086.517-.288,1.006-.654,1.51-.971a29.462,29.462,0,0,0,3.328-2.38,66.346,66.346,0,0,1,6.542-4.536c2.186-1.452,4.443-3.041,6.708-4.515.726-.475.064-1.639-.683-1.172h0Z" transform="translate(-1028.132 -536.653)" fill="#010d3d"/><path id="Trazado_6700" data-name="Trazado 6700" d="M1090.036,628.426a2.258,2.258,0,0,1,.014-.309.768.768,0,0,1,.007-.13v-.036a.432.432,0,1,1,0,.043c-.014-.029.022-.115.029-.144.022-.086,0,.014-.021.036a.22.22,0,0,0,.029-.058l.086-.129c.022-.029.093-.108,0-.007l-.043.029c.051-.029.043-.021-.021,0,.108-.029-.1-.007.014,0-.129-.014-.014,0,.015.015-.108-.029-.015,0,.014.014-.05-.036-.05-.036-.007,0s.036.043.014.014c-.021-.065-.029-.079-.007,0l.043.151c.029.093.043.187.065.287.05.23.086.467.122.7l.014.086q-.021-.151,0,.022c.015.115.015.122,0,.014a.51.51,0,0,0,.015.108c.014.108.028.223.036.331s.013.223.028.331a1.832,1.832,0,0,0,.05.324,1.048,1.048,0,0,0,.245.446.768.768,0,0,0,.755.2.79.79,0,0,0,.546-.546,1.86,1.86,0,0,0-.2-1.172c-.107-.3-.23-.6-.352-.891-.1-.237-.194-.482-.316-.7a1.632,1.632,0,0,0-.158-.223h0c-.036-.05-.072-.094-.108-.136a1.185,1.185,0,0,0-.309-.259,1.006,1.006,0,0,0-.927-.029,1.147,1.147,0,0,0-.439.467,2.185,2.185,0,0,0-.187,1.136.486.486,0,0,0,.482.481.5.5,0,0,0,.481-.481h0Z" transform="translate(-1029.912 -549.021)" fill="#010d3d"/><path id="Trazado_6701" data-name="Trazado 6701" d="M1101.46,642.829c.173,1.668.166,3.343.295,5.018s.288,3.35.511,5.018a4.389,4.389,0,0,0,.5,2.013,5.356,5.356,0,0,0,1.51,1.193c1.38.856,2.775,1.7,4.155,2.545a.754.754,0,0,0,.769,0,13.041,13.041,0,0,0,3.006-2.789c.446-.546.862-1.107,1.265-1.682a2.7,2.7,0,0,0,.762-1.8,10.16,10.16,0,0,0-.69-2.107c-.273-.784-.539-1.574-.805-2.358-.524-1.575-1.1-3.149-1.467-4.766-.259-1.143-2.15-.6-1.74.482,1.021,2.646,1.8,5.385,2.8,8.045a3.418,3.418,0,0,1,.324.92c.007.28-.122.4-.288.64-.359.511-.719,1.014-1.107,1.5a11.235,11.235,0,0,1-2.833,2.6h.769c-1.272-.805-2.616-1.553-3.839-2.437a2.3,2.3,0,0,1-.352-.288c-.136-.215-.194-.208-.194.029l.043-.3c-.021-.18-.05-.352-.072-.532-.13-.7-.23-1.4-.331-2.114q-.313-2.2-.7-4.393c-.281-1.553-.69-3.069-.927-4.637-.115-.762-1.438-.589-1.359.187h0Z" transform="translate(-1033.391 -553.359)" fill="#010d3d"/><path id="Trazado_6702" data-name="Trazado 6702" d="M1089.145,680.548c.136,5.974.453,11.919.712,17.886a133.473,133.473,0,0,1-.194,17.635q-.226,2.588-.6,5.155c-.129.855-.266,1.7-.425,2.552a4.464,4.464,0,0,0-.165,2.078.294.294,0,0,0,.488.13c.8-.934.827-2.617,1.028-3.8.245-1.409.446-2.818.6-4.241.33-2.969.5-5.96.561-8.943.122-6.082-.2-12.157-.546-18.224-.194-3.422-.561-6.823-.762-10.237-.029-.439-.7-.446-.69,0h0Z" transform="translate(-1029.718 -564.061)" fill="#010d3d"/><g id="Grupo_4736" data-name="Grupo 4736" transform="translate(51.334 161.231)"><path id="Trazado_6703" data-name="Trazado 6703" d="M1089.5,746.995c-3.033-.963-5.894-3.99-9.288-2.94-2.035.64-1.244,3.717.33,4.479,1.086.59,2.488.468,3.509,1.172a3.494,3.494,0,0,0,3.214.949c2.092.288,4.946-2.739,1.984-3.63" transform="translate(-1078.41 -743.176)" fill="#fff"/><path id="Trazado_6704" data-name="Trazado 6704" d="M1089.4,746.27c-2.315-.805-4.2-2.56-6.607-3.141a4.882,4.882,0,0,0-3.566.259,2.554,2.554,0,0,0-1.035,2.372,4.075,4.075,0,0,0,1.122,2.459,6.178,6.178,0,0,0,3.135,1.229,3.4,3.4,0,0,1,.87.309c.288.158.518.417.791.6a3.993,3.993,0,0,0,1.725.618,9.246,9.246,0,0,0,1.668-.014,3.788,3.788,0,0,0,1.395-.4,3.446,3.446,0,0,0,1.884-2.1,1.878,1.878,0,0,0-1.625-2.178.511.511,0,0,0-.273.985c.546.223,1.071.518.776,1.158a2.749,2.749,0,0,1-1.459,1.265,2.436,2.436,0,0,1-.985.187,7.632,7.632,0,0,1-1.517.007,2.755,2.755,0,0,1-1.293-.6,3.954,3.954,0,0,0-1.467-.8,7.462,7.462,0,0,1-2.674-.877,2.547,2.547,0,0,1-.9-1.79,1.17,1.17,0,0,1,.791-1.33,4.343,4.343,0,0,1,2.7-.072c2.236.59,4.083,2.128,6.291,2.8.6.187.848-.733.258-.942h0Z" transform="translate(-1078.182 -742.919)" fill="#010d3d"/></g><g id="Grupo_4738" data-name="Grupo 4738" transform="translate(0 118.555)"><path id="Trazado_6705" data-name="Trazado 6705" d="M1065.465,742.223c-.4-2.56-.812-5.112-1.143-7.678q-.755-5.715-1.28-11.452a228.123,228.123,0,0,0-3.091-22.624,99.342,99.342,0,0,0-3.35-12.358.578.578,0,0,0-.547-.409q-2.512.032-5.01.079a.488.488,0,0,0-.482.6h-.036l-.043-.165c-.179-.741-.366-1.474-.546-2.215a5.882,5.882,0,0,0-.583-1.948c-.661-.935-2.372-.273-3.271-.137l-4.773.755q-9.446,1.5-18.908,2.976c-1.769.28-3.53.561-5.3.834-1.445.23-3.048.288-4.3,1.121a.642.642,0,0,0-.223.848c.1.244.187.489.281.733a3.261,3.261,0,0,0-2.523,1.042.519.519,0,0,0-.453.64q.463,1.995.949,3.976c-1.114.036-2.228.072-3.335.179a.715.715,0,0,0-.683.9,333.885,333.885,0,0,0,13.113,32.725c.144.323.582.244.755.007q.787,2.4,1.589,4.81c1.33,4.012,2.675,8.03,4.105,12.006a.832.832,0,0,0,.769.589c6.563.388,13.106,1.085,19.662,1.56a75.55,75.55,0,0,0,19.066-.576.785.785,0,0,0,.575-.755C1066.191,746.249,1065.845,744.229,1065.465,742.223Z" transform="translate(-1006.778 -683.557)" fill="#fff"/><g id="Grupo_4737" data-name="Grupo 4737" transform="translate(0.001 0.009)"><path id="Trazado_6706" data-name="Trazado 6706" d="M1011.091,695.849c1.668,7.211,3.522,14.364,5.657,21.452s4.407,14.127,6.737,21.143c1.337,4.012,2.674,8.023,4.1,12.006a.816.816,0,0,0,.755.575c6.564.388,13.106,1.093,19.662,1.56s12.761.59,19.059-.575a.769.769,0,0,0,.561-.733,194.562,194.562,0,0,0-4.062-19.842l-4.73-20.043-2.387-10.108c-.59-2.487-1.071-5.241-4.127-5.478-1.632-.122-3.3-.021-4.932-.036-1.725-.014-3.444-.043-5.169-.079q-5.165-.108-10.331-.352-5.693-.258-11.381-.676c-1.934-.144-3.867-.323-5.8-.46a3.464,3.464,0,0,0-3.35,1.244c-.5.7.647,1.6,1.2.928.748-.9,2.509-.453,3.509-.367,1.6.136,3.2.259,4.795.374q4.8.345,9.6.589,9.609.475,19.238.532c1.143,0,3.149-.359,3.947.683.755.985.884,2.566,1.157,3.738l2.2,9.418,4.407,18.836q1.218,5.219,2.466,10.424a103.1,103.1,0,0,1,2.221,10.676l.561-.733c-6.269,1.172-12.675.992-19,.547s-12.9-.949-19.317-1.625l.755.575c-2.178-7.067-4.565-14.069-6.837-21.108s-4.4-14.12-6.556-21.2c-1.23-4.048-2.459-8.081-3.6-12.157a.53.53,0,0,0-1.021.281h0Z" transform="translate(-1007.985 -686.553)" fill="#00b2e3"/><path id="Trazado_6707" data-name="Trazado 6707" d="M1016.3,691.456c-.144-.5-.252-.978-.36-1.481l-.287.7c1.337-.942,3.3-.956,4.867-1.208l5.3-.834c3.71-.582,7.419-1.172,11.136-1.747l10.956-1.711c.575-.093,2.279-.654,2.746-.209.2.187.251,1.086.316,1.366.108.453.209.913.316,1.366.425,1.819.856,3.637,1.28,5.456.194.82,1.473.475,1.265-.352-.374-1.531-.762-3.055-1.136-4.587-.18-.74-.36-1.474-.547-2.207a5.989,5.989,0,0,0-.575-1.948c-.669-.942-2.373-.281-3.279-.137l-4.774.755q-9.458,1.5-18.908,2.977l-5.3.834c-1.445.23-3.048.288-4.3,1.122a.641.641,0,0,0-.223.848c.179.424.337.841.489,1.28a.523.523,0,0,0,1.006-.281h0Z" transform="translate(-1009.014 -683.57)" fill="#00b2e3"/><path id="Trazado_6708" data-name="Trazado 6708" d="M1068.143,690.4l5.011.043-.546-.417c.963,3.7,1.618,7.455,2.33,11.2s1.308,7.578,1.818,11.381c1.014,7.57,1.733,15.176,2.768,22.747a90.068,90.068,0,0,0,2.373,12.667c.238.82,1.359.46,1.244-.345-.547-3.846-1.244-7.663-1.748-11.524s-.934-7.628-1.279-11.452c-.683-7.563-1.654-15.162-3.092-22.624a99.253,99.253,0,0,0-3.336-12.358.585.585,0,0,0-.546-.417l-5.011.079a.507.507,0,0,0,0,1.014h0Z" transform="translate(-1023.886 -685.18)" fill="#00b2e3"/><path id="Trazado_6709" data-name="Trazado 6709" d="M1020.727,735.5q-6.546-16.272-12.545-32.768l-.5.87a28.217,28.217,0,0,1,3.386-.338.622.622,0,0,0,0-1.244c-1.193.036-2.386.065-3.573.187a.718.718,0,0,0-.683.9q5.747,16.682,13.113,32.725c.208.446.985.122.8-.338h0Z" transform="translate(-1006.779 -688.756)" fill="#00b2e3"/></g></g><g id="Grupo_4739" data-name="Grupo 4739" transform="translate(11.291 98.619)"><path id="Trazado_6710" data-name="Trazado 6710" d="M1029.3,758.107c-.021-.05-.036-.1-.058-.143a3.986,3.986,0,0,0,.777-.165.986.986,0,0,0,.69-.906.962.962,0,0,0-.69-.906c-.079-.022-.151-.05-.23-.072a1.092,1.092,0,0,0-.237-.2c-.065-.036-.137-.065-.2-.1a7.138,7.138,0,0,0,1.466-.28.964.964,0,0,0-.252-1.884,7.34,7.34,0,0,1-2.487-.762c-.087-.029-.173-.051-.259-.072h.057l2.323.108c1.056.029,1.042-1.574,0-1.639l-1.481-.086a20.043,20.043,0,0,1-2.9-.467.776.776,0,0,0-.956.589,1.184,1.184,0,0,0-.36,1.3,1.709,1.709,0,0,0,.266.489,1.021,1.021,0,0,0-.6.654,1.04,1.04,0,0,0,.46,1.128,9.541,9.541,0,0,0,1.46.856,1.8,1.8,0,0,0,.367,1.51,1.934,1.934,0,0,0,.877.6v.022a2.56,2.56,0,0,0,.374,1.33.913.913,0,0,0,.087.719,2.257,2.257,0,0,0,1.8,1.366,1.534,1.534,0,0,0,.87-.237c.028-.015.057-.022.086-.036a1.339,1.339,0,0,0,.589-1.582,1.791,1.791,0,0,0-1.847-1.136Z" transform="translate(-1022.948 -682.439)" fill="#fff"/><path id="Trazado_6711" data-name="Trazado 6711" d="M1089.539,749.514a1.554,1.554,0,0,0-1.445-1.1q-6.88-.194-13.76.022c-1.855.057-1.862,2.926,0,2.89.776-.015,1.552-.022,2.329-.029a.99.99,0,0,0,0,.561,27.97,27.97,0,0,0-3.609.6,1.029,1.029,0,0,0,0,1.97c.747.2,1.5.4,2.257.6-.259.072-.51.136-.769.208a1.03,1.03,0,0,0,0,1.97,11.972,11.972,0,0,0,2.056.46l.23.021a1.352,1.352,0,0,0-.474.546c-.352.791.237,1.913,1.222,1.589,1.726-.561,3.494-.295,5.269-.359a13.257,13.257,0,0,0,2.862-.345,6.755,6.755,0,0,1,2.451-.583,1.521,1.521,0,0,0,1.46-1.107,12.684,12.684,0,0,0-.094-7.915Z" transform="translate(-1036.493 -681.826)" fill="#fff"/><path id="Trazado_6712" data-name="Trazado 6712" d="M1083.188,747.53c-1.689.043-3.379.108-5.068.18a38.856,38.856,0,0,0-5.249.237c-1.315.244-2.76,1.783-1.639,3.084a3.752,3.752,0,0,0,2.279.884,19.7,19.7,0,0,0,3.566.281.622.622,0,0,0,0-1.244,22.022,22.022,0,0,0-6.24.827.645.645,0,0,0-.467.611c.266,3.2,3.688,3.666,6.247,3.242.676-.108.517-1.236-.158-1.193-1.014.058-4.939.309-4.155,2.15.33.776,1.323.978,2.056,1.143a14.612,14.612,0,0,0,3.35.324v-1.208c-1.014.115-2.7.848-2.646,2.121.072,1.474,2.452,1.208,3.386,1.222a41.261,41.261,0,0,0,11.525-1.344.687.687,0,0,0-.367-1.323,41.573,41.573,0,0,1-7.743,1.351,31.27,31.27,0,0,1-3.767.086,6.555,6.555,0,0,1-1.769-.129c-.1-.359,1.186-.762,1.366-.783.748-.086.8-1.222,0-1.208a11.9,11.9,0,0,1-3.487-.446c-.137-.036-.438-.072-.46-.208a6.231,6.231,0,0,1,.776-.237,10.18,10.18,0,0,1,1.92-.3l-.158-1.193c-1.661.295-4.479.18-4.659-2.071l-.468.611a21.9,21.9,0,0,1,5.91-.805v-1.244a16.93,16.93,0,0,1-2.883-.23c-.482-.079-1.927-.151-2.035-.733-.216-1.186,3.508-.985,4.112-1.014,2.308-.122,4.608-.273,6.916-.381a.529.529,0,0,0,0-1.057h0Z" transform="translate(-1035.944 -681.603)" fill="#010d3d"/><path id="Trazado_6713" data-name="Trazado 6713" d="M1140.559,685.88c-4.192-24.019-23.739-36.305-21.812-26.866,1.186,5.823,1.567,11.409,2.882,16.8,1.79,9.324,5.292,19.382,3.041,28.828-2.9,6.147-8.785,11.251-14.975,13.926-5.363,1.955-11.208,1.007-16.658,2.494-2.437,1.632-.869,9.921-1.085,12.919.043.6.546,1.337,1.251,1.244,24.285-1.733,50.446-22.258,47.355-49.354Z" transform="translate(-1041.926 -655.827)" fill="#64d8cc"/><path id="Trazado_6714" data-name="Trazado 6714" d="M1094.726,756a55.856,55.856,0,0,0,21.553-5.385,37.543,37.543,0,0,0,8.369-4.831,50.612,50.612,0,0,0,6.283-6.377,53.467,53.467,0,0,0,5.018-6.506c.295-.482-.425-1.071-.8-.618-1.445,1.754-2.746,3.63-4.2,5.384a59.625,59.625,0,0,1-5.981,6.362,31.814,31.814,0,0,1-7.642,4.874,63.908,63.908,0,0,1-10.245,4.012,49.4,49.4,0,0,1-12.366,2.02c-.683.021-.69,1.086,0,1.064h0Z" transform="translate(-1042.643 -677.273)" fill="#010d3d"/><path id="Trazado_6715" data-name="Trazado 6715" d="M1094.911,729.372c8.577-1.869,17.491-4.048,24.695-9.324a13.656,13.656,0,0,0,4.156-4.493,24.449,24.449,0,0,0,2.078-6.168,58.442,58.442,0,0,0,1.409-14.048,57.641,57.641,0,0,0-.74-7.779c-.209-1.316-.439-2.624-.763-3.918a12.485,12.485,0,0,0-1.344-3.854.293.293,0,0,0-.54.144,13.765,13.765,0,0,0,.532,3.041c.273,1.186.518,2.387.741,3.587a55.131,55.131,0,0,1,.755,6.779,57.289,57.289,0,0,1-.87,13.753,36.277,36.277,0,0,1-1.618,6.219,12.319,12.319,0,0,1-3.8,5.183,39.808,39.808,0,0,1-11.3,6.068,108.178,108.178,0,0,1-13.674,3.781c-.668.151-.387,1.172.281,1.028Z" transform="translate(-1042.656 -662.524)" fill="#010d3d"/><path id="Trazado_6716" data-name="Trazado 6716" d="M1024.221,750.691c1.279.108,2.559.216,3.838.331a3.675,3.675,0,0,1,1.524.331.711.711,0,0,1,.3.288c-.008-.014.028.072.022.065.079.108-.022.036.014-.036-.021.043-.043.086-.029.079a.975.975,0,0,1-.834.316,11.446,11.446,0,0,1-1.488-.007,10.689,10.689,0,0,1-1.4-.23,7.947,7.947,0,0,1-1.5-.431,2.868,2.868,0,0,1-.41-.259,1.747,1.747,0,0,1-.229-.23c.1.122-.043-.094-.022-.036-.072-.18.043-.065-.021-.007.014-.015.036-.058.057-.065a1.5,1.5,0,0,1,.251-.094,1.571,1.571,0,0,0,.41-.108,1.5,1.5,0,0,0,.316-.244.334.334,0,0,0,.086-.331.811.811,0,0,0-.784-.582,2.179,2.179,0,0,0-1.114.288,1.492,1.492,0,0,0-.489,2.092,3.54,3.54,0,0,0,1.452,1.265,6.712,6.712,0,0,0,2.214.712,5.237,5.237,0,0,0,4.019-.64,1.515,1.515,0,0,0,.6-1.668,1.866,1.866,0,0,0-1.215-1.215,9.122,9.122,0,0,0-2.653-.309c-.971-.051-1.941-.115-2.911-.173-.59-.036-.583.87,0,.913h0Z" transform="translate(-1022.484 -682.14)" fill="#010d3d"/><path id="Trazado_6717" data-name="Trazado 6717" d="M1026.246,750.543a14.785,14.785,0,0,1,1.79.208c.3.05.589.115.885.187l.431.108a1.539,1.539,0,0,0,.532.108.519.519,0,0,0,.474-.317.506.506,0,0,0-.108-.568,2.58,2.58,0,0,0-1.007-.374c-.316-.079-.632-.144-.948-.2a17.631,17.631,0,0,0-2.049-.244.546.546,0,0,0,0,1.093Z" transform="translate(-1023.388 -682.143)" fill="#010d3d"/><path id="Trazado_6718" data-name="Trazado 6718" d="M1024.362,753.729a1.323,1.323,0,0,0-.992,1.229,1.575,1.575,0,0,0,.913,1.244,8.107,8.107,0,0,0,3.918.87c1.15,0,2.8-.079,3.652-.978a1.184,1.184,0,0,0,.187-1.416,1.643,1.643,0,0,0-1.517-.8.63.63,0,0,0-.546.316l-.029.057a.533.533,0,0,0,0,.546.784.784,0,0,0,.575.359,1.306,1.306,0,0,1,.4.115c.014.007.173.151.122.036-.036-.072.036-.05,0-.021-.072.057-.1.1-.18.158a4.816,4.816,0,0,1-2.452.532,8.637,8.637,0,0,1-2.674-.316c-.216-.058-1.883-.633-1.093-.935.611-.237.352-1.23-.273-.992h0Z" transform="translate(-1022.733 -683.337)" fill="#010d3d"/><path id="Trazado_6719" data-name="Trazado 6719" d="M1025.861,757.111a1.636,1.636,0,0,0-.345,2.1,3.23,3.23,0,0,0,1.977,1.265,7.607,7.607,0,0,0,2.517.252c.841-.058,2.286-.2,2.314-1.316a1.842,1.842,0,0,0-.74-1.309c-.194-.18-.4-.345-.611-.51a1.342,1.342,0,0,0-.913-.41c-.41.036-.855.424-.676.884a.97.97,0,0,0,.374.518c.086.065.18.115.273.18a4.928,4.928,0,0,1,.453.324,2.634,2.634,0,0,1,.41.388c-.036-.05-.029-.043.014.029l-.014-.05c.036.165.057.079.057-.259a.4.4,0,0,1,.043-.058c0,.029-.093.043-.151.058-.093.029-.194.05-.288.072a3.156,3.156,0,0,1-.467.065,7.437,7.437,0,0,1-1.2.007,5.46,5.46,0,0,1-1.035-.172,2.632,2.632,0,0,1-.819-.316,1.218,1.218,0,0,1-.338-.266c-.05-.057-.057-.065-.021-.021l-.065-.108c-.094-.144.029.094-.022-.057-.014-.079-.021-.072,0,.007V758.3c0,.144,0,0,.015-.043h0l.065-.108c-.05.079.1-.1.122-.122.6-.575-.3-1.474-.913-.913h0Z" transform="translate(-1023.268 -684.246)" fill="#010d3d"/><path id="Trazado_6720" data-name="Trazado 6720" d="M1027.811,761.376c-.331,1.639,1.079,3.077,2.6,3.422a3.52,3.52,0,0,0,2.271-.187,1.1,1.1,0,0,0,.626-1.05,2.579,2.579,0,0,0-.36-1.093,3.952,3.952,0,0,0-.748-.92,6.64,6.64,0,0,0-.561-.453,2.1,2.1,0,0,0-.733-.4.685.685,0,0,0-.662,1.136,2.189,2.189,0,0,0,.475.338c.058.036.122.079.18.122l.108.079a4.817,4.817,0,0,1,.611.6c.05.058-.015-.014-.022-.021a.6.6,0,0,1,.05.072c.029.043.064.093.093.144s.065.108.094.165c.014.022.021.05.036.072.05.072-.029-.1-.007-.022a1.412,1.412,0,0,0,.086.295c.022.029,0-.043.014-.094a.252.252,0,0,1,.086-.151c-.065.065.13-.065,0,0-.021.015-.15.072-.065.036s-.086.029-.115.036l-.165.043c-.029,0-.057.014-.086.014s-.137.015-.058.007a1.4,1.4,0,0,1-.158.007h-.373c-.043,0-.259-.029-.13-.007a4.023,4.023,0,0,1-.424-.093c-.072-.022-.151-.051-.223-.079s0,0,.007,0c-.036-.014-.072-.036-.108-.05a3.187,3.187,0,0,1-.3-.172c-.022-.015-.166-.122-.108-.079s-.072-.058-.093-.079a1.859,1.859,0,0,1-.561-.733c.043.094-.021-.072-.029-.1a.969.969,0,0,1-.043-.2c.021.122,0-.072,0-.122v-.086c0-.1-.029.144,0-.036a.646.646,0,0,0-.439-.776.639.639,0,0,0-.776.438h0Z" transform="translate(-1023.968 -685.298)" fill="#010d3d"/><path id="Trazado_6721" data-name="Trazado 6721" d="M1078.618,758.2a7.836,7.836,0,0,0,3.034-.259.446.446,0,0,0,.316-.417.431.431,0,0,0-.316-.417,11.879,11.879,0,0,0-1.747-.137c-.273,0-.546.007-.82.029-.144.007-.295.022-.438.036a1.135,1.135,0,0,0-.51.122.4.4,0,0,0,.093.726.962.962,0,0,0,.453,0c.137-.014.273-.021.41-.036.259-.014.525-.022.791-.022a10.266,10.266,0,0,1,1.553.115v-.834a7.08,7.08,0,0,1-2.8.223.441.441,0,0,0-.439.439.45.45,0,0,0,.439.439h0Z" transform="translate(-1038.073 -684.257)" fill="#010d3d"/><path id="Trazado_6722" data-name="Trazado 6722" d="M1079.973,761.548c.489-.051.985-.086,1.481-.1.237-.007.475-.014.712-.014h.381a.679.679,0,0,0,.554-.18.484.484,0,0,0,0-.676c-.237-.244-.625-.18-.942-.172-.237,0-.474.014-.711.029-.5.029-.985.065-1.482.122a.507.507,0,0,0-.5.5c.015.245.223.525.5.5h0Z" transform="translate(-1038.502 -685.218)" fill="#010d3d"/><path id="Trazado_6723" data-name="Trazado 6723" d="M1079.336,753.16c.086-.022.172-.043.266-.058.036,0,.079-.022.115-.022h.028a4.158,4.158,0,0,1,.518-.014c.086,0,.165.007.251.014.014,0,.151.014.029,0a1.1,1.1,0,0,1,.136.022,3.007,3.007,0,0,1,.5.13l.13-.942-.863-.058a1.59,1.59,0,0,0-.489.015,1.291,1.291,0,0,0-.417.194.263.263,0,0,0-.051.41,1.385,1.385,0,0,0,.36.244,1.437,1.437,0,0,0,.582.1l.877.05a.474.474,0,0,0,.467-.417.485.485,0,0,0-.345-.525,4.354,4.354,0,0,0-2.35-.058.478.478,0,0,0-.332.575.491.491,0,0,0,.576.331h0Z" transform="translate(-1038.295 -682.891)" fill="#010d3d"/></g><path id="Trazado_6724" data-name="Trazado 6724" d="M1177.263,585.843a7.319,7.319,0,0,0-3.516-.913,7.734,7.734,0,0,0-1.775.216c-.734.18-1.761.611-1.92,1.452l.3-.518a1.2,1.2,0,0,0-.251,1.453,1.252,1.252,0,0,0,1.395.511l-.906-.115a2.588,2.588,0,0,0,1.992-.036c.115-.029.237-.057.359-.079a1.48,1.48,0,0,1,.18-.029c.151-.022.122-.022-.1.014a1.645,1.645,0,0,0,.367-.029c.108,0,.216-.007.324-.007s.216,0,.324.007c.064,0,.309.065.366.029-.223-.029-.259-.036-.1-.014.058.007.122.022.18.029.108.021.208.043.309.072a6.832,6.832,0,0,1,.654.208c.144.057.115.043-.086-.036a1.806,1.806,0,0,1,.165.079,3.624,3.624,0,0,1,.324.173,1.414,1.414,0,0,0,1.423-2.444h0Z" transform="translate(-1052.644 -537.28)" fill="#010d3d"/><path id="Trazado_6725" data-name="Trazado 6725" d="M1177.181,581.534a9.458,9.458,0,0,1-1.1.985l.281-.216c-.273.209-.561.4-.849.582s-.568.295-.841.46a2.885,2.885,0,0,0-.6.446c-.1.108-.194.23-.287.338a7.526,7.526,0,0,0-.683.755.635.635,0,0,0,.23.877,4.112,4.112,0,0,0,1.51.28,3.277,3.277,0,0,0,1.855-.618,10.961,10.961,0,0,0,2.416-1.963,1.382,1.382,0,0,0,0-1.927,1.363,1.363,0,0,0-1.927,0h0Z" transform="translate(-1053.503 -536.213)" fill="#010d3d"/></g></g><g id="Grupo_4742" data-name="Grupo 4742" transform="translate(33.974 86.514)"><line id="Línea_423" data-name="Línea 423" x2="3.154" fill="none" stroke="#99e0f4" stroke-linecap="round" stroke-width="3" stroke-dasharray="2 6"/><line id="Línea_424" data-name="Línea 424" x2="289.461" transform="translate(9.393)" fill="none" stroke="#99e0f4" stroke-linecap="round" stroke-width="3" stroke-dasharray="2 6 2 6"/><line id="Línea_425" data-name="Línea 425" x2="3.154" transform="translate(301.977)" fill="none" stroke="#99e0f4" stroke-linecap="round" stroke-width="3" stroke-dasharray="2 6"/></g></g></svg>