<svg xmlns="http://www.w3.org/2000/svg" width="480.521" height="381.493" viewBox="0 0 480.521 381.493">
  <g id="IICE_LandingCompliancePenal_Nivel3_5" transform="translate(-575.337 -240.554)">
    <g id="Grupo_4970" data-name="Grupo 4970" transform="translate(746.363 240.554)">
      <path id="Trazado_9558" data-name="Trazado 9558" d="M1033.377,349.484q-.705-28.958-2-57.9-.648-14.47-1.443-28.933c-.127-2.288-.254-4.582-.388-6.869a24.831,24.831,0,0,0-.858-6.495c-1.188-3.54-4.111-5.63-7.549-6.749a48.3,48.3,0,0,0-12.214-1.8c-4.664-.254-9.335-.178-14.006-.146q-14.336.086-28.685.222-29.054.276-58.1.712-14.527.219-29.054.483-7.263.133-14.521.273c-3.749.07-7.753-.1-11.324,1.252-8.147,3.069-7.321,12.087-7.251,19.255.006.413.013.82.013,1.233-1.093,36.33-1.1,72.723-1.309,109.066q-.315,55.038-.2,110.076.038,27.786.14,55.578.048,14.041.114,28.088c.038,9.31-.248,18.683.159,27.986.14,3.247.616,6.755,2.542,9.475,2.186,3.088,5.643,4.073,9.272,4.213,9.519.362,19.121.032,28.653.019q28.892-.048,57.8-.222t57.8-.5l14.54-.172c3.737-.044,8.058.2,10.67-3,2.364-2.891,2.345-6.933,2.561-10.473q.457-7.235.864-14.463,3.288-57.478,4.232-115.065t-.451-115.148Z" transform="translate(-844.47 -240.554)" fill="#ccf0f9"/>
      <path id="Trazado_9559" data-name="Trazado 9559" d="M1008.277,501.931a14.9,14.9,0,0,0-2.123-7.314,5.731,5.731,0,0,0-3.107-2.389,6.684,6.684,0,0,0-4.245.578,2.76,2.76,0,0,1-2.714-.083,4.75,4.75,0,0,1-1.919-2.275c-1.093-2.771-.311-6.158,0-9.011.362-3.349.693-6.7,1.017-10.06.133-1.385.5-2.987-.178-4.289-.744-1.43-2.421-1.6-3.838-1.964a48.942,48.942,0,0,0-4.995-.807c-1.627-.241-3.26-.508-4.9-.648a27.957,27.957,0,0,0-4.893-.057,7.181,7.181,0,0,0-4.156,1.252c-1.3,1.118-1.156,2.688-.432,4.086a9.947,9.947,0,0,1,1.131,3.47,8.676,8.676,0,0,1-2.014,6.742,8.335,8.335,0,0,1-6.056,2.726,7.3,7.3,0,0,1-5.776-2.9,7.963,7.963,0,0,1-1.5-3.114,15.6,15.6,0,0,1,.032-4.283c.14-2.707-1.048-5.611-4.08-5.84-.089-.006-.184,0-.28-.006a1.342,1.342,0,0,0-.852-.305q-4.194-.048-8.388-.089c-1.779-.025-3.857-.114-5.4.871a1.433,1.433,0,0,0-.1-.108c-1.106-1.042-3.3-.369-3.19,1.322q.467,7.178.972,14.355c.159,2.294.451,4.62.413,6.92-.032,1.608-.394,3.343-1.779,4.156a1.5,1.5,0,0,1-1.468.172c-.921-.3-1.741-.864-2.694-1.074a4.919,4.919,0,0,0-5.268,2.586,17.4,17.4,0,0,0-1.964,6.024,14.489,14.489,0,0,0-.038,6.139,5.846,5.846,0,0,0,4.467,4.385,11.367,11.367,0,0,0,5.872-.788,6.648,6.648,0,0,1,2.345,4.232,39.759,39.759,0,0,1,.2,7.486c0,2.6.159,5.2.2,7.8.013,1.246.032,2.5.019,3.743-.006.629-.006,1.252-.013,1.875,0,.267.006.546,0,.82-1.036.756.216,2.351,1.385,2.053.044-.013.083-.032.121-.044a1.166,1.166,0,0,0,.928.527,83.445,83.445,0,0,0,11.553,0,1.266,1.266,0,0,0,.394.28c.146.064.292.114.438.165-.006,0-.006.013-.006.013.07.019.146.032.216.044a5.079,5.079,0,0,0,5.63-2.231c1.411-2.091,1.169-4.683,1.055-7.066a6.717,6.717,0,0,1,.343-3.152,3.8,3.8,0,0,1,1.633-1.709,7.87,7.87,0,0,1,5.872-.483,27.356,27.356,0,0,1,3.406,1.036,3.716,3.716,0,0,1,2.866,3.393c0,.013.019.337.025.388.006.254.006.508,0,.756a6.617,6.617,0,0,1-.14,1.144,10.219,10.219,0,0,1-.832,2.453,5.587,5.587,0,0,0-.864,3.959c.6,2.288,2.987,2.891,5.065,2.936a57.193,57.193,0,0,0,8.712-.705,88.6,88.6,0,0,0,9.017-1.665,1.771,1.771,0,0,0,1.284-1.69,135.833,135.833,0,0,1,.718-19.884c.216-1.938.769-5.268,3.152-5.452a4.885,4.885,0,0,1,1.468.413,5.29,5.29,0,0,0,2.281.369,5.788,5.788,0,0,0,3.927-2.332,11.162,11.162,0,0,0,2.04-7.854Z" transform="translate(-873.163 -321.834)" fill="#010d3d"/>
      <path id="Trazado_9560" data-name="Trazado 9560" d="M846.14,260.354c-1.214,37.556-1.195,75.17-1.411,112.745q-.315,55.038-.21,110.076.038,27.786.14,55.578.048,14.041.108,28.088c.038,9.31-.248,18.683.159,27.986.14,3.247.616,6.749,2.542,9.469,2.18,3.082,5.63,4.061,9.246,4.2,9.526.362,19.121.032,28.653.019q28.9-.038,57.8-.216t57.8-.5q7.273-.076,14.54-.172c3.73-.044,8.045.2,10.651-2.993,2.364-2.891,2.339-6.927,2.555-10.46q.448-7.225.864-14.457,3.289-57.488,4.226-115.071t-.451-115.148q-.705-28.958-2-57.9-.648-14.47-1.443-28.933c-.127-2.288-.254-4.582-.388-6.869a24.819,24.819,0,0,0-.858-6.488c-1.182-3.533-4.1-5.618-7.53-6.736a48.585,48.585,0,0,0-12.207-1.8c-4.664-.254-9.335-.178-14.006-.153q-14.346.1-28.692.229-29.054.276-58.1.712-14.527.219-29.047.483-7.263.133-14.527.273c-3.743.07-7.753-.1-11.318,1.252-8.128,3.063-7.263,12-7.257,19.147.006,8.649-.222,17.3-.438,25.94-.1,4.1-.2,8.2-.26,12.29-.07,4.62.432,9.214.47,13.828a1.364,1.364,0,0,0,2.726,0c-.038-4.493.489-9,.553-13.5.057-4.207.159-8.414.26-12.627.21-8.414.432-16.827.438-25.241,0-3.857-.6-8.268.616-12s4.563-4.823,8.064-5.141c4.308-.394,8.706-.261,13.033-.337q7.082-.133,14.158-.254,56.1-.972,112.193-1.322c4.512-.025,9.036-.044,13.536.337,3.648.305,8.026.591,11.216,2.6,3.724,2.339,3.152,7.568,3.368,11.394q.4,7.054.763,14.1,1.43,27.843,2.313,55.718,1.773,56.1,1.328,112.243-.448,55.763-3.082,111.481-.667,14.107-1.481,28.209-.391,6.873-.82,13.739c-.216,3.482.044,8.611-4.308,9.469a32.392,32.392,0,0,1-5.878.235c-2.421.032-4.849.057-7.27.089l-13.815.153q-14.174.152-28.355.26-27.986.229-55.979.318-14.174.048-28.355.064-6.911,0-13.815,0h-6.908a26.6,26.6,0,0,1-6.24-.337c-3.59-.877-4.83-4.2-5.211-7.549a110.293,110.293,0,0,1-.235-12.042q-.067-13.993-.121-27.992-.1-27.1-.178-54.206-.124-53.532.063-107.071c.146-35.694.438-72.12.915-108.17q.181-13.526.178-27.039a1.663,1.663,0,0,0-3.323,0h0Z" transform="translate(-844.481 -240.567)" fill="#010d3d"/>
      <path id="Trazado_9561" data-name="Trazado 9561" d="M935.442,245.067a114.13,114.13,0,0,1,.6,16.6,25.218,25.218,0,0,1-.737,6.806,3.577,3.577,0,0,1-1.347,2.014c-.915.521-1.83-.133-2.644-.54a4.566,4.566,0,0,0-4.944.083,8.066,8.066,0,0,0-2.783,4.436,23.354,23.354,0,0,0-.572,7.219,23.935,23.935,0,0,0,1.169,7.3c.648,1.722,2.154,2.955,4.054,2.256s3.12-2.688,5.332-1.582c2.161,1.08,2.739,3.457,2.694,5.694a67.35,67.35,0,0,1-.979,7.886c-.769,5.56-1.5,11.127-2.294,16.681l-1.176,8.223a34.589,34.589,0,0,0-.629,7.632c.318,3.94,2.777,8.242,7.155,8.5,2.18.127,4.1-1.837,6.209-.68s2.65,3.826,2.752,6.081a23.215,23.215,0,0,1-.438,7.263c-.566,2.021-2.091,4.067-4.34,4.3-2.021.21-3.47-1.773-5.573-1.481a4.913,4.913,0,0,0-3.559,3.12,15.971,15.971,0,0,0-1.074,6.158,68.919,68.919,0,0,0,.216,7.772c.413,5.23,1.277,10.409,2.015,15.594a92.666,92.666,0,0,1,1.182,15.7c-.038,1.379.153,5.408-2.11,5.217a6.814,6.814,0,0,1-2.4-1.125,6.037,6.037,0,0,0-2.625-.832c-3.66-.114-5.363,4.239-5.929,7.194-.775,4.073-1.277,9.2,2.053,12.322a6.519,6.519,0,0,0,5.7,1.538c1.061-.133,2.3-.375,3.254.241a3.806,3.806,0,0,1,1.347,2.491,44.48,44.48,0,0,1,.61,7.7c.1,2.771.1,5.548-.006,8.318s-.305,5.262-.6,7.88c-.133,1.169,1.7,1.157,1.83,0a104.005,104.005,0,0,0,.642-16.4,56.454,56.454,0,0,0-.61-7.4c-.311-1.792-1.1-3.648-2.885-4.385-2.141-.883-4.442.521-6.564-.292s-3.215-3.114-3.457-5.23a20.4,20.4,0,0,1,.635-7.092c.4-1.582,1.055-3.476,2.427-4.48,1.665-1.22,3.26.254,4.766.979,1.684.813,3.584.705,4.722-.934s1.106-3.965,1.157-5.9a70.729,70.729,0,0,0-.273-7.784c-.9-10.5-3.59-20.888-3.057-31.481.1-1.951.216-4.131,1.417-5.77a2.1,2.1,0,0,1,1.811-1.036c1.049.083,1.964.928,2.949,1.258,4.245,1.423,7.753-2.764,8.465-6.5a29.42,29.42,0,0,0,.254-7.092,9.8,9.8,0,0,0-2.091-6.221,5.416,5.416,0,0,0-5.173-1.881c-1.049.229-1.97.9-3.05.979a4.448,4.448,0,0,1-2.872-.864c-4.442-3.012-2.885-9.488-2.262-13.9q1.182-8.331,2.427-16.643c.4-2.669.788-5.338,1.182-8a55.3,55.3,0,0,0,.928-7.778,8.381,8.381,0,0,0-2.084-6.05,5.584,5.584,0,0,0-4.912-1.754,6.87,6.87,0,0,0-2.574,1.373c-.807.578-1.824,1.284-2.516.172a9.348,9.348,0,0,1-.883-3.215,30.251,30.251,0,0,1-.445-4.417,18.843,18.843,0,0,1,.744-6.844c.553-1.525,1.792-3.629,3.718-3.088s3.349,1.983,5.376.941a5.656,5.656,0,0,0,2.536-3.826,29.959,29.959,0,0,0,.432-7c.019-2.809-.032-5.618-.184-8.42s-.369-5.325-.667-7.975c-.1-.89-1.512-.909-1.417,0h0Z" transform="translate(-872.765 -241.955)" fill="#010d3d"/>
      <path id="Trazado_9562" data-name="Trazado 9562" d="M935.145,580.326a220.707,220.707,0,0,0-.934,22.356c.051,2.389.839,5.427,3.724,5.567,1.506.076,2.79-.813,4.194-1.188a3.142,3.142,0,0,1,3.107.89c1.938,1.894,2.593,5.052,2.9,7.632.343,2.847-.222,6.113-3.1,7.429a3.312,3.312,0,0,1-3.438-.337,4.828,4.828,0,0,0-3.787-1.093c-2.612.54-4.207,3.508-4.728,5.891a33.806,33.806,0,0,0-.292,10.587c.381,3.7.909,7.391,1.366,11.076s.934,7.486,1.411,11.229l.712,5.611c.229,1.779.527,3.571.623,5.363a6.229,6.229,0,0,1-1.074,4.474,2.785,2.785,0,0,1-3.521.871c-1.315-.661-2.434-1.538-3.972-1.4a5.107,5.107,0,0,0-3.622,2.142,10.443,10.443,0,0,0-1.69,4.429,25.137,25.137,0,0,0-.527,4.925c.044,3.006,1.1,5.929,3.673,7.651a6.26,6.26,0,0,0,3.609,1.1,5.174,5.174,0,0,0,1.849-.407c.623-.261,1.443-.89,2.148-.718,1.087.261,1.334,2.116,1.512,2.993.362,1.792.674,3.6.922,5.408a88.149,88.149,0,0,1,.21,21.689c-.2,1.824-.477,3.635-.8,5.44-.229,1.284,1.728,1.836,1.97.54a86.126,86.126,0,0,0,1.277-21.759,88.283,88.283,0,0,0-1.43-10.809c-.464-2.37-1.379-6.24-4.683-5.4-1.373.356-2.358,1.3-3.864,1a5.384,5.384,0,0,1-3.152-2.091c-1.944-2.605-1.4-6.367-.82-9.335.3-1.519.7-3.2,1.938-4.239a2.925,2.925,0,0,1,1.951-.75,4.331,4.331,0,0,1,1.951.813,4.935,4.935,0,0,0,3.959.832,5.527,5.527,0,0,0,3.152-2.523c1.748-2.923.756-6.78.356-9.939q-.715-5.614-1.43-11.229l-1.462-11.229a77.407,77.407,0,0,1-.947-10.9c.038-2.917.235-6.622,2.555-8.731a2.311,2.311,0,0,1,3.158-.159,6.113,6.113,0,0,0,3.743,1.341,6.974,6.974,0,0,0,6.069-4.817c1.042-3.018.413-6.622-.655-9.551-.839-2.294-2.275-4.83-4.7-5.713a5.485,5.485,0,0,0-3.889.242c-1.087.419-2.675,1.366-3.711.369a4.8,4.8,0,0,1-.947-3.235c-.064-1.8-.025-3.616-.006-5.421q.048-5.652.267-11.292c.07-1.881.152-3.762.26-5.643.051-.909-1.328-.89-1.4,0h0Z" transform="translate(-872.913 -364.16)" fill="#010d3d"/>
      <path id="Trazado_9563" data-name="Trazado 9563" d="M1026.766,245.069a140.737,140.737,0,0,0-.845,16.6c.019,3.184-.534,9.094,3.177,10.695a3.706,3.706,0,0,0,2.3.184c1.068-.248,1.951-1.023,3.018-1.252,1.862-.4,3.038,1.659,3.571,3.127a19.259,19.259,0,0,1,.731,7.251,30.551,30.551,0,0,1-.394,3.806,8.653,8.653,0,0,1-1.01,3.546c-.693.947-1.69.235-2.427-.3a6.6,6.6,0,0,0-2.574-1.373,5.628,5.628,0,0,0-5.115,1.976c-3.2,3.622-1.582,9.348-.953,13.605.813,5.548,1.678,11.083,2.466,16.637l1.169,8.223a35.368,35.368,0,0,1,.674,7.969,7.379,7.379,0,0,1-3.095,5.808,4.416,4.416,0,0,1-2.745.782c-1.137-.1-2.11-.8-3.222-1.017a5.521,5.521,0,0,0-5.211,2.167,10.345,10.345,0,0,0-1.9,6.158c-.216,4.283-.324,9.589,3.527,12.392a5.787,5.787,0,0,0,5.351.96c.915-.337,1.8-1.131,2.8-1.195a2.185,2.185,0,0,1,1.881,1.144c1.195,1.76,1.271,4.01,1.36,6.062a64.732,64.732,0,0,1-.172,7.772c-.413,5.319-1.3,10.587-2.033,15.874a93.491,93.491,0,0,0-1.138,15.417c.057,1.957.019,4.289,1.3,5.9,1.176,1.481,2.974,1.506,4.569.737s3.177-2.237,4.855-.915c1.379,1.087,2.021,3.044,2.4,4.683.871,3.7,1.684,10.568-3.057,12.118-2.2.718-4.556-.763-6.717.369a5.615,5.615,0,0,0-2.561,4.245,57.483,57.483,0,0,0-.623,7.607c-.115,2.771-.1,5.548.019,8.318q.172,3.946.635,7.88c.133,1.157,1.964,1.176,1.83,0a110.446,110.446,0,0,1-.6-16.4,43.371,43.371,0,0,1,.6-7.486,3.8,3.8,0,0,1,1.347-2.491c1.042-.693,2.466-.33,3.616-.191a6.255,6.255,0,0,0,5.446-1.7,8.717,8.717,0,0,0,2.427-5.44,23.3,23.3,0,0,0-.54-7.047,12.049,12.049,0,0,0-2.008-4.817,4.746,4.746,0,0,0-3.87-2.116,6.038,6.038,0,0,0-2.625.832c-.82.439-1.735,1.22-2.669,1.131-2.065-.191-1.811-4.042-1.843-5.421a70.729,70.729,0,0,1,.273-7.785c.9-10.5,3.565-20.882,3.127-31.481-.127-3.107-.718-8.484-4.753-8.9-2.122-.216-3.635,1.843-5.726,1.455s-3.559-2.415-4.093-4.429a24.041,24.041,0,0,1-.381-7.27c.127-2.377.705-4.995,3.012-6.037a3.467,3.467,0,0,1,2.923.159,6.875,6.875,0,0,0,3.158.648,7.263,7.263,0,0,0,4.88-2.72c3.165-3.819,2.11-9.119,1.468-13.605q-1.191-8.331-2.339-16.668c-.362-2.675-.737-5.351-1.106-8.026a63.146,63.146,0,0,1-.979-8.07c-.019-2.256.693-4.734,2.987-5.643,2.084-.826,3.273,1.068,5.046,1.716,4.9,1.8,5.154-7.213,5.236-9.958.108-3.711-.006-8.966-3.47-11.318-1.665-1.131-3.451-.724-5.128.14-.737.381-1.551.858-2.364.4a3.525,3.525,0,0,1-1.347-2.014c-.737-2.192-.661-4.728-.75-7.016-.108-2.8-.083-5.618.019-8.42s.305-5.325.585-7.975c.1-.909-1.315-.9-1.417,0h0Z" transform="translate(-906.376 -241.958)" fill="#010d3d"/>
      <path id="Trazado_9564" data-name="Trazado 9564" d="M1026.675,580.329c.2,3.762.324,7.524.426,11.286s.222,7.391.089,11.07c-.038,1.049-.133,2.459-.947,3.235-1.042,1-2.618.057-3.711-.369a5.414,5.414,0,0,0-3.889-.242,6.463,6.463,0,0,0-2.834,2.211,16.312,16.312,0,0,0-2.923,8.058c-.356,3.063.229,6.38,2.777,8.363a6.559,6.559,0,0,0,3.692,1.436,6.113,6.113,0,0,0,3.743-1.341,2.271,2.271,0,0,1,3.158.159,6.889,6.889,0,0,1,1.938,3.419,30.486,30.486,0,0,1,.324,10.74c-.375,3.7-.909,7.4-1.392,11.089q-.725,5.614-1.449,11.229l-.712,5.611c-.222,1.767-.534,3.552-.6,5.338-.1,2.9.991,6.259,4.105,7.124a4.959,4.959,0,0,0,3.959-.832,4.344,4.344,0,0,1,1.951-.813,2.89,2.89,0,0,1,1.951.75c1.239,1.036,1.639,2.726,1.938,4.239a22.076,22.076,0,0,1,.5,4.963c-.1,2.79-1.462,5.853-4.474,6.463-1.506.305-2.485-.648-3.864-1a3.07,3.07,0,0,0-3.387,1.379,10.819,10.819,0,0,0-1.3,4.016c-.35,1.779-.635,3.571-.877,5.37a85.315,85.315,0,0,0-.114,21.822c.229,1.8.5,3.59.832,5.376.242,1.29,2.2.744,1.97-.54a88.406,88.406,0,0,1-1.137-21.822,83.391,83.391,0,0,1,1.493-10.86c.178-.858.464-2.707,1.576-2.866.642-.089,1.379.458,1.938.693a5.286,5.286,0,0,0,2.072.458,7.179,7.179,0,0,0,6.247-4.289c1.366-2.993.972-6.393.375-9.526-.553-2.879-2.04-6.221-5.4-6.444-1.525-.1-2.656.839-3.959,1.462a2.817,2.817,0,0,1-3.482-1,6.467,6.467,0,0,1-1-4.531c.108-1.748.394-3.489.616-5.224.477-3.743.96-7.486,1.423-11.229l1.4-11.229a77.3,77.3,0,0,0,.941-10.892c-.051-3.082-.375-6.475-2.332-8.992a5.234,5.234,0,0,0-3.057-2.078c-1.481-.273-2.605.407-3.794,1.182-2.294,1.493-5.039-.191-6-2.5a9.519,9.519,0,0,1-.4-4.938,20.419,20.419,0,0,1,1.048-4.353c.8-2.116,2.453-4.607,5.052-3.857,1.392.4,2.688,1.265,4.194,1.144a3.546,3.546,0,0,0,2.9-2.021,8.26,8.26,0,0,0,.712-3.635c.025-1.824-.026-3.654-.064-5.478q-.114-5.576-.458-11.14-.181-2.822-.413-5.643c-.07-.89-1.449-.909-1.4,0h0Z" transform="translate(-905.827 -364.163)" fill="#010d3d"/>
      <path id="Trazado_9565" data-name="Trazado 9565" d="M1031.854,346.721q-7.75-.381-15.486-.559c-2.3-.051-4.792-.28-6.984.572a5.275,5.275,0,0,0-3.521,4.334c-.127,2.014,1.735,3.4,1.817,5.37a5.016,5.016,0,0,1-2.663,4.417c-3.1,1.7-8.3,1.017-10.708-1.684-1.455-1.633-.661-3.489-.5-5.421a7.233,7.233,0,0,0-1.538-5.071c-2.5-3.336-6.628-4.512-10.651-4.239a43.537,43.537,0,0,0-7.321,1.354c-2.415.585-4.931,1.15-7.422,1.627A151.466,151.466,0,0,1,951.74,349.5a10.781,10.781,0,0,1-3.26,0c-.966-.21-2.135-.89-2.186-2.008-.038-.858.8-1.608,1.176-2.332a8.573,8.573,0,0,0,.775-2.18,9.619,9.619,0,0,0-2.65-8.63,7.9,7.9,0,0,0-9.291-1.309,9.113,9.113,0,0,0-5.122,8.433c.153,2.148,1.3,4.207-.559,5.942-1.684,1.576-4.092,1.531-6.247,1.315-5.173-.521-10.339-1.258-15.5-1.894q-3.727-.458-7.467-.871a71.086,71.086,0,0,0-7.5-.718,7.478,7.478,0,0,0-5.687,2.04,5.124,5.124,0,0,0-1.22,5.281,10.946,10.946,0,0,1,.635,2.694,6.275,6.275,0,0,1-.591,2.809,7.347,7.347,0,0,1-3.667,3.673c-3.425,1.468-7.314-.743-8.623-4.054a6.116,6.116,0,0,1-.413-2.675,33.024,33.024,0,0,0,.394-3.444,5.105,5.105,0,0,0-2.91-4.385,18.47,18.47,0,0,0-6.12-1.709,27.513,27.513,0,0,0-6.857-.1,28.8,28.8,0,0,0-6.685,1.557c-1.144.419-.648,2.262.508,1.837a26.8,26.8,0,0,1,14.139-1.265c1.824.337,4.22.75,5.5,2.237,1.455,1.684.089,4.175.165,6.139a8.969,8.969,0,0,0,6.361,7.969,8.29,8.29,0,0,0,9.164-3.838,8.932,8.932,0,0,0,1.347-4.76,10.786,10.786,0,0,0-.546-2.866,3.39,3.39,0,0,1,.152-2.974c1.195-1.754,3.667-2.046,5.6-1.957,2.529.114,5.058.521,7.568.807,5.09.572,10.187,1.061,15.289,1.57,2.529.254,5.071.6,7.613.731a9.642,9.642,0,0,0,6.062-1.315,5.22,5.22,0,0,0,2.4-4.747c-.089-1.029-.445-2.008-.521-3.038a6.266,6.266,0,0,1,.381-2.605c1.207-3.285,5.033-5.77,8.534-4.741,2.974.877,4.868,4.067,4.906,7.066a6.836,6.836,0,0,1-1.6,4.3,3.608,3.608,0,0,0,.756,4.995c1.792,1.5,4.34,1.195,6.495,1.017q3.756-.315,7.492-.845a148,148,0,0,0,14.571-2.885c4.4-1.1,9.589-2.631,13.8-.133a7.369,7.369,0,0,1,3.463,4.162c.559,2-.661,3.781-.508,5.776.3,3.883,4.366,5.973,7.81,6.361,3.972.451,8.49-.832,10.168-4.8a6.077,6.077,0,0,0-.191-5.306c-.438-.839-1.239-1.716-1.036-2.739a3.064,3.064,0,0,1,1.767-2.021,7.374,7.374,0,0,1,3.1-.5c1.284,0,2.574.051,3.857.076,2.58.044,5.166.133,7.746.133,2.466,0,4.931-.044,7.391-.064a1,1,0,0,0,0-2.008h0Z" transform="translate(-847.04 -273.924)" fill="#010d3d"/>
      <path id="Trazado_9566" data-name="Trazado 9566" d="M1033.144,570.321c-4.042-.2-8.077-.426-12.125-.546-2.053-.064-4.105-.153-6.158-.172a35.377,35.377,0,0,0-6.3.191,6.088,6.088,0,0,0-4.785,3.457,3.987,3.987,0,0,0-.2,2.548,31.342,31.342,0,0,0,1.468,3.012,4.575,4.575,0,0,1-1.767,4.969,8.32,8.32,0,0,1-6.024,1.207,9.03,9.03,0,0,1-5.027-1.945,3.916,3.916,0,0,1-1.239-1.836c-.343-1.169.14-2.326.324-3.476.623-3.927-2.161-7.352-5.6-8.884-4.518-2.008-9.589-.667-14.158.445a153.035,153.035,0,0,1-15.417,2.872c-2.586.356-5.2.68-7.8.852a5.866,5.866,0,0,1-3.432-.47,1.858,1.858,0,0,1-.744-2.65,16.723,16.723,0,0,0,1.328-2.319,8.074,8.074,0,0,0,.515-2.32,9.6,9.6,0,0,0-.883-4.7,8.191,8.191,0,0,0-7.924-5.039,9.6,9.6,0,0,0-8.02,6.374,7.865,7.865,0,0,0-.426,2.516,33.316,33.316,0,0,0,.553,3.54c.254,2.3-1.716,3.813-3.787,4.194-2.5.458-5.236-.184-7.721-.489l-7.931-.972q-7.912-.972-15.83-1.817c-2.256-.241-4.836-.445-6.85.813a5.694,5.694,0,0,0-2.891,4.569,12,12,0,0,0,.724,3.114,5.636,5.636,0,0,1,.051,2.834,7.424,7.424,0,0,1-3.012,4.378c-3.317,2.231-7.524.674-9.373-2.688a6.215,6.215,0,0,1-.782-2.656,22.782,22.782,0,0,1,.356-3.279,5.035,5.035,0,0,0-2.32-4.995,15.6,15.6,0,0,0-6.081-1.938,27.765,27.765,0,0,0-7.149-.21,28.94,28.94,0,0,0-6.977,1.589c-1.144.419-.648,2.262.508,1.837a26.89,26.89,0,0,1,14.425-1.214c1.824.356,4.417.82,5.49,2.548.648,1.036.343,2.281.146,3.4a10.045,10.045,0,0,0-.184,3.018,8.955,8.955,0,0,0,7.238,7.537,8.384,8.384,0,0,0,8.757-5.033,8.64,8.64,0,0,0,.661-5.192c-.21-1.08-.826-2.192-.667-3.317a3.215,3.215,0,0,1,1.659-2.256c2.1-1.214,4.683-.832,6.971-.572l7.931.9c5.281.6,10.574,1.074,15.855,1.608,3.991.4,9.824,1.36,12.055-3.069,1.049-2.091-.064-4.016-.051-6.164a7.038,7.038,0,0,1,2.2-4.849c2.555-2.536,6.609-3.082,9.291-.438,2.237,2.205,3.152,6.012,1.512,8.814-.521.9-1.265,1.57-1.411,2.644a3.55,3.55,0,0,0,.737,2.561c1.373,1.83,3.692,2.034,5.808,1.894A126.1,126.1,0,0,0,964.088,573q3.851-.743,7.657-1.69a43,43,0,0,1,7.683-1.506c3.946-.241,8.9,1.284,9.958,5.643.5,2.059-.731,4.023-.381,6.094a6.6,6.6,0,0,0,3.018,4.22,11.426,11.426,0,0,0,11.686.426,7.528,7.528,0,0,0,3.444-4.569,6.1,6.1,0,0,0,.057-2.834,10.95,10.95,0,0,0-1.3-2.726c-1.156-2.205.928-3.737,2.968-4.016a35.82,35.82,0,0,1,6.126.1c4.175.14,8.369.261,12.551.254,1.868,0,3.737-.013,5.6-.025a1,1,0,0,0,0-2.008h0Z" transform="translate(-846.15 -355.356)" fill="#010d3d"/>
      <path id="Trazado_9567" data-name="Trazado 9567" d="M1031.112,681.709q-7.912-.067-15.8.083c-2.1.038-4.88.527-6.742-.7a2.635,2.635,0,0,1-1.334-2.224c.07-1,.909-1.881,1.3-2.777,1.678-3.813-1.188-7.759-4.747-9.055s-8.477-.712-11.35,1.976a5.772,5.772,0,0,0-1.938,4.779c.114,1.08.553,2.091.667,3.158a4.907,4.907,0,0,1-.534,2.663c-2.065,4.143-7.054,4.919-11.191,4.308-2.5-.369-4.938-1.08-7.391-1.671s-5.02-1.131-7.556-1.6a93.266,93.266,0,0,0-15.124-1.881c-2.072-.032-4.353.553-5.325,2.574a3.4,3.4,0,0,0-.235,2.459c.3,1.023,1.176,1.767,1.646,2.714,1.379,2.79.254,6.4-1.951,8.426-2.771,2.548-6.825,1.741-9.278-.826a6.933,6.933,0,0,1-2.014-4.912c.064-2.161,1.112-4.073-.076-6.145-2.453-4.289-8.268-3.177-12.3-2.771l-15.855,1.589c-2.586.26-5.166.566-7.746.858-2.231.254-4.906.674-6.857-.744a3.714,3.714,0,0,1-1.551-2.116c-.2-1.1.445-2.237.648-3.292a8.858,8.858,0,0,0-9.183-10.269,9.055,9.055,0,0,0-7.492,7.314,8.66,8.66,0,0,0,.044,2.656c.191,1.207.667,2.618.1,3.794-.82,1.722-3.171,2.256-4.861,2.618a35.489,35.489,0,0,1-12.182.292,26.487,26.487,0,0,1-5.465-1.328c-1.157-.426-1.652,1.417-.508,1.836a32.928,32.928,0,0,0,11.883,1.7,34.547,34.547,0,0,0,6-.616,12.335,12.335,0,0,0,5.211-1.989,5.165,5.165,0,0,0,1.868-5.243,11.231,11.231,0,0,1-.241-3.222,6.884,6.884,0,0,1,.979-2.586,6.492,6.492,0,0,1,9.449-2.053,7.17,7.17,0,0,1,2.72,4.461c.33,2.1-.953,3.864-.864,5.916a5.23,5.23,0,0,0,3.12,4.48c2.18,1.068,4.645.864,6.984.61,5.294-.578,10.574-1.214,15.855-1.862l7.931-.972c2.472-.305,5.224-.96,7.7-.349,2.059.508,3.737,2.084,3.419,4.328a29.835,29.835,0,0,0-.521,3.088,7.719,7.719,0,0,0,.426,2.764,9.556,9.556,0,0,0,7.905,6.355c7.092.655,11.178-8.369,7.5-13.891-.655-.985-.991-1.8-.044-2.733a4.187,4.187,0,0,1,3.165-.883c2.523.063,5.065.445,7.568.75a138.176,138.176,0,0,1,15.27,2.732c4.537,1.08,9.6,2.682,14.216,1.087,3.527-1.22,6.647-4.283,6.672-8.2.013-1.945-1.042-3.946.28-5.687a8.012,8.012,0,0,1,4.48-2.529c3.559-.845,9.113.254,9.087,4.893-.013,2.027-1.957,3.393-1.83,5.491a5.235,5.235,0,0,0,3.387,4.283c2.192.9,4.677.68,6.99.629,2.574-.057,5.147-.089,7.721-.172s5.268-.254,7.905-.388a1,1,0,0,0,0-2.008h0Z" transform="translate(-845.859 -395.736)" fill="#010d3d"/>
      <path id="Trazado_9568" data-name="Trazado 9568" d="M1033.4,458.156c-4.073-.032-8.14-.038-12.214.051-2.065.044-4.131.057-6.2.14s-4.194.407-6.158-.083a3.568,3.568,0,0,1-2.37-1.652,2.626,2.626,0,0,1,.407-2.707,6.394,6.394,0,0,0,.807-5.567c-1.455-4.2-5.954-5.764-10.072-5.376-3.476.33-7.689,2.58-8,6.444-.172,2.091,1.023,3.978.324,6.075a7.658,7.658,0,0,1-3.781,4.105c-4.34,2.313-9.64.559-14.069-.534a134.894,134.894,0,0,0-15.328-2.91c-2.567-.324-5.147-.623-7.727-.763-2.1-.114-4.4.229-5.649,2.122a3.433,3.433,0,0,0-.566,2.478c.184,1.08,1.01,1.779,1.506,2.707a6.773,6.773,0,0,1,.54,4.639c-.718,3.215-3.387,5.992-6.85,5.757s-6.908-3.667-6.793-7.308c.07-2.161,1.118-4.08-.076-6.145a6.808,6.808,0,0,0-4.8-3.082c-2.472-.419-5.027.025-7.492.273l-7.931.794c-5.293.527-10.574,1.118-15.855,1.709-2.269.254-4.811.547-6.831-.756a3.085,3.085,0,0,1-1.436-2.11c-.165-1.195.521-2.4.712-3.559a9.029,9.029,0,0,0-4.309-9,8.135,8.135,0,0,0-10.072,1.716,8.769,8.769,0,0,0-2.326,4.963,10.043,10.043,0,0,0,.2,2.891c.21,1.163.515,2.453-.216,3.5-1.131,1.639-3.616,2.091-5.421,2.44a26.572,26.572,0,0,1-14.425-1.214c-1.15-.426-1.652,1.417-.508,1.837a28.4,28.4,0,0,0,14.12,1.379,15.068,15.068,0,0,0,6.19-2.014,5.046,5.046,0,0,0,2.2-5.077c-.248-2.1-.616-3.927.5-5.891A7.375,7.375,0,0,1,877.7,445c3.73-1.068,7.384,1.856,8.109,5.471.426,2.129-.953,3.889-.826,5.967a5.843,5.843,0,0,0,3.107,4.448c2.084,1.163,4.69.883,6.965.635,2.643-.286,5.287-.585,7.931-.871,5.293-.585,10.574-1.277,15.855-1.925,2.472-.305,5.224-.947,7.7-.375,2.18.508,3.806,2.211,3.393,4.531-.356,2.008-.75,3.775-.025,5.764a9.715,9.715,0,0,0,3.158,4.315,8.133,8.133,0,0,0,9.723.591,9.6,9.6,0,0,0,3.9-8.388,8.279,8.279,0,0,0-.477-2.218,15.861,15.861,0,0,0-1.36-2.421,1.8,1.8,0,0,1,.623-2.561,5.573,5.573,0,0,1,3.546-.553,132.3,132.3,0,0,1,15.556,2.072q3.851.715,7.657,1.646a47.672,47.672,0,0,0,7.314,1.411c4.175.356,8.509-.813,11.076-4.334a7.3,7.3,0,0,0,1.411-5.262,12.473,12.473,0,0,1-.451-3.273,3.671,3.671,0,0,1,1.169-2.122,10.338,10.338,0,0,1,11.013-1.068,4.667,4.667,0,0,1,2.059,4.88c-.273.985-.991,1.786-1.36,2.739a4.021,4.021,0,0,0-.083,2.841c1.538,4.359,6.908,3.915,10.619,3.889,4.213-.025,8.445-.152,12.646-.375q2.879-.152,5.757-.3a1,1,0,0,0,0-2.008h0Z" transform="translate(-846.407 -314.294)" fill="#010d3d"/>
    </g>
    <g id="Grupo_4977" data-name="Grupo 4977" transform="translate(962.271 291.062)">
      <path id="Trazado_9569" data-name="Trazado 9569" d="M1233.235,535.995c-3.362-4.455-6.888-8.763-10.5-13.014a23.21,23.21,0,0,1-1.15,6.825c-3.794,13.491-18.6,16.039-20.132,31.78-1.595,4.836,1.03,10.244,6.495,10.3,8.579-.2,20.7-14.082,24.79-21.276a30.975,30.975,0,0,0,3.247-10.86c-.909-1.258-1.824-2.516-2.758-3.756Z" transform="translate(-1190.34 -394.014)" fill="#64d8cc"/>
      <path id="Trazado_9570" data-name="Trazado 9570" d="M1308.557,507.141c-4.957-12.983-9.659-26.8-18.829-37.385-9.049-10.447-9.164-7.257-12.493-2.72-2.269,5.154,1.887,10.67,4.436,14.972,5.885,10.409,15.868,19.5,16.465,32.041.311,7.2,2.065,15.849-3.234,21.676-2.364,2.472-5.471,4.277-7.384,7.168C1280.107,561.473,1322.779,547.633,1308.557,507.141Z" transform="translate(-1217.894 -372.068)" fill="#64d8cc"/>
      <path id="Trazado_9571" data-name="Trazado 9571" d="M1272.475,721.9c-.648-17.38-.07-48.989-.318-66.394-.775-12.894,2.18-25.857,2.8-38.662.184-4.353-5.236-5.929-9.011-5.319-8.579.508-17.183.737-25.756,1.392-2.478.349-9.653.241-7.035,4.3.966,13.866-.146,27.853-.114,41.763-.369,14.088.006,42.361-.445,56.449.534,6.367-3.26,19.884-.635,20.055,7.289.483,11.877,3.692,10.619-2.624-.426-29.3,2.586-77.763.057-107.026a49.57,49.57,0,0,1,19.954-.585c.852,3.7.235,7.117.057,10.911-.743,13-.133,26.353-.578,39.361-.394,15.112-1.087,47.012,1.048,62,.324,3.5,6.711,4.372,9.513,1.576,2.161-2.161-.553-11.674-.152-17.2Z" transform="translate(-1201.289 -426.246)" fill="#fff"/>
      <path id="Trazado_9572" data-name="Trazado 9572" d="M1231.2,617.035c-.044,1.156-.089,2.313-.108,3.476-.019,1.277-.159,2.523-.254,3.787-.178,2.4,0,4.868.057,7.263q.153,7.263.229,14.533c.089,9.685.013,19.369-.375,29.041-.286,7.066-.82,14.12-1.233,21.18q-.6,10.342-1,20.7c-.248,6.787-.489,13.593-.273,20.38a1.37,1.37,0,0,0,1.328,1.328l12.792,1.43a1.336,1.336,0,0,0,1.328-1.328c-.165-3.8-.483-7.588-.629-11.394-.127-3.343-.191-6.685-.21-10.034-.044-7.321.1-14.641.28-21.956.381-15.131,1-30.268.883-45.411-.057-7.632-.292-15.277-1.036-22.877a1.366,1.366,0,0,0-1.328-1.328,1.34,1.34,0,0,0-1.328,1.328c1.379,14.082,1.163,28.31.845,42.437-.337,15.042-.979,30.083-.979,45.131,0,3.857.051,7.715.178,11.572.14,4.181.489,8.344.674,12.519l1.328-1.328-12.792-1.43,1.328,1.328c-.191-5.954-.013-11.922.184-17.876.235-6.971.566-13.942.953-20.907.375-6.672.883-13.339,1.207-20.017.47-9.672.6-19.356.553-29.041-.025-5.37-.108-10.74-.216-16.109-.057-2.739-.115-5.478-.267-8.21-.076-1.379-.356-2.726-.451-4.105s-.2-2.739-.318-4.105a.677.677,0,0,0-1.354,0h0Z" transform="translate(-1200.243 -428.055)" fill="#010d3d"/>
      <path id="Trazado_9573" data-name="Trazado 9573" d="M1248,632.942q5.157-.029,10.32-.064c3.444-.019,6.895-.184,10.32-.044l-.718-.94a30.357,30.357,0,0,0-.489,5.63c-.07,1.9-.191,3.927-.286,5.891q-.286,6.186-.451,12.385-.353,13.154-.508,26.309c-.2,17.285-.025,34.608.75,51.88.1,2.2.21,4.391.337,6.59l.191,3.184a7.773,7.773,0,0,0,.5,3.323c.655,1.125,1.989,1.195,3.139,1.347a28.591,28.591,0,0,0,3.571.311,9.583,9.583,0,0,0,6.456-2.078c1.036-.89-.375-2.758-1.481-1.913a8.117,8.117,0,0,1-5.471,1.474,21.667,21.667,0,0,1-2.644-.273,6.923,6.923,0,0,0-1.4-.267c.146-.013.14.419.083-.133-.032-.292-.032-.591-.051-.89q-.362-5.567-.6-11.146c-.356-8.115-.553-16.236-.667-24.358-.229-17.1-.1-34.208.222-51.308.083-4.486.178-8.973.241-13.459.032-2.129.032-4.264.1-6.393.032-.991.057-1.989.089-2.98a17,17,0,0,0-.184-3.114.736.736,0,0,0-.718-.547c-3.425.2-6.889.1-10.32.14s-6.876.083-10.32.121a.664.664,0,0,0,0,1.328h0Z" transform="translate(-1207.241 -433.521)" fill="#010d3d"/>
      <path id="Trazado_9574" data-name="Trazado 9574" d="M1296.4,616.358a26.3,26.3,0,0,1,.375,7.3c-.248,2.44-.432,4.76-.718,7.13-.572,4.836-1.43,9.634-1.786,14.5-.572,7.861-.311,15.817-.273,23.7q.1,23.516.623,47.019c.178,7.969.394,15.938.725,23.9.07,1.69,2.707,1.7,2.637,0-.616-15.073-.9-30.159-1.1-45.246q-.162-11.677-.222-23.347c-.044-7.715-.229-15.474.1-23.182.235-5.465,1.138-10.841,1.786-16.268a40.544,40.544,0,0,0,.419-7.893,66.178,66.178,0,0,0-.928-8.058c-.222-1.08-1.83-.616-1.64.451Z" transform="translate(-1224.209 -427.664)" fill="#010d3d"/>
      <g id="Grupo_4971" data-name="Grupo 4971" transform="translate(44.427 312.526)">
        <path id="Trazado_9575" data-name="Trazado 9575" d="M1274.391,813.02a22.668,22.668,0,0,1-14.883,8.75,4.781,4.781,0,0,0-2.51.782c-1.366,1.144-.788,3.451.458,4.722,2.326,2.364,6.183,2.612,9.3,1.481s5.681-3.387,8.166-5.586a1.539,1.539,0,0,1,1-.508,2.173,2.173,0,0,1,.928.432c1.576.9,3.686-.343,4.353-2.034s.324-3.59-.026-5.37a1.014,1.014,0,0,0-.311-.655,1,1,0,0,0-.6-.127,50.719,50.719,0,0,0-6.291.375" transform="translate(-1254.895 -812.268)" fill="#010d3d"/>
        <path id="Trazado_9576" data-name="Trazado 9576" d="M1273.1,812.048a21.941,21.941,0,0,1-2.675,2.294c-.934.737-1.786,1.512-2.771,2.173a22.084,22.084,0,0,1-6.234,2.917,24.326,24.326,0,0,1-3.368.68,4.516,4.516,0,0,0-3.222,1.627c-1.334,1.837-.547,4.429.877,5.973,3.4,3.667,9.2,2.968,13.167.756a26.1,26.1,0,0,0,3.266-2.243c.464-.362.915-.737,1.36-1.119a11.752,11.752,0,0,0,1.525-1.334s.349-.28.108-.2c-.013,0-.165-.026-.038.019.241.089.464.28.7.381a3.7,3.7,0,0,0,1.678.318,4.885,4.885,0,0,0,3.05-1.4c2.116-2.046,1.868-5.44,1.188-8.064-.451-1.748-2.015-1.684-3.514-1.652-1.652.038-3.3.165-4.944.362a1.366,1.366,0,0,0-1.328,1.328,1.34,1.34,0,0,0,1.328,1.328c1.195-.146,2.389-.254,3.59-.311.6-.032,1.2-.051,1.8-.057.07,0,.89.025.9,0-.362-.47-.489-.534-.375-.191.038.178.07.356.1.54.318,1.709.686,4.2-1.118,5.224a1.5,1.5,0,0,1-1.722-.076,2.488,2.488,0,0,0-3,.349,52.239,52.239,0,0,1-5.2,4.118c-2.968,1.836-7.537,3.037-10.409.3a3.19,3.19,0,0,1-1.01-1.837c-.115-.851.311-1.233,1.1-1.423.953-.222,1.945-.286,2.91-.5a21.916,21.916,0,0,0,2.834-.82,23.527,23.527,0,0,0,6.139-3.285,15.136,15.136,0,0,0,2.625-2.351,24.008,24.008,0,0,0,1.9-2.885c.451-.731-.61-1.576-1.2-.928h0Z" transform="translate(-1254.141 -811.836)" fill="#010d3d"/>
      </g>
      <g id="Grupo_4972" data-name="Grupo 4972" transform="translate(12.261 309.402)">
        <path id="Trazado_9577" data-name="Trazado 9577" d="M1223.379,808.97c-3.737,3.343-9.068,4.162-14.082,4.353-.724.026-1.608.14-1.894.807a1.5,1.5,0,0,0-.07.769c.305,2.383,3.031,3.584,5.4,3.965,5.115.826,11.025-.375,13.974-4.626,1.57.979,3.737,1.919,5.1.667,1.163-1.074.813-2.974.261-4.455a.8.8,0,0,0-.864-.661l-6.069-.559a5.5,5.5,0,0,0-1.582.006,7.031,7.031,0,0,0-2.04.985c-3.444,2.021-7.632,2.339-11.616,2.1a6.683,6.683,0,0,0-2.777.191,2.127,2.127,0,0,0-1.493,2.116,2.446,2.446,0,0,0,.464,1.01c1.379,1.964,3.781,2.949,6.132,3.425,5.4,1.1,11.623-.286,14.984-4.658" transform="translate(-1204.286 -807.668)" fill="#010d3d"/>
        <path id="Trazado_9578" data-name="Trazado 9578" d="M1221.69,807.289a16.51,16.51,0,0,1-8.331,3.52,38.005,38.005,0,0,1-4.575.432c-1.531.07-3.222.438-3.508,2.211-.489,3.076,2.809,5.071,5.319,5.719a18.641,18.641,0,0,0,8.541.064,13.038,13.038,0,0,0,7.95-5.077l-1.8.47c1.938,1.188,4.645,2.256,6.615.534,1.728-1.512,1.468-4.442.483-6.31-.674-1.277-2.211-1.157-3.451-1.271-1.417-.133-2.834-.26-4.251-.394a6.043,6.043,0,0,0-3.826.686,17.348,17.348,0,0,1-3.285,1.576,21.986,21.986,0,0,1-7.613.833c-2.332-.1-5.554-.261-6.329,2.612-.642,2.4,1.976,4.518,3.845,5.459a16.827,16.827,0,0,0,6.742,1.627c4.944.222,10.377-1.506,13.326-5.675.833-1.176-1.049-2.631-2-1.544a13.1,13.1,0,0,1-8.662,4.493c-3.2.33-7.422-.019-9.85-2.4-.337-.33-1.023-.909-.782-1.417.356-.75,1.652-.61,2.319-.578a35.391,35.391,0,0,0,6.3-.127,17.741,17.741,0,0,0,5.827-1.729,9.133,9.133,0,0,1,2.44-1.245,14.921,14.921,0,0,1,3.355.235c.375.032,3.934.413,3.946.362l-.2-.159c-.222-.229-.267-.21-.133.051a5.488,5.488,0,0,0,.254.858,3.753,3.753,0,0,1,.133,1.188c-.159,2.161-2.9.655-3.889.051a1.357,1.357,0,0,0-1.8.47c-2.726,3.832-8.223,4.76-12.589,4a8.226,8.226,0,0,1-3.063-1.087,3.42,3.42,0,0,1-.9-.807,2.309,2.309,0,0,1-.292-.553,2.671,2.671,0,0,1-.1-.388c-.038-.165.013-.063-.07-.006.3-.2.909-.108,1.233-.127.718-.032,1.436-.083,2.148-.146a34.763,34.763,0,0,0,4.118-.61,18.186,18.186,0,0,0,8.249-3.965c1.277-1.118-.591-2.974-1.862-1.862h0Z" transform="translate(-1203.524 -806.921)" fill="#010d3d"/>
      </g>
      <path id="Trazado_9579" data-name="Trazado 9579" d="M1276.019,546.526c.216-24.917-.851-50.126-5.077-74.693-2.5-10.562-8.28-17.869-24.516-15.5-13.091,1.906-13.014,17.793-13.968,28.857-1.252,13.726-2.472,27.459-3.3,41.217-.324,6.615-.851,13.231-.839,19.846-.2,4.372-2.694,12,3.158,11.585,12.15-.845,30.388.127,42.57,0,2.783.4,2.275-8.687,1.964-11.311Z" transform="translate(-1200.048 -369.556)" fill="#64d8cc"/>
      <path id="Trazado_9580" data-name="Trazado 9580" d="M1285.313,484.249c1.093,1.913,2.326,3.737,3.476,5.618.648,1.055,1.3,2.116,1.919,3.19.26.458.521.909.813,1.347.267.4.477.883.928,1.093a.539.539,0,0,0,.8-.458,2.306,2.306,0,0,0-.5-1.284c-.273-.47-.578-.915-.89-1.366-.712-1.023-1.4-2.046-2.1-3.076-1.233-1.817-2.453-3.667-3.578-5.56a.5.5,0,0,0-.858.5h0Z" transform="translate(-1221.054 -379.628)" fill="#010d3d"/>
      <path id="Trazado_9581" data-name="Trazado 9581" d="M1299.708,600.011a5.4,5.4,0,0,0,4.626-1.157l-.693-.693a4.282,4.282,0,0,1-2.3,1.144,4.363,4.363,0,0,1-1.22.013,3.289,3.289,0,0,0-1.4-.14.333.333,0,0,0-.2.483c.273.508.934.6,1.455.661a5.258,5.258,0,0,0,1.576-.07,5.427,5.427,0,0,0,2.777-1.392c.464-.445-.216-1.093-.693-.693a4.367,4.367,0,0,1-3.667.9c-.623-.133-.89.82-.267.96h0Z" transform="translate(-1225.878 -421.377)" fill="#010d3d"/>
      <path id="Trazado_9582" data-name="Trazado 9582" d="M1241.092,478.215a10.976,10.976,0,0,1-2.091,2.891,13.111,13.111,0,0,0-1.182,1.531,3.671,3.671,0,0,0-.375.89,1.636,1.636,0,0,0-.038.839.241.241,0,0,0,.343.14,2.754,2.754,0,0,0,.547-.572c.2-.254.419-.5.61-.756.375-.5.763-.979,1.163-1.455a11.418,11.418,0,0,0,2.129-3.2.57.57,0,1,0-1.1-.3h0Z" transform="translate(-1203.599 -377.547)" fill="#010d3d"/>
      <g id="Grupo_4973" data-name="Grupo 4973" transform="translate(0 99.267)">
        <path id="Trazado_9583" data-name="Trazado 9583" d="M1208.414,479.44a117.046,117.046,0,0,1-4.969,20.049c-.534,1.544-1.6,3.362-3.578,3.146-2.739-.305-3.749-4.194-6.488-4.429a3.965,3.965,0,0,0-1.894.394c-4.118,1.773-6.043,5.872-6.189,9.926-.108,2.834.947,6.266,4.105,7.619,2.383,1.023,5.872.915,6.825,3a3.466,3.466,0,0,1,.1,2.046,50.392,50.392,0,0,1-5.834,16.427,1.743,1.743,0,0,0-.311,1.557,2.739,2.739,0,0,0,1.385,1.093q4.347,2.116,8.808,4.023a23.075,23.075,0,0,0,6.495,2c2.243.235,4.626-.28,5.834-1.754,1.163-1.423,1.036-3.406,1.76-5.052,1.4-3.171,6.412-4.537,10.269-2.8s5.77,6.209,3.921,9.183c-1.245,2-3.946,3.775-2.917,6.069.712,1.6,2.891,2.383,4.8,2.9a124.357,124.357,0,0,0,19.776,3.737,55.875,55.875,0,0,0,5.84-15.27,10.472,10.472,0,0,1,1.3-3.768,4.269,4.269,0,0,1,3.762-1.9c1.919.121,3.584,1.538,5.5,1.856,2.548.413,4.639-1.22,5.9-2.961a14.752,14.752,0,0,0,2.8-7.67,7.572,7.572,0,0,0-1.087-4.88,5.683,5.683,0,0,0-4.963-2.485c-1.106.121-2.161.674-3.266.356-1.754-.5-1.964-2.536-1.7-4a53.761,53.761,0,0,1,6.571-17.9,2.346,2.346,0,0,0,.477-1.557c-.133-.756-.922-1.354-1.652-1.868-5.954-4.169-12.506-8.56-19.846-9.043a6.05,6.05,0,0,0-3.165.432c-1.519.807-1.773,2.612-1.538,4.213s.826,3.241.483,4.772c-.515,2.319-3.216,3.838-6.069,3.851a12.735,12.735,0,0,1-7.893-3.088c-1.709-1.43-3.088-3.355-2.91-5.249.241-2.485,3.088-4.544,2.027-7-.693-1.6-2.758-2.523-4.633-3.184a81.758,81.758,0,0,0-17.456-4.073l-2.313,13.644" transform="translate(-1184.615 -476.94)" fill="#ccf0f9"/>
        <path id="Trazado_9584" data-name="Trazado 9584" d="M1207.367,478.561c-.712,3.47-1.481,6.939-2.377,10.365a76.763,76.763,0,0,1-3.025,9.964c-.375.915-1.036,2.034-2.148,2.046a3.557,3.557,0,0,1-2.408-1.487c-1.665-1.748-3.4-3.565-6.05-2.663-4.969,1.69-7.626,7.619-7.054,12.589a8.382,8.382,0,0,0,3.209,6.024c1.964,1.4,4.614,1.226,6.7,2.415,1.417.807,1.048,2.231.775,3.6a47.382,47.382,0,0,1-1.239,4.861,50.041,50.041,0,0,1-3.984,9.272c-.737,1.347-1.671,2.828-.28,4.124a7.034,7.034,0,0,0,1.735,1.029c.858.426,1.716.845,2.586,1.239a81.227,81.227,0,0,0,9.538,3.984c2.733.852,6.208,1.239,8.706-.5a5.932,5.932,0,0,0,2.25-3.521,9.239,9.239,0,0,1,1.22-3.47c1.43-1.836,4.207-2.408,6.4-2.065a7.19,7.19,0,0,1,5.567,4.213,4.765,4.765,0,0,1,.28,3.025,7.816,7.816,0,0,1-1.926,2.815,6.777,6.777,0,0,0-1.837,3.292,3.97,3.97,0,0,0,1.4,3.451,9.826,9.826,0,0,0,3.565,1.792c1.684.521,3.412.9,5.122,1.309q5.281,1.258,10.651,2.059,2.593.381,5.2.667a1.1,1.1,0,0,0,.966-.553,58.925,58.925,0,0,0,4.061-8.909q.82-2.3,1.443-4.664a33.465,33.465,0,0,1,1.169-4.537,3.419,3.419,0,0,1,2.764-2.237c1.4-.127,2.758.756,4.01,1.265a6.882,6.882,0,0,0,7.67-1.57,14.46,14.46,0,0,0,3.933-7.74c.521-2.8.381-6.082-1.754-8.312a7.041,7.041,0,0,0-3.679-2.034,5.677,5.677,0,0,0-2.1,0,5.687,5.687,0,0,1-2.377.337c-.909-.261-1-1.379-.96-2.18a23.492,23.492,0,0,1,.852-4.328,50.831,50.831,0,0,1,3.2-9.163c.686-1.474,1.436-2.923,2.25-4.334.75-1.3,1.15-2.586.089-3.864a17.315,17.315,0,0,0-3.495-2.669c-1.239-.871-2.5-1.709-3.787-2.5a41.891,41.891,0,0,0-8.363-4.073,24.872,24.872,0,0,0-4.455-1.074,10.207,10.207,0,0,0-4.639.083c-2.853.96-3.2,3.883-2.688,6.463.273,1.392.813,2.987.063,4.321a4.649,4.649,0,0,1-2.828,2c-2.764.794-5.834-.432-8.1-1.976-2.027-1.373-4.359-3.775-3.076-6.361,1.061-2.148,2.694-4.429,1.087-6.787s-5-3.19-7.594-4.01a92.489,92.489,0,0,0-10.034-2.561,44.726,44.726,0,0,0-5.116-.763,1.2,1.2,0,0,0-1.176,1.176c-.54,4.486-.941,9.03-1.7,13.485-.127.737,1,1.049,1.125.311.769-4.518,1.906-9,2.885-13.485l-1.449.82c3.355.572,6.711,1,10.028,1.779,1.633.388,3.247.845,4.849,1.354a31.5,31.5,0,0,1,4.258,1.538c.959.47,2.23,1.169,2.389,2.351.14,1.049-.661,2.11-1.144,2.968a7.692,7.692,0,0,0-1.2,3.476,6.22,6.22,0,0,0,1.379,3.819c3.247,4.34,10.326,7.2,15.226,3.889a5.75,5.75,0,0,0,2.243-2.713,8.21,8.21,0,0,0-.038-4.467,6.077,6.077,0,0,1-.057-3.514c.578-1.366,2.294-1.239,3.527-1.163,6.094.381,11.527,3.667,16.5,6.933a24.068,24.068,0,0,1,3.565,2.5c.515.5.375.794.038,1.379-.407.705-.807,1.417-1.188,2.135a57.628,57.628,0,0,0-3.724,8.808q-.734,2.24-1.277,4.531a18.188,18.188,0,0,0-.693,4.035,4.511,4.511,0,0,0,1.074,3.1,3.961,3.961,0,0,0,3.8.928,7.41,7.41,0,0,1,2.04-.3,4.344,4.344,0,0,1,1.932.693,4.84,4.84,0,0,1,2.141,3.2,12.151,12.151,0,0,1-1.773,8.286c-1.284,2.167-3.4,4.207-6.12,3.387-1.341-.407-2.529-1.22-3.9-1.563a5.411,5.411,0,0,0-4.054.521c-2.739,1.6-3,4.868-3.7,7.638a53.622,53.622,0,0,1-3.127,8.941c-.655,1.449-1.379,2.866-2.148,4.251l.966-.553q-5.319-.562-10.562-1.582a75.382,75.382,0,0,1-10.034-2.466c-1.01-.343-2.4-.845-2.891-1.887-.451-.953.273-1.9.852-2.624a15.319,15.319,0,0,0,2.186-2.974,6.317,6.317,0,0,0,.54-3.349c-.61-5.37-6.17-8.395-11.172-7.537a7.636,7.636,0,0,0-5.6,3.743c-.642,1.3-.674,2.752-1.15,4.1a3.632,3.632,0,0,1-2.79,2.262c-3.171.775-6.514-.693-9.367-1.945q-2.354-1.03-4.683-2.129l-2.192-1.03-1.093-.515a3.7,3.7,0,0,1-1.093-.585c-.413-.464.458-1.519.7-1.983.375-.724.724-1.468,1.055-2.211.68-1.512,1.309-3.044,1.856-4.607a41.264,41.264,0,0,0,2.313-9.462c.261-2.739-2.072-3.781-4.334-4.321A15.712,15.712,0,0,1,1189,514.6a5.819,5.819,0,0,1-2.5-2.523c-2.339-4.448-.153-10.765,4.245-13.008,1.144-.585,2.294-.953,3.4-.133a19.056,19.056,0,0,1,2.1,2.2c1.659,1.7,4.169,2.567,6.126.769a7.109,7.109,0,0,0,1.754-3.031c.572-1.678,1.093-3.374,1.582-5.077q1.43-4.976,2.364-10.066c.305-1.665.508-3.349.693-5.033.083-.769-1.195-.94-1.354-.184h0Z" transform="translate(-1184.229 -476.245)" fill="#010d3d"/>
      </g>
      <g id="Grupo_4974" data-name="Grupo 4974" transform="translate(2.37 151.84)">
        <path id="Trazado_9585" data-name="Trazado 9585" d="M1190.317,574.181a14.073,14.073,0,0,1,.807-11.566c.667-1.214,2.072-2.466,3.26-1.754.845.508.928,1.684.915,2.669l-.14,9.57c.191-3.33.6-7.086,3.235-9.132a.752.752,0,0,1,.585-.216c.273.057.407.362.489.629a29.125,29.125,0,0,1,1.252,11.407l1.544-4.861a1.866,1.866,0,0,1,.559-.991,1.277,1.277,0,0,1,1.62.254,3.3,3.3,0,0,1,.718,1.62,18.575,18.575,0,0,1,.375,5.592c.864-1.2,1.061-3.235,2.529-3.406a2.079,2.079,0,0,1,1.919,1.245c1.341,2.491-.635,5.783-3.323,6.672s-5.649-.006-8.166-1.309c-1.277-.661-2.5-1.423-3.717-2.186a8.011,8.011,0,0,1-4.817-8.5c-.063-2.1-.057-4.423,1.309-6.024" transform="translate(-1188.498 -559.587)" fill="#fff"/>
        <path id="Trazado_9586" data-name="Trazado 9586" d="M1190.584,573.346a12.915,12.915,0,0,1-.6-6.31c.28-1.817.852-4.277,2.319-5.522.14-.114.578-.489.788-.419.235.076.369.648.4.845a17.264,17.264,0,0,1,0,3.139c-.038,2.453-.222,4.957-.076,7.41a1.2,1.2,0,0,0,2.409,0,16.4,16.4,0,0,1,.4-4.563,8.892,8.892,0,0,1,.788-2.059,5.9,5.9,0,0,1,.585-.883c.222-.273.572-.5.781-.788l.159-.114-.578-.051a6.226,6.226,0,0,0,.235.858c.121.477.229.96.33,1.443a27.422,27.422,0,0,1,.438,2.777,32.682,32.682,0,0,1-.019,6.056c-.121,1.443,2.027,1.608,2.434.331l1-3.146c.184-.572.343-1.15.547-1.716l.076-.222c.1-.133.1-.165-.019-.089-.2-.019.076.153.1.2.877,1.824.833,4.277.68,6.259-.1,1.3,1.684,1.576,2.3.623a8.81,8.81,0,0,0,.724-1.5,3.839,3.839,0,0,1,.616-1.252c.674-.655,1.264.788,1.334,1.3.3,2.18-1.76,4.029-3.724,4.391-2.891.534-5.789-.991-8.185-2.421s-4.957-2.694-5.948-5.433c-.96-2.656-1.474-6.514.241-8.986.3-.432-.375-.94-.731-.559a6.9,6.9,0,0,0-1.646,4.372c-.057.839-.07,1.678-.1,2.516a18.377,18.377,0,0,0-.019,2.955c.483,3.845,4.4,5.846,7.429,7.575,3.254,1.856,7.378,3.476,11.044,1.8,2.605-1.188,4.62-4.41,3.648-7.282-.553-1.633-2.211-3.158-4.029-2.453-1.614.623-1.894,2.459-2.8,3.73l2.3.623a20.134,20.134,0,0,0-.216-4.906c-.241-1.481-.635-3.209-2.205-3.806s-2.79.438-3.279,1.906c-.54,1.614-1.029,3.241-1.544,4.861l2.434.33a28.74,28.74,0,0,0-.432-7.524,26.893,26.893,0,0,0-.9-3.584c-.312-.966-.845-2.211-2.123-1.868a4.657,4.657,0,0,0-2.135,1.843,9.1,9.1,0,0,0-1.271,2.485,30.028,30.028,0,0,0-1.144,5.961h2.408c.267-3.057.127-6.2.159-9.259.013-1.125.013-2.561-.833-3.438a2.963,2.963,0,0,0-3.381-.477c-2.237,1.131-3.209,4.251-3.6,6.533a15.221,15.221,0,0,0,.794,7.937c.381.991,1.976.585,1.614-.445h0Z" transform="translate(-1187.958 -558.975)" fill="#010d3d"/>
      </g>
      <g id="Grupo_4976" data-name="Grupo 4976" transform="translate(62.417 154.522)">
        <path id="Trazado_9587" data-name="Trazado 9587" d="M1297.266,570.062a13.435,13.435,0,0,0-2.237-2.942l-.083-.083a.356.356,0,0,0-.032-.051c-.858-1.5-2.186-4.391-4.372-3.679-2.211.718-2.364,3.412-1.919,5.306.1.388.21.775.324,1.169-.121-.057-.235-.121-.356-.172a5.982,5.982,0,0,0-3.177-.438c-.991.146-2.237.521-2.3,1.709a10.538,10.538,0,0,0,1.582,5.484,12.217,12.217,0,0,0,1.277,1.811,4.158,4.158,0,0,0-.6.159,3.283,3.283,0,0,0-2.148,2.281c-.337,1.519.489,2.485,1.576,3.254a4.392,4.392,0,0,0-2.059,2.256,3.83,3.83,0,0,0,2.237,5.09,6.56,6.56,0,0,0,6.272-1.061,4.713,4.713,0,0,0,1.544-4.639c1.087-.909,1.474-2.377,2.453-3.514a25.574,25.574,0,0,0,2.351-2.415,7.549,7.549,0,0,0,1.112-2.968,9.667,9.667,0,0,0-1.449-6.558Z" transform="translate(-1282.454 -563.196)" fill="#fff"/>
        <g id="Grupo_4975" data-name="Grupo 4975" transform="translate(0 0.014)">
          <path id="Trazado_9588" data-name="Trazado 9588" d="M1297.975,572.681a39.984,39.984,0,0,0-2.688-5.681c-.858-1.493-2.18-4.378-4.353-3.673s-2.351,3.406-1.906,5.287a47.856,47.856,0,0,0,2.288,6.615l2.288-.966a9.585,9.585,0,0,0-4.62-4.639,5.963,5.963,0,0,0-3.171-.432c-.985.14-2.224.515-2.288,1.7a10.491,10.491,0,0,0,1.582,5.478,11.653,11.653,0,0,0,4.207,4.277c1.4.807,2.644-1.506,1.233-2.11a8.14,8.14,0,0,1-4.995-6.475,7.06,7.06,0,0,0-.019-.991c-.191.311-.184.419.026.337.07-.019.14-.032.21-.044a3.462,3.462,0,0,1,.572-.038,4.621,4.621,0,0,1,2.205.6,7.5,7.5,0,0,1,2.9,3.616c.591,1.265,2.809.356,2.288-.966-.648-1.64-1.252-3.292-1.792-4.969a12.07,12.07,0,0,1-.616-2.3,2.7,2.7,0,0,1,.038-.985c.044-.172.14-.311.191-.477.019-.051.254-.216.083-.165-.133.038.089.038.172.1.114.083.216.165.324.254.292.254.572.534.845.813.572.591,1.106,1.214,1.62,1.849a19.239,19.239,0,0,1,2.523,4.359c.216.489,1.068.14.877-.369h0Z" transform="translate(-1282.84 -563.218)" fill="#010d3d"/>
          <path id="Trazado_9589" data-name="Trazado 9589" d="M1289.174,579.378a6.574,6.574,0,0,0-3.8-.146,3.28,3.28,0,0,0-2.135,2.275c-.61,2.745,2.605,3.7,4.3,4.906l.616-2.288a5.106,5.106,0,0,0-5.4,2.891,3.758,3.758,0,0,0,2.224,5.077,6.5,6.5,0,0,0,6.259-1.055,4.6,4.6,0,0,0,1.061-5.8l-.737,1.817c2.129-.635,2.4-2.688,3.679-4.175a25.444,25.444,0,0,0,2.345-2.408,7.452,7.452,0,0,0,1.112-2.968,9.6,9.6,0,0,0-1.443-6.539,13.434,13.434,0,0,0-2.237-2.942,13.9,13.9,0,0,0-2.726-2.351.413.413,0,0,0-.559.559,25.609,25.609,0,0,0,1.792,2.605c.559.883,1.182,1.767,1.7,2.694a9.422,9.422,0,0,1,1.1,5.427,5.349,5.349,0,0,1-.813,2.307,17.582,17.582,0,0,1-1.97,1.919,10.8,10.8,0,0,0-1.328,2.04c-.318.566-.635,1.265-1.315,1.443a1.252,1.252,0,0,0-.737,1.817,2.255,2.255,0,0,1-.54,2.758,3.956,3.956,0,0,1-3.508.686,1.431,1.431,0,0,1-1.023-2.154c.553-1.1,1.97-1.29,3.063-1.195,1.322.121,1.519-1.659.616-2.288a12.07,12.07,0,0,0-2.116-.979c-.477-.21-1.258-.566-1.379-1.15-.108-.515.394-.915.833-1.068a4.749,4.749,0,0,1,2.542.146c1.207.267,1.729-1.563.515-1.862h0Z" transform="translate(-1282.451 -564.094)" fill="#010d3d"/>
        </g>
      </g>
      <path id="Trazado_9590" data-name="Trazado 9590" d="M1255.994,470.5a27.1,27.1,0,0,1-1.658,2.644c-.286.4-.578.794-.89,1.182a6.888,6.888,0,0,1-1,1.138l.3-.172c.121-.051.032-.025-.083-.1a2.6,2.6,0,0,1-.216-.146c-.159-.108-.3-.222-.451-.343a10.579,10.579,0,0,1-.9-.871,9.69,9.69,0,0,1-1.392-1.97,10.409,10.409,0,0,1-.877-2.186,11.316,11.316,0,0,1-.26-1.226,6.416,6.416,0,0,0-.172-1.226.5.5,0,0,0-.947,0,3.951,3.951,0,0,0,.07,1.722,11.52,11.52,0,0,0,.388,1.6,11.757,11.757,0,0,0,1.531,3.069,12.785,12.785,0,0,0,2.288,2.466c.483.407,1.087.839,1.671.337a8.711,8.711,0,0,0,1.15-1.436,27.787,27.787,0,0,0,2.44-3.9c.337-.655-.635-1.233-.991-.578h0Z" transform="translate(-1207.247 -373.56)" fill="#010d3d"/>
      <path id="Trazado_9591" data-name="Trazado 9591" d="M1262.292,473.192a20.566,20.566,0,0,0,1.462,2.542c.261.381.534.75.813,1.112.159.2.324.4.483.6a4.11,4.11,0,0,1,.375.464.684.684,0,0,0,.991.407,29.526,29.526,0,0,0,3.7-2.942c.928-.864,2.192-2.205,1.945-3.6-.114-.648-.985-.5-1.169,0-.108.286-.127.585-.248.871a3.427,3.427,0,0,1-.426.7,9.116,9.116,0,0,1-1.271,1.3,28.524,28.524,0,0,1-3.222,2.5l.521-.07s-.26-.3-.337-.388c-.159-.172-.305-.35-.451-.527-.292-.362-.572-.737-.839-1.118a20.549,20.549,0,0,1-1.417-2.389c-.311-.616-1.22-.076-.921.54h0Z" transform="translate(-1212.662 -375.193)" fill="#010d3d"/>
      <path id="Trazado_9592" data-name="Trazado 9592" d="M1275.6,375.171c.762-1.093,1.042-6.736.947-8.744-.006-.566-1-2.58-1.976-2.936-2.434.108-4.976-1.767-3.978-4.442-6.3,2.313-2.129-2.574-7.213-9.183-7.441-11.591-33.686-17.641-41.229-3.667-2.478,5.649.083,11.96.165,17.844-1.43,18.607-3.7,44.432,22.629,41.719-.083,4.086-.915,6.927-.953,12-.013,1.544,1.57,2.383,1.913,3.374,1.119,2.93,3.622.349,4.811-1.131,2.993-4.035.782-9.532,2-14.177.121-.915,1.176-1.506.877-2.453,10.4-1.468,12.716-10.18,14.73-19.585a31.041,31.041,0,0,0,.756-6.45,8.432,8.432,0,0,0,3.768.362,4.452,4.452,0,0,0,2.758-2.529Z" transform="translate(-1197.66 -326.625)" fill="#fff"/>
      <path id="Trazado_9593" data-name="Trazado 9593" d="M1221.383,365.932c.025,4.073-.426,8.128-.489,12.2-.064,4.048-.254,8.09-.426,12.138-.305,6.971-.127,15.378,5.306,20.558a21.967,21.967,0,0,0,3.9,2.745,20.3,20.3,0,0,0,4.575,2.014,26.529,26.529,0,0,0,11.127.686A36.568,36.568,0,0,0,1255,413.7a23.038,23.038,0,0,0,8.147-5.236c5.224-5.611,6.755-13.771,6.571-21.193a.887.887,0,0,0-1.773,0c-.775,6.183-1.328,12.722-5.007,17.99a24.513,24.513,0,0,1-6.787,6.177,24.935,24.935,0,0,1-8.725,3.209,27.662,27.662,0,0,1-11.121.191,18.818,18.818,0,0,1-4.436-1.5,17.093,17.093,0,0,1-2-1.125,10.659,10.659,0,0,1-1.818-1.69c-4.81-5.116-5.541-12.169-5.338-18.867.127-4.245.375-8.49.438-12.741.032-2.135,0-4.277-.14-6.412s-.407-4.372-.515-6.571a.556.556,0,0,0-1.112,0h0Z" transform="translate(-1197.406 -336.57)" fill="#010d3d"/>
      <path id="Trazado_9594" data-name="Trazado 9594" d="M1294.025,379.02c.6-2.072,4.112-2.523,5.808-1.76,2.377,1.061,2.1,4.48,2.046,6.609-.057,2.237-.407,4.874-2.421,6.24a2.89,2.89,0,0,1-2.485.438,3.315,3.315,0,0,1-1.042-.508c-.464-.35-.75-.743-1.385-.724l.464.267-.114-.152c-.261-.343-.915-.28-.89.241v.184l.165-.381c-.8.979.089,2.065.928,2.682a4.625,4.625,0,0,0,3.038.794c2.5-.222,4.3-2.231,5.116-4.474a12.966,12.966,0,0,0,.648-4.188,20.948,20.948,0,0,0-.254-4.277,5.277,5.277,0,0,0-4.868-4.62c-2.364-.146-5.2.788-5.84,3.33a.567.567,0,0,0,1.093.3h0Z" transform="translate(-1223.85 -340.209)" fill="#010d3d"/>
      <path id="Trazado_9595" data-name="Trazado 9595" d="M1299.994,364.059c.337-.845.82-1.627,1.125-2.485s.521-1.728.762-2.586c.477-1.735.89-3.482,1.252-5.249a65.308,65.308,0,0,0,1.468-10.695,1.16,1.16,0,0,0-1.144-1.144,1.173,1.173,0,0,0-1.144,1.144c-.426,3.482-.763,6.933-1.474,10.371q-.515,2.5-1.176,4.957c-.229.864-.521,1.722-.731,2.6s-.292,1.773-.534,2.65c-.292,1.055,1.208,1.4,1.6.438Z" transform="translate(-1225.833 -328.005)" fill="#010d3d"/>
      <path id="Trazado_9596" data-name="Trazado 9596" d="M1266.426,333.644a99.886,99.886,0,0,0-12.563-7.918,51.738,51.738,0,0,0-6.653-3.088,18.355,18.355,0,0,0-3.667-.928,8.056,8.056,0,0,0-3.756.089,1.086,1.086,0,0,0-.642,1.576,13.808,13.808,0,0,0,3.9,4.277l.515-1.214c-1.678-.686-3.336-1.436-5.014-2.135a41.986,41.986,0,0,0-5.147-1.684,83.915,83.915,0,0,0-10.542-2.2,32.918,32.918,0,0,0-10.822.127,52.028,52.028,0,0,0-5.173,1.36c-1.22.369-2.8,1.214-2.415,2.771a4.2,4.2,0,0,0,1.7,1.97c.724.585,1.462,1.15,2.231,1.678a33.182,33.182,0,0,0,4.931,2.822L1213.9,329a44.667,44.667,0,0,0-9.748.349c-2.516.362-5.808.852-6.9,3.533a3.1,3.1,0,0,0,.762,3.514,11.77,11.77,0,0,0,3.737,1.83c3.044,1.182,6.151,2.211,9.3,3.088l.305-2.262c-3.146-.032-14.12,1.029-10.231,6.577a20.274,20.274,0,0,0,11.47,7.912,1.078,1.078,0,0,0,.572-2.078,21.256,21.256,0,0,1-9.3-6.05c-.369-.426-1.455-1.443-1.195-2.078s1.506-.864,2.04-1.029a21.972,21.972,0,0,1,6.641-.947,1.157,1.157,0,0,0,.3-2.262c-2.555-.712-5.084-1.519-7.575-2.44-1.188-.439-2.4-.864-3.552-1.392-.833-.375-1.652-.89-.96-1.862a4.225,4.225,0,0,1,2.555-1.354,30.214,30.214,0,0,1,3.692-.61,43.415,43.415,0,0,1,8.077-.133,1.162,1.162,0,0,0,.585-2.148,32.322,32.322,0,0,1-7.327-4.677c-.108-.089-.28-.33-.407-.356l-.089-.083v.445s.483-.248.534-.267c.737-.273,1.525-.458,2.288-.667a34.138,34.138,0,0,1,4.639-1.023c6.259-.832,12.811.737,18.829,2.339,1.7.451,3.374.947,5.084,1.354a48.464,48.464,0,0,1,5.185,1.5c.737.267,1.118-.826.515-1.214a5.282,5.282,0,0,1-2.567-3.673l-1.074,1.074c1.144.1,2.275-.083,3.432.108a18.2,18.2,0,0,1,3.374.941,52.085,52.085,0,0,1,6.469,3.1,99.645,99.645,0,0,1,11.921,7.575,1.163,1.163,0,0,0,1.582-.413,1.185,1.185,0,0,0-.413-1.582h0Z" transform="translate(-1188.885 -320.035)" fill="#010d3d"/>
      <path id="Trazado_9597" data-name="Trazado 9597" d="M1220.375,359.061a16.428,16.428,0,0,0,3.756,4.194c1.4,1.08,3.247,2.383,5.071,2.491,2.434.14,2.771-2.434,2.79-4.283a18.016,18.016,0,0,0-1.239-6.7l-2.084.877a40.331,40.331,0,0,0,5.732,6.228,41.492,41.492,0,0,0,3.432,2.713,9.387,9.387,0,0,0,3.323,1.748,3.036,3.036,0,0,0,3.2-.947,7.12,7.12,0,0,0,1.017-3.908,14.116,14.116,0,0,0-2.1-8.026,1.134,1.134,0,0,0-1.957,1.144,44.315,44.315,0,0,0,12.875,16.109,1.044,1.044,0,0,0,1.455,0c3.33-4.105.655-9.348.547-13.961l-2.269.305a80.8,80.8,0,0,0,8.287,15.531c.686,1.029,1.481,2.415,2.917,2.3a2.3,2.3,0,0,0,1.919-2.25c.115-1.068-.311-2.1.286-3.069a3.537,3.537,0,0,1,3.05-1.633c.966.019.953-1.443,0-1.493a5.382,5.382,0,0,0-4.938,3.044,6.193,6.193,0,0,0-.661,2.955,3.005,3.005,0,0,0-.038.527c.254-.057.273-.121.064-.2l-.172-.172a12.967,12.967,0,0,1-1.239-1.69,62.622,62.622,0,0,1-7.251-14.457c-.426-1.163-2.3-1.074-2.269.305.1,4.188,2.5,8.763.146,12.716l1.4-.369a29.725,29.725,0,0,1-12.049-15.366l-2.072.871a12.283,12.283,0,0,1,1.76,6.221,12.6,12.6,0,0,1-.1,1.7,3.12,3.12,0,0,1-.394,1.512c-.5.54-1.557.013-2.059-.261a26.952,26.952,0,0,1-5.3-4.067,37.2,37.2,0,0,1-4.588-5.2,1.151,1.151,0,0,0-1.423-.464,1.128,1.128,0,0,0-.661,1.347,16.206,16.206,0,0,1,1.137,4.925,13.731,13.731,0,0,1-.038,2.555c-.1.763-.318,1.1-1.131.921a11.117,11.117,0,0,1-3.9-1.957,15.212,15.212,0,0,1-3.368-3.266c-.375-.5-1.22-.051-.864.508h0Z" transform="translate(-1197.376 -332.012)" fill="#010d3d"/>
      <path id="Trazado_9598" data-name="Trazado 9598" d="M1238.28,383.243c-.985,1.519-2.192,2.866-3.088,4.436s-1.8,3.228-2.644,4.868a41.46,41.46,0,0,0-2.243,4.912c-.305.839-.674,1.646-.915,2.5a19.73,19.73,0,0,1-1.087,2.72.815.815,0,0,0,.121.96,41.142,41.142,0,0,0,5.745,4.118,29.729,29.729,0,0,0,3.184,1.589,8.264,8.264,0,0,0,3.349.585.437.437,0,0,0,.216-.807,13.431,13.431,0,0,0-2.752-1.709c-1.017-.445-2-.9-2.98-1.4a35.047,35.047,0,0,1-5.643-3.489l.2.769a14.916,14.916,0,0,1,1.214-2.5c.489-.75.883-1.557,1.341-2.326.915-1.551,1.716-3.146,2.542-4.747s1.62-3.095,2.459-4.626c.9-1.633,1.493-3.387,2.4-5.014a.825.825,0,0,0-1.423-.832h0Z" transform="translate(-1200.26 -342.938)" fill="#010d3d"/>
      <path id="Trazado_9599" data-name="Trazado 9599" d="M1228.267,389.7c0,.032.013.07.013.1l-.038-.267c.051.407.089.807.1,1.214.006.2,0,.4-.013.6s-.051.419-.051.623a1.107,1.107,0,0,0,1.106,1.106,1.14,1.14,0,0,0,.782-.324,1.276,1.276,0,0,0,.324-.782,3.7,3.7,0,0,0-.038-.648c-.019-.21-.044-.432-.063-.648a13.441,13.441,0,0,0-.216-1.506.994.994,0,0,0-.458-.591.984.984,0,0,0-1.354.356l-.1.235a1.06,1.06,0,0,0,0,.527h0Z" transform="translate(-1200.268 -344.968)" fill="#010d3d"/>
      <path id="Trazado_9600" data-name="Trazado 9600" d="M1260.186,389.276a27.018,27.018,0,0,0,.222,3.038,1.193,1.193,0,0,0,.845,1.112,1.077,1.077,0,0,0,.89-.114,1.147,1.147,0,0,0,.572-1,26.908,26.908,0,0,1-.222-3.038,1.156,1.156,0,1,0-2.313,0h0Z" transform="translate(-1211.916 -344.853)" fill="#010d3d"/>
      <path id="Trazado_9601" data-name="Trazado 9601" d="M1307.839,341.825l.343-.362c.057-.064.114-.121.172-.184.032-.044.07-.089.1-.133a.326.326,0,0,0,.1-.133c.013-.019.019-.044.032-.064a3.526,3.526,0,0,0,.152-.356,1.08,1.08,0,0,0-.28-1.055,1.067,1.067,0,0,0-.477-.28,1.116,1.116,0,0,0-.578,0,1.833,1.833,0,0,0-.674.388c-.057.057-.114.121-.172.184l-.343.362a.887.887,0,0,0-.241.369,1.024,1.024,0,0,0,0,.89.8.8,0,0,0,.241.369l.235.178a1.169,1.169,0,0,0,.585.159l.3-.038a1.117,1.117,0,0,0,.508-.3h0Z" transform="translate(-1228.57 -327.029)" fill="#010d3d"/>
      <path id="Trazado_9602" data-name="Trazado 9602" d="M1306.713,343.9a7.812,7.812,0,0,1,1.22.064l-.146-.019c.146.019.3.051.445.057a.655.655,0,0,0,.54-.248.409.409,0,0,0,.038-.311.557.557,0,0,0-.159-.248,1.1,1.1,0,0,0-.464-.267,4.682,4.682,0,0,0-1.481-.261.616.616,0,1,0,0,1.233h0Z" transform="translate(-1228.651 -328.286)" fill="#010d3d"/>
      <path id="Trazado_9603" data-name="Trazado 9603" d="M1307.384,342.956a4.954,4.954,0,0,0-1.226.108,3.537,3.537,0,0,0-.629.229,2.142,2.142,0,0,0-.477.35.6.6,0,0,0-.152.566.607.607,0,0,0,.407.407c.121.044.235.1.356.127a4.574,4.574,0,0,0,.578.1l-.235-.032c.127.019.248.038.375.064.2.032.407.044.61.07l-.261-.038c.127.019.254.038.381.064a1.126,1.126,0,0,0,.788-.1.979.979,0,0,0,.489-.75,1.026,1.026,0,0,0-1.01-1.163h0Z" transform="translate(-1228.21 -328.388)" fill="#010d3d"/>
      <path id="Trazado_9604" data-name="Trazado 9604" d="M1267.808,337.015c-.331-1.468-1.551-2.339-2.733-3.107q-2.011-1.3-4.073-2.529c-2.783-1.652-5.624-3.215-8.528-4.664-1.6-.8-3.209-1.563-4.83-2.3a10.979,10.979,0,0,0-5.16-1.163c-.94.038-1.792,1.214-1.144,2.065.33.432.655.858.979,1.284-1.106-.394-2.218-.782-3.349-1.131a72.994,72.994,0,0,0-7.225-1.856,59.831,59.831,0,0,0-14.978-1.157c-2.656.146-5.4.381-7.715,1.811a1.53,1.53,0,0,0-.286,2.4,50.777,50.777,0,0,1,4.41,3.482c.133.127.26.261.4.394-1.258.07-2.51.267-3.616.426a56.639,56.639,0,0,0-9.049,2.1,1.735,1.735,0,0,0-.724,2.866,8.054,8.054,0,0,0,3.26,1.83c1.2.413,2.4.8,3.59,1.252a50.251,50.251,0,0,1,4.982,2.2,11.345,11.345,0,0,1-2.675.337c-2,.114-4.1.458-5.5,2.014a1.745,1.745,0,0,0,.222,2.574,18.7,18.7,0,0,0,3.641,3.171c1.36,1.106,2.663,2.281,4.061,3.343a1.46,1.46,0,0,0,2.25-.311,7.075,7.075,0,0,0,.775-2.91l.1.025c.985.133,1.417,1.214,1.957,1.938a4.755,4.755,0,0,0,2.523,1.849,2.966,2.966,0,0,0,2.135-.3,1.5,1.5,0,0,0,1.309-1.144,4.839,4.839,0,0,0-.419-3.419h-.013a33.908,33.908,0,0,1-.318-4.258,19.952,19.952,0,0,1,4.677,4.569c2,2.326,4.417,4.7,7.587,5.173a1.427,1.427,0,0,0,1.716-1.023,27.242,27.242,0,0,0,.013-7.905c.254.235.489.483.718.724a17.67,17.67,0,0,1,2.326,4.283,20.567,20.567,0,0,0,6.647,7.41,1.377,1.377,0,0,0,2.046-1.22c-.127-2.713-.165-5.421-.165-8.14v-1.411c.044.083.089.172.133.254,2.574,4.836,5.185,9.653,7.727,14.508a1.652,1.652,0,0,0,2.841-.032,44.349,44.349,0,0,0,1.684-4.461c.165.038.343.076.527.133a1.693,1.693,0,0,0,2.021-1.207c1.207-3.05,2.281-6.132,3.228-9.272.47-1.563.915-3.139,1.322-4.722.388-1.487,1.042-3.209.7-4.753Z" transform="translate(-1189.867 -320.89)" fill="#010d3d"/>
      <path id="Trazado_9605" data-name="Trazado 9605" d="M1255.659,428.72a7.172,7.172,0,0,0,5.6-3.152.715.715,0,0,0-.254-.972.725.725,0,0,0-.972.254,3.621,3.621,0,0,1-.356.47,5.944,5.944,0,0,1-.483.5,5.348,5.348,0,0,1-1.068.775,5.713,5.713,0,0,1-2.466.731.714.714,0,0,0-.7.7.705.705,0,0,0,.7.7h0Z" transform="translate(-1210.013 -358.116)" fill="#010d3d"/>
      <path id="Trazado_9606" data-name="Trazado 9606" d="M1256.2,443.494c-.483,3.292-.877,6.6-1.334,9.894a6.707,6.707,0,0,0,.731,4.486,13.785,13.785,0,0,0,3.069,3.387,1.033,1.033,0,0,0,1.417,0,23.111,23.111,0,0,0,3.489-3.425,8.759,8.759,0,0,0,1.779-4.607c.381-3.826.629-7.683.883-11.515.083-1.2-1.786-1.195-1.868,0-.241,3.508-.572,7.009-.8,10.511a7.636,7.636,0,0,1-1.379,4.385,16.572,16.572,0,0,1-3.311,3.082l1.214.159a13.568,13.568,0,0,1-2.586-2.942,6.485,6.485,0,0,1-.527-4.321c.324-2.961.318-5.935.667-8.9.1-.807-1.309-1-1.43-.191h0Z" transform="translate(-1209.943 -364.063)" fill="#010d3d"/>
      <path id="Trazado_9607" data-name="Trazado 9607" d="M1229.621,577.043c-.1,1.754-.2,3.508-.318,5.268s-.28,3.514-.273,5.268a.6.6,0,0,0,1.195,0c.159-1.741.165-3.514.2-5.268s.1-3.508.159-5.268c.019-.623-.928-.616-.959,0h0Z" transform="translate(-1200.56 -413.552)" fill="#010d3d"/>
    </g>
    <g id="Grupo_4980" data-name="Grupo 4980" transform="translate(575.337 287.325)">
      <path id="Trazado_9608" data-name="Trazado 9608" d="M653.461,707.443c.006-.14.025-.286.032-.426a1.759,1.759,0,0,0-1.748-1.747,1.838,1.838,0,0,0-.826.229c-.019,0-.038-.013-.057-.013a1.89,1.89,0,0,0-.648.051,4.515,4.515,0,0,0-2.987,1.233c-1.817,1.716-1.659,4.442-1.684,6.73a135.741,135.741,0,0,1-3.527,29.187c-1.068,4.575-2.167,9.113-4.607,13.046a41.019,41.019,0,0,1-4.029,5.255c-.235.273-.47.553-.7.839a33.384,33.384,0,0,0-6.12,6.151,1.749,1.749,0,0,0,.222,2.059c-.038.057-.076.114-.121.172-.451.661.515,1.309,1.061.82.165-.146.318-.3.483-.445a1.654,1.654,0,0,0,.737-.222l6.539-3.889c1.919-1.144,3.876-2.25,5.694-3.559a16.422,16.422,0,0,0,7.3-11.21c1.061-4.8,1.76-9.716,2.472-14.584q1.115-7.6,1.926-15.232.4-3.756.712-7.518c.108-1.29.216-2.58.3-3.87a5.869,5.869,0,0,0-.438-3.063Z" transform="translate(-593.922 -456.726)" fill="#fff"/>
      <path id="Trazado_9609" data-name="Trazado 9609" d="M723.222,759.817a54.239,54.239,0,0,1-4.239-4.048,29.606,29.606,0,0,1-5.389-10.028,39.5,39.5,0,0,1-1.125-4.461c-.07-.388-.14-.769-.21-1.157-1.176-7.13-.6-14.5-.044-21.759.4-5.147.648-10.517-1.22-15.436a1.782,1.782,0,0,0-1.671-1.271,1.758,1.758,0,0,0-1.671,1.271c-.159.75-.3,1.506-.438,2.262a.924.924,0,0,0-.794-.794.935.935,0,0,0-1.036.674c-.083.483-.165.966-.242,1.449a1.939,1.939,0,0,0-.883,1.493,69.4,69.4,0,0,0-.337,13.974,94.876,94.876,0,0,0,2.383,13.987,56.316,56.316,0,0,1,1.233,6.653,54.625,54.625,0,0,1,.172,7.066,66.945,66.945,0,0,0-.121,6.869,6.392,6.392,0,0,0,1.068,3.349,11.387,11.387,0,0,0,2.548,2.358c3.876,2.879,8.388,5.694,13.427,4.626a1.777,1.777,0,0,0,1.277-1.671c.14-2.161-1.182-4-2.682-5.414Z" transform="translate(-622.135 -455.41)" fill="#fff"/>
      <path id="Trazado_9610" data-name="Trazado 9610" d="M643.5,790.08a1.806,1.806,0,0,0-.432-.813,1.652,1.652,0,0,0-.464-.375,1.76,1.76,0,0,0-1.76.025,2,2,0,0,0-.883,1.322c-.013.057-.019.114-.032.178l-1.716,1.01a13.7,13.7,0,0,0-1.964,1.277,5.474,5.474,0,0,0-.655.375c-.712.483-1.4,1-2.084,1.512-1.468,1.106-2.9,2.256-4.347,3.387-.547.426-.96.75-1.538,1.182a1.775,1.775,0,0,0-1.195.184c-.254.14-.508.267-.769.394-.114.057-.235.108-.349.159s-.114.051-.025.013l-.178.07a16.5,16.5,0,0,1-1.646.521c-.1.025-.2.044-.305.07a1.752,1.752,0,0,0-2.319-.559,15.882,15.882,0,0,0-3.107,2.288c-.369.3-.731.61-1.093.928a2.378,2.378,0,0,0-.731,1.042c-.1.121-.2.235-.286.362-.75.985.121,2.205,1.042,2.561a6.981,6.981,0,0,0,6.927-1.29,50.817,50.817,0,0,0,7.74-5.243c.68-.527,1.354-1.061,2.027-1.595.337-.267.674-.534,1.017-.794.07-.057.14-.108.21-.165l.1-.076c.172-.133.343-.26.515-.394.686-.521,1.379-1.03,2.084-1.519.121-.083.229-.172.349-.254.032.045.063.089.1.134a2.474,2.474,0,0,0,3.082.61,5.142,5.142,0,0,0,1.824-2.23,8.686,8.686,0,0,0,.8-2.98,1.6,1.6,0,0,0-.019-.394c.013-.025.032-.044.045-.07a.661.661,0,0,0,.089-.331.947.947,0,0,0-.025-.515Z" transform="translate(-589.917 -487.128)" fill="#010d3d"/>
      <path id="Trazado_9611" data-name="Trazado 9611" d="M729.717,795.209a14.1,14.1,0,0,0-2.758-1.493,2.926,2.926,0,0,0-2.04-.28,4.159,4.159,0,0,0-1.309.9,3.4,3.4,0,0,1-2.148.655c-.044-.013-.089-.019-.133-.032-.852-.324-1.7-.655-2.548-.972-.241-.089-.483-.178-.731-.267-.064-.032-.127-.057-.191-.089a2.165,2.165,0,0,0-.616-.191c-.47-.165-.953-.337-1.43-.521a26.22,26.22,0,0,1-2.758-1.824c-.413-.318-.813-.655-1.2-1-.413-.375-.864-.686-1.252-1.087a9.58,9.58,0,0,1-1.017-1.239,8.225,8.225,0,0,0-.966-1.392.853.853,0,0,0-.648-.229,1.389,1.389,0,0,0-1.258-.477,1.409,1.409,0,0,0-1.188,1.023,5.238,5.238,0,0,0,.508,3.266c.083.172.165.35.261.527a3.87,3.87,0,0,0,.21.394,6.5,6.5,0,0,0,1.08,1.468,2.993,2.993,0,0,0,1.97.864c.051.019.1.044.153.064a1.145,1.145,0,0,0,1.22-.241,18.563,18.563,0,0,0,4.359,2.555,1.453,1.453,0,0,0,.458.782c2.11,1.836,4.734,2.6,7.365,3.368.6.178,1.207.362,1.8.578.159.057.318.121.477.178l.1.038a.375.375,0,0,1,.044.019c.3.133.6.28.9.426a8.937,8.937,0,0,0,4.429,1.379,1.628,1.628,0,0,0,1.551-1.182,6.034,6.034,0,0,0-2.694-5.954Z" transform="translate(-622.766 -486.029)" fill="#010d3d"/>
      <path id="Trazado_9612" data-name="Trazado 9612" d="M698.1,607.873a50.739,50.739,0,0,0-2.586-15.124c-2.783-7.7-9.094-15.086-17.571-16.37-5.249-.794-10.377.744-15.08,2.993a25.319,25.319,0,0,0-6.2,3.806,13.632,13.632,0,0,0-3.622,6.107c-.782,2.447-1.309,4.982-1.932,7.473-.661,2.669-1.334,5.332-1.983,7.994a122.293,122.293,0,0,0-3.05,15.988c-.038.369-.063.731-.1,1.1-1.017,6.755-1.881,13.536-3.088,20.272a131.015,131.015,0,0,1-3.19,13.86,1.343,1.343,0,0,0,.915,1.6,81.814,81.814,0,0,0,21.816,5.2,82.791,82.791,0,0,0,22.413-.864,79.2,79.2,0,0,0,12.214-3.146,1.345,1.345,0,0,0,.96-1.258q.076-16.748.134-33.489c.025-5.376.159-10.771-.064-16.147Z" transform="translate(-598.782 -409.665)" fill="#010d3d"/>
      <path id="Trazado_9613" data-name="Trazado 9613" d="M660.194,401.389c1.309-6.094-4-11.07-9.36-12.824a10.548,10.548,0,0,0-.235-15.474c4.353-4.042,2.656-10.65.114-15.258a14.969,14.969,0,0,0,4.683-6.005c4.493-2.459,8.452-6.6,9.71-11.7,1.843-6.342-3.87-13.523-10.568-11.724a10.964,10.964,0,0,0-4.22-12.049c-7.9-5.319-18.225-.261-22.6,7.257-2.809-4.2-8.966-4.569-13.555-3.914-8.75,1.017-15.664,9.92-13.205,18.651-5.1-1.576-10.053,1.824-13.065,5.726-5.478,6.126-11.47,16.6-4.181,23.62-10.67,6.05-11.305,22.629-.953,29.314-9.284,4.671-4.162,18.753,4.69,20.774-4.988,6.38-2.51,18.7,7.473,14.228-3.069,7.34,5.98,13.98,12.3,9.449,4.893,7.778,14.165,3.044,18.219-3.082,8.522,6.78,20.907-.972,18.441-11.616,8.42,1.754,18.429-12.7,12-19.35a8.881,8.881,0,0,0,4.315-6.024Z" transform="translate(-575.337 -314.154)" fill="#00b2e3"/>
      <path id="Trazado_9614" data-name="Trazado 9614" d="M683.444,495.036q-.191-2.345-.477-4.683c-.108-.858-.21-1.722-.349-2.58a6.7,6.7,0,0,0-.6-2.307c-.979-1.678-2.942-1.436-4.614-1.468-.9-.019-1.8-.032-2.694-.038a13.447,13.447,0,0,0-2.86.013c-1.563.025-3.127.089-4.683.21-.991.076-2.129.248-2.408,1.392a14.707,14.707,0,0,1,.242,1.811,83.435,83.435,0,0,0,10.854,22.356q2.049,2.974,4.34,5.757a1.739,1.739,0,0,0,1.906.362,1.789,1.789,0,0,0,1.074-1.6,103.479,103.479,0,0,0,.286-19.236Z" transform="translate(-607.917 -376.027)" fill="#f9d0dd"/>
      <path id="Trazado_9615" data-name="Trazado 9615" d="M682.62,385.685a41.851,41.851,0,0,1-3.9-5.853,27.1,27.1,0,0,1-2.161-7.238c-.566-2.955-1.125-5.91-1.57-8.884-.445-3.012-.655-6.062-1.08-9.075-.089-.616-.979-1.093-1.411-.464-1.1,1.608-3.635,4.054-5.745,2.707-1.7-1.08-1.531-3.756-1.322-5.484a.5.5,0,0,0-.985-.2,19.473,19.473,0,0,1-5.217,8.388,18.524,18.524,0,0,1-4.061,2.9,7.77,7.77,0,0,1-2.618,1.017,2.831,2.831,0,0,1-2.192-.782c-1.659-1.487-1.64-3.934-1.64-5.986,0-.686-1.017-.585-1.042.076a18.53,18.53,0,0,1-3.406,9.983c-.947,1.3-2.224,2.688-3.9,2.961a2.949,2.949,0,0,1-3.324-1.709c-.191-.566-.966-.337-.979.2a54.838,54.838,0,0,1-1.328,10.816c-.394,1.754-.858,3.482-1.4,5.192-.083.261-.515,1.748-.883,1.455a1.028,1.028,0,0,1-.146-.356c-.1-.261-.178-.527-.273-.788-.153-.464-.311-.928-.47-1.385a.655.655,0,0,0-.108-.2,4.215,4.215,0,0,0-1.271-2.421c.14.121.292.191-.2-.235a2.06,2.06,0,0,0-.559-.33,5.913,5.913,0,0,0-.852-.305,5.677,5.677,0,0,0-6.958,3.794,15.578,15.578,0,0,0-.877,3.47,13.435,13.435,0,0,0,0,4.131,6.811,6.811,0,0,0,1.741,3.6,6.436,6.436,0,0,0,2.91,1.773,4.543,4.543,0,0,0,3.679-.731,45.28,45.28,0,0,0,1.443,4.766c.826,2.555,1.563,5.141,2.421,7.683a24.06,24.06,0,0,0,3.031,6.387,18.589,18.589,0,0,0,4.207,4.289,24.982,24.982,0,0,0,11.375,4.461,30.987,30.987,0,0,0,13.542-1.4,45.14,45.14,0,0,0,6.164-2.523,1.093,1.093,0,0,0,.172.438,1.164,1.164,0,0,0,1.582.292,32.025,32.025,0,0,0,9.475-8.681,33.565,33.565,0,0,0,3.285-5.541,22.243,22.243,0,0,0,2.148-6.736c.578-5.135-2.351-9.551-5.268-13.472Zm-54.7-2.8h-.006s-.013-.006-.019,0-.019-.006-.025-.013a.3.3,0,0,1,.057.019Zm-.667-.153h0Z" transform="translate(-591.828 -327.516)" fill="#fff"/>
      <path id="Trazado_9616" data-name="Trazado 9616" d="M629.389,398.346a4.707,4.707,0,0,0-1.563-3.031,5.426,5.426,0,0,0-3.451-1.017c-2.783.108-4.823,2.237-5.827,4.677a11.119,11.119,0,0,0,.2,8.331,14.353,14.353,0,0,0,2.122,3.527,9.04,9.04,0,0,0,3.216,2.72c3.374,1.506,5.541-2.771,5.2-5.579-.051-.394-.648-.705-.864-.235-.724,1.576-1.15,5.541-3.813,4.569-2.091-.756-3.432-3.012-4.1-4.982a11.213,11.213,0,0,1-.222-6.215c.426-1.767,1.487-3.813,3.355-4.378a3.5,3.5,0,0,1,2.421.165c.432.191.852.438,1.277.648.483.241.686.661,1.01,1.08.305.394,1.061.33,1.036-.28h0Z" transform="translate(-590.827 -343.367)" fill="#010d3d"/>
      <path id="Trazado_9617" data-name="Trazado 9617" d="M633.819,395.28c.025,1.144-.1,2.288,0,3.419s.222,2.313.419,3.463a45.994,45.994,0,0,0,1.576,6.666,26.465,26.465,0,0,0,6.825,11.369c7.194,6.723,17.342,7.664,26.607,5.7,8.553-1.817,17.285-5.942,21.74-13.847a22.673,22.673,0,0,0,2.968-12.341,17.553,17.553,0,0,0-1.582-6.317,41.734,41.734,0,0,0-3.775-5.929,44.9,44.9,0,0,1-5.954-12.76c-1.334-4.556-2.014-9.361-2.942-14.082a26.107,26.107,0,0,0-.864-3.47.591.591,0,0,0-1.157.159,33.4,33.4,0,0,0,.693,6.831c.381,2.262.82,4.556,1.341,6.806a58.47,58.47,0,0,0,4.4,12.849c2.014,4.067,5.084,7.378,6.615,11.572a18.087,18.087,0,0,1,0,11.921c-2.688,8.147-10.085,13.11-17.971,15.512-8.649,2.637-18.435,2.949-26.162-2.37a22.379,22.379,0,0,1-8.121-10.994,45.643,45.643,0,0,1-1.887-7.1c-.229-1.214-.445-2.44-.661-3.654s-.585-2.364-.807-3.578c-.133-.744-1.322-.559-1.3.178h0Z" transform="translate(-596.642 -329.676)" fill="#010d3d"/>
      <path id="Trazado_9618" data-name="Trazado 9618" d="M689.766,389.458l.07.152-.508-.2a10.588,10.588,0,0,1,.686,2.148c.286.864.6,1.722.915,2.58.655,1.767,1.411,3.5,2.1,5.255s1.341,3.425,1.983,5.154,1.57,3.489,2.192,5.268l.6-1.068a11.647,11.647,0,0,1-8.217-1.068c-.966-.515-1.824.96-.858,1.462a13.8,13.8,0,0,0,9.532,1.277.867.867,0,0,0,.6-1.068c-.324-.96-.515-1.976-.813-2.955-.311-1.029-.661-2.04-1.036-3.044-.731-1.964-1.481-3.921-2.275-5.859s-1.551-3.762-2.459-5.579a15.741,15.741,0,0,0-1.551-2.72c-.369-.464-.839-.724-1.354-.324a.451.451,0,0,0,0,.635.957.957,0,0,0,.235.178.109.109,0,0,0,.108,0l.07-.044c.064-.044.051-.178-.044-.165h0Z" transform="translate(-616.52 -341.317)" fill="#010d3d"/>
      <path id="Trazado_9619" data-name="Trazado 9619" d="M698.771,386.547a.556.556,0,0,0-.191-.8.441.441,0,0,0-.254-.057.025.025,0,0,0,0,.051.5.5,0,0,1,.419.775c-.019.019.013.044.025.025h0Z" transform="translate(-620.162 -340.23)" fill="#64d8cc"/>
      <path id="Trazado_9620" data-name="Trazado 9620" d="M732.675,497.75a10.153,10.153,0,0,0-3.412-.724c-1.411-.14-2.815-.3-4.226-.362a13.678,13.678,0,0,0-7.422,1.328,7.8,7.8,0,0,0-3.908,6.495c-1.4.445-2.161,1.913-2.656,3.292-.833,2.339-1.646,4.683-2.523,7q-1.306,3.431-2.726,6.806c-.47,1.112-.94,2.218-1.436,3.317-.241.54-.483,1.1-.775,1.633-.629-1.493-1.137-3.006-1.627-4.569a28.773,28.773,0,0,0-1.182-3.146c-.515-1.112-1.195-2.135-1.7-3.254a29.533,29.533,0,0,1-1.716-6.914,38.52,38.52,0,0,0-2.072-6.749c-.47-1.188-.953-2.383-1.354-3.6-.248-.737-.508-1.462-.737-2.192.267.044.527.083.794.127a37.369,37.369,0,0,0-2.828-6.342,40.963,40.963,0,0,0-4.239-6.539,19.037,19.037,0,0,0-5.719-4.988,14.7,14.7,0,0,0-3.934-1.411,40.469,40.469,0,0,1-4.537-.674,1.018,1.018,0,0,1-.458-.292,28.419,28.419,0,0,1-4.029.013.909.909,0,0,0-.832.349.785.785,0,0,1-.343-.184l-.038-.057a.622.622,0,0,0-.26-.782c0-.019-.006-.044-.006-.064-.07-.585-.089-1.176-.133-1.76q-.143-1.84-.28-3.679c-.089-1.176-.076-2.421-.28-3.578-.172-.972-.934-.966-1.779-.972-2.478-.013-4.957-.051-7.441-.064a.585.585,0,0,0-.578.578,41.372,41.372,0,0,1-.1,10.562,1.234,1.234,0,0,0,.337,1.258c.089.1.191.2.311.318.553.572,1.131,1.118,1.729,1.639a29.136,29.136,0,0,0,3.838,2.809.558.558,0,0,0,.756-.2c1.118-1.76,2.269-3.514,3.387-5.274a.449.449,0,0,0,.057.044,2.014,2.014,0,0,0,.623.3,1.249,1.249,0,0,0,.47.82c.89.655.813,2.516.9,3.482.153,1.62.273,3.241.381,4.855.216,3.355.343,6.717.432,10.085.089,3.184.07,6.418-.159,9.6a10.6,10.6,0,0,1-1.392,5.122q-3.117-7.263-5.878-14.66c-1.017-2.732-1.964-5.49-2.949-8.229-.5-1.366-.915-2.771-1.462-4.118-.381-.953-.8-1.906-1.207-2.853-.14-.318-.273-.635-.407-.953a1.026,1.026,0,0,0,.025-.871c-.191-.5-.369-1-.559-1.5a2.019,2.019,0,0,0-.2-.388,1.3,1.3,0,0,0-1.309-.464c-4.906.686-9.945,1.786-12.887,6.17a21.356,21.356,0,0,0-2.72,6.85c-.705,2.8-1.341,5.63-1.989,8.445-1.379,6-2.688,12-3.737,18.073-.839,4.874-2.065,10.79,1.252,15.048a17.548,17.548,0,0,0,3.285,3c1.309,1,2.637,1.983,3.984,2.923,1.347.96,2.726,1.894,4.1,2.809a27.038,27.038,0,0,0,3.476,2.122c-.229,1.125-.527,2.23-.737,3.349-.267,1.411-.477,2.834-.655,4.264a66.415,66.415,0,0,0-.47,8.414v.152a1.269,1.269,0,0,0-.407,1.328c3.126-.515,6.253-.9,9.418-1.138,1.43-.108,2.866-.184,4.3-.248,1.474-.07,2.949.057,4.429.019,2.5-.064,5-.133,7.5-.292a9.331,9.331,0,0,0,2.231-.33c.928-.248,1.233-.483,2.192-.68l.044-.044c.146-.133.286-.26.413-.4a8.536,8.536,0,0,0,.68-.839,17.532,17.532,0,0,0,1.576-2.714,1.192,1.192,0,0,1,1.62-.426,8.419,8.419,0,0,1,3.006,3.546c.807.006,1.6.025,2.288.013a31.816,31.816,0,0,0,3.876-.477c.108-.013.216-.032.324-.051.585-.178,1.169-.356,1.748-.54a6,6,0,0,0,2.243-1.017c1.163-1.08.864-3.146.877-4.575a81.707,81.707,0,0,0-.566-10.574q-.353-2.964-.909-5.891c.547.477,1.093.947,1.627,1.423,1.373,1.226,2.8,2.58,4.664,2.974a8.354,8.354,0,0,0,5.224-.75c3.05-1.392,5.535-4,7.549-6.628a52.051,52.051,0,0,0,5.224-8.782c.413-.845.82-1.69,1.22-2.542a10.95,10.95,0,0,0,1.093-2.841,7.14,7.14,0,0,1,.159-1.525,2.7,2.7,0,0,1,.591-.7,5.461,5.461,0,0,0,.8-1.029,2.882,2.882,0,0,0,.763.559,2.657,2.657,0,0,0,2.472.019,2.135,2.135,0,0,0,.985-2.205,3.923,3.923,0,0,0-.4-1.087,1.5,1.5,0,0,0,.5-.121,2,2,0,0,0,1.036-1.176,2.861,2.861,0,0,0-.807-2.529l-.07-.07c.1-.083.191-.159.28-.242a2.861,2.861,0,0,0,.826-1.462,3.829,3.829,0,0,0-.248-2.148c.693-.216,1.4-.426,2.091-.655.547.032,1.1.064,1.652.083,1.385.044,3.241.127,3.425-1.671a2.677,2.677,0,0,0-1.665-2.618Z" transform="translate(-595.862 -369.222)" fill="#fff"/>
      <g id="Grupo_4978" data-name="Grupo 4978" transform="translate(35.844 43.294)">
        <path id="Trazado_9621" data-name="Trazado 9621" d="M661.076,385.79c-1.589,3.724-.845,8.242.8,11.826a7.472,7.472,0,0,0,8.731,4.626c3.641-.7,5.9-3.737,7.035-7.073a15.764,15.764,0,0,0,.693-5.961A25.5,25.5,0,0,0,678,386.1c-.14-.775-.419-1.563-1.284-1.735a19.787,19.787,0,0,0-3.419-.14c-1.271-.025-2.542.057-3.813.1-2.593.1-5.192.235-7.778.407-1.392.089-1.411,2.25,0,2.186,3.851-.178,7.765-.261,11.591-.718.883-.108,1.767-.229,2.65-.35a3.367,3.367,0,0,0,.578-.076l-.178-.2v.172c-.14.267.127,1.284.152,1.582a19.306,19.306,0,0,1-.2,5.376,9.079,9.079,0,0,1-5.014,6.819,5.961,5.961,0,0,1-3.914.254,5.116,5.116,0,0,1-3.018-2.605,14.837,14.837,0,0,1-1.652-5.211,39.6,39.6,0,0,1-.127-5.757c.006-.75-1.176-1.176-1.506-.407h0Z" transform="translate(-642.114 -382.99)" fill="#343d64"/>
        <path id="Trazado_9622" data-name="Trazado 9622" d="M650.449,387.694a13.477,13.477,0,0,0-4.772.686c-1.487.375-3.082.839-4.626,1.245s-3.088.813-4.633,1.233c-.794.216-1.57.445-2.339.737a5.944,5.944,0,0,0-2.1.921.808.808,0,0,0,.356,1.341,5.968,5.968,0,0,0,2.313-.184,20.835,20.835,0,0,0,2.415-.489c1.6-.394,3.2-.826,4.785-1.258s3.19-.852,4.76-1.36a12.416,12.416,0,0,0,4.232-1.945c.407-.343.025-.877-.388-.928Z" transform="translate(-631.742 -384.238)" fill="#343d64"/>
        <path id="Trazado_9623" data-name="Trazado 9623" d="M687.382,387.988q.3-.2.61-.381c.108-.057.21-.127.318-.184.025-.013.254-.114.051-.032a1.136,1.136,0,0,1,.133-.051,3.178,3.178,0,0,1,.35-.108.816.816,0,0,1,.216-.044c-.057-.006-.172.019-.044.006.07-.006.14-.019.2-.025.172-.025.178-.025.013,0a.371.371,0,0,1,.146-.013c.133-.013.273-.013.407-.013s.248.013.369.019a.586.586,0,0,1,.184.019c-.083-.044-.191-.032-.025,0,.241.051.47.133.712.2.133.038-.229-.114-.019-.006.057.025.108.051.165.083.108.057.216.121.318.184.038.025.133.064.153.1-.038-.076-.146-.127-.019-.006a3.014,3.014,0,0,0,.47.381,1.071,1.071,0,0,0,1.455-1.455,3.621,3.621,0,0,0-1.849-1.29,4.542,4.542,0,0,0-1.906-.286,4.052,4.052,0,0,0-3.393,1.906.725.725,0,0,0,.991.991h0Z" transform="translate(-651.631 -383.3)" fill="#343d64"/>
        <path id="Trazado_9624" data-name="Trazado 9624" d="M696.426,384.791a32.839,32.839,0,0,0,.527,4.309c.235,1.417.451,2.853.763,4.258.521,2.332,1.417,4.7,3.66,5.878a6.418,6.418,0,0,0,6.8-.438c2.237-1.6,3.018-4.048,3.266-6.685a18.442,18.442,0,0,0-1.411-9.2,1.091,1.091,0,0,0-1.233-.5,7.586,7.586,0,0,1-3.717.019,24,24,0,0,0-3.832-.121,13.33,13.33,0,0,0-3.622.464,1.563,1.563,0,0,0-.356,2.815c1.3.89,2.523-1.226,1.233-2.11l-.108-.076.559.731v.057l-.165.616.064-.127-.438.438a2.453,2.453,0,0,1,1.068-.222c.489-.064.979-.108,1.468-.14.979-.07,1.964-.1,2.949-.076,1.792.032,3.762.54,5.478-.152l-1.347-.763a21.6,21.6,0,0,1,.953,8.63c-.28,2.408-1.525,4.995-4.264,5.179a3.951,3.951,0,0,1-3.057-1.106,6.832,6.832,0,0,1-1.525-3.273,59,59,0,0,0-2.548-8.712c-.248-.585-1.188-.267-1.169.318h0Z" transform="translate(-655.319 -382.283)" fill="#343d64"/>
      </g>
      <path id="Trazado_9625" data-name="Trazado 9625" d="M648.317,537.166c1.169,3.127,2.453,6.215,3.667,9.329a31.384,31.384,0,0,1,2.224,9.767c.349,6.812-1.36,13.567-2.294,20.272-.229,1.64-.458,3.279-.6,4.931-.07.826-.121,1.652-.146,2.478a5.735,5.735,0,0,0,.235,2.44c1.163,2.777,4.957,1.843,7.225,1.557l10.854-1.4c2.872-.369,5.757-.674,8.6-1.214q1.773-.334,3.54-.731a2.511,2.511,0,0,0,1.417-.572c1.4-1.506,3.05-3.756,3.177-5.929l-1.7.458c.991,1.512,2.294,2.79,3.279,4.3.623.953,2.167.07,1.538-.9-.979-1.519-2.269-2.8-3.247-4.321a.922.922,0,0,0-1.7.458c-.121,1.843-1.608,3.228-2.605,4.633-.254.356.426-.07.178-.089a3.217,3.217,0,0,0-.769.146c-.94.184-1.881.375-2.821.566-5.942,1.176-12.029,1.722-18.035,2.51-1.576.2-3.171.5-4.76.6-1.061.064-2.358.019-2.447-1.284a27.4,27.4,0,0,1,.3-4.728c.178-1.614.438-3.215.737-4.81,1.182-6.317,2.764-12.6,2.5-19.083a31.956,31.956,0,0,0-2.205-10.288c-.331-.858-.7-1.7-1.087-2.536-.369-.788-.864-1.5-1.29-2.256s-.858-1.512-1.315-2.25c-.515-.832-1.125-1.57-1.69-2.364-.248-.35-.928-.153-.75.318h0Z" transform="translate(-601.932 -395.267)" fill="#010d3d"/>
      <path id="Trazado_9626" data-name="Trazado 9626" d="M711.617,585.162c.477.235.737.6,1.271.7a16.019,16.019,0,0,0,1.671.178,23.878,23.878,0,0,0,3.692-.1,34.286,34.286,0,0,0,7.086-1.2,1.081,1.081,0,0,0,.782-1.029c-.2-2.459-.642-4.9-.985-7.34-.369-2.605-.763-5.211-1.3-7.791-1.093-5.249-2.11-10.511-3.222-15.753l-.877-4.137a28.752,28.752,0,0,0-.96-4.169c-.2-.527-1.08-.5-1.049.14a22.338,22.338,0,0,0,.629,3.47c.261,1.239.521,2.472.782,3.711.534,2.542,1.074,5.077,1.582,7.626q1.573,7.854,2.612,15.8c.369,2.809.5,5.618.648,8.445l.782-1.029c-2.186.572-4.391,1.125-6.622,1.5-1.15.191-2.307.261-3.463.369-.547.051-1.087.083-1.633.1s-.883.337-1.43.445c-.025,0-.032.051-.006.064h0Z" transform="translate(-625.007 -397.993)" fill="#010d3d"/>
      <path id="Trazado_9627" data-name="Trazado 9627" d="M702.769,498.242a33.228,33.228,0,0,0,2.37,4.639c.915,1.6,1.76,3.241,2.682,4.842s1.754,3.127,2.65,4.677,1.849,2.98,2.567,4.563a7.171,7.171,0,0,1,.375,4.556,11.839,11.839,0,0,0,.019,4.842c.388,1.646.979,3.247,1.468,4.868s.941,3.368,1.366,5.052c.979,3.87,1.906,7.746,2.93,11.6a.182.182,0,0,0,.356-.051,85.853,85.853,0,0,0-3.559-21.009,9.973,9.973,0,0,1-.3-4.677,9.877,9.877,0,0,0-.083-5.071,23.731,23.731,0,0,0-2.3-4.328c-.96-1.576-1.964-3.133-2.923-4.7-1.074-1.76-2.205-3.476-3.3-5.217a40.805,40.805,0,0,0-3.438-5.109.537.537,0,0,0-.89.521h0Z" transform="translate(-621.776 -381.012)" fill="#010d3d"/>
      <path id="Trazado_9628" data-name="Trazado 9628" d="M692.51,543.622c-.051.1-.1.2-.153.292a1.843,1.843,0,0,0-.172.737,2.481,2.481,0,0,0,0,.686c.1.807.3,1.83,1.233,2.059a1.186,1.186,0,0,0,1.163-.305,1.346,1.346,0,0,0,.343-.7,1.142,1.142,0,0,0-.839-1.277,1.066,1.066,0,0,0-1.157.47v.013l.159-.21-.019.019.216-.165a.093.093,0,0,0-.019.013l.267-.114h-.013l.3-.038h-.013l.3.038H694.1l.273.114h-.013l.235.172a1.063,1.063,0,0,0-.4-.261,2.1,2.1,0,0,0-.489-.108l.318.044-.032-.013.286.121-.025-.019.241.184a.677.677,0,0,1-.07-.07l.184.242a1.942,1.942,0,0,1-.191-.381l.114.273a4.786,4.786,0,0,1-.318-1.144l.038.273a1.7,1.7,0,0,0-.191-.718l.1.229c-.025-.083-.044-.165-.07-.248a.867.867,0,0,0-1.576-.2h0Z" transform="translate(-617.923 -397.651)" fill="#010d3d"/>
      <path id="Trazado_9629" data-name="Trazado 9629" d="M696.356,561.721c-.025.165-.057.337-.083.5a4.3,4.3,0,0,0-.044.807c0,.178.025.362.038.54l.019.273a.95.95,0,0,0,.013.133,1.471,1.471,0,0,0,.184.661,1.241,1.241,0,0,0,.426.426,1.162,1.162,0,0,0,.756.14,1.094,1.094,0,0,0,.559-.235,1.171,1.171,0,0,0,.426-.616,2.488,2.488,0,0,0-.057-1.08c-.032-.184-.057-.375-.1-.559-.019-.089-.044-.178-.064-.26a3.543,3.543,0,0,0-.165-.477c-.07-.159-.14-.324-.21-.483l-.146-.184-.184-.146a.874.874,0,0,0-.591-.108.929.929,0,0,0-.438.184.857.857,0,0,0-.33.483h0Z" transform="translate(-619.405 -404.151)" fill="#010d3d"/>
      <path id="Trazado_9630" data-name="Trazado 9630" d="M700.453,580.465a1.073,1.073,0,0,0-.165.343c-.013.064-.025.121-.044.184l.108-.254c-.025.051-.045.108-.07.159a.522.522,0,0,0-.076.273,1.309,1.309,0,0,0-.019.222c0,.07,0,.133-.006.2,0,.127.019.261.025.388a6.616,6.616,0,0,0,.121,1.068,1.186,1.186,0,0,0,.547.712l.286.121a.869.869,0,0,0,.477.019,1.112,1.112,0,0,0,.686-.33,1.171,1.171,0,0,0,.349-.845,7.55,7.55,0,0,0-.178-1.061,3.572,3.572,0,0,0-.083-.375c-.019-.064-.044-.127-.064-.191-.006-.025-.019-.051-.025-.076a1.389,1.389,0,0,0-.3-.5l.165.216a1.4,1.4,0,0,1-.1-.165,1.338,1.338,0,0,0-.248-.286.9.9,0,0,0-.737-.241.868.868,0,0,0-.642.419h0Z" transform="translate(-620.846 -411.076)" fill="#010d3d"/>
      <path id="Trazado_9631" data-name="Trazado 9631" d="M702.749,591.224l-.057.051.191-.146a.8.8,0,0,0-.311.273.488.488,0,0,0-.127.222,1.06,1.06,0,0,0-.051.127.531.531,0,0,0-.025.108,1.058,1.058,0,0,1-.044.2l.108-.254a.391.391,0,0,0-.032.07l-.114.267a1.066,1.066,0,0,0-.045.318,1.15,1.15,0,0,1-.019.146l-.038.3.044-.311-.013.038a1.178,1.178,0,0,0,.3,1.15,1.232,1.232,0,0,0,.839.343,1.336,1.336,0,0,0,.839-.343,1.2,1.2,0,0,0,.3-.521,1.174,1.174,0,0,0,0-.629l-.013-.038.044.311-.038-.3a1.15,1.15,0,0,0-.019-.146,1.068,1.068,0,0,0-.044-.318l-.114-.267s-.019-.044-.032-.07l.108.254a1.927,1.927,0,0,1-.044-.2l-.019-.1v-.019l-.108-.235a.769.769,0,0,0-.254-.28.31.31,0,0,0-.133-.089l.191.146-.057-.051a.847.847,0,0,0-.6-.248l-.222.032a.856.856,0,0,0-.375.216h0Z" transform="translate(-621.572 -415.068)" fill="#010d3d"/>
      <path id="Trazado_9632" data-name="Trazado 9632" d="M670.844,485.165c-.337-.693-1.239-.267-1.265.4a5.467,5.467,0,0,0,.566,1.767l.883,2.358c1.118,2.993,2.23,5.992,3.285,9.011s2.065,6.043,3.1,9.062a80.121,80.121,0,0,0,3.5,9.017.869.869,0,0,0,1.608-.438,41.64,41.64,0,0,1,.318-4.525c.114-1.5.2-3.025.267-4.537.127-2.923.044-5.853,0-8.776s-.229-5.846-.413-8.77a32.1,32.1,0,0,0-.324-3.908,2.566,2.566,0,0,0-1.614-2.154c-.661-.229-1.137.864-.483,1.144.985.419.934,1.83,1.029,2.726.146,1.354.3,2.7.388,4.061.178,2.714.286,5.427.286,8.147s-.178,5.433-.33,8.147q-.114,2.04-.3,4.067a25.312,25.312,0,0,1-.521,4.137h1.665c-1.519-5.287-4.029-10.314-6.139-15.378-1.055-2.523-2.11-5.052-3.114-7.594q-.753-1.906-1.5-3.813l-.75-1.906-.343-.883a7.111,7.111,0,0,0-.362-1.055.323.323,0,0,0,.559-.324h0Z" transform="translate(-609.691 -375.937)" fill="#010d3d"/>
      <path id="Trazado_9633" data-name="Trazado 9633" d="M631.272,757.7a78.457,78.457,0,0,1-7.95,8.674c-1.436,1.29-2.9,2.561-4.455,3.724s-3.336,2.1-4.493,3.648a4.354,4.354,0,0,0-.5,4.6c1.023,1.894,3.234,1.855,5.09,1.506,3.679-.686,7.238-2.853,10.18-5.09a35.152,35.152,0,0,0,8.471-9.24l-2.1-1.226a3.352,3.352,0,0,0,1.512,4.537c1.868.94,4.073-.07,5.23-1.633,1.328-1.792,1.43-4.181,1.551-6.323.146-2.466.064-4.938.318-7.4.5-4.779,2.262-9.329,3.406-13.968a145.5,145.5,0,0,0,2.72-14.368c.763-5.452,1.246-10.93,1.735-16.414.133-1.487-2.173-1.468-2.313,0-.82,8.592-1.531,17.272-3.222,25.749-.845,4.258-2.065,8.395-3.19,12.576a41.982,41.982,0,0,0-1.22,6.113c-.235,2.065-.3,4.321-.419,6.475a25.565,25.565,0,0,1-.343,3.546,6.045,6.045,0,0,1-1.068,2.72c-.451.534-1.341,1.118-2.065.782-.4-.184-.769-.75-.534-1.176a1.215,1.215,0,0,0-2.1-1.226,31.317,31.317,0,0,1-14.768,12.506,14.045,14.045,0,0,1-2.434.705c-.6.108-1.722.369-2.192-.165-.877-.991.324-2.4,1.042-3.018,1.3-1.112,2.8-2.014,4.143-3.076a42.826,42.826,0,0,0,3.864-3.419,41.619,41.619,0,0,0,7.206-9.284c.356-.661-.566-1.481-1.093-.845h0Z" transform="translate(-589.221 -457.582)" fill="#010d3d"/>
      <path id="Trazado_9634" data-name="Trazado 9634" d="M641.859,756.932a25.323,25.323,0,0,0,2.777-4.219,43.5,43.5,0,0,0,1.983-4.817,76.907,76.907,0,0,0,2.758-10.091c1.512-7.244,2.529-14.609,3.324-21.962q.353-3.279.629-6.558c.089-1.042.165-2.084.242-3.126a7.541,7.541,0,0,0-.076-3.393.993.993,0,0,0-1.786-.235,5.765,5.765,0,0,0-.515,2.682c-.064.947-.133,1.881-.2,2.815q-.229,2.9-.515,5.783-.562,5.614-1.36,11.2a140.819,140.819,0,0,1-4.213,20.653c-.546,1.8-1.188,3.552-1.862,5.306s-1.315,3.66-2.027,5.465c-.178.458.54.883.845.489h0Z" transform="translate(-599.268 -455.556)" fill="#010d3d"/>
      <path id="Trazado_9635" data-name="Trazado 9635" d="M626.078,797.26a1.5,1.5,0,0,0,.96,1.773,4.418,4.418,0,0,0,3.3-.35,27.66,27.66,0,0,0,6.3-3.756q3.222-2.374,6.437-4.76c.915-.68,1.817-1.379,2.669-2.135.756-.667,1.957-1.57,1.976-2.663a.721.721,0,0,0-.9-.686c-.858.261-1.385,1.233-2.014,1.849a22.508,22.508,0,0,1-2.275,1.913c-1.748,1.315-3.521,2.605-5.281,3.908-1.659,1.227-3.3,2.5-5.065,3.571a18.4,18.4,0,0,1-2.8,1.43c-.972.381-2.1.864-2.821-.165a.279.279,0,0,0-.5.064h0Z" transform="translate(-593.807 -485.665)" fill="#010d3d"/>
      <path id="Trazado_9636" data-name="Trazado 9636" d="M710.745,705.444a142,142,0,0,0-.953,21.11,114.806,114.806,0,0,0,2.173,20.793,19.7,19.7,0,0,0,3.781,8.369,29.725,29.725,0,0,0,6.31,5.446c1.125.782,2.275,1.538,3.425,2.288a13.788,13.788,0,0,1,3.343,2.567c.756.928.991,2.262-.311,2.809a5.986,5.986,0,0,1-3.393.038c-5.624-1.118-11.655-3.559-14.489-8.878a1.163,1.163,0,0,0-1.989,0c-.705,1.131-2.5.642-3.19-.248-1.188-1.519-.769-3.73-.216-5.4a36.1,36.1,0,0,0,1.868-6.113,21.953,21.953,0,0,0-.127-6.45c-.661-4.315-2.237-8.414-3.184-12.665-1.068-4.779-.635-9.545-.705-14.393a63.617,63.617,0,0,0-2.192-15.969.986.986,0,0,0-1.9.521,79.96,79.96,0,0,1,1.837,15.448c.038,2.637-.121,5.268-.07,7.905a35.464,35.464,0,0,0,.934,7.359c1.055,4.512,2.809,8.922,3.26,13.561a16.568,16.568,0,0,1-.616,6.742c-.705,2.192-1.786,4.3-1.894,6.647-.1,2.161.737,4.614,2.834,5.567a4.177,4.177,0,0,0,5.357-1.347h-1.989c2.809,4.995,8.172,7.727,13.561,9.062,2.313.572,5.465,1.436,7.632-.019a3.229,3.229,0,0,0,1.366-3.323,6.253,6.253,0,0,0-2.459-3.406c-2.307-1.817-4.893-3.247-7.181-5.1a20.82,20.82,0,0,1-5.6-6.622c-1.57-3.076-2.027-6.7-2.51-10.072-.527-3.673-.852-7.378-1.049-11.083-.216-4.137-.2-8.267-.26-12.411s-.013-8.49-.134-12.729a.626.626,0,0,0-1.252,0h0Z" transform="translate(-620.405 -454.092)" fill="#010d3d"/>
      <path id="Trazado_9637" data-name="Trazado 9637" d="M708.221,785.238a6.392,6.392,0,0,0,1.709,2.224c.756.782,1.519,1.563,2.332,2.288a51.424,51.424,0,0,0,5.027,3.984c1.563,1.074,3.374,2.161,5.338,2.135a4.774,4.774,0,0,0,4.118-2.211.737.737,0,0,0-1.271-.743,3.579,3.579,0,0,1-3.832,1.347,13.56,13.56,0,0,1-4.741-2.408,53.651,53.651,0,0,1-4.41-3.349c-.693-.578-1.373-1.169-2.034-1.792a7.534,7.534,0,0,0-2.008-1.671c-.121-.051-.286.032-.235.184h0Z" transform="translate(-623.771 -485.8)" fill="#010d3d"/>
      <path id="Trazado_9638" data-name="Trazado 9638" d="M679.213,495.4a3.964,3.964,0,0,1,.362,1.69,3.529,3.529,0,0,1-.426,1.589,5.1,5.1,0,0,1-2.3,2.4.611.611,0,0,0,.47,1.112,4.629,4.629,0,0,0,2.917-3.095,6.577,6.577,0,0,0,.21-2.084,5.047,5.047,0,0,0-.527-2.014c-.235-.464-.915-.057-.693.407h0Z" transform="translate(-612.233 -380)" fill="#010d3d"/>
      <path id="Trazado_9639" data-name="Trazado 9639" d="M682.158,495.045c.019.121,0,.248.013.369a1.821,1.821,0,0,0,.121.451,2.9,2.9,0,0,0,.458.775,4.245,4.245,0,0,0,1.354,1.138,4.634,4.634,0,0,0,3.5.432.626.626,0,0,0-.331-1.207,3.685,3.685,0,0,1-2.567-.305,4.759,4.759,0,0,1-1.112-.794c-.178-.172-.337-.356-.5-.534a3.628,3.628,0,0,1-.47-.521.251.251,0,0,0-.458.191h0Z" transform="translate(-614.275 -379.976)" fill="#010d3d"/>
      <path id="Trazado_9640" data-name="Trazado 9640" d="M653.94,481.88a29.267,29.267,0,0,0-8.566,1.042,12.412,12.412,0,0,0-3.336,1.563,12.2,12.2,0,0,0-2.561,2.739c-1.576,2.18-1.919,4.976-2.555,7.524-.75,2.993-1.646,5.942-2.478,8.909a120.528,120.528,0,0,0-3.965,17.495c-.381,2.993-.591,6.005-.693,9.017a20.952,20.952,0,0,0,.184,4.137,8.048,8.048,0,0,0,1.614,3.6A37.892,37.892,0,0,0,645.1,549.125c1.411.705,2.663-1.417,1.239-2.122a42.96,42.96,0,0,1-11.744-8.75,15.01,15.01,0,0,1-2.25-2.745,7.381,7.381,0,0,1-.826-3.7,73.747,73.747,0,0,1,.311-8.375,103.728,103.728,0,0,1,3.215-16.7c1.455-5.491,2.5-10.886,4.607-15.995a8.2,8.2,0,0,1,2.269-3.33,11.851,11.851,0,0,1,1.563-.941,13.205,13.205,0,0,1,1.716-.883c2.764-1.118,5.8-1.2,8.738-1.245a1.23,1.23,0,0,0,0-2.459h0Z" transform="translate(-595.176 -375.295)" fill="#010d3d"/>
      <path id="Trazado_9641" data-name="Trazado 9641" d="M648.962,557.43l2.567,1.462c.419.242.839.483,1.252.724a9.552,9.552,0,0,0,1.373.743.646.646,0,0,0,.623-.165.475.475,0,0,0,.165-.28.688.688,0,0,0-.292-.724,8.8,8.8,0,0,0-1.271-.693c-.419-.216-.858-.445-1.284-.674l-2.561-1.366a.564.564,0,0,0-.572.972h0Z" transform="translate(-602.075 -402.454)" fill="#010d3d"/>
      <g id="Grupo_4979" data-name="Grupo 4979" transform="matrix(0.899, -0.438, 0.438, 0.899, 52.666, 125.726)">
        <path id="Trazado_9642" data-name="Trazado 9642" d="M661.712,518.569s.451-.35.6-.464c.4-1.97.311-3.877,1.334-5.669.375-.655,1.176-1.907,1.614-2.637.076-.146.153-.28.235-.407a.593.593,0,0,0,.044-.1h.013a2.97,2.97,0,0,1,.712-.782c.9-.629,1.811-.508,2.809.407.191.172.921.172,1.042.6a2.354,2.354,0,0,0-.686-.133,7.1,7.1,0,0,0-1.4.591c1.964,2.936-.343,6.12-1.22,8.745.038.165,1.233.369,1,1.03a.163.163,0,0,1-.159.127c-1.182,0-1.8-.629-2.942-.737-.991-.1-1.6.3-2.86-.019a.307.307,0,0,1-.146-.547" transform="translate(-661.59 -508.123)" fill="#010d3d" fill-rule="evenodd"/>
        <path id="Trazado_9643" data-name="Trazado 9643" d="M667.81,511.582a.969.969,0,0,0,.019.432c.1,5.6-1.551,7.525-2.231,5.847-.21-.528-.68-.629-.724,1.76,0,.254.629.222.883.267.75.127.8.191,1.176-.057.21-.14,2.485-4.595,1.811-7.13a6.66,6.66,0,0,0-.356-1.195.338.338,0,0,0-.578.083" transform="translate(-662.426 -509.309)" fill="#fff" fill-rule="evenodd"/>
        <path id="Trazado_9644" data-name="Trazado 9644" d="M665.1,509.306a.227.227,0,0,0,.2.254.227.227,0,1,0-.2-.254" transform="translate(-659.251 -508.481)" fill="#fff"/>
      </g>
      <path id="Trazado_9645" data-name="Trazado 9645" d="M667.6,464.558c.222,2.148.426,4.3.591,6.45a59.868,59.868,0,0,1,.432,6.469l1.417-.191a35.952,35.952,0,0,1-.1-6.869c.038-2.288.108-4.62-.858-6.647-.407-.858-1.519-.191-1.4.591a72.263,72.263,0,0,1,.826,11.54,2.685,2.685,0,0,0,.438,1.945,9.852,9.852,0,0,0,1.862,1.443c1.582,1.15,3.184,2.262,4.772,3.406a.8.8,0,0,0,1.055-.273,32.862,32.862,0,0,0,2.44-3.743c.731-1.3,1.557-2.675,1.354-4.226-.432-3.273-.6-6.59-.82-9.882-.076-1.138-1.881-1.118-1.767,0,.159,1.538.33,3.069.47,4.607s.369,3.05.388,4.556a9.16,9.16,0,0,1-.909,4.194,20.289,20.289,0,0,1-2.364,3.565l.934-.121c-1.36-1.029-2.694-2.084-4.061-3.1l-1.118-.832a3.772,3.772,0,0,1-.871-.667,5.366,5.366,0,0,1-.28-2.256c-.26-3.451-.559-6.9-.839-10.352h-1.538c-.089,1.163-.019,2.313-.057,3.476s-.07,2.25-.083,3.374a17.412,17.412,0,0,0,1.138,6.666.722.722,0,0,0,1.392-.381c-.381-2.154-.407-4.41-.661-6.583s-.515-4.188-.8-6.278c-.076-.553-1.042-.426-.985.133h0Z" transform="translate(-608.936 -368.547)" fill="#010d3d"/>
      <path id="Trazado_9646" data-name="Trazado 9646" d="M667.829,393.3c.1,1.252.14,2.523.3,3.762a4.485,4.485,0,0,0,1.4,2.955,1.629,1.629,0,0,0,1.525.445,5.644,5.644,0,0,0,1.525-.737,4.586,4.586,0,0,0,1.754-2.942,13.493,13.493,0,0,0,.273-2.262c.013-.375.006-.756-.006-1.131a1.609,1.609,0,0,0-.4-1.265.81.81,0,0,0-1.246.159,1.721,1.721,0,0,0-.14,1.246q.038.5.038.991a18.692,18.692,0,0,1-.1,1.976,4.119,4.119,0,0,1-.362,1.7,2.913,2.913,0,0,1-1.3.985c-.222.108-.445.273-.686.159a1.945,1.945,0,0,1-.578-.489,3.729,3.729,0,0,1-.705-1.525,31.7,31.7,0,0,1-.489-4.029c-.051-.515-.852-.527-.813,0Z" transform="translate(-609.053 -342.494)" fill="#010d3d"/>
      <path id="Trazado_9647" data-name="Trazado 9647" d="M701.154,391.486a19.156,19.156,0,0,0,.26,3.857,4.657,4.657,0,0,0,1.481,3.247,2.3,2.3,0,0,0,3.088-.311,5.462,5.462,0,0,0,1.22-3.33,10.5,10.5,0,0,0-.1-2.046,4.19,4.19,0,0,0-.661-2.154.761.761,0,0,0-1.265.337,5.221,5.221,0,0,0,.184,2.046,8.587,8.587,0,0,1,.1,1.76,4.876,4.876,0,0,1-.369,1.684,2.643,2.643,0,0,1-.3.527,1.294,1.294,0,0,1-.343.3c-.934.394-1.493-1.3-1.671-1.945a16.059,16.059,0,0,1-.566-3.965.534.534,0,0,0-1.068,0h0Z" transform="translate(-621.197 -341.992)" fill="#010d3d"/>
      <path id="Trazado_9648" data-name="Trazado 9648" d="M659.99,428.224c.076,3.158,2.6,5.338,5.077,6.9a11.214,11.214,0,0,0,4.289,1.722,8.083,8.083,0,0,0,2.25-.013c.756-.1,1.786-.019,2.383-.591a.447.447,0,0,0,0-.623c-.5-.515-1.106-.388-1.754-.286a12.711,12.711,0,0,1-2.135.248,8.961,8.961,0,0,1-4.016-1.271c-2.351-1.29-5.027-3.146-5.2-6.088-.032-.566-.9-.578-.89,0Z" transform="translate(-606.195 -355.579)" fill="#010d3d"/>
      <path id="Trazado_9649" data-name="Trazado 9649" d="M687.913,483.037a25.3,25.3,0,0,0,4.753.261c1.169-.038,1.163-1.881,0-1.811a37.983,37.983,0,0,1-5.51-.165v1.76a36.358,36.358,0,0,1,7.391-.013,14.942,14.942,0,0,1,6.558,1.767,19.329,19.329,0,0,1,4.467,4.461,43.878,43.878,0,0,1,3.6,5.363c4.359,7.581,6.869,16.154,9.354,24.491.763,2.555,1.474,5.128,2.192,7.7.566,2.046,1.195,4.232,2.891,5.637a.75.75,0,0,0,1.233-.324c2.917-7.066,5.821-14.126,8.49-21.288l-1.678.222c.566.782,1.22,1.474,1.8,2.237.635.839,1.214,1.728,1.83,2.586,1.157,1.608,2.383,3.184,3.482,4.83.527.794.28,1.3-.044,2.142s-.642,1.627-1,2.427c-.686,1.544-1.455,3.063-2.275,4.544a52.128,52.128,0,0,1-5.923,8.592,14.446,14.446,0,0,1-3.775,3.476,7.335,7.335,0,0,1-4.671.731c-3.457-.578-6.437-3.432-7.956-6.488-.324-.661-1.392-.2-1.182.5a10.449,10.449,0,0,0,2.752,4.289,13.668,13.668,0,0,0,4.27,3.057,9.127,9.127,0,0,0,10.161-2.122,46.767,46.767,0,0,0,7.155-9.329,48.233,48.233,0,0,0,2.694-5.1c.375-.832.731-1.671,1.074-2.516a15.776,15.776,0,0,0,.985-2.8,3.446,3.446,0,0,0-.953-2.822l-2.313-3.031q-1.125-1.477-2.262-2.942c-.8-1.03-1.462-2.148-2.256-3.184a.932.932,0,0,0-1.678.222c-2.44,7.149-5.065,14.273-8.064,21.206l1.157-.153c-1.633-1.417-2-3.635-2.536-5.618q-.963-3.565-2.014-7.1c-1.309-4.429-2.675-8.846-4.277-13.173a73.953,73.953,0,0,0-5.325-11.661,46.054,46.054,0,0,0-3.54-5.23,24.67,24.67,0,0,0-4.359-4.55,13.868,13.868,0,0,0-6.831-2.313,64.048,64.048,0,0,0-8.617-.477c-.96.006-1.239,1.544-.235,1.728a24.139,24.139,0,0,0,5.745.254l-.241-1.779a18.663,18.663,0,0,1-4.334.2c-.743-.038-.934,1.2-.178,1.322h0Z" transform="translate(-615.785 -375.086)" fill="#010d3d"/>
      <path id="Trazado_9650" data-name="Trazado 9650" d="M760.558,523.036c.229-2.663,1.258-5.535,3.883-6.666a14,14,0,0,1,4.366-.871,38.139,38.139,0,0,1,4.969-.1,19.835,19.835,0,0,1,4.366.546,4.913,4.913,0,0,1,1.62.731c.515.381,1.271,1.252.9,1.951-.28.521-1.1.508-1.6.527-.807.032-1.62.051-2.434.051-1.627,0-3.241-.083-4.868,0-1.2.057-1.207,1.932,0,1.875,1.64-.076,3.241-.311,4.868-.47a14.22,14.22,0,0,0,3.991-.483,2.01,2.01,0,0,0,1.157-2.605,4,4,0,0,0-2.167-2.243,10.685,10.685,0,0,0-3.349-.813,40.488,40.488,0,0,0-4.963-.235c-2.713.032-5.973.083-8.337,1.608s-3.235,4.455-3.381,7.213c-.038.642.934.629.991,0h0Z" transform="translate(-642.498 -387.086)" fill="#010d3d"/>
      <path id="Trazado_9651" data-name="Trazado 9651" d="M769.1,519.655a4.487,4.487,0,0,1,1.945-.235,2.924,2.924,0,0,1,1.767.718,2.983,2.983,0,0,1,.483,1.747,7.219,7.219,0,0,1-.2,1.919,10.632,10.632,0,0,1-.508,1.754c-.14.324-.356.7-.724.623-1.157-.242-1.36-1.379-2.008-2.25a.829.829,0,0,0-1.493.2,4.255,4.255,0,0,1-.737,1.862,1.017,1.017,0,0,1-.578.388c-.178.006-.3-.089-.489-.038a.677.677,0,0,0-.375.286.617.617,0,0,0,0,.635c.68.9,1.8.324,2.453-.311a5.821,5.821,0,0,0,1.3-2.389l-1.608-.216a4.026,4.026,0,0,0,2.072,3.266,2.52,2.52,0,0,0,3.33-1.138,6.885,6.885,0,0,0,.521-1.767,14.166,14.166,0,0,0,.273-2.059c.057-1.258-.152-2.917-1.341-3.629a5.284,5.284,0,0,0-4.34-.3c-.578.21-.337,1.137.261.934h0Z" transform="translate(-644.872 -388.604)" fill="#010d3d"/>
      <path id="Trazado_9652" data-name="Trazado 9652" d="M776.93,524.169a1.243,1.243,0,0,1,.813,1.512,2.223,2.223,0,0,1-1.551,1.3c-.585.222-.718,1.157,0,1.328a1.34,1.34,0,0,1,1.01,1.779,1.2,1.2,0,0,1-.743.6,1.44,1.44,0,0,1-.966-.025.943.943,0,0,0-.5,1.817c.267.089-.013-.1.216.127a2.867,2.867,0,0,1,.292.324.569.569,0,0,1,.076.7,1.52,1.52,0,0,1-1.423.477,2.521,2.521,0,0,1-1.462-.775,3.782,3.782,0,0,1-.508-.635c-.07-.1-.394-.629-.343-.686a.723.723,0,0,0-.146-1.112c-.527-.324-1.3-.75-1.449-1.411-.114-.5.248-.9.419-1.328a.372.372,0,0,0-.172-.419c-1.061-.591-1.722.89-1.665,1.741.089,1.271,1.163,2.021,2.154,2.637l-.146-1.112c-.839.96-.184,2.135.5,2.968a4.054,4.054,0,0,0,2.885,1.57,2.784,2.784,0,0,0,2.688-1.417,2,2,0,0,0-.013-1.62,3.5,3.5,0,0,0-.426-.769c-.089-.127-.2-.235-.286-.369.146.222-.108-.248-.127-.28L775,532.475a2.891,2.891,0,0,0,3.362-2.065,2.98,2.98,0,0,0-1.786-3.425v1.328a3.055,3.055,0,0,0,2.307-2.605,2.381,2.381,0,0,0-1.659-2.529.521.521,0,0,0-.273,1h0Z" transform="translate(-645.869 -390.341)" fill="#010d3d"/>
      <path id="Trazado_9653" data-name="Trazado 9653" d="M771.883,539.935a4.858,4.858,0,0,1-.566.578.686.686,0,0,0-.076.064c-.1.083.076-.051-.006.006a1.349,1.349,0,0,1-.159.1,3.831,3.831,0,0,1-.356.191l.133-.057a1.266,1.266,0,0,1-.165.051l.159-.019h-.019l.3.083a.828.828,0,0,0-.26-.083.908.908,0,0,0-.292.019l.165-.019c-.108.013-.216.013-.33.032l.165-.019h-.133a.552.552,0,0,0-.483.28.578.578,0,0,0,0,.566.856.856,0,0,0,1.29.172l-.121.1.019-.013-.14.057a1.522,1.522,0,0,0,.273-.127,2.841,2.841,0,0,0,.273-.21c.127-.1.248-.21.369-.318a5.188,5.188,0,0,0,.724-.813.485.485,0,0,0,.051-.375.506.506,0,0,0-.172-.254.484.484,0,0,0-.635.038h0Z" transform="translate(-646.255 -396.416)" fill="#010d3d"/>
    </g>
  </g>
</svg>
